<svg width="512" height="512" viewBox="0 0 512 512" fill="none" xmlns="http://www.w3.org/2000/svg">
<path d="M152 0H359L365.75 1.5L371 3.25L377 6.5L381 9.5L384.75 12.75L387 15.5L389.5 18.75L392 23.25L393.75 27L395.25 32L396 36.75L396.25 40.25V82.75H420.75V40.5L422 41.25L424.5 43.5L427.25 45.75L429.75 48L432.5 50.25L435.5 53L438.25 55.25L440.75 57.5L442.75 59.25L449.75 65.25L457.25 71.75L460.75 74.75L463.25 77L466 79.25L468.5 81.5L470.5 83.25L477.5 89.25L480 91.5L482.75 93.75L485.5 96.25L488.25 98.5L491 101L493.75 103.25L496.5 105.75L499.25 108L502.25 110.75L505 113L507.75 115.5L507.25 116.5L504.25 119.25L502.25 121L498.75 124L496.25 126.25L493.5 128.5L490.25 131.5L487.5 133.75L484.5 136.5L481.75 138.75L479 141.25L477 143L470 149L467.25 151.5L464.5 153.75L461.25 156.75L458.5 159L455.5 161.75L452.75 164L450 166.5L447.25 168.75L444.25 171.5L441.5 173.75L438.25 176.75L435.5 179L432.5 181.75L429.75 184L427.25 186.25L425.25 188L421.75 191L421 191.5L420.75 191V148.75H396.25V472.25L395.75 477.75L394.25 483.75L392.25 488.5L389.5 493.5L386.75 497L384 500L382.25 501.75L379.75 503.75L377.25 505.5L371.25 508.75L367 510.25L362.75 511.5L360 512H151.5L144 510L140.25 508.5L134.75 505.5L131.5 503L127.75 499.75L125.5 497.25L123 494L120.5 489.75L118.5 485.5L117.25 481.75L116.25 477L115.75 471.5V413H91.25V455.25L90.25 454.75L87.5 452.5L84.75 450L82 447.75L79.25 445.25L76.5 443L73.5 440.25L70.75 438L68 435.5L65.25 433.25L62.75 431L60 428.75L57 426L54.25 423.75L51.5 421.25L48.75 419L46 416.5L43.25 414.25L40.75 412L38 409.75L35 407L32.25 404.75L29.5 402.25L26.75 400L24 397.5L21.25 395.25L18.75 393L16 390.75L13 388L10.25 385.75L7.25 383L4.5 380.75V379.75L6.5 378L9 375.75L11.75 373.5L14.75 370.75L16.75 369L20.25 366L23 363.5L25.75 361.25L28.75 358.5L31.5 356.25L35 353L37.75 350.75L41 347.75L43.75 345.5L46.75 342.75L48.75 341L52.25 338L55 335.5L57.75 333.25L61 330.25L63 328.5L66.5 325.5L69 323.25L71 321.5L73.5 319.25L76.25 317L79.25 314.25L82 312L84.75 309.5L86.75 307.75L89.25 305.5L90.75 304.25H91.25V346.5H115V42L115.5 35.5L116.5 30.5L118.5 25L121.5 19.5L124 16L127 12.5L128.75 10.75L131.25 8.75L134 6.75L139.5 3.75L143 2.25L148.5 0.75L152 0ZM207.5 16.5L154 16.75L150.25 17.5L146.25 19L142.75 21L139.25 24L136.75 27L134.5 30.75L133 34.75L132.5 37L132 43.25V49.75H380V39.25L379.25 35L378 31.25L375.75 27.25L373 24L370.5 21.75L367.75 20L363.5 18L360 17L358.25 16.75L304 16.5H207.5ZM132.25 66.25L132 67.5L131.75 363.25H114.75L74.5 363.5V341L74 340.75L71.25 343L68.25 345.75L66.25 347.5L62.75 350.5L59.75 353.25L57 355.5L53.75 358.5L51.75 360.25L48.25 363.25L45.5 365.75L42.75 368L39.5 371L36.75 373.25L33.25 376.5L30.5 378.75L29.25 379.75L29.75 380.75L32.5 383L35.5 385.75L38.25 388L41.25 390.75L43.25 392.5L46.75 395.5L49.5 398L52.25 400.25L55.5 403.25L58.25 405.5L61.5 408.5L64.25 410.75L67.5 413.75L70.25 416L73.25 418.75L74.25 419.25L74.5 396.75L214.75 396.5V412.75H205.25L132.25 413L132 413.5V429.5H380L380.25 149.75L381 149L381.25 132.5H414L438 132.25V155L439 154.75L442 152L444.75 149.75L448 146.75L450.75 144.5L454 141.5L456.75 139.25L460 136.25L462.75 134L466 131L468.75 128.75L472.25 125.5L475 123.25L478.25 120.25L481 118L483.25 116L482.75 115L480 112.75L476.25 109.5L473.75 107.25L471 105L468.25 102.5L465.5 100.25L462.75 97.75L460 95.5L457.25 93L454.5 90.75L451.75 88.25L449 86L446.5 83.75L444.5 82L441 79L439 77.25L437.75 76.5V99H297.5V83L380.25 82.75L380.5 82.5V66.25H132.25ZM227.25 446.25L131.75 446.5V473.25L132.5 477.5L133.75 481.25L136 485.25L138.75 488.5L141.5 491L144.25 492.75L148 494.5L152 495.5L156.5 496H355.75L360.5 495.5L365.75 493.75L369.5 491.5L372.25 489.25L373.5 488L376 485L378.25 480.75L379.5 476.75L380 473.25V446.5L227.25 446.25Z" fill="#ED923B"/>
<path d="M311.5 151.75L314 152L316 153L317.5 155L318.25 157.25L318.5 159.75L319.25 181L319.5 187.5V192.5L318.75 194.75L317 196.75L314.5 197.75L307.75 198.25L280.25 199.25L277.5 198.75L275.25 197.25L274 195.5L273.5 194V191.5L274.5 189.5L275.75 188.25L277.75 187L278.75 186.75L297.5 185.75L296.25 184.75L291 181.5L285.75 178.75L279.5 176.25L274.75 174.75L268.25 173.25L262.5 172.5L260 172.25H250L243.75 173L236.75 174.5L231 176.25L226 178.25L222 180.25L217 183L211.5 186.75L207.75 190L205.75 191.75L203 194.5L201.25 196.5L199.25 198.75L196.5 202.5L194.25 205.75L192 209.75L189.5 214.5L186.75 221.75L185 228.25L184 233.25L183.25 240.5V246.25L183.75 252.75L185 260.75V263.75L184 265.75L182.25 267.5L180.25 268.25H178.25L175.75 267.5L173.75 265.75L172.75 263.75L171.25 255.75L170.5 248.25V240L171 233.5L172.5 224.75L174.5 217.75L177 211L180.5 203.75L183 199.25L185.75 195.25L188.25 191.75L191.25 188.25L193.5 185.5L197.5 181.75L200.75 178.75L204 176.25L207.75 173.5L213 170.25L218.75 167.25L223.25 165.25L228 163.5L236 161.25L243 160L250 159.25H260L268.5 160.25L275.75 161.75L282.5 163.75L289.5 166.5L293.5 168.5L297.75 170.75L301.25 173L306 176.25V158L306.5 156L307.75 154L309.5 152.5L311.5 151.75Z" fill="#ED923B"/>
<path d="M331.25 225H334.5L336.75 226L338.5 228.25L339.5 231.25L340.75 238.5L341.25 244.75V255.25L340.5 262.25L339.25 268.5L337.75 274.25L335.5 280.75L332.75 286.75L330.25 291.5L327 296.75L323.5 301.5L321.5 304L318 307.75L316.75 309.25H316.25V309.75L314.25 311.5L311.25 314.25L308 316.75L303.5 320L296.75 324L290.5 327L283.75 329.5L277.75 331.25L272 332.5L265.5 333.5L261.75 333.75H250L245.25 333.25L239.5 332.25L234.25 331L226.75 328.5L221 326L216.75 324L210.5 320.25L206.75 317.5L206 317.25L206.25 317.75L207.5 331L207.75 334.75L207.5 337L206.25 339.25L204.25 340.75L203 341.25H200.75L198.75 340.5L197 338.75L196 336.5L195.25 329.75L193 304.25V300.5L194 298.25L195.25 297L196.25 296.25L199 295.5L228.75 292.75H234L236 293.75L237.75 295.75L238.5 297.75V299.75L237.5 302.25L236 304L234.5 304.75L229.5 305.5L215.75 306.75L214 307L220 311L226.25 314.25L230 316L236 318.25L243 320L249.5 321L252.25 321.25H262L268.5 320.5L274.75 319.25L281.5 317.25L288.25 314.5L294 311.5L300 307.5L304 304.25L306.75 302L310.25 298.5L312.5 295.75L315 292.75L318.5 287.5L320.75 283.5L322.75 279.5L325.25 273.25L326.75 268.75L328.25 262L329 256L329.25 252.25V245.75L328.5 239L327 230.5L327.25 228.25L328.75 226.25L331.25 225Z" fill="#ED923B"/>
<path d="M229.25 207.25H282.75L284.25 208.25L285.25 209.75L285.5 211.5L285 213.25L283.75 214.75L281.25 215.25H266.5L269.25 220L271 225.5V226L279.5 225.75L281.25 225L283 225.25L284.75 226.75L285.5 228.5L285 230.75L284 232.25L283.25 232.75L280.5 233L271.5 233.25L270.75 237.25L269.25 241L266.75 244.5L265.5 246L262.75 248L258.75 250.25L254.75 252L249.5 253.5L246.25 254L242.25 254.5L245.5 258.25L248.5 261.75L251.25 265L260.25 275.5L263 278.75L266 282.25L268.5 285.25L269.5 287V288.75L268.25 290.75L267 291.75L266.5 292H264.25L262.5 291L259.25 287.25L257 284.75L254.75 282L252.5 279.5L250.75 277.5L244.75 270.5L242.5 268L240.25 265.25L237.75 262.5L235.5 259.75L232.75 256.75L230.5 254L229.5 252.25L229.25 250.75L230 248.5L231.75 246.75L232.5 246.5L241 246.75L248 245.75L253.75 244L259.5 241.25L261 239.5L262.5 236.5L263 234.25L230.25 234L228.5 233.25L227.5 232L227 231V229L227.75 227.5L229.75 226H263L261.75 223L260.25 220.5L258.25 218.25L255 216.25L252.75 215.5L230 215.25L228.25 214.5L227 213L226.75 210.5L227.5 208.75L229.25 207.25Z" fill="#ED923B"/>
<path d="M231.25 462.5H280.75V478.75L280.25 479H231.5L231.25 478.75V462.5Z" fill="#ED923B"/>
</svg>
