<svg width="64" height="64" viewBox="0 0 64 64" fill="none" xmlns="http://www.w3.org/2000/svg">
<path d="M52.9062 2.1875H53.3125L53.75 2.25L54.25 2.40625L54.8125 2.71875L55.2188 3.0625L55.5 3.375L55.75 3.78125L55.875 4.03125L56.0625 4.59375L56.8438 7.8125L57.3125 9.75L57.5938 9.8125L58.2812 9.9375L58.9062 10.1562L59.4062 10.4062L59.8438 10.6562L60.1875 10.9375L60.5625 11.2812L60.8125 11.5312L61.1875 12.0312L61.4375 12.4688L61.6875 13L61.875 13.5938L61.9688 14.1562L62 14.5312L62.0312 21.3438V24.9062L62 31.7812H62.875L63.25 31.875L63.5938 32.0938L63.8125 32.375L63.9375 32.625L64 32.6875V46.9375L63.9062 47.0312L63.75 47.3125L63.4375 47.5938L63.1875 47.7188L62.7188 47.8125H62.0312V52.0938L62 57.0625L61.9062 57.8438L61.6562 58.6562L61.4062 59.1562L61.1562 59.5938L60.8125 60.0312L60.4375 60.4375L60.0312 60.7812L59.7188 61L59.2188 61.2812L58.7812 61.4688L58.0312 61.6875L57.3125 61.7812L56.875 61.8125H5.15625L4.34375 61.75L3.90625 61.6875L3.1875 61.4688L2.59375 61.1875L2.1875 60.9375L1.75 60.5938L1.375 60.25L1 59.8125L0.6875 59.3438L0.375 58.75L0.125 58L0.0625 57.7188V57.5625L0 57.5312V14.125L0.09375 13.7188L0.34375 12.9062L0.59375 12.4062L0.84375 11.9688L1.40625 11.2812L1.75 10.9688L2.0625 10.7188L2.5 10.4375L2.96875 10.1875L3.8125 9.90625L4.40625 9.8125L4.71875 9.78125L21.4062 9.75L22.6875 9.4375L25.7812 8.6875L27.875 8.1875L29.5312 7.78125L30.9688 7.4375L32.625 7.03125L35.4688 6.34375L37.6875 5.8125L39.4688 5.375L41.5625 4.875L43.3438 4.4375L46.4375 3.6875L48.2812 3.25L50.0625 2.8125L52.2812 2.28125L52.9062 2.1875ZM53 4.21875L52.375 4.34375L50.1562 4.875L48.375 5.3125L46.1875 5.84375L40.375 7.25L38.2812 7.75L36.5 8.1875L33.4062 8.9375L30.5625 9.625L28.4688 10.125L26.6875 10.5625L13.9375 13.6562L13.5938 13.75V13.7812H18.875L52.125 13.8125L52.4375 13.9062L52.6875 14.0938L52.875 14.3438L52.9688 14.5938V15L52.8438 15.3125L52.625 15.5625L52.3125 15.7188L51.8438 15.7812H4.875L4.5625 15.6875L4.28125 15.5L4.09375 15.2188L4 14.875L4.03125 14.5312L4.15625 14.2188L4.25 14.125V14.0625H4.3125V14L4.46875 13.9375L4.875 13.7812L6.96875 13.2812L8.09375 13L11.9688 12.0625L12.9688 11.8125V11.7812L4.75 11.8125L4.3125 11.875L3.75 12.0625L3.3125 12.3125L2.90625 12.6562L2.625 12.9688L2.40625 13.3125L2.1875 13.7812L2.0625 14.25L2 14.8438L2.09375 15.5L2.25 15.9688L2.5 16.4375L2.8125 16.8438H2.875L2.9375 16.9688L3.34375 17.2812L3.8125 17.5312L4.15625 17.6562L4.65625 17.75L4.96875 17.7812L57.3125 17.8125L57.875 17.875L58.625 18.0625L59.25 18.3438L59.5938 18.5312L59.9375 18.75H59.9688L59.9375 18.2812L59.8125 17.7812L59.5312 17.1875L59.2188 16.7812L58.9375 16.5L58.4688 16.1875L58 15.9688L57.5625 15.8438L57.3438 15.8125L55.9688 15.7812L55.5625 15.6875L55.2812 15.4688L55.0938 15.1875L55.0312 15V14.5938L55.125 14.3438L55.3125 14.0625L55.5312 13.9062L55.8438 13.8125L56.125 13.7812L56.1562 13.625L55.375 10.4062L54.6875 7.5625L54.0938 5.09375L53.9062 4.625L53.6562 4.375L53.375 4.25L53.2188 4.21875H53ZM57.8125 11.9375L58.2812 13.9062L58.4062 14L59.0625 14.25L59.5938 14.5312L59.9375 14.75H59.9688L59.9375 14.2812L59.8125 13.7812L59.5625 13.25L59.2812 12.8438L58.9375 12.5L58.5312 12.2188L58.1562 12.0312L57.9062 11.9375H57.8125ZM2.03125 18.8125L2 19.75V56.6875L2.0625 57.3438L2.1875 57.8125L2.3125 58.125L2.59375 58.5625L2.9375 58.9688L3.34375 59.2812L3.875 59.5625L4.40625 59.7188L4.875 59.7812H57L57.5625 59.7188L58.0312 59.5938L58.5312 59.3438L58.8438 59.125L59.1562 58.8438L59.4062 58.5625L59.6562 58.1562L59.8125 57.7812L59.9375 57.2812L59.9688 57V47.8125L45.4375 47.7812L44.9062 47.6875L44.5938 47.5312L44.3438 47.3125L44.125 46.9688L44.0312 46.5625L44 46.2188V33.1875L44.0938 32.7188L44.2812 32.3438L44.4375 32.1562L44.7812 31.9375L45.0625 31.8438L45.2188 31.8125L59.9688 31.7812V22.5938L59.875 22L59.7188 21.5625L59.4688 21.0938L59.1875 20.75L58.9688 20.5312L58.5312 20.2188L58 19.9688L57.5625 19.8438L57.1875 19.8125L5.03125 19.7812L4.25 19.7188L3.65625 19.5938L3.1875 19.4375L2.46875 19.0938L2.09375 18.8438L2.03125 18.8125ZM46.0312 33.8125L46 34.2812V45.7812H61.9688V33.8125H46.0312Z" fill="#FCAA23"/>
<path d="M51.7188 36.7812H52.1562L52.5 36.9062L52.75 37.0938L52.9375 37.375L53 37.5938V38L52.875 38.3125L52.625 38.5938L52.3125 38.75L51.625 38.9062L51.375 39.0625L51.1875 39.2812L51.0625 39.625V39.9375L51.1562 40.25L51.3125 40.4688L51.6562 40.6875L51.8125 40.7188H52.1562L52.4375 40.625L52.7188 40.4375L52.8438 40.25L53.0625 39.375L53.2812 39.0625L53.5312 38.875L53.8125 38.7812H54.1562L54.5 38.9062L54.75 39.0938L54.9375 39.375L55 39.5938V40.1562L54.9062 40.5938L54.75 41.0625L54.4688 41.5312L54.125 41.9375L53.75 42.25L53.3125 42.5L52.8125 42.6875L52.3438 42.7812L51.9062 42.8125L51.2812 42.7188L50.7188 42.5312L50.25 42.25L49.8125 41.875L49.4688 41.4375L49.1875 40.9062L49.0312 40.375L48.9688 39.75L49.0312 39.1875L49.1875 38.6562L49.4688 38.125L49.75 37.7812L50.0938 37.4375L50.4062 37.2188L50.9062 36.9688L51.3125 36.8438L51.7188 36.7812Z" fill="#FCAA23"/>
</svg>
