<svg width="50" height="39" viewBox="0 0 50 39" fill="none" xmlns="http://www.w3.org/2000/svg">
<g clip-path="url(#clip0_206_834)">
<mask id="mask0_206_834" style="mask-type:luminance" maskUnits="userSpaceOnUse" x="-20" y="-4" width="90" height="46">
<path d="M-19.5743 -3.0971H69.5747V41.4774H-19.5743V-3.0971Z" fill="white"/>
</mask>
<g mask="url(#mask0_206_834)">
<path d="M3.86705 4.43089C3.86705 4.12052 3.64128 3.90425 3.2463 3.90425H1.61851V4.96578H3.2463C3.632 4.96578 3.86705 4.77036 3.86705 4.43089ZM3.74405 2.00364C3.74405 1.70256 3.51767 1.51456 3.19059 1.51456H1.61851V2.49272H3.19059C3.51767 2.49272 3.74405 2.31257 3.74405 2.00364ZM0 6.37793V0.10221H3.55585C4.80827 0.10221 5.39001 0.911154 5.39001 1.70256C5.39001 2.48323 4.91166 3.00946 4.31774 3.14236C4.98698 3.24513 5.513 3.88485 5.513 4.67419C5.513 5.58776 4.90175 6.37793 3.66894 6.37793H0Z" fill="#F37F36"/>
<path d="M10.6195 6.37793V3.8572H8.01415V6.37793H6.39502V0.10221H8.01415V2.44567H10.6195V0.10221H12.2386V6.37793H10.6195Z" fill="#F37F36"/>
<path d="M16.0836 1.70256L15.2848 4.06274H16.873L16.0836 1.70256ZM17.6256 6.37793L17.3165 5.47426H14.8422L14.5324 6.37793H12.6982L15.059 0.10221H17.1008L19.4608 6.37793H17.6256Z" fill="#F37F36"/>
<path d="M23.5993 2.18173C23.5993 1.74837 23.2507 1.51477 22.8173 1.51477H21.5389V2.85964H22.8173C23.2507 2.85964 23.5993 2.62521 23.5993 2.18173ZM23.4205 6.37793L22.3673 4.27116H21.5389V6.37793H19.9204V0.102416H23.0631C24.4546 0.102416 25.2448 1.02548 25.2448 2.19164C25.2448 3.28351 24.5869 3.86545 23.9938 4.07223L25.2741 6.37793H23.4205Z" fill="#F37F36"/>
<path d="M28.8566 1.70256L28.0563 4.06274H29.6459L28.8566 1.70256ZM30.3992 6.37793L30.0888 5.47426H27.6141L27.3039 6.37793H25.4706L27.832 0.10221H29.8723L32.2337 6.37793H30.3992Z" fill="#F37F36"/>
<path d="M33.5116 6.37793V1.51456H31.7528V0.10221H36.8801V1.51456H35.1287V6.37793H33.5116Z" fill="#F37F36"/>
<path d="M40.8485 5.02305L40.2748 4.32637L41.3946 3.42291L41.9852 4.13755C42.1088 3.87423 42.1856 3.57335 42.1856 3.24482C42.1856 2.2196 41.5161 1.4282 40.4804 1.4282C39.4463 1.4282 38.77 2.2196 38.77 3.24482C38.77 4.25992 39.4463 5.05999 40.4804 5.05999C40.6028 5.05999 40.7268 5.05132 40.8485 5.02305ZM37.1224 3.24482C37.1224 1.3341 38.5616 -0.00086689 40.4804 -0.00086689C42.4006 -0.00086689 43.8307 1.3341 43.8307 3.24482C43.8307 4.10948 43.5385 4.8625 43.0399 5.41824L43.4357 5.89783L42.3158 6.80005L41.8461 6.23709C41.4309 6.3962 40.9715 6.4903 40.4804 6.4903C38.5616 6.4903 37.1224 5.15409 37.1224 3.24482Z" fill="#2AA859"/>
<path d="M48.326 2.18173C48.326 1.74837 47.9785 1.51477 47.5453 1.51477H46.2649V2.85964H47.5453C47.9785 2.85964 48.326 2.62521 48.326 2.18173ZM48.1473 6.37793L47.093 4.27116H46.2649V6.37793H44.647V0.102416H47.7899C49.1812 0.102416 49.972 1.02548 49.972 2.19164C49.972 3.28351 49.3135 3.86545 48.721 4.07223L50 6.37793H48.1473Z" fill="#2AA859"/>
<path d="M3.33562 32.5617V13.9358H21.9593V29.7197L19.8779 27.3387H15.8468L20.4132 32.5617H3.33562ZM29.5335 38.3837L25.2217 33.4524V10.6728H0.0717773V35.8239H23.2666L25.5038 38.3837H29.5335Z" fill="#394376"/>
<path d="M7.98063 16.2675H5.65759V18.6027H7.98063V16.2675Z" fill="#394376"/>
<path d="M19.5985 16.2675H17.2755V18.6027H19.5985V16.2675Z" fill="#394376"/>
<path d="M10.3044 20.937H7.98059H5.65735V23.271V25.6047H7.98059V23.271H10.3044V20.937Z" fill="#394376"/>
<path d="M17.2754 23.2704H19.5984V20.9364H17.2754H14.9515V18.6025V16.2673H12.6283H10.3044V18.6025H12.6283V20.9364V23.2704V25.6044H10.3044V27.9396V30.2736H12.6283V27.9396H14.9515V25.6044V23.2704H17.2754Z" fill="#394376"/>
<path d="M5.65759 30.2736H7.98063V27.9396H5.65759V30.2736Z" fill="#394376"/>
<path d="M30.4969 10.5446V13.6236V13.6322H36.7586C39.4927 13.6322 41.4963 15.0237 42.1177 17.3232H30.4969V17.8082V19.9769V20.4028H42.1257C41.5244 22.6132 39.7057 24.0926 37.226 24.2593H30.4969V24.2767V27.3242V27.3389H35.0574L42.6222 38.3837H46.6707L38.6772 27.0312C42.1057 26.7479 45.2154 24.4727 45.7974 20.4028H49.8221V19.9769V17.8082V17.3232H45.7247C45.4331 15.8748 44.7478 14.5955 43.7211 13.6236H49.8221V12.7145V10.5446H30.4969Z" fill="#394376"/>
</g>
</g>
<defs>
<clipPath id="clip0_206_834">
<rect width="50" height="38.3836" fill="white"/>
</clipPath>
</defs>
</svg>
