<svg width="57" height="57" viewBox="0 0 57 57" fill="none" xmlns="http://www.w3.org/2000/svg">
<g clip-path="url(#clip0_206_870)">
<path d="M32.0132 3.31901L31.9737 3.28256H31.92H12.54C11.0629 3.28256 9.88725 4.05805 9.08546 5.02355C8.28669 5.98542 7.84251 7.15544 7.84251 7.98V49.02C7.84251 49.4826 8.03388 50.0065 8.34811 50.5251C8.6637 51.046 9.11 51.5728 9.63646 52.0437C10.6859 52.9823 12.076 53.7174 13.415 53.7174H41.7775V54.15V56.8626H13.415C8.77058 56.8626 5.00243 53.0944 5.00243 48.45V8.55C5.00243 3.90559 8.77058 0.137442 13.415 0.137442H33.365C34.0747 0.137442 34.7744 0.423698 35.2828 0.932147L49.5328 15.1821C50.0413 15.6906 50.3275 16.3903 50.3275 17.1V48.45C50.3275 53.0485 46.6335 56.788 42.0524 56.8615V54.15V53.7125C42.5442 53.6773 43.0681 53.4585 43.576 53.1348C44.1336 52.7793 44.6843 52.2895 45.1704 51.7481C45.6565 51.2065 46.0812 50.6096 46.3852 50.0374C46.6874 49.4685 46.8774 48.9105 46.8774 48.45V17.1V17.0398L46.8332 16.999L32.0132 3.31901Z" fill="#F6A820" stroke="#F6A820" stroke-width="0.274884"/>
<rect x="17.0999" y="12.5403" width="9.12" height="3.42" rx="1.71" fill="#F6A820"/>
<rect x="17.0999" y="29.6406" width="22.8" height="3.42" rx="1.71" fill="#F6A820"/>
<rect x="29.6401" y="41.0403" width="9.12" height="3.42" rx="1.71" fill="#F6A820"/>
<path fill-rule="evenodd" clip-rule="evenodd" d="M32.5784 0C32.2156 0.590541 32 1.29876 32 2.09708V15.1766C32 17.3857 33.7909 19.1766 36 19.1766H48.5951C49.1681 19.1766 49.6956 19.0648 50.1666 18.8668L48.2414 16.8016H36C35.1025 16.8016 34.375 16.074 34.375 15.1766V2.09708C34.375 2.04205 34.3775 1.98808 34.3824 1.93521L32.5784 0Z" fill="#F6A820"/>
</g>
<defs>
<clipPath id="clip0_206_870">
<rect width="57" height="57" fill="white"/>
</clipPath>
</defs>
</svg>
