<svg width="70" height="70" viewBox="0 0 70 70" fill="none" xmlns="http://www.w3.org/2000/svg">
<g clip-path="url(#clip0_206_879)">
<path d="M16.4746 0H17.7393V0.0683594L18.0469 0.136719L18.5254 0.375977L18.9355 0.683594L19.209 0.957031L19.4482 1.29883L19.6875 1.77734L19.79 2.1875L19.8242 2.42676L19.8584 4.64844L19.8242 5.43457H32.0947V2.7002L32.1631 2.11914L32.334 1.60645L32.6074 1.12793L32.8125 0.854492H32.8809V0.786133H32.9492V0.717773L33.3594 0.410156L33.8721 0.136719L34.2139 0.0341797L34.248 0H35.5127V0.0683594L35.8203 0.136719L36.2988 0.375977L36.709 0.683594L36.9824 0.957031L37.2217 1.29883L37.4609 1.77734L37.5635 2.1875L37.5977 2.42676L37.6318 4.40918V4.85352L37.5977 5.43457H50.0049V2.7002L50.0732 2.11914L50.2441 1.60645L50.5176 1.12793L50.7227 0.854492H50.791V0.786133H50.8594V0.717773L51.2695 0.410156L51.7822 0.136719L52.124 0.0341797L52.1582 0H53.4229V0.0683594L53.7305 0.136719L54.209 0.375977L54.6191 0.683594L54.8926 0.957031L55.1318 1.29883L55.3711 1.77734L55.5078 2.39258L55.542 3.96484V4.85352L55.5078 5.43457H59.0625L60.2588 5.50293L61.2158 5.63965L62.1729 5.87891L63.0615 6.18652L63.6768 6.45996L64.2236 6.7334L64.7705 7.04102L65.3857 7.45117L65.9668 7.89551L66.3086 8.20312L66.8555 8.68164L67.0947 8.95508L67.4707 9.36523L67.915 9.94629L68.2227 10.3906L68.7354 11.2451L69.2139 12.2363L69.4873 13.0225L69.6924 13.7402L69.8633 14.4922L69.9316 14.9023L70 14.9707V32.1631L69.9316 32.1289L69.7949 32.5391L69.5215 33.0176L69.2822 33.3252L68.9062 33.667L68.4277 33.9404L67.915 34.1113L67.5391 34.1797H66.958L66.5479 34.1113L66.1035 33.9404L65.7275 33.7354L65.3516 33.4277L65.0439 33.0859L64.7705 32.6074L64.6338 32.2998L64.5312 31.8213L64.4971 31.4111L64.4629 16.2354L64.3604 15.3125L64.1553 14.5947L63.9844 14.1504L63.6084 13.4326L63.2666 12.9883L62.8564 12.5098L62.4121 12.1338L61.9678 11.8262L61.2158 11.416L60.3613 11.1426L60.0879 11.0742L59.3701 11.0059L58.584 10.9717L55.542 10.9375V11.7236L55.5078 13.9795L55.4053 14.4922L55.2344 14.9023L54.9609 15.3467L54.6533 15.6885L54.3115 15.9619L53.7646 16.2354L53.2861 16.3721L53.0469 16.4062H52.4658L52.0557 16.3379L51.6113 16.167L51.2354 15.9619L50.8594 15.6543L50.5518 15.3125L50.2783 14.834L50.1416 14.5264L50.0391 14.0137L50.0049 13.5352L49.9707 10.9717L37.6318 10.9375V11.5869L37.5977 13.9795L37.4951 14.4922L37.3242 14.9023L37.0508 15.3467L36.7432 15.6885L36.4014 15.9619L35.8545 16.2354L35.376 16.3721L35.1367 16.4062H34.5557L34.1455 16.3379L33.7012 16.167L33.3252 15.9619L32.9492 15.6543L32.6416 15.3125L32.3682 14.834L32.2314 14.5264L32.1289 14.0137L32.0947 13.5352L32.0605 10.9717L19.8584 10.9375V11.5869L19.8242 13.9795L19.7217 14.4922L19.5508 14.9023L19.2773 15.3467L18.9697 15.6885L18.6279 15.9619L18.0811 16.2354L17.6025 16.3721L17.3633 16.4062H16.7822L16.3721 16.3379L15.9277 16.167L15.5518 15.9619L15.1758 15.6543L14.8682 15.3125L14.5947 14.834L14.458 14.5264L14.3555 14.0479L14.3213 13.6035L14.2871 10.9717H11.2109L10.1855 11.04L9.60449 11.1426L8.78418 11.416L8.06641 11.792L7.69043 12.0654L7.21191 12.4756L7.04102 12.6123L6.66504 13.0908L6.42578 13.3984L6.11816 13.9453L5.91309 14.3896L5.67383 15.1074L5.60547 15.4492L5.53711 16.1328L5.50293 17.2607V58.6182L5.53711 59.3701L5.63965 60.2246L5.91309 61.1133L6.18652 61.6602L6.49414 62.1729L6.80176 62.5488L7.10938 62.8906L7.55371 63.3008L7.99805 63.6084L8.61328 63.9502L9.02344 64.1211L9.67285 64.3262L10.4248 64.4287L10.8008 64.4629L43.1689 64.4971V53.1494L43.2373 52.0898L43.4082 51.0303L43.6816 50.0049L44.0576 48.9795L44.3311 48.3984L44.6729 47.7832L45.0146 47.2363L45.4932 46.5869L45.7666 46.2451L46.2109 45.7666L46.4502 45.4932L46.8945 45.083L47.2705 44.7754L47.7148 44.4336L48.1592 44.126L49.0137 43.6133L49.9365 43.1689L50.8936 42.8271L51.9873 42.5537L52.9102 42.417L54.1748 42.3486H67.0605L67.8125 42.417L68.2568 42.5537L68.8037 42.8271L69.3164 43.2715L69.624 43.7158L69.8291 44.126L69.9658 44.5703L70 44.6045V45.7324L69.9316 45.8008L69.6924 46.416L69.2822 46.9971L69.1455 47.168H69.0771L69.0088 47.3047L68.2568 48.0566L68.2227 48.125H68.1543L68.0859 48.2617L67.334 49.0137L67.2998 49.082H67.2314L67.1631 49.2188L66.4795 49.9023L66.4453 49.9707H66.377V50.0391H66.3086L66.2402 50.1758L65.6592 50.7568L65.5908 50.8594H65.5225L65.4541 50.9961L64.7021 51.748L64.4629 52.0215L63.7793 52.7051L63.54 52.9785L62.9248 53.5938L62.8906 53.6621H62.8223L62.7539 53.7988L62.1045 54.4482L61.8652 54.7217L61.2842 55.3027L61.0449 55.5762L60.2588 56.3623L60.0195 56.6357L59.3701 57.2852L59.3359 57.3535H59.2676L59.1992 57.4902L58.5498 58.1396L58.3105 58.4131L57.7295 58.9941L57.4902 59.2676L56.7041 60.0537L56.4648 60.3271L55.8154 60.9766L55.7812 61.0449H55.7129L55.6445 61.1816L54.9951 61.8311L54.7559 62.1045L54.0381 62.8223L53.7988 63.0957L53.1152 63.7793L52.876 64.0527L52.2607 64.668L52.2266 64.7363H52.1582V64.8047H52.0898L52.0215 64.9414L51.4062 65.5566L51.3721 65.625H51.3037L51.2354 65.7617L50.4834 66.5137L50.2441 66.7871L49.4238 67.6074L49.1846 67.8809L48.7061 68.3594L48.4668 68.6328L47.7832 69.3164L47.3389 69.624L46.9287 69.8291L46.5186 69.9658L46.4844 70H9.57031L9.50195 69.9316L8.5791 69.7607L7.55371 69.4873L6.63086 69.1455L5.70801 68.7012L4.92188 68.2227L4.30664 67.7783L3.93066 67.4707L3.11035 66.7188L2.63184 66.2061L2.22168 65.6934L1.77734 65.0781L1.26465 64.2236L0.786133 63.2324L0.478516 62.3779L0.205078 61.3184L0.0683594 60.5664V60.3955H0V15.1416L0.0683594 14.9023L0.273438 13.8428L0.512695 12.9883L0.888672 11.9971L1.23047 11.2793L1.70898 10.4932L1.98242 10.083L2.42676 9.50195L2.83691 9.02344L3.34961 8.47656L3.69141 8.16895L4.06738 7.86133L4.78516 7.31445L5.74219 6.7334L6.7334 6.25488L7.69043 5.91309L8.78418 5.63965L9.67285 5.50293L10.9033 5.43457H14.3213V2.7002L14.3896 2.11914L14.5605 1.60645L14.834 1.12793L15.0391 0.854492H15.1074V0.786133H15.1758V0.717773L15.5859 0.410156L16.0986 0.136719L16.4404 0.0341797L16.4746 0ZM54.4824 47.8516L53.7305 47.8857L52.9443 47.9883L52.0557 48.2617L51.2695 48.6719L50.8936 48.9453L50.415 49.3555L50.21 49.5264L49.834 50.0049L49.5947 50.3125L49.2529 50.9277L49.082 51.3037L48.877 51.9189L48.7744 52.3633L48.7061 53.0811L48.6719 54.79V58.2422L48.7061 60.3955L48.9453 60.1904L49.082 60.0537V59.9854H49.1504L49.3896 59.7119L49.9707 59.1309L50.21 58.8574L50.8936 58.1738L51.1328 57.9004L51.8164 57.2168L52.0557 56.9434L52.6367 56.3623V56.2939H52.7051L52.9443 56.0205L53.4912 55.4736L53.7305 55.2002L54.3457 54.585V54.5166H54.4141L54.6533 54.2432L55.3711 53.5254L55.6104 53.252L56.0547 52.8076V52.7393H56.123V52.6709H56.1914V52.6025H56.2598L56.499 52.3291L57.0459 51.7822L57.2852 51.5088L57.9004 50.8936V50.8252H57.9688L58.208 50.5518L58.96 49.7998L59.1992 49.5264L59.7461 48.9795L59.9854 48.7061L60.7373 47.9541L60.7715 47.8516H54.4824Z" fill="black"/>
<path d="M40.4346 37.8711H41.2891L41.8359 38.0078L42.3828 38.2812L42.7588 38.5889L42.998 38.8281L43.2373 39.1699L43.4766 39.6484L43.6133 40.1953V41.0156L43.4766 41.5283L43.2031 42.0752L42.9297 42.4512L42.6904 42.6904L42.3486 42.9297L41.8701 43.1689L41.4258 43.3057L41.1865 43.3398H40.5371L40.0586 43.2373L39.6484 43.0664L39.2383 42.8271L38.7939 42.417L38.4863 41.9727L38.2812 41.5625L38.1445 41.0498L38.1104 40.4688L38.2129 39.8877L38.3496 39.4775L38.623 38.999L38.8965 38.6572H38.9648V38.5889L39.375 38.2812L39.9219 38.0078L40.2295 37.9053L40.4346 37.8711Z" fill="black"/>
<path d="M40.4346 25.9766H41.2891L41.6309 26.0449L42.0752 26.2158L42.5195 26.4893L42.9297 26.8652L43.2373 27.2754L43.4766 27.7539L43.6133 28.3008V29.0869L43.4766 29.6338L43.2031 30.1807L42.9297 30.5566L42.6904 30.7959L42.3486 31.0352L41.8701 31.2744L41.3916 31.4111L41.1523 31.4453H40.5371L40.0586 31.3428L39.6484 31.1719L39.2383 30.9326L38.7939 30.5225L38.4863 30.0781L38.2812 29.668L38.1445 29.1553L38.1104 28.5742L38.2129 27.9932L38.3496 27.583L38.623 27.1045L38.8965 26.7627H38.9648V26.6943L39.4092 26.3525L39.9902 26.0791L40.4346 25.9766Z" fill="black"/>
<path d="M28.54 25.9766H29.3945L29.7363 26.0449L30.1807 26.2158L30.625 26.4893L31.0352 26.8652L31.3428 27.2754L31.582 27.7539L31.7188 28.3008V29.0869L31.582 29.6338L31.3086 30.1807L31.0352 30.5566L30.7959 30.7959L30.4541 31.0352L29.9756 31.2744L29.4971 31.4111L29.2578 31.4453H28.6426L28.1641 31.3428L27.7539 31.1719L27.3438 30.9326L26.8994 30.5225L26.5918 30.0781L26.3867 29.668L26.25 29.1553L26.2158 28.5742L26.3184 27.9932L26.4551 27.583L26.7285 27.1045L27.002 26.7627H27.0703V26.6943L27.5146 26.3525L28.0957 26.0791L28.54 25.9766Z" fill="black"/>
<path d="M16.6455 25.9766H17.5L17.8418 26.0449L18.2861 26.2158L18.7305 26.4893L19.1406 26.8652L19.4482 27.2754L19.6875 27.7539L19.8242 28.3008V29.0869L19.6875 29.6338L19.4141 30.1807L19.1406 30.5566L18.9014 30.7959L18.5596 31.0352L18.0811 31.2744L17.6025 31.4111L17.3633 31.4453H16.748L16.2695 31.3428L15.8594 31.1719L15.4492 30.9326L15.0049 30.5225L14.6973 30.0781L14.4922 29.668L14.3555 29.1553L14.3213 28.5742L14.4238 27.9932L14.5605 27.583L14.834 27.1045L15.1074 26.7627H15.1758V26.6943L15.6201 26.3525L16.2012 26.0791L16.6455 25.9766Z" fill="black"/>
<path d="M52.3291 25.9766H53.1836L53.5254 26.0449L53.9697 26.2158L54.4141 26.4893L54.8242 26.8652L55.1318 27.2754L55.3711 27.7539L55.5078 28.3008V29.0869L55.3711 29.6338L55.0977 30.1807L54.8242 30.5566L54.4141 30.9326L53.8672 31.2402L53.2861 31.4111L53.0469 31.4453H52.4316L51.9531 31.3428L51.543 31.1719L51.1328 30.9326L50.6885 30.5225L50.3809 30.0781L50.1758 29.668L50.0391 29.1553L50.0049 28.5742L50.1074 27.9932L50.2441 27.583L50.5176 27.1045L50.791 26.7627H50.8594V26.6943L51.3037 26.3525L51.8848 26.0791L52.3291 25.9766Z" fill="black"/>
<path d="M16.6455 49.7656H17.5L18.0469 49.9023L18.5938 50.1758L18.9697 50.4834L19.209 50.7227L19.4482 51.0645L19.6875 51.543L19.8242 52.0898V52.876L19.6875 53.4229L19.4141 53.9697L19.1406 54.3457L18.9014 54.585L18.5596 54.8242L18.0811 55.0635L17.6025 55.2002L17.3633 55.2344H16.748L16.2695 55.1318L15.8594 54.9609L15.4492 54.7217L15.0049 54.3115L14.6973 53.8672L14.4922 53.457L14.3555 52.9443L14.3213 52.3633L14.4238 51.7822L14.5605 51.3721L14.834 50.8936L15.1074 50.5518H15.1758V50.4834L15.5859 50.1758L16.1328 49.9023L16.4404 49.7998L16.6455 49.7656Z" fill="black"/>
<path d="M28.54 37.8711H29.3945L29.9414 38.0078L30.4883 38.2812L30.8643 38.5889L31.1035 38.8281L31.3428 39.1699L31.582 39.6484L31.7188 40.1953V40.9814L31.582 41.5283L31.3086 42.0752L31.0352 42.4512L30.7959 42.6904L30.4541 42.9297L29.9756 43.1689L29.4971 43.3057L29.2578 43.3398H28.6426L28.1641 43.2373L27.7539 43.0664L27.3438 42.8271L26.8994 42.417L26.5918 41.9727L26.3867 41.5625L26.25 41.0498L26.2158 40.4688L26.3184 39.8877L26.4551 39.4775L26.7285 38.999L27.002 38.6572H27.0703V38.5889L27.4805 38.2812L28.0273 38.0078L28.335 37.9053L28.54 37.8711Z" fill="black"/>
<path d="M16.6455 37.8711H17.5L18.0469 38.0078L18.5938 38.2812L18.9697 38.5889L19.209 38.8281L19.4482 39.1699L19.6875 39.6484L19.8242 40.1953V40.9814L19.6875 41.5283L19.4141 42.0752L19.1406 42.4512L18.9014 42.6904L18.5596 42.9297L18.0811 43.1689L17.6025 43.3057L17.3633 43.3398H16.748L16.2695 43.2373L15.8594 43.0664L15.4492 42.8271L15.0049 42.417L14.6973 41.9727L14.4922 41.5625L14.3555 41.0498L14.3213 40.4688L14.4238 39.8877L14.5605 39.4775L14.834 38.999L15.1074 38.6572H15.1758V38.5889L15.5859 38.2812L16.1328 38.0078L16.4404 37.9053L16.6455 37.8711Z" fill="black"/>
<path d="M28.54 49.7656H29.3945L29.9414 49.9023L30.4883 50.1758L30.8643 50.4834L31.1035 50.7227L31.3428 51.0645L31.582 51.543L31.7188 52.0898V52.876L31.582 53.4229L31.3086 53.9697L31.0352 54.3457L30.625 54.7217L30.0781 55.0293L29.4971 55.2002L29.2578 55.2344H28.6426L28.1641 55.1318L27.7539 54.9609L27.3438 54.7217L26.8994 54.3115L26.5918 53.8672L26.3867 53.457L26.25 52.9443L26.2158 52.3633L26.3184 51.7822L26.4551 51.3721L26.7285 50.8936L27.002 50.5518H27.0703V50.4834L27.4805 50.1758L28.0273 49.9023L28.335 49.7998L28.54 49.7656Z" fill="black"/>
</g>
<defs>
<clipPath id="clip0_206_879">
<rect width="70" height="70" fill="white"/>
</clipPath>
</defs>
</svg>
