<svg width="70" height="70" viewBox="0 0 70 70" fill="none" xmlns="http://www.w3.org/2000/svg">
<path d="M8.78418 18.7646H9.46777L9.87793 18.8672L10.2539 19.0723L10.4932 19.2773L10.7666 19.6875L10.9033 20.166V20.5078L10.8008 20.918L10.5615 21.3281L10.2881 21.6016L9.91211 21.8066L9.22852 21.9434L8.06641 22.0801L7.24609 22.3193L6.7334 22.5244L5.98145 22.9346L5.57129 23.2422L5.09277 23.6523L4.92188 23.8232L4.58008 24.1992L4.23828 24.6436L3.79395 25.4297L3.58887 25.9082L3.31543 26.7627L3.17871 27.9248L3.14453 38.418H8.20312L8.75 38.5205L9.22852 38.8281L9.46777 39.1016L9.67285 39.5117L9.74121 39.7852V40.1611L9.63867 40.5713L9.43359 40.9473L9.2627 41.1523L8.95508 41.3574L8.61328 41.4941L8.27148 41.5625L6.45996 41.5967H3.17871L3.14453 50.21H66.8555L66.8213 41.5967H42.2461L38.3838 41.5625L37.9053 41.46L37.4951 41.2207L37.1875 40.8789L36.9824 40.4688L36.9141 40.1611V39.8877L37.0508 39.3408L37.3584 38.8965L37.666 38.6572L37.9395 38.5205L38.418 38.418H66.8555L66.8213 28.4033L66.7529 27.3779L66.6846 26.8652L66.4453 26.0107L66.2061 25.4297L65.7959 24.6777L65.3516 24.1309L65.0439 23.7549L64.5654 23.3447L64.1211 23.0029L63.1982 22.4902L62.6514 22.2852L61.9336 22.0801L61.0107 21.9775L59.6436 21.9434L38.3496 21.9092L37.8027 21.7725L37.4609 21.5332L37.29 21.3623L37.0508 21.0205L36.9141 20.5762V20.1318L37.0166 19.7559L37.1191 19.5508L37.3584 19.2432L37.5977 19.0381L38.0078 18.833L38.3496 18.7646H61.0449L61.8994 18.833L62.7197 18.9697L63.6768 19.2432L64.3945 19.5166L64.9414 19.79L65.5566 20.1318L66.0693 20.4736L66.6504 20.918L67.1631 21.3965L67.71 21.9434L68.0859 22.4219L68.4961 22.9688L68.9746 23.7891L69.3506 24.6094L69.6582 25.5322L69.8633 26.3525L69.9316 26.7285H70V56.6016L69.9316 56.6699L69.7607 57.5244L69.5215 58.3789L69.248 59.0625L68.8721 59.8486L68.4277 60.5664L67.9492 61.2158L67.5391 61.6602L67.2998 61.9336L67.0264 62.207L66.7529 62.4463L66.2402 62.8564L65.7275 63.1982L65.0781 63.5742L64.5312 63.8477L63.8477 64.1211L63.2324 64.3262L62.3096 64.5312L61.5918 64.6338L61.1133 64.668H8.88672L8.06641 64.5996L7.28027 64.4629L6.42578 64.2236L5.60547 63.916L4.95605 63.6084L4.2041 63.1641L3.55469 62.6855L3.07617 62.2754L2.80273 62.0361L2.56348 61.7627L2.25586 61.4551L1.87988 60.9766L1.50391 60.4639L1.05957 59.7119L0.683594 58.9258L0.375977 58.0713L0.136719 57.1143L0 56.4307V26.9678L0.102539 26.5234L0.273438 25.7373L0.478516 25.0537L0.751953 24.3701L1.09375 23.6523L1.57227 22.8662L1.91406 22.4219L2.15332 22.1143L2.46094 21.7725L2.80273 21.3965H2.87109V21.3281L3.14453 21.0889L3.58887 20.7129L4.2041 20.2686L4.85352 19.8926L5.40039 19.6191L6.01562 19.3457L6.7334 19.1064L7.62207 18.9014L8.33984 18.7988L8.78418 18.7646ZM4.27246 53.3545L3.14453 53.3887V55.5078L3.24707 56.4648L3.38379 57.0117L3.62305 57.7295L3.89648 58.2764L4.16992 58.7549L4.51172 59.1992L4.92188 59.6777L5.33203 60.0537L5.91309 60.498L6.66504 60.9082L7.00684 61.0791L7.89551 61.3525L8.2373 61.4209L8.88672 61.4893L9.46777 61.5234H60.293L61.0791 61.4893L61.9336 61.3867L62.7539 61.1475L63.2666 60.9424L64.0186 60.5322L64.4629 60.1904L64.8389 59.8828L65.1807 59.5752L65.625 59.0283L65.9326 58.584L66.377 57.7295L66.582 57.1143L66.7188 56.6016L66.8213 55.7812L66.8555 55.2344V53.3887L62.7539 53.3545H4.27246Z" fill="#1B1B1B"/>
<path d="M23.8232 5.29785H24.541L25.498 5.36621L26.3525 5.50293L27.1729 5.70801L27.959 5.98145L28.6768 6.28906L29.5312 6.7334L30.1465 7.14355L30.7959 7.62207L31.3086 8.10059L31.582 8.33984L32.0947 8.88672L32.4707 9.36523L32.8467 9.87793L33.3594 10.7324L33.8037 11.6553L34.1455 12.6123L34.3848 13.5693L34.5215 14.4238L34.5557 14.7998L34.5898 15.6885V44.3994L34.5215 44.9805L34.4189 45.2881L34.1455 45.6641L33.8721 45.9033L33.4961 46.0742L32.915 46.1768H15.3809L14.834 46.0742L14.458 45.8691L14.2871 45.7324L14.0137 45.3564L13.877 45.0488L13.8086 44.707V14.9365L13.877 14.2871L14.0479 13.2959L14.2871 12.4414L14.5264 11.792L14.7656 11.2451L15.1074 10.5615L15.6201 9.74121L15.8936 9.39941L16.2012 8.98926L16.7139 8.44238L16.8164 8.30566H16.8848V8.2373L17.1582 7.99805L17.5684 7.62207L18.0811 7.24609L18.4229 7.00684L19.2773 6.49414L20.1318 6.08398L21.0889 5.74219L22.0117 5.50293L22.8662 5.36621L23.8232 5.29785ZM23.5498 8.47656L22.7637 8.5791L21.9434 8.78418L21.3965 8.98926L20.4736 9.46777L19.9951 9.77539L19.4482 10.2197L19.1064 10.5273L18.9355 10.6982L18.5596 11.1426L18.1836 11.6211L17.7051 12.4756L17.5 12.8857L17.2607 13.5352L17.0898 14.2188L16.9873 14.9707L16.9531 15.4834V25.3955H31.4111V15.1416L31.3086 14.3213L31.1377 13.6035L30.8984 12.9199L30.625 12.373L30.249 11.6895L29.9756 11.3135L29.5996 10.8691L29.3604 10.5957L28.9844 10.2539L28.6084 9.94629L28.1982 9.63867L27.3779 9.19434L26.8994 8.95508L26.1816 8.71582L25.6006 8.5791L24.8145 8.47656H23.5498ZM16.9873 28.54L16.9531 28.7109V42.998L16.9873 43.0322H31.3086L31.4111 42.998V28.54H16.9873Z" fill="#1B1B1B"/>
<path d="M22.8662 34.1797H25.0195L25.9424 34.2139L26.3184 34.3164L26.7285 34.5557L27.002 34.8633L27.207 35.2051L27.3096 35.6152V35.9229L27.1729 36.4355L26.8652 36.8799L26.5576 37.1191L26.25 37.2559L25.7373 37.3584H22.5586L22.0117 37.2217L21.6699 37.0166L21.4307 36.7773L21.2256 36.4355L21.123 36.1963L21.0889 36.0254V35.5469L21.2256 35.1025L21.4307 34.7949L21.6016 34.624L21.9092 34.3848L22.2852 34.248L22.4219 34.2139L22.8662 34.1797Z" fill="#1B1B1B"/>
</svg>
