<svg width="100" height="100" viewBox="0 0 100 100" fill="none" xmlns="http://www.w3.org/2000/svg">
<path d="M15.5859 20.586C9.33588 21.2501 4.92182 23.3985 4.10151 26.172C3.82807 27.1485 3.86713 60.4298 4.14057 61.3673C4.80463 63.5938 8.12494 65.547 12.8124 66.4063C14.8437 66.7579 19.1015 67.0704 20.5468 66.9532L21.6796 66.836V65.3126V63.7501H19.5703C14.4921 63.7501 9.72651 62.6954 7.85151 61.0938C7.26557 60.6251 7.22651 60.5079 7.22651 59.3751V58.2032L7.92963 58.5157C10.4296 59.5704 13.164 60.1954 16.7187 60.4298C18.1249 60.5079 19.8046 60.547 20.4687 60.4688L21.6796 60.3516V58.711V57.0313H19.3359C14.2578 57.0313 9.37494 55.8985 7.77338 54.297C7.30463 53.8673 7.26557 53.672 7.26557 52.6563V51.4845L8.24213 51.9141C9.57026 52.5001 11.6406 53.047 13.7499 53.3985C15.8984 53.7501 20.1171 53.9454 21.0156 53.7891C21.6796 53.672 21.7187 53.6329 21.7187 52.8516C21.7187 52.3048 22.1484 50.2345 22.2656 50.2345C22.2656 50.2345 20.8203 50.2345 19.0624 50.2345C14.6484 50.2345 11.5624 49.6485 9.06244 48.3595C7.57807 47.6173 7.30463 47.2266 7.30463 45.8985C7.30463 45.2735 7.34369 44.8048 7.38276 44.8048C7.42182 44.8048 7.77338 44.961 8.16401 45.1563C10.9765 46.6016 16.8359 47.3829 21.9531 46.9923C23.8671 46.8751 24.8046 46.7188 25.2343 46.4845C25.5859 46.2891 26.4062 45.8595 27.0703 45.4688C28.5156 44.6876 30.664 43.9454 32.9296 43.5157L34.5703 43.1641V34.5704C34.5703 24.961 34.6484 25.547 33.164 24.0626C31.7187 22.6173 28.6718 21.4063 24.9609 20.7813C22.8906 20.5079 17.7343 20.3516 15.5859 20.586ZM22.9296 23.9063C27.6171 24.4141 31.7968 26.211 31.0937 27.422C30.5859 28.3595 27.7734 29.5313 24.5312 30.1173C21.9921 30.586 16.3671 30.586 13.9062 30.1173C10.7031 29.5313 7.92963 28.3595 7.30463 27.3438C6.64057 26.2501 11.0546 24.3751 15.3124 23.8673C17.4218 23.711 20.8593 23.672 22.9296 23.9063ZM9.72651 32.5001C15.2343 34.3751 23.5156 34.336 29.1015 32.3829C29.9609 32.0704 30.8203 31.797 31.0156 31.7188C31.289 31.6016 31.3281 31.7188 31.3281 32.7345C31.3281 33.7891 31.289 33.8673 30.7031 34.3751C29.0624 35.8204 25.2343 36.797 20.5859 36.9532C14.8046 37.1485 9.68744 36.0938 7.77338 34.2579C7.30463 33.8673 7.26557 33.6329 7.26557 32.6954C7.26557 31.7188 7.30463 31.6016 7.61713 31.7188C7.73432 31.797 8.71088 32.1485 9.72651 32.5001ZM12.1484 39.8048C18.0078 41.0157 24.8437 40.6251 29.6093 38.8282L31.289 38.2032V39.2579C31.289 40.6251 30.9374 41.0938 29.3749 41.836C25.1562 43.8282 17.6562 44.297 12.0703 42.8907C10.039 42.3829 8.67182 41.797 7.81244 41.0548C7.22651 40.586 7.18744 40.4688 7.18744 39.3751V38.2032L8.71088 38.8282C9.60932 39.1407 11.1328 39.6095 12.1484 39.8048Z" fill="white"/>
<path d="M41.6797 21.4064C40.5469 21.7579 39.4141 22.7736 38.8281 23.9454L38.3594 24.922V33.8673V42.8126H40.3906H42.4219L42.4609 37.2658L42.5 31.6798L43.9063 31.6408C45.5469 31.6017 46.4453 31.172 47.5 30.0392C48.4766 28.9454 48.7891 28.1251 48.7891 26.6408V25.3908H67.3437H85.8594L85.9375 26.6408C86.1328 29.3751 88.125 31.2892 90.7812 31.3283H91.8359V39.0236V46.7189H91.1328C90.0781 46.7189 88.6719 47.1876 87.8125 47.8126C86.7578 48.5939 85.8984 50.3126 85.8984 51.6408C85.8984 52.5392 85.8594 52.6173 85.3906 52.7345C85.0781 52.7736 79.1406 52.8126 72.1094 52.8126H59.3359L59.2969 54.8829L59.2578 56.9533H75.8203H92.3438L93.3203 56.4845C93.8672 56.2111 94.5703 55.6642 94.9219 55.2345C96.1719 53.7892 96.1328 54.1017 96.0938 38.7111L96.0547 24.8439L95.4688 23.8283C94.8438 22.7345 93.6328 21.7579 92.4609 21.4064C92.0312 21.2892 83.3984 21.2111 67.1484 21.2501C46.6016 21.1329 42.3828 21.2111 41.6797 21.4064Z" fill="white"/>
<path fill-rule="evenodd" clip-rule="evenodd" d="M66.7969 50C72.8375 50 77.7344 45.1031 77.7344 39.0625C77.7344 33.0219 72.8375 28.125 66.7969 28.125C60.7563 28.125 55.8594 33.0219 55.8594 39.0625C55.8594 45.1031 60.7563 50 66.7969 50ZM70.1904 32.4219H65.4053L62.8906 32.4707L62.8174 32.4951L62.6221 32.666L62.5 32.9102V33.1543L62.5732 33.4473L62.6709 33.5938L62.8174 33.6426L65.9668 33.667L66.3574 33.6914L66.6992 33.7646L66.9678 33.9111L67.2119 34.1064L67.5293 34.4727L67.7734 34.8145L68.0176 35.2539H63.3057L62.8906 35.2783L62.7441 35.3271L62.5977 35.4492L62.5 35.5957V35.8887L62.5244 36.0596L62.5732 36.2061L62.6953 36.3525L62.9395 36.4014L68.1152 36.4258L67.9199 36.7432L67.749 36.9873L67.5293 37.2559L67.2363 37.5244L66.9678 37.7197L66.5772 37.915L66.2354 37.9639L63.2324 37.9883L62.9639 38.0127L62.7441 38.0859L62.5977 38.2324L62.5244 38.4521V38.8184L62.5977 38.9648L62.793 39.1357L63.0615 39.2334L66.1133 39.2578L66.4551 39.2822L66.626 39.3311L66.8945 39.4287L67.2607 39.6729L67.5049 39.917L67.7246 40.21L67.8955 40.5518L67.9932 40.8691L68.042 41.1865V44.5557L68.0664 45.0439L68.1641 45.3125L68.3105 45.4346L68.5059 45.5078H68.8965L68.9941 45.4834L69.1162 45.4102L69.2383 45.2148L69.2627 44.4824V41.04L69.2383 40.8203L69.1162 40.3809L68.8721 39.7949L68.6523 39.4531L68.3838 39.1113L68.2129 38.9648L67.8955 38.6963L67.7979 38.6475L67.8223 38.5742L68.0908 38.3789L68.335 38.1836L68.5547 37.915L68.75 37.6221L69.0186 37.085L69.2627 36.4502L69.3115 36.4258L70.2148 36.4014L70.7031 36.377L71.0449 36.3037L71.1914 36.1572L71.2647 35.9375V35.6201L71.167 35.4248L70.8984 35.3271L70.3857 35.2783L69.3359 35.2539L69.2139 35.1318L68.9941 34.5947L68.7012 34.0332L68.457 33.6426H69.9951L70.6299 33.6182L70.8496 33.5938L71.0449 33.5449L71.167 33.4473L71.2402 33.3008V32.8613L71.1914 32.6416L71.1182 32.5684L70.9717 32.4951L70.6787 32.4463L70.1904 32.4219Z" fill="white"/>
<path d="M49.9219 36.7578C47.4219 37.6563 47.1875 41.0547 49.5312 42.2266C50.9375 42.8906 52.3828 42.5781 53.2812 41.3672C55.039 39.0625 52.6562 35.8203 49.9219 36.7578Z" fill="white"/>
<path d="M82.1484 36.6407C80.8594 36.9532 79.8438 38.2814 79.8438 39.6095C79.8438 42.2267 83.125 43.5157 85 41.6407C87.0313 39.5314 85 35.9767 82.1484 36.6407Z" fill="white"/>
<path d="M35.2734 46.6016C31.4062 47.1876 28.3594 48.3595 26.7578 49.8438C25.1172 51.3282 25.1953 50.6641 25.1953 62.9298C25.1953 73.5548 25.1953 73.7891 25.5859 74.5704C26.6015 76.6407 30.1172 78.3985 34.9219 79.1798C37.8515 79.6876 43.5547 79.6485 46.4844 79.1016C50.1562 78.4376 53.2031 77.1485 54.5703 75.7032C55.8203 74.4141 55.7422 75.0391 55.7422 62.9688C55.7422 52.9688 55.7031 51.9532 55.4297 51.3282C54.375 49.1016 50.625 47.3048 45.5469 46.5626C43.0469 46.211 37.6172 46.2501 35.2734 46.6016ZM46.7187 50.1563C49.7656 50.8204 52.4219 52.1095 52.4219 52.9298C52.4219 54.0235 49.2578 55.3907 45.3906 56.0548C43.0469 56.4454 37.9297 56.4454 35.5859 56.0548C31.7187 55.3907 28.5547 53.9845 28.5547 52.9298C28.5547 51.9141 31.875 50.5079 35.7031 49.8829C38.164 49.4923 44.3359 49.6485 46.7187 50.1563ZM33.6328 59.0626C39.414 60.2345 47.2265 59.7266 51.4062 57.8907L52.4219 57.461V58.6329C52.4219 60.0001 52.1875 60.3126 50.7422 61.0157C48.6328 62.1095 45.5859 62.7345 41.8359 62.9298C36.6797 63.1641 30.7812 61.9532 29.0234 60.2735C28.5547 59.8438 28.5156 59.6485 28.5156 58.6329V57.5001L30.1562 58.1251C31.0547 58.3985 32.6172 58.8673 33.6328 59.0626ZM29.414 64.4141C30.3125 64.8438 32.2656 65.4298 34.375 65.8595C36.7578 66.3282 44.2187 66.3282 46.6015 65.8595C48.5547 65.4688 50.4687 64.922 51.6015 64.4141L52.4219 64.0626V65.2345C52.4219 66.3282 52.3828 66.4454 51.8359 66.9532C49.9609 68.5548 45.664 69.4923 40.4687 69.4923C35.2344 69.4923 31.0156 68.5157 29.1406 66.9532C28.5547 66.4845 28.5156 66.3673 28.5156 65.2345C28.5156 64.5704 28.5547 64.0626 28.5937 64.0626C28.6719 64.0626 29.0234 64.2188 29.414 64.4141ZM30.625 71.4845C33.4765 72.5391 35.7812 72.8516 40.3906 72.8516C43.5937 72.8516 45 72.7735 46.4062 72.5001C47.9687 72.2266 50.9375 71.3673 52.1094 70.8204C52.3828 70.7032 52.4219 70.8204 52.4219 71.8751C52.4219 72.8907 52.3437 73.1251 52.0312 73.4376C50.4687 74.8438 46.875 75.8595 42.8125 76.0938C37.1484 76.4063 32.0703 75.547 29.5312 73.8282L28.6328 73.2423L28.5937 71.9532C28.5547 70.7813 28.5937 70.7032 28.8672 70.8204C29.0234 70.8985 29.8437 71.211 30.625 71.4845Z" fill="white"/>
</svg>
