<svg width="55" height="55" viewBox="0 0 55 55" fill="none" xmlns="http://www.w3.org/2000/svg">
<g clip-path="url(#clip0_206_1094)">
<path d="M4.83398 32.2266H22.8809L23.418 32.5488L23.7402 32.9785L23.6328 33.8379L23.2031 34.2676L22.8809 34.375L4.72656 34.4824L3.65234 34.9121L2.79297 35.6641L2.36328 36.5234L2.25586 36.9531V50.2734L2.68555 51.3477L3.4375 52.207L4.29688 52.6367L4.72656 52.7441H50.2734L51.3477 52.3145L52.207 51.5625L52.6367 50.7031L52.7441 50.2734V36.9531L52.3145 35.8789L51.5625 35.0195L50.7031 34.5898L50.2734 34.4824L32.1191 34.375L31.582 34.0527L31.2598 33.5156L31.3672 32.7637L31.7969 32.334L32.1191 32.2266H50.166L51.5625 32.5488L52.7441 33.1934L53.7109 34.0527L54.4629 35.2344L54.8926 36.416L55 37.0605V50.2734L54.6777 51.5625L54.0332 52.7441L53.1738 53.7109L51.9922 54.4629L50.8105 54.8926L50.166 55H4.83398L3.4375 54.6777L2.25586 54.0332L1.18164 53.0664L0.322266 51.5625L0 50.2734V37.0605L0.322266 35.6641L0.966797 34.4824L1.93359 33.4082L3.4375 32.5488L4.83398 32.2266Z" fill="#FCB33A"/>
<path d="M26.8555 0H28.1445L29.7559 0.322266L31.0449 0.859375L32.2266 1.61133L33.4082 2.79297L34.2676 4.18945L34.8047 5.58594L35.0195 6.875L35.127 9.3457L36.6309 9.56055L37.9199 10.2051L38.8867 11.1719L39.5312 12.4609L39.7461 13.3203V25.6738L39.3164 27.0703L38.5645 28.252L37.3828 29.1113L36.3086 29.541L35.7715 29.6484H19.3359L18.0469 29.3262L16.9727 28.6816L16.4355 28.1445L15.8984 27.5L15.3613 26.2109L15.2539 25.6738V13.3203L15.6836 11.9238L16.3281 10.957L17.4023 9.99023L18.7988 9.45312L19.9805 9.3457V6.875L20.3027 5.26367L20.8398 3.97461L21.8066 2.57812L22.7734 1.61133L24.1699 0.751953L25.5664 0.214844L26.8555 0ZM19.3359 11.4941L18.4766 11.8164L17.9395 12.2461L17.4023 13.3203V25.6738L17.7246 26.4258L18.2617 27.0703L19.1211 27.5H35.7715L36.8457 26.9629L37.2754 26.4258L37.5977 25.6738V13.3203L37.0605 12.2461L36.0937 11.6016L35.6641 11.4941H19.3359Z" fill="#FCB33A"/>
<path d="M26.6406 2.14844H28.3594L29.7559 2.57812L30.8301 3.22266L31.4746 3.75977L32.2266 4.83398L32.7637 6.12305L32.8711 6.66016V9.3457L22.1289 9.45312V6.66016L22.5586 5.26367L23.2031 4.18945L24.2773 3.11523L25.7812 2.36328L26.6406 2.14844Z" fill="#FEFFFE"/>
<path d="M12.5684 38.2422L13.3203 38.3496L13.75 38.7793L13.8574 39.1016L13.9648 41.6797L16.2207 40.3906L16.9727 40.498L17.5098 41.0352V41.8945L16.9727 42.4316L15.1465 43.5059H14.9316V43.7207L15.5762 43.9355L17.1875 44.9023L17.5098 45.332V46.1914L16.9727 46.7285L16.2207 46.8359L13.9648 45.5469L13.8574 48.125L13.5352 48.6621L12.998 48.9844L12.2461 48.877L11.8164 48.4473L11.709 48.125L11.6016 45.5469L9.56055 46.7285L8.80859 46.8359L8.27148 46.5137L8.05664 46.1914V45.332L8.59375 44.7949L10.4199 43.7207H10.6348V43.5059L9.99023 43.291L8.37891 42.3242L8.05664 41.8945V41.0352L8.59375 40.498L9.3457 40.3906L11.709 41.6797V39.1016L12.0312 38.5645L12.5684 38.2422Z" fill="#FCB33A"/>
<path d="M42.002 38.2422L42.7539 38.3496L43.1836 38.7793L43.291 39.1016V41.6797L45.6543 40.3906L46.4062 40.498L46.9434 41.0352V41.8945L46.4062 42.4316L44.5801 43.5059H44.3652V43.7207L45.0098 43.9355L46.7285 45.0098L46.9434 45.332V46.1914L46.4062 46.7285L45.6543 46.8359L43.3984 45.5469L43.291 48.125L42.9688 48.6621L42.4316 48.9844L41.6797 48.877L41.25 48.4473L41.1426 48.125L41.0352 45.5469L38.9941 46.7285L38.2422 46.8359L37.5977 46.4062L37.4902 46.1914V45.332L38.0273 44.7949L39.8535 43.7207H40.0684V43.5059L39.4238 43.291L37.8125 42.3242L37.4902 41.8945V41.0352L38.0273 40.498L38.6719 40.3906L40.1758 41.1426L41.1426 41.6797V39.1016L41.4648 38.5645L42.002 38.2422Z" fill="#FCB33A"/>
<path d="M27.2852 38.2422L28.0371 38.3496L28.4668 38.7793L28.5742 39.1016L28.6816 41.6797L30.9375 40.3906L31.6895 40.498L32.2266 41.0352V41.8945L31.6895 42.4316L29.8633 43.5059H29.6484V43.7207L30.293 43.9355L31.9043 44.9023L32.2266 45.332V46.1914L31.7969 46.7285L30.9375 46.8359L28.6816 45.5469L28.5742 48.125L28.252 48.6621L27.7148 48.9844L26.9629 48.877L26.5332 48.4473L26.4258 48.125L26.3184 45.5469L24.2773 46.7285L23.5254 46.8359L22.8809 46.4062L22.7734 46.1914V45.332L23.3105 44.7949L25.1367 43.7207H25.3516V43.5059L24.707 43.291L22.9883 42.2168L22.7734 41.8945V41.0352L23.3105 40.498L23.9551 40.3906L25.459 41.1426L26.4258 41.6797V39.1016L26.748 38.5645L27.2852 38.2422Z" fill="#FCB33A"/>
<path d="M27.0703 16.2207H27.9297L28.4668 16.6504L28.5742 16.9727V22.0215L28.252 22.5586L27.7148 22.8809L26.9629 22.7734L26.5332 22.3438L26.4258 22.0215V16.9727L26.8555 16.3281L27.0703 16.2207Z" fill="#FCB33A"/>
<path d="M27.2852 32.2266L28.0371 32.334L28.4668 32.7637L28.5742 33.5156L28.252 34.0527L27.8223 34.375L26.9629 34.2676L26.5332 33.8379L26.4258 33.0859L26.8555 32.4414L27.2852 32.2266Z" fill="#FCB33A"/>
</g>
<defs>
<clipPath id="clip0_206_1094">
<rect width="55" height="55" fill="white"/>
</clipPath>
</defs>
</svg>
