<svg width="64" height="64" viewBox="0 0 64 64" fill="none" xmlns="http://www.w3.org/2000/svg">
<path d="M30.5781 8.9375H32.7656L33.9531 9.03125L34.7031 9.125L35.6406 9.375L36.5469 9.65625L37.1406 9.875L37.7969 10.1562L38.6094 10.5312L39.1094 10.75L39.6094 11.0312L40.3906 11.5L40.8906 11.875L41.3281 12.1875L41.7344 12.5L42.1719 12.875L43.5156 14.2188L43.7969 14.5625L44.1719 15.0312L44.5781 15.5938L44.8906 16.0312L45.3594 16.8438L45.7344 17.5625L46.1094 18.4375L46.5156 19.5312L46.8594 20.5625L47.1094 21.7812L47.2031 22.2812L47.3281 23.3438L47.3906 24.125V25.1875L47.2969 26.25L47.0156 27.9688L46.8281 28.7188L46.4531 29.8438L46.1094 30.7188L45.7656 31.4688L45.3906 32.1875L44.9531 32.9062L43.7656 34.6875L43.4531 35.125L42.9219 36.0312L42.7031 36.375L42.4531 36.9062L42.2031 37.3125L41.9219 37.7812L41.4844 38.7188L41.0469 39.8438L40.9219 40.1562L40.8281 40.7188L40.7344 41.7188L40.6406 42.0938V42.3438L40.7969 43.3438L40.8281 43.9375L40.7656 44.25L40.5781 44.5312L40.3281 44.75L40.1094 44.8438L39.7031 44.8125L39.3906 44.7188L39.0156 44.5L38.8906 44.25L38.8281 43.6875L38.7969 43.0938V41.6562L38.8906 40.25L38.9844 39.8438L39.2344 39.0625L39.4219 38.5L39.7344 37.75L40.0156 37.125L40.3281 36.5625L40.5781 36.0625L41.0469 35.2812L41.3594 34.7188L41.6719 34.1875L42.2344 33.3438L42.4531 33L42.7344 32.625L43.0156 32.2812L43.3594 31.7812L43.7656 31.0312L44.0781 30.375L44.5781 29.1562L44.7969 28.5625L45.1094 27.4375L45.2969 26.6875L45.4219 25.8438L45.4531 25.4062V24.1875L45.3906 23.2188L45.2656 22.3438L44.9844 21.25L44.6719 20.1562L44.3594 19.2812L43.9844 18.4062L43.6094 17.6875L43.3281 17.2188L43.0781 16.8438L42.6406 16.25L42.2031 15.7188L41.8281 15.2812L41.3906 14.8438L41.1719 14.5938L41.0469 14.5V14.4375L40.9219 14.375L40.7031 14.1562L40.4531 13.9375L40.0156 13.5625L39.6094 13.25L39.1406 12.9688L38.4219 12.5625L37.7656 12.25L37.3906 12.0938L36.8906 11.8438L36.4531 11.6562L35.5469 11.3438L35.1094 11.1562L34.3281 11.0312L33.8906 11L33.4219 10.9062L33.2031 10.8438L33.0781 10.8125L32.3281 10.75H31.0156L30.2031 10.8438L29.3906 10.9688L28.4219 11.1562L27.8906 11.3125L26.7969 11.7188L26.0469 12.0312L25.4219 12.3125L24.7969 12.6562L24.0781 13.125L23.5469 13.5L23.2031 13.7812L22.7656 14.125L22.3281 14.5L21.6719 15.1562L21.3906 15.5L21.1094 15.8125L20.7344 16.3438L20.2969 16.9688L19.7344 17.8438L19.5781 18.1562L19.3594 18.625L18.9219 19.5312L18.5781 20.4688L18.3594 21.0938L18.2656 21.5L18.1406 22.5L18.1094 22.5625L18.0469 22.9688V23.2188L18.0156 23.25L17.9844 23.625L17.9531 23.875L17.9219 24.8125L17.9531 24.9688L17.9219 25.0312V25.4062L17.9531 25.4688L17.9844 25.9375L18.1094 26.375L18.2656 27.6562L18.3906 28.2188L18.6719 29L18.9844 29.7812L19.2969 30.4375L19.6094 31.0312L19.8906 31.5L20.1719 31.9375L20.2969 32.1875L20.5781 32.5938L20.8906 33L21.2656 33.5312L21.4844 33.8438L21.8906 34.4062L22.2656 35L22.6406 35.6562L23.0469 36.4375L23.2969 36.9375L23.6406 37.75L24.0156 38.7188L24.2969 39.375L24.6406 40.75L24.7656 41.5L24.8281 42.1875V42.7188L24.7656 43.1875L24.6094 43.875L24.4531 44.25L24.2969 44.5L24.0781 44.6875L23.6094 44.9062H23.2969L23.0156 44.7188L22.8594 44.4062L22.7969 44.1562L22.7656 43.625L22.8594 43.2812V42.2812L22.7656 41.375L22.6094 40.625L22.3594 39.7812L22.1406 39.1562L21.7344 38.2812L21.3906 37.5625L20.9844 36.8125L20.5469 36.0625L20.1406 35.4375L19.7656 34.875L19.4219 34.4062L19.1094 33.9062L18.8906 33.5938L18.5781 33.0938L18.2969 32.6562L17.9844 32.0938L17.4844 31.125L17.0781 30.2188L16.7656 29.5312L16.6094 29.0625L16.4219 28.25L16.2969 27.375L16.1719 26L16.1406 25.0938L16.1094 24.875L16.1406 23.7188L16.2656 21.8125L16.3281 21.2188L16.4844 20.4688L16.7031 19.7188L17.1094 18.8125L17.4531 18.0312L17.7656 17.4375L18.0156 16.9375L18.2656 16.5L18.5781 16L18.9531 15.4062L19.3281 14.875L19.6094 14.5625L19.8281 14.3438L20.0469 14.0938L21.2031 12.9375L21.4531 12.7188L21.6406 12.5625L21.7969 12.4062L22.1094 12.125L22.4531 11.875L22.8281 11.5938L23.6094 11.0938L24.2969 10.7188L25.2969 10.2188L25.6406 10.0625L26.1406 9.875L26.7656 9.625L28.1094 9.25L28.8906 9.09375L30.1094 8.96875L30.5781 8.9375Z" fill="white"/>
<path d="M36.7344 45.5H38.4219L38.9219 45.5312L39.3281 45.6562L39.7656 46L40.3281 46.5625L40.5781 46.9062L40.7344 47.2188L40.7969 47.5V49.0312L40.7344 49.4688L40.5781 49.8438L40.2969 50.2812L39.9219 50.7812L39.7031 51L39.4219 51.125L39.1406 51.1562L38.0156 51.1875H24.3906L23.8281 51.1562L23.3281 51.0312L23.0156 50.8438L22.7656 50.5938L22.3906 50.0312L22.1406 49.5312L21.9844 49L21.9531 48.7812V48L22.0469 47.5312L22.2344 47L22.5156 46.5312L22.8281 46.1875L23.3906 45.7812L23.7969 45.5625L23.9844 45.5312L36.7344 45.5Z" fill="white"/>
<path d="M26.1719 53L26.5469 53.0625L26.7969 53.25L26.9844 53.5L27.0781 53.7812L27.1094 56.0312L27.1719 56.125L27.9531 56.4062L28.5781 56.6875L30.2031 57.4062L30.7969 57.6875L31.2656 57.875L31.6719 57.9688L32.0156 57.9062L32.6094 57.6562L33.4219 57.25L34.3281 56.8438L35.1406 56.4688L35.4844 56.3125L36.2656 56L36.2969 55.875L36.3281 53.5312L36.3594 53.3125L36.6094 53.1562L37.0469 53.0625H37.4531L37.8906 53.1562L38.1094 53.3438L38.2031 53.625L38.2344 56.25V57L38.1406 57.1562L37.8594 57.3438L37.2656 57.6562L35.9844 58.2188L34.7344 58.7812L33.2969 59.5L32.1406 60L31.7969 60.1562L31.6094 60.1875L31.1094 60L30.5156 59.75L29.8281 59.375L29.3281 59.125L28.5156 58.75L27.8594 58.4688L26.8906 58.0625L26.1094 57.7188L25.7031 57.5L25.4219 57.2812L25.2969 57L25.2656 56.8125V54.125L25.3281 53.6875L25.4844 53.375L25.7031 53.1562L25.9531 53.0312L26.1719 53Z" fill="white"/>
<path d="M22 24C24.0146 16.2616 28.8602 15.3145 31.5 14.5" stroke="white" stroke-width="2" stroke-linecap="round"/>
<path d="M24.7031 47.5H38.6719L38.8594 47.5625L38.8906 47.7812V48.375L38.8594 49.2188L38.8281 49.2812L38.5156 49.3125L24.2656 49.3438L24.1094 49.2812L23.9844 49.125L23.9219 48.8125V47.8125L23.9844 47.5625L24.0469 47.5312L24.7031 47.5Z" fill="white"/>
<path d="M15.7031 36.0312L15.9531 36.0625L16.2656 36.1875L16.5781 36.5L16.7031 36.8438L16.7344 37.125L16.5781 37.4375L16.4219 37.625L16.0781 37.9062L15.6719 38.2188L15.0781 38.6562L14.6094 39.0312L14.0156 39.4688L13.5469 39.8125L12.9531 40.2188L12.5469 40.5312L11.0469 41.6562L10.4844 42.0938L9.89062 42.5L9.57812 42.7188L8.98438 43.125L8.54688 43.4062L8.23438 43.5312L8.14062 43.4688L7.85938 43.375L7.64062 43.1562L7.51562 42.875L7.39062 42.2188V42.0625L7.57812 41.8438L8.01562 41.5L9.01562 40.75L9.54688 40.3438L10.5469 39.5938L11.1406 39.1562L11.6719 38.7812L12.1094 38.4688L12.6094 38.0938L12.9219 37.8438L13.3281 37.5312L13.8594 37.1562L14.2344 36.9062L14.7344 36.5312L15.2031 36.2188L15.4531 36.0938L15.7031 36.0312Z" fill="white"/>
<path d="M8.07812 7.28125H8.45312L8.76562 7.40625L9.26562 7.71875L9.70312 8.03125L10.2344 8.40625L10.6719 8.71875L11.2344 9.125L12.3594 9.96875L12.7656 10.2812L13.2969 10.6562L13.8594 11.0938L15.0469 11.9688L15.4844 12.2812L15.8906 12.625L16.1094 12.8438L16.2656 13.0625L16.3281 13.25L16.2969 13.5625L16.1406 13.9688L15.9531 14.1875L15.5156 14.4062L15.3281 14.3438H15.1406L14.6719 14.0938L14.1406 13.7188L13.5781 13.2812L12.9844 12.8438L11.9219 12.0938L11.5156 11.7812L11.2031 11.5312L10.7969 11.2188L10.2656 10.8438L9.85938 10.5312L9.29688 10.125L8.79688 9.78125L8.29688 9.40625L7.95312 9.125L7.64062 8.84375L7.45312 8.53125L7.42188 8.4375V8.03125L7.51562 7.75L7.79688 7.4375L7.92188 7.3125L8.07812 7.28125Z" fill="white"/>
<path d="M47.7344 36.25L47.9844 36.3125L48.1719 36.4375L48.7344 36.8438L49.2031 37.1875L49.5469 37.4375L50.1094 37.8438L50.5781 38.1875L51.1719 38.625L51.7031 39L52.2969 39.4062L52.7656 39.75L53.2656 40.125L53.7969 40.5312L54.3906 40.9375L54.7344 41.2188L55.1719 41.5938L55.7031 42.125L55.8281 42.4062L55.7031 42.7188L55.4531 43.0312L55.2031 43.25L55.0781 43.4062L54.9531 43.5L54.7656 43.4688L54.5156 43.375V43.4375H54.4531L54.3594 43.3438L54.2031 43.2812L53.9844 43.0938L53.5156 42.75L53.0469 42.4688L52.7344 42.2188L52.2969 41.875L51.7656 41.4375L51.2656 41.0625L50.6719 40.625L50.1094 40.2188L49.5156 39.8125L48.8594 39.3125L48.2656 38.875L47.7031 38.4688L47.3594 38.1875L47.1719 38.0312L46.9531 37.6875L46.8906 37.5312V37.2188L47.0156 36.9062L47.2969 36.5938L47.5469 36.3438L47.7344 36.25Z" fill="white"/>
<path d="M54.7031 7.1875H54.9531L55.2031 7.375L55.6094 7.71875L55.7344 7.90625L55.8281 8.15625L55.7969 8.34375L55.5781 8.6875L54.9844 9.28125L54.3594 9.71875L53.8594 10.0938L53.2344 10.5312L52.8594 10.8125L52.2656 11.25L51.7031 11.6875L51.1094 12.125L50.6094 12.4688L49.4219 13.3438L49.0781 13.5938L48.4531 14L48.0469 14.1875L47.7656 14.1562L47.5781 14.0312L47.3594 13.7188L47.0156 13.1562L46.9844 13.0312L47.1719 12.75L47.7344 12.1875L48.1406 11.875L48.7031 11.4688L49.1719 11.125L49.5469 10.8438L49.9531 10.5312L50.4531 10.1562L50.8906 9.84375L51.4219 9.4375L52.0469 8.96875L52.5469 8.625L53.0156 8.3125L53.6094 7.90625L54.0156 7.59375L54.5469 7.25L54.7031 7.1875Z" fill="white"/>
<path d="M5.85938 24.3125H10.7969L11.5156 24.3438L12.0469 24.4062L12.1719 24.4688L12.2344 24.6562L12.2656 24.9688V25.5938L12.1719 25.9375L12.0156 26.125L11.7344 26.2188L11.2031 26.25L7.07812 26.2812H3.01562L2.70312 26.1562L2.57812 26L2.48438 25.625V25.0938L2.54688 24.5938L2.60938 24.4375L2.73438 24.4062L5.85938 24.3125Z" fill="white"/>
<path d="M54.9219 24.3125H57.3281L58.9844 24.3438L60.0156 24.4062L60.3594 24.5312L60.4531 24.7812L60.4844 25.1562L60.4219 25.6562L60.2969 26.0625L60.2344 26.1562L60.0156 26.2188L59.7031 26.25L54.0781 26.2812H51.5156L51.2969 26.2188L51.1406 26.0625L50.9531 25.6562V25.1875L51.2031 24.5312L51.2969 24.4062L51.9531 24.375L54.9219 24.3125Z" fill="white"/>
</svg>
