<svg width="60" height="60" viewBox="0 0 60 60" fill="none" xmlns="http://www.w3.org/2000/svg">
<g clip-path="url(#clip0_206_914)">
<path d="M22.793 21.0938H22.1191L21.416 21.1523L20.6543 21.2695L19.8633 21.4746L19.1895 21.709L18.6035 21.9727L17.9883 22.2949L17.4316 22.6465L16.8164 23.1152L16.5234 23.3789L16.2891 23.584L15.8789 23.9941L15.6152 24.3164L15.2637 24.7559L14.8535 25.3711L14.5605 25.8984L14.2676 26.5137L14.0039 27.2168L13.8281 27.7734V27.8613H2.37305L1.81641 27.8906L1.40625 27.9785L0.9375 28.2129L0.615234 28.4766L0.380859 28.7402L0.146484 29.1504L0 29.5605V30.5273L0.0585938 30.5566L0.175781 30.8789L0.410156 31.2598L0.673828 31.5527L0.9375 31.7578L1.40625 31.9922L1.78711 32.0801L2.13867 32.1094H13.8281L13.8867 32.373L14.1797 33.252L14.5312 34.043L15 34.834L15.3516 35.332L15.8789 35.9766L16.4648 36.5625L16.6992 36.7676L17.1387 37.1191L17.7539 37.5293L18.252 37.8223L19.043 38.2031L19.7754 38.4668L20.4199 38.6426L21.0059 38.7598L21.6504 38.8477L22.0605 38.877H22.9102L23.5547 38.8184L24.2578 38.7012L24.873 38.5547L25.6641 38.291L26.2793 38.0273L26.8359 37.7344L27.4512 37.3535L27.8027 37.0898L28.0957 36.8555L28.5059 36.5039L29.0918 35.918L29.3555 35.5957L29.6777 35.1855L30.0293 34.6582L30.3809 34.043L30.6738 33.4277L30.9668 32.6074L31.084 32.1973V32.1094H57.9199L58.3887 32.0508L58.7402 31.9336L59.0625 31.7578L59.3848 31.4941L59.6777 31.1426L59.9121 30.6738L60 30.4102V29.502H59.9414L59.8828 29.2383L59.6777 28.8281L59.4434 28.5352L59.2383 28.3301L58.8574 28.0957L58.4766 27.9492L58.1836 27.8906L57.7441 27.8613H31.084L30.9668 27.3926L30.7324 26.7188L30.4688 26.1328L30.1465 25.5176L29.7949 24.9609L29.4434 24.4922L29.1211 24.1113L28.8574 23.8184L28.418 23.3789L28.0957 23.1152L27.6855 22.793L27.3926 22.5879L26.8359 22.2363L26.2207 21.9141L25.4297 21.5918L24.6387 21.3574L23.9355 21.2109L23.291 21.123L22.793 21.0938ZM22.8223 25.3711L23.3789 25.4297L24.082 25.6348L24.4336 25.7812L24.873 26.0156L25.2539 26.2793L25.6641 26.6309L25.8984 26.8652L26.1621 27.1875L26.3379 27.4219L26.6895 28.0664L26.8652 28.5059L27.0117 29.0039L27.0996 29.6191V30.3809L27.0117 30.9668L26.8359 31.582L26.6309 32.0508L26.3965 32.4902L26.1621 32.8125L25.7812 33.252L25.4297 33.5742L24.9902 33.8965L24.4629 34.1895L24.2285 34.3066L23.4375 34.541L22.7344 34.6289H22.2363L21.4746 34.541L20.7129 34.3066L19.9805 33.9258L19.6582 33.6914L19.2773 33.3691L19.1016 33.2227L18.8672 32.9297L18.5449 32.5195L18.1641 31.7871L17.959 31.1719L17.8711 30.7031L17.8125 30.1172L17.8418 29.6191L17.9004 29.0918L18.1055 28.3887L18.3105 27.9199L18.6035 27.3926L18.8965 27.0117L19.248 26.6309L19.6582 26.2793L20.0684 26.0156L20.6836 25.6934L21.3281 25.4883L21.7969 25.4004L22.1191 25.3711H22.8223Z" fill="white"/>
<path d="M36.7676 41.4551H36.0645L35.332 41.5137L34.5996 41.6309L33.8965 41.8066L33.2227 42.041L32.6074 42.3047L31.9336 42.6562L31.3477 43.0371L30.8789 43.3887L30.498 43.7109L30.1172 44.0625L29.8828 44.2969L29.6777 44.5312L29.2969 45L28.916 45.5566L28.6523 45.9961L28.3594 46.5527L28.0664 47.2559L27.832 47.959L27.7734 48.2227H2.8418L1.78711 48.252L1.34766 48.3691L0.996094 48.5449L0.732422 48.75L0.527344 48.9258L0.263672 49.3066L0.0878906 49.6875L0.0585938 49.834H0V50.8887L0.0585938 50.918L0.175781 51.2402L0.380859 51.5918L0.703125 51.9434L0.996094 52.1484L1.40625 52.3535L1.75781 52.4414L2.05078 52.4707H27.7734L27.8906 52.9395L28.1543 53.6719L28.418 54.2578L28.7109 54.8145L29.0039 55.2832L29.2969 55.6934L29.5605 56.0156L29.9121 56.4258L30.4395 56.9531L31.084 57.4805L31.5527 57.8027L32.1387 58.1543L32.7832 58.4766L33.457 58.7402L34.1309 58.9453L34.8047 59.0918L35.625 59.209L36.0352 59.2383H36.8555L37.7051 59.1504L38.6133 58.9746L39.4629 58.7109L40.2246 58.3887L40.8398 58.0664L41.3965 57.7148L41.8652 57.3633L42.1875 57.0996L42.4805 56.8359L43.0664 56.25L43.3301 55.9277L43.7109 55.4297L44.0332 54.9316L44.3262 54.4043L44.6191 53.7891L44.8828 53.0566L45.0293 52.5586V52.4707H57.9785L58.418 52.4121L58.7988 52.2656L59.0918 52.0898L59.3848 51.8262L59.5898 51.6211L59.8242 51.2402L60 50.8008V49.8926L59.8535 49.541L59.6777 49.1895L59.4141 48.8672L59.1504 48.6328L58.7402 48.3984L58.3594 48.2812L58.2129 48.252L57.334 48.2227H45.0293L44.9707 47.959L44.8242 47.4609L44.502 46.6699L44.1797 46.0254L43.7988 45.4102L43.418 44.8828L43.1543 44.5898L42.9199 44.2969L42.3633 43.7402L42.041 43.4766L41.6309 43.1543L41.25 42.8906L40.7227 42.5684L40.2539 42.334L39.7559 42.0996L39.1992 41.8945L38.4668 41.6895L37.6758 41.543L37.207 41.4844L36.7676 41.4551ZM36.6211 45.7031L37.3535 45.791L37.9688 45.9668L38.3496 46.1133L38.9355 46.4355L39.3457 46.7578L39.668 47.0215L39.9316 47.3438L40.166 47.6074L40.4297 48.0176L40.6641 48.4863L40.8984 49.1309L41.0156 49.7754L41.0449 50.0098V50.6836L40.9277 51.416L40.7227 52.0605L40.4297 52.6758L40.166 53.0859L39.8145 53.4961L39.668 53.6719L39.3457 53.9355L38.9648 54.2285L38.4375 54.5215L38.0566 54.6973L37.3242 54.9023L36.5918 54.9902H36.2109L35.4785 54.9023L34.6875 54.668L34.2188 54.4336L33.8086 54.1992L33.5156 53.9648L33.1348 53.6426L32.8125 53.291L32.5195 52.9102L32.1387 52.207L31.9043 51.5039L31.8164 51.0059L31.7578 50.3027L31.8457 49.4824L31.9922 48.9258L32.168 48.457L32.4902 47.8418L32.7246 47.5195L33.0469 47.1387L33.3105 46.875L33.6035 46.6406L33.9844 46.377L34.5996 46.0547L35.4492 45.791L36.2109 45.7031H36.6211Z" fill="white"/>
<path d="M37.002 0.761719H35.8008L34.9805 0.849609L34.1309 1.02539L33.252 1.31836L32.5488 1.61133L31.9043 1.96289L31.3477 2.31445L30.9668 2.60742L30.6445 2.87109L30.293 3.19336L30.1172 3.33984L29.9121 3.57422L29.707 3.7793L29.4434 4.10156L29.0332 4.6582L28.7988 5.03906L28.4473 5.6543L28.1836 6.24023L27.9492 6.85547L27.7441 7.5L25.5469 7.5293H1.9043L1.43555 7.61719L0.966797 7.85156L0.732422 8.02734L0.585938 8.14453L0.351562 8.4375L0.146484 8.78906L0.0292969 9.14062L0 9.16992V10.1367H0.0585938L0.117188 10.4004L0.351562 10.8398L0.585938 11.1328L0.966797 11.4258L1.31836 11.6016L1.72852 11.7188L1.96289 11.748L27.7441 11.7773L28.125 12.8906L28.3594 13.418L28.5938 13.8867L28.7402 14.1504L29.0039 14.5605L29.2969 14.9707L29.5898 15.3516L30 15.791L30.1172 15.9375L30.3516 16.1426L30.7617 16.5234L31.3184 16.9336L31.8164 17.2559L32.4609 17.6074L32.9004 17.8125L33.6035 18.0762L34.1895 18.252L34.8926 18.3984L35.5078 18.4863L35.8887 18.5156H36.9727L37.5879 18.457L38.2617 18.3398L38.8477 18.1934L39.5508 17.959L40.166 17.6953L40.752 17.4023L41.2793 17.0801L41.7773 16.7285L42.1582 16.4062L42.4512 16.1426L43.0664 15.5273V15.4688H43.125L43.3887 15.1465L43.7988 14.5898L44.1211 14.0625L44.4727 13.3887L44.6777 12.9199L44.8535 12.4219L45.0586 11.7773L58.0664 11.748L58.5352 11.6602L58.9453 11.4844L59.3262 11.1914L59.6191 10.8691L59.8828 10.4004L60 10.0488V9.14062H59.9414L59.8828 8.87695L59.707 8.52539L59.4434 8.17383L59.1797 7.93945L58.7988 7.70508L58.4766 7.58789L58.1543 7.5293H48.3105L45.0586 7.5L44.707 6.44531L44.4141 5.77148L44.1211 5.21484L43.7695 4.6582L43.5352 4.33594L43.125 3.80859L42.9492 3.60352H42.8906L42.832 3.48633L42.4219 3.07617L41.7773 2.54883L41.25 2.16797L40.6055 1.78711L39.873 1.43555L39.2578 1.20117L38.4375 0.966797L37.6172 0.820312L37.002 0.761719ZM36.8262 5.00977L37.4414 5.09766L38.0273 5.27344L38.3789 5.41992L38.9648 5.74219L39.2871 6.00586L39.668 6.32812L39.9609 6.65039L40.2539 7.03125L40.6055 7.64648L40.7812 8.08594L40.9277 8.55469L41.0449 9.28711V9.96094L40.9277 10.7227L40.6641 11.5137L40.3125 12.1582L40.0195 12.5391L39.7559 12.832L39.5801 13.0371L39.2578 13.3008L38.9355 13.5352L38.291 13.8867L37.5 14.1504L36.9141 14.2383L36.6504 14.2676H36.1816L35.4492 14.1797L34.6875 13.9453L34.2188 13.7109L33.8379 13.5059L33.252 13.0371L32.9004 12.6855L32.6953 12.4219L32.4316 12.041L32.1094 11.4258L31.875 10.6641L31.7871 10.0195L31.7578 9.55078L31.8457 8.73047L32.0801 7.93945L32.373 7.32422L32.6367 6.91406L33.0176 6.44531L33.2812 6.18164L33.6914 5.85938L33.9551 5.68359L34.541 5.36133L35.3613 5.09766L35.9766 5.00977H36.8262Z" fill="white"/>
</g>
<defs>
<clipPath id="clip0_206_914">
<rect width="60" height="60" fill="white" transform="matrix(-1 0 0 1 60 0)"/>
</clipPath>
</defs>
</svg>
