<svg width="100" height="100" viewBox="0 0 100 100" fill="none" xmlns="http://www.w3.org/2000/svg">
<path d="M79.9375 74.125L78.75 74.125L77.9375 73.875L77.25 73.5L76.4375 72.875L74.6875 71.375L74 70.8125L73.375 70.25L72.6875 69.6875L71.9375 69L71.25 68.4375L70.625 67.875L69.9375 67.3125L69.3125 66.75L68.8125 66.3125L67.9375 65.5625L67.125 64.875L66.4375 64.3125L65.5 63.5L64.875 62.9375L64.1875 62.375L63.5 61.75L62.8125 61.1875L62.1875 60.625L61.6875 60.1875L61.0625 59.625L60.375 59.0625L59.75 58.5L59.0625 57.9375L58.8125 58.0625L58.1875 58.875L57.4375 59.875L56.3125 61.5625L55.4375 62.8125L54.0625 64.8125L53.5 65.625L52.6875 66.8125L52.25 67.4375L51.125 69.125L50.375 70.125L49.875 70.75L49.1875 71.3125L48.1875 71.8125L47.8125 71.875L46.625 71.875L45.75 71.6875L45 71.375L44.4375 70.9375L43.9375 70.4375L43.5 69.6875L43.25 68.8125L43.125 66.875L43.125 50.25L43.0625 49.5L42.5625 49.3125L40.4375 48.6875L35.625 47.125L30.5625 45.4375L27.875 44.5625L25.125 43.625L22.875 42.875L21.875 42.375L21.375 41.9375L21 41.4375L20.6875 40.875L20.4375 39.8125L20.5 39.0625L20.8125 38.1875L21.25 37.625L21.8125 37.1875L22.8125 36.6875L24.3125 36L25.5625 35.4375L27.375 34.625L29.125 33.875L31.375 32.875L33.5625 31.9375L37.5625 30.1875L39.4375 29.375L41.8125 28.3125L43.4375 27.625L45.3125 26.8125L47.125 26L49.8125 24.8125L51.25 24.1875L52.8125 23.5L55.25 22.4375L57.0625 21.625L58.9375 20.8125L60.5 20.125L62.375 19.3125L66.3125 17.5625L68.0625 16.8125L73 14.625L74.875 13.8125L77.5625 12.625L80 11.5625L81.875 10.75L84.125 9.75L85.375 9.1875L89.25 7.5L91.625 6.5L92.5625 6.1875L93.3125 6L94.0625 6L94.4375 6.25L94.75 6.875L94.875 7.3125L94.875 7.9375L94.4375 10.3125L94.0625 12.125L93.4375 15.375L92.9375 17.9375L92.375 20.8125L91.5 25.375L91.0625 27.5L90.625 29.8125L90.0625 32.625L89.3125 36.4375L88.4375 41L85.125 57.5625L83.75 64.5L82.4375 71.25L82.125 72.25L81.75 73L81.25 73.5L80.5625 73.9375L79.9375 74.125ZM79.25 70.8125L79.5 69.5L80.25 65.6875L80.75 63.0625L81.3125 60.25L81.6875 58.3125L82.0625 56.5625L82.5 54.1875L83.1875 50.8125L83.75 47.875L84.125 46.0625L84.6875 43.0625L85.25 40.3125L85.875 37.125L86.6875 32.875L87.125 30.8125L87.6875 27.875L88.1875 25.4375L88.75 22.5L89.1875 20.375L89.5625 18.4375L90.125 15.75L90.125 15.375L89.8125 15.5L89.25 16.125L88.5625 17.0625L87.8125 18.0625L86.9375 19.25L85.9375 20.5625L85.375 21.375L84.8125 22.125L84.1875 23L83.5 23.9375L81.875 26.1875L81.1875 27.125L80.3125 28.3125L79.5625 29.375L78.9375 30.25L78.125 31.375L77.25 32.5625L76.4375 33.6875L75.6875 34.6875L74.875 35.8125L74 37L73.3125 37.9375L72.75 38.6875L72.0625 39.625L70.4375 41.875L69.5 43.125L67.875 45.375L66.9375 46.625L66.3125 47.5L65.5 48.625L64.625 49.8125L63.9375 50.75L62.3125 53L61.6875 53.8125L61.125 54.625L60.8125 55.0625L60.875 55.375L61.625 55.9375L62.5 56.6875L63.1875 57.25L64.9375 58.75L65.625 59.375L66.125 59.8125L67 60.5625L67.9375 61.375L68.5625 61.9375L69.25 62.5L69.875 63.0625L70.5625 63.625L71.1875 64.1875L71.875 64.75L72.5625 65.375L73.25 65.9375L74 66.625L75.375 67.75L76.3125 68.5625L77 69.125L77.625 69.6875L78.5 70.375L79.0625 70.8125L79.25 70.8125ZM46.6875 69L47.25 68.625L47.875 68.0625L48.4375 67.3125L49.0625 66.5L50.125 64.875L50.75 64L51.1875 63.375L52.4375 61.5L53.3125 60.3125L54.6875 58.25L55.5 57.125L56.9375 55L57.8125 53.8125L58.3125 53.125L59.0625 52.0625L59.75 51.125L60.625 49.9375L61.25 49.0625L61.8125 48.25L63.125 46.5L64.375 44.75L64.875 44.0625L65.625 43.0625L67.25 40.8125L67.75 40.125L68.375 39.3125L68.9375 38.5625L69.5625 37.6875L70.3125 36.625L70.9375 35.8125L71.8125 34.625L72.5625 33.5625L73.0625 32.875L74.9375 30.375L75.625 29.375L77.125 27.375L77.8125 26.375L78.625 25.25L79.25 24.4375L80.75 22.4375L81.625 21.25L82.3125 20.375L83.0625 19.3125L83.5625 18.6875L83.4375 18.625L82.375 19.375L81.5 20.0625L79.875 21.4375L79.1875 22L78.3125 22.75L77.6875 23.25L76.625 24.125L75.75 24.8125L74.6875 25.6875L74 26.25L73.375 26.8125L72.75 27.3125L71.8125 28.125L71.125 28.6875L70.3125 29.375L69.6875 29.875L69 30.4375L68.25 31.0625L66.875 32.1875L66.0625 32.875L65.4375 33.375L64.4375 34.1875L63.8125 34.6875L63 35.375L61.625 36.5L60.75 37.25L59.875 37.9375L58.75 38.8125L57.875 39.5L57.25 40L56.3125 40.5625L55.875 40.5L55.375 40.0625L55.25 40.0625L55.125 39.8125L54.875 39.4375L54.75 39.125L54.75 38.5L55.1875 37.9375L55.75 37.3125L56.25 36.875L56.875 36.3125L57.6875 35.6875L58.6875 34.875L59.5625 34.125L60.1875 33.625L60.9375 33L61.625 32.4375L62.4375 31.75L63.125 31.1875L63.9375 30.5625L64.5625 30L65.375 29.375L65.875 28.9375L66.5 28.4375L67.1875 27.875L67.8125 27.3125L68.5625 26.75L69.125 26.25L69.875 25.6875L70.6875 25L71.3125 24.5L71.8125 24.0625L72.4375 23.5625L73.3125 22.8125L74.1875 22.125L75.1875 21.3125L76.0625 20.625L77 19.8125L77.5 19.375L78.1875 18.875L78.625 18.4375L79.375 17.875L80.1875 17.1875L80.75 16.75L81.375 16.1875L82.1875 15.5625L82.8125 15L83.875 14.1875L84.75 13.5L85.375 12.9375L85.375 12.8125L85.5 12.8125L85.5 12.6875L84.9375 12.875L83.8125 13.3125L82.5625 13.875L80.6875 14.6875L78.75 15.5625L76.8125 16.375L74.9375 17.1875L73.3125 17.9375L70.9375 19L67.625 20.4375L66.0625 21.125L64.5625 21.75L62.75 22.5625L60.625 23.5L59.0625 24.1875L57.75 24.75L56.5 25.3125L54.9375 26L53.0625 26.8125L51.8125 27.375L50.8125 27.8125L48.625 28.75L46.8125 29.5625L44.5 30.5625L43.25 31.125L41.9375 31.6875L40.5 32.3125L38.8125 33.0625L35 34.75L33.75 35.3125L32.5625 35.8125L30.125 36.875L28.5 37.5625L26.125 38.5625L24.25 39.3125L23.875 39.5L24 39.75L24.375 40L32.25 42.625L35.75 43.8125L41 45.5625L43.5625 46.4375L46 47.25L46.1875 47.8125L46.25 48.5625L46.3125 66.5625L46.375 68.5L46.5625 69L46.6875 69Z" fill="#231F20"/>
<path d="M52.1875 97L47.8125 97L45.0625 96.8125L42.8125 96.5625L40.4375 96.125L36.9375 95.25L34.5625 94.5L32.8125 93.875L30.6875 93L28.5 91.9375L27.0625 91.1875L25.8125 90.4375L24.625 89.6875L23.5 88.9375L22.5625 88.25L21.8125 87.6875L20.1875 86.4375L19.3125 85.6875L18.375 84.875L17.875 84.375L17.375 83.9375L15.75 82.3125L15.3125 81.8125L14.6875 81.125L14.1875 80.5L13.4375 79.625L12.6875 78.625L11.875 77.5625L10.875 76.0625L9.875 74.5L9 73L8.125 71.3125L7.1875 69.375L6.375 67.4375L5.5625 65.1875L5 63.375L4.375 61.125L3.8125 58.5L3.4375 56.1875L3.1875 53.75L3.125 52.8125L3.125 47.6875L3.3125 45L3.625 42.625L4.37501 38.875L4.81251 37.25L5.50001 35L6.37501 32.5625L7.18751 30.6875L8.06251 28.8125L8.75001 27.5625L9.18751 26.6875L9.81251 25.6875L10.1875 25.0625L10.9375 23.875L11.5625 23L12.125 22.25L12.875 21.1875L13.5625 20.3125L14.25 19.5L14.6875 19L15.625 18L16.0625 17.5L17.875 15.6875L18.375 15.25L19.125 14.5625L19.625 14.125L20.625 13.3125L21.5625 12.5625L22.5625 11.875L24 10.875L25.1875 10.125L26.125 9.56249L27.3125 8.87499L29.5625 7.68749L31.8125 6.68749L33.0625 6.18749L35.3125 5.37499L38.0625 4.56249L39.9375 4.125L41.9375 3.75L44.125 3.4375L46.1875 3.25L48.5625 3.125L52.0625 3.125L54.25 3.25L56.1875 3.4375L57.875 3.6875L60.4375 4.1875L62.625 4.75L65.125 5.5L67.0625 6.1875L68.625 6.8125L69.875 7.375L70.5625 7.75L71.125 8.25L71.375 8.8125L71.4375 9.0625L71.4375 9.5625L71.0625 10.3125L70.625 11L70 11.375L69.4375 11.375L68.1875 11L65.875 10.0625L64 9.375L62.5 8.875L60.875 8.4375L58.4375 7.875L56.1875 7.5L53.9375 7.25L52 7.125L48.1875 7.125L45.875 7.3125L43.4375 7.625L41.3125 8L39.25 8.49999L37.5 8.99999L35.25 9.74999L33.0625 10.625L31.25 11.4375L30.25 11.9375L29 12.625L27.5 13.5L26 14.4375L24.875 15.25L23.5625 16.25L22.6875 16.9375L21.875 17.625L20.9375 18.4375L20.4375 18.875L18.8125 20.5L18.375 21L17.8125 21.5625L17.3125 22.1875L16.8125 22.75L16.125 23.625L15.375 24.625L14.5625 25.75L13.9375 26.6875L13.5 27.4375L13 28.25L12 30.0625L11.5 31.125L11 32.125L10.0625 34.375L9.25001 36.6875L8.75001 38.375L8.1875 40.5625L7.75 42.9375L7.5 44.8125L7.25 46.875L7.125 48.3125L7.125 52.1875L7.375 54.875L7.6875 57.25L8.0625 59.1875L8.5 61L9.3125 63.75L9.8125 65.125L10.625 67.125L11.375 68.75L12.1875 70.375L12.9375 71.6875L13.6875 72.9375L14.5625 74.25L15.3125 75.3125L16.1875 76.5L16.875 77.375L17.4375 78.0625L18.1875 78.875L18.625 79.375L20.5 81.25L21 81.6875L21.875 82.5L22.5625 83.0625L23.375 83.75L24.625 84.6875L25.5625 85.375L26.625 86.125L27.625 86.75L28.5625 87.3125L29.75 88L31.5625 88.9375L33.5625 89.8125L35.1875 90.4375L37.4375 91.1875L39.6875 91.8125L42.0625 92.3125L43.625 92.5625L46.25 92.875L47.6875 93L48.8125 93.0625L51.5 93.0625L54.0625 92.875L56 92.625L58.6875 92.1875L60.4375 91.8125L63.5 90.9375L66.125 90L67.6875 89.3125L69.1875 88.625L70.875 87.75L72.3125 86.875L73.3125 86.25L74.5 85.4375L75.625 84.625L76.6875 83.8125L77.625 83L78.3125 82.4375L78.8125 81.9375L78.9375 81.9375L78.9375 81.8125L79.4375 81.375L81.625 79.1875L81.8125 78.9375L81.9375 78.9375L82.0625 78.6875L82.875 77.8125L84.25 76.0625L85.3125 74.5L86.125 73.3125L86.9375 71.9375L87.6875 70.625L89 68L89.75 66.25L90.375 64.625L91.125 62.4375L91.875 59.75L92.25 57.9375L92.6875 54.9375L92.9375 52.5L93 51.5625L93 47.875L92.6875 44.6875L92.375 42.5625L92.375 41.25L92.6875 40.625L93.1875 40.1875L93.75 39.9375L94.375 39.875L95.1875 40L95.6875 40.3125L95.9375 40.625L96.25 41.4375L96.4375 42.375L96.75 44.75L96.9375 46.75L97 47.75L97 52.125L96.875 54.3125L96.625 56.625L96.375 58.1875L95.6875 61.375L95.3125 62.6875L94.75 64.5625L94.25 66L93.4375 68.125L92.6875 69.75L92 71.1875L91.25 72.625L90.5 73.9375L90 74.75L89.125 76.125L88.4375 77.125L87.9375 77.8125L87.0625 79L86.1875 80.125L85.375 81.0625L84.75 81.75L84.3125 82.25L83.75 82.8125L83.375 83.25L82.375 84.25L81.875 84.6875L81.375 85.1875L80.875 85.625L80.0625 86.3125L79.375 86.875L78.375 87.6875L77.3125 88.4375L76.4375 89.0625L75 90L73.625 90.8125L72.1875 91.625L70.75 92.375L69 93.1875L67.3125 93.875L65.5 94.5625L63.3125 95.25L61.625 95.6875L59.9375 96.0625L57.5625 96.5L55.625 96.75L53.4375 96.9375L52.1875 97Z" fill="#231F20"/>
<path d="M26.4375 50.3125H35.875L37.25 50.4375L37.5625 50.75L37.75 51.25V51.875L37.5625 52.5L37.3125 52.75L36.875 52.875L35.9375 52.9375L32.125 53.0625L32.8125 54.5L33.4375 56.0625L33.625 56.25L34.375 56.375H36.5625L37.3125 56.5L37.5625 56.8125L37.6875 57.1875V58.0625L37.5 58.5625L37.1875 58.8125L37.0625 58.875L36.3125 58.9375L33.625 59L33.5 59.375L33.3125 60.375L32.875 61.375L32.3125 62.25L31.75 62.9375L31.3125 63.375L30.375 64.0625L29 64.75L27.8125 65.125L26.375 65.4375L24.875 65.625H24.125L24.5625 66.125L25.125 66.75L25.6875 67.4375L26.5 68.375L26.9375 68.8125L27.5 69.5L29.125 71.375L29.6875 72.0625L30.3125 72.75L30.875 73.4375L31.5 74.125L32.1875 75L32.6875 75.6875L33 76.3125V76.8125L32.25 77.625L31.75 78L30.75 77.375L30.3125 76.9375L29.9375 76.625L29.5 76.125L28.6875 75.25L28.125 74.5625L27.3125 73.625L26.625 72.8125L26.0625 72.125L25.4375 71.4375L24.875 70.75L24.25 70.0625L23.6875 69.375L22.1875 67.625L21.625 66.9375L20.9375 66.0625L20.1875 65.0625L19.9375 64.5L19.875 64.125L20.125 63.4375L20.4375 63.1875L20.6875 63.125L24.75 62.9375L26.5 62.6875L27.5625 62.375L28.3125 62.0625L29.25 61.5L29.875 61L30.3125 60.5L30.6875 59.875L31 59.0625L23.9375 59L20.875 58.9375L20 58.8125L19.75 58.5L19.5625 57.9375L19.5 57.125L19.75 56.625L20.0625 56.375L21.875 56.3125H30.5625L30.25 55.5L29.6875 54.5625L29 53.75L28.625 53.3125L28.1875 53.125L27.875 53.0625L22.8125 53L20.4375 52.9375L20 52.875L19.75 52.5625L19.5 51.8125L19.4375 51.3125L19.625 50.8125L20 50.5L20.3125 50.4375L22 50.375L26.4375 50.3125Z" fill="#231F20"/>
<path d="M50.8125 45.125L50.1875 45.0625L49.6875 44.8125L49.25 44.3125L49.125 44.0625L49.125 43.625L49.5 43.125L50.5 42.1875L51.3125 41.4375L52.1875 40.875L52.5625 40.6875L52.9375 40.6875L53.5625 41.0625L54 41.5625L54.1875 42L54.0625 42.625L53.8125 43L53.125 43.625L52.5625 44.0625L51.5625 44.8125L51.0625 45.0625L50.8125 45.125Z" fill="#231F20"/>
</svg>
