<svg width="430" height="430" viewBox="0 0 430 430" fill="none" xmlns="http://www.w3.org/2000/svg">
<g clip-path="url(#clip0_206_918)">
<path d="M98 26.5H105.75L126.25 28.75L230 40.5L384.25 58L394.25 59.25L399 60.25L404 62L408 64L411 65.75L415 68.75L418 71.5L420.75 74.5L423.75 78.75L427 85L428.75 90.25L429.5 93.25L430 93.5V109.75L429.5 110.75L427.25 130L424.5 154.5L423 167.5L421.25 182.5L419.5 198.5L418 211.75L416 229.25L414.25 244.25L412.5 260.25L411 273.5L409 291L406.5 313.25L405.5 320.75L404.25 325.75L402.25 331L400 335.25L398 338.25L396 340.75L393.75 343.25L391.5 345.5L389 347.25L385 349.5L380.75 351.5L374 353.75L372 354.25H371V362.25L370.75 367L369.75 372.25L368.5 376L366.75 380L365 383L362.5 386.5L360.25 389.25L357.5 392L354.25 394.5L350.5 397L345.75 399.5L341.75 401L336.5 402.5L331.75 403.25L329.25 403.5H37.25L32.75 403L27.5 401.75L23.75 400.25L19.75 398.25L16 395.75L13.25 393.5L11.25 391.75L9.5 389.75L6.75 386.25L4.5 382.5L2.5 378.25L1 373.75L0 369.75V142.5L1 138.5L2.75 132.75L4.75 128.25L6.75 124.75L9 121.5L12 118L15 115L18.25 112.5L22.75 109.75L27.25 107.75L32.5 106.25L36.25 105.75L41.25 105.5H56.25L56.5 102.75L59.25 80L61.25 63.75L62 59L63.5 53.75L64.75 50.75L66.75 46.75L68.75 43.75L71 41L72 39.75H72.5L73 38.75L75.5 36.5L79.75 33.25L83.75 30.75L88.25 28.75L93.25 27.25L98 26.5ZM102.25 47.25L98.25 47.75L95 48.75L91 50.75L89 52.25L87.25 54L85.5 56.5L84 59L82.5 63L81.75 67.25L79.75 84.5L77.5 103.75L77.25 105.5L77.5 105.75H317.75L330 106L335.25 106.75L340.75 108.25L346 110.5L350 112.75L353.75 115.5L357.25 118.5L359 120.25L361.25 123L363.75 126.5L366.25 131L368.25 136L369.75 141.25L370.5 146.25L370.75 276V332.75L371.75 332.5L376.5 330L379.5 327.25L381.25 325.25L383.25 321.25L384 318L385.5 304.5L390.75 259.5L394.5 227L399.75 181.75L408.5 105.75L408.75 103.5V98.75L408.25 95.75L407 92.25L405 88.75L402.75 86L399.25 83.25L395 81.25L392.25 80.5L382.25 79.25L228.5 61.5L107.25 47.5L102.25 47.25ZM38.75 126.75L35.75 127.25L33 128.25L30.25 129.75L27 132.75L25 135.25L23 139L21.75 142.75L21 147.25V297.5L22.25 297L26.5 293.75L35.5 287.25L40.25 283.75L43.75 281.25L48.5 277.75L57.5 271.25L62.25 267.75L71.25 261.25L76 257.75L80.5 254.5L85.25 251L88.75 248.5L94 245L98.75 242.5L104.25 240.5L110 239.25L114.5 238.75H120.25L125 239.25L129.5 240.25L135.5 242.25L139.5 244.25L143 246.25L146 248.5L148.5 250.5L151 252.75L153 254.5L156.5 257.5L159.75 260.5L162.5 262.75L166 266L168 267.75L171.5 270.75L174.25 273.25L176.25 275L179.75 278L182.75 280.75L184.75 282.5L187.25 284.75L190 287L193.5 290.25L196.25 292.5L199.75 295.75L201.75 297.5L204.25 299.75L207.5 302.25L211 304.25L215 305.75L218.5 306.5L220.5 306.75H224.25L228 306.25L232.5 304.75L236.5 302.75L243.5 298.75L248.25 296L253.75 292.75L259.75 289.25L266.25 285.5L279.5 277.75L286 274L290.25 271.5L303.5 263.75L310 260L316 256.5L322.5 252.75L326.75 250.25L344.75 239.75L349.5 237L349.75 236.75V149L349.25 145.25L347.75 140.75L346 137.5L343.5 134.25L340.75 131.75L337.25 129.5L333.25 127.75L330.25 127L328.5 126.75H38.75ZM114.5 259.5L110.25 260.25L106.25 261.75L102.5 264L99.25 266.5L96.5 268.5L91.75 272L87.25 275.25L83.25 278.25L79.75 280.75L76.5 283.25L72 286.5L67.25 290L62.75 293.25L58.5 296.5L55 299L50.25 302.5L47.5 304.5L43.5 307.5L40.75 309.5L36 313L32.5 315.5L27.75 319L23.75 322L21 324V365.75L21.75 369.5L23 372.5L25.25 375.75L26.5 377L29 379.25L33 381.25L35.5 382L36.5 382.25L40.25 382.5H293.75L330.25 382.25L334.5 381.25L338.5 379.5L341.5 377.75L344.5 375.25V374.75H345L347 372L348.75 368.5L349.5 365.75L349.75 363.25V261.75L348.25 262.25L336.25 269.25L329.75 273L323.75 276.5L320.25 278.5L314.25 282L307.75 285.75L302.5 288.75L290.5 295.75L283.5 299.75L277.5 303.25L271 307L265 310.5L258.5 314.25L251.5 318.25L245.5 321.75L240.75 324L234.75 326L228.5 327.25L226.5 327.5H218.25L212 326.5L206 324.75L200.75 322.5L196.25 320L192.75 317.5L189.5 314.75L186.5 312L183.75 309.75L180.75 307L178.75 305.25L176.25 303L173.5 300.75L170 297.5L168 295.75L164.5 292.75L161.5 290L159.5 288.25L156 285.25L153 282.5L150.25 280.25L147 277.25L145 275.5L142.5 273.25L139.75 271L136.5 268L134.5 266.25L131.25 263.75L127.75 261.75L124.5 260.5L121.75 259.75L119.75 259.5H114.5Z" fill="black"/>
<path d="M213.5 159.5H221.75L227 160.25L232.25 161.75L236 163.25L240.75 165.75L244.25 168.25L246.75 170.25L249 172.25L250.75 174.25L253.25 177.25L255.75 181L258.5 186.5L260.25 191.75L261 194.75L261.75 200.5V206.75L260.75 213.25L259 219L257 223.5L255.75 225.75L252.75 230.25L249.5 234L247.5 236L244.75 238.25L241.5 240.5L238 242.5L233.75 244.5L228.75 246L223.75 247L218.75 247.5H216.25L209.75 246.75L204.5 245.5L199.5 243.5L194.75 241L191.5 238.75L188.75 236.5L187 235L185.25 233L183 230.5L180 226.25L177.5 221.5L175.75 217L174.25 210.75L173.75 207.25V200L174.5 194.75L175.75 190L177.25 186L179.25 182L181.5 178.25L184.75 174.25L187.5 171.25L190.25 169L193.25 166.75L196.5 164.75L201.75 162.25L205.5 161L211.25 159.75L213.5 159.5ZM216.75 180.5L212.5 181L208.75 182.25L205 184.25L201.75 187L199.5 189.5L197.75 192.25L196.25 195.5L195.25 199L195 200.5V206.5L196 210.75L197.5 214.25L199.25 217L202 220L204.25 222L208.25 224.25L210.75 225.25L214 226L215.75 226.25H219.75L224.75 225.25L228.75 223.5L231.75 221.5L234.75 218.75L236.25 217L238.25 213.75L239.75 210L240.5 206V201L239.75 197L238.5 193.75L236.75 190.5L234.75 188L232.5 185.75L230 184L226 182L222.75 181L218.75 180.5H216.75Z" fill="black"/>
</g>
<defs>
<clipPath id="clip0_206_918">
<rect width="430" height="430" fill="white"/>
</clipPath>
</defs>
</svg>
