<svg width="64" height="64" viewBox="0 0 64 64" fill="none" xmlns="http://www.w3.org/2000/svg">
<path d="M23.5938 0H40.4062V0.0625L40.5938 0.125L40.875 0.375L41.0312 0.6875L41.0625 0.875V13.5312L41.5 13.5625L42.3438 13.6875L43.2812 13.9062L44.2188 14.2188L45.0312 14.5625L45.5312 14.8125L46.2188 15.1875L46.9062 15.6562L47.2812 15.9375L47.625 16.2188L48.0625 16.5938L48.875 17.4062L49.1562 17.75L49.4688 18.125L49.9062 18.75L50.25 19.3125L50.5625 19.875L50.9375 20.6562L51.2188 21.4062L51.4688 22.2188L51.6562 23.0312L51.7812 23.875L51.8438 24.625V52.625L51.7188 53.5938L51.4688 54.4688L51.125 55.2188L50.8125 55.75L50.5312 56.125L50.2812 56.4375L50.125 56.625L49.875 56.8438L49.5625 57.1562L49.0312 57.5312L48.4688 57.875L47.6875 58.2188L46.9062 58.4375L46.5 58.5312L46.4688 62.875L46.4062 63.375L46.2188 63.6875L46 63.875L45.75 64H18.25L17.8438 63.75L17.625 63.4688L17.5312 63.125V58.5312L16.9375 58.4062L16.4688 58.2812L15.6562 57.9375L15.25 57.7188L14.6562 57.3125L14.3125 57.0312L13.625 56.3438L13.1875 55.75L12.9375 55.3438L12.5625 54.5625L12.3438 53.875L12.2188 53.2812L12.125 52.2188V25.0938L12.1875 24.0312L12.3438 23L12.5312 22.1875L12.7812 21.375L13.0312 20.7188L13.4062 19.9062L13.8438 19.125L14.2188 18.5625L14.5625 18.0938L14.9688 17.5938L15.3125 17.2188L15.5312 16.9688L15.7812 16.75L16.1562 16.375L17.0312 15.6875L17.7812 15.1875L18.5625 14.75L19.2188 14.4375L19.9375 14.1562L20.7188 13.9062L21.5312 13.7188L22.0625 13.625L22.9062 13.5L22.9375 0.875L23 0.59375L23.1875 0.28125L23.5 0.0625L23.5938 0ZM24.8438 1.875V13.5H28.9688L29 13.4688L29.0312 9.0625L29.0938 8.75L29.2188 8.5L29.3438 8.34375L29.5938 8.1875L29.7812 8.125H34.1562L34.5 8.25L34.75 8.46875L34.875 8.6875L34.9375 8.875L34.9688 13.5H39.0938L39.125 13.4688L39.1562 7.5L39.125 1.875H24.8438ZM30.9688 9.96875L30.9062 10.0312V13.4688L32.3125 13.5H32.875L33.0625 13.4688V10L32.9688 9.96875H30.9688ZM24.7188 15.375L23.2188 15.4062L22.3438 15.5L21.5625 15.6562L20.8125 15.875L20.125 16.125L19.5 16.4062L18.9375 16.7188L18.4062 17.0625L17.875 17.4375L17.4375 17.8125L17.125 18.0938L16.5312 18.6875L16.1875 19.125L15.9062 19.4688L15.6562 19.8438L15.4062 20.25L15.0938 20.8125L14.75 21.5625L14.4688 22.375L14.25 23.1875L14.0938 24.125V24.2812L39.75 24.3125L40.125 24.375L40.4062 24.5625L40.5625 24.75L40.6875 25.0312V25.4688L40.5312 25.7812L40.4062 25.9375L40.125 26.0938L39.875 26.1562L14.0625 26.1875L14.0312 26.5V52.1562L14.125 53.125L14.3125 53.7812L14.5312 54.2812L14.7812 54.7188L15.125 55.1562L15.4375 55.5L15.875 55.8438L16.1875 56.0625L16.7188 56.3438L17.4688 56.5938L18.2188 56.6875L19.8438 56.7188H44.3438L45.8125 56.6875L46.3438 56.625L47.0312 56.4375L47.75 56.0938L48.25 55.75L48.5625 55.4688L48.9375 55.0938L49.3125 54.5625L49.5625 54.0625L49.75 53.5625L49.8438 53.2812L49.8125 53.1875H24.25L23.8125 53.0938L23.5625 52.9062L23.4375 52.75L23.3125 52.4688L23.2812 52.2188L23.375 51.8438L23.5938 51.5625L23.8438 51.4062L24.0312 51.3438L25.5938 51.3125H49.9062L49.9375 51.2812V24.8125L49.875 24L49.75 23.2188L49.5312 22.375L49.3125 21.75L49.125 21.2812L48.7812 20.5625L48.3125 19.7812L47.9062 19.2188L47.5625 18.8125L47.3438 18.5625L47.1875 18.375H47.125L47.0625 18.25L46.9375 18.1875V18.125L46.6875 17.9062L46.25 17.5312L45.6875 17.125L45.0938 16.75L44.5312 16.4375L43.7812 16.0938L42.9062 15.7812L42.1562 15.5938L41.4062 15.4688L40.5938 15.4062L39.5 15.375H24.7188ZM19.5312 58.5938L19.4375 58.625V62.0938H44.5312V58.5938H19.5312Z" fill="#1B1B1B"/>
<path d="M31.8438 29.6875H32.125L32.4688 29.8125L32.9062 30.125L33.3438 30.4688L33.9688 31.0312L34.5312 31.5938L34.8125 31.9375L35.125 32.2812L35.4375 32.6875L35.9688 33.4688L36.2812 33.9375L36.6562 34.5938L37 35.2812L37.375 36.1875L37.75 37.3125L37.9688 38.2188L38.125 39.0625L38.25 40.0938L38.3438 41.0625V42.0312L38.2188 42.8125L38.0312 43.4688L37.8438 43.9688L37.4688 44.6562L37.1875 45.125L36.9375 45.4062L36.6875 45.7188L36.4062 46.0312L36 46.375L35.5 46.75L34.8125 47.125L34.3125 47.375L33.75 47.5625L33.0625 47.7188L32.5938 47.7812L31.9062 47.8125L30.9375 47.7188L30.4062 47.5938L29.6875 47.375L28.7812 46.9375L28.25 46.5625L27.8438 46.25L27.1562 45.5625L26.8438 45.1562L26.4375 44.5312L26.125 43.875L25.9375 43.375L25.7188 42.4688L25.625 41.75V40.375L25.7188 39.4688L25.9688 38.1562L26.375 36.8438L26.625 36.2188L27.0625 35.25L27.5625 34.4062L27.8125 34L28.0312 33.7188L28.1875 33.5938L28.5938 33.4688L28.9375 33.5L29.25 33.6562L29.5625 33.9375L29.7812 34.1562H29.8438L30.2812 33.375L30.5625 32.75L30.8125 31.9375L30.9375 31.2812L31.0625 30.4062L31.1875 30.125L31.4062 29.875L31.7188 29.7188L31.8438 29.6875ZM32.6562 32.4688L32.4062 33.2812L32.125 33.9375L31.75 34.6562L31.4062 35.25L30.9688 35.8438L30.625 36.25L30.375 36.4375L30.0312 36.5625H29.7812L29.4375 36.4375L29.1875 36.25L28.9062 35.9688H28.8438L28.375 36.9688L28.0938 37.7188L27.875 38.4375L27.6875 39.3125L27.5938 39.9062L27.5312 41V41.625L27.625 42.2812L27.7812 42.875L28.0625 43.5312L28.3438 44L28.5938 44.3125L29.0312 44.7812L29.5312 45.1562L29.9688 45.4062L30.375 45.5938L30.875 45.75L31.2812 45.8438L31.5938 45.875H32.375L33.0312 45.7812L33.75 45.5312L34.4062 45.1875L34.7812 44.9062L35.0938 44.625L35.25 44.4688L35.5312 44.1562L35.75 43.8438L35.9688 43.4688L36.125 43.125L36.3438 42.4062L36.4375 41.6875V41.1875L36.2812 39.7188L36.1562 38.875L35.875 37.7188L35.5625 36.8125L35.25 36.0625L35 35.5312L34.5938 34.8125L34.25 34.2812L33.9375 33.8438L33.625 33.4375L33.3438 33.125L33.125 32.875L32.7188 32.4688H32.6562Z" fill="#1B1B1B"/>
<path d="M44.0625 24.2812H46.9062L47.1875 24.3438L47.5 24.5312L47.7188 24.8438L47.8125 25.1562L47.7812 25.4688L47.5938 25.8438L47.3438 26.0625L47.0938 26.1562L46.9375 26.1875H44.0312L43.7188 26.0938L43.4688 25.9062L43.2812 25.625L43.2188 25.4375V25.0312L43.3438 24.75L43.5 24.5312L43.8125 24.3438L44.0625 24.2812Z" fill="#1B1B1B"/>
<path d="M16.9688 51.3125H20L20.2812 51.4062L20.5625 51.625L20.75 51.9375L20.7812 52.0625V52.4375L20.6562 52.75L20.4375 53L20.125 53.1562L20 53.1875L19.5938 53.2188H17.1562L16.8125 53.1562L16.5625 53L16.4062 52.8438L16.25 52.5938L16.1875 52.375V52.1562L16.2812 51.8438L16.4688 51.5625L16.75 51.375L16.9688 51.3125Z" fill="#1B1B1B"/>
</svg>
