<svg width="30" height="30" viewBox="0 0 30 30" fill="none" xmlns="http://www.w3.org/2000/svg">
<g clip-path="url(#clip0_206_921)">
<path d="M14.8096 0H29.6045V0.0292969L29.6924 0.0585938L29.8096 0.146484L29.9414 0.292969L30 0.410156V29.6191L29.9561 29.6631L29.8682 29.7949L29.7363 29.9121L29.5752 30H11.3379L11.1035 29.9414L10.7812 29.8535L10.5469 29.7656L10.2246 29.6045L10.0049 29.458L9.7998 29.2969L9.63867 29.1504L9.47754 29.0186L9.31641 28.8721L9.19922 28.7695L9.11133 28.6963L9.03809 28.8574L8.97949 29.0039L8.8916 29.165L8.74512 29.3701L8.59863 29.5312L8.39355 29.6924L8.18848 29.8096L7.99805 29.8975L7.67578 30H1.3916V29.9707L1.09863 29.8828L0.864258 29.7656L0.673828 29.6338L0.527344 29.502L0.380859 29.3555L0.234375 29.1357L0.117188 28.9014L0.0439453 28.6963L0 28.5352V18.3691L0.0439453 18.2373L0.131836 17.9883L0.263672 17.7393L0.380859 17.5781L0.512695 17.4316L0.673828 17.2852L0.893555 17.1387L1.11328 17.0361L1.4209 16.9482L1.74316 16.9189H7.33887L7.70508 16.9482L7.93945 17.0068L8.20312 17.124L8.42285 17.2559L8.64258 17.4463L8.78906 17.6074L8.80371 17.666L8.8623 17.6514L11.2939 15.2197L11.2646 15.0439L11.0156 14.1211L10.6787 12.8613L10.459 12.041L10.1953 11.0596L9.59473 8.81836L9.03809 6.73828L8.71582 5.53711L8.4375 4.49707L8.4082 4.29199L8.45215 4.10156L8.51074 3.98438L8.62793 3.85254L8.77441 3.76465L9.00879 3.69141L10.4297 3.31055L11.1475 3.12012L11.8506 2.92969L13.3301 2.53418L14.209 2.2998L14.3994 2.25586V0.556641L14.4287 0.395508L14.5312 0.205078L14.6631 0.0878906L14.7949 0.0146484L14.8096 0ZM15.6006 1.17188L15.5859 1.4502V17.5635L16.6699 17.5781L16.7139 17.5635L16.7285 5.87402L16.7725 5.69824L16.8311 5.58105L16.9336 5.46387L17.0801 5.37598L17.2559 5.33203L17.6514 5.28809L17.959 5.18555L18.1934 5.05371L18.3984 4.89258L18.5156 4.77539L18.6768 4.54102L18.7646 4.36523L18.8379 4.14551L18.8818 3.89648L18.8965 3.69141L18.9404 3.51562L19.043 3.35449L19.1748 3.25195L19.292 3.19336L19.4824 3.16406H24.8877L25.1074 3.19336L25.2832 3.28125L25.3564 3.33984L25.459 3.50098L25.5029 3.63281L25.5469 4.04297L25.6201 4.30664L25.7373 4.54102L25.8398 4.70215L26.0156 4.89258L26.1475 5.00977L26.3379 5.12695L26.5576 5.22949L26.7627 5.28809L26.9385 5.31738L27.2314 5.34668L27.3779 5.40527L27.4658 5.46387L27.5391 5.53711L27.627 5.66895L27.6709 5.80078V8.36426L27.6123 8.52539L27.5244 8.65723L27.4219 8.74512L27.2461 8.81836L27.1729 8.83301H27.0117L26.8506 8.78906L26.7188 8.70117L26.6016 8.56934L26.543 8.45215L26.5137 8.33496L26.499 6.44531L26.0742 6.29883L25.708 6.12305L25.4883 5.97656L25.3418 5.85938L25.1953 5.72754L25.0195 5.55176L24.8584 5.34668L24.6826 5.06836L24.5508 4.79004L24.4336 4.43848L24.4043 4.33594H20.0098L19.9805 4.42383L19.8779 4.74609L19.7314 5.06836L19.5557 5.34668L19.3506 5.5957L19.1309 5.81543L18.9258 5.97656L18.6914 6.12305L18.4717 6.24023L18.1641 6.35742L17.9297 6.43066L17.915 6.44531L17.9004 8.64258V11.5869L17.915 17.5635H21.0352L21.0205 17.5342L20.7861 17.417L20.6104 17.2998L20.4346 17.168L20.2588 17.0068L20.0684 16.8164L19.8926 16.582L19.7168 16.2891L19.6143 16.0693L19.4971 15.7178L19.4385 15.4541L19.4092 15.2344V14.7803L19.4531 14.4727L19.5117 14.2236L19.6143 13.9307L19.7607 13.623L19.8926 13.418L20.0244 13.2422L20.1562 13.0957L20.2588 12.9785L20.4199 12.832L20.6836 12.6416L20.9326 12.4951L21.167 12.3926L21.5186 12.2754L21.8408 12.2168L21.9873 12.2021H22.4268L22.749 12.2461L23.042 12.3193L23.3496 12.4365L23.6572 12.5977L23.8477 12.7295L24.0381 12.876L24.2432 13.0664L24.3457 13.1836L24.5215 13.418L24.6533 13.6377L24.7705 13.8721L24.8877 14.1797L24.9609 14.4873L24.9902 14.6777L25.0049 14.8535V15.1611L24.9756 15.4248L24.917 15.7178L24.8145 16.0254L24.6973 16.2891L24.5801 16.4941L24.4336 16.6992L24.3018 16.8604L24.2578 16.9043V16.9336L24.1992 16.9629V16.9922L24.1406 17.0215L24.0381 17.124L23.8037 17.2998L23.54 17.4609L23.3643 17.5488V17.5635L24.2725 17.5781L24.5947 17.6074L24.8438 17.666L25.1367 17.7832L25.3857 17.9297L25.5469 18.0615L25.708 18.208L25.8691 18.4131L26.001 18.6182L26.1182 18.8818L26.2061 19.1895L26.2354 19.4092V19.7168L26.1914 19.9951L26.1182 20.2588L26.0742 20.376L26.4258 20.4199H26.499L26.5137 13.6963L26.5723 13.5059L26.6895 13.3447L26.8359 13.2422L26.9678 13.1982H27.2168L27.3779 13.2568L27.4951 13.3447L27.583 13.4473L27.6562 13.5938L27.6709 13.6523L27.6855 21.1816L27.8467 21.46L27.9492 21.6797L28.0225 21.9287L28.0664 22.207V22.5439L28.0371 22.7783L27.9639 23.042L27.8467 23.3057L27.7441 23.4814L27.6123 23.6572L27.4805 23.8037L27.334 23.9355L27.1143 24.082L26.8799 24.1992L26.6309 24.3018L26.6455 24.375L26.7334 24.6094L26.8066 24.9316L26.8213 25.2539L26.792 25.5322L26.7334 25.7812L26.6162 26.0742L26.499 26.2793L26.3818 26.4404L26.25 26.5869L26.1328 26.7041L25.9131 26.8652L25.708 26.9824L25.4443 27.085L25.1221 27.1582L24.7559 27.1875L24.668 27.2021L24.6826 27.2754L24.7559 27.4951L24.8145 27.8174V28.1982L24.7412 28.5645L24.6533 28.8135L28.7695 28.8281L28.8135 28.8135V1.17188H15.6006ZM14.3701 3.48633L10.0928 4.62891L9.75586 4.7168L9.74121 4.77539L10.21 6.5332L10.4736 7.51465L10.6934 8.33496L11.0156 9.53613L11.4111 11.0156L11.6748 11.9971L11.9531 13.0371L12.334 14.458L12.4658 14.9268L12.583 15.2344L12.8174 16.1426L13.1543 17.4609L13.1836 17.5635H14.3408L14.3262 17.4609L14.0039 16.2598L13.7549 15.3369L13.5205 14.4727L12.8174 11.8652L12.5391 10.8398L12.1729 9.47754L12.0703 9.08203L12.0557 8.9209L12.0996 8.74512L12.1729 8.61328L12.2461 8.54004L12.3633 8.45215L12.627 8.34961L12.9053 8.21777L13.0664 8.10059L13.2129 7.96875L13.3447 7.82227L13.4766 7.61719L13.5791 7.36816L13.6377 7.11914L13.6523 7.00195V6.76758L13.5938 6.40137V6.22559L13.6377 6.0791L13.7256 5.93262L13.8428 5.83008L13.9893 5.75684L14.3701 5.6543L14.3994 5.63965V3.48633H14.3701ZM14.3848 8.37891L14.209 8.61328L14.0771 8.75977V8.78906H14.0479L13.96 8.8916L13.7549 9.05273L13.5791 9.18457L13.3594 9.31641L13.374 9.43359L13.6523 10.459L13.9453 11.543L14.209 12.5244L14.3555 13.0664L14.3848 13.1689H14.3994V8.37891H14.3848ZM22.0605 13.374L21.7969 13.418L21.5771 13.4912L21.3721 13.5938L21.2109 13.7109L21.0645 13.8428L20.9326 13.9746L20.8008 14.1797L20.6836 14.4141L20.6104 14.6631L20.5811 14.8828V15.1318L20.625 15.3955L20.6982 15.6152L20.8154 15.8496L20.9619 16.0547L21.1523 16.2451L21.3574 16.3916L21.5918 16.5088L21.8262 16.582L22.1338 16.626H22.2803L22.5293 16.5967L22.7637 16.5234L22.998 16.4209L23.1738 16.3037L23.335 16.1719L23.4375 16.0693L23.6133 15.8203L23.7158 15.6152L23.7891 15.3809L23.833 15.0732V14.9268L23.7891 14.6191L23.7012 14.3555L23.5986 14.1504L23.4521 13.9453L23.3496 13.8281L23.1885 13.6963L22.9834 13.5645L22.749 13.4619L22.5439 13.4033L22.3389 13.374H22.0605ZM11.6895 16.5088L9.15527 19.043L9.14062 19.7461V27.0996L9.16992 27.1875L9.33105 27.3193L9.49219 27.4658L9.65332 27.5977L9.81445 27.7441L9.97559 27.876L10.166 28.0518L10.3271 28.1836L10.5176 28.3594L10.708 28.5059L10.9277 28.6377L11.1328 28.7256L11.3672 28.7842L11.5723 28.8135H22.9248L23.1152 28.7695L23.3057 28.667L23.4521 28.5352L23.5547 28.3887L23.6279 28.1836L23.6426 28.0811V27.9346L23.5986 27.7295L23.4961 27.5244L23.3789 27.3926L23.2178 27.29L23.042 27.2168L22.8223 27.1875L18.252 27.1729L18.0615 27.1143L17.9297 27.0117L17.8271 26.8652L17.7686 26.7041V26.499L17.8271 26.3232L17.9297 26.1914L18.0176 26.1182L18.1641 26.0449L18.3252 26.0156L24.917 26.001L25.0781 25.9717L25.2832 25.8691L25.4297 25.752L25.5469 25.5908L25.6201 25.4004L25.6348 25.3271V25.0635L25.5762 24.8584L25.4883 24.7119L25.3564 24.5654L25.1953 24.4629L25.0488 24.4043L24.8145 24.375L18.252 24.3604L18.0615 24.3018L17.9297 24.1992L17.8271 24.0527L17.7686 23.8916V23.6865L17.8271 23.5107L17.9297 23.3789L18.0176 23.3057L18.1641 23.2324L18.3252 23.2031L26.1914 23.1885L26.4111 23.1299L26.5576 23.042L26.7041 22.9102L26.8066 22.7637L26.8652 22.6025L26.8945 22.4561V22.2949L26.8652 22.1484L26.792 21.9727L26.6455 21.7822L26.5283 21.6943L26.3525 21.6064L26.2207 21.5771L26.0889 21.5625L18.252 21.5479L18.0615 21.4893L17.9297 21.3867L17.8271 21.2402L17.7686 21.0791V20.874L17.8271 20.6982L17.9297 20.5664L18.0176 20.4932L18.1641 20.4199L18.3398 20.3906L24.3457 20.376L24.5361 20.332L24.7266 20.2295L24.873 20.0977L24.9756 19.9365L25.0342 19.79L25.0635 19.6289L25.0488 19.4092L24.9902 19.2334L24.9023 19.0723L24.7412 18.9111L24.5801 18.8232L24.4629 18.7793L24.2578 18.75L12.6416 18.7354L12.4805 18.6914L12.3486 18.6035L12.2461 18.4863L12.1729 18.3398L12.0557 17.9004L11.748 16.6846L11.7041 16.5088H11.6895ZM1.74316 18.1055L1.56738 18.1348L1.4502 18.1934L1.30371 18.3252L1.23047 18.4424L1.18652 18.5889L1.17188 18.8525V28.1982L1.20117 28.418L1.28906 28.5938L1.3916 28.6963L1.52344 28.7695L1.66992 28.8135H7.45605L7.61719 28.7695L7.76367 28.6816L7.86621 28.5645L7.9248 28.4473L7.9541 28.3301V18.5889L7.89551 18.4131L7.80762 18.2812L7.69043 18.1934L7.55859 18.1348L7.39746 18.1055H5.1709L5.15625 18.5303V22.7197L5.1416 24.9609L5.08301 25.1367L4.98047 25.2686L4.86328 25.3564L4.7168 25.415L4.62891 25.4297H4.48242L4.29199 25.3711L4.16016 25.2686L4.08691 25.1807L4.01367 25.0342L3.98438 24.8291L3.96973 18.1055H1.74316Z" fill="#EBA52F"/>
<path d="M26.9678 10.5469H27.2168L27.3779 10.6055L27.4951 10.6934L27.5977 10.8105L27.6709 10.957L27.6855 11.0156V11.2354L27.6416 11.3672L27.5537 11.5137L27.4219 11.6309L27.3047 11.6895L27.1875 11.7188H26.9824L26.8213 11.6602L26.6895 11.5723L26.5723 11.4111L26.5137 11.2793L26.499 11.2207V11.0596L26.5576 10.8691L26.6748 10.708L26.8066 10.6055L26.9678 10.5469Z" fill="#EBA52F"/>
<path d="M4.43848 26.4844H4.70215L4.84863 26.543L4.96582 26.6309L5.08301 26.7627L5.15625 26.9385V27.1875L5.09766 27.3486L4.99512 27.4805L4.89258 27.5684L4.77539 27.627L4.6582 27.6562H4.48242L4.35059 27.627L4.2041 27.5391L4.08691 27.4219L3.99902 27.2461L3.98438 27.2021V26.9385L4.05762 26.7627L4.14551 26.6455L4.27734 26.543L4.43848 26.4844Z" fill="#EBA52F"/>
</g>
<defs>
<clipPath id="clip0_206_921">
<rect width="30" height="30" fill="white"/>
</clipPath>
</defs>
</svg>
