<svg width="80" height="80" viewBox="0 0 80 80" fill="none" xmlns="http://www.w3.org/2000/svg">
<g clip-path="url(#clip0_206_949)">
<path d="M39.0625 0H40.5859L41.6406 0.234375L42.3047 0.429688L43.3594 0.859375L44.1797 1.25L44.9219 1.64062L46.0547 2.26562L47.3828 2.96875L48.3203 3.39844L49.2969 3.75L50.0781 3.94531L51.1328 4.10156L51.9922 4.17969L52.7344 4.21875L55.0781 4.29688L56.7969 4.41406L57.9688 4.60938L58.9062 4.88281L59.6875 5.23438L60.3125 5.625L60.7422 5.97656L61.1328 6.32812L61.6406 6.83594L62.0703 7.38281L62.4609 7.89062L62.9688 8.67188L63.4375 9.41406L63.9062 10.1953L64.4141 11.0156L64.8438 11.6797L65.3125 12.3438L65.7031 12.8516L66.1328 13.3203L66.4062 13.6328L66.7969 13.9844L67.3438 14.4141L68.0078 14.8828L68.6719 15.3125L69.6094 15.8984L70.3906 16.3672L71.1328 16.8359L71.7188 17.2266L72.2656 17.6172L72.6562 17.9297L73.2031 18.3984L73.7891 18.9844L74.2969 19.6484L74.6484 20.2734L74.9609 20.9766L75.1953 21.7969L75.3516 22.5781L75.4688 23.6328L75.5469 25.0391L75.625 27.4219L75.7031 28.4766L75.8594 29.6094L76.0938 30.5859L76.3672 31.3672L76.7578 32.2656L77.1484 33.0078L77.5781 33.8281L78.0859 34.7266L78.9062 36.3281L79.2969 37.2656L79.5312 37.9688L79.7266 38.7109L79.8438 39.2969V40.7031L79.6094 41.7578L79.2188 42.9297L78.7891 43.9062L78.3984 44.6484L77.8906 45.625L77.5 46.3281L77.0312 47.2266L76.7188 47.8516L76.3672 48.6328L76.0156 49.6875L75.7812 50.8203L75.6641 51.9141L75.5859 53.6719L75.5469 55.1172L75.4297 56.8359L75.2344 58.0469L75 58.8672L74.6875 59.6484L74.3359 60.2734L73.9844 60.7422L73.5547 61.25L73.0859 61.7188L72.6562 62.0703L72.1484 62.4609L71.0938 63.1641L70.1562 63.75L69.5703 64.1016L68.6328 64.6875L67.6953 65.3125L67.0312 65.8203L66.6797 66.1328H66.6016V66.2109L66.4062 66.3672L66.3672 66.4453H66.2891L66.2109 66.6016L65.8203 67.0312L65.3125 67.6953L64.9219 68.2422L64.4922 68.9062L63.8672 69.9219L63.3203 70.8203L62.6953 71.7969L62.1875 72.5L61.875 72.8906L61.4844 73.3203L61.2109 73.6328L60.7422 74.0625L60.1562 74.4922L59.4531 74.8828L58.7891 75.1562L57.9688 75.3906L56.8359 75.5859L55.3125 75.7031L54.5312 75.7422L51.9531 75.8203L50.5469 75.9766L49.6094 76.1719L48.8281 76.4062L47.8906 76.7969L47.0703 77.1875L46.2109 77.6562L44.2578 78.7109L43.2031 79.2188L42.3047 79.5703L41.4062 79.8438L40.7812 80H38.8672L37.6172 79.6484L36.8359 79.375L35.8984 78.9453L34.8828 78.4375L33.0859 77.4609L32.0312 76.9141L31.0547 76.4844L30.1953 76.2109L29.4922 76.0547L28.8281 75.9375L27.6562 75.8203L26.6797 75.7812L25 75.7422L23.7109 75.6641L22.7344 75.5859L21.6797 75.3906L21.0156 75.1953L20.3906 74.9609L19.6484 74.5703L19.1016 74.1797L18.6328 73.75L18.3203 73.4766L17.8906 73.0078L17.3828 72.3438L16.9922 71.7969L16.5625 71.1328L16.0547 70.3125L15.5078 69.4141L15.0391 68.6719L14.5703 67.9688L14.1016 67.3438L13.75 66.9141L13.3203 66.4453L12.8125 65.9766L12.1484 65.4688L11.4844 65L10.7422 64.5312L9.92188 64.0234L9.02344 63.4766L8.24219 62.9688L7.77344 62.6562L7.03125 62.1094L6.52344 61.6406L6.17188 61.3281L5.89844 61.0156L5.50781 60.5469L5.15625 60L4.84375 59.375L4.57031 58.6328L4.375 57.8516L4.21875 56.8359L4.10156 55.1562L4.0625 54.1016L4.02344 52.3438L3.86719 50.8594L3.67188 49.8047L3.39844 48.9453L3.16406 48.3594L2.73438 47.4219L2.03125 46.0938L1.5625 45.2344L0.976562 44.1406L0.625 43.3984L0.3125 42.6172L0 41.6016L-0.15625 41.0156V38.9844L0.15625 37.8125L0.507812 36.875L0.976562 35.8594L1.28906 35.2734L1.5625 34.7266L1.99219 33.9844L2.26562 33.4375L2.73438 32.5781L3.20312 31.5625L3.55469 30.5859L3.78906 29.6094L3.90625 28.8281L4.02344 27.6562L4.10156 24.6875L4.25781 22.7734L4.45312 21.7578L4.64844 21.0938L4.96094 20.3516L5.23438 19.8438L5.625 19.2969L6.05469 18.7891L6.67969 18.1641L7.10938 17.8125L7.85156 17.2656L8.51562 16.8359L9.25781 16.3672L10.1562 15.8203L11.0938 15.2344L11.9141 14.6875L12.5391 14.2188L13.0859 13.75L13.5938 13.2812L13.9453 12.8906L14.375 12.3438L14.9609 11.4844L15.9375 9.92188L16.2891 9.33594L16.9141 8.35938L17.3438 7.73438L17.7344 7.22656L18.1641 6.71875L18.8281 6.05469L19.375 5.625L20.0781 5.19531L20.7031 4.92188L21.4062 4.6875L22.3438 4.49219L23.2422 4.375L24.5703 4.29688L27.6562 4.17969L28.9062 4.0625L29.9219 3.86719L30.8594 3.59375L31.6406 3.28125L32.8516 2.69531L33.7109 2.22656L34.6484 1.71875L36.1328 0.9375L37.0703 0.546875L38.0078 0.234375L39.0625 0Z" fill="#FDCF09"/>
<path d="M38.6719 11.6406H41.2891L42.8516 11.7578L44.1406 11.9141L45.5078 12.1484L46.9141 12.4609L48.2031 12.8125L49.6094 13.2812L50.5469 13.6328L51.7188 14.1406L52.6953 14.6094L53.5547 15.0391L54.4922 15.5859L55.1953 16.0156L56.1328 16.6406L56.5625 16.9531L57.1094 17.3438L57.6562 17.7734L58.5156 18.4766L59.0234 18.9453L59.4922 19.375L60 19.8438L60.5078 20.3516L60.7812 20.6641L60.9766 20.8594V20.9375L61.0938 20.9766L61.3672 21.2891L61.7188 21.6797L62.1484 22.2266L62.6172 22.8125L62.9297 23.2422L63.3984 23.9062L63.7109 24.375L64.0625 24.9219L64.5312 25.6641L64.7656 26.0938L65 26.4844L65.7812 28.0469L66.1328 28.8672L66.4453 29.6484L66.875 30.8203L67.3047 32.2266L67.6172 33.4375L67.8906 34.7266L68.125 36.25L68.2812 37.6953L68.3594 39.4531V40.8984L68.2812 42.4609L68.0859 44.1406L67.8906 45.2734L67.6562 46.4453L67.2656 47.9297L66.8359 49.2969L66.4844 50.2344L65.9766 51.4844L65.3125 52.8516L64.8047 53.8281L64.2969 54.6875L63.8281 55.4297L63.5156 55.8984L63.0859 56.5234L62.7344 56.9922L62.1875 57.6953L61.8359 58.125L61.3672 58.6719L60.9766 59.1016L60.7031 59.4141L60.3516 59.7656L60.1172 60.0391H60L59.7266 59.7266L57.3438 57.3438V57.2266L57.1484 57.1484L56.7578 56.7578V56.6797H56.6797L56.4844 56.4453L55.8203 55.7812L55.5859 55.5859L55.4297 55.3906V55.3125L55.2734 55.2344V55.1562L55.1172 55.0781V55L54.9609 54.9219L54.6094 54.6094V54.5312L54.4531 54.4531L54.4141 54.3359L54.2578 54.2578L54.1406 54.1406V54.0625L53.9844 53.9844L53.75 53.7109L53.5547 53.5156V53.4375L53.3984 53.3594L53.0469 53.0469L52.8516 52.8516L52.6172 52.8906L52.2266 53.2422L51.6406 53.6719L50.9375 54.0625L50.3516 54.3359L49.6484 54.5703L48.6719 54.7656L48.3594 54.8047H47.0703L46.1328 54.6484L45.4297 54.4531L44.6875 54.1406L44.1016 53.8281L43.6328 53.5156L43.2812 53.2422L42.8906 52.8906L42.6172 52.6562L42.3438 52.3438L41.9531 51.8359L41.6016 51.2891L41.2109 50.5469L40.8984 49.6094L40.7031 48.6719L40.6641 48.3594V47.1094L40.7812 46.3281L40.9766 45.5859L41.2891 44.7656L41.6406 44.1016L41.9531 43.6328L42.3828 43.0859L42.6953 42.7344L42.7344 42.6172L42.5781 42.5391L42.4219 42.3828V42.3047L42.2656 42.2266L41.7188 41.7188L41.6016 41.5234L41.5234 41.4844V41.4062L41.2109 41.5234L29.6875 53.0469L29.2969 53.3203L28.8672 53.4766L28.6719 53.5156H28.0469L27.5781 53.3594L27.1875 53.125L26.8359 52.7734L26.5234 52.1484L26.4453 51.7969L26.4844 51.25L26.6016 50.8594L26.875 50.3906L38.5938 38.6719L38.5547 38.5156L38.0859 38.0469V37.9688L37.9297 37.8906V37.8125L37.7734 37.7734V37.6953L37.6562 37.6562L37.5 37.4609V37.3438H37.2656L36.9531 37.5781L36.3672 38.0469L35.7422 38.4375L35.1172 38.75L34.5312 38.9844L33.5938 39.2188L32.6953 39.3359H31.8359L30.8984 39.2188L30.1172 39.0234L29.4922 38.7891L28.8672 38.4766L28.3984 38.2031L27.8516 37.8125L27.3828 37.3828L27.1484 37.1875L26.875 36.875L26.4453 36.3281L26.0156 35.625L25.7031 35L25.3906 34.0625L25.2344 33.2812L25.1953 32.9688V31.4844L25.3125 30.7812L25.5469 29.9609L25.7812 29.3359L26.1719 28.5938L26.6016 27.9688L26.9531 27.5391L27.2656 27.1875L27.3047 27.1094L27.1484 27.0703L26.8359 26.7969L26.6406 26.6406L26.4453 26.4453L26.2109 26.1719L25.9766 25.9766L25.7422 25.7031L25.4297 25.4297L25.2344 25.1953L25.1172 25.1172V25.0391L24.9609 24.9609V24.8828L24.8047 24.8047V24.7266L24.6484 24.6484V24.5703L24.4922 24.4922L23.3984 23.3984V23.3203L23.2422 23.2422L22.8125 22.8516L22.7344 22.7344L22.5781 22.7734L22.4219 22.8906L22.5 22.6953L22.5781 22.6172L22.3047 22.3047L20.0781 20.0781L19.9219 19.9609L19.9609 19.8438L20.2734 19.5703L20.6641 19.2188L21.1719 18.75L21.6016 18.3984L22.1484 17.9297L23.3203 17.0312L24.0625 16.5234L24.7656 16.0547L25.2734 15.7422L25.9375 15.3516L26.7969 14.8828L27.7734 14.375L28.9844 13.8281L30.3906 13.2812L31.8359 12.8125L32.7734 12.5391L34.3359 12.1875L35.8203 11.9141L37.0703 11.7578L38.6719 11.6406Z" fill="#FC541B"/>
<path d="M13.4375 13.5938L13.7109 13.6328L14.0625 14.0234L14.375 14.3359L14.6094 14.5312L14.8828 14.8438L15.0781 15L15.2734 15.1953V15.2734H15.3516V15.3516H15.4297V15.4297H15.5078L15.7812 15.7422L19.6875 19.6484L19.8047 19.8047H20L19.9219 20L19.7266 20.0781L19.2188 20.5859L19.1797 20.6641H19.1016L19.0234 20.8203L18.5547 21.3281L18.2031 21.7578L17.8516 22.1484L17.4609 22.6562L16.9922 23.2812L16.3672 24.1797L15.8984 24.9219L15.4297 25.7031L15.0781 26.3281L14.4922 27.4609L13.9844 28.5156L13.5547 29.5703L13.2031 30.5078L12.8516 31.6016L12.5 32.8516L12.1875 34.1406L11.9141 35.625L11.7188 37.1094L11.6016 38.5156L11.5625 39.375V40.8594L11.6797 42.3828L11.8359 43.75L12.0703 45.1562L12.3438 46.4844L12.7734 48.0859L13.2422 49.4922L13.6328 50.5469L14.1406 51.7188L14.5703 52.6562L14.9609 53.3594L15.1953 53.8281L15.8984 55L16.6016 56.0547V56.1328H16.6797L16.9141 56.5234L17.2266 56.9141L17.6172 57.4219L17.8516 57.7344V57.8125L17.9688 57.8516L18.3984 58.3984L18.6328 58.6719V58.75L18.7891 58.8281V58.9062L18.9062 58.9453L19.1016 59.1797V59.2578L19.2188 59.2969L19.4922 59.6094L19.6875 59.8047L19.9609 60.1172L20.1953 60.3125L20.3906 60.5078V60.5859L20.5469 60.6641L20.8203 60.9375L21.1328 61.2109L21.4062 61.4062L21.6016 61.6016L21.9531 61.9141L22.3828 62.2266V62.3047L22.5781 62.3828L22.8125 62.5391L23.0078 62.7344L23.4375 63.0078L23.5547 63.125L23.6328 63.1641V63.2422L23.8281 63.3203L24.2188 63.5938L24.5703 63.8281L25 64.1016L25.3516 64.3359L25.6641 64.4922L26.1719 64.8047L27.3047 65.3906L28.3203 65.8984L28.75 66.0547L29.2578 66.2891L30.3906 66.7188L31.7969 67.1875L32.8125 67.4609L33.75 67.6953L34.8828 67.9297L36.1328 68.125L36.9531 68.2422L38.5938 68.3984H41.1328L42.9297 68.2422L44.1016 68.0859L45.2344 67.8906L45.8594 67.7734L47.0312 67.5L47.8906 67.2656L48.7891 66.9922L49.5703 66.7188L50.8594 66.2109L51.6797 65.8594L52.9297 65.2734L53.7891 64.8047L54.3359 64.4922L54.6875 64.2578L54.9219 64.1406L55.5469 63.75H55.625V63.6719L56.0156 63.4375L56.4453 63.125L57.1484 62.6172L57.8125 62.0703L58.3594 61.6406L58.7891 61.25L59.2188 60.8984L59.6094 60.5078L60 60.1953L60.0391 60.0781H60.1172L60.3125 60.3125L60.625 60.5859L64.7266 64.6875V64.7656L64.8828 64.8438V64.9219L65.0391 65L65.8203 65.7812V65.8594H65.8984L66.1328 66.1328L66.3281 66.3281L66.4062 66.5625L65.9766 67.0312L65.4688 67.6953L65.0781 68.2422L64.6484 68.9062L64.0234 69.9219L63.4766 70.8203L62.8516 71.7969L62.3438 72.5L62.0312 72.8906L61.6406 73.3203L61.3672 73.6328L60.8984 74.0625L60.3125 74.4922L59.6094 74.8828L58.9453 75.1562L58.125 75.3906L56.9922 75.5859L55.4688 75.7031L54.6875 75.7422L52.1094 75.8203L50.7031 75.9766L49.7656 76.1719L48.9844 76.4062L48.0469 76.7969L47.2266 77.1875L46.3672 77.6562L44.4141 78.7109L43.3594 79.2188L42.4609 79.5703L41.5625 79.8438L40.9375 80H39.0234L37.7734 79.6484L36.9922 79.375L36.0547 78.9453L35.0391 78.4375L33.2422 77.4609L32.1875 76.9141L31.2109 76.4844L30.3516 76.2109L29.6484 76.0547L28.9844 75.9375L27.8125 75.8203L26.8359 75.7812L25.1562 75.7422L23.8672 75.6641L22.8906 75.5859L21.8359 75.3906L21.1719 75.1953L20.5469 74.9609L19.8047 74.5703L19.2578 74.1797L18.7891 73.75L18.4766 73.4766L18.0469 73.0078L17.5391 72.3438L17.1484 71.7969L16.7188 71.1328L16.2109 70.3125L15.6641 69.4141L15.1953 68.6719L14.7266 67.9688L14.2578 67.3438L13.9062 66.9141L13.4766 66.4453L12.9688 65.9766L12.3047 65.4688L11.6406 65L10.8984 64.5312L10.0781 64.0234L9.17969 63.4766L8.39844 62.9688L7.92969 62.6562L7.1875 62.1094L6.67969 61.6406L6.32812 61.3281L6.05469 61.0156L5.66406 60.5469L5.3125 60L5 59.375L4.72656 58.6328L4.53125 57.8516L4.375 56.8359L4.25781 55.1562L4.21875 54.1016L4.17969 52.3438L4.02344 50.8594L3.82812 49.8047L3.55469 48.9453L3.32031 48.3594L2.89062 47.4219L2.1875 46.0938L1.71875 45.2344L1.13281 44.1406L0.78125 43.3984L0.46875 42.6172L0.15625 41.6016L0 41.0156V38.9844L0.3125 37.8125L0.664062 36.875L1.13281 35.8594L1.44531 35.2734L1.71875 34.7266L2.14844 33.9844L2.42188 33.4375L2.89062 32.5781L3.35938 31.5625L3.71094 30.5859L3.94531 29.6094L4.0625 28.8281L4.17969 27.6562L4.25781 24.6875L4.41406 22.7734L4.60938 21.7578L4.80469 21.0938L5.11719 20.3516L5.39062 19.8438L5.78125 19.2969L6.21094 18.7891L6.83594 18.1641L7.26562 17.8125L8.00781 17.2656L8.67188 16.8359L9.41406 16.3672L10.3125 15.8203L11.25 15.2344L12.0703 14.6875L12.6953 14.2188L13.2422 13.75L13.4375 13.5938Z" fill="#FD9604"/>
<path d="M22.6172 22.6953L22.7734 22.7344L22.9297 22.9297L23.2422 23.2031L24.5703 24.5312L24.8047 24.7266L25.0391 25L25.2734 25.1953L25.5078 25.4688L25.6641 25.5859V25.6641L25.8203 25.7422L25.9766 25.8984V25.9766L26.0938 26.0156L26.2891 26.25L26.6016 26.5234L26.6406 26.6406L26.7969 26.7188L27.0703 26.9922L27.3047 27.1094L27.2266 27.2656L26.9531 27.5781L26.5234 28.125L26.1328 28.7109L25.7031 29.6094L25.4688 30.3125L25.3125 30.9375L25.2344 31.4844V32.9688L25.3906 33.9062L25.6641 34.8047L25.9375 35.4297L26.3281 36.0938L26.6406 36.5234L26.9531 36.9141L27.3047 37.3047L27.6172 37.5781L28.2031 38.0469L28.7891 38.3984L29.4141 38.7109L30 38.9453L30.7031 39.1406L31.4062 39.2578L31.8359 39.2969H32.6953L33.5938 39.1797L34.5312 38.9453L35.3906 38.5938L36.0156 38.2422L36.5625 37.8516L36.9922 37.5L37.2656 37.3047L37.5 37.3438L37.6172 37.5391L37.7734 37.6953V37.7734L37.9297 37.8125L38.2031 38.125V38.2031L38.3594 38.2812L38.6328 38.5547L38.5938 38.7109L26.9141 50.3906L26.6016 50.9375L26.4844 51.5234V51.7969L26.6016 52.2266L26.875 52.7734L27.2266 53.125L27.7734 53.3984L28.0469 53.4766H28.6719L29.2188 53.3203L29.5703 53.0859L29.9609 52.7344L41.25 41.4453L41.5234 41.4062V41.4844L41.6797 41.5625L41.8359 41.7969L42.3438 42.2656L42.5391 42.4609L42.7344 42.6172L42.6953 42.7734L42.4219 43.0859L41.9531 43.6719L41.6016 44.2188L41.2109 45.0391L40.8984 45.9766L40.7422 46.7578L40.7031 47.1094V48.3594L40.8594 49.2969L41.0938 50.1172L41.3281 50.7031L41.6797 51.3672L42.1094 51.9922L42.4609 52.4219L42.7734 52.7734L43.0859 53.0469L43.5156 53.3984L44.1016 53.7891L44.9219 54.2188L45.6641 54.4922L46.5234 54.6875L47.0703 54.7656H48.3594L49.3359 54.6094L50 54.4141L50.625 54.1797L51.5234 53.7109L51.9531 53.3984L52.3438 53.0859L52.6172 52.8516L52.8516 52.8125L53.0469 52.9688L53.2422 53.2031L53.5547 53.4375L53.6719 53.6328L53.9844 53.9062L54.2578 54.2188L54.4531 54.4141L54.9219 54.8438L55.1172 55L55.3516 55.2734L55.5469 55.4688L55.5859 55.5859L55.7422 55.6641V55.7422L55.8984 55.8203L56.4062 56.3281V56.4062L56.5625 56.4844L56.6797 56.6016V56.6797H56.7578L57.0312 56.9922L57.2656 57.1875L57.3438 57.2266L57.2656 57.4219L56.6406 58.0078L56.3281 58.3203L55.8984 58.6719L55.5078 59.0234L54.9609 59.4531L54.2188 60L53.5547 60.4688L52.7344 60.9766L51.7969 61.5234L50.7422 62.0703L50 62.4219L49.2578 62.7344L48.2422 63.125L47.0703 63.5156L45.5859 63.9062L44.2188 64.1797L43.125 64.3359L41.4062 64.4922H38.6719L36.9531 64.3359L35.4688 64.1016L34.6875 63.9453L33.5547 63.6719L32.2656 63.2812L31.2891 62.9297L30.1172 62.4609L29.6484 62.2266L28.8281 61.8359L27.9688 61.3672L27.1094 60.8594L25.7031 59.9219L25.2344 59.5703L24.6875 59.1406L24.2578 58.7891L23.8672 58.4375L23.4375 58.0859L23.3984 57.9688L23.2422 57.8906L22.9297 57.6172L22.7734 57.4609V57.3828L22.6172 57.3047L22.0703 56.7188L21.6016 56.2109L21.25 55.7812L20.9766 55.4688L20.5469 54.9219L20.0781 54.2969L19.6484 53.6719L19.2578 53.0859L18.7891 52.3047L18.3203 51.4453L17.9297 50.7031L17.3828 49.4922L16.9141 48.2812L16.4453 46.875L16.1328 45.7031L15.8203 44.1797L15.625 42.8125L15.5078 41.5625V38.3203L15.6641 36.7578L15.8984 35.2734L16.2109 33.8281L16.2891 33.5938L16.4844 32.9297L16.6016 32.5391L16.7578 32.0703L16.9531 31.5234L17.4219 30.3516L17.8906 29.3359L18.0859 28.8672H18.1641L18.2031 28.7109L18.4766 28.125H18.5547L18.6328 27.8906L18.9844 27.2656L19.2578 26.8359L19.5312 26.4453L19.6484 26.2109H19.7266L19.8047 26.0156L20.1172 25.5469H20.1953L20.2734 25.3516L20.7812 24.6875L21.2109 24.1797L21.5625 23.75L22.1484 23.125L22.6172 22.6953Z" fill="#E40523"/>
<path d="M38.6719 11.6406H41.2891L42.8516 11.7578L44.1406 11.9141L45.5078 12.1484L46.9141 12.4609L48.2031 12.8125L49.6094 13.2812L50.5469 13.6328L51.7188 14.1406L52.6953 14.6094L53.5547 15.0391L54.4922 15.5859L55.1953 16.0156L56.1328 16.6406L56.5625 16.9531L57.1094 17.3438L57.6562 17.7734L58.5156 18.4766L59.0234 18.9453L59.4922 19.375L60 19.8438L60.5078 20.3516L60.7812 20.6641L60.9766 20.8594V20.9375L61.0938 20.9766L61.3672 21.2891L61.7188 21.6797L62.1484 22.2266L62.6172 22.8125L62.9297 23.2422L63.3984 23.9062L63.7109 24.375L64.0625 24.9219L64.5312 25.6641L64.7656 26.0938L65 26.4844L65.7812 28.0469L66.1328 28.8672L66.4453 29.6484L66.875 30.8203L67.3047 32.2266L67.6172 33.4375L67.8906 34.7266L68.125 36.25L68.2812 37.6953L68.3594 39.4531V40.8984L68.2812 42.4609L68.0859 44.1406L67.8906 45.2734L67.6562 46.4453L67.2656 47.9297L66.8359 49.2969L66.4844 50.2344L65.9766 51.4844L65.3125 52.8516L64.8047 53.8281L64.2969 54.6875L63.8281 55.4297L63.5156 55.8984L63.0859 56.5234L62.7344 56.9922L62.1875 57.6953L61.8359 58.125L61.3672 58.6719L60.9766 59.1016L60.7031 59.4141L60.3516 59.7656L60.1172 60.0391H60L59.7266 59.7266L57.3438 57.3438L57.5781 57.0703L58.2031 56.4062L58.5547 56.0156L58.9062 55.5859L59.2969 55.1172L59.6484 54.6484L60.1562 53.9453L60.5469 53.3594L61.0547 52.5391L61.6016 51.5625L61.9531 50.8984L62.4609 49.8047L62.8906 48.75L63.2422 47.7734L63.7109 46.1719L63.9844 45L64.2188 43.6328L64.4141 41.8359L64.4531 41.0156V39.0234L64.375 37.7344L64.1797 36.1719L63.9844 35.0781L63.75 34.0234L63.3594 32.6172L62.8516 31.1328L62.4219 30.1172L61.9141 29.0234L61.4453 28.125L60.8203 27.0703L60.0391 25.8984L59.4922 25.1562L58.9453 24.4531L58.5938 24.0625L58.2422 23.6328L57.6172 22.9688L57.3828 22.7344V22.6562H57.3047V22.5781H57.2266V22.5L57.0703 22.4219L56.6797 22.0312L56.25 21.6797L55.9375 21.4062V21.3281L55.7812 21.25L55.3516 20.8984L54.6484 20.3516L53.9844 19.8828L53.5938 19.6094L52.7344 19.0625L51.7188 18.4766L50.5859 17.8906L49.375 17.3438L48.2422 16.9141L47.0703 16.5234L45.9375 16.2109L44.4531 15.8984L43.1641 15.7031L42.1094 15.5859L40.8203 15.5078H39.1406L38.2422 15.5469L36.7188 15.7031L35.1172 15.9766L33.9062 16.25L32.5391 16.6406L31.4062 17.0312L30.2734 17.5L29.375 17.8906L28.6328 18.2812L27.6953 18.7891L26.875 19.2969L26.0547 19.8438L25.3906 20.3125L24.8438 20.7422L24.4531 21.0547L23.9062 21.5234L23.4766 21.9141L23.1641 22.1875L22.7734 22.5781L22.5781 22.6172L22.3047 22.3047L20.0781 20.0781L19.9219 19.9609L19.9609 19.8438L20.2734 19.5703L20.6641 19.2188L21.1719 18.75L21.6016 18.3984L22.1484 17.9297L23.3203 17.0312L24.0625 16.5234L24.7656 16.0547L25.2734 15.7422L25.9375 15.3516L26.7969 14.8828L27.7734 14.375L28.9844 13.8281L30.3906 13.2812L31.8359 12.8125L32.7734 12.5391L34.3359 12.1875L35.8203 11.9141L37.0703 11.7578L38.6719 11.6406Z" fill="#FDFDFD"/>
<path d="M31.7969 25.1562H32.5781L33.5938 25.2734L34.4531 25.5078L35.2344 25.8203L35.9766 26.2109L36.6406 26.6797L37.1875 27.1484L37.5 27.4609L37.8516 27.8906L38.1641 28.3203L38.4766 28.8281L38.8281 29.5703L39.1406 30.5078L39.2969 31.3281L39.3359 31.6406V32.8906L39.1797 33.8281L38.9453 34.6094L38.7109 35.1953L38.2812 36.0156L37.7734 36.7188L37.3828 37.1484L36.875 37.6562L36.3672 38.0469L35.7422 38.4375L35.1172 38.75L34.5312 38.9844L33.5938 39.2188L32.6953 39.3359H31.8359L30.8984 39.2188L30.1172 39.0234L29.4922 38.7891L28.8672 38.4766L28.3984 38.2031L27.8516 37.8125L27.3828 37.3828L27.1484 37.1875L26.875 36.875L26.4453 36.3281L26.0156 35.625L25.7031 35L25.3906 34.0625L25.2344 33.2812L25.1953 32.9688V31.4844L25.3125 30.7812L25.5469 29.9609L25.7812 29.3359L26.1719 28.5938L26.6016 27.9688L26.9531 27.5391L27.2656 27.1875L27.5781 26.9141L28.1641 26.4453L28.75 26.0938L29.3359 25.7812L30.0391 25.5078L30.9766 25.2734L31.7969 25.1562Z" fill="#FDFDFD"/>
<path d="M47.0312 40.6641H48.3984L49.1797 40.7812L50 41.0156L50.7812 41.3281L51.4453 41.6797L51.9922 42.0703L52.4219 42.4219L52.8906 42.8516L53.2422 43.2422L53.75 43.9453L54.1797 44.7266L54.4922 45.5469L54.6875 46.2891L54.8047 46.9922L54.8438 47.4609V47.9688L54.7656 48.75L54.5703 49.6875L54.3359 50.3516L54.0625 50.9766L53.6719 51.6406L53.2031 52.2656L52.6562 52.8516L52.2266 53.2422L51.6406 53.6719L50.9375 54.0625L50.3516 54.3359L49.6484 54.5703L48.6719 54.7656L48.3594 54.8047H47.0703L46.1328 54.6484L45.4297 54.4531L44.6875 54.1406L44.1016 53.8281L43.6328 53.5156L43.2812 53.2422L42.8906 52.8906L42.6172 52.6562L42.3438 52.3438L41.9531 51.8359L41.6016 51.2891L41.2109 50.5469L40.8984 49.6094L40.7031 48.6719L40.6641 48.3594V47.1094L40.7812 46.3281L40.9766 45.5859L41.2891 44.7656L41.6406 44.1016L41.9531 43.6328L42.3828 43.0859L42.7734 42.6562L43.0859 42.3828L43.5156 42.0312L44.0625 41.6797L44.6875 41.3281L45.3516 41.0547L45.9766 40.8594L46.7188 40.7031L47.0312 40.6641Z" fill="#FDFDFD"/>
<path d="M51.4844 26.4453L51.9922 26.4844L52.4609 26.6406L52.8516 26.9141L53.1641 27.2266L53.4375 27.7344L53.5156 28.0078V28.75L53.3594 29.1797L53.125 29.5703L52.6953 30.0391L29.6875 53.0469L29.2969 53.3203L28.8672 53.4766L28.6719 53.5156H28.0469L27.5781 53.3594L27.1875 53.125L26.8359 52.7734L26.5234 52.1484L26.4453 51.7969L26.4844 51.25L26.6016 50.8594L26.875 50.3906L50.3516 26.9141L50.7812 26.6406L51.2109 26.4844L51.4844 26.4453Z" fill="#FDFDFD"/>
<path d="M47.4609 44.4922H47.9688L48.6328 44.6094L49.2188 44.8438L49.6094 45.0781L50.1172 45.5078L50.4688 45.9766L50.7812 46.6016L50.9375 47.1875L50.9766 47.4609V48.0078L50.8594 48.6328L50.6641 49.1406L50.3906 49.6094L50.0391 50.0391L49.5703 50.4297L48.9844 50.7422L48.3203 50.9375L47.9688 50.9766H47.4609L46.8359 50.8594L46.3281 50.6641L45.8594 50.3906L45.3906 49.9609L45.1172 49.6484L44.8047 49.1406L44.6094 48.6328L44.4922 48.0078V47.5781L44.6094 46.8359L44.8438 46.25L45.1562 45.7812L45.5078 45.3906L45.8594 45.0781L46.4062 44.7656L46.9531 44.5703L47.4609 44.4922Z" fill="#E40623"/>
<path d="M31.8359 29.0234H32.6562L33.3203 29.1797L33.9453 29.4922L34.2969 29.7266L34.6875 30.0781L35.0391 30.5859L35.2734 31.0547L35.4688 31.7969V32.7344L35.3125 33.3594L35 33.9844L34.6484 34.4531L34.375 34.7266L33.9844 35L33.3594 35.3125L32.7344 35.4688H31.7188L31.0547 35.2734L30.5078 35L30.1172 34.6875L29.7266 34.2969L29.375 33.75L29.1406 33.2031L29.0234 32.6562V31.875L29.1797 31.1719L29.4922 30.5469L29.8438 30.0781L30.1953 29.7266L30.7422 29.375L31.2891 29.1406L31.8359 29.0234Z" fill="#E40623"/>
<path d="M31.8359 29.0234H32.6562L33.3203 29.1797L33.9453 29.4922L34.2969 29.7266L34.6875 30.0781L35.0391 30.5859L35.2734 31.0547L35.4688 31.7969V32.7344L35.3125 33.3594L35 33.9844L34.6484 34.4531L34.4922 34.5703L34.4141 34.4141L34.375 34.2969L34.2188 34.2188L33.6719 33.5938L33.3984 33.3594V33.2812L33.2812 33.2422L33.0859 33.0469V32.9688L32.9297 32.8906L32.8906 32.7734L32.7344 32.6953L32.5781 32.5L32.2656 32.2266L32.1094 32.0703V31.9922L31.9531 31.9141L31.8359 31.7969V31.7188L31.6797 31.6406V31.5625L31.5234 31.4844L31.2109 31.1719L30.8984 30.8984L30.7422 30.7422V30.6641H30.6641V30.5859L30.5078 30.5078L30.2734 30.2734V30.1953H30.1953L30.0781 30.0781L29.9219 30.1172L29.7656 30.2344L29.8438 30.0781L30.1953 29.7266L30.7422 29.375L31.2891 29.1406L31.8359 29.0234Z" fill="#FC541B"/>
<path d="M47.4609 44.4922H47.9688L48.6328 44.6094L49.2188 44.8438L49.6094 45.0781L50.1172 45.5078L50.4688 45.9766L50.7812 46.6016L50.9375 47.1875L50.9766 47.4609V48.0078L50.8594 48.6328L50.6641 49.1406L50.3906 49.6094L50.0391 50.0391L49.9609 50.0781L49.8828 49.7656L49.7266 49.6875L49.5312 49.5312L49.4922 49.3359L49.3359 49.2969L49.1406 49.0625L48.8672 48.8281V48.75L48.75 48.7109L48.7109 48.5938L48.5938 48.5547L48.2422 48.2031V48.125L48.125 48.0859L47.8906 47.8125L47.5781 47.5391L47.3828 47.3047L47.3047 47.2656V47.1875L47.1484 47.1094L46.6797 46.6406L46.4062 46.4062L46.3672 46.25H46.25L46.0547 46.0547V45.9766L45.8984 45.8984L45.7422 45.7422V45.6641H45.6641L45.625 45.5859L45.4688 45.5469L45.2344 45.7422L45.3125 45.5859L45.7031 45.1953L46.25 44.8438L46.8359 44.6094L47.4609 44.4922Z" fill="#FC541B"/>
<path d="M25.3906 59.6875L25.5469 59.7656L25.9375 60.0391L27.1094 60.8203L28.5156 61.6406L29.1406 61.9531L29.8047 62.2656L30.5859 62.6172L31.6797 63.0469L32.8906 63.4375L33.8672 63.7109L35 63.9844L36.4453 64.2188L36.9531 64.2969L38.6719 64.4531H41.4062L43.4766 64.2578L44.6094 64.0625L45.7422 63.8281L47.1875 63.4375L48.3594 63.0469L48.4766 63.0859L47.7344 63.3594L46.6797 63.6719L45.8203 63.9062L44.2969 64.2188L43.3203 64.375L42.5 64.4531L41.9141 64.5312L41.0547 64.5703H38.7891L37.0703 64.4141L35.5469 64.1797L34.7266 64.0234L33.4375 63.7109L32.5 63.4375L31.875 63.2031L31.4844 63.0859L30.3125 62.6172L29.9219 62.4219L29.6484 62.3047L29.2969 62.1484L28.6719 61.8359L28.0859 61.5234L27.5391 61.2109L26.3281 60.4688L26.0547 60.2734V60.1953L25.8984 60.1562L25.4297 59.8047L25.3906 59.6875Z" fill="#FD770F"/>
<path d="M18.0469 50.9375L18.1641 51.0938L18.75 52.1875L19.1016 52.7734L19.6094 53.5547L20.1172 54.2969L20.5078 54.8047L20.9375 55.3516L21.2109 55.7031L21.6016 56.1328L21.9531 56.5625L22.4609 57.0703L22.6953 57.3438L22.9297 57.5391V57.6172L23.0859 57.6953L23.3984 57.9688L23.5938 58.1641L24.0234 58.5547L24.3359 58.8281L25.3906 59.6484L25.2344 59.6875L24.5703 59.1406L24.1406 58.7891L24.0234 58.7109V58.6328L23.8672 58.5547L23.4766 58.2031L23.1641 57.9297L22.8125 57.6172V57.5391L22.6562 57.4609L22.3828 57.1875L22.1094 56.875L21.6406 56.3672V56.2891L21.5234 56.25L21.2109 55.8594L20.7422 55.3125L20.3906 54.8438L19.8438 54.1016L19.6094 53.75L19.3359 53.3203L19.1797 53.125L19.0625 52.8906L18.6719 52.2266L18.4766 51.875L18.0859 51.1328L18.0469 50.9375Z" fill="#FD7F0C"/>
<path d="M25.3906 59.6875L25.5469 59.7656L25.9375 60.0391L27.1094 60.8203L28.5156 61.6406L29.1406 61.9531L29.8047 62.2656L29.9609 62.3438V62.3828L29.6875 62.3438L28.6719 61.8359L28.0859 61.5234L27.5391 61.2109L26.3281 60.4688L26.0547 60.2734V60.1953L25.8984 60.1562L25.4297 59.8047L25.3906 59.6875Z" fill="#FD7D0C"/>
<path d="M36.7969 64.3359H37.4219L38.6719 64.4531L38.9062 64.4922L41.0547 64.5312V64.5703H38.7891L37.0703 64.4141L36.7969 64.375V64.3359Z" fill="#FD8808"/>
<path d="M28.6328 61.7578L28.8281 61.7969L29.4531 62.1094L29.9609 62.3438V62.3828L29.6875 62.3438L28.6719 61.8359L28.6328 61.7578Z" fill="#FD7E0C"/>
<path d="M56.3281 58.2812L56.3672 58.3594L56.0547 58.6328L55.5469 59.0625L55 59.4922L54.8438 59.6094L54.7656 59.5703L55.4297 59.0234L55.8203 58.7109L56.25 58.3203L56.3281 58.2812Z" fill="#FD7E0C"/>
<path d="M21.3672 55.9766L21.5234 56.0547L22.0312 56.6406L22.3828 56.9922L22.3438 57.1094L21.9141 56.6797L21.6406 56.3672V56.2891L21.5234 56.25L21.3672 56.0547V55.9766Z" fill="#FD7F0C"/>
<path d="M27.5781 61.1328L27.7734 61.2109L28.5156 61.6406L28.7109 61.7188V61.7578L28.4375 61.7188L27.9688 61.4453L27.6172 61.25L27.5781 61.1328Z" fill="#FD770F"/>
<path d="M57.3047 57.3047L57.3438 57.4219L56.875 57.8906L56.5625 58.1641L56.4453 58.2812L56.3672 58.2422L56.9922 57.6172L57.2656 57.3828L57.3047 57.3047Z" fill="#FD7E0C"/>
<path d="M24.7266 59.1797L24.8828 59.2578L25.2734 59.5703L25.3906 59.6875L25.1953 59.6484L24.7656 59.2969L24.7266 59.1797Z" fill="#FD7B0D"/>
<path d="M22.3828 57.0312L22.5781 57.2266L22.7734 57.3828L22.9297 57.5391L22.8906 57.6172L22.6562 57.4609L22.3828 57.1875V57.0312Z" fill="#FD760F"/>
<path d="M31.4062 63.0078L31.6797 63.0469L32.2656 63.2422V63.2812H32.0312L31.6016 63.125L31.4062 63.0469V63.0078Z" fill="#FD770F"/>
<path d="M26.9922 60.8203L27.1484 60.8594L27.5781 61.0938L27.6172 61.2109L27.3828 61.1328L26.9922 60.8594V60.8203Z" fill="#FD830A"/>
<path d="M21.9141 56.6016L22.0703 56.6797L22.3828 56.9922L22.3438 57.1094L21.9141 56.6797V56.6016Z" fill="#FD810B"/>
<path d="M19.1797 53.0078H19.2578L19.6094 53.5547L19.5703 53.6719L19.2969 53.2812L19.1797 53.125V53.0078Z" fill="#FD830A"/>
<path d="M20.9375 55.3906L21.0938 55.5859L21.3672 55.8594L21.4062 55.9766L21.25 55.8984L20.8984 55.5078L20.9375 55.3906Z" fill="#FD7C0D"/>
<path d="M56.3281 58.2812L56.3672 58.3594L56.0547 58.6328L55.8203 58.8281L55.7422 58.7891L56.25 58.3203L56.3281 58.2812Z" fill="#FD7A0E"/>
<path d="M25.3906 59.6875L25.5469 59.7656L25.8984 60L25.7422 60.0391L25.3906 59.7656V59.6875Z" fill="#FD790E"/>
<path d="M24.3359 58.9062L24.4922 58.9453L24.7266 59.1406L24.7656 59.2578L24.6094 59.1797L24.3359 58.9453V58.9062Z" fill="#FD840A"/>
<path d="M20.5859 55.0781L20.7422 55.1172L20.9375 55.3516L20.8984 55.4688L20.5859 55.1172V55.0781Z" fill="#FD810B"/>
</g>
<defs>
<clipPath id="clip0_206_949">
<rect width="80" height="80" fill="white"/>
</clipPath>
</defs>
</svg>
