<svg width="345" height="146" viewBox="0 0 345 146" fill="none" xmlns="http://www.w3.org/2000/svg">
<g clip-path="url(#clip0_206_926)">
<rect x="0.5" y="0.5" width="344" height="145" rx="9.5" fill="#ECF0F9" stroke="#A7AFBA" stroke-dasharray="4 4"/>
<g clip-path="url(#clip1_206_926)">
<path d="M198.75 52.5H193.5V47.25C193.5 43.8 190.7 41 187.25 41H147.25C143.8 41 141 43.8 141 47.25V80.275V87.25C141 90.7 143.8 93.5 147.25 93.5H152.5V98.75C152.5 102.2 155.3 105 158.75 105H198.75C202.2 105 205 102.2 205 98.75V58.75C205 55.3 202.2 52.5 198.75 52.5ZM143.5 47.25C143.5 45.1875 145.188 43.5 147.25 43.5H187.25C189.312 43.5 191 45.1875 191 47.25V68.925L184.963 62.8875C183.975 61.9 182.65 61.35 181.237 61.35C179.825 61.35 178.5 61.8875 177.5 62.8875L165.913 74.475L159.825 68.3875C158.838 67.4 157.513 66.85 156.1 66.85C154.688 66.85 153.363 67.4 152.375 68.3875L143.5 77.2625V47.25ZM147.25 91C145.188 91 143.5 89.3125 143.5 87.25V80.8L154.15 70.15C154.675 69.625 155.363 69.3375 156.113 69.3375C156.863 69.3375 157.55 69.625 158.075 70.15L165.038 77.1125C165.525 77.6 166.312 77.6 166.8 77.1125L179.263 64.65C179.788 64.125 180.475 63.8375 181.225 63.8375C181.975 63.8375 182.662 64.125 183.188 64.65L190.987 72.45V87.25C190.987 89.3125 189.3 91 187.237 91H147.25ZM202.5 98.75C202.5 100.812 200.812 102.5 198.75 102.5H158.75C156.688 102.5 155 100.812 155 98.75V93.5H187.25C190.7 93.5 193.5 90.7 193.5 87.25V71.9375V55H198.75C200.812 55 202.5 56.6875 202.5 58.75V98.75Z" fill="#B1B7C3"/>
<path d="M167.25 49.0625C164.487 49.0625 162.25 51.3 162.25 54.0625C162.25 56.825 164.487 59.0625 167.25 59.0625C170.012 59.0625 172.25 56.825 172.25 54.0625C172.25 51.3 170.012 49.0625 167.25 49.0625ZM167.25 56.5625C165.875 56.5625 164.75 55.4375 164.75 54.0625C164.75 52.6875 165.875 51.5625 167.25 51.5625C168.625 51.5625 169.75 52.6875 169.75 54.0625C169.75 55.4375 168.625 56.5625 167.25 56.5625Z" fill="#B1B7C3"/>
<path d="M198.75 98.125H162.375C161.688 98.125 161.125 98.6875 161.125 99.375C161.125 100.062 161.688 100.625 162.375 100.625H198.75C199.438 100.625 200 100.062 200 99.375C200 98.6875 199.438 98.125 198.75 98.125Z" fill="#B1B7C3"/>
<path d="M158.775 98.125H158.737C158.05 98.125 157.487 98.6875 157.487 99.375C157.487 100.062 158.05 100.625 158.737 100.625H158.775C159.462 100.625 160.025 100.062 160.025 99.375C160.025 98.6875 159.475 98.125 158.775 98.125Z" fill="#B1B7C3"/>
<path d="M151.125 45.375H147.25C146.562 45.375 146 45.9375 146 46.625C146 47.3125 146.562 47.875 147.25 47.875H151.125C151.812 47.875 152.375 47.3125 152.375 46.625C152.375 45.9375 151.825 45.375 151.125 45.375Z" fill="#B1B7C3"/>
<path d="M154.75 45.375H154.713C154.025 45.375 153.463 45.9375 153.463 46.625C153.463 47.3125 154.025 47.875 154.713 47.875H154.75C155.438 47.875 156 47.3125 156 46.625C156 45.9375 155.45 45.375 154.75 45.375Z" fill="#B1B7C3"/>
</g>
</g>
<defs>
<clipPath id="clip0_206_926">
<rect width="345" height="146" fill="white"/>
</clipPath>
<clipPath id="clip1_206_926">
<rect width="64" height="64" fill="white" transform="translate(141 41)"/>
</clipPath>
</defs>
</svg>
