<svg width="60" height="60" viewBox="0 0 60 60" fill="none" xmlns="http://www.w3.org/2000/svg">
<path d="M49.9805 0H57.3926L57.4219 0.0878906L57.6855 0.263672L57.8906 0.527344L57.9785 0.761719L58.0078 0.908203V7.96875L57.9785 7.99805L56.5137 8.02734H56.0156L55.9863 7.99805L55.957 7.64648V3.48633L50.0391 9.4043L50.0977 9.52148L50.332 9.81445L50.7129 10.2832L50.9473 10.6055L51.3574 11.1914L51.709 11.748L52.0898 12.4219L52.4414 13.0957L52.793 13.8867L53.0859 14.6484L53.4082 15.6445L53.6426 16.582L53.8184 17.5488L53.9355 18.457L53.9941 19.1602V20.8887L53.9062 21.8848L53.7598 22.8809L53.5547 23.8477L53.291 24.7559L52.9395 25.7812L52.6172 26.543L52.3242 27.1875L52.0605 27.6855L51.5918 28.4766L51.3574 28.8574L50.5957 29.9121L50.2734 30.293L49.9805 30.6152L49.7754 30.8496L49.7168 30.9375H49.6582L49.5996 31.0547L49.1016 31.5527L48.8672 31.7578L48.3984 32.1973L47.959 32.5488L47.6074 32.8125L47.0508 33.2227L46.2891 33.6914L45.7031 34.043L44.4727 34.6582L43.3301 35.0977L42.7148 35.3027L41.6309 35.5957L40.7227 35.7715L39.9609 35.8887L38.9648 35.9766L38.4961 36.0059H37.8516L37.002 35.9766L36.0938 35.8887L35.2441 35.7715L33.8086 35.4492L33.6328 35.3906L33.5742 35.6836L33.3398 36.5625L32.9883 37.6172L32.6953 38.3203L32.4609 38.8477L32.2266 39.3164L31.9336 39.873L31.6992 40.2832L31.1133 41.1621L30.8203 41.5723L30.4395 42.041L30.2051 42.334L29.6777 42.9199L29.2676 43.3594L28.8281 43.7695L28.4766 44.0918L28.0078 44.4727L27.5098 44.8535L27.0996 45.1465L26.6602 45.4395L26.1328 45.7617L25.4004 46.1719L24.9316 46.4062L24.1699 46.7578L23.1445 47.1387L22.2949 47.4023L21.4746 47.6074L20.332 47.8125L19.1016 47.959H19.0137V52.998H23.9941V54.9902L23.9062 55.0195H19.0137V60H16.9922L16.9629 59.8242V55.0195H12.041L11.9824 54.9902V52.998L12.0996 52.9688L16.9629 52.998V47.959L15.8789 47.8418L15.0879 47.7246L13.6523 47.4023L12.0996 46.875L11.25 46.4941L10.4004 46.084L9.69727 45.6738L9.16992 45.3516L8.11523 44.5898L7.70508 44.2383L7.38281 43.9453L7.06055 43.6816L6.38672 43.0078L6.18164 42.7734L5.80078 42.3633L5.47852 41.9531L5.06836 41.4258L4.77539 41.0156L4.42383 40.459L3.98438 39.7266L3.75 39.2871L3.42773 38.6133L3.16406 37.998L2.8418 37.1484L2.66602 36.5918L2.37305 35.5078L2.16797 34.3652L2.08008 33.7207L1.99219 32.6074V31.5527L2.02148 30.8203L2.19727 29.4141L2.34375 28.6523L2.63672 27.4805L3.07617 26.1914L3.33984 25.5762L3.75 24.6973L3.98438 24.2578L4.39453 23.5547L4.6875 23.0859L5.00977 22.6465L5.41992 22.0898L5.6543 21.7969L5.94727 21.4746L6.21094 21.1523L6.41602 20.9473L6.62109 20.7129H6.67969L6.70898 20.625L6.94336 20.4199L7.44141 19.9512L7.82227 19.6289L8.20312 19.3359L8.70117 18.9551L8.99414 18.75L9.55078 18.3984L10.2832 17.959L11.5137 17.3438L12.5684 16.9336L13.1543 16.7285L14.209 16.4355L15.0586 16.2598L15.9375 16.1133L16.8457 16.0254L17.3145 15.9961H18.4863L19.4238 16.0547L20.625 16.2012L21.4746 16.377L22.3535 16.582L22.4121 16.2598L22.6465 15.3809L22.998 14.3555L23.3203 13.5352L23.8184 12.5098L24.1992 11.8359L24.5508 11.2793L24.9023 10.752L25.3125 10.1953L25.6934 9.72656L26.0156 9.3457L26.1914 9.14062L27.2461 8.08594L27.6562 7.76367L27.9492 7.5L28.3594 7.17773L28.6523 6.97266L29.209 6.5918L29.6484 6.29883L30.498 5.83008L31.2305 5.44922L31.7871 5.21484L32.5195 4.92188L33.6328 4.57031L34.1895 4.42383L35.3613 4.18945L36.2402 4.07227L36.7969 4.01367L37.3828 3.98438H38.5254L39.3457 4.04297L40.4004 4.16016L41.5137 4.36523L42.3926 4.59961L43.2422 4.86328L44.3555 5.30273L45.0879 5.6543L45.5859 5.91797L45.9375 6.09375L46.6699 6.5625L47.373 7.03125L47.8711 7.44141L48.1348 7.64648L48.5156 7.93945H48.6035L48.75 7.79297L48.9258 7.58789H48.9844L49.043 7.4707L49.248 7.29492L49.3945 7.11914L49.6289 6.91406L54.4922 2.05078L50.0391 2.02148L49.9512 1.93359V0.146484L49.9805 0ZM37.6465 6.00586L36.6211 6.06445L35.7422 6.18164L34.9805 6.32812L33.9551 6.5918L33.0176 6.91406L32.3145 7.20703L31.3477 7.67578L30.5273 8.17383L30.1172 8.4375L29.5605 8.84766L29.209 9.11133L28.7988 9.46289L28.418 9.81445L28.1836 10.0195L27.9492 10.2539L27.7441 10.4883L27.3926 10.8691L27.0703 11.25L26.6602 11.8066L26.3086 12.3047L25.8105 13.125L25.459 13.7988L25.0781 14.6191L24.8438 15.2344L24.6094 15.9375L24.3164 17.0508L24.2871 17.2852L25.0781 17.666L25.5469 17.9004L26.2793 18.3105L27.334 19.0137L27.7148 19.3066L28.125 19.6289L28.5059 19.9512L28.8867 20.3027L29.1211 20.5078L29.6484 21.0352L29.8535 21.2695L30.1465 21.5918L30.7324 22.3242L31.084 22.8223L31.3477 23.2031L31.7285 23.8184L32.1094 24.4922L32.5488 25.3711L32.9004 26.2207L33.2812 27.3047L33.5156 28.1836L33.6914 28.9746L33.8379 29.8535L33.9258 30.6445L33.9551 31.084V32.7539L33.9258 33.3691L34.6289 33.5742L35.2734 33.7207L35.9473 33.8379L37.0605 33.9551L37.9688 33.9844L38.8477 33.9551L39.7559 33.8672L40.5469 33.75L41.6016 33.5156L42.8027 33.1348L43.6523 32.7832L44.3848 32.4316L45.0879 32.0508L45.6445 31.6992L46.084 31.4062L46.6992 30.9375L46.9922 30.7031L47.3145 30.4102L47.5488 30.2051L47.8711 29.9121V29.8535H47.9297L48.1348 29.6191L48.4277 29.3262V29.2676L48.5156 29.2383L48.8379 28.8281L49.2188 28.3594L49.5117 27.9492L49.834 27.4512L50.0977 27.0117L50.5078 26.25L50.8008 25.6348L51.0938 24.9023L51.416 23.9355L51.6211 23.1445L51.7676 22.4121L51.9141 21.3574L51.9727 20.332V19.541L51.9141 18.5742L51.709 17.1973L51.3867 15.9375L51.0938 15.0879L50.7715 14.2969L50.332 13.3887L49.8633 12.5977L49.5703 12.1289L49.1602 11.5723L48.8672 11.1914L48.5156 10.7812L47.8711 10.0781L47.373 9.60938L47.1387 9.4043L46.7578 9.08203L45.7617 8.34961L44.5898 7.64648L43.6816 7.20703L42.9492 6.91406L42.1289 6.62109L40.7227 6.26953L39.5508 6.09375L38.8184 6.03516L38.0566 6.00586H37.6465ZM17.4023 18.0176L16.5234 18.0762L15.498 18.2227L14.9121 18.3398L14.0039 18.5742L13.125 18.8672L12.334 19.1895L11.25 19.7168L10.7227 20.0391L10.166 20.3906L9.60938 20.8008L9.11133 21.1816L8.70117 21.5332L8.4668 21.7676L8.23242 21.9727L7.76367 22.4414L7.55859 22.6758L7.26562 22.998L6.88477 23.4961L6.5918 23.877L6.32812 24.2578L5.94727 24.873L5.5957 25.4883L5.15625 26.3965L4.86328 27.1582L4.62891 27.8027L4.33594 28.916L4.21875 29.4727L4.07227 30.4688L4.01367 31.3477V32.666L4.10156 33.75L4.27734 34.834L4.57031 36.0059L4.80469 36.709L5.18555 37.6758L5.50781 38.3496L5.85938 38.9941L6.44531 39.9316L6.85547 40.459L7.20703 40.9277L7.55859 41.3086L7.82227 41.6016L8.14453 41.9531L8.58398 42.3633L8.81836 42.5684L9.22852 42.9199L9.78516 43.3301L10.2832 43.6816L11.1035 44.1797L11.7773 44.5312L12.4512 44.8535L13.0371 45.0879L14.0918 45.4395L15.1758 45.7031L16.2891 45.8789L17.2559 45.9668L18.0176 45.9961L19.1309 45.9375L20.3027 45.791L21.2695 45.5859L21.8262 45.4395L22.9102 45.0879L23.877 44.6777L24.6973 44.2676L25.1953 43.9746L25.752 43.623L26.1621 43.3301L26.5137 43.0664L26.8945 42.7734L27.2461 42.4512L27.4805 42.2461L27.832 41.9238L28.125 41.6309V41.5723H28.1836L28.3887 41.3379L28.7109 40.9863L29.0918 40.4883L29.1211 40.4004H29.1797L29.4434 40.0195L29.7363 39.5801L30 39.1699L30.3809 38.4668L30.6445 37.9688L31.0547 37.002L31.4062 35.9473L31.6992 34.8047V34.7168L31.0547 34.3945L30.498 34.1309L29.8828 33.7793L29.3555 33.457L28.623 32.959L28.0957 32.5488L27.6855 32.2266L27.3047 31.875L27.0703 31.6699L26.7773 31.4062L26.5723 31.1719H26.5137L26.4551 31.0547L26.0742 30.6738L25.8105 30.3516L25.459 29.9414L25.0488 29.3848L24.6387 28.7988L24.1699 28.0371L23.8184 27.3926L23.584 26.9531L23.1738 26.0156L22.9102 25.3125L22.6172 24.4043L22.3535 23.3496L22.1777 22.3828L22.0605 21.416L22.002 20.4199V19.6875L22.0605 18.6328L21.8555 18.5449L21.0352 18.3398L20.0977 18.1641L19.1016 18.0469L18.6328 18.0176H17.4023ZM24.0234 19.3945V20.8301L24.1406 22.002L24.3164 22.9688L24.5508 23.877L24.9023 24.9316L25.2539 25.7812L25.7227 26.7188L26.0156 27.2168L26.3086 27.6855L26.6602 28.1836L27.0117 28.6523L27.2754 28.9746L27.5391 29.2676L27.7441 29.502L28.1543 29.9414L28.2422 29.9707V30.0293L28.4766 30.2344L28.8574 30.5859L29.1797 30.8496L29.707 31.2598L30.2637 31.6406L30.7324 31.9336L31.1719 32.1973L31.7871 32.5195L31.8164 32.5488H31.9629V31.3477L31.875 30.293L31.7578 29.5312L31.582 28.6816L31.3477 27.8613L31.084 27.0703L30.7617 26.2793L30.5273 25.8105L30.1465 25.0781L29.7363 24.4043L29.2969 23.7598L28.8867 23.2324L28.5645 22.8516L28.2715 22.5293L28.0664 22.2949L27.5684 21.7969L27.334 21.5918L26.9238 21.2402L26.4844 20.8887L26.0742 20.5957L25.6934 20.332L25.0781 19.9512L24.6094 19.6875L24.0527 19.3945H24.0234Z" fill="#E17B57"/>
</svg>
