<svg width="512" height="512" viewBox="0 0 512 512" fill="none" xmlns="http://www.w3.org/2000/svg">
<g clip-path="url(#clip0_206_588)">
<path d="M243.25 0H269.25L284.5 1.5L296 3L307.25 5L319.25 7.75L331 11L343 15L354.5 19.5L363.5 23.5L369.75 26.5L376.25 29.75L382 33L388.5 36.75L393.25 39.75L397.5 42.5L402.25 45.75L406.75 49L411.5 52.5L415.5 55.75L417.75 57.5L421 60.25L424.5 63.25L427 65.5L429 67.25L432.75 70.75L435.25 73.25L437.25 75L438.5 76.25V76.75H439L440.75 78.75L443.25 81.25L445 83.25L448 86.5L450.25 89.25L452.75 92L455.5 95.5L458.5 99.25L461 102.5L464.25 107L467.25 111.25L470.25 115.75L473.75 121.25L476.75 126.25L479.75 131.5L482.75 137L485 141.25L487.75 147L491.5 155.25L495.5 165.25L497.75 171.5L500.75 180.5L504 192L507 205L509 216.25L510.75 230.25L512 244.25V266L510.75 281.75L509.25 293.75L507.75 303L506.5 309.5L504.25 318.75L502.5 325.5L500.25 333L497.25 342L493.75 351.25L491 357.75L487.25 366L481.25 378L477.75 384L474.75 389.25L469.25 397.75L466 402.5L462.75 407L460.75 409.75L458.25 413L455 417L453 419.5L450 423L446.75 426.75L444 429.75L440 434L432 442L430 443.75L427.75 446L425 448.25L422.25 450.75L419.5 453L416.25 455.75L413.25 458L409.5 461L405.25 464L401.75 466.5L395 471L390.25 474L386.5 476.25L381.25 479.25L376.75 481.75L369.5 485.5L362.75 488.75L354.25 492.5L343.25 496.75L333.75 500L325.25 502.5L316.75 504.75L306.5 507L296.75 508.75L287.75 510L276.75 511.25L267.75 512H244.75L236 511.25L222 509.75L212 508.25L202.75 506.5L193 504.25L182.25 501.25L175.25 499L166.5 496L156.5 492L149.25 488.75L142.25 485.5L136.5 482.5L131.75 480L127.5 477.5L122 474.25L115.75 470.25L111.25 467.25L106.75 464L103.25 461.5L100 459L96.5 456.25L92.5 453L89 450L85.25 446.75L82.25 444L80.5 442.25L78.5 440.5L69.75 431.75L68 429.75L66 427.75L64.25 425.75L61.5 422.5L59.25 420L56.5 416.5L53.5 412.75L51 409.5L47.75 405L44.75 400.75L41.25 395.5L37.75 390L35.5 386.25L31.5 379.25L29 374.75L27 370.75L23 362.5L19.5 354.5L15.5 344.25L11.5 332.5L8.5 322L6 312L4 302L2.25 290.75L1 280.25L0 268.75V242.5L1.5 227.25L2.75 217.5L4.5 207.25L6.75 197L9 188L11.75 178.75L15.75 167L20.25 155.75L25 145.25L29.25 136.75L32.25 131.25L35.75 125.25L38 121.5L41.75 115.75L43.5 113L49.5 104.5L51.75 101.5L54.5 98L58 93.5L60.25 91L62.5 88.25L65 85.5L66.75 83.5L69.75 80.25L71.5 78.5L73.25 76.5L78 71.75L80 70L82.75 67.25L84.75 65.5L88.25 62.5L90.75 60.25L93.5 58L97 55.25L100.75 52.25L104.75 49.25L109 46.25L114 42.75L118 40.25L122.25 37.5L126.5 35L131.75 32L137.25 29L142 26.5L149 23.25L156.75 19.75L166.25 16L176.25 12.5L183.5 10.25L193.75 7.5L203.5 5.25L214.25 3.25L226.75 1.5L239.75 0.25L243.25 0Z" fill="#FC8668"/>
<path d="M125.25 132.25H162.25L162.5 144V149L162.75 155.75L163.25 158.5L164.75 161.5L166 163L169 165L172 165.75H175L178 164.75L180.5 163L182 161.25L183.5 158.25L184 155.25L184.25 132.25L244.75 132.5H282L327.75 132.25L328 155.5L328.75 159L330 161.5L331 162.5V163L332 163.5L334.5 165L337.25 165.75H340.25L343 164.75L345.75 163L347.25 161.25L348.75 158.25L349.25 156L349.5 132.5L381 132.25H388.5L393.25 133L397.25 134.5L400 136.25L402.25 138.5L404 141.25L405.5 144.5L406.25 148L406.5 150.5V365.75L406 369L404.75 372.75L403 375.75L400.25 378.75L397.5 380.5L394 382L391.75 382.5L389.5 382.75H122.25L118 382L115 380.75L112.5 379.25L110 377L108.25 374.75L106.5 371.25L105.75 368.5L105.5 366.75L105.25 359.75V149L105.75 145.25L107.5 141.25L110 138L111.75 136.25L114.5 134.5L117.5 133.25L121.5 132.5L125.25 132.25Z" fill="#FCFEFC"/>
<path d="M125.25 132.25H162.25L162.5 144V149L162.75 155.75L163.25 158.5L164.75 161.5L166 163L169 165L172 165.75H175L178 164.75L180.5 163L182 161.25L183.5 158.25L184 155.25L184.25 132.25L244.75 132.5H282L327.75 132.25L328 155.5L328.75 159L330 161.5L331 162.5V163L332 163.5L334.5 165L337.25 165.75H340.25L343 164.75L345.75 163L347.25 161.25L348.75 158.25L349.25 156L349.5 132.5L381 132.25H388.5L393.25 133L397.25 134.5L400 136.25L402.25 138.5L404 141.25L405 143.5L406 148.25L406.25 153.25V199H105.75L105.5 198.75V146.75L106 144.75L107.25 141.75L109.75 138.25L111.75 136.25L114.5 134.5L117.5 133.25L121.5 132.5L125.25 132.25Z" fill="#48DEC5"/>
<path d="M172 98.75H174.25L177.25 99.5L179.5 100.75L181 102L183 104.75L184 107.25L184.25 109.75V155.25L183.75 158.25L182 161.75L180 163.75L177.5 165.25L175 166H172L169 165.25L165.75 163L163.75 160.25L162.75 157.75L162.5 155.75L162.25 148.75V118.75L162.5 109.25L163.25 105.5L164.75 103.25L166.25 101.5L169 99.75L172 98.75Z" fill="#33495F"/>
<path d="M337.25 98.75H339.5L342.5 99.5L345.25 101L347.25 103.25L349 106.25L349.5 109V156L348.75 159L347 162L344.75 164L341.25 165.75L340.25 166H337.25L334.5 165.25L332 163.75L330.75 162.5L329.25 160.75L328.25 158.25L327.75 155.5L327.5 127.25L327.75 109.25L328.5 105.75L330 103.25L332.5 100.75L335.5 99.25L337.25 98.75Z" fill="#33495F"/>
<path d="M338.75 273.75H368.75V303.75L368.5 304H340.25L339 303.75L338.75 301.5V273.75Z" fill="#FE7058"/>
<path d="M350.5 223H363.75L368.5 223.25V253.25H339.25L339 253L338.75 230.5V223.5L339 223.25L350.5 223Z" fill="#CCD4E2"/>
<path d="M273.5 324.75H303L303.25 354.75H273.5V324.75Z" fill="#CCD4E2"/>
<path d="M143.25 324.75H172.75L173 354.5L172.75 354.75H143.25V324.75Z" fill="#CCD4E2"/>
<path d="M282.75 223H296.25L303 223.25V253L281.25 253.25H273.75L273.5 253V223.25L282.75 223Z" fill="#CCD4E2"/>
<path d="M273.5 274H303L303.25 303.75L303 304H273.75L273.5 303.75V274Z" fill="#CCD4E2"/>
<path d="M209 324.75H238L238.25 342.5V354.75H208.75V325L209 324.75Z" fill="#CCD4E2"/>
<path d="M143.25 274H172.75L173 303.75L172.5 304H143.5L143.25 303V274Z" fill="#CCD4E2"/>
<path d="M220 223H231.75L238.25 223.25V253L233 253.25H209L208.75 253V223.25L220 223Z" fill="#CCD4E2"/>
<path d="M208.75 274H238L238.25 304H208.75V274Z" fill="#CCD4E2"/>
<path d="M406.75 199.25L407.25 199.5L407.5 201.75L407.75 203.5V208.75L407.25 214L406.75 214.5V199.25Z" fill="#FF7058"/>
</g>
<defs>
<clipPath id="clip0_206_588">
<rect width="512" height="512" fill="white"/>
</clipPath>
</defs>
</svg>
