<svg width="80" height="80" viewBox="0 0 80 80" fill="none" xmlns="http://www.w3.org/2000/svg">
<path d="M45.05 20.65H46.35L47.25 20.8L48.05 21L49.05 21.45L49.6 21.8L50.3 22.3L51.05 23.05L51.65 23.9L52.05 24.75L52.4 25.75L52.55 26.7V28.55L52.45 29.45L52.2 30.4L51.8 31.55L51.25 32.6L50.65 33.6L50 34.5L49.55 35.05L49.2 35.5L48.75 36L48.4 36.4L47.35 37.45L46.95 37.8L46.55 38.2L46.1 38.55L45.4 39.15L44.7 39.7L43.85 40.35L42.65 41.25L42 41.7L41.15 42.3L40.15 42.95L39.25 43.5L38.55 43.95L37.6 44.55L36.85 45L35.95 45.55L33.95 46.75L32.55 47.55L31.55 48.1L30.5 48.7L28.2 49.95L26.3 50.9L24.75 51.6L23.7 51.95H23.25L23 51.8L22.65 51.4L22.35 50.9L22.2 50.4V49.75L22.5 49.3L22.95 48.95L24 48.4L24.9 48L25.75 47.55L26.55 47.15L27.7 46.55L28.65 46L29.95 45.3L30.65 44.9L31.55 44.4L32.4 43.9L34.15 42.85L35.55 42L36.25 41.55L37.15 41L38 40.45L40.4 38.85L42.1 37.6L42.7 37.1L43.35 36.6L43.85 36.15L44.4 35.7L45.05 35.1L45.45 34.75L45.8 34.35L46.4 33.75L46.75 33.35L47.25 32.75L47.65 32.2L48.15 31.5L48.6 30.7L48.85 30.1L49.2 29.1L49.35 28.2V26.95L49.15 26.15L48.8 25.45L48.4 24.95L47.9 24.5L47.3 24.15L46.7 23.95L46 23.85H45.4L44.7 23.95L44.05 24.2L43.45 24.5L42.75 24.9L41.95 25.55L41.4 26L38.4 29L38 29.35L37.5 29.85L37.1 30.2L36.45 30.8L36 31.2L35.6 31.55L35.05 32L33.8 33L33.1 33.55L32.1 34.3L31.6 34.65L30.9 35.1L29.9 35.75L28.95 36.3L27.8 36.9L27 37.3L26 37.75L24.8 38.25L23.1 38.85L21.95 39.15L21.2 39.3L20.8 39.25L20.5 39.05L20.2 38.6L20 38.05L19.95 37.35L20.05 36.85L20.45 36.5L21.15 36.15L22.85 35.55L23.7 35.2L25.2 34.55L27.2 33.55L28.4 32.85L29.1 32.4L29.85 31.9L30.55 31.4L31.15 30.95L31.7 30.5L32.35 30L33 29.45L33.55 29L34.15 28.45L34.7 28L35.05 27.7L36 26.75H36.1L36.2 26.55L36.85 25.95L39.05 23.75L39.45 23.4L40 22.9L40.7 22.35L41.25 22L42.1 21.5L42.9 21.15L44.1 20.8L45.05 20.65Z" fill="#F48119"/>
<path d="M40.45 10.15H41.45L42.8 10.25L44.1 10.45L45.35 10.75L46.55 11.15L47.55 11.6L48.55 12.1L49.6 12.75L50.5 13.4L51.05 13.85L51.7 14.45L52.25 14.95L52.6 15.35L53.15 15.95L54.15 17.25L54.65 18L55.5 19.45L56.1 20.6L56.55 21.55L57.2 23.15L57.8 24.95L58.25 26.45L58.6 27.75L59.05 29.2L59.4 30.15L59.8 31L60 31.75V32.25L59.85 32.5L59.3 32.85L58.6 33.3H58.2L57.7 33L57.2 32.6L56.85 32.2L56.45 31.4L56 30.3L55.55 28.8L54.9 26.45L54.1 24.05L53.5 22.6L53.1 21.8L52.55 20.75L51.9 19.7L51.3 18.85L50.75 18.15L50.15 17.45L49.8 17.1V17L49.6 16.9L49.25 16.55L48.7 16.1L48.05 15.6L47.25 15.1L46.45 14.65L45.5 14.2L44.7 13.9L43.6 13.6L42.2 13.4H39.8L38.4 13.6L37.35 13.9L35.8 14.45L34.95 14.85L33.75 15.55L32.55 16.35L31.75 17L31.25 17.4L30.55 18L29.8 18.7L28.85 19.65L28.4 20.2L28.05 20.55L27.6 21.1L27.2 21.6L26.65 22.3L26.1 22.95L25.65 23.5L25.25 24L24.65 24.7L24.05 25.35L23.5 25.8L22.9 26.3L22.1 26.75L21.45 26.95L21.1 26.9L20.6 26.5L20.25 26.15L20 25.7L19.95 25.5V24.85L20.25 24.35L20.8 23.85L21.35 23.45L21.9 22.95L22.1 22.75H22.2L22.3 22.55L22.85 21.9L23.3 21.3L24.3 20.05L24.85 19.35L25.5 18.6L26.1 17.9L26.55 17.4L27.3 16.6L27.95 15.95L28.35 15.6L28.7 15.25L29.4 14.7L30 14.2L30.95 13.5L31.85 12.9L33 12.25L34.15 11.65L35.5 11.1L36.4 10.8L37.9 10.45L39.25 10.25L40.45 10.15Z" fill="#F48119"/>
<path d="M42.7501 45.1H43.4001L44.5001 45.35L45.7501 45.85L46.7501 46.4L48.1001 47.3L49.1001 48L50.8001 49.2L52.3001 50.2L53.3501 50.85L54.4501 51.45L55.7501 52.15L56.5001 52.65L56.7501 52.95L56.8001 53.25L56.6501 53.9L56.3501 54.45L56.0001 54.95L55.5501 55.2L55.1001 55.15L54.2501 54.9L53.2001 54.45L51.8501 53.7L50.9001 53.1L49.7501 52.35L48.8001 51.7L47.0501 50.5L46.3001 50L45.2501 49.35L44.3001 48.8L43.3001 48.35L43.1001 48.3H42.7501L41.6001 48.85L40.9501 49.25L39.9501 49.85L38.8501 50.55L37.9001 51.15L37.3001 51.55L35.7501 52.55L34.4501 53.4L33.3501 54.1L32.6501 54.55L31.9001 55L30.8501 55.65L29.8001 56.25L28.3501 57L27.2501 57.45L26.4501 57.65H26.0001L25.6001 57.35L25.3001 56.95L24.9501 56.25L24.8501 55.75L24.9001 55.4L25.1001 55.15L25.6001 54.8L26.1001 54.5L27.1001 54.05L28.3001 53.4L29.4501 52.7L31.1001 51.65L32.3001 50.9L33.0501 50.4L34.3001 49.6L34.9001 49.2L35.9001 48.55L36.7501 48L37.7001 47.4L39.1001 46.55L41.1501 45.5L42.2001 45.15L42.7501 45.1Z" fill="#F48119"/>
<path d="M45 26.45H45.65L46.0499 26.6L46.5999 27.05L46.8499 27.3L47 27.6V28.05L46.75 28.75L46.0999 29.7L45.5999 30.35L45.1999 30.85L44.5499 31.6L44.0999 32.1L41.75 34.45L41.35 34.8L40.9 35.2L40.5 35.55L40.0499 35.95L39.35 36.5L37.85 37.65L37.0499 38.25L36.25 38.8L35.7 39.15L34.95 39.65L34.1 40.2L33.4 40.6L32.2 41.3L29.05 42.95L27.65 43.6L26.65 44.05L25.5 44.55L23.2 45.4L22.2 45.65L21.6 45.7L21.3 45.5L21.1 45.25L20.9 44.85L20.75 44.45L20.7 44.1V43.55L20.85 43.15L21.3 42.8L22.15 42.4L24.2 41.6L26.95 40.35L29.25 39.2L30.35 38.6L31.5 37.95L32.75 37.2L35 35.7L35.9 35.05L37.25 34L38.1 33.3L38.75 32.75L39.15 32.4L39.5 32.05L39.9 31.7L40.5499 31.05L40.9499 30.7L41.2999 30.3L41.5499 30.1L41.9499 29.6L42.4 29.15L43.5999 27.65L44.0999 27L44.4499 26.7L44.8499 26.5L45 26.45Z" fill="#F48119"/>
<path d="M42.85 15.35L43.45 15.4L43.95 15.65L44.35 16L44.55 16.35L44.6 16.6V17.5L44.35 17.9L44 18.15L43.2 18.4L41.7 18.8L40.45 19.2L39.65 19.6L38.7 20.1L38.15 20.45L37.65 20.8L36.95 21.35L36.4 21.8L35.7 22.4L35.45 22.65H35.35L35.3 22.8L35.05 23.05H34.95V23.15L34.6 23.45L34.15 24L33.7 24.45L33.3 24.95L33 25.3L32.55 25.85L31.8 26.65L31.35 27.15L30.95 27.5L30.65 27.85L30.25 28.2L29.7 28.7L28.9 29.3L28.2 29.8L27.45 30.3L26.55 30.85L25.35 31.5L24.55 31.9L23.4 32.45L22.45 32.75L21.8 32.9H21.4L21 32.65L20.7 32.2L20.4 31.65L20.3 31.3V31.05L20.4 30.9L20.5 30.55L20.85 30.15L21.35 29.85L23.3 28.95L24.4 28.35L25.5 27.7L26.5 27.05L27.2 26.5L27.85 25.95L28.45 25.4L28.95 24.95L29.3 24.55H29.4L29.5 24.35L30.25 23.55L30.65 23.05L31 22.7L31.6 21.95H31.7L31.8 21.75L32.25 21.3L32.6 20.9L32.95 20.55L33.25 20.3L33.95 19.6L34.35 19.25L34.9 18.8L35.55 18.3L36.35 17.75L37.15 17.25L38.05 16.75L39.1 16.3L40.95 15.7L42.05 15.45L42.85 15.35Z" fill="#F48119"/>
<path d="M41.4 52.75H42.65L43.4 52.95L44.8 53.5L45.75 54L46.8 54.6L48 55.35L49.45 56.2L50.85 57.05L52.35 57.85L53.2 58.35L53.65 58.7L53.7 58.8V59.15L53.5 59.95L53.15 60.6L52.85 60.95L52.55 61.2L52.25 61.15L51.1 60.75L49.95 60.2L48.85 59.6L47.1 58.55L45.65 57.7L44.3 56.95L43.5 56.5L42.55 56.05L42.15 55.9L41.8 55.95L41.3 56.2L40.75 56.55L39.8 57.15L39.3 57.5L38.25 58.2L37.4 58.8L36.9 59.15L35.95 59.85L35 60.5L34.1 61.15L33.4 61.65L32.05 62.55L31.4 62.95L30.95 63.15L30.7 63.2L30.15 62.9L29.6 62.25L29.3 61.65L29.2 61.3V61L29.8 60.3L30.45 59.75L31.15 59.25L32.05 58.6L32.9 58L33.65 57.45L34.05 57.15L34.9 56.55L35.7 56L36.85 55.2L37.6 54.7L38.65 54.05L39.45 53.6L40.2 53.2L41.25 52.8L41.4 52.75Z" fill="#F48119"/>
<path d="M72.6 3.95H73.65L75.85 4L75.95 4.1V17.55L75.75 17.65H73.15L72.9 17.55L72.85 17.3V7.05H62.5L62.35 7L62.3 6.9V4.45L62.35 4.1L62.55 4L72.6 3.95Z" fill="#062E48"/>
<path d="M4.05 4H17.5L17.65 4.05L17.7 4.3L17.65 6.25L17.6 6.95L17.5 7L7.15 7.1L7.1 13.45V17.55L7 17.6H4.1L4 17.35V4.3L4.05 4Z" fill="#062E48"/>
<path d="M4.05 62.3H5.6L7 62.35L7.1 62.5V64.25L7.05 72.85L17.5 72.9L17.65 73.05L17.6 75.75L17.4 75.85L8.2 75.95H5.2L4.1 75.9L4 75.75V63.75L4.05 62.3Z" fill="#062E48"/>
<path d="M41.35 60.25H41.8L42.7 60.45L43.55 60.75L44.4 61.15L45.4 61.75L45.9 62.1L46.55 62.55L47.8 63.4L48.65 64.05L48.8 64.15V64.25L49 64.35L49.35 64.7L49.45 64.9V65.25L49.05 66.05L48.55 66.7L48.2 67.1L48.1 67.15L47.5 66.9L46.75 66.5L45.65 65.8L44.5 65.05L43.8 64.6L42.85 64L41.95 63.5L41.55 63.45L40.4 64.05L39.5 64.75L38.85 65.3L38.35 65.7L37.6 66.4L37.05 66.85L36.2 67.5L35.75 67.75L35.5 67.7L35.25 67.5L34.75 67.15L34.4 66.8L34 66L34.05 65.65L34.55 64.95L35 64.45L35.95 63.5H36.05L36.15 63.3L36.85 62.7L37.35 62.25L38.3 61.55L39.2 61L40 60.6L40.65 60.35L41.35 60.25Z" fill="#F48119"/>
<path d="M47.8999 38.65H48.2499L48.6499 38.9L48.9999 39.25L49.4499 40L49.9999 40.9L50.4499 41.5L50.8999 42L51.2999 42.4L51.9499 42.9L52.6999 43.4L53.6999 43.95L54.4999 44.35L55.5499 44.85L55.9499 45.15L56.0999 45.35L56.1499 45.55V46.1L55.9499 46.75L55.5499 47.3L55.2499 47.55H55.0499V47.65L54.7499 47.6L54.3499 47.45L53.1999 47.05L52.0499 46.5L51.0499 45.9L50.0999 45.2L49.3999 44.6L49.0499 44.25L48.6999 43.95L48.3499 43.55L47.8499 42.9L47.2499 41.95L46.7999 41.1L46.3999 40.15V39.85L46.6999 39.35L47.1999 38.95L47.6999 38.7L47.8999 38.65Z" fill="#F48119"/>
<path d="M51.9 34.05H52.5L53 34.35L53.3 34.75L53.45 35.1L53.7 36L54.05 36.7L54.45 37.25L54.8 37.6L55.3 37.95L56.2 38.45L56.8 38.75L57.5 39.2L57.95 39.6L58.1 39.9V40.25L57.75 41.05L57.45 41.45L57.15 41.65L56.85 41.7L56.1 41.55L54.9 41.1L53.95 40.6L53.3 40.15L52.6 39.55L52.1 39.05L51.55 38.25L51.15 37.5L50.65 35.95L50.55 35.45L50.95 34.75L51.25 34.35L51.75 34.1L51.9 34.05Z" fill="#F48119"/>
<circle cx="60.5" cy="60.5" r="15.5" fill="#062E48"/>
<g clip-path="url(#clip0_206_570)">
<path d="M63.8122 51.93C62.4587 51.4062 61.0003 51.2108 59.5567 51.3598C58.113 51.5088 56.7253 51.9981 55.5074 52.7874C51.5211 55.3678 50.1994 60.5125 52.3043 64.6545L52.7005 65.4341L54.2616 64.6414L53.8641 63.8616C53.164 62.4801 52.9126 60.9145 53.1449 59.3833C53.3772 57.852 54.0817 56.4315 55.1601 55.3198C56.2385 54.2082 57.6369 53.4608 59.1604 53.1821C60.6839 52.9034 62.2564 53.1071 63.6585 53.7649L60.9312 55.5304L61.8821 56.9995L67.0239 53.6711L63.6955 48.5294L62.2265 49.4803L63.8122 51.93ZM66.7383 56.3586L67.135 57.1389C67.8348 58.5203 68.086 60.0857 67.8536 61.6167C67.6213 63.1477 66.9168 64.568 65.8386 65.6795C64.7604 66.791 63.3622 67.5383 61.839 67.8172C60.3157 68.096 58.7434 67.8925 57.3414 67.2351L60.0687 65.4696L59.1178 64.0005L53.976 67.3289L57.3044 72.4706L58.7734 71.5197L57.1877 69.07C58.5412 69.5938 59.9996 69.7892 61.4432 69.6402C62.8869 69.4912 64.2746 69.0019 65.4925 68.2126C69.4781 65.6327 70.8005 60.4875 68.6949 56.346L68.2987 55.5664L66.7383 56.3586Z" fill="white"/>
</g>
<defs>
<clipPath id="clip0_206_570">
<rect width="21" height="21" fill="white" transform="translate(45.9797 57.3913) rotate(-32.9158)"/>
</clipPath>
</defs>
</svg>
