<svg width="512" height="512" viewBox="0 0 512 512" fill="none" xmlns="http://www.w3.org/2000/svg">
<g clip-path="url(#clip0_206_693)">
<path d="M51 0H316.25L324.25 1.5L329.75 3L334.75 5L340.5 8L344.75 11L347.25 13L349.75 15.25L353.75 19.25L356.25 22.5L358.75 26.25L361 30.25L363 34.5L365 40.75L366 45L366.75 51.25V185.5L365.75 188.5L364 191.25L362.25 193L359.25 194.75L356.5 195.5H352.25L349.25 194.5L346.75 192.75L345 191L343.5 188.5L342.5 185.75L342.25 183.5L342 53L341.25 47.75L339.75 43.25L337.75 39.25L335.5 36L332 32.25L328.75 29.75L324.25 27.25L319 25.5L316.75 25L314.25 24.75L283.5 24.5H83.5L52.25 24.75L48.5 25.25L43.25 27L39.25 29L35.75 31.5L33 34L30.75 36.75L28.5 40.25L26.5 44.5L25.25 48.75L24.75 52.75L24.5 57.5V374.25L25 380.75L26 384.75L27.25 388.25L29.5 392.5L32 395.75L34 398L36.75 400.25L40 402.25L44 404.25L49 405.75L53.5 406.25L205.5 406.5L208.25 407L210.75 408L212.75 409.5L214.75 411.5L216.5 415L217 417.5V420L216.25 423L215 425.5L212.75 428L211.5 429L209 430.25L207 430.75L203.75 431H55.5L50 430.75L43.25 429.75L37 428L32 426L26.25 423L22 420L18.75 417.25L15.5 414.25L12.5 411L9 406.25L6 401.25L3.75 396L2 390.75L0.75 385.25L0 380.75V49.75L1.75 41.25L3.25 36.25L5.5 31L8.25 26L11.25 21.75L13.25 19.25L15 17.5L16.75 15.5L19.75 12.75L23.75 9.75L29 6.5L34.25 4L39.5 2.25L44.75 1L51 0Z" fill="#ED923A"/>
<path d="M378.25 234H388L395 234.75L401.25 236L406 237.25L411 239L417.25 241.75L422.25 244.5L426.75 247.5L432 251.5L435.75 255L440 259.25L442.25 262L445.75 266.75L448.25 270.75L451.5 276.75L454.25 283.5L456.25 290.25L457.5 296.25L458.25 302L458.5 305.5V312.5L457.75 320L456.5 326.25L455 331.5L452.75 337.75L449.25 345L446.25 349.75L443.75 353.25L441.75 355.75L439.5 358.25L437.75 360.25L434.75 363.5L432.25 366.75L430 370.25L428 374.75L427 378L426.75 379.75L426.5 384.75V417L480.75 423.75L487 424.75L490.5 425.75L493.5 427L496 428.25L499 430.25L501.75 432.5L504.5 435.25L507.25 439L509.25 443L510.75 447L512 452.25V504.25L509.75 508L508 509.75L504.25 512H263L259.75 510L258 508.5L256 505.25L255.25 502.75V454.75L255.75 450.25L257.25 444.75L259.5 440L262 436.5L264.25 433.75L268.25 430.25L272.25 427.75L276 426L279.25 425L284.75 424L330.5 418.25L340.5 417V381.75L339.75 377.5L338.25 373.25L336.25 369.25L334 365.75L332 363.25L329.25 360L326.75 357.25L324.5 354.5L321.75 350.75L319 346.5L316.5 342L314.25 337L312 330.75L310 322.75L308.75 313.25V305L309.75 296L311 290L313 283.5L315.5 277.5L318.25 272.25L321.5 267.25L324.25 263.25L326.75 260.5L329 257.75L331.5 255L333.5 253.25L336.75 250.5L340.25 247.75L346.5 243.75L350.5 241.5L354.75 239.5L360.75 237.25L366.5 235.75L371.75 234.75L378.25 234ZM377.5 255.5L373 256.25L367.25 257.75L363.25 259.25L358 261.75L352.5 265.25L349.25 268L345.25 271.5L343 274.25L341 276.5L338.5 280.25L336.25 284L333.5 290.25L331.75 296.25L330.75 301L330.25 305.5V311.75L331 318.25L332.5 324.25L334.5 329.75L336.5 333.75L338.5 337.25L341.5 341.5L343.75 344L345.5 346L348.5 349.5L351.5 353.25L354 357L357.25 363L359.75 369.25L361.25 375.5L361.75 378.5L362 381.25L362.25 415.75H405L405.25 383.25L405.5 378.5L406.5 372.5L408.25 366.75L410.5 361.5L412.75 357.5L415.5 353.5L419 349.25L423 345L425.5 342.25L428.75 337.75L431.5 333L433.75 328L435.25 323.5L436.5 317.75L437 314.75L437.25 311.25V306.75L436.75 301.5L435.5 295.25L434 290.5L432.5 286.75L430.5 282.75L428.25 279L425.5 275.25L423.25 272.75L421.5 270.75L418.25 267.75L413.5 264.25L409.75 262L405.75 260L402.5 258.5L396.75 256.75L391.75 255.75L389.25 255.5H377.5ZM352.75 437.25L346.5 437.75L289.5 445L284.25 446L281.75 447.25L279.25 449.5L277.75 451.75L276.75 455.5V490.75H490.5V454.75L489.75 451.75L488.25 449.5L487 448.25L485 446.75L482.5 445.75L476.5 444.75L448 441.25L426 438.5L417 437.5L410 437.25H352.75Z" fill="#ED923A"/>
<path d="M95.75 85.75H271L274.25 86.75L277 88.5L279.25 91L280.75 94L281.25 96V99.5L280.5 102.5L278.75 105.5L276.5 107.75L273 109.5L270.75 110L268.25 110.25H98L94.5 109.75L92 108.75L89.25 106.75L87.5 104.5L86.25 102L85.5 99V96.75L86.25 93.75L88 90.5L90.5 88L93.75 86.25L95.75 85.75Z" fill="#ED923A"/>
<path d="M95.75 257H270.75L273.75 257.75L276.25 259.25L278.5 261.25L280 263.75L281 266.25L281.25 267.5V270.75L280.5 273.75L279 276.25L276.75 278.75L274.5 280L272 281L270.25 281.25H96.25L93.25 280.5L90.5 279L88 276.5L86 272.5L85.5 270.25V268L86.5 264.25L88.25 261.5L89.5 260L91.75 258.5L94.5 257.25L95.75 257Z" fill="#ED923A"/>
<path d="M97.25 171.25H269.25L272.5 171.75L275 172.75L277.25 174.5L279 176.25L280.75 179.75L281.25 181.75V185.25L280.5 188L279.25 190.25L277.25 192.75L274.5 194.5L271.75 195.5L269.75 195.75H96.25L93.25 195L90.25 193.25L88.5 191.5L86.5 188.25L85.75 186L85.5 184.75V182.5L86.5 178.75L88 176.25L89.75 174.25L92.5 172.5L95.25 171.5L97.25 171.25Z" fill="#ED923A"/>
<path d="M95.5 342.5H249.5L252.75 343.5L255.5 345.25L257.75 347.75L259.25 350.75L259.75 352.5V356.75L258.75 359.75L257.25 362.25L255 364.5L253 365.75L249.5 366.75L246.25 367H98.5L94.5 366.5L92 365.5L89.25 363.5L87 360.5L85.75 357L85.5 355.75V353.5L86.25 350.5L87.75 347.75L90 345.25L92.25 343.75L95.5 342.5Z" fill="#ED923A"/>
</g>
<defs>
<clipPath id="clip0_206_693">
<rect width="512" height="512" fill="white"/>
</clipPath>
</defs>
</svg>
