<svg width="50" height="50" viewBox="0 0 50 50" fill="none" xmlns="http://www.w3.org/2000/svg">
<g clip-path="url(#clip0_206_700)">
<circle cx="25" cy="25" r="25" fill="#1BD741"/>
<path d="M10 40.0326L12.101 32.5704C10.7499 30.2751 10.0386 27.6635 10.0386 24.9808C10.0386 16.7203 16.7589 10 25.0193 10C33.2798 10 40 16.7203 40 24.9808C40 33.2412 33.2798 39.9615 25.0193 39.9615C22.4454 39.9615 19.9251 39.3027 17.6955 38.0516L10 40.0326ZM18.0889 35.3262L18.5475 35.6062C20.4914 36.793 22.7294 37.4203 25.0193 37.4203C31.8785 37.4203 37.4588 31.8399 37.4588 24.9808C37.4588 18.1216 31.8785 12.5412 25.0193 12.5412C18.1602 12.5412 12.5798 18.1216 12.5798 24.9808C12.5798 27.3707 13.2591 29.6916 14.544 31.6925L14.8528 32.1734L13.6429 36.4707L18.0889 35.3262Z" fill="white"/>
<path d="M20.811 18.0085L19.8389 17.9556C19.5336 17.9389 19.2341 18.0409 19.0033 18.2414C18.5321 18.6506 17.7786 19.4418 17.5471 20.4728C17.202 22.01 17.7354 23.8924 19.1158 25.7748C20.4963 27.6572 23.0688 30.6691 27.6179 31.9554C29.0838 32.3699 30.237 32.0905 31.1267 31.5213C31.8314 31.0706 32.3171 30.3471 32.4922 29.5292L32.6474 28.8043C32.6967 28.5739 32.5797 28.3401 32.3657 28.2414L29.0805 26.7271C28.8672 26.6289 28.6143 26.691 28.4708 26.8769L27.1811 28.5488C27.0837 28.6751 26.9169 28.7252 26.7663 28.6723C25.8831 28.3619 22.9246 27.1228 21.3012 23.9958C21.2308 23.8602 21.2483 23.6955 21.3481 23.5799L22.5807 22.154C22.7067 22.0084 22.7385 21.8036 22.6628 21.6267L21.2467 18.3136C21.1713 18.1372 21.0024 18.019 20.811 18.0085Z" fill="white"/>
</g>
<defs>
<clipPath id="clip0_206_700">
<rect width="50" height="50" fill="white"/>
</clipPath>
</defs>
</svg>
