<svg width="70" height="70" viewBox="0 0 70 70" fill="none" xmlns="http://www.w3.org/2000/svg">
<path d="M34.8633 15.8594L35.3076 15.8936L35.6494 16.0645L35.8203 16.2354L36.0254 16.543L36.0938 16.8164V20.2344H46.0059L46.3477 20.3027L46.6553 20.5078L46.8945 20.7812L47.0312 21.1572V21.5332L46.8945 21.875L46.6895 22.1484L46.3477 22.3535L46.04 22.4219H42.8955V22.4902L43.0664 22.5586L43.6133 22.9004L44.2285 23.3447L44.7754 23.7891L45.1514 24.0967L45.6982 24.6094L46.2109 25.1221L46.4502 25.3955L46.8604 25.874L47.3047 26.4551L47.7148 27.0361L48.125 27.6855L48.6035 28.54L49.0479 29.4629L49.458 30.5225L49.7656 31.5137L50.0049 32.5391L50.1758 33.5986L50.2783 34.4531L65.1807 34.4189L68.1885 31.4111L68.5986 31.2061L68.7354 31.1719H69.043L69.3848 31.2744L69.6582 31.4795L69.8633 31.7188L70 32.0264V32.5732L69.7949 32.915L69.3848 33.3594L66.1035 36.6406H61.9336V36.709L62.1045 36.7773L62.4805 37.0166L62.959 37.3926L63.4717 37.8711L63.8477 38.2812L64.2578 38.8281L64.6338 39.4434L64.9414 40.0244L65.2148 40.708L65.4541 41.5625L65.5908 42.3828L65.625 42.8955V43.5107L65.5566 44.3311L65.3857 45.1514L65.1807 45.835L64.8047 46.6895L64.4629 47.3047L64.0527 47.8857L63.6768 48.3301L63.5059 48.5352L63.2324 48.7744L62.959 49.0479L62.2754 49.5605L61.7627 49.8682L61.1133 50.21L60.293 50.5176L59.4727 50.7227L58.8232 50.8252L58.4473 50.8594H57.4561L56.6016 50.7568L55.7471 50.5518L55.0635 50.3125L54.209 49.9023L53.5596 49.4922L53.0811 49.1162L52.6367 48.7061L52.1924 48.2617L51.8164 47.7832L51.4746 47.3047L51.1328 46.6895L50.8252 46.0059L50.5859 45.2881L50.3809 44.3311L50.3125 43.6475V42.6904L50.415 41.9043L50.5859 41.1523L50.8594 40.332L51.2695 39.4775L51.6113 38.9307L51.9189 38.5205L52.2266 38.1445L52.6367 37.7002L53.0469 37.3242L53.5938 36.9141L53.9355 36.709L53.9697 36.6406H50.2441V37.0166L50.0732 38.2471L49.8682 39.2383L49.5264 40.4346L49.1846 41.3574L48.877 42.041L48.6035 42.5879L48.2617 43.2373L47.8857 43.8525L47.4414 44.502L46.9971 45.083L46.6211 45.5273L46.3818 45.8008L46.0742 46.1426L45.3223 46.8945L44.9463 47.2021L44.6387 47.4756L44.0918 47.8857L43.5107 48.2959L42.8613 48.7061L42.1436 49.1162L41.3916 49.4922L40.7422 49.7656L39.8193 50.1074L38.999 50.3467L37.9736 50.5859L36.9141 50.7568L35.752 50.8594H34.248L33.0518 50.7568L32.0264 50.5859L31.001 50.3467L30.1123 50.0732L29.4287 49.834L28.5742 49.458L27.8564 49.1162L27.2412 48.7744L26.5918 48.3643L25.9082 47.8857L25.4297 47.5098L24.9854 47.1338L24.6436 46.8262L24.3701 46.5869L23.7891 46.0059L23.5498 45.7324L23.1396 45.2539L22.7979 44.8096L22.3535 44.1943L21.9775 43.6133L21.4648 42.7246L21.0889 41.9727L20.7471 41.1523L20.3711 40.0928L20.0977 39.0674L19.8926 38.042L19.7217 36.6748H16.0303L16.543 37.0166L16.9873 37.3584L17.5 37.8369L17.9443 38.3154L18.3545 38.8623L18.7305 39.4775L19.0039 40.0244L19.2773 40.6738L19.5166 41.5283L19.6533 42.3486L19.6875 42.7246V43.6816L19.6191 44.3652L19.4482 45.1855L19.1406 46.1084L18.7305 46.9629L18.3203 47.6123L17.9785 48.0566L17.5684 48.5352L17.2949 48.8086L17.0215 49.0479L16.4404 49.4922L15.8936 49.834L15.1074 50.2441L14.2529 50.5518L13.3643 50.7568L12.5098 50.8594H11.5186L10.6641 50.7568L9.80957 50.5518L9.05762 50.2783L8.33984 49.9365L7.79297 49.5947L7.31445 49.2529L6.80176 48.8086L6.32324 48.3301L6.01562 47.9541L5.63965 47.4414L5.26367 46.792L5.02441 46.3135L4.75098 45.5957L4.5459 44.8438L4.40918 43.9893L4.375 43.6133V42.793L4.47754 41.9385L4.64844 41.1865L4.92188 40.3662L5.22949 39.6826L5.57129 39.1016L5.87891 38.6572L6.32324 38.1104L6.69922 37.7002L6.97266 37.4609L7.38281 37.1191L7.99805 36.709L8.03223 36.6406H3.93066L3.65723 36.4014L0.410156 33.1543L0.102539 32.7441L0 32.5391V31.958L0.273438 31.5137L0.581055 31.2744L0.888672 31.1719H1.29883L1.64062 31.3086L1.91406 31.5137L4.78516 34.3848L4.85352 34.4189H19.7217L19.8926 33.1201L20.0977 32.0605L20.3369 31.1719L20.6787 30.1465L21.0547 29.2578L21.3965 28.54L21.7725 27.8564L22.1143 27.3096L22.4561 26.7969L23.1738 25.8398L23.5156 25.4639L23.7549 25.1904L24.1309 24.7803L24.4727 24.4385L24.7461 24.1992L25.0879 23.8916L25.4639 23.584L25.9082 23.2422L26.4893 22.832L27.0361 22.4902L27.0703 22.4219H23.8916L23.5498 22.3193L23.2422 22.0801L23.0371 21.7383L22.9688 21.499V21.1914L23.0713 20.8496L23.2764 20.5762L23.5156 20.3711L23.7549 20.2686L23.96 20.2344H33.9062V16.7822L34.043 16.4062L34.3506 16.0645L34.6924 15.8936L34.8633 15.8594ZM34.3164 22.4219L33.4961 22.4902L32.6074 22.627L31.6504 22.832L30.6592 23.1396L29.7021 23.5156L29.0527 23.8232L28.2666 24.2676L27.5146 24.7461L27.0703 25.0879L26.7627 25.3271L26.3184 25.7031L25.874 26.1133L25.293 26.6943L25.0537 26.9678L24.6094 27.5146L24.2334 28.0273L23.7891 28.7109L23.3789 29.4287L22.9346 30.3516L22.5928 31.2402L22.2852 32.2314L22.0801 33.1885L21.9434 34.1113L21.875 34.9658V36.1279L21.9775 37.29L22.1484 38.2812L22.3877 39.2383L22.7295 40.2637L23.1055 41.1182L23.3789 41.665L23.7549 42.3486L24.3018 43.1689L24.7461 43.75L25.1221 44.1943L25.498 44.6045L26.2158 45.3223L26.5918 45.6299L27.002 45.9717L27.6172 46.416L28.2666 46.8262L29.0186 47.2363L29.873 47.6465L30.7617 47.9883L31.5479 48.2275L32.5732 48.4668L33.5303 48.6035L34.4531 48.6719H35.5127L36.4355 48.6035L37.3584 48.4668L38.1787 48.2959L39.1016 48.0225L39.8535 47.749L40.6396 47.4072L41.4941 46.9629L42.2803 46.4844L42.793 46.1084L43.2373 45.7666L43.7158 45.3564L44.126 44.9805L44.7412 44.3652L45.0488 43.9893L45.2881 43.7158L45.6982 43.1689L46.1084 42.5537L46.416 42.041L46.7578 41.4258L47.0996 40.6738L47.4072 39.8535L47.7148 38.8623L47.9199 37.9053L48.0566 36.9824L48.125 36.0596V35L48.0225 33.8037L47.8516 32.8125L47.6465 31.9922L47.4414 31.3086L47.168 30.5908L46.8604 29.9072L46.5869 29.3604L46.2451 28.7451L45.6299 27.8223L45.2539 27.3438L44.9463 26.9678L44.5361 26.5234L43.75 25.7373L43.374 25.4297L42.8613 25.0195L42.1777 24.541L41.4941 24.1309L40.9473 23.8232L40.127 23.4473L39.2383 23.1055L38.2129 22.7979L37.3926 22.627L36.4697 22.4902L35.5469 22.4219H34.3164ZM11.6211 37.7344L10.9033 37.8369L10.1855 38.042L9.53613 38.3154L8.9209 38.6914L8.5791 38.9648L8.2373 39.2725L7.82715 39.6826L7.41699 40.2637L7.0752 40.8789L6.87012 41.3916L6.66504 42.1094L6.5625 42.998V43.5107L6.66504 44.2969L6.87012 45.0488L7.17773 45.7324L7.48535 46.2451L7.79297 46.6553L8.10059 46.9971L8.51074 47.4072L9.0918 47.8174L9.57031 48.0908L10.1172 48.3301L10.6299 48.501L11.3135 48.6377L11.7578 48.6719H12.3389L12.9541 48.6035L13.6719 48.4326L14.2188 48.2275L14.7656 47.9541L15.2783 47.6123L15.6201 47.3389L16.0303 46.9629L16.3379 46.5869L16.7139 46.0742L17.0215 45.4932L17.2266 44.9805L17.3975 44.3311L17.5 43.6133V42.793L17.3975 42.0752L17.1924 41.3574L16.8848 40.6396L16.543 40.0928L16.2012 39.6484L15.8252 39.2383L15.3467 38.8281L14.7656 38.4521L14.2188 38.1787L13.5693 37.9395L12.9883 37.8027L12.4072 37.7344H11.6211ZM57.5586 37.7344L56.8066 37.8369L56.1914 38.0078L55.542 38.2812L55.0635 38.5547L54.6191 38.8623L54.1748 39.2725L54.1064 39.3066V39.375H54.0381L53.7988 39.6484L53.457 40.0928L53.1494 40.6055L52.8418 41.2549L52.6367 41.9043L52.5342 42.5195L52.5 42.8613V43.6475L52.6367 44.502L52.9102 45.3223L53.1836 45.8691L53.5254 46.416L53.833 46.792L54.1406 47.1338L54.4141 47.373L54.9609 47.7832L55.4053 48.0566L56.2256 48.3984L56.8408 48.5693L57.251 48.6377L57.6953 48.6719H58.2764L58.8916 48.6035L59.6094 48.4326L60.1562 48.2275L60.874 47.8516L61.4209 47.4414L61.8311 47.0996L62.0703 46.8262L62.4121 46.416L62.7881 45.8008L63.0273 45.3223L63.2324 44.707L63.3691 44.0918L63.4375 43.4766V42.9297L63.335 42.1094L63.1982 41.5967L62.9932 41.0156L62.6172 40.2979L62.2754 39.8193L61.9336 39.4434L61.7969 39.2725L61.5234 39.0332L61.0791 38.6914L60.5664 38.3838L59.9854 38.1104L59.3701 37.9053L58.6865 37.7686L58.3447 37.7344H57.5586Z" fill="#1B1B1B"/>
<path fill-rule="evenodd" clip-rule="evenodd" d="M35.3076 34.4531H34.6924L34.2139 34.4873L33.3252 34.6582L32.5049 34.9316L31.9238 35.2051L31.4111 35.5127L30.7959 35.957L30.4199 36.2988L30.1807 36.5723L29.873 36.9141L29.4971 37.4268L29.2236 37.8711L28.916 38.5205L28.6768 39.2383L28.5059 39.9902L28.4375 40.6055V41.4258L28.5059 42.0068L28.6768 42.793L28.916 43.5107L29.2236 44.1602L29.6338 44.8096L29.9756 45.2539L30.7617 46.04L31.4111 46.5186L31.8896 46.792L32.4365 47.0654L33.0859 47.3047L33.9746 47.5098L34.6582 47.5781H35.3076L35.9912 47.5098L36.6748 47.373L37.3926 47.1338L37.9395 46.8945L38.5547 46.5527L39.1699 46.1084L39.5459 45.7666L40.0244 45.2539L40.4004 44.7754L40.7422 44.2285L41.084 43.5107L41.3232 42.8271L41.4941 42.041L41.5625 41.2891V40.6738L41.5283 40.2637L41.3916 39.4775L41.1523 38.6914L40.8789 38.0762L40.4688 37.3584L40.127 36.9141L39.8193 36.5381L39.5801 36.2988L39.1016 35.8887L38.6914 35.5811L38.2129 35.2734L37.4951 34.9316L36.8115 34.6924L36.0254 34.5215L35.3076 34.4531ZM35.4443 36.6406H34.5898L34.3164 36.6748L33.8379 36.7773L33.3252 36.9482L32.7783 37.2217L32.2656 37.5635L31.8555 37.9395L31.4795 38.3838L31.2402 38.7256L31.0352 39.1016L30.7959 39.751L30.625 40.5713V41.46L30.6592 41.6992L30.8301 42.417L31.0352 42.9297L31.377 43.5107L31.7188 43.9551H31.7871L31.8555 44.0918L32.2656 44.4678L32.71 44.7754L33.2227 45.0488L33.9404 45.2881L34.5898 45.3906H35.5127L36.0938 45.2881L36.6064 45.1172L37.3242 44.7754L37.8369 44.3994L38.1104 44.1602L38.3496 43.8867L38.6572 43.4766L38.8965 43.0664L39.1699 42.4512L39.3408 41.8018L39.4092 41.1865L39.375 40.4346L39.2383 39.7852L39.0332 39.2041L38.7256 38.6572L38.418 38.2129L38.1104 37.9053L37.7002 37.5293L37.2217 37.2217L36.6748 36.9482L36.0596 36.7432L35.4443 36.6406Z" fill="#1B1B1B"/>
<path d="M27.2412 30.0781H42.6562L43.0664 30.1465L43.374 30.3516L43.6133 30.625L43.75 31.001V31.377L43.6133 31.7188L43.4082 31.9922L43.0664 32.1973L42.6904 32.2656H27.1729L26.7969 32.1289L26.5234 31.9238L26.3184 31.582L26.25 31.3428V31.001L26.3867 30.625L26.6943 30.2832L27.0361 30.1123L27.2412 30.0781Z" fill="#1B1B1B"/>
<path fill-rule="evenodd" clip-rule="evenodd" d="M12.3047 38.8281H11.792L11.3818 38.8623L10.6641 39.0332L10.1514 39.2383L9.67285 39.5117L9.22852 39.8193L8.75 40.2979L8.4082 40.7422L8.13477 41.1865L7.92969 41.665L7.75879 42.2461L7.65625 42.8955V43.4766L7.69043 43.8184L7.75879 44.1602L7.92969 44.7412L8.2373 45.3906L8.5791 45.9033L8.9209 46.2793L9.2627 46.5869L9.57031 46.8262L9.94629 47.0654L10.4932 47.3047L11.04 47.4756L11.7236 47.5781H12.3047L12.6807 47.5439L13.1592 47.4414L13.6719 47.2705L14.1162 47.0654L14.6289 46.7578L15.0732 46.3818L15.3809 46.04L15.6201 45.7324L15.9277 45.2539L16.1328 44.7754L16.3037 44.2285L16.4062 43.5791V42.793L16.3037 42.1777L16.1328 41.6309L15.8936 41.1182L15.6201 40.6738L15.2441 40.1953L14.7998 39.7852L14.2529 39.4092L13.6035 39.1016L12.8857 38.8965L12.3047 38.8281ZM12.373 41.0156H11.7578L11.5527 41.0498L11.1426 41.1865L10.6641 41.46L10.3906 41.7334L10.1855 42.0068L9.98047 42.3828L9.84375 42.8955V43.5449L9.98047 44.0234L10.2539 44.5361L10.5615 44.8438L10.835 45.0488L11.3818 45.3223L11.9287 45.4248H12.2705L12.8174 45.2881L13.1592 45.1172L13.6035 44.7754L13.9111 44.3994L14.1162 43.9893L14.2529 43.4082V42.998L14.2188 42.7246L14.1504 42.4854L13.9453 42.041L13.6377 41.665L13.2617 41.3574L12.7832 41.1182L12.373 41.0156Z" fill="#1B1B1B"/>
<path fill-rule="evenodd" clip-rule="evenodd" d="M58.2422 38.8281H57.6953L57.3193 38.8623L56.9434 38.9307L56.3965 39.1016L55.8154 39.375L55.3027 39.7168L54.9268 40.0244L54.585 40.4004L54.1748 40.9814L53.8672 41.6309L53.6963 42.2119L53.5938 42.793V43.6133L53.6279 43.8867L53.7305 44.3652L53.9697 45.0146L54.2432 45.5273L54.6191 46.04L54.9268 46.3477L55.2686 46.6553L55.7129 46.9629L56.2256 47.2363L56.9434 47.4756L57.6611 47.5781H58.2422L58.584 47.5439L59.1992 47.4072L59.7461 47.2021L60.293 46.9287L60.6689 46.6553L61.0449 46.3477L61.1133 46.2109H61.1816L61.25 46.1084L61.5234 45.7666L61.8311 45.2881L62.1045 44.6729L62.2754 44.0576L62.3438 43.4424V42.8955L62.3096 42.5879L62.207 42.0752L61.9678 41.3916L61.6943 40.8789L61.3184 40.3662L61.0449 40.0928L60.6348 39.7168L60.1221 39.375L59.541 39.1016L58.96 38.9307L58.2422 38.8281ZM58.3105 41.0156H57.6953L57.4902 41.0498L57.0117 41.2207L56.7041 41.3916L56.4307 41.6309L56.123 41.9727L55.918 42.3486L55.7812 42.8955V43.5449L55.9521 44.126L56.1914 44.5361L56.5674 44.9121L56.9092 45.1514L57.251 45.2881L57.627 45.3906L58.1738 45.4248L58.3789 45.3906L58.8232 45.2539L59.3018 44.9805L59.7461 44.5361L60.0195 44.0576L60.1562 43.5791V42.7588L60.0879 42.5195L59.8828 42.0752L59.6094 41.6992L59.2334 41.3916L58.8232 41.1523L58.3105 41.0156Z" fill="#1B1B1B"/>
<path d="M38.1104 51.9531H39.5117L39.8535 52.0557L40.1611 52.2607L40.3662 52.5684L40.4688 52.8418V53.252L40.332 53.5938L40.127 53.8672L39.7852 54.0723L39.3408 54.1406H38.2129L37.8711 54.0723L37.5293 53.8672L37.3242 53.5938L37.1875 53.2178V52.876L37.3242 52.5L37.5293 52.2266L37.8711 52.0215L38.1104 51.9531Z" fill="#1B1B1B"/>
<path d="M29.3604 51.9531H30.7617L31.1035 52.0557L31.4111 52.2607L31.6162 52.5684L31.7188 52.8418V53.252L31.582 53.5938L31.377 53.8672L31.0352 54.0723L30.5908 54.1406H29.4629L29.1211 54.0723L28.8477 53.9014L28.6768 53.7305L28.5059 53.457L28.4375 53.2178V52.876L28.5742 52.5L28.7793 52.2266L29.1211 52.0215L29.3604 51.9531Z" fill="#1B1B1B"/>
<path d="M33.7354 51.9531H35.1367L35.4785 52.0557L35.7861 52.2607L35.9912 52.5684L36.0938 52.8418V53.252L35.957 53.5938L35.752 53.8672L35.4102 54.0723L34.9658 54.1406H33.8379L33.4961 54.0723L33.1543 53.8672L32.915 53.5254L32.8125 53.2178V52.876L32.9492 52.5L33.1543 52.2266L33.4961 52.0215L33.7354 51.9531Z" fill="#1B1B1B"/>
</svg>
