<svg width="100" height="100" viewBox="0 0 100 100" fill="none" xmlns="http://www.w3.org/2000/svg">
<path d="M47.2297 7.06081H52.7703L55.6081 7.26351L58.4459 7.60135L60.8108 8.00676L63.3784 8.5473L65.9459 9.22297L68.7162 10.1014L70.8784 10.9122L72.973 11.7905L75.4054 12.9392L76.8919 13.75L78.1081 14.4257L79.6622 15.3716L81.0811 16.3176L82.2297 17.1284L83.6487 18.2095L84.7297 19.0878L85.6081 19.8311L86.4189 20.5743L86.9595 21.0473L89.1892 23.277L89.6622 23.8176L90.2703 24.4932L90.8784 25.2365L91.6892 26.25L92.6351 27.5338L93.6487 29.0203L94.527 30.4392L95.3378 31.8581L96.2838 33.6824L97.2297 35.8446L97.9054 37.6689L98.5135 39.5608L99.0541 41.6554L99.527 44.0878L99.7973 46.1149L99.9324 47.7365V52.2635L99.7297 54.4932L99.3919 56.723L98.9189 58.9527L98.3784 60.9122L97.6351 63.1419L96.8919 64.9662L96.0811 66.723L95.0676 68.6824L94.0541 70.3716L92.8378 72.1959L91.9595 73.4122L91.0811 74.4932L90.5405 75.1689L89.7297 76.1149L88.9189 76.9932L87.8378 78.1419L87.3649 78.6149L86.8243 79.0878L86.3514 79.5608L85.8108 80.0338L84.8649 80.8446L83.7162 81.7905L82.9054 82.3987L81.6892 83.277L79.4595 84.7635L77.7703 85.777L76.5541 86.4527L75 87.2635L73.1757 88.1419L70.9459 89.0878L68.9189 89.8311L66.6892 90.5743L64.2568 91.25L61.6216 91.8581L58.9865 92.3311L56.4865 92.6689L54.2568 92.8716L51.4189 93.0068H48.5811L45.7432 92.8716L42.973 92.6014L40.2027 92.1959L37.7703 91.723L35.2027 91.1149L32.9054 90.4392L30.473 89.6284L28.5811 88.8851L26.5541 88.0068L24.3243 86.9257L22.4324 85.9122L21.0811 85.1014L19.5946 84.1554L18.5135 83.4122L17.5676 82.7365L16.4189 81.8581L15.3378 80.9797L14.4595 80.2365L13.1081 79.0203L12.4324 78.3446L11.8919 77.8716L11.4189 77.3311L10.6757 76.5878L10.2027 76.0473L9.32432 75.0338L8.58108 74.0878L7.63513 72.8716L6.75676 71.5878L6.08108 70.5743L5.27027 69.223L4.59459 68.0068L3.78378 66.4527L2.9054 64.4932L2.16216 62.5338L1.48648 60.4392L0.810809 57.7365L0.472971 55.9122L0.202701 53.8176L0.0675659 52.1284V47.8716L0.270269 45.5743L0.608106 43.3446L1.01351 41.3851L1.55405 39.3581L2.36486 36.9257L3.24324 34.7635L4.12162 32.8716L4.93243 31.3851L5.74324 29.9662L7.22973 27.7365L8.17567 26.4527L8.91892 25.5068L9.66216 24.6284L10.473 23.6824L11.4865 22.6014L13.3108 20.777L13.8514 20.3041L14.5946 19.6284L15.3378 19.0203L16.4189 18.1419L17.7703 17.1284L19.1216 16.1824L20.473 15.3041L22.1622 14.2905L23.8514 13.3446L26.4189 12.0608L28.4459 11.1824L30.9459 10.2365L33.3784 9.42568L36.3514 8.61486L39.1892 8.00676L42.0946 7.53378L44.3919 7.26351L47.2297 7.06081Z" fill="#003874"/>
<path d="M29.3919 27.4662H30.7432L32.1622 27.6014L33.7838 27.9392L35.1351 28.3446L36.3513 28.8176L38.0405 29.6284L39.1892 30.3041L40.2027 30.9797L41.0811 31.6554L41.8243 32.2635L43.1757 33.4797L43.9189 34.2905V42.8716L42.973 42.3311L41.4189 41.5878L39.8649 40.9797L37.8378 40.3716L35.9459 39.8986L34.054 39.5608L33.1081 39.4257L31.8919 39.3581H30.473L28.4459 39.4932L26.6892 39.7635L25 40.1689L23.6486 40.6419L22.2973 41.25L20.9459 42.0608L20.2027 42.6689L19.527 43.277L18.8513 44.0203L18.3784 44.6959L17.7703 45.777L17.3649 46.7905L17.027 48.0068L16.8919 48.8176L16.8243 49.5608V50.8446L16.9595 51.9257L17.2297 52.9392L17.5676 53.75L18.1081 54.7635L18.7162 55.5743L19.3243 56.25L19.8649 56.7905L20.8784 57.5338L21.8919 58.1419L23.2432 58.75L24.527 59.1554L25.8784 59.4257L26.4189 59.4932H28.7838L30.473 59.223L32.2297 58.6824L33.7162 58.0068L34.8649 57.3311L36.0135 56.5203L36.6892 55.9797L37.3649 55.3716L37.9054 54.8986L39.3243 53.4797L39.7973 52.9392L40.6757 51.9257L41.4189 50.9797L42.0946 50.1014L43.1081 48.75L45 46.1824L46.0811 44.7635L46.8919 43.6824L47.973 42.2635L48.9189 40.9797L49.9324 39.6284L50.8108 38.4122L51.4865 37.5338L52.2973 36.5203L52.9054 35.777L53.8513 34.7635L54.3243 34.223L55.6081 32.9392L56.1486 32.4662L57.027 31.723L58.0405 30.9797L59.0541 30.3041L60.7432 29.3581L62.3649 28.6824L64.1216 28.1419L65.8784 27.8041L66.9595 27.6689L67.9054 27.6014H69.3919L71.2162 27.7365L72.7703 28.0068L74.4595 28.4797L76.1486 29.1554L77.5676 29.8986L78.9865 30.8446L79.9324 31.5878L80.8108 32.3986L81.5541 33.1419L82.027 33.6824L82.8378 34.6959L83.6486 35.8446L84.2568 36.8581L85.1351 38.4797L85.7432 39.8311L86.3513 41.4527L86.8919 43.277L87.2973 45.0338V45.2365H82.4324L81.6892 44.2905L80.8108 43.4122L79.9324 42.7365L78.9189 42.1284L77.8378 41.5878L76.5541 41.1149L75.0676 40.777L74.0541 40.6419H71.8919L70.4054 40.8446L68.9189 41.25L67.2297 41.9257L66.0811 42.5338L65.1351 43.1419L63.8513 44.0878L62.8378 44.9662L61.6892 46.0473L60.8784 46.9257L60.2703 47.6014L59.0541 49.0878L58.1081 50.3041L57.1622 51.5878L56.1486 52.9392L53.3108 56.7905L52.6351 57.6689L51.7568 58.8176L50.9459 59.8311L50.3378 60.5743L49.5946 61.4527L48.9865 62.1959L48.1757 63.1419L47.5676 63.8176L46.9595 64.5608L46.2162 65.3041L45.7432 65.8446L44.6622 66.8581L43.7162 67.7365L42.7703 68.4797L41.554 69.3581L40.3378 70.1013L39.3243 70.6419L37.6351 71.3176L36.3513 71.723L34.7973 72.0608L32.973 72.2635H30.5405L28.7838 72.0608L26.9595 71.6554L25.1351 71.0473L23.3108 70.1689L22.2297 69.4932L21.4865 68.9527L20.5405 68.2095L19.527 67.2635L18.9865 66.723L18.3784 65.9797L17.7027 65.1689L16.8243 63.8851L15.8784 62.2635L15.1351 60.777L14.3919 58.8851L13.8513 57.2635L13.3784 55.3716L13.0405 53.5473L12.8378 51.7905L12.7703 50.9122V47.7365L12.973 45.3716L13.3108 43.277L13.7838 41.25L14.5946 38.8176L15.2703 37.1959L16.1486 35.5068L16.7568 34.5608L17.4324 33.6149L18.0405 32.8716L18.6486 32.1959L19.054 31.723L19.5946 31.25L20.6757 30.3716L21.6892 29.6959L23.1757 28.8851L24.9324 28.2095L26.2162 27.8716L27.7027 27.6014L29.3919 27.4662Z" fill="white"/>
<path d="M30.473 39.2905H31.8919L33.1081 39.3581L35.2703 39.6959L37.0946 40.1013L39.1892 40.7095L40.2027 41.0473L42.027 41.7905L43.446 42.5338L43.9189 42.8716V47.7365L43.1081 48.8176L42.1622 50.1014L41.4189 51.0473L40.5406 52.1284L39.7297 53.0743L38.7838 54.0878L37.5 55.3716L36.7568 55.9797L36.2162 56.4527L35.0676 57.2635L34.0541 57.8716L32.973 58.4122L32.027 58.8176L30.473 59.2905L28.7838 59.5608H26.4189L25.1352 59.3581L23.5811 58.9527L22.027 58.277L21.0811 57.7365L20.1352 57.0608L19.3243 56.3176L18.7838 55.777L18.0406 54.7635L17.2973 53.3446L16.9595 52.2635L16.8243 51.5878L16.7568 50.8446V49.5608L16.8919 48.3446L17.1622 47.1959L17.6352 45.9122L18.1757 44.8986L18.6487 44.223L19.3919 43.3446L20 42.7365L21.1487 41.8581L22.5676 41.0473L24.1892 40.3716L25.473 39.9662L27.4325 39.5608L29.2568 39.3581L30.473 39.2905Z" fill="#003874"/>
<path d="M82.7027 54.3581H87.5676L87.5 55.1689L87.2297 56.6554L86.8243 58.4797L86.2162 60.4392L85.5405 62.1284L84.7297 63.8176L83.9189 65.1689L83.2432 66.1149L82.7027 66.7905L82.0946 67.4662L81.6216 68.0068L81.0811 68.5473L80.3378 69.1554L79.3243 69.8986L78.1757 70.5743L76.6216 71.3176L75 71.8581L73.4459 72.1959L71.6892 72.3986H69.5946L67.8378 72.1959L66.4865 71.8581L64.7973 71.25L63.1081 70.3716L61.6892 69.4257L60.8108 68.75L59.9324 67.9392L59.3919 67.4662L58.6486 66.723L58.1757 66.1824L57.3649 65.2365L56.3513 63.8851L55.5405 62.6689V56.4527L55.9459 56.5878L57.8378 57.5338L59.3919 58.277L61.0135 59.0203L62.9054 59.7635L64.6621 60.3041L66.1486 60.6419L67.6351 60.8446L68.6486 60.9122H69.7973L71.7567 60.777L73.4459 60.5068L75.2703 60.0338L76.7567 59.4932L77.9054 58.9527L79.1216 58.2095L79.8649 57.6689L80.7432 56.9257L81.2838 56.3851L81.9594 55.5068L82.7027 54.3581Z" fill="white"/>
<path d="M55.473 16.9932H55.5406V33.0743L53.9865 34.6284L53.5135 35.1689L52.8379 35.9122L52.0946 36.8581L51.2162 37.9392L50.3379 39.1554L49.3919 40.4392L48.3108 41.8581L47.3649 43.1419L45.4054 45.7095L44.4595 46.9932L43.9865 47.6689H43.9189V20.8446L44.5946 20.5743L48.7162 19.223L53.1757 17.7365L55.473 16.9932Z" fill="#EC1C24"/>
<path d="M55.5406 53.6824H55.6081V79.7635L52.8379 80.7095L49.4595 81.8581L43.9865 83.6824H43.9189V67.4662L44.7973 66.6554L45.2703 66.1824L45.8108 65.7095L46.7568 64.6959L47.4325 63.9527L47.9054 63.4122L48.7162 62.4662L49.4595 61.5878L50.0676 60.8446L50.8108 59.9662L51.4865 59.0878L52.4325 57.8716L53.446 56.5203L55.3379 53.9527L55.5406 53.6824Z" fill="#EC1C24"/>
</svg>
