<svg width="59" height="70" viewBox="0 0 59 70" fill="none" xmlns="http://www.w3.org/2000/svg">
<g clip-path="url(#clip0_206_711)">
<path d="M20.7724 2.65332L20.8745 2.68733V66.9998L20.3303 66.8638L15.5349 65.6054L13.5964 65.0953L6.35229 63.1907L1.45489 61.8984L1.35286 61.8643L1.31885 59.8578V10.5436L1.35286 7.75479L2.44117 7.48271L6.65838 6.36039L8.08679 5.98628L9.41317 5.64618L11.5898 5.06801L16.2151 3.84366L19.6501 2.95941L20.7724 2.65332Z" fill="#FDE96C"/>
<path d="M42.525 26.3232L43.3412 26.9354L43.9534 27.4116L44.4975 27.8197L45.0757 28.2618L45.5178 28.6019L46.232 29.1461L46.7762 29.5542L47.4904 30.0983L48.1366 30.5745L48.8508 31.1186L49.3269 31.4927L50.7553 32.581L51.2995 32.9892L51.9117 33.4653L52.5578 33.9414L52.966 34.2475L53.5781 34.7237L54.5304 35.4379L55.2446 35.982L55.1766 36.1181L54.5644 36.5942L54.0203 37.0023L53.4081 37.4784L52.7279 37.9886L52.2858 38.3287L51.5716 38.8728L50.9254 39.349L50.3132 39.8251L49.599 40.3693L49.0548 40.7774L48.4427 41.2535L47.7965 41.7297L47.3203 42.1038L46.7762 42.5119L46.062 43.0561L45.3818 43.5662L44.9397 43.9063L44.2595 44.4164L43.6473 44.8926L42.763 45.5728L42.525 45.7088L42.491 45.6408V40.5733H24.8739L24.6698 40.6073L24.6358 41.5596L22.7653 41.5936H21.915V32.7511L21.949 30.4724L21.9831 30.4384H24.4998L24.6358 30.4724L24.6698 31.4927H42.491L42.525 26.3232Z" fill="#CD5772"/>
<path d="M21.8811 0H21.9151V7.78824L22.1532 7.75423H24.4999L24.5679 7.82225L24.5339 7.95829H24.5679L24.6019 6.69993H35.6891L36.0632 6.73393V26.6637L34.8728 26.6977L35.0429 26.8677V29.1124L35.0089 29.3164H34.9409V29.3844H36.8794V29.4185H25.01L24.874 29.3504L24.908 27.3779L24.942 13.1958L29.6013 13.1618L29.6353 13.1958L29.6693 26.6297L31.6759 26.6637L31.6419 11.1212H24.6359V12.1075L24.5339 12.1415H21.9491L21.9151 12.1075L21.8811 8.23036V0Z" fill="#E5EEF7"/>
<path d="M27.3228 42.6133H35.3831V42.6473L35.009 42.6813L35.043 42.9874V45.13L35.009 45.3001L35.043 45.3341L35.3491 45.3681L36.0633 45.4021V62.9511H24.602L24.568 61.8968H22.1193L22.0513 61.8288L22.1193 61.5567L22.0853 61.3187V60.3324L22.1193 59.6182V58.1217L22.1533 57.8497L22.2893 57.6456L22.2213 57.5776L23.7177 57.5436L24.602 57.5096L24.636 57.5436V58.5299L31.642 58.4958L31.676 45.3681H29.6354V56.4553H24.9421L24.9081 44.8919V42.6473L27.3228 42.6133Z" fill="#E6EEF7"/>
<path d="M40.4505 22.209L40.5866 22.277L41.0287 22.6171L41.4368 22.9232L42.7292 23.9095L43.2733 24.3176L43.9875 24.8617L44.5317 25.2699L46.5383 26.8003L47.0824 27.2084L47.5246 27.5485L48.0687 27.9566L48.7829 28.5008L49.3611 28.9429L49.8032 29.283L50.2113 29.5891L50.9255 30.1333L51.4697 30.5414L52.354 31.2216L52.8981 31.6297L53.6123 32.1738L54.2925 32.684L54.9047 33.1601L55.4488 33.5682L56.7412 34.5545L57.1493 34.8606L57.8635 35.4048L58.5437 35.9149L58.6118 35.9489V36.085L57.9656 36.5611L57.4894 36.9352L56.9453 37.3433L56.3331 37.8195L55.7209 38.2616H55.6529V38.3296L55.1087 38.7377L54.6666 39.0778L54.2925 39.3499L53.6803 39.826L53.2382 40.1661L52.592 40.6423L52.456 40.7443H52.388V40.8123L52.2519 40.8463V40.9144L52.0139 41.0844H51.9458V41.1524L51.4017 41.5605L51.0276 41.8326L50.4494 42.2747H50.3814V42.3428L50.0413 42.5808H49.9733V42.6489L49.8372 42.6829V42.7509L49.4971 42.989H49.4291V43.057L48.885 43.4651L48.7149 43.5331V43.6011L47.3545 44.6214H47.2865V44.6894L47.1505 44.7235V44.7915L46.7763 45.0636H46.7083V45.1316L46.5723 45.1656V45.2336L46.4363 45.2676V45.3356L45.7901 45.8118L45.3819 46.1179H45.3139V46.1859L44.3617 46.9001H44.2936V46.9681L43.6474 47.4442L43.1713 47.8183L42.7632 48.1244L41.3348 49.2127L40.9607 49.4848H40.8927V49.5528L40.5186 49.8249H40.4505V42.6148H24.67L24.636 41.4925V40.6083L24.8741 40.5403L42.4911 40.5743L42.5251 41.1524V45.6417H42.6272L43.2393 45.1656L44.1236 44.4854L44.8378 43.9412L45.2459 43.6351L46.6743 42.5468L47.6266 41.8326L48.2388 41.3565L48.7829 40.9484L49.3611 40.5062L50.0753 39.9621L50.6195 39.554L51.2316 39.0778L51.6057 38.8058L52.3199 38.2616L52.7281 37.9555L54.3265 36.7312L55.0407 36.187L55.2108 36.051L55.1768 35.9489L54.5306 35.4728L54.0884 35.1327L53.4083 34.6226L52.9321 34.2484L52.2859 33.7723L51.5717 33.2282L50.2794 32.2419L49.7352 31.8337L49.2931 31.4937L48.8169 31.1195L48.1027 30.5754L47.4565 30.0993L46.7423 29.5551L46.1982 29.147L45.484 28.6028L43.7495 27.2764L43.3074 26.9363L42.5931 26.3922L42.5591 26.3582L42.5251 30.8475L42.4911 31.4937H24.67L24.636 31.2896V29.4531L24.67 29.4191H40.4505V22.209Z" fill="#010001"/>
<path d="M4.34572 6.97168L4.41374 7.00569V62.5437L4.31171 62.6117L3.9376 62.5437L1.69296 61.9655L1.35286 61.8635L1.31885 59.8569V10.5427L1.35286 7.7539L2.44117 7.48183L3.5975 7.17574L4.34572 6.97168Z" fill="#E09936"/>
<path d="M26.1663 11.0869H31.6418L31.6758 11.1209V26.6634H29.6693L29.6353 26.6294L29.6012 13.1955H24.9419V27.5136L24.9079 29.3502L25.0099 29.4182L24.6698 29.4522V30.4385L24.4998 30.4725H21.949L21.915 29.4522V12.1072H24.6358V11.1209L26.1663 11.0869Z" fill="#556274"/>
<path d="M24.6358 41.4922L24.6698 41.5942V42.6145H27.3226V42.6485H24.9079L24.9419 44.8932V56.4565H29.6353V45.3693H31.6758V58.4971L31.6418 58.5311H24.6358L24.6018 57.5448H21.915V41.6962L21.949 41.5942L22.0171 41.5602H24.6358V41.4922Z" fill="#556274"/>
<path d="M29.4653 13.1621L29.6354 13.1961L29.6694 26.63L30.6557 26.664V29.4188H25.0101L24.874 29.3508L24.908 27.3782L24.942 13.1961L29.4653 13.1621Z" fill="#71849C"/>
<path d="M27.3227 42.6133H32.7302V42.6473L30.6556 42.6813V45.3001L31.6419 45.3341V45.3681H29.6353V56.4553H24.942L24.908 44.8919V42.6473L27.3227 42.6133Z" fill="#71849C"/>
<path d="M24.636 6.7002H35.6892L36.0633 6.73421V26.6639H34.0227V8.77479H24.636V6.7002Z" fill="#020102"/>
<path d="M34.0227 45.3701H35.3491L36.0633 45.4041V62.9532H24.636V60.8786H34.0227V45.3701Z" fill="#010002"/>
<path d="M26.1663 11.0869H31.6418L31.6758 11.1209V26.6634H29.6693L29.6353 26.6294L29.6012 13.1955H24.6698L24.6358 13.1615L24.6018 12.1412L24.6358 11.1209L26.1663 11.0869Z" fill="#010001"/>
<path d="M14.4127 31.2207H15.2969L15.8411 31.3227L16.3512 31.4928L16.8954 31.7989L17.3715 32.173L17.7116 32.5471L18.0517 33.0572L18.2898 33.5674L18.4258 34.0775L18.4938 34.5197V35.0978L18.3918 35.71L18.2218 36.2201L18.0177 36.6283L17.6436 37.1724L17.2355 37.5805L16.7593 37.9206L16.2152 38.1927L15.637 38.3628L15.0929 38.4308H14.6167L13.9705 38.3287L13.3584 38.1247L12.8822 37.8526L12.5421 37.5805L12.202 37.2744L11.8959 36.8663L11.7259 36.6283L11.4198 35.9141L11.2838 35.3359L11.2498 34.7237L11.3178 34.1455L11.4878 33.4994L11.7599 32.9552L12.032 32.5811L12.3381 32.241L12.5761 32.0029L13.0183 31.6968L13.5624 31.4248L14.0045 31.2887L14.4127 31.2207Z" fill="#010001"/>
<path d="M29.6354 45.3701H31.676V58.4979L31.642 58.5319H24.636V56.4913L24.738 56.4573H29.6014L29.6354 45.3701Z" fill="#010001"/>
<path d="M21.9831 30.4385H24.4998L24.6358 30.4725L24.6698 31.4928H28.5129V31.5268H24.9419V40.5054L24.8739 40.5734L24.6698 40.6074L24.6358 41.5597L22.7653 41.5937H21.915V32.7511L21.949 30.4725L21.9831 30.4385Z" fill="#C41F45"/>
<path d="M21.8811 0H21.9151V7.78824L22.1532 7.75423H24.4999L24.5679 7.82225L24.5339 7.95829H24.5679L24.6019 6.69993H24.6359L24.6699 8.77452L24.8059 8.80853L24.874 9.28467L24.84 9.82883L24.874 10.373L24.908 10.543V10.8491L24.84 11.0532L24.7379 11.0192V11.0872L25.6562 11.0532H28.8871V11.0872L26.1663 11.1212H24.6359V12.1075L24.5339 12.1415H21.9491L21.9151 12.1075L21.8811 8.23037V0Z" fill="#CCD7E2"/>
<path d="M31.676 45.3701H31.71V58.5319L31.676 58.5659L24.8061 58.5999L24.8401 58.872V60.6405L24.8061 60.7425L24.704 60.7765L24.67 60.8446H32.7303V60.8786H24.636V62.9532H24.602L24.568 61.8989H22.1193L22.0513 61.8308L22.1193 61.5588L22.0853 61.3207V60.3344L22.1193 59.6202V58.1238L22.1533 57.8517L22.2893 57.6476L22.2213 57.5796L23.7177 57.5456L24.602 57.5116L24.636 57.5456V58.5319L31.642 58.4979L31.676 45.3701Z" fill="#CCD7E2"/>
<path d="M4.34564 6.97168L4.41366 7.00569V62.5437L4.31163 62.6117L3.93753 62.5437L1.69288 61.9655L1.4208 61.8635L1.38679 61.8294V61.4553H1.48882L1.59085 61.6594L1.69288 61.7274V61.7954L1.82892 61.8294L2.13501 61.9655L2.47511 62.0335L2.78119 62.1355L3.22332 62.2376L3.52941 62.3056L3.73347 62.3736H4.24361L4.31163 62.2036V10.9508L4.34564 9.14831V7.48183L4.27762 7.34579L3.97154 7.3798H3.86951H3.69946L3.1553 7.51584L2.91723 7.58386L2.61114 7.65188L2.40709 7.71989L2.16902 7.7539L2.13501 7.82192H2.03298L1.69288 7.95796L1.59085 8.05999L1.55684 8.33207V9.52241L1.48882 10.4407L1.45481 10.5087V60.367H1.48882V60.6051H1.45481L1.4208 61.1152H1.38679L1.35278 57.6122V7.7539L2.4411 7.48183L3.59743 7.17574L4.34564 6.97168Z" fill="#ECAF47"/>
<path d="M14.5488 33.2627H15.195L15.6031 33.3987L15.9092 33.6368L16.1473 33.8749L16.3513 34.249L16.4194 34.419L16.4534 34.6231V35.0652L16.3513 35.4053L16.1133 35.8134L15.8412 36.0855L15.3991 36.3236L15.127 36.3916H14.5828L14.1747 36.2556L13.9706 36.1195L13.6646 35.8474L13.4605 35.5073L13.3245 35.2013V34.453L13.4605 34.0789L13.7326 33.7388L13.9026 33.5688L14.1407 33.3987L14.5488 33.2627Z" fill="#E4EDF5"/>
<path d="M30.1794 34.9619H32.152L32.22 34.9959V36.9685L31.6079 37.0025H30.2475L30.1794 36.9685V34.9619Z" fill="#FDFDFD"/>
<path d="M33.6143 34.9619H35.5869L35.6209 34.9959V36.9685L35.0087 37.0025H33.7844L33.5803 36.9685V34.9959L33.6143 34.9619Z" fill="#FDFDFD"/>
<path d="M4.34564 6.97168L4.41366 7.00569V7.51584L4.34564 7.48183L4.27762 7.34579L3.97154 7.3798H3.86951H3.69946L3.1553 7.51584L2.91723 7.58386L2.61114 7.65188L2.40709 7.71989L2.16902 7.7539L2.13501 7.82192H2.03298L1.69288 7.95796L1.59085 8.05999L1.55684 8.33207V9.52241L1.48882 10.4407L1.45481 10.5087H1.38679V12.5153H1.35278V7.7539L2.4411 7.48183L3.59743 7.17574L4.34564 6.97168Z" fill="#E6A749"/>
<path d="M21.949 57.5107L23.7176 57.5448V57.5788L22.2891 57.6128L22.3232 57.6808H22.2551L22.1871 57.8508L22.1531 58.327V59.8914L22.1191 60.5036V61.4899L22.1531 61.5919L22.0851 61.762L22.1191 61.898H21.949V62.1361H21.915V57.5448L21.949 57.5107Z" fill="#E2EBF4"/>
<path d="M22.949 7.82227L23.051 7.85628H22.983L23.085 8.06033L23.153 8.84256V9.86285L23.119 10.1689L23.153 10.237L23.119 10.5771V11.2232L23.085 11.3253L23.153 11.8694L23.119 11.9374L23.2211 12.0395L24.1053 12.0735V12.1075L23.9012 12.1415H22.949V7.82227Z" fill="#E5EEF7"/>
<path d="M1.38672 61.4551H1.48875L1.59078 61.6591L1.69281 61.7272V61.7952L1.82885 61.8292L2.13493 61.9652L2.47503 62.0332L2.78112 62.1353L3.22325 62.2373L3.52933 62.3053L3.7674 62.4074V62.4754L3.3933 62.4074L1.45474 61.8972L1.38672 61.8292V61.4551Z" fill="#E7A849"/>
<path d="M21.915 41.4922H24.6358V41.5602L22.7653 41.5942H21.915V41.4922Z" fill="#DA8967"/>
<path d="M24.4657 57.5107H24.6018V58.361L24.4997 58.429L24.4317 58.361L24.3977 58.0209V57.5448L24.4657 57.5107Z" fill="#E6EDF2"/>
<path d="M2.06689 61.9658L2.47501 62.0338L2.7811 62.1359L3.22323 62.2379L3.52931 62.3059L3.76738 62.4079V62.476L3.39328 62.4079L2.1009 62.0678L2.06689 61.9658Z" fill="#E59947"/>
<path d="M15.3987 36.1191H15.6708V36.1872L15.3987 36.3232L15.1266 36.3912H14.8206L14.9566 36.2212L15.2287 36.1532L15.3987 36.1191Z" fill="#EFEDE7"/>
<path d="M15.6367 33.5L15.8068 33.534L16.1469 33.8741L16.3169 34.1462V34.2482L16.1809 34.2142L16.0448 34.0442V33.9081L15.7728 33.67L15.7047 33.636V33.534L15.6367 33.5Z" fill="#EFF0F0"/>
<path d="M13.4943 35.3027L13.6303 35.4388L13.7664 35.7109L13.7324 35.8469H13.6643L13.4603 35.5068L13.4263 35.3367L13.4943 35.3027Z" fill="#F5F6F6"/>
<path d="M35.1108 34.9971H35.621V35.6433H35.587L35.553 35.1671L35.3149 35.1331L35.1108 35.0311V34.9971Z" fill="#E0EAF3"/>
<path d="M3.08716 62.2383L3.29122 62.2723L3.52929 62.3063L3.76735 62.4083V62.4763L3.39325 62.4083L3.08716 62.3063V62.2383Z" fill="#E59848"/>
<path d="M33.9886 60.2324H34.0226V60.8786L33.7505 60.8446L33.8185 60.7086L33.9886 60.6405V60.2324Z" fill="#F9FAFB"/>
<path d="M15.6367 33.5L15.8068 33.534L16.1129 33.8401L15.9768 33.8741L15.7728 33.636H15.7047V33.534L15.6367 33.5Z" fill="#FAF9F8"/>
<path d="M24.4998 7.75391H24.6018V8.53613H24.5678L24.5338 8.05999H24.4998V7.85594V7.75391Z" fill="#E6EFF8"/>
<path d="M2.71313 62.1357L2.98521 62.1698L3.08724 62.2378V62.3058L2.74714 62.2378L2.71313 62.1357Z" fill="#E7A048"/>
<rect x="0.318848" y="7" width="1" height="56" fill="#010001"/>
<rect x="20.3188" y="2" width="2" height="66" fill="#010001"/>
<path d="M0.318811 6.99965L20.3188 1.99973L20.3188 3L0.318865 8L0.318811 6.99965Z" fill="#010001"/>
<path d="M1.31885 61.5L20.3187 66.5002L20.318 68.0034L1.31875 63L1.31885 61.5Z" fill="#010001"/>
</g>
<defs>
<clipPath id="clip0_206_711">
<rect width="58.6118" height="69.472" fill="white"/>
</clipPath>
</defs>
</svg>
