<svg width="60" height="60" viewBox="0 0 60 60" fill="none" xmlns="http://www.w3.org/2000/svg">
<path d="M1.08398 10.5762H58.7988L59.1504 10.6348L59.502 10.8105L59.707 10.9863L59.9414 11.3672L60 11.5137V44.209L59.9414 44.2676L59.8242 44.8242L59.6191 45.4688L59.2969 46.1426L59.0918 46.4941L58.9453 46.7578L58.623 47.1387L58.3594 47.4609L58.2715 47.5781H58.2129L58.1543 47.6953L57.8613 47.9297L57.5391 48.1934L57.2461 48.3984L56.5137 48.8086L56.1328 48.9844L55.5176 49.1895L54.8438 49.3359L54.375 49.3945L53.6719 49.4238H6.24023L5.53711 49.3945L4.77539 49.2773L4.07227 49.0723L3.54492 48.8379L2.98828 48.5449L2.57812 48.2812L2.08008 47.8711L1.78711 47.6074L1.43555 47.2266L1.11328 46.8164L0.849609 46.4062L0.527344 45.8203L0.292969 45.2344L0.0878906 44.4727L0 44.0625V11.4844L0.234375 11.0449L0.439453 10.8398L0.732422 10.6641L1.08398 10.5762ZM13.5352 12.9785L4.51172 13.0078L4.6582 13.1543L5.06836 13.5059L5.36133 13.7402L5.68359 14.0039L6.67969 14.8242L7.64648 15.6152L8.14453 16.0254L8.55469 16.3477L8.96484 16.6992L9.375 17.0215L9.75586 17.3438L10.166 17.666L10.5762 18.0176L10.8691 18.252L11.1914 18.5156L11.6895 18.9258L12.1582 19.3066L12.6562 19.7168L12.9785 19.9805L13.4473 20.3613L13.8281 20.6836L14.2383 21.0059L14.5898 21.2988L14.9121 21.5625L15.4102 21.9727L16.377 22.7637L16.8457 23.1445L17.3438 23.5547L20.8887 26.4551L21.3867 26.8652L22.6758 27.9199L23.1738 28.3301L23.584 28.6523L23.9941 29.0039L24.4043 29.3262L24.8145 29.6777L25.1074 29.9121L26.3965 30.9668L26.8945 31.377L27.3047 31.6992L27.7148 32.0508L28.125 32.373L28.5059 32.6953L28.916 33.0176L29.3262 33.3691L29.7363 33.6914L29.9707 33.8672L30.0879 33.8379L30.5273 33.457L30.791 33.252L31.2891 32.8418L31.6992 32.5195L32.0801 32.1973L32.7246 31.6699L33.1934 31.2891L33.6035 30.9668L34.0137 30.6152L34.4238 30.293L34.8047 29.9707L35.2148 29.6484L35.625 29.2969L35.918 29.0625L36.2402 28.7988L36.5332 28.5645L36.9141 28.2422L37.1777 28.0371L37.5586 27.7148L37.8223 27.5098L38.3203 27.0996L38.7305 26.7773L39.1406 26.4258L39.5508 26.1035L39.9316 25.7812L40.2246 25.5469L40.5469 25.2832L41.0449 24.873L41.5137 24.4922L41.9238 24.1699L42.334 23.8184L42.7441 23.4961L43.125 23.1738L43.5352 22.8516L43.9453 22.5L44.2383 22.2656L44.5605 22.002L44.8535 21.7676L45.2344 21.4453L45.498 21.2402L45.8789 20.918L46.1426 20.7129L46.6406 20.3027L47.0508 19.9805L47.4609 19.6289L47.8711 19.3066L48.252 18.9844L48.6621 18.6621L49.0723 18.3105L49.3652 18.0762L49.834 17.6953L50.127 17.4902L50.4492 17.3438L50.6543 17.3145H50.9766L51.2988 17.4316L51.5625 17.6074L51.7676 17.8418L51.8848 18.0762L51.9434 18.2812V18.6914L51.8262 19.0137L51.6504 19.2773L51.3867 19.541L50.9766 19.8633L50.5664 20.2148L50.1562 20.5371L49.7754 20.8594L49.3652 21.1816L48.9844 21.5039L48.5742 21.8262L48.2227 22.1191L47.5781 22.6465L47.0801 23.0566L46.7871 23.291L45.791 24.1113L45.498 24.3457L45.1758 24.6094L44.7949 24.9316L44.3848 25.2539L43.8867 25.6641L43.5645 25.9277L43.0664 26.3379L42.6562 26.6602L42.2754 26.9824L41.8066 27.3633L41.4844 27.627L40.5469 28.3887L40.0488 28.7988L39.7559 29.0332L39.4043 29.3262L39.082 29.5898L38.6133 29.9707L37.9688 30.498L37.4707 30.9082L37.1777 31.1426L36.5332 31.6699L36.0352 32.0801L35.625 32.4023L35.2148 32.7539L34.7461 33.1348L34.3359 33.457L33.9551 33.7793L33.4863 34.1602L33.1641 34.4238L32.2266 35.1855L31.7285 35.5957L31.4355 35.8301L31.084 36.123L30.7031 36.416L30.4102 36.5625L30.2051 36.6211H29.7949L29.502 36.5332L29.209 36.3574L28.8867 36.0938L28.5059 35.7715L28.2129 35.5371L27.7441 35.1562L27.4219 34.8926L26.9238 34.4824L26.4551 34.1016L26.0742 33.7793L25.6641 33.457L25.166 33.0469L24.7852 32.7246L24.4922 32.4902L24.1699 32.2266L23.877 31.9922L23.4961 31.6699L23.0859 31.3477L22.7051 31.0254L22.2949 30.7031L21.8848 30.3516L21.5918 30.1172L20.9473 29.5898L20.4492 29.1797L20.0391 28.8574L19.6289 28.5059L19.1602 28.125L18.75 27.8027L18.3105 27.4219L17.9004 27.0996L17.5195 26.7773L17.2266 26.543L16.7285 26.1328L16.4062 25.8691L15.9375 25.4883L15.4395 25.0781L14.7949 24.5508L14.2969 24.1406L14.0039 23.9062L13.0078 23.0859L12.7148 22.8516L12.334 22.5293L12.041 22.2949L11.5723 21.9141L11.25 21.6504L10.752 21.2402L10.2832 20.8594L9.96094 20.5957L9.46289 20.1855L8.99414 19.8047L8.67188 19.541L8.17383 19.1309L7.70508 18.75L7.32422 18.4277L6.91406 18.1055L6.41602 17.6953L6.03516 17.373L5.74219 17.1387L5.41992 16.875L4.95117 16.4941L4.45312 16.084L3.98438 15.7031L3.66211 15.4395L3.16406 15.0293L2.69531 14.6484L2.43164 14.4434H2.40234V43.3301L2.46094 43.9746L2.63672 44.5898L2.87109 45.0879L3.13477 45.498L3.51562 45.9375L3.92578 46.2891L4.36523 46.5527L4.80469 46.7578L5.30273 46.9043L6.03516 46.9922H53.8477L54.5215 46.9336L54.9902 46.8164L55.459 46.6406L55.9277 46.377L56.1914 46.1719L56.5723 45.8496L56.8359 45.5273L57.041 45.2344L57.3047 44.7363L57.4512 44.2969L57.5391 43.916L57.5977 43.0957V13.0078L55.4297 12.9785H13.5352Z" fill="#1B1B1B"/>
<path d="M54.1113 14.5312L54.4336 14.5605L54.7266 14.6777L55.0195 14.9121L55.2246 15.2051L55.3418 15.5859V15.9082L55.2246 16.2598L55.0488 16.5234L54.7266 16.8457L54.3164 17.1094L54.082 17.1973L53.9062 17.2266H53.6719L53.291 17.1387L52.998 16.9629L52.8223 16.7578L52.6172 16.3477L52.5879 16.2012V15.8203L52.7344 15.4102L52.998 15.1172L53.2324 14.8828L53.6133 14.6484L53.8184 14.5605L54.1113 14.5312Z" fill="#1B1B1B"/>
</svg>
