<svg width="100" height="100" viewBox="0 0 100 100" fill="none" xmlns="http://www.w3.org/2000/svg">
<circle cx="46.5" cy="46.5" r="45" stroke="#464646" stroke-width="3"/>
<path d="M45.9576 25H47.8214L49.2043 25.1202L50.3466 25.3607L51.3086 25.7215L52.3307 26.2626L53.1725 26.924L54.0743 27.8258L54.4952 28.4872L54.9161 29.2087L54.9762 29.3891H55.0964L55.2167 29.1486L55.6977 28.6074L56.1186 28.1265L56.84 27.5853L57.6818 27.1043L58.3432 26.8037L59.6058 26.443L60.7481 26.3227H61.5297L63.093 26.5031L64.1752 26.8037L65.1372 27.2847L65.9789 27.8258L66.7004 28.4872L67.2415 29.1486L67.7826 30.0504L68.2636 31.1928L68.5041 31.9744L68.6845 32.9965L68.7446 33.8984V35.7622L68.6244 37.4457L68.3238 39.069L67.963 40.1513L67.5421 41.1133L67.1213 41.8348L66.52 42.6164L65.7384 43.398L64.9568 43.9391L64.0549 44.36L63.0328 44.6606L62.0107 44.841H60.3272L59.3051 44.6606L58.1027 44.1796L57.1407 43.6986L56.5996 43.3379L56.0584 42.7967L55.5173 42.436L55.3971 42.7967L54.6155 44.1796L54.0142 45.2618L54.1946 45.2017L55.0964 44.6606L55.9382 44.1195L56.1186 43.9992L56.6597 44.1195L57.5615 44.6005L57.802 44.9011L57.8622 45.0213V45.5625L57.4413 46.1637L56.7799 46.7048L55.9983 47.2459L54.9762 47.7871L53.894 48.268L53.4731 48.5085L53.7136 48.8092L54.6756 49.3503L55.5774 49.8313L56.7198 50.4325L58.1628 51.0939L60.3272 51.9356L61.5297 52.3565L62.2512 52.6571L63.1531 53.1381L63.8144 53.6792L64.2954 54.2805L64.8366 55.2424L65.2574 56.3848L65.4979 57.4069L65.7384 59.8119L65.7985 60.5334V61.1947L65.6783 62.8782L65.4979 63.8402L65.1973 64.4414L64.9568 64.7421L64.3556 65.1629L63.3936 65.704L61.9506 66.3654L60.1469 67.0268L58.4634 67.5679L56.5996 68.0489L55.2167 68.3495L53.1725 68.59L50.9479 68.7704L48.4828 68.8906H43.9735L41.6888 68.7704L39.404 68.5299L37.7807 68.2894L36.3978 67.9888L34.3536 67.3875L32.7904 66.8464L30.9867 66.1249L30.0247 65.6439L29.2431 65.1629L28.5817 64.5617L28.2811 64.0206L28.0406 63.239L27.8602 62.0966L27.8001 61.0745L27.9203 59.391L28.1007 57.7677L28.3412 56.3848L28.7621 55.2424L29.3032 54.2805L29.9646 53.559L30.3253 53.2583L31.2272 52.7172L32.4296 52.2362L34.1131 51.635L35.6763 50.9736L36.7586 50.4926L38.5022 49.6509L39.6445 49.1098L40.0654 48.9294L39.4642 48.3282L38.5022 47.7871L37.4801 47.1257L36.8187 46.7048L36.2776 46.2839L35.8567 45.7428L35.7365 45.5023L35.7966 45.0815L36.0371 44.7207L36.5181 44.4201L37.1795 44.1195L38.0212 44.2999L38.6224 44.7207L39.2838 45.2618L39.5844 45.4422L38.8629 44.0594L38.2617 42.7967L37.9611 42.5562L37.4801 42.8569L36.8788 43.4581L35.977 43.9992L35.496 44.2397L34.3536 44.6005L33.4518 44.7808L32.9708 44.841H31.4075L30.3854 44.6606L29.5437 44.36L28.1608 43.6986L27.5596 43.2176L27.1387 42.7967L26.4774 41.7145L25.9362 40.6924L25.4552 39.4899L25.0945 38.1071L24.9141 37.085L24.854 36.4837V33.5978L25.0344 32.3351L25.335 31.1928L25.8761 29.9302L26.3571 29.1486L27.0185 28.367L27.6798 27.7657L28.5216 27.2246L29.4234 26.8037L30.8063 26.443L31.9487 26.3227H32.7904L34.3536 26.5031L35.2555 26.7436L36.0371 27.0442L36.9991 27.6455L37.7807 28.367L38.2617 28.9682L38.5623 29.5093L38.9231 28.7878L39.404 28.0663L39.885 27.4651L40.4863 26.8638L41.2679 26.2626L42.1096 25.7816L43.1317 25.3607L43.9735 25.1804L45.0557 25.0601L45.9576 25ZM46.0177 27.2847L45.176 27.405L44.1539 27.7056L42.8912 28.3068L42.1698 28.8479L41.8691 29.0884L41.4483 29.5694L40.9072 30.4112L40.4262 31.3732L40.0053 32.6358L39.8249 33.718L39.7648 34.3192V37.6862L39.885 39.0089L40.1857 40.512L40.7268 42.1354L41.2078 43.0974L41.8691 43.9992L42.4103 44.6005L43.1317 45.2017L44.1539 45.7428L45.4165 46.1036L46.2582 46.2238H47.5809L48.603 46.0435L49.565 45.6827L50.4669 45.2017L51.2485 44.6005L51.7295 44.1195L52.451 43.0974L52.9921 41.8949L53.4731 40.4519L53.7136 39.0089L53.8338 37.7463V34.68L53.7136 33.2971L53.4731 32.0946L53.1725 31.313L52.5111 30.0504L51.97 29.3891L51.4289 28.8479L50.5871 28.2467L49.6252 27.8258L48.4227 27.4651L47.2803 27.2847H46.0177ZM31.5278 28.8479L30.4455 29.0884L29.6038 29.5093L28.9424 30.0504L28.4013 30.7118L27.9203 31.7339L27.6197 32.6959L27.4393 33.7781L27.3792 34.4996V36.2432L27.4995 37.3856L27.74 38.4678L28.0406 39.2494L28.5216 40.2114L29.0026 40.8728L29.6038 41.474L30.3854 41.955L31.2272 42.2556L31.8284 42.3759H33.091L34.1131 42.0753L35.015 41.5943L35.6162 41.0531L35.9168 40.7525L36.3377 40.1513L36.6383 39.55L36.9991 38.5881L37.1193 37.9267L37.1795 37.1451L37.2997 33.8382V32.3351L36.8187 31.3732L36.0972 30.4112L35.5561 29.8701L34.7144 29.3289L33.7524 28.9682L33.1511 28.8479H31.5278ZM60.3272 28.8479L59.4254 29.0283L58.6438 29.3289L58.1027 29.7498L57.3812 30.4713L56.9002 31.313L56.6597 31.9143L56.4192 33.0566L56.3591 33.8984V36.9046L56.4793 37.9868L56.7198 38.9488L57.2008 39.9709L57.6818 40.6924L58.3432 41.4139L59.1849 41.8949L60.2671 42.2556L60.8684 42.3759H61.8304L62.7923 42.1354L63.7543 41.6544L64.3556 41.1734L64.7764 40.7525L65.1973 40.0912L65.6182 39.1292L65.9188 38.1672L66.0992 37.0248L66.1593 36.4837V33.7781L65.9789 32.5155L65.7384 31.7339L65.2574 30.832L64.7163 30.1707L64.1752 29.6897L63.3335 29.2087L62.3715 28.9081L61.9506 28.8479H60.3272ZM37.8408 30.832L37.6604 31.1928L37.7206 31.3732L37.9009 31.0124L37.8408 30.832ZM52.451 47.1257L50.9479 47.8472L50.2264 48.1478L49.3245 48.3883L47.6411 48.6288H45.5968L44.2741 48.4484L43.1317 48.1478L41.9894 47.6668L41.1476 47.1858L41.0274 47.2459V47.9674L41.1476 48.5085L41.3881 48.9895L41.6888 49.3503L41.8691 49.711V50.0718L41.5084 50.6129L40.5464 51.3344L39.6445 51.8755L38.2617 52.597L36.8788 53.2583L35.3156 53.9197L33.3315 54.5811L32.129 55.1222L31.7683 55.3627L31.2873 55.9038L30.9265 56.7455L30.6259 57.7677L30.4455 58.7898L30.3253 60.1726V61.6156L30.4455 62.4573L30.7462 62.9383L31.648 63.5396L32.7904 64.0807L34.8346 64.8623L36.5782 65.4034L38.6224 65.8844L40.6667 66.2452L42.4704 66.4857L44.5146 66.666L45.5367 66.7262H48.603L50.4669 66.6059L52.451 66.3654L54.4952 66.0047L56.5996 65.5237L58.3432 64.9826L60.5076 64.2009L61.7702 63.6598L62.612 63.1788L63.0328 62.8181L63.2132 62.3371L63.2733 60.5334L63.1531 58.7296L62.9727 57.5272L62.612 56.4449L62.1911 55.7836L61.9506 55.4829L61.3494 55.0621L60.5076 54.7013L58.5235 54.04L57.2609 53.559L55.5774 52.7774L54.6155 52.2964L53.3528 51.5749L52.3909 50.9135L51.9099 50.3724L51.7896 50.0718L51.8497 49.711L52.0301 49.3503L52.451 48.8693L52.5712 48.6288V47.4864L52.5111 47.1257H52.451Z" fill="#494949"/>
<path d="M65.7987 43.9988L66.2195 44.0589L67.0613 44.4798L68.2036 45.2013L69.7067 45.9228L70.9092 46.4037L72.5927 47.0651L73.6148 47.6062L74.3964 48.3277L74.8173 48.929L75.2382 49.8308L75.4787 50.6124L75.659 51.9953L75.7192 53.8591L75.5989 55.4825L75.4185 56.0236L75.178 56.3844L74.6369 56.9255L73.7351 57.4666L72.713 57.9476L70.308 58.7893L67.1815 59.6311L66.6404 59.7513H66.0392L65.8588 59.4507L65.7386 58.6691L65.6784 58.5488V57.7672L65.7987 57.3463L66.2797 57.166L68.9251 56.5647L70.1276 56.204L71.3301 55.7831L72.4123 55.3021L72.8933 54.9414L73.0136 54.761L73.1338 53.9794V52.356L72.9534 51.3339L72.713 50.3719L72.3522 49.8308L71.3301 49.3498L69.5865 48.7486L67.6024 47.8467L66.6404 47.3657L65.4981 46.7044L64.9569 46.2835L64.6563 45.8025L64.5962 45.4418L64.8367 44.8405L65.1974 44.4196L65.6784 44.2994L65.7987 43.9988Z" fill="#494949"/>
<path d="M27.5597 43.9988L27.8604 44.0589L28.5217 44.4798L28.9426 44.9608L29.0027 45.081V45.7424L28.7622 46.1031L28.1009 46.5841L27.1389 47.1854L25.9965 47.7866L24.8542 48.3277L21.5473 49.5903L21.1866 49.8308L20.8258 50.4321L20.5853 51.6345L20.4651 52.6567V53.6186L20.5853 54.6408L20.8258 55.0015L21.3068 55.3021L22.5694 55.9034L24.0124 56.3844L26.1168 56.9255L27.5597 57.2862L27.8604 57.4666L27.9205 57.8273L27.8002 59.2703L27.6199 59.6912L27.199 59.7513L25.756 59.5108L23.4713 58.9096L21.6074 58.2482L19.8638 57.4666L18.9019 56.8653L18.4209 56.3242L18.1804 55.723L18 54.761V51.9953L18.1804 50.6726L18.4209 49.7707L18.9019 48.8087L19.1424 48.448L19.3227 48.2075H19.443L19.5632 47.967L20.3448 47.4259L21.9081 46.7044L23.7719 45.9829L25.4554 45.2013L26.5978 44.6L27.3192 44.2393L27.5597 43.9988Z" fill="#494949"/>
</svg>
