<svg width="100" height="100" viewBox="0 0 100 100" fill="none" xmlns="http://www.w3.org/2000/svg">
<g clip-path="url(#clip0_206_761)">
<mask id="path-1-inside-1_206_761" fill="white">
<path d="M40 28C40 26.3431 41.3431 25 43 25H69C70.6569 25 72 26.3431 72 28V72C72 73.6569 70.6569 75 69 75H43C41.3431 75 40 73.6569 40 72V28Z"/>
</mask>
<path d="M38 28C38 25.7909 39.7909 24 42 24H70C72.2091 24 74 25.7909 74 28H70C70 26.8954 69.5523 26 69 26H43C42.4477 26 42 26.8954 42 28H38ZM74 72C74 74.2091 72.2091 76 70 76H42C39.7909 76 38 74.2091 38 72H42C42 73.1046 42.4477 74 43 74H69C69.5523 74 70 73.1046 70 72H74ZM42 76C39.7909 76 38 74.2091 38 72V28C38 25.7909 39.7909 24 42 24L43 26C42.4477 26 42 26.8954 42 28V72C42 73.1046 42.4477 74 43 74L42 76ZM70 24C72.2091 24 74 25.7909 74 28V72C74 74.2091 72.2091 76 70 76L69 74C69.5523 74 70 73.1046 70 72V28C70 26.8954 69.5523 26 69 26L70 24Z" fill="#515151" mask="url(#path-1-inside-1_206_761)"/>
<mask id="path-3-inside-2_206_761" fill="white">
<path d="M40 28C40 26.3431 41.3431 25 43 25H69C70.6569 25 72 26.3431 72 28V32H40V28Z"/>
</mask>
<path d="M72 32V33H73V32H72ZM40 32H39V33H40V32ZM43 26H69V24H43V26ZM71 28V32H73V28H71ZM72 31H40V33H72V31ZM41 32V28H39V32H41ZM69 26C70.1046 26 71 26.8954 71 28H73C73 25.7909 71.2091 24 69 24V26ZM43 24C40.7909 24 39 25.7909 39 28H41C41 26.8954 41.8954 26 43 26V24Z" fill="#515151" mask="url(#path-3-inside-2_206_761)"/>
<mask id="path-5-inside-3_206_761" fill="white">
<path d="M40 65H72V72C72 73.6569 70.6569 75 69 75H43C41.3431 75 40 73.6569 40 72V65Z"/>
</mask>
<path d="M40 65V64H39V65H40ZM72 65H73V64H72V65ZM40 66H72V64H40V66ZM71 65V72H73V65H71ZM69 74H43V76H69V74ZM41 72V65H39V72H41ZM43 74C41.8954 74 41 73.1046 41 72H39C39 74.2091 40.7909 76 43 76V74ZM71 72C71 73.1046 70.1046 74 69 74V76C71.2091 76 73 74.2091 73 72H71Z" fill="#515151" mask="url(#path-5-inside-3_206_761)"/>
<rect x="50" y="28" width="2" height="1" rx="0.5" fill="#515151"/>
<rect x="55" y="28" width="7" height="1" rx="0.5" fill="#515151"/>
<circle cx="56" cy="70" r="2.5" stroke="#515151"/>
<g clip-path="url(#clip1_206_761)">
<path d="M28.2661 46.1506L40.802 40.0899L54.6171 46.1506H28.2661Z" fill="#515151" fill-opacity="0.933333" stroke="#515151" stroke-width="0.58"/>
<rect x="27" y="46.4407" width="29" height="15.66" fill="#515151" fill-opacity="0.933333"/>
<rect x="30.58" y="36.5797" width="19.84" height="15.84" fill="white" stroke="#515151" stroke-width="1.16"/>
<path d="M41.4397 53.3532L55.42 47.3225V61.5207H27.58V47.3369L40.9724 53.3498L41.2053 53.4544L41.4397 53.3532Z" fill="white" stroke="#515151" stroke-width="1.16"/>
<path d="M28.591 60.9404L40.8137 50.6634L54.2836 60.9404H28.591Z" fill="white" stroke="#515151" stroke-width="1.16"/>
<path d="M40.5508 47.7731C39.902 47.7731 39.3253 47.6845 38.8207 47.5074C38.3181 47.3323 37.8939 47.0738 37.5478 46.7319C37.2018 46.3921 36.9392 45.977 36.76 45.4868C36.5808 44.9966 36.4902 44.4364 36.4881 43.8062C36.4902 43.1903 36.5819 42.6352 36.7631 42.1409C36.9444 41.6446 37.209 41.2203 37.5571 40.8681C37.9052 40.5138 38.3305 40.2419 38.8331 40.0524C39.3356 39.8629 39.9072 39.7682 40.5477 39.7682C41.1512 39.7682 41.6857 39.8599 42.1512 40.0432C42.6187 40.2265 43.0131 40.4819 43.3344 40.8094C43.6578 41.1348 43.9019 41.5158 44.0667 41.9525C44.2335 42.3871 44.3169 42.8587 44.3169 43.3675C44.3169 43.7197 44.2901 44.0533 44.2366 44.3685C44.183 44.6815 44.0914 44.9596 43.9616 45.2026C43.8339 45.4457 43.6599 45.6393 43.4395 45.7834C43.2191 45.9256 42.9431 46.0028 42.6115 46.0151C42.4035 46.0254 42.2212 46.0059 42.0647 45.9564C41.9081 45.907 41.7815 45.8298 41.6847 45.7247C41.5899 45.6176 41.5302 45.4868 41.5055 45.3324H41.4684C41.421 45.456 41.3314 45.5692 41.1996 45.6722C41.0699 45.7731 40.9092 45.8524 40.7176 45.9101C40.5261 45.9657 40.3129 45.9884 40.0781 45.9781C39.8268 45.9657 39.5941 45.908 39.3799 45.8051C39.1678 45.7 38.9824 45.5538 38.8238 45.3664C38.6673 45.1769 38.5457 44.9482 38.4592 44.6805C38.3727 44.4127 38.3295 44.1089 38.3295 43.7691C38.3295 43.4375 38.3768 43.145 38.4716 42.8917C38.5663 42.6383 38.693 42.4221 38.8516 42.2429C39.0123 42.0637 39.1935 41.9236 39.3953 41.8227C39.5972 41.7197 39.8052 41.6538 40.0194 41.625C40.2419 41.5941 40.4509 41.5972 40.6466 41.6343C40.8423 41.6713 41.005 41.728 41.1347 41.8042C41.2665 41.8804 41.3489 41.9638 41.3819 42.0544H41.4251V41.7084H42.2871V44.6496C42.2892 44.8041 42.3262 44.9287 42.3983 45.0234C42.4725 45.1182 42.5755 45.1655 42.7073 45.1655C42.8721 45.1655 43.0049 45.1007 43.1058 44.9709C43.2088 44.8391 43.283 44.6372 43.3283 44.3654C43.3756 44.0914 43.3983 43.7413 43.3962 43.3149C43.3983 42.9648 43.352 42.6476 43.2572 42.3634C43.1645 42.0771 43.0327 41.8258 42.8618 41.6095C42.6908 41.3933 42.4859 41.2131 42.2469 41.0689C42.0101 40.9226 41.7464 40.8125 41.456 40.7383C41.1656 40.6642 40.8556 40.6271 40.5261 40.6271C40.0215 40.6271 39.5776 40.7043 39.1945 40.8588C38.8114 41.0112 38.4901 41.2285 38.2306 41.5107C37.9732 41.7928 37.7785 42.1275 37.6467 42.5148C37.5169 42.8999 37.4521 43.3263 37.4521 43.7938C37.4521 44.2943 37.52 44.7382 37.656 45.1254C37.794 45.5105 37.9958 45.8349 38.2615 46.0986C38.5272 46.3622 38.8557 46.562 39.2471 46.6979C39.6404 46.8339 40.0925 46.9018 40.6033 46.9018C40.8381 46.9018 41.0678 46.8833 41.2923 46.8462C41.5168 46.8091 41.7186 46.7659 41.8978 46.7165C42.077 46.667 42.215 46.6238 42.3118 46.5867L42.5744 47.3714C42.4467 47.4373 42.2737 47.5012 42.0554 47.563C41.8391 47.6248 41.6002 47.6752 41.3386 47.7144C41.0791 47.7535 40.8165 47.7731 40.5508 47.7731ZM40.3346 45.0914C40.5961 45.0914 40.8052 45.0409 40.9617 44.94C41.1183 44.837 41.2305 44.6846 41.2985 44.4828C41.3664 44.2809 41.3994 44.0296 41.3973 43.7289C41.3973 43.4488 41.3623 43.2192 41.2923 43.04C41.2223 42.8608 41.11 42.7279 40.9555 42.6414C40.8011 42.5549 40.5961 42.5117 40.3407 42.5117C40.11 42.5117 39.9134 42.5642 39.7506 42.6692C39.59 42.7743 39.4664 42.9195 39.3799 43.1049C39.2955 43.2882 39.2532 43.4972 39.2532 43.732C39.2532 43.9668 39.2872 44.1882 39.3552 44.3963C39.4252 44.6022 39.5385 44.7701 39.695 44.8998C39.8536 45.0275 40.0668 45.0914 40.3346 45.0914Z" fill="#515151"/>
</g>
<circle cx="50" cy="50" r="49" stroke="#515151" stroke-width="2"/>
</g>
<defs>
<clipPath id="clip0_206_761">
<rect width="100" height="100" fill="white"/>
</clipPath>
<clipPath id="clip1_206_761">
<rect width="29" height="29" fill="white" transform="translate(27 36)"/>
</clipPath>
</defs>
</svg>
