<svg width="64" height="64" viewBox="0 0 64 64" fill="none" xmlns="http://www.w3.org/2000/svg">
<g clip-path="url(#clip0_206_779)">
<path d="M23.4999 18.6429H26.4999L27.2857 18.7143V28.9286H34.2857L35.9285 29.1429L37.4285 29.5L38.5714 29.9286L39.6428 30.5L40.4285 31.0714L41.2142 31.7857L41.9285 32.7857L42.3571 33.6429L42.7142 34.7143L42.9285 35.8571V37.5714L42.6428 39L42.2857 39.8571L41.6428 40.9286L40.8571 41.7857L40.0714 42.4286L39.2142 42.9286L37.7857 43.5L36.2857 43.8571L35.1428 44L32.8571 44.0714H24.4285L21.7142 44V18.7143L23.4999 18.6429Z" fill="#F88023"/>
<path d="M31.3571 7.92857H32.4286L34.8571 8.14286L37 8.5L39.1429 9.07143L40.8571 9.71429L42.5714 10.5L44 11.2857L45.2143 12.0714L46.5714 13.0714L47.6429 14L48.5714 14.8571L49.2143 15.5L49.8571 16.2857L50.4286 16.9286L51.3571 18.2143L52.2143 19.5714L52.9286 20.8571L53.6429 22.4286L54.2857 24.2143L54.7857 26L55.1429 27.9286L55.3571 29.7857L55.4286 31V31.8571L55.2857 34L55 35.9286L54.5714 37.7143L54.1429 39.1429L53.4286 40.9286L52.7857 42.2857L51.9286 43.7857L51.3571 44.6429L50.7857 45.4286L50.2143 46.1429L49.9286 46.0714V45.9286L49.6429 45.7857L48.8571 45.1429L48.9286 44.8571L49.3571 44.2857L50 43.3571L50.9286 41.8571L51.7143 40.2857L52.3571 38.6429L52.7857 37.2857L53.2143 35.5L53.5 33.5L53.5714 32.5714V30.5L53.4286 28.7857L53.0714 26.7143L52.6429 25.0714L51.9286 23.0714L50.9286 21L50.0714 19.5714L49.3571 18.5714L48.5714 17.5714L47.6429 16.5L46.6429 15.5L45.8571 14.8571L45 14.1429L43.5 13.1429L42.4286 12.5L41.0714 11.7857L39.1429 11L37.5 10.5L35.4286 10.0714L33.6429 9.85715L32.2143 9.78572H31.2857L29.4286 9.92857L27.6429 10.2143L25.6429 10.7143L23.8571 11.3571L22.4286 12L21.0714 12.7143L20.0714 13.3571L18.8571 14.2143L17.7143 15.1429L17.3571 15.5H17.2143L17.1429 15.7143L16.5714 16.2143L16.2857 16.5714L15.9286 16.9286L15.2143 17.7143L14.2857 18.9286L13.5 20.1429L12.7143 21.5L12 23.0714L11.3571 24.8571L10.9286 26.4286L10.5714 28.2857L10.4286 29.5714L10.3571 30.6429V32.4286L10.5714 34.5L10.8571 36.1429L11.3571 38L11.8571 39.4286L12.7143 41.2857L13.6429 42.9286L14.3571 44L15 44.8571L15.2143 45.0714L15.0714 45.3571L14.1429 46.0714L13.8571 46.2857L13.1429 45.4286L12 43.7143L11 41.9286L10.3571 40.5714L9.57143 38.4286L9.07143 36.5L8.71429 34.4286L8.57143 33.0714L8.5 31.9286V31.0714L8.64286 29L8.85714 27.3571L9.28571 25.4286L9.92857 23.3571L10.5714 21.7857L11.1429 20.5714L12 19.0714L12.9286 17.7143L13.5714 16.8571L14.4286 15.8571L15.0714 15.1429L16.1429 14.0714L16.9286 13.4286L17.5714 12.8571L18.8571 11.9286L20.3571 11L22 10.1429L23.9286 9.35715L25.7857 8.78572L27.6429 8.35715L29.5714 8.07143L31.3571 7.92857Z" fill="#F88023"/>
<path d="M28.0714 18.7143H34.8571L36.2857 18.8571L37.7857 19.2143L38.9286 19.7143L39.6428 20.1429L40.3571 20.7857L40.9286 21.5714L41.3571 22.5L41.6428 23.6429L41.7143 24.2143V25.7143L41.5 26.8571L41.1428 27.7143L40.5 28.6429L39.6428 29.5L39.2143 29.4286L38.1428 29L36.7143 28.5714L35.5 28.2857V28.0714L35.8571 27.6429L36.1428 26.9286L36.2143 26.6429V25.2857L36 24.5714L35.7143 24.1429L35.1428 23.6429L34.5714 23.3571L33.5714 23.1429L28.1428 23L28.0714 22.9286V18.7143Z" fill="#FDB73E"/>
<path d="M27.3572 32.7143H32.7858L34.2858 32.7857L35.4286 33.0714L36.2858 33.5714L36.7858 34.0714L37.1429 34.8571L37.3572 35.7857V36.8571L37.1429 37.7143L36.7858 38.3571L36.5001 38.7143L35.8572 39.1429L35.0001 39.5L34.2143 39.6429H27.2858V32.7857L27.3572 32.7143Z" fill="#FEFDFD"/>
<path d="M31 10.5714H32.1428L34 10.7143L35.5 10.9286L36.8571 11.2143L38.6428 11.7143L40.2143 12.2857L41.5714 12.9286L43.1428 13.8571L44.2857 14.6429L45.2857 15.4286L46.3571 16.4286L47.5 17.5714L48.2857 18.5714L48.8571 19.2857L49.7143 20.5714L50.5714 22.0714L51.1428 23.3571L51.7143 24.8571L52.0714 26.1429L52.4285 27.7857L52.6428 29.0714L52.7143 29.7857V32.9286L52.5 34.7857L52.1428 36.5L51.6428 38.2857L50.9285 40L50.2143 41.4286L49.3571 42.8571L48.6428 43.8571L48.1428 44.5L47.7143 44.2143L47.7857 43.9286L48.7857 42.5714L49.7857 40.8571L50.4285 39.5L50.8571 38.4286L51.4285 36.6429L51.8571 34.6429L52.0714 32.7143V30.3571L51.8571 28.1429L51.4285 26.2143L50.8571 24.3571L50.0714 22.5L49.2857 21L48.4285 19.7143L47.7143 18.7857L47.0714 18L46.2143 17.0714L45.4285 16.3571L44.6428 15.7143L43.2857 14.7143L42 13.9286L40.3571 13.0714L38.7143 12.4286L37.0714 11.9286L35.3571 11.5714L33.6428 11.3571L32.4285 11.2857H31.0714L29.5 11.4286L27.8571 11.7143L26.1428 12.1429L24.2857 12.7857L22.7143 13.5L21.3571 14.2857L20.2857 15L19.4285 15.6429L18.4285 16.5L17.5714 17.2857L17.0714 17.8571L16.3571 18.6429L15.2857 20.0714L14.5 21.3571L13.7143 22.8571L13.1428 24.2143L12.6428 25.7143L12.2143 27.5L11.9285 29.2857L11.8571 30V33L12.1428 35.0714L12.5714 36.9286L13.2143 38.8571L13.8571 40.2857L14.5714 41.6429L15.5 43.0714L16.2143 44L16.2857 44.2857L15.9285 44.5714H15.7857L15.3571 43.9286L14.6428 42.9286L13.7857 41.5L13.2143 40.3571L12.5714 38.9286L11.9285 37L11.5714 35.4286L11.2857 33.5714L11.1428 31.6429L11.2143 29.9286L11.4285 28.0714L11.7857 26.3571L12.2143 24.8571L12.9285 23L13.7143 21.4286L14.5 20.1429L15.1428 19.2143L15.7857 18.3571L16.4285 17.6429L16.9285 17.0714L18.0714 15.9286L18.8571 15.2857L20.0714 14.3571L21.1428 13.6429L22.3571 12.9286L24.0714 12.1429L25.6428 11.5714L27.5 11.0714L29.0714 10.7857L31 10.5714Z" fill="#F88324"/>
<path d="M45.2143 45.4286L45.9286 45.5L46.6429 45.7857L47.3572 46.4286L47.7857 47.2857V48.2857L47.5 48.9286L47.2143 49.3571L46.5714 50.0714L45.9286 50.8571L45.6429 50.7857L43.9286 49.0714L43.3572 48.5714L42.4286 47.6429L42.5714 47.3571L43.9286 46L44.5 45.6429L45.2143 45.4286Z" fill="#F88123"/>
<path d="M37.0714 50.4286L37.7857 50.5L38.1429 50.7143L38.5714 51.2143L38.7143 51.6429V52.2857L38.2857 52.9286L38 53.0714L38.2143 53.4286L39.2143 54.2857L39.5 54.5V54.6429L38.9286 54.8571H38.5714L37.8571 54.2143L37.2857 53.7143L36.9286 53.6429L36.1429 53.7857L36.5714 55.2857L36.5 55.5L35.7143 55.6429L35.5714 55.2857L35.0714 53.4286L34.5 51.2857L34.5714 51L36.5714 50.5L37.0714 50.4286Z" fill="#F88224"/>
<path d="M20 45.9286L20.3572 46L20.6429 46.2857L20.5715 46.8571L20 48.2143L19 50.6429L18.7857 51.2143L18.5 51.0714L18.1429 50.7143L18.2143 50.2857L18.5 49.6429L18.4286 49.3571L17.5715 48.4286L17.0715 47.9286L16.7143 48L16 48.2857L15.7143 48.2143L15.3572 47.7857V47.6429L17.8572 46.7143L19.7857 46L20 45.9286Z" fill="#F88123"/>
<path d="M41.7857 48H42L42.2143 48.6429L41.6429 49L40.2857 49.7857L40.0715 49.9286L40.1429 50.2857L40.5 50.8571V51L41.2857 50.5714L42.5 49.9286L42.7857 50L42.9286 50.5L42.2857 50.9286L41.2143 51.5714H41L41.2143 52.1429L41.5 52.6429V52.7857L42.2857 52.3571L43.7143 51.5H44L44.2143 51.8571L44.1429 52.1429L42.8572 52.9286L41.7857 53.5714L41.3572 53.8571L41.1429 53.7857L40 51.7857L38.9286 50L38.8572 49.7143L39.8572 49.1429L41.7857 48Z" fill="#F88123"/>
<path d="M29.7143 51.1429H30.5V54.1429L30.7143 54.7143L31.0714 55L31.2143 55.0714H32.2143L32.5714 54.8571L32.7857 54.2857L32.9285 51.2143L33.0714 51.1429H33.7143L33.7857 51.2143V52.7857L33.7143 54.2143L33.5714 54.7857L33.2143 55.3571L32.7143 55.7857L31.9285 56H31.3571L30.6428 55.7857L30.2143 55.5L29.7857 54.9286L29.6428 54.2857V51.8571L29.7143 51.1429Z" fill="#F88224"/>
<path d="M26.4286 50.2857H27.1428L28 50.6429L28.5714 51.0714L28.7857 51.4286L28.6428 51.7857L28.3571 51.8571L27.2857 51.1429L26.6428 51.0714L26.3571 51.2143L26.2857 51.7143L26.5714 52.0714L27.6428 52.7857L28.1428 53.3571L28.2857 53.7143L28.2143 54.2857L27.7857 54.8571L27.3571 55.1429L27.0714 55.2143H26.4286L25.7857 55L25 54.5L24.5714 54.0714V53.7143L24.9286 53.4286L25.2143 53.5714L25.8571 54.1429L26.5 54.4286H27.0714L27.3571 54.0714L27.2857 53.7143L27 53.4286L25.9286 52.7143L25.5 52.2143L25.3571 51.8571L25.4286 51.2143L25.7857 50.6429L26.2143 50.3571L26.4286 50.2857Z" fill="#F88123"/>
<path d="M22.7142 48.5L23.4285 48.5714L24.1428 49L24.6428 49.5L24.9285 50L24.7857 50.2857L24.4999 50.5L24.2857 50.4286L23.7142 49.6429L23.3571 49.3571L22.7857 49.2857L22.4285 49.5714L22.4999 50.0714L23.3571 51L23.7857 51.6429L23.8571 51.8571V52.3571L23.4285 53.0714L22.7142 53.4286H22.2142L21.4999 53.1429L20.7857 52.5714L20.2857 51.8571L20.2142 51.5L20.4999 51.2143L20.8571 51.2857L21.4285 52.0714L22.0714 52.5L22.6428 52.5714L22.9285 52.2857L22.8571 51.7857L21.8571 50.7143L21.5714 50.2143V49.4286L21.9999 48.7857L22.7142 48.5Z" fill="#F88224"/>
<path d="M45.0714 46.2857H45.7143L46.2143 46.5L46.6428 46.8571L47 47.5714V48.2857L46.7143 48.8571L46 49.7143H45.7143L45.2857 49.2143L44.7143 48.7143L44.0714 48.0714L43.5714 47.6429L43.6428 47.2857L44.2857 46.6429L44.7857 46.3571L45.0714 46.2857Z" fill="#FEFDFD"/>
<path d="M37.1429 51.1429L37.5714 51.2857L37.8571 51.7857V52.2857L37.5714 52.6429L36.4286 53.0714L35.9286 53.1429L35.5 51.7857V51.5714L36.7143 51.2143L37.1429 51.1429Z" fill="#FEFDFD"/>
<path d="M19.4286 46.8571H19.7143L19.5715 47.2857L19.1429 48.2857L18.9286 48.7143L18.6429 48.5714L18.2143 48L17.8572 47.6429V47.5L19.2857 46.9286L19.4286 46.8571Z" fill="#FEFDFD"/>
</g>
<defs>
<clipPath id="clip0_206_779">
<rect width="64" height="64" fill="white"/>
</clipPath>
</defs>
</svg>
