<svg width="96" height="96" viewBox="0 0 96 96" fill="none" xmlns="http://www.w3.org/2000/svg">
<g clip-path="url(#clip0_206_655)">
<path d="M1.03125 0H69.3281V0.09375L69.5625 0.1875L69.8438 0.375L70.1719 0.75L70.3125 0.984375L70.4062 1.3125V8.15625L70.2656 8.67188L69.9375 9.14062L69.5625 9.42188L69.1406 9.5625H68.3906L68.0156 9.42188L67.5938 9.09375L67.3125 8.625L67.1719 8.15625V3.23438H3.23438L3.28125 75.5625L3.42188 76.4531L3.70312 77.2031L4.125 77.9531L4.64062 78.5625L5.20312 79.0312L6 79.5L6.98438 79.8281L7.78125 79.9219H8.20312L9 79.8281L9.98438 79.5L10.6406 79.125L11.1094 78.75L11.4844 78.4219L11.9531 77.8125L12.375 77.0156L12.6562 76.0312L12.7031 75.6094L12.75 20.8125L12.8906 19.3594L13.125 18.4688L13.3594 17.7656L13.875 16.7344L14.2031 16.2188L14.625 15.7031L14.9062 15.3281H15L15.0938 15.1406L15.6562 14.625L16.4062 14.0625L17.4375 13.5L18 13.2656L18.8906 12.9844L19.7344 12.8438L20.1562 12.7969H21.4219L22.5 12.9375L23.7188 13.3125L24.5156 13.6875L25.3125 14.1562L25.8281 14.5781L26.4375 15.0938L27 15.7031L27.6094 16.5469L28.2188 17.7188L28.5938 18.8906L28.7344 19.7344L28.8281 20.7188V92.7656H92.7656L92.7188 20.625L92.625 19.7812L92.2969 18.7969L91.875 18.0469L91.4531 17.5312L90.9375 17.0625L90.2812 16.6406L89.6719 16.3594L89.0625 16.1719L88.4062 16.0781L78.5625 16.0312H32.0625L31.5 15.9375L31.0312 15.7031L30.7031 15.375L30.4219 14.8125L30.375 14.625V14.2031L30.5156 13.7344L30.75 13.3594L31.1719 12.9844L31.6875 12.7969L32.3906 12.75H86.5312L88.5 12.7969L89.6719 12.9375L90.8906 13.3125L91.4531 13.5469L92.4375 14.1094L93.0938 14.625L93.75 15.1875L94.5938 16.2188L95.0625 17.0156L95.4375 17.7656L95.8125 18.9375L95.9062 19.4062H96V94.9688L95.8594 95.1094L95.5781 95.4844L95.25 95.7656L94.9688 95.9062H94.875L94.8281 96H26.8125L26.2031 95.6719L25.8281 95.25L25.6406 94.875L25.5469 94.3125V83.2031H17.3906L16.875 83.0625L16.4531 82.7344L16.1719 82.3594L15.9844 81.8438V81.3281L16.1719 80.8125L16.4531 80.4375L16.8281 80.1562L17.2031 80.0156L17.4375 79.9688H25.5469L25.5 20.3438L25.3594 19.5469L25.125 18.8438L24.7031 18.0938L24.1875 17.4375L23.5312 16.9219L23.0625 16.6406L22.3594 16.3125L21.6562 16.125L21.0938 16.0781H20.3906L19.6875 16.1719L18.9844 16.4062L18.3281 16.7344L17.7656 17.1562L17.3438 17.5312L16.8281 18.1875L16.4531 18.8906L16.1719 19.7344L16.0781 20.5312L16.0312 75.1406L15.8906 76.6406L15.6562 77.5312L15.4219 78.2344L15.0469 78.9844L14.625 79.7344L14.1094 80.3438L13.6875 80.8594L13.0312 81.4219L12.4219 81.8906L11.2969 82.5L10.4062 82.8281L9.51562 83.0625L8.39062 83.2031H7.5L6.42188 83.0625L5.25 82.7344L4.5 82.4062L3.5625 81.8906L2.8125 81.2812L2.34375 80.8594L2.01562 80.5312L1.5 79.875L1.17188 79.4062L0.5625 78.2344L0.140625 76.875L0 76.125V1.125L0.375 0.515625L0.703125 0.234375L0.984375 0.140625L1.03125 0Z" fill="#AEAEAE"/>
<path d="M70.8966 58.56H82.2778L82.5585 58.5855L82.8137 58.7128L82.9924 58.9166L83.0944 59.1203L83.12 59.1967V59.5278L83.0179 59.757L82.8648 59.9608L82.6606 60.1136L82.533 60.1645L82.1758 60.19H78.6542L78.9349 60.572L79.1646 60.9286L79.3942 61.3361L79.5984 61.7945L82.4565 61.82L82.7372 61.9219L82.9924 62.1511L83.12 62.4567V62.8133L82.9924 63.068L82.8137 63.2717L82.6096 63.3991L82.3034 63.45L79.9046 63.4755L79.8281 64.0613L79.7005 64.698L79.4963 65.3092L79.2666 65.7931L79.0115 66.2006L78.7563 66.5317L78.4501 66.8628L78.1949 67.1175L77.9142 67.3467L77.3783 67.7033L76.7913 67.9834L76.281 68.1617L75.8472 68.2636L75.4644 68.3145L75.0561 68.34H72.6573L72.7339 68.4673L73.0401 68.8239L73.2698 69.0786L73.4739 69.3333L73.7802 69.6898L73.9843 69.9445L74.265 70.2756L74.4947 70.5558L74.7754 70.8869L75.005 71.167L75.2857 71.4981L75.5154 71.7783L75.7961 72.1094L76.0258 72.3895L76.3065 72.7206L76.6382 73.1281L76.9445 73.4847L77.1486 73.7394L77.4548 74.0959L77.659 74.3506L77.9652 74.7072L78.1693 74.9619L78.4756 75.3184L78.6797 75.5731L78.9859 75.9297L79.2156 76.2098L79.4963 76.5409L79.7515 76.8975L79.8536 77.1267V77.4578L79.7515 77.687L79.5218 77.9417L79.3177 78.0691L79.1646 78.12H78.9349L78.6797 78.0181L78.4245 77.7889L78.2459 77.6106L77.9652 77.2541L77.4038 76.5919L77.1996 76.3372L76.8934 75.9806L76.6893 75.7259L76.383 75.3694L76.1789 75.1147L75.8727 74.7581L75.6685 74.5034L75.3623 74.1469L75.1582 73.8922L74.8519 73.5356L74.6478 73.2809L74.3416 72.9244L74.1374 72.6697L73.8312 72.3131L73.627 72.0584L73.3208 71.7019L73.1167 71.4472L72.8104 71.0906L72.6063 70.8359L72.3001 70.4794L72.0959 70.2247L71.8152 69.8936L71.5856 69.6134L71.3048 69.2823L71.0752 69.0022L70.7945 68.6711L70.4883 68.3145L70.2331 67.9834L70.08 67.6778V67.3977L70.2075 67.092L70.4372 66.8628L70.6924 66.7355L70.8455 66.71H74.3671L75.3113 66.6845L75.9492 66.5572L76.383 66.3789L76.7658 66.1752L77.0721 65.9459L77.3783 65.6658L77.6335 65.3347L77.8376 65.0036L78.0162 64.6216L78.1183 64.3159L78.2204 63.7556L78.2459 63.45H70.82L70.5903 63.3991L70.4117 63.2972L70.2075 63.068L70.08 62.7878V62.5586L70.1565 62.3039L70.3096 62.0747L70.5903 61.8709L70.82 61.82H76.4851L77.7611 61.7945V61.7436L77.5569 61.4634L77.2762 61.1578L76.9955 60.9031L76.5617 60.623L76.1279 60.4192L75.7196 60.2919L75.2347 60.2155L70.82 60.19L70.5648 60.1391L70.3607 59.9863L70.2075 59.808L70.1055 59.6297L70.08 59.5278V59.2986L70.182 58.993L70.3607 58.7892L70.5648 58.6364L70.6924 58.5855L70.8966 58.56Z" fill="#AEAEAE"/>
<path d="M39.75 41.5781H81.75L82.2656 41.7188L82.6875 42L82.9688 42.3281L83.1562 42.75L83.2031 42.8906V43.4531L83.0156 43.9688L82.7344 44.3438L82.3594 44.625L81.9375 44.7656L81.5625 44.8125H39.8906L39.3281 44.6719L38.9062 44.3906L38.5781 43.9688L38.3906 43.4531V42.9375L38.5781 42.4219L38.8594 42.0469L39.2344 41.7656L39.75 41.5781Z" fill="#AEAEAE"/>
<path d="M39.8438 31.9688H59.2969L59.8594 32.1094L60.2812 32.3906L60.5625 32.7188L60.75 33.0938L60.7969 33.3281V33.8906L60.6562 34.3125L60.3281 34.7344L59.9062 35.0625L59.2969 35.2031H39.7969L39.2812 35.0625L38.8594 34.7344L38.5312 34.3125L38.3906 33.8438V33.375L38.5312 32.9062L38.8125 32.4844L39.1406 32.2031L39.5625 32.0156L39.8438 31.9688Z" fill="#AEAEAE"/>
<path d="M47.7656 67.1719H62.5312L63.0469 67.3125L63.4688 67.5938L63.7969 67.9688L63.9844 68.4375L64.0312 68.8125L63.9375 69.3281L63.7031 69.75L63.4688 69.9844L63.0938 70.2656L62.5312 70.4062H47.8125L47.2031 70.2188L46.7344 69.7969L46.4531 69.3281L46.3594 68.9062L46.4062 68.4375L46.5938 67.9688L47.0156 67.5L47.5781 67.2188L47.7656 67.1719Z" fill="#AEAEAE"/>
<path d="M47.7656 76.7812H60.9844L61.5 76.9219L61.9219 77.25L62.2031 77.5781L62.3906 78.0469V78.75L62.2031 79.2188L61.7812 79.6875L61.3125 79.9219L60.75 80.0156H47.8594L47.3438 79.875L46.9219 79.5938L46.6406 79.2656L46.4531 78.8906L46.3594 78.5156L46.4062 78.0469L46.5938 77.5781L46.875 77.2031L47.3906 76.875L47.7656 76.7812Z" fill="#AEAEAE"/>
<path d="M47.9062 57.5625H59.2031L59.7188 57.6562L60.0938 57.8438L60.375 58.0781L60.6562 58.5L60.7969 58.875V59.4844L60.6562 59.9062L60.4688 60.1875L60.0938 60.5625L59.625 60.75L59.3438 60.7969L55.3594 60.8438H48.4688L47.7656 60.7969L47.2969 60.6562L47.0156 60.4688L46.7812 60.2812L46.5 59.8125L46.4062 59.5781L46.3594 59.0625L46.5469 58.4531L46.8281 58.0781L47.1562 57.7969L47.625 57.6094L47.9062 57.5625Z" fill="#AEAEAE"/>
<path d="M65.4375 31.9688H75.2812L75.75 32.0625L76.2188 32.3438L76.5938 32.7656L76.7812 33.1875L76.8281 33.4219V33.75L76.6875 34.2188L76.4062 34.6875L75.9844 35.0156L75.5625 35.1562L75.2812 35.2031H65.3906L64.9219 35.0625L64.5 34.7812L64.1719 34.3594L63.9844 33.8438V33.3281L64.1719 32.8125L64.4531 32.4375L64.9219 32.1094L65.1562 32.0156L65.4375 31.9688Z" fill="#AEAEAE"/>
<path d="M39.8906 57.5625H41.6719L42.2344 57.7031L42.6562 57.9844L42.9844 58.3594L43.1719 58.7812L43.2188 59.0156L43.1719 59.625L42.8906 60.1875L42.4688 60.5625L42 60.75L41.3906 60.8438H40.0781L39.375 60.7031L38.9531 60.4219L38.625 60.0469L38.4375 59.6719L38.3906 59.4844V58.9688L38.5312 58.5L38.8125 58.0781L39.2344 57.75L39.6094 57.6094L39.8906 57.5625Z" fill="#AEAEAE"/>
<path d="M39.7969 67.1719H41.7656L42.375 67.3594L42.75 67.6406L43.0312 68.0625L43.1719 68.3906L43.2188 68.625V68.9531L43.0781 69.4688L42.75 69.9375L42.2812 70.2656L41.7656 70.4062L40.5 70.4531L39.7969 70.4062L39.2812 70.2656L38.8594 69.9375L38.5781 69.5625L38.3906 69.0938V68.5781L38.5312 68.0625L38.9062 67.5938L39.3281 67.3125L39.7969 67.1719Z" fill="#AEAEAE"/>
<path d="M39.7969 76.7812H41.8125L42.2812 76.9219L42.7031 77.2031L43.0312 77.625L43.2188 78.1875V78.5625L43.0781 79.0781L42.7969 79.4531L42.4219 79.7812L41.9062 79.9688L41.625 80.0156H39.8438L39.3281 79.875L38.9062 79.5938L38.5781 79.1719L38.3906 78.6562V78.1406L38.5781 77.5781L39 77.1094L39.4219 76.875L39.7969 76.7812Z" fill="#AEAEAE"/>
</g>
<defs>
<clipPath id="clip0_206_655">
<rect width="96" height="96" fill="white"/>
</clipPath>
</defs>
</svg>
