<svg width="338" height="512" viewBox="0 0 338 512" fill="none" xmlns="http://www.w3.org/2000/svg">
<g clip-path="url(#clip0_248_2)">
<path d="M165 0H172.5L178.75 1L184.5 2.5L188.25 4L193.5 6.75L196.75 9L200 11.75L202.75 14L205.75 17.5L208.25 20.75L210.75 24.75L213 29.5L214.75 34.75L215.75 39.25L216.25 43.5L216.5 56.75L219 57.25L227.25 60L236.25 63.75L242 66.25L249.75 70.25L255.5 73.5L259.25 75.75L263.5 78.75L268.75 82.25L272 84.75L275.25 87.5L277.75 89.5L281 92.25L283.75 94.5L293 103.75L294.75 105.75L298 109.5L300.75 113L303.75 116.5L306.75 120.75L312.75 129.75L315 133.5L318.5 140L321.5 145.5L324.75 153L328.25 161.5L331 169.75L333.25 178L335.5 188.5L336.75 196.75L337.5 203.75L337.75 207.5V412.25L336.75 416.25L335 420.25L332.75 423.25L331 425.25L327.25 428L321.5 431L315.25 433.75L307 437L296.75 440.5L285.75 443.75L273.5 446.75L262.75 449L253.25 450.75L240 452.75L227.5 454.25L218 455.25L216.5 455.5L216.25 469L215.25 475.5L213.5 481.5L211.5 486L209.25 490L207.25 492.75L204.5 496L202.25 498.5L199.5 501L197 503L193.75 505.25L191.25 506.75L186.25 509L179.75 511L174.5 512H163.25L154.25 509.75L149.75 508L144.5 505.25L140.5 502.25L135.25 497.75L133 495L130.5 492L128.25 488.5L126.25 484.5L124.25 479.75L122.75 473.75L122.25 470.75L122 467.75V454.5L112.25 453.5L97.75 451.25L90.25 450L78 447.5L68 445.25L51.5 441L31.25 434.75L16 429.25L11.25 427.25L8.75 425.5L7 424L5.25 422L3.25 419.5L1.25 415.25L0.25 411.25L0 407.5V211L0.75 201L2 191.75L3.75 182.75L5.5 175.5L7.25 169.25L10.25 160.5L14 151.5L17 144.75L21 137.25L22.5 134.75L24 131.75L26 128.75L31.25 121L33.25 118L36 114.75L37.75 112.5L40.5 109.25L42.5 106.75L44.75 104.25L56 93L58.75 90.75L62 88L65.5 85.25L68.25 83L74.25 79L77.75 76.5L82.25 73.75L89 70L95.5 66.5L108.25 61L112 59.5L119.75 57L121.5 56.5L121.75 54.25L122 44L122.5 39.75L123.75 34L125.75 28.5L127.75 24.5L130.25 20.5L133 17.25L135.25 14.5L137.5 12.25L141 9.5L144 7.25L148 5L151.75 3.25L158.25 1.25L165 0ZM166.5 24L161.75 25L157.75 26.75L155.25 28.25L152.75 30.25L151 31.75L148.5 35L146.5 38.5L145.25 41.75L144.25 46.75L144 51.5H146.25L155.75 50.5L166.75 50L168.25 49.75H170.5L172 50L178.75 50.25L187.75 51L192.25 51.5H194V46L193 41.5L191.75 38.25L189.5 34.25L186.5 31L184.25 29L180.75 26.75L176.5 25L173.25 24.25L170 24H166.5ZM162.5 76.75L154 77.5L144.25 78.75L133.75 81L128.25 82.5L117.5 86L111 88.75L102.25 92.75L96 96.25L90.5 99.5L86.5 102.25L82.25 105.25L78.25 108.25L74.5 111.5L71 114.5L68.5 116.75L67.5 117.5V118H67L65.25 120L61.5 123.75V124.25H61L59.25 126.25L57.25 128.5L55.5 130.75L52.75 134.25L49.5 138.5L45.25 145L42.25 149.75L38.75 156.25L35.25 163.25L31 174L29.25 179.25L26.25 190L24.5 199.25L23.5 205.25L22.75 212.75L22.5 216.75V408L42 414.75L54.25 418.5L61.25 420.5L77.5 424.5L93.5 427.75L103.75 429.5L117.5 431.5L131.75 433L144.75 434L153.75 434.5L168 434.75H176.75L189.5 434.5L205 433.75L215.75 433L228.5 431.75L240.5 430.25L251.5 428.5L263.5 426.25L275.25 423.5L286 420.5L296.75 417L305.25 413.75L314.25 409.75L315.75 409V214.75L314.75 205.25L313.5 196.5L310.75 184.5L307.25 173.75L305.25 168.25L300.5 157.75L297.25 151.75L293.75 145.75L290.75 141.25L287.25 136.25L285 133.25L282.75 130.5L280.5 128L278.25 125.25L275.25 122L270 116.75L268 115L266.25 113.25L262.75 110.5L259.75 108L256.25 105.25L251.5 102L246.5 98.75L241.25 95.5L234.25 92L230 89.75L221.25 86.25L216.75 84.5L204.5 81L197.5 79.5L187.25 77.75L180 77L176 76.75H162.5ZM144.25 460.75V465.25L145 469.5L146.25 473.25L148.25 477L150.25 479.5L152.25 481.75L156 484.5L160 486.5L162.75 487.5L165.25 488L167.75 488.25H171.5L176.25 487.25L180.25 485.75L183.5 483.75L186.25 481.5L188 479.75L190.5 476.5L192.5 472.5L193.75 468L194.25 462.5V461L194 460.75H144.25Z" fill="#EC943C"/>
</g>
<defs>
<clipPath id="clip0_248_2">
<rect width="337.75" height="512" fill="white"/>
</clipPath>
</defs>
</svg>
