<svg width="94" height="94" viewBox="0 0 94 94" fill="none" xmlns="http://www.w3.org/2000/svg">
<g clip-path="url(#clip0_206_1023)">
<circle cx="47" cy="47" r="46.5" fill="white" stroke="#B4B4B4"/>
<g clip-path="url(#clip1_206_1023)">
<path d="M55.727 40.4968H62.1496L62.5274 40.5204L62.8343 40.6149L63.1177 40.7802L63.3774 41.0399L63.5663 41.4177L63.6135 41.583L63.6371 41.9136L63.5663 42.2678L63.3774 42.6456L63.2357 42.8109L62.9288 43.0234L62.6454 43.1414L62.551 43.165L62.0787 43.1887H60.9925V45.7152L67.179 45.7388L67.5568 45.8333L67.8166 45.9749L68.0527 46.1874L68.218 46.4472L68.3124 46.6597L68.3596 46.8722V47.25L68.2888 47.5334L68.1471 47.8167L67.9346 48.0528L67.7221 48.2181L67.4624 48.3362L67.2499 48.3834L67.0373 48.407H57.8757V52.3975L57.8285 52.6573L57.734 52.917L57.5687 53.1531L57.3798 53.342L57.1673 53.4837L56.9076 53.5782L56.6715 53.6254H56.4117L56.1756 53.5782L55.8922 53.4601L55.6561 53.2948L55.4908 53.1295L55.3492 52.8934L55.2547 52.6573L55.2075 52.3031V48.407H50.2489L50.2725 48.5487L50.2489 51.4294L50.178 51.7128L50.06 51.9489L49.8711 52.185L49.6585 52.3503L49.3752 52.492L49.2099 52.5392L49.021 52.5628H40.4733L40.2372 52.5156L39.9538 52.3975L39.6941 52.2086L39.5052 51.9961L39.3163 51.6183L39.269 51.3586V51.1225L39.3399 50.7919L39.4816 50.5085L39.6705 50.2724L39.9066 50.0835L40.1663 49.9654L40.308 49.9182L40.5205 49.8946L47.5806 49.871V48.4306L35.8925 48.407L35.9161 48.5251V52.7517L35.8452 53.1059L35.6563 53.4601L35.4202 53.6962L35.0896 53.8851L34.8535 53.956L34.7118 53.9796H34.4285L34.1451 53.9087L33.8146 53.7434L33.5312 53.4837L33.3423 53.1531L33.2715 52.917L33.2479 52.6809V48.5015L33.2715 48.407H27.0614L26.7544 48.3598L26.4711 48.2417L26.2586 48.1001L26.1169 47.982L25.9516 47.7459L25.8335 47.5097L25.7863 47.3445L25.7627 46.9667L25.8335 46.6361L25.9988 46.3055L26.2113 46.0694L26.4475 45.9041L26.7072 45.786L26.9433 45.7388L47.6043 45.7152V42.0789L47.6987 41.7719L47.8168 41.5358L48.0293 41.2997L48.2418 41.1344L48.4779 41.0163L48.6668 40.9691H49.1627L49.4696 41.0635L49.7294 41.2052L49.9891 41.4649L50.178 41.7955L50.2489 42.0553L50.2725 45.7152H58.2771L58.3007 43.2595L58.2535 43.1887H55.9159L55.4436 43.165L55.1366 43.0706L54.8769 42.9289L54.6172 42.6928L54.4519 42.4331L54.3574 42.1733L54.3338 42.0553V41.6775L54.4047 41.3941L54.5699 41.0635L54.7825 40.8274L55.0186 40.6621L55.3255 40.5441L55.727 40.4968Z" fill="#FF850E"/>
<path d="M61.7009 52.728H61.9606L62.2912 52.7989L62.6218 52.9642L62.8579 53.1767L63.0232 53.4128L63.1412 53.6725L63.1885 53.9323V62.1258L63.1176 62.48L62.9523 62.8106L62.7398 63.0467L62.4565 63.2356L62.1023 63.3537H61.63L61.3231 63.2592L61.0633 63.1175L60.898 62.9759L60.6855 62.6925L60.5675 62.4092L60.5202 62.0786L60.4966 60.7327H56.2936L55.9394 60.7091L55.6797 60.6382L55.4436 60.5438L55.1838 60.3549L54.9949 60.1424L54.8296 59.8118L54.7824 59.6229L54.7588 59.3395L54.8296 58.9617L55.0185 58.5839L55.1838 58.395L55.4908 58.1825L55.7977 58.0645L55.9866 58.0408H60.5202V54.0267L60.5675 53.6961L60.6855 53.4128L60.8744 53.1531L61.0869 52.9642L61.4647 52.7753L61.7009 52.728Z" fill="#FF850E"/>
<path d="M40.7094 30.7686H40.9692L41.2525 30.8158L41.4886 30.9102L41.7248 31.0755L41.9373 31.288L42.079 31.5242L42.1734 31.8075L42.197 31.9492L42.2206 32.6103H45.1722L45.2194 31.902L45.2903 31.6186L45.4555 31.3116L45.6208 31.1227L45.9278 30.9102L46.1403 30.8158L46.4 30.7686H46.6598L46.8959 30.8158L47.1793 30.9338L47.3918 31.0755L47.6043 31.288L47.746 31.5242L47.8404 31.7839L47.864 31.9492V36.6953L47.8168 36.9314L47.6279 37.3092L47.4154 37.5453L47.1793 37.7106L46.8723 37.8287L46.7542 37.8523H46.3292L46.0459 37.7815L45.7861 37.6398L45.55 37.4273L45.3847 37.2148L45.2666 36.955L45.2194 36.7661L45.1958 36.4356V35.3022H42.197V36.0578L42.1262 36.3647L41.9609 36.6953L41.772 36.9078L41.5359 37.0731L41.2525 37.1912L41.0636 37.2384H40.6858L40.4025 37.1675L40.1191 37.0259L39.8358 36.7661L39.6705 36.5064L39.576 36.2467L39.5288 35.8689V32.2089L39.5524 31.8783L39.6469 31.5478L39.8122 31.288L39.9538 31.1227L40.2608 30.9102L40.4733 30.8158L40.7094 30.7686Z" fill="#FF850E"/>
<path d="M25.621 24.3931H31.4061L31.8075 24.4875L32.1145 24.6528L32.3506 24.8889L32.5395 25.1959L32.634 25.5265V25.9043L32.5395 26.2585L32.3742 26.5418L32.1145 26.8015L31.7367 26.9904L31.4297 27.0613H27.0614V31.406L26.9906 31.7366L26.8961 31.9727L26.7308 32.1852L26.5419 32.3741L26.2586 32.5394L25.9044 32.6338H25.5266L25.2196 32.5394L24.9835 32.4213L24.7474 32.2088L24.5821 31.9963L24.464 31.7366L24.4168 31.5713L24.3932 31.3588V25.6445L24.464 25.2903L24.6293 24.9598L24.8418 24.7236L25.078 24.5584L25.3613 24.4403L25.621 24.3931Z" fill="#FF850E"/>
<path d="M25.4558 61.512H25.9988L26.3766 61.6536L26.6364 61.8425L26.8253 62.0551L26.9906 62.3856L27.0378 62.5509L27.0614 62.7398L27.085 67.0609H30.3199L31.5006 67.0845L31.8311 67.179L32.0909 67.3206L32.327 67.5332L32.4923 67.7929L32.6103 68.0999L32.634 68.2179V68.5721L32.5631 68.8555L32.3978 69.186L32.1853 69.4222L31.9256 69.5874L31.7131 69.6819L31.5242 69.7291L29.7768 69.7527H25.8572L25.503 69.7291L25.1488 69.6111L24.9127 69.4694L24.771 69.3513L24.5821 69.0916L24.4876 68.9027L24.4168 68.6666L24.3932 68.4777V62.787L24.4404 62.4801L24.5349 62.2203L24.7474 61.9134L24.9363 61.7481L25.1724 61.6064L25.4558 61.512Z" fill="#FF850E"/>
<path d="M62.7162 24.3931H68.5013L68.8318 24.4639L69.0444 24.5584L69.2569 24.7L69.3985 24.8181L69.5638 25.0542L69.6583 25.2431L69.7291 25.5265V31.5004L69.6583 31.7838L69.5166 32.0671L69.2569 32.3505L68.9263 32.5394L68.7138 32.6102L68.5957 32.6338H68.2179L67.9346 32.563L67.6276 32.3977L67.3915 32.1852L67.2262 31.9255L67.1081 31.6421L67.0845 31.5004L67.0609 27.0849L62.7162 27.0613L62.3856 26.9904L62.0551 26.8252L61.8425 26.6363L61.63 26.3293L61.512 25.9751V25.5029L61.6064 25.1959L61.7481 24.9362L61.8898 24.7709L62.1023 24.6056L62.3856 24.4639L62.7162 24.3931Z" fill="#FF850E"/>
<path d="M68.1471 61.512H68.6666L68.9499 61.6064L69.2333 61.7717L69.4694 62.0078L69.6583 62.3384L69.7291 62.6218V68.6193L69.6347 68.9499L69.4694 69.2333L69.2333 69.4694L68.9499 69.6347L68.6429 69.7291H62.6218L62.2912 69.6347L61.9842 69.4458L61.7953 69.2569L61.63 68.9971L61.5356 68.761L61.512 68.6429V68.1943L61.5828 67.9346L61.7245 67.6512L61.937 67.4151L62.1967 67.2262L62.5037 67.1081L62.6218 67.0845L63.094 67.0609L67.0609 67.0373L67.0845 62.6454L67.1554 62.362L67.3443 62.0078L67.5568 61.7953L67.8165 61.63L68.0526 61.5356L68.1471 61.512Z" fill="#FF850E"/>
<path d="M50.7683 53.8853H51.1225L51.4295 53.9561L51.7128 54.0978L51.9962 54.3575L52.1615 54.6172L52.2559 54.8534L52.3031 55.1839V62.0552L52.2559 62.3858L52.1378 62.6691L51.9962 62.8816L51.7837 63.0941L51.5475 63.2358L51.2878 63.3303L51.1933 63.3539L50.8155 63.3775H46.9667L46.6597 63.3303L46.3528 63.2122L46.0458 62.9997L45.8569 62.7636L45.7389 62.5274L45.668 62.2913L45.6444 61.9607L45.7152 61.6065L45.8805 61.276L46.093 61.0398L46.3056 60.8746L46.5653 60.7565L46.7542 60.7093L49.6349 60.6857V55.1367L49.7058 54.7589L49.8474 54.4756L50.0599 54.2394L50.2252 54.0978L50.5086 53.9561L50.7683 53.8853Z" fill="#FF850E"/>
<path d="M31.406 40.426H41.5594L41.9372 40.5205L42.2442 40.7094L42.4567 40.9219L42.6456 41.2525L42.7164 41.5122L42.74 41.8428L42.6692 42.197L42.5275 42.4803L42.3386 42.7164L42.0553 42.929L41.8428 43.0234L41.6775 43.0706L41.4413 43.0942H31.5477L31.2171 43.047L30.9338 42.929L30.6977 42.7637L30.5324 42.5984L30.3435 42.2914L30.249 41.9608V41.583L30.3435 41.2289L30.4851 40.9691L30.674 40.7566L30.9102 40.5913L31.1935 40.4733L31.406 40.426Z" fill="#FF850E"/>
<path d="M51.2405 30.7686H51.5239L51.8544 30.8394L52.1378 30.9811L52.3739 31.17L52.5628 31.4297L52.6809 31.6894L52.7281 31.8783L52.7517 38.9621L52.7045 39.4107L52.6336 39.6469L52.492 39.883L52.2795 40.1191L52.0197 40.2844L51.8072 40.3788L51.6183 40.4261H51.2169L50.9335 40.3552L50.6266 40.1899L50.3905 39.9774L50.2488 39.7649L50.1307 39.5052L50.0835 39.2691V31.9256L50.1543 31.6422L50.296 31.3589L50.5085 31.1227L50.6738 30.9811L50.9572 30.8394L51.2405 30.7686Z" fill="#FF850E"/>
<path d="M40.733 53.9795H41.158L41.4413 54.0503L41.7483 54.2156L41.9136 54.3573L42.1261 54.6406L42.2678 54.9948L42.2914 55.1601V59.3159L42.2205 59.6465L42.0553 59.9771L41.8427 60.2132L41.583 60.3785L41.3705 60.4729L41.2052 60.5202H40.733L40.426 60.4257L40.2135 60.3076L39.9774 60.1187L39.7648 59.8118L39.6704 59.552L39.6232 59.2687V55.2546L39.694 54.8532L39.8357 54.5698L40.0482 54.3337L40.2371 54.1684L40.5441 54.0267L40.733 53.9795Z" fill="#FF850E"/>
<path d="M45.5972 57.1436H46.4L46.7542 57.1672L47.0612 57.2616L47.2973 57.3797L47.557 57.6158L47.7459 57.9228L47.8404 58.1825L47.864 58.3006V58.6548L47.7932 58.9381L47.6279 59.2687L47.4154 59.5048L47.1556 59.6701L46.8723 59.7882L46.7542 59.8118L45.8333 59.8354H45.4083L45.0541 59.7882L44.7471 59.6701L44.4874 59.4812L44.2749 59.2451L44.1332 58.9617L44.0624 58.702V58.3006L44.1332 58.0172L44.2513 57.7811L44.4402 57.545L44.6055 57.4033L44.8652 57.2616L45.1722 57.1672L45.5972 57.1436Z" fill="#FF850E"/>
<path d="M54.7824 54.3101H55.4672L55.8686 54.3337L56.1992 54.4281L56.4825 54.5934L56.7186 54.8295L56.9075 55.1601L56.9784 55.4198V55.8685L56.8839 56.1991L56.7186 56.4824L56.4825 56.7185L56.1992 56.8838L55.8686 56.9783L54.6171 57.0019L54.2865 56.9783L53.9087 56.8602L53.6726 56.6949L53.5073 56.5532L53.342 56.3171L53.224 56.0338L53.1768 55.8449V55.4907L53.2476 55.2073L53.3893 54.924L53.5782 54.6879L53.8851 54.4753L54.1685 54.3573L54.2865 54.3337L54.7824 54.3101Z" fill="#FF850E"/>
<path d="M44.8651 39.6233H45.1249L45.4082 39.6705L45.6916 39.7886L45.8805 39.9303L46.0222 40.0483L46.1874 40.2844L46.2819 40.4733L46.3527 40.7331L46.3763 41.0637V41.9845L46.3291 42.4332L46.2111 42.7401L46.0458 42.9999L45.8333 43.1888L45.4555 43.3777L45.2902 43.4249H44.7707L44.4873 43.3305L44.204 43.1652L43.9915 42.9527L43.8262 42.6929L43.7317 42.4332L43.7081 42.3151V40.7803L43.779 40.497L43.9206 40.2136L44.1332 39.9775L44.3693 39.7886L44.6526 39.6705L44.8651 39.6233Z" fill="#FF850E"/>
<path fill-rule="evenodd" clip-rule="evenodd" d="M37.2383 30.7686H31.5005L31.3116 30.7922L31.0518 30.863L30.7685 31.0283L30.5324 31.2644L30.3435 31.5714L30.249 31.9256V37.8523L30.2726 37.994L30.3907 38.3246L30.556 38.5607L30.7921 38.7732L31.0991 38.9385L31.406 39.0093H37.3564L37.4744 38.9857L37.7814 38.8676L37.9939 38.726L38.1592 38.5607L38.3245 38.3246L38.4426 38.0412L38.4898 37.7106V32.1145L38.4662 31.8311L38.3953 31.6186L38.2537 31.3353L38.0648 31.1227L37.805 30.9338L37.5217 30.8158L37.2383 30.7686ZM35.798 33.4367H32.9172L32.8936 33.4839V36.3174L32.9409 36.3647L35.8216 36.3411V33.4603L35.798 33.4367Z" fill="#FF850E"/>
<path fill-rule="evenodd" clip-rule="evenodd" d="M37.1203 55.1128H31.6422L31.3352 55.1364L31.1463 55.1836L30.8866 55.3017L30.674 55.467L30.4615 55.7031L30.3199 55.9865L30.249 56.2698V62.2202L30.3199 62.5035L30.4615 62.7869L30.674 63.023L30.9338 63.2119L31.2407 63.3299L31.5241 63.3772H37.1203L37.38 63.3536L37.6397 63.2827L37.9703 63.0938L38.23 62.8341L38.4189 62.4563L38.4898 62.0549V56.4823L38.4662 56.199L38.3953 55.9628L38.3009 55.7739L38.112 55.5142L37.805 55.2781L37.4981 55.16L37.1203 55.1128ZM35.8216 57.8046L32.9408 57.781L32.8936 57.8282V60.6853L32.9172 60.709H35.7271L35.8216 60.6853V57.8046Z" fill="#FF850E"/>
<path fill-rule="evenodd" clip-rule="evenodd" d="M62.6218 30.7686H56.9312L56.6006 30.8158L56.3409 30.9338L56.1048 31.0991L55.8923 31.3353L55.727 31.6658L55.6561 31.9492V37.8287L55.727 38.1357L55.845 38.3954L56.0575 38.6551L56.2464 38.7968L56.5298 38.9385L56.8131 39.0093H62.7635L62.8816 38.9857L63.1413 38.8913L63.4719 38.6787L63.6372 38.4898L63.8024 38.2065L63.8969 37.8051V31.9492L63.8733 31.8075L63.8024 31.595L63.6135 31.2644L63.4246 31.0755L63.1885 30.9102L62.9288 30.8158L62.6218 30.7686ZM61.2286 33.4367H58.3243V36.3411L58.3479 36.3647H58.9146L61.2286 36.3411V33.4367Z" fill="#FF850E"/>
</g>
</g>
<defs>
<clipPath id="clip0_206_1023">
<rect width="94" height="94" fill="white"/>
</clipPath>
<clipPath id="clip1_206_1023">
<rect width="48.3584" height="48.3584" fill="white" transform="translate(23 23)"/>
</clipPath>
</defs>
</svg>
