<svg width="50" height="50" viewBox="0 0 50 50" fill="none" xmlns="http://www.w3.org/2000/svg">
<path d="M47.876 2.85645H48.4619L48.8281 2.9541L49.1943 3.14941L49.5117 3.41797L49.7314 3.71094L49.9268 4.12598L50 4.29688V5.12695H49.9512L49.9023 5.37109L49.707 5.7373L49.4385 6.05469L46.8994 8.59375H46.8506L46.8018 8.69141L46.6553 8.81348L46.5088 8.98438L46.3379 9.13086L41.8945 13.5742L41.7236 13.7207L41.6016 13.8672L41.4307 14.0137L41.3086 14.1602L41.1133 14.3311L37.1826 18.2617H37.1338L37.085 18.3594H37.0361L36.9873 18.457L36.792 18.6279L32.9102 22.5098H32.8613V22.5586H32.8125V22.6074H32.7637V22.6562H32.7148V22.7051H32.666V22.7539H32.6172V22.8027H32.5684V22.8516H32.5195V22.9004H32.4707V22.9492H32.4219V22.998L32.2266 23.1689L28.833 26.5625H28.7842L28.7354 26.6602L28.5889 26.7822L28.4424 26.9531L28.2715 27.0996L23.9014 31.4697H23.8525L23.8281 31.543L23.6572 31.6895L23.5352 31.8359L23.3643 31.9824L23.2422 32.1289L23.0469 32.2998L22.876 32.4707L22.583 32.6904L22.2168 32.8613L21.7773 32.959H21.4111L21.0449 32.8857L20.7031 32.7393L20.4346 32.5439L20.1416 32.2754L18.6768 30.8105V30.7617L18.6035 30.7373L18.4814 30.5908L18.335 30.4688L18.1641 30.2734L15.2832 27.3926V27.3438L15.1855 27.2949V27.2461L15.0879 27.1973V27.1484L14.9902 27.0996V27.0508H14.9414V27.002H14.8926V26.9531H14.8438L14.6973 26.7822L14.5508 26.6602L14.3799 26.4648L11.5967 23.6816L11.377 23.4131L11.2305 23.1689L11.084 22.8271L11.0352 22.6074L11.0107 22.29L11.0596 21.9238L11.1816 21.5576L11.377 21.2402L11.5967 20.9717L11.9629 20.7031L12.2314 20.5811L12.6221 20.4834H13.1592L13.5498 20.5811L13.916 20.7764L14.2578 21.0693L15.625 22.4365V22.4854L15.7227 22.5342V22.583L15.8203 22.6318L15.9424 22.7783L16.1133 22.9248L16.2842 23.1201L19.7266 26.5625L19.873 26.7334L20.0195 26.8555L20.1904 27.0508L21.5576 28.418L21.6553 28.4424L21.7041 28.3691H21.7529L21.8018 28.2715L22.1191 27.9541H22.168V27.9053H22.2168V27.8564H22.2656V27.8076L22.4365 27.6611L22.5586 27.5146L22.7539 27.3438L26.0254 24.0723H26.0742L26.123 23.9746H26.1719L26.1963 23.9014L26.3672 23.7549L26.4893 23.6084L26.6846 23.4375L31.3965 18.7256H31.4453L31.4941 18.6279H31.543L31.5918 18.5303H31.6406L31.6895 18.4326H31.7383L31.7871 18.335H31.8359L31.8848 18.2373H31.9336L31.9824 18.1396H32.0312L32.0801 18.042H32.1289V17.9932H32.1777V17.9443H32.2266V17.8955H32.2754V17.8467H32.3242V17.7979H32.373V17.749H32.4219V17.7002L32.6172 17.5293L34.7656 15.3809L34.79 15.3076L34.6191 15.0879L34.2773 14.6729L33.8379 14.1846L33.4717 13.7939L33.1787 13.501L32.9834 13.3301L32.7637 13.1104L32.4951 12.8906L32.2266 12.6465L31.8848 12.3779L31.4697 12.0605L31.0303 11.7432L30.3223 11.2793L29.6631 10.8887L28.9795 10.5225L28.2227 10.1562L27.4658 9.83887L26.8066 9.59473L25.9766 9.32617L25.0488 9.08203L24.0967 8.88672L23.2422 8.76465L22.5342 8.69141L21.6797 8.64258H20.6787L19.4092 8.71582L18.6523 8.81348L17.749 8.95996L17.0898 9.10645L15.918 9.42383L15.1611 9.69238L14.209 10.0586L13.501 10.4004L13.0859 10.5957L12.6221 10.8398L12.1338 11.1328L11.6699 11.4258L11.1084 11.792L10.7178 12.085L10.3516 12.3779L10.1318 12.5488L9.7168 12.8662L9.32617 13.2324L8.88672 13.6719L8.69141 13.8428L8.34961 14.1846L8.12988 14.4531L7.8125 14.8193L7.54395 15.1367L7.32422 15.4053L7.08008 15.7227L6.90918 15.9912L6.61621 16.4062L6.17676 17.0654L6.03027 17.334L5.59082 18.1641L5.29785 18.7256L4.93164 19.6289L4.6875 20.2393L4.41895 21.1182L4.22363 21.8018L4.07715 22.4854L3.90625 23.4131L3.80859 24.2188L3.73535 25.0732V26.9043L3.78418 27.5879L3.93066 28.833L4.1748 30.0293L4.3457 30.7129L4.66309 31.7139L4.8584 32.251L5.27344 33.252L5.71289 34.1309L6.00586 34.668L6.27441 35.1074L6.61621 35.6445L6.86035 36.0107L7.15332 36.4014L7.49512 36.8408L7.76367 37.1826L8.00781 37.4512L8.17871 37.6465L8.47168 37.9639L8.74023 38.2568L9.0332 38.5498L9.22852 38.7207L9.59473 39.0625L9.83887 39.2822L10.1807 39.5508L11.0596 40.2344L11.6699 40.625L12.4268 41.1133L12.7686 41.2842L13.7939 41.8213L14.917 42.2852L15.4541 42.4805L16.7236 42.8711L18.1152 43.1641L18.7988 43.2617L19.7021 43.3594L20.1172 43.3838L20.874 43.4082H21.6064L22.9248 43.3105L23.6572 43.2129L24.7559 43.0176L26.0498 42.6758L26.7822 42.4316L27.7588 42.0654L28.5889 41.6748L29.3457 41.3086L29.8828 40.9912L30.3711 40.6982L30.7861 40.4297L31.1279 40.1855L31.5674 39.8682L31.8604 39.6484L32.1289 39.4287L32.4951 39.1113L32.7637 38.8672L33.0322 38.6475L33.5693 38.1104L33.5938 38.0615H33.6426V38.0127H33.6914L33.7402 37.915L34.1309 37.5244L34.3506 37.2559L34.5215 37.0605L34.7656 36.7432L34.9854 36.4746L35.2295 36.1572L35.9131 35.1318L36.1572 34.7412L36.3525 34.3506L36.6455 33.8135L36.8408 33.4229L37.1094 32.8125L37.4756 31.9092L37.7686 30.9814L37.9639 30.2979L38.1836 29.2725L38.3057 28.5889L38.4277 27.5146L38.501 26.0254L38.5742 25.5127L38.7451 25.1221L38.916 24.8779L39.1602 24.6094L39.4043 24.4385L39.7461 24.2676L40.0391 24.1943L40.4297 24.1699L40.8203 24.2188L41.1377 24.3408L41.4062 24.4873L41.6992 24.7314L41.8945 24.9756L42.0898 25.3174L42.1875 25.6348L42.2119 25.8301V26.5137L42.1631 27.71L41.9922 29.1992L41.7969 30.2246L41.6016 31.1523L41.3574 32.0068L41.0156 33.1055L40.4053 34.6191L40.1123 35.2539L39.5264 36.377L39.3066 36.7676L39.0869 37.1094L38.8428 37.4756L38.4766 38.0615L38.2812 38.3301L38.0371 38.6475L37.7686 38.9893L37.4268 39.4287L37.1582 39.7705L37.0117 39.9414H36.9629L36.9141 40.0391L36.5967 40.3564L36.4258 40.5518L36.2549 40.7227L36.084 40.918L35.6934 41.3086L35.498 41.4795L35.2295 41.7236L35.0342 41.8945L34.6924 42.1875L34.4238 42.4316L33.9355 42.7979L33.0078 43.4814L32.4707 43.8232L31.958 44.1406L31.3477 44.5068L30.9326 44.7266L29.9561 45.2148L29.2725 45.5078L28.2715 45.8984L27.5391 46.1426L26.5625 46.4355L25.7324 46.6309L24.6338 46.8506L23.5352 46.9971L22.8516 47.0703L22.0947 47.1191L21.4844 47.1436H20.5078L19.4824 47.0947L17.9932 46.9238L17.2607 46.8018L15.8936 46.5088L15.1367 46.2891L13.916 45.8984L13.2568 45.6299L12.3047 45.2393L11.5723 44.873L11.0352 44.5801L10.5225 44.3115L9.98535 43.9697L9.375 43.5791L9.00879 43.335L8.61816 43.042L8.17871 42.7002L7.76367 42.3828L7.49512 42.1631L7.17773 41.8701L6.98242 41.6992L6.66504 41.4062L6.27441 41.04L5.83496 40.6006L5.66406 40.4053L5.29785 40.0146L5.07812 39.7705L4.78516 39.4287L4.56543 39.1357L4.24805 38.7207L3.90625 38.2812L3.4668 37.6221L3.125 37.085L2.83203 36.6211L2.53906 36.084L2.12402 35.2783L1.92871 34.8877L1.66016 34.2773L1.29395 33.374L1.12305 32.8857L0.756836 31.7139L0.585938 31.0791L0.292969 29.6631L0.170898 28.7842L0.0488281 27.7588L0.0244141 27.6367H0V24.4629L0.0244141 24.4141L0.195312 22.9736L0.366211 21.9727L0.610352 20.874L0.90332 19.8242L1.24512 18.7988L1.61133 17.8711L1.92871 17.1631L2.22168 16.5527L2.41699 16.1865L2.6123 15.7959L2.9541 15.21L3.22266 14.7705L3.75977 13.9648L4.07715 13.5254L4.37012 13.1348L4.66309 12.7686L4.88281 12.5L5.17578 12.1582L5.22461 12.085H5.27344L5.32227 11.9873L5.63965 11.6455L5.66406 11.5967H5.71289L5.76172 11.499L6.68945 10.5713L6.88477 10.4004L7.20215 10.1074L7.51953 9.83887L7.78809 9.61914L8.1543 9.32617L8.64258 8.95996L8.91113 8.76465L9.30176 8.49609L9.59473 8.30078L10.0586 8.00781L10.7178 7.61719L11.4502 7.22656L11.8652 7.00684L12.6709 6.64062L13.501 6.29883L14.5996 5.9082L15.4297 5.66406L16.5039 5.39551L17.6758 5.17578L18.5303 5.05371L19.2383 4.98047L19.9707 4.93164L20.6543 4.90723H21.5332L22.583 4.95605L23.6328 5.05371L24.6582 5.2002L25.6592 5.39551L26.8311 5.68848L27.7832 5.98145L28.4668 6.22559L29.2725 6.54297L30.249 6.98242L30.8838 7.2998L31.4209 7.59277L32.0068 7.93457L32.5928 8.30078L32.8369 8.47168L33.2031 8.71582L34.1309 9.39941L34.4482 9.66797L34.79 9.93652L35.1074 10.2295L35.3027 10.4004L35.6201 10.6934L35.7422 10.791L36.2305 11.2793L36.4014 11.4746L36.7188 11.792L36.9385 12.0605L37.207 12.3535L37.3779 12.5488L37.4512 12.6465L37.6465 12.5488L37.6953 12.4512L37.8906 12.2559H37.9395V12.207L38.1348 12.0361L41.0156 9.15527H41.0645V9.10645H41.1133V9.05762H41.1621V9.00879H41.2109V8.95996H41.2598V8.91113H41.3086V8.8623L41.4795 8.71582L44.1895 6.00586H44.2383L44.2627 5.93262L44.4336 5.78613L44.5557 5.63965L44.751 5.46875L46.875 3.34473L47.168 3.125L47.4854 2.9541L47.876 2.85645Z" fill="#1B1B1B"/>
</svg>
