<svg width="38" height="38" viewBox="0 0 38 38" fill="none" xmlns="http://www.w3.org/2000/svg">
<g clip-path="url(#clip0_206_1058)">
<path d="M16.792 0H21.208L21.3564 0.0556641L21.6904 0.166992L21.9873 0.31543L22.2842 0.519531L22.5068 0.723633L22.6738 0.927734L22.8594 1.20605L23.0078 1.54004L23.082 1.7627L23.1562 2.18945L23.4902 4.80566L23.5273 5.06543L23.6943 5.10254L24.2139 5.28809L24.9004 5.56641L25.5684 5.88184L25.6426 5.91895L25.7354 5.90039L25.8838 5.77051L26.1992 5.5293L26.8672 5.00977L27.1084 4.82422L28.1104 4.04492L28.3887 3.87793L28.6113 3.7666L28.9639 3.65527L29.1865 3.61816L29.5947 3.59961L29.8545 3.61816L30.1885 3.69238L30.5596 3.84082L30.875 4.02637L31.1348 4.24902L33.8438 6.95801L34.0293 7.21777L34.1777 7.47754L34.2891 7.75586L34.3633 8.07129L34.4004 8.47949L34.3633 8.8877L34.2891 9.20312L34.1777 9.48145L34.0293 9.75977L33.8438 10.0195L33.3242 10.6875L33.1387 10.9287L32.9346 11.1885L32.7861 11.374L32.6377 11.5781L32.3965 11.875L32.1738 12.1719L32.0811 12.3018L32.0996 12.3945L32.3223 12.8584L32.5635 13.415L32.8047 14.0459L32.9346 14.417L32.9717 14.4727L35.7549 14.8252L36.1816 14.8994L36.4785 14.9922L36.8311 15.1592L37.1465 15.3818L37.3691 15.5859L37.5361 15.79L37.7031 16.0498L37.833 16.3096L37.9629 16.6992H38V21.2637H37.9629L37.8701 21.5791L37.7217 21.9131L37.6104 22.0986L37.4248 22.3398L37.1465 22.6182L36.8125 22.8408L36.4971 22.9893L36.1816 23.082L35.9033 23.1377L35.1982 23.2305L33.0088 23.5088L32.9531 23.5273L32.6934 24.251L32.4707 24.7891L32.2295 25.3271L32.0811 25.624L32.0996 25.7354L32.3408 26.0322L32.5635 26.3291L32.7861 26.6074L33.0088 26.9043L33.2314 27.1826L33.6025 27.665L33.8623 27.999L34.0293 28.2402L34.1777 28.5L34.3076 28.8525L34.3633 29.1123L34.4004 29.502L34.3633 29.9287L34.2705 30.2812L34.1406 30.5781L33.9922 30.8379L33.8252 31.042L33.6582 31.2275L31.0977 33.7881L30.7822 34.0293L30.4668 34.1963L30.1328 34.3076L29.873 34.3633L29.7432 34.3818H29.2793L28.9453 34.3262L28.5557 34.1963L28.2402 34.0293L27.8877 33.7695L27.3682 33.3613L27.0342 33.1016L26.793 32.916L26.5332 32.7119L26.292 32.5264L26.0322 32.3223L25.791 32.1367L25.7168 32.0811L25.5869 32.0996L25.0488 32.3594L24.4736 32.6006L23.9355 32.8047L23.5459 32.9346L23.5273 32.9531L23.3789 34.085L23.2305 35.2539L23.1191 36.0703L23.0449 36.3486L22.9336 36.6455L22.7666 36.9424L22.5625 37.2021L22.4883 37.2949H22.4512V37.332L22.3027 37.4619L22.0059 37.666L21.709 37.8145L21.4121 37.9258L21.1523 38H16.7363V37.9629L16.3652 37.8516L16.0498 37.7031L15.8271 37.5547L15.5859 37.3506L15.4189 37.1836L15.2148 36.9053L15.0479 36.6084L14.9365 36.293L14.8623 35.959L14.6768 34.5488L14.4727 32.9531L13.7119 32.6748L13.3037 32.5078L12.8027 32.2852L12.376 32.0811H12.2832L11.9863 32.3223L11.7637 32.4893L11.5039 32.6934L11.2627 32.8789L10.7432 33.2871L10.4463 33.5098L10.1494 33.751L9.81543 33.9922L9.48145 34.1777L9.11035 34.3076L8.83203 34.3633L8.70215 34.3818H8.23828L7.83008 34.3076L7.5332 34.1963L7.21777 34.0293L6.97656 33.8438L6.73535 33.6211L4.26758 31.1533L4.1377 31.0049L3.9707 30.7822L3.84082 30.5596L3.72949 30.2812L3.65527 30.04L3.59961 29.6504V29.3906L3.65527 29.001L3.74805 28.6855L3.84082 28.4814L3.9707 28.2402L4.15625 27.9805L4.3418 27.7393L5.64062 26.0693L5.82617 25.8281L5.91895 25.7168L5.90039 25.6055L5.69629 25.1787L5.41797 24.5479L5.21387 24.0098L5.04688 23.5273L4.08203 23.3975L2.33789 23.1748L1.85547 23.1006L1.57715 23.0264L1.24316 22.8779L0.983398 22.7109L0.742188 22.5068L0.556641 22.3213L0.352539 22.043L0.204102 21.7832L0.0742188 21.4307L0 21.1709V16.8105L0.129883 16.4023L0.259766 16.1055L0.408203 15.8643L0.556641 15.6787L0.723633 15.4932L0.890625 15.3447L1.16895 15.1592L1.46582 15.0107L1.74414 14.918L2.15234 14.8438L3.72949 14.6396L4.91699 14.4912L5.04688 14.4541L5.25098 13.8975L5.45508 13.3594L5.7334 12.7471L5.91895 12.3574L5.90039 12.2646L5.69629 12.0049L5.45508 11.6895L5.25098 11.4297L4.99121 11.0957L4.75 10.7803L4.52734 10.502L4.3418 10.2607L4.08203 9.92676L3.89648 9.62988L3.7666 9.37012L3.65527 8.99902L3.61816 8.81348L3.59961 8.62793V8.36816L3.65527 7.97852L3.74805 7.64453L3.89648 7.34766L4.04492 7.10645L4.21191 6.90234L4.3418 6.75391L4.47168 6.64258L4.56445 6.53125L4.69434 6.41992L4.78711 6.30859L4.91699 6.19727L5.00977 6.08594L5.13965 5.97461L5.23242 5.86328L5.3623 5.75195L5.45508 5.64062L5.58496 5.5293L5.67773 5.41797L5.80762 5.30664L5.90039 5.19531L6.03027 5.08398L6.5498 4.56445L6.64258 4.45312L6.77246 4.3418L6.86523 4.24902L7.05078 4.08203L7.23633 3.95215L7.58887 3.7666L7.86719 3.67383L8.14551 3.61816L8.40527 3.59961H8.59082L8.9248 3.63672L9.27734 3.72949L9.61133 3.87793L9.9082 4.06348L10.1123 4.23047L10.4092 4.45312L10.6875 4.67578L11.1699 5.04688L11.4297 5.25098L11.7637 5.51074L12.0791 5.75195L12.3018 5.91895L12.3945 5.90039L12.8027 5.69629L13.3594 5.45508L13.8789 5.25098L14.417 5.06543L14.4727 5.00977L14.584 4.19336L14.8623 2.02246L14.9365 1.68848L15.0479 1.3916L15.2148 1.07617L15.4004 0.834961L15.5674 0.649414L15.7344 0.500977L16.0312 0.296875L16.3838 0.129883L16.6807 0.0371094L16.792 0ZM17.0889 1.5957L16.9033 1.65137L16.7363 1.7627L16.6064 1.89258L16.5137 2.04102L16.458 2.22656L16.3838 2.76465L16.1982 4.23047L16.0869 5.10254L15.9941 5.80762L15.9199 6.03027L15.7715 6.23438L15.5859 6.36426L15.2705 6.47559L14.6025 6.69824L14.1016 6.88379L13.3037 7.23633L12.9326 7.42188L12.5801 7.60742L12.376 7.68164H12.0977L11.9121 7.62598L11.708 7.49609L11.4482 7.29199L11.1699 7.06934L10.8545 6.82812L10.5947 6.62402L10.2607 6.36426L10.0195 6.17871L9.75977 5.97461L9.51855 5.78906L9.25879 5.58496L9.01758 5.39941L8.83203 5.28809L8.70215 5.23242L8.60938 5.21387H8.34961L8.16406 5.26953L7.95996 5.41797L5.39941 7.97852L5.26953 8.18262L5.21387 8.38672V8.59082L5.28809 8.83203L5.41797 9.03613L5.67773 9.37012L5.90039 9.64844L6.12305 9.94531L6.36426 10.2422L6.53125 10.4648L7.31055 11.4668L7.49609 11.708L7.62598 11.9121L7.68164 12.0791V12.3945L7.58887 12.6357L7.19922 13.3965L6.99512 13.8418L6.67969 14.6582L6.45703 15.3447L6.36426 15.5859L6.25293 15.7529L6.12305 15.8643L5.97461 15.9385L5.75195 15.9941L4.63867 16.1426L2.41211 16.4209L2.07812 16.4951L1.89258 16.6064L1.74414 16.7549L1.61426 17.0146L1.5957 17.1074V20.8926L1.65137 21.0781L1.7627 21.2637L1.89258 21.3936L2.09668 21.5049L2.375 21.5605L5.00977 21.8945L5.82617 22.0059L6.03027 22.0801L6.19727 22.1914L6.30859 22.3213L6.41992 22.5439L6.69824 23.3975L6.9209 23.9727L7.125 24.4365L7.38477 24.9746L7.62598 25.4385L7.68164 25.6055V25.9023L7.62598 26.0879L7.47754 26.3105L6.69824 27.3125L6.45703 27.6279L6.23438 27.9062L6.04883 28.1475L5.78906 28.4814L5.58496 28.7412L5.3252 29.0938L5.25098 29.2607L5.21387 29.3906V29.6318L5.26953 29.8174L5.39941 30.0215L7.95996 32.582L8.12695 32.6934L8.23828 32.749L8.5166 32.7861L8.7207 32.749L8.94336 32.6377L9.66699 32.0811L10.1865 31.6729L10.6689 31.3018L11.0029 31.042L11.5225 30.6338L11.6895 30.5039L11.875 30.3926L12.0605 30.3184L12.2646 30.2998L12.4688 30.3369L12.6357 30.4111L13.3594 30.7822L14.0459 31.0791L14.5283 31.2646L14.8438 31.376L15.5117 31.5986L15.7158 31.71L15.8643 31.877L15.957 32.0625L16.0127 32.3223L16.3838 35.2539L16.458 35.7734L16.5322 35.9775L16.6436 36.1445L16.792 36.2744L16.9775 36.3672L17.1631 36.4043H20.8555L21.0225 36.3672L21.2637 36.2373L21.4307 36.0518L21.5049 35.9033L21.5791 35.4951L21.9873 32.2852L22.043 32.0439L22.1357 31.8584L22.3027 31.6914L22.5254 31.5801L23.3789 31.3018L24.084 31.0234L24.4551 30.8564L24.9189 30.6338L25.4199 30.374L25.5869 30.3184H25.9395L26.125 30.3926L26.3662 30.5596L26.6445 30.7822L26.8857 30.9678L27.5537 31.4873L27.8691 31.7285L28.1475 31.9512L28.3887 32.1367L28.7227 32.3965L29.0381 32.6377L29.2607 32.749L29.4092 32.7861H29.5947L29.8359 32.7119L30.0029 32.6006L30.0957 32.5264V32.4893L30.1699 32.4521V32.415L30.2441 32.3779V32.3408L30.3184 32.3037L32.0254 30.5967V30.5596L32.0996 30.5225L32.5449 30.0771V30.04H32.582L32.7119 29.8545L32.7861 29.5947V29.4277L32.7305 29.2051L32.6006 28.9824L32.3965 28.7227L32.1367 28.3887L31.9326 28.1289L31.6729 27.7949L31.4316 27.4795L31.209 27.2012L30.8379 26.7188L30.5781 26.3848L30.4297 26.1807L30.3369 25.9951L30.2998 25.8467V25.6982L30.3555 25.4756L30.7822 24.6406L31.0791 23.9727L31.3389 23.2676L31.5801 22.5254L31.6729 22.3398L31.8398 22.1543L31.9883 22.0615L32.1738 22.0059L35.7549 21.542L35.9775 21.4678L36.1816 21.3193L36.3115 21.1523L36.3857 20.9668L36.4043 20.8369V17.1631L36.3672 16.9775L36.2559 16.7549L36.0889 16.5879L35.9033 16.4951L35.8105 16.458L32.2295 15.9941L32.0254 15.9385L31.877 15.8643L31.7471 15.7529L31.6357 15.5859L31.543 15.3633L31.3574 14.7695L31.1162 14.1201L30.8564 13.5264L30.6338 13.0625L30.3926 12.5986L30.3184 12.3945L30.2998 12.1904L30.3555 11.9492L30.4854 11.7266L30.7266 11.4297L30.7637 11.3369H30.8008L30.9678 11.1143L31.2275 10.7803L31.2832 10.7061V10.6689H31.3203L31.543 10.3721L31.8027 10.0381L32.0439 9.72266L32.2666 9.44434L32.3223 9.37012V9.33301H32.3594L32.6191 8.98047L32.7119 8.83203L32.7861 8.59082V8.36816L32.7305 8.18262L32.6191 7.99707L30.0029 5.38086L29.7803 5.25098L29.6318 5.21387H29.3906L29.2051 5.26953L28.9824 5.39941L28.7598 5.58496L28.5371 5.75195L28.2773 5.95605L28.0361 6.1416L27.5166 6.5498L27.2197 6.77246L26.9229 7.01367L26.7002 7.18066L26.4404 7.38477L26.1807 7.57031L25.958 7.66309L25.9023 7.68164H25.624L25.4385 7.62598L24.9004 7.34766L24.6035 7.19922L24.0283 6.93945L23.3418 6.67969L22.4512 6.38281L22.2471 6.25293L22.0986 6.06738L22.0244 5.88184L21.9502 5.39941L21.5977 2.63477L21.5234 2.1709L21.4492 1.98535L21.3379 1.83691L21.1895 1.70703L21.041 1.63281L20.9111 1.5957H17.0889Z" fill="black"/>
<path d="M18.4805 11.0771H19.501L20.2061 11.1514L20.7812 11.2627L21.208 11.374L21.8203 11.5781L22.3027 11.7822L22.5996 11.9307L22.9521 12.1162L23.3418 12.3574L23.6572 12.5801L23.9912 12.8398L24.2324 13.0439L24.4736 13.2666L24.8633 13.6562L24.9932 13.8047L25.1973 14.0459L25.4199 14.3428L25.6611 14.6953L25.8652 15.0293L26.1064 15.4746L26.2734 15.8271L26.4775 16.3467L26.6445 16.8848L26.7559 17.3301L26.8672 17.998L26.9229 18.5918V19.4268L26.8672 20.0205L26.7559 20.6699L26.626 21.1895L26.4219 21.8018L26.2363 22.2471L26.0879 22.5625L25.8652 22.9707L25.6611 23.3047L25.4385 23.6201L25.29 23.8242L25.0488 24.1211L24.8818 24.3066L24.752 24.4551L24.3438 24.8633L24.1396 25.0303L23.8984 25.2344L23.6016 25.457L23.2676 25.6797L22.8965 25.9023L22.4883 26.125L21.9873 26.3477L21.3564 26.5703L20.874 26.7002L20.4473 26.793L19.9463 26.8672L19.6123 26.9043L19.2969 26.9229H18.6289L18.1465 26.8857L17.627 26.8115L17.1816 26.7188L16.6436 26.5703L16.2539 26.4404L15.8457 26.2734L15.3818 26.0508L15.0293 25.8652L14.584 25.5869L14.25 25.3457L13.9531 25.1045L13.749 24.9375L13.6191 24.8076L13.4707 24.6777L13.248 24.4551V24.418H13.2109L13.0811 24.2695L12.9141 24.084L12.7656 23.8984L12.543 23.6016L12.2461 23.1562L11.9863 22.7109L11.7822 22.3027L11.5596 21.7646L11.3926 21.2637L11.2627 20.7812L11.1699 20.2803L11.0957 19.7236L11.0771 19.501V18.4805L11.1514 17.8125L11.2441 17.3115L11.374 16.792L11.5596 16.2354L11.7822 15.6973L12.042 15.1777L12.3203 14.7139L12.5801 14.3428L12.8027 14.0459L13.0254 13.7861L13.2295 13.5635L13.2852 13.4893H13.3223L13.3594 13.415L13.5078 13.2666L13.6562 13.1367L13.8789 12.9326L14.1387 12.7285L14.4355 12.5059L14.7139 12.3203L15.1777 12.042L15.6045 11.8193L16.0312 11.6338L16.5322 11.4482L17.0518 11.2998L17.6826 11.1699L18.2578 11.0957L18.4805 11.0771ZM18.6475 12.6729L18.2207 12.71L17.6641 12.8027L17.1631 12.9326L16.7363 13.0811L16.3467 13.248L16.0498 13.3965L15.7158 13.582L15.3818 13.8047L15.085 14.0273L14.8252 14.25L14.6768 14.3799L14.3242 14.7324V14.7695H14.2871L14.1201 14.9736L13.8975 15.252L13.7305 15.4932L13.582 15.7158L13.4707 15.9199L13.248 16.3467L13.0439 16.8477L12.9141 17.2559L12.8027 17.7012L12.7471 17.998L12.6914 18.4248L12.6729 18.7402V19.2783L12.71 19.7422L12.8027 20.2988L12.9326 20.8184L13.0996 21.3008L13.3037 21.7646L13.5078 22.1543L13.6934 22.4512L13.8975 22.748L14.1387 23.0449L14.3613 23.3047L14.751 23.6943L14.9551 23.8613L15.1777 24.0469L15.5488 24.3066L15.8643 24.4922L16.2354 24.6963L16.6621 24.8818L17.0703 25.0303L17.627 25.1787L18.3135 25.29L18.833 25.3271H19.167L19.668 25.29L20.1689 25.2158L20.6514 25.1045L21.1338 24.9561L21.5791 24.7705L22.0059 24.5664L22.3213 24.3809L22.6553 24.1582L22.8779 23.9912L23.082 23.8242L23.3604 23.583L23.6758 23.2676L23.8428 23.0635L24.0469 22.8223L24.2881 22.4697L24.4736 22.1729L24.6406 21.876L24.8447 21.4307L25.0117 20.9668L25.1416 20.54L25.2529 19.9648L25.3086 19.501L25.3271 18.9258L25.29 18.3135L25.2158 17.8125L25.1045 17.3301L24.9561 16.8662L24.8076 16.4766L24.6035 16.0498L24.3809 15.6602L24.1953 15.3818L23.9727 15.085L23.8057 14.8809L23.6016 14.6582L23.1934 14.25L22.9893 14.083L22.6553 13.8232L22.4512 13.6934L22.1172 13.4893L21.6904 13.2666L21.3193 13.0996L20.7627 12.9141L20.3174 12.8027L19.8906 12.7285L19.5938 12.6914L19.334 12.6729H18.6475Z" fill="black"/>
</g>
<defs>
<clipPath id="clip0_206_1058">
<rect width="38" height="38" fill="white"/>
</clipPath>
</defs>
</svg>
