<svg width="24" height="24" viewBox="0 0 24 24" fill="none" xmlns="http://www.w3.org/2000/svg">
<g clip-path="url(#clip0_206_616)">
<mask id="mask0_206_616" style="mask-type:luminance" maskUnits="userSpaceOnUse" x="0" y="0" width="24" height="24">
<path d="M12 23.25C13.4776 23.2518 14.9411 22.9616 16.3062 22.3962C17.6714 21.8307 18.9113 21.001 19.9549 19.9549C21.001 18.9113 21.8307 17.6714 22.3962 16.3062C22.9616 14.9411 23.2518 13.4776 23.25 12C23.2518 10.5224 22.9616 9.05893 22.3962 7.69378C21.8307 6.32863 21.001 5.08866 19.9549 4.04513C18.9113 2.99897 17.6714 2.16932 16.3062 1.60384C14.9411 1.03835 13.4776 0.748186 12 0.750009C10.5224 0.748186 9.05893 1.03835 7.69378 1.60384C6.32863 2.16932 5.08866 2.99897 4.04513 4.04513C2.99897 5.08866 2.16932 6.32863 1.60384 7.69378C1.03835 9.05893 0.748186 10.5224 0.750009 12C0.748186 13.4776 1.03835 14.9411 1.60384 16.3062C2.16932 17.6714 2.99897 18.9113 4.04513 19.9549C5.08866 21.001 6.32863 21.8307 7.69378 22.3962C9.05893 22.9616 10.5224 23.2518 12 23.25Z" fill="white" stroke="white" stroke-width="1.5" stroke-linejoin="round"/>
<path d="M7.5 12L10.875 15.375L17.625 8.625" stroke="black" stroke-width="1.5" stroke-linecap="round" stroke-linejoin="round"/>
</mask>
<g mask="url(#mask0_206_616)">
<path d="M-1.5 -1.5H25.5V25.5H-1.5V-1.5Z" fill="#61B346"/>
</g>
</g>
<defs>
<clipPath id="clip0_206_616">
<rect width="24" height="24" fill="white"/>
</clipPath>
</defs>
</svg>
