<svg width="93" height="93" viewBox="0 0 93 93" fill="none" xmlns="http://www.w3.org/2000/svg">
<g clip-path="url(#clip0_206_1069)">
<circle cx="46.5" cy="46.5" r="46" fill="white" stroke="#B4B4B4"/>
<path d="M66.6675 56.9089H62.7039L68.2163 37.0004H72.1801L66.6675 56.9089Z" fill="#66686C"/>
<path d="M64.6098 37.63C64.3349 37.2511 63.9111 37.06 63.3353 37.06H41.5396L40.4601 40.9593H44.426V40.957H60.2881L59.1341 45.1239H43.2716L43.273 45.1153H39.3088L36.0186 56.9934H39.9848L42.1929 49.0209H60.0235C60.5804 49.0209 61.1045 48.831 61.5974 48.4512C62.0893 48.0709 62.413 47.602 62.5682 47.0421L64.776 39.068C64.9372 38.4894 64.8815 38.0092 64.6098 37.63Z" fill="#66686C"/>
<path d="M33.709 55.6664C33.49 56.4547 32.7723 57 31.954 57H11.5036C10.9463 57 10.5321 56.8101 10.2598 56.4306C9.98765 56.0508 9.92927 55.5809 10.0849 55.0212L15.0748 37.0588H19.0421L14.5852 53.1019H30.4549L34.9118 37.0588H38.8783L33.709 55.6664Z" fill="#66686C"/>
<path d="M79.0258 37.0376L84.0441 47.0177L73.4949 56.9951L79.0258 37.0376Z" fill="#27803B"/>
<path d="M75.5082 37.0376L80.5228 47.0177L69.9692 56.9951L75.5082 37.0376Z" fill="#E9661C"/>
</g>
<defs>
<clipPath id="clip0_206_1069">
<rect width="93" height="93" fill="white"/>
</clipPath>
</defs>
</svg>
