<svg width="320" height="320" viewBox="0 0 320 320" fill="none" xmlns="http://www.w3.org/2000/svg">
<g clip-path="url(#clip0_112_958)">
<ellipse cx="160" cy="160.321" rx="160.643" ry="160.321" fill="#F1F1F3"/>
<ellipse cx="160" cy="160.321" rx="138.153" ry="137.876" fill="#E7E8EE"/>
<ellipse cx="160" cy="160.321" rx="112.45" ry="112.224" fill="#D9DBE7"/>
<path d="M50.0482 84.008C50.0482 86.7955 47.7828 89.0621 44.9799 89.0621C42.177 89.0621 39.9116 86.7955 39.9116 84.008C39.9116 81.2205 42.177 78.9539 44.9799 78.9539C47.7828 78.9539 50.0482 81.2205 50.0482 84.008Z" stroke="#E69534" stroke-width="4"/>
<path d="M193.562 9.09075L202.298 1.97267L202.791 13.2169L193.562 9.09075Z" stroke="#44875C" stroke-width="2"/>
<path d="M229.968 304.289C229.968 306.191 228.422 307.739 226.506 307.739C224.59 307.739 223.044 306.191 223.044 304.289C223.044 302.386 224.59 300.838 226.506 300.838C228.422 300.838 229.968 302.386 229.968 304.289Z" stroke="#8E7BA8" stroke-width="4"/>
<path d="M254.386 92.0241C254.386 93.9262 252.839 95.475 250.924 95.475C249.008 95.475 247.462 93.9262 247.462 92.0241C247.462 90.122 249.008 88.5732 250.924 88.5732C252.839 88.5732 254.386 90.122 254.386 92.0241Z" stroke="#B75DA5" stroke-width="4"/>
<path d="M248.37 235.151L246.945 236.009L248.37 236.866L250.016 237.855L251.531 238.766L251.531 236.998L251.531 235.019L251.531 233.251L250.016 234.162L248.37 235.151ZM252.744 240.905L244.6 236.009L252.744 231.112L252.744 240.905Z" stroke="#7DA7D9" stroke-width="2"/>
<path d="M26.5321 232.326L19.1807 234.204L21.0618 226.867L26.5321 232.326Z" stroke="#CEA8B4" stroke-width="2"/>
<path d="M79.6787 299.479C80.3149 299.691 80.951 299.902 81.6064 300.12C81.6064 302.025 81.6064 303.929 81.6064 305.892C80.7582 305.892 79.91 305.892 79.0361 305.892C79.0189 304.943 79.0064 303.995 78.996 303.046C78.9885 302.518 78.9811 301.99 78.9734 301.445C79.0361 300.12 79.0361 300.12 79.6787 299.479Z" fill="#1AFFA1"/>
<path d="M82.249 296.914C84.1575 296.914 86.0659 296.914 88.0322 296.914C88.0322 297.76 88.0322 298.607 88.0322 299.479C86.1237 299.479 84.2153 299.479 82.249 299.479C82.249 298.632 82.249 297.786 82.249 296.914Z" fill="#1EFBA2"/>
<path d="M72.6104 296.914C74.5188 296.914 76.4272 296.914 78.3935 296.914C78.3935 297.76 78.3935 298.607 78.3935 299.479C76.4851 299.479 74.5766 299.479 72.6104 299.479C72.6104 298.632 72.6104 297.786 72.6104 296.914Z" fill="#1AFEA1"/>
<path d="M79.0361 290.501C79.8843 290.501 80.7325 290.501 81.6064 290.501C81.6064 292.406 81.6064 294.31 81.6064 296.273C80.7582 296.273 79.91 296.273 79.0361 296.273C79.0361 294.368 79.0361 292.463 79.0361 290.501Z" fill="#1EFBA2"/>
<path d="M301.365 171.222C302.002 171.434 302.638 171.646 303.293 171.864C303.293 173.768 303.293 175.673 303.293 177.635C302.445 177.635 301.597 177.635 300.723 177.635C300.706 176.687 300.693 175.738 300.683 174.79C300.675 174.261 300.668 173.733 300.66 173.189C300.723 171.864 300.723 171.864 301.365 171.222Z" fill="#DB5D5F"/>
<path d="M294.297 168.657C296.206 168.657 298.114 168.657 300.08 168.657C300.08 169.504 300.08 170.35 300.08 171.222C298.172 171.222 296.263 171.222 294.297 171.222C294.297 170.376 294.297 169.529 294.297 168.657Z" fill="#D86164"/>
<path d="M303.936 168.657C305.844 168.657 307.753 168.657 309.719 168.657C309.719 169.504 309.719 170.35 309.719 171.222C307.81 171.222 305.902 171.222 303.936 171.222C303.936 170.376 303.936 169.529 303.936 168.657Z" fill="#DB5D5F"/>
<path d="M300.723 162.244C301.571 162.244 302.419 162.244 303.293 162.244C303.293 164.149 303.293 166.054 303.293 168.016C302.445 168.016 301.597 168.016 300.723 168.016C300.723 166.111 300.723 164.207 300.723 162.244Z" fill="#DB5E5F"/>
<path d="M98.3132 58.3567C100.01 58.3567 101.706 58.3567 103.454 58.3567C103.454 59.2032 103.454 60.0497 103.454 60.9219C101.757 60.9219 100.061 60.9219 98.3132 60.9219C98.3132 60.0754 98.3132 59.2289 98.3132 58.3567Z" fill="#27AFF9"/>
<path d="M104.096 52.5852C104.945 52.5852 105.793 52.5852 106.667 52.5852C106.667 54.2782 106.667 55.9711 106.667 57.7154C105.819 57.7154 104.97 57.7154 104.096 57.7154C104.096 56.0224 104.096 54.3295 104.096 52.5852Z" fill="#26AFF9"/>
<path d="M104.739 60.9218C105.375 61.1335 106.011 61.3451 106.667 61.5631C106.667 63.0445 106.667 64.5259 106.667 66.0521C105.819 66.0521 104.97 66.0521 104.097 66.0521C104.069 64.556 104.07 63.0592 104.097 61.5631C104.309 61.3515 104.521 61.1399 104.739 60.9218Z" fill="#2BAFF7"/>
<path d="M107.309 58.3567C108.794 58.3567 110.278 58.3567 111.807 58.3567C111.807 59.2032 111.807 60.0497 111.807 60.9219C110.323 60.9219 108.839 60.9219 107.309 60.9219C107.309 60.0754 107.309 59.2289 107.309 58.3567Z" fill="#2BAFF7"/>
<path d="M113.982 93H173.942L176.855 93.7283L179.283 95.1848L181.467 97.6123L182.681 100.04L183.167 103.924V125.529H187.779L192.149 126.257L196.033 127.471L199.917 129.413L202.344 130.87L205.5 133.297L207.685 135.482L210.112 138.638L211.812 141.551L213.754 146.163L214.725 149.804L215.21 153.446V157.572L214.482 162.185L213.268 166.069L211.569 169.953L209.384 173.351L206.471 176.75L203.801 179.178L200.159 181.605L196.033 183.547L192.149 184.761L187.779 185.489L183.409 185.732L183.167 215.348L182.924 218.746L181.71 221.659L180.254 223.601L178.554 225.058L176.127 226.272L173.457 226.757L162.775 227H126.362L114.225 226.757L111.069 225.786L108.399 223.844L106.942 221.902L105.971 219.96L105.486 218.261L105.243 212.678L105 197.384V118.975L105.243 106.109L105.486 101.254L106.457 98.5833L108.156 96.3986L110.341 94.4565L112.768 93.2428L113.982 93Z" fill="#F7F7FA"/>
<path d="M110.826 116.304H177.583L177.826 122.859V126.5L173.699 127.957L169.815 129.899L166.417 132.326L163.261 135.239L161.076 137.91L159.377 140.58L157.435 144.464L156.221 148.105L155.493 152.232V158.786L156.464 163.399L157.678 167.04L159.62 170.924L161.805 174.08L163.989 176.507L164.232 177.236L165.203 177.721L167.145 179.42L170.544 181.605L175.399 183.79L177.583 184.518V198.355L122.478 198.598L121.507 198.841L121.265 201.511L121.75 202.725L122.478 203.21L135.102 203.453H153.308L177.583 203.696V218.261L176.37 220.203L174.913 221.174L172.728 221.66H115.439L113.254 220.931L111.312 219.232L110.826 217.533L110.583 203.696L111.312 203.453L116.652 203.21L117.866 202.482V199.569L117.623 198.598L110.826 198.355V116.304Z" fill="#7E82A2"/>
<path d="M183.409 130.627H187.051L190.692 131.113L192.877 131.598L196.518 133.298L199.431 134.997L201.373 136.453L203.801 138.638L205.985 141.551L207.927 144.95L209.627 149.805L210.112 153.203V157.573L209.141 162.914L206.956 167.769L205.743 169.953H205.257L205.014 170.924H204.529L204.043 171.895L202.344 173.837L200.159 175.537H199.674V176.022L196.275 177.964L192.148 179.664L188.022 180.392H182.681L178.554 179.664L176.369 178.935L173.456 177.721L169.815 175.294L167.388 173.109L165.446 170.924V170.439H164.96L163.504 168.254L161.562 163.642L160.833 161.7L160.105 156.845V154.66L160.59 150.533L161.804 146.406L163.746 142.522L166.174 139.124L169.33 135.968L172.971 133.54L174.913 132.569L178.797 131.356L180.982 130.87L183.409 130.627Z" fill="#2E2E30"/>
<path d="M114.467 98.3402H174.185L175.641 99.0685L176.855 100.282L177.583 101.739L177.826 110.963L177.583 111.206H110.826V101.739L111.797 100.039L113.254 98.8257L114.467 98.3402Z" fill="#7E82A2"/>
<path d="M183.895 143.978H186.808L187.051 144.221L187.293 148.591V153.203H195.79L197.003 153.688V157.815L196.761 158.058H187.051V167.04L186.808 167.283H183.652L183.409 167.04V158.301H174.185L173.214 157.33V153.931L173.699 153.446L175.398 153.203L182.924 152.96L183.167 152.475L183.409 144.221L183.895 143.978Z" fill="#F1F1F5"/>
<path d="M142.627 206.123H145.54L147.967 207.094L149.181 208.066L150.395 210.008L150.638 210.736V214.134L149.424 216.562L147.482 218.261L145.54 218.989H142.627L140.199 217.776L138.5 215.834L137.772 213.892V210.979L138.985 208.551L140.928 206.852L142.627 206.123Z" fill="#F7F7FA"/>
<path d="M145.54 102.467H150.638L153.065 102.71L154.279 103.681L154.522 105.137L154.036 107.079L152.822 107.808H143.355L142.141 107.079L141.656 106.351V104.166L142.141 103.195L142.87 102.71L145.54 102.467Z" fill="#F6F6F9"/>
<path d="M135.83 102.71L138.015 102.952L138.743 103.681L138.986 104.409V106.351L138.015 107.322L136.801 107.807L135.344 107.565L134.13 106.594L133.888 106.108V104.409L134.616 103.195L135.83 102.71Z" fill="#F5F5F9"/>
<path d="M143.598 211.464H144.812L145.297 211.949V213.163L144.812 213.648H143.598L143.112 213.163L143.355 211.706L143.598 211.464Z" fill="#7E82A2"/>
</g>
<defs>
<clipPath id="clip0_112_958">
<rect width="320" height="320" fill="white"/>
</clipPath>
</defs>
</svg>
