<svg width="100" height="100" viewBox="0 0 100 100" fill="none" xmlns="http://www.w3.org/2000/svg">
<g clip-path="url(#clip0_112_1742)">
<circle cx="50" cy="50" r="49" stroke="#515151" stroke-width="2"/>
<path d="M49.5 52.9375C47.8003 52.9375 46.1388 52.4335 44.7256 51.4892C43.3123 50.5449 42.2109 49.2027 41.5604 47.6324C40.91 46.0621 40.7398 44.3342 41.0714 42.6672C41.403 41.0002 42.2214 39.4689 43.4233 38.2671C44.6252 37.0652 46.1564 36.2467 47.8234 35.9151C49.4905 35.5835 51.2184 35.7537 52.7887 36.4042C54.359 37.0546 55.7012 38.1561 56.6454 39.5693C57.5897 40.9826 58.0938 42.6441 58.0938 44.3438C58.091 46.6221 57.1847 48.8064 55.5737 50.4174C53.9626 52.0285 51.7784 52.9348 49.5 52.9375ZM49.5 39.1875C48.4802 39.1875 47.4833 39.4899 46.6353 40.0565C45.7874 40.6231 45.1265 41.4284 44.7363 42.3705C44.346 43.3127 44.2439 44.3495 44.4428 45.3497C44.6418 46.3499 45.1329 47.2687 45.854 47.9898C46.5751 48.7109 47.4939 49.202 48.4941 49.4009C49.4943 49.5999 50.531 49.4978 51.4732 49.1075C52.4154 48.7172 53.2207 48.0564 53.7873 47.2084C54.3538 46.3605 54.6563 45.3636 54.6563 44.3438C54.6549 42.9767 54.1112 41.6659 53.1445 40.6992C52.1778 39.7326 50.8671 39.1889 49.5 39.1875Z" fill="#515151"/>
<path d="M49.5 73.5625L35.0006 56.4627C34.7992 56.2059 34.5998 55.9475 34.4025 55.6875C31.927 52.4243 30.5892 48.4397 30.5938 44.3438C30.5938 39.3295 32.5857 34.5206 36.1313 30.975C39.6769 27.4294 44.4858 25.4375 49.5 25.4375C54.5143 25.4375 59.3231 27.4294 62.8688 30.975C66.4144 34.5206 68.4063 39.3295 68.4063 44.3438C68.4102 48.4377 67.0731 52.4203 64.5992 55.6823L64.5975 55.6875C64.5975 55.6875 64.0819 56.3647 64.0045 56.4558L49.5 73.5625ZM37.1474 53.6164C37.1474 53.6164 37.5478 54.1458 37.6389 54.2592L49.5 68.2481L61.3766 54.2403C61.4522 54.1458 61.8544 53.613 61.8561 53.6112C63.8794 50.9457 64.9729 47.6902 64.9688 44.3438C64.9688 40.2412 63.339 36.3066 60.4381 33.4057C57.5371 30.5047 53.6026 28.875 49.5 28.875C45.3974 28.875 41.4629 30.5047 38.562 33.4057C35.661 36.3066 34.0313 40.2412 34.0313 44.3438C34.027 47.6924 35.1217 50.9499 37.1474 53.6164Z" fill="#515151"/>
</g>
<defs>
<clipPath id="clip0_112_1742">
<rect width="100" height="100" fill="white"/>
</clipPath>
</defs>
</svg>
