<svg width="73" height="81" viewBox="0 0 73 81" fill="none" xmlns="http://www.w3.org/2000/svg">
<g clip-path="url(#clip0_112_1749)">
<path fill-rule="evenodd" clip-rule="evenodd" d="M2.07439 0H1.28415L0.691463 0.296341L0.0987805 0.987805L0 5.23537V72.4061L0.197561 74.4805L0.592683 75.8634L1.38293 77.3451L2.17317 78.3329L3.35854 79.4195L4.64268 80.2098L6.22317 80.8024L7.6061 81H64.8L65.689 80.9012L66.8744 80.6049L68.1585 80.0122L69.5415 79.1232L70.2329 78.4317L71.2207 77.1476L72.011 75.4683L72.4061 73.789L72.5049 71.5171V67.3683L72.4061 40.0061L72.3073 39.7098L71.9122 39.2159L71.3195 38.9195L67.6646 38.8207H59.1695V1.28415L59.0707 0.987805L58.5768 0.395122L57.9841 0H57.0951L56.4037 0.395122L52.2549 4.5439L51.8598 4.74146L47.5134 0.395122L46.7232 0H45.9329L45.2415 0.395122L41.0927 4.5439L40.6976 4.74146L36.5488 0.592683L35.6598 0H34.7707L34.0793 0.395122L30.0293 4.44512L29.5354 4.74146L25.4854 0.691463L24.4976 0H23.6085L23.3122 0.0987805L22.4232 0.790244L21.2378 1.97561L21.0402 2.37073H20.8427L20.5463 2.76585L19.1634 4.14878L18.3732 4.74146L15.6073 1.97561L13.928 0.395122L13.2366 0H12.4463L12.15 0.0987805L11.261 0.889024L10.4707 1.58049L9.97683 2.17317L8.49512 3.65488L7.70488 4.34634L7.50732 4.74146H7.1122L7.01341 4.5439L6.22317 3.85244L2.96341 0.592683L2.07439 0ZM12.0512 4.5439L12.7427 3.95122H13.039L13.1378 4.14878L16.6939 7.70488L17.6817 8.49512L18.3732 8.69268L18.9659 8.5939L19.6573 8.19878L21.3366 6.51951L22.028 5.72927H22.2256V5.53171L22.5219 5.33415L23.8061 4.05L24.2012 3.95122L24.3988 4.34634H24.5963L27.7573 7.50732L28.7451 8.39634L29.4366 8.69268L30.2268 8.5939L30.7207 8.29756L34.9683 4.05L35.3634 3.95122L39.1171 7.70488L39.9073 8.39634L40.5988 8.69268L41.389 8.5939L41.8829 8.29756L46.1305 4.05L46.5256 3.95122L50.4768 7.90244L51.3659 8.5939L52.2549 8.69268L52.9463 8.39634L55.6134 5.72927L56.0085 5.63049L55.9098 14.7183V64.7012L56.0085 72.9988L56.2061 74.678L56.6012 75.8634L57.3915 77.4439L57.4902 77.839H7.80366L6.81585 77.6415L5.43293 76.95L4.74146 76.3573L3.95122 75.3695L3.45732 74.0854L3.25976 72.6037V5.53171H3.45732L3.65488 5.82805L5.82805 8.00122L6.71707 8.5939L7.6061 8.69268L7.80366 8.5939L8.29756 8.29756L9.0878 7.6061L11.4585 5.23537L12.0512 4.5439ZM69.1465 42.0801H59.1696V73.0972L59.2684 73.8874L59.6635 75.0728L60.355 76.0606L61.3428 76.9496L62.4294 77.5423L63.7135 77.8387H64.7013L65.1952 77.7399L66.3806 77.3448L67.4672 76.6533L68.3562 75.6655L68.8501 74.6777L69.1465 73.4923V42.0801Z" fill="#EF9439"/>
<path d="M21.1789 53H46.9193L47.5088 53.375L48 54.375V55.625L47.5088 56.625L46.9193 57H21.0807L20.4912 56.5L20.0982 55.75L20 54.625L20.2947 53.75L20.8842 53.125L21.1789 53Z" fill="#EF9439"/>
<path d="M21.5719 43H46.8211L47.4105 43.2812L47.9018 43.8438L48 44.0312V45.0625L47.4105 45.8125L47.0175 46H20.9825L20.2947 45.4375L20 44.7812V44.125L20.4912 43.375L20.8842 43.0938L21.5719 43Z" fill="#EF9439"/>
<path d="M20.9825 63H47.1158L47.7053 63.4688L48 64.0312V64.9688L47.607 65.5312L47.1158 65.9062L46.3298 66H21.3754L20.786 65.8125L20.2947 65.3438L20 64.7812V64.125L20.2947 63.5625L20.9825 63Z" fill="#EF9439"/>
<path d="M25.1923 18H33.6538L35 18.0974L34.8077 18.5844L34.2308 19.7532L32.8846 19.8506H31.7308L31.3462 19.7532L31.5385 20.1429L32.0192 20.6299L32.2115 21.2143H34.9038V21.6039L34.2308 22.9675H32.5L32.3077 23.9416L31.9231 24.7208L31.1538 25.6948L30.0962 26.3766L28.75 26.7662L27.8846 26.8636V27.0584L29.3269 28.5195L30.1923 29.5909L31.25 30.8571L32.3077 32.2208L32.7885 32.8052V33H30.0962L29.1346 31.9286L28.0769 30.5649L26.9231 29.2013L26.0577 28.1299L25.0962 27.0584L25 26.5714L25.3846 25.2078H27.4038L28.5577 24.9156L29.4231 24.3312L29.9038 23.5519L30.0962 22.9675H25.1923L25.0962 22.8701V21.3117L29.8077 21.2143V20.9221L28.9423 20.1429L27.7885 19.8506L25.1923 19.7532L25.0962 19.6558V18.0974L25.1923 18Z" fill="#EF9439"/>
<path d="M13.5556 25H17.4444L18.1111 25.1818L18.6667 25.6364L19 26V27L18.3333 27.7273L17.7778 27.9091L16.5556 28H13.8889L13 27.8182L12.3333 27.3636L12 26.7273V26.0909L12.4444 25.4545L13.1111 25.0909L13.5556 25Z" fill="#EF9439"/>
<path d="M42.4286 25H45.7619L46.4286 25.2727L47 26V26.9091L46.5238 27.6364L45.9524 27.9091L44.7143 28H42.5238L41.6667 27.7273L41.1905 27.1818L41 26.7273L41.0952 25.9091L41.4762 25.3636L42.0476 25.0909L42.4286 25Z" fill="#EF9439"/>
<path d="M13.125 53H13.875L14.4375 53.5L14.9062 54.25L15 54.625V55.5L14.625 56.375L14.1562 56.875L13.9688 57H13.125L12.5625 56.625L12.1875 56L12 55.375L12.0938 54.25L12.4688 53.5L13.125 53Z" fill="#EF9439"/>
<path d="M13.0312 63H13.9688L14.7188 63.5625L15 64.125V64.875L14.625 65.4375L14.1562 65.9062L13.3125 66L12.6562 65.7188L12.1875 65.25L12 64.7812V64.125L12.2812 63.5625L12.8438 63.0938L13.0312 63Z" fill="#EF9439"/>
<path d="M13.3125 43L14.0625 43.0938L14.8125 43.75L15 44.2188V44.875L14.7188 45.4375L14.25 45.9062L13.9688 46H13.0312L12.4688 45.625L12.0938 45.1562L12 44.875V44.125L12.375 43.5625L12.9375 43.0938L13.3125 43Z" fill="#EF9439"/>
</g>
<defs>
<clipPath id="clip0_112_1749">
<rect width="72.5049" height="81" fill="white"/>
</clipPath>
</defs>
</svg>
