<svg width="28" height="41" viewBox="0 0 28 41" fill="none" xmlns="http://www.w3.org/2000/svg">
<g clip-path="url(#clip0_112_1763)">
<path d="M7.58789 0H7.28711L7.0957 0.100098L6.91797 0.240234L6.75391 0.480469L6.64453 0.740723L6.58984 0.960938L6.5625 1.28125L6.58984 1.60156L6.64453 1.82178L6.74023 2.06201L6.93164 2.3623L19.3047 20.48L19.2773 20.5601L6.76758 38.8779L6.6582 39.1182L6.58984 39.3784L6.5625 39.6387L6.57617 39.9189L6.61719 40.1592L6.69922 40.3994L6.79492 40.5796L6.89062 40.7197L7.08203 40.8999L7.27344 41H7.60156L7.82031 40.8799L7.95703 40.7598L8.09375 40.5996V40.5596L8.14844 40.5195L8.20312 40.4395V40.3994L8.25781 40.3594L8.35352 40.1992L21.2598 21.3008L21.3555 21.0806L21.4102 20.8804L21.4375 20.7202V20.2998L21.3965 20.0596L21.3008 19.7793L21.1504 19.5391L7.99805 0.280273L7.84766 0.140137L7.68359 0.0400391L7.58789 0Z" fill="#2C2929"/>
</g>
<defs>
<clipPath id="clip0_112_1763">
<rect width="28" height="41" fill="white" transform="matrix(-1 0 0 1 28 0)"/>
</clipPath>
</defs>
</svg>
