<svg width="70" height="70" viewBox="0 0 70 70" fill="none" xmlns="http://www.w3.org/2000/svg">
<path d="M43.2031 43.3398H44.0576L45.0146 43.4766L45.6641 43.6475L46.3818 43.9209L46.8945 44.1943L47.0654 44.1602L47.6123 43.8867L48.2959 43.6133L49.2529 43.4082L49.7656 43.3398H50.6543L51.6113 43.4766L52.3633 43.6816L53.0127 43.9551L53.5938 44.2627L53.9697 44.502L54.4141 44.8438L54.8584 45.2539L55.1318 45.5273L55.4395 45.9033L55.7812 46.3818L56.123 46.9971L56.3965 47.6465L56.6357 48.4668L56.7383 49.0137L56.7725 49.3896V50.4834L56.6699 51.1328L56.499 51.8506L56.2256 52.5684L55.9521 53.1152L55.6104 53.6621L55.3027 54.0381L54.8926 54.5166L54.5166 54.8584L54.0381 55.2344L53.3203 55.6787L52.7393 55.9521L52.0557 56.1914L51.4404 56.3281L50.791 56.4307H49.6631L48.8086 56.2939L48.1934 56.123L47.749 55.9521L46.9629 55.5762L46.8262 55.6445L46.0742 55.9863L45.6299 56.1572L44.8779 56.3281L44.2285 56.4307H43.0664L42.2461 56.2939L41.6309 56.123L41.084 55.918L40.5029 55.6445L39.8535 55.2344L39.3066 54.79L38.9307 54.4482L38.6914 54.1748L38.418 53.833L38.1104 53.3887L37.8027 52.8418L37.5635 52.3291L37.3242 51.6113L37.1533 50.7568L37.1191 50.3125V49.5264L37.1875 48.8086L37.3584 48.0566L37.5977 47.373L37.8711 46.8262L38.1787 46.2793L38.5205 45.835L38.8281 45.459L39.3066 44.9805L39.7852 44.6045L40.2979 44.2627L40.6396 44.0576L41.3574 43.75L41.8701 43.5791L42.4512 43.4424L43.2031 43.3398Z" fill="#010101"/>
<path d="M7.45117 27.9932H18.4229L18.833 28.0615L19.1064 28.2324L19.3799 28.54L19.4824 28.8135V38.042L19.3799 38.3496L19.1406 38.6572L18.7988 38.8623L18.5938 38.8965L14.5605 38.9307H10.459L7.28027 38.8965L6.97266 38.7939L6.66504 38.5547L6.49414 38.3154L6.3916 37.9395V28.9844L6.49414 28.6084L6.7334 28.2666L7.04102 28.0615L7.45117 27.9932Z" fill="#010101"/>
<path d="M6.3916 52.124H34.8633V54.2432L34.8291 54.2773H6.42578L6.3916 54.2432V52.124Z" fill="#010101"/>
<path fill-rule="evenodd" clip-rule="evenodd" d="M10.3564 8.16895H11.1084L12.2021 8.30566L24.1309 10.2197L36.0596 12.1338L44.1602 13.4326L55.8838 15.3125L61.1816 16.167L62.1729 16.3721L62.8564 16.5771L63.7109 16.9873L64.2236 17.3291L64.668 17.6709L65.0098 17.9785L65.3174 18.3203L65.625 18.7305L66.001 19.3115L66.2744 19.8584L66.5137 20.4736L66.7188 21.3281L66.7871 21.7725L66.8213 22.4902L66.7529 23.3105L66.2402 26.5918L65.6592 30.2832L65.3174 32.4365L64.9756 34.6582L64.668 36.5723L64.3262 38.7598L63.9502 41.1523L63.5059 43.9551L63.2324 45.7324L63.1299 46.416L63.0957 46.8262L63.0615 56.7725L62.959 57.5928L62.7881 58.2764L62.583 58.8916L62.3096 59.4727L61.7627 60.293L61.3867 60.7373L60.9082 61.2158L60.2588 61.6943L59.6436 62.0361L59.1992 62.2412L58.584 62.4463L57.8662 62.6172L57.3535 62.6855L56.8408 62.7197H6.28906L5.46875 62.6514L4.68262 62.4805L3.82812 62.1729L3.28125 61.8994L2.73438 61.5576L2.29004 61.1816L2.0166 60.9424L1.70898 60.6348L1.40137 60.2588L1.05957 59.7803L0.751953 59.2334L0.444336 58.4473L0.239258 57.6611L0.136719 56.9434V27.583L0.239258 26.7627L0.444336 26.0107L0.649414 25.4639L0.922852 24.917L1.23047 24.4043L1.70898 23.7891L2.25586 23.2422L2.87109 22.7979L3.07617 22.6611L3.17871 22.1143L3.62305 19.3457L4.13574 16.2012L4.51172 13.8428L4.7168 12.8516L4.92188 12.168L5.16113 11.6211L5.46875 11.04L5.81055 10.5957L6.08398 10.2539L6.69922 9.63867L7.31445 9.19434L7.82715 8.88672L8.33984 8.64746L9.12598 8.37402L10.0146 8.20312L10.3564 8.16895ZM6.01562 24.6436L5.77637 24.7119L5.67383 24.7803H5.43457L4.95605 24.9512L4.58008 25.1562L4.27246 25.3955L3.93066 25.7031L3.62305 26.0791L3.34961 26.5576L3.17871 27.002L3.04199 27.6172V56.7725L3.17871 57.4561L3.41797 58.0029L3.62305 58.3447L3.89648 58.6865L4.27246 59.0625L4.78516 59.4043L5.16113 59.5752L5.57129 59.7119L6.11816 59.7803H57.0117L57.5586 59.7119L58.2764 59.4727L58.8232 59.1309L59.2334 58.7549L59.5068 58.4473L59.8145 57.9346L60.0537 57.2852L60.1562 56.5332V27.959L60.0537 27.1387L59.8486 26.5918L59.6094 26.1475L59.3359 25.8057L59.1309 25.5664L58.6523 25.1904L58.0029 24.8486L57.5244 24.7119L57.0459 24.6436H6.01562ZM11.1084 11.1084H10.3906L10.083 11.1426L9.60449 11.2793L9.0918 11.5186L8.61328 11.8604L8.27148 12.2021L7.99805 12.5439L7.69043 13.0908L7.51953 13.6035L7.34863 14.5947L7.14355 15.791V16.0645L7.31445 16.0986L9.87793 16.543L14.834 17.3975L31.6162 20.2686L41.9727 22.0459L44.1602 22.4219L45.1172 22.5244H49.9365L57.1484 22.5586L57.832 22.627L58.4814 22.7979L59.165 23.0713L59.7119 23.3789L60.1562 23.6865L60.5322 23.9941L60.9082 24.4043L61.2158 24.7803L61.4551 25.1562L61.5918 25.293L62.0703 25.3955L63.2666 25.6006L63.4375 25.5664L63.54 24.9512L63.8818 22.8662V21.9434L63.8477 21.7725L63.6768 21.1914L63.4375 20.7129L63.1299 20.2686L62.7539 19.8926L62.3438 19.585L61.9678 19.3799L61.4209 19.1748L60.4639 19.0039L58.1396 18.6279L43.4424 16.2695L32.3682 14.4922L22.9688 12.9883L15.5176 11.792L12.0996 11.2451L11.1084 11.1084ZM8.03223 18.3545L6.80176 18.1494L6.76758 18.1836L6.32324 20.9521L6.08398 22.3535L6.11816 22.5244H31.9922V22.4902L31.4795 22.3877L29.7705 22.0801L21.0205 20.5762L11.4502 18.9355L8.03223 18.3545Z" fill="#010101"/>
<path d="M8.61328 30.1123L17.3291 30.1465L17.3633 30.1807V32.3682L15.9961 32.4023H15.1416L15.1758 32.5732V34.5215L17.3633 34.5557V36.7432L15.1074 36.7773H8.61328L8.51074 36.6748V34.5898L8.54492 34.5557H10.6982V32.4023H8.5791L8.51074 32.2998V30.2148L8.61328 30.1123Z" fill="#FEFEFE"/>
<path d="M49.6973 45.4932H50.7568L51.4404 45.6299L51.9531 45.8008L52.6025 46.1426L53.0469 46.4844L53.3887 46.792L53.7305 47.168L54.0723 47.6807L54.3457 48.2275L54.5166 48.7402L54.6191 49.2529L54.6533 49.6289V50.1758L54.585 50.791L54.3799 51.4746L54.0723 52.124L53.6621 52.7051L53.252 53.1494L52.9102 53.4229L52.4316 53.7305L51.8848 54.0039L51.2012 54.209L50.791 54.2773H49.6973L49.2529 54.209L48.8428 54.1064L48.7402 54.0039L49.082 53.5254L49.3555 53.0811L49.7314 52.2949L49.9707 51.543L50.1074 50.9277L50.1416 50.5176V49.2871L50.0732 48.7402L49.9023 48.0225L49.6631 47.3389L49.3896 46.792L49.1162 46.3135L48.7744 45.835V45.7324L49.1504 45.5957L49.6973 45.4932Z" fill="#FEFEFE"/>
<path d="M43.1006 45.4932H44.1602L44.8779 45.6299L45.1172 45.7324L45.083 45.8691L44.6729 46.4844L44.2627 47.2705L44.0576 47.7832L43.8525 48.5352L43.75 49.2529L43.7158 49.6289V50.1758L43.8184 51.0986L43.9893 51.7822L44.2627 52.5342L44.6729 53.3203L45.0488 53.8672L45.083 54.0723L44.9121 54.1406L44.502 54.2432L44.1943 54.2773H43.0322L42.5195 54.1748L42.0068 54.0039L41.46 53.7305L41.084 53.4912L40.7422 53.2178L40.2295 52.7051L39.8535 52.1582L39.5801 51.6113L39.4092 51.167L39.3066 50.7568L39.2383 50.3125V49.458L39.375 48.7402L39.5801 48.1592L39.8535 47.6123L40.2979 46.9971L40.7764 46.5186L41.3574 46.1084L41.9385 45.8008L42.5537 45.5957L43.1006 45.4932Z" fill="#FEFEFE"/>
<path d="M17.3633 45.5273H23.8916V47.6807H17.3633V45.5273Z" fill="#010101"/>
<path d="M6.3916 45.5273H12.9199V47.6465L12.8857 47.6807H6.3916V45.5273Z" fill="#010101"/>
<path d="M28.3691 45.5273H34.8291L34.8633 45.5615V47.6465L34.8291 47.6807H28.335V45.5615L28.3691 45.5273Z" fill="#010101"/>
<path d="M44.8096 29.0869H46.9287V33.3936L46.8945 33.4277H44.8096L44.7754 33.3936V29.4287L44.8096 29.0869Z" fill="#010101"/>
<path d="M49.1846 29.0869H51.3037V33.3936L51.2695 33.4277H49.1846L49.1504 33.3936V29.3262L49.1846 29.0869Z" fill="#010101"/>
<path d="M53.5596 29.0869H55.6787V33.4277H53.5596V29.0869Z" fill="#010101"/>
<path d="M40.4004 29.0869H42.5195V33.4277H40.4004V29.0869Z" fill="#010101"/>
<path d="M46.8945 46.9971L47.0312 47.0312L47.3389 47.4414L47.6123 47.9199L47.8516 48.4668L47.9883 48.9795L48.0908 49.5605V50.21L47.9541 50.9619L47.7148 51.6797L47.4414 52.1924L47.0654 52.7393L46.8945 52.7734L46.6553 52.5L46.2793 51.8848L46.0742 51.4062L45.9033 50.8252L45.8008 50.1758V49.5947L45.8691 49.1162L46.0059 48.5693L46.2109 48.0566L46.4844 47.5439L46.8262 47.0654L46.8945 46.9971Z" fill="#FEFEFE"/>
<path d="M62.2754 27.6172L62.6514 27.6514L63.0273 27.7197L63.0615 27.8564L62.7197 30.0781L62.3779 32.2314L62.3096 32.7783H62.2412L62.2754 27.6172Z" fill="#FEFEFE"/>
</svg>
