<svg width="83" height="23" viewBox="0 0 83 23" fill="none" xmlns="http://www.w3.org/2000/svg">
<g clip-path="url(#clip0_112_1356)">
<path d="M10.2068 17.8551L10.147 17.9131C9.18047 18.8976 8.06194 19.4194 6.90919 19.4194C4.50331 19.4194 2.75695 17.6148 2.75695 15.1242C2.75695 12.6384 4.50331 10.8309 6.90919 10.8309C8.06166 10.8309 9.18047 11.355 10.147 12.3423L10.2068 12.402L11.7543 10.5309L11.7128 10.4804C10.426 8.95949 8.88212 8.21949 6.98406 8.21949C5.07926 8.21949 3.33823 8.8605 2.08313 10.0163C0.719801 11.2683 0 13.0335 0 15.1242C0 17.2138 0.719801 18.9837 2.08341 20.236C3.33823 21.3969 5.07926 22.0345 6.98406 22.0345C8.88212 22.0345 10.426 21.2948 11.7128 19.7736L11.7543 19.7262L10.2068 17.8551ZM13.3179 21.7799H16.0512V8.43625H13.3179V21.7799ZM26.7582 18.8785C26.0292 19.3224 25.3506 19.5459 24.741 19.5459C23.8577 19.5459 23.4587 19.0796 23.4587 18.0415V10.9613H26.2426V8.44831H23.4587V4.29634L20.7794 5.73006V8.44831H18.4683V10.961H20.7794V18.493C20.7794 20.545 21.995 21.947 23.8095 21.9835C25.0416 22.0076 25.7844 21.6405 26.2356 21.3722L26.2619 21.3526L26.92 18.7798L26.7582 18.8785ZM29.0222 21.7799H31.7576V8.43625H29.022L29.0222 21.7799ZM75.3533 3.35895V16.0877L76.2049 14.7622C76.2044 14.7678 80.0305 9.22727 80.5209 8.52093H82.2261C81.8632 9.00884 78.8548 13.1487 78.8548 13.1487C78.8548 13.1487 82.7737 21.3147 83 21.7799H81.3254C81.2335 21.5892 77.8669 14.4627 77.8669 14.4627L75.3536 17.9843V21.7799H73.7934V4.2498C73.93 4.17128 74.986 3.56589 75.3533 3.35895ZM62.538 10.1016C63.3427 8.89864 64.6034 8.2352 66.0787 8.2352C69.0201 8.2352 70.5792 10.1111 70.5792 13.661V21.7799H69.0151V13.9975C69.0151 10.9773 67.9663 9.57526 65.6945 9.57526C63.52 9.57526 62.2217 11.2291 62.2217 13.9972V21.7799H60.6621V8.52093H62.2217V10.5771L62.538 10.1016ZM52.9492 8.2352C55.9759 8.2352 57.4475 9.61956 57.4475 12.4676V21.7799H55.8873V19.8457L55.5836 20.1802C54.4354 21.4471 53.1175 22.0665 51.5483 22.0665C50.3185 22.0665 47.4572 21.6596 47.4572 17.8851C47.4572 14.7998 50.0044 13.7045 52.3901 13.7045C53.5883 13.7045 54.7716 13.9804 55.6305 14.4616L55.8873 14.604V12.7004C55.8873 10.59 54.8566 9.52114 52.8197 9.52114C51.5635 9.52114 50.4301 9.83799 49.2678 10.4933C49.1652 10.2578 48.8048 9.46057 48.7042 9.23316C49.9192 8.59299 51.4193 8.2352 52.9492 8.2352ZM48.9871 17.755C48.9871 19.7371 50.0142 20.8293 51.88 20.8293C53.4683 20.8293 54.8787 20.0792 55.8579 18.7148L55.8873 18.668V15.761L55.8004 15.7105C54.805 15.143 53.7848 14.9142 52.2858 14.9142C50.222 14.9142 48.9871 15.9758 48.9871 17.755ZM36.9406 3.35895V10.4518L37.2426 10.1209C38.3914 8.85209 39.6633 8.2352 41.1257 8.2352C44.0517 8.2352 45.7313 10.6742 45.7313 14.9279C45.7313 19.2644 43.8237 22.0665 40.8702 22.0665C39.4312 22.0665 38.279 21.5085 37.244 20.3114L36.9406 19.9581V21.7799H35.3835V4.2498C35.5161 4.17128 36.5744 3.56589 36.9406 3.35895ZM36.9776 11.6071L36.9406 11.6561V18.558L36.9684 18.6001C37.8289 19.932 39.231 20.7284 40.723 20.7284C43.0276 20.7284 44.1955 18.786 44.1955 14.9562C44.1955 11.535 42.9015 9.57526 40.645 9.57526C39.2775 9.57526 38.0437 10.2586 36.9776 11.6071Z" fill="#003B70"/>
<path fill-rule="evenodd" clip-rule="evenodd" d="M33.3948 6.06823C30.8922 2.52446 26.7372 0.409645 22.5095 0.409645C18.2829 0.409645 14.1268 2.52418 11.6286 6.06823L11.5005 6.25077H14.6511L14.6859 6.21291C16.8304 3.99968 19.6294 2.82926 22.5092 2.82926C25.389 2.82926 28.1874 3.99968 30.3359 6.21291L30.3709 6.25077H33.5204L33.3948 6.06823Z" fill="#D9261C"/>
</g>
<defs>
<clipPath id="clip0_112_1356">
<rect width="83" height="22.4764" fill="white"/>
</clipPath>
</defs>
</svg>
