<svg width="57" height="89" viewBox="0 0 57 89" fill="none" xmlns="http://www.w3.org/2000/svg">
<g clip-path="url(#clip0_112_1386)">
<path d="M43.5309 87.691L6.20878 63.3945C6.20878 63.3945 1.52846 60.7033 0.457022 55.6902C-1.04803 48.6514 3.91296 42.6166 3.91296 42.6166L52.3505 74.1617C56.0872 76.5967 57.1065 81.5788 54.7049 85.3366C52.2375 89.1968 47.1675 90.0486 43.5293 87.691H43.5309Z" fill="#38D200"/>
<path d="M8.18008 37.4099C8.18008 37.4099 2.4633 33.958 2.4633 25.9739C2.4633 18.0174 8.17764 14.6079 8.17764 14.6079L28.5813 1.25437C30.3769 0.116559 32.5486 -0.267467 34.6255 0.185595C36.7023 0.638657 38.5168 1.89227 39.6753 3.67451C40.8339 5.45675 41.243 7.62389 40.814 9.70586C40.3851 11.7878 39.1526 13.6167 37.3839 14.7958L20.1872 25.9934L49.487 45.0759C49.487 45.0759 54.7612 48.0974 55.8001 53.1983C57.2506 60.3144 52.3523 66.1776 52.3523 66.1776L8.18008 37.4099ZM8.07187 88.9788C9.98696 88.9788 11.3505 88.3711 12.6806 87.5087L22.6408 81.0207L12.6806 74.5343C11.3383 73.6695 9.9292 73.0643 8.07187 73.0643C7.01734 73.0492 5.97032 73.2439 4.99168 73.637C4.01304 74.0301 3.1223 74.6138 2.37124 75.3542C1.62018 76.0946 1.02378 76.9769 0.616707 77.9498C0.209631 78.9228 0 79.9669 0 81.0215C0 82.0762 0.209631 83.1203 0.616707 84.0932C1.02378 85.0661 1.62018 85.9484 2.37124 86.6888C3.1223 87.4292 4.01304 88.013 4.99168 88.4061C5.97032 88.7992 7.01734 88.9939 8.07187 88.9788Z" fill="#0473EA"/>
<path d="M46.5841 18.0369C44.6682 18.0369 43.3047 18.6446 41.9746 19.5062L32.0135 25.9934L41.9746 32.4806C43.3169 33.3462 44.7268 33.9515 46.5841 33.9515C47.6291 33.9515 48.6638 33.7456 49.6292 33.3457C50.5947 32.9459 51.4719 32.3597 52.2108 31.6208C52.9497 30.8819 53.5358 30.0047 53.9357 29.0393C54.3356 28.0739 54.5414 27.0391 54.5414 25.9942C54.5414 24.9492 54.3356 23.9145 53.9357 22.9491C53.5358 21.9836 52.9497 21.1064 52.2108 20.3675C51.4719 19.6286 50.5947 19.0425 49.6292 18.6426C48.6638 18.2427 47.6291 18.0369 46.5841 18.0369Z" fill="#38D200"/>
</g>
<defs>
<clipPath id="clip0_112_1386">
<rect width="56.0686" height="89" fill="white"/>
</clipPath>
</defs>
</svg>
