<svg width="320" height="320" viewBox="0 0 320 320" fill="none" xmlns="http://www.w3.org/2000/svg">
<g clip-path="url(#clip0_112_991)">
<ellipse cx="160" cy="160.321" rx="160.643" ry="160.321" fill="#F1F1F3"/>
<ellipse cx="160" cy="160.321" rx="138.153" ry="137.876" fill="#E7E8EE"/>
<ellipse cx="160" cy="160.321" rx="112.45" ry="112.224" fill="#D9DBE7"/>
<path d="M50.0482 84.008C50.0482 86.7955 47.7828 89.0621 44.9799 89.0621C42.177 89.0621 39.9116 86.7955 39.9116 84.008C39.9116 81.2204 42.177 78.9539 44.9799 78.9539C47.7828 78.9539 50.0482 81.2204 50.0482 84.008Z" stroke="#E69534" stroke-width="4"/>
<path d="M193.562 9.09075L202.298 1.97266L202.791 13.2169L193.562 9.09075Z" stroke="#44875C" stroke-width="2"/>
<path d="M229.968 304.289C229.968 306.191 228.422 307.739 226.506 307.739C224.59 307.739 223.044 306.191 223.044 304.289C223.044 302.386 224.59 300.838 226.506 300.838C228.422 300.838 229.968 302.386 229.968 304.289Z" stroke="#8E7BA8" stroke-width="4"/>
<path d="M254.386 92.024C254.386 93.9261 252.839 95.4749 250.924 95.4749C249.008 95.4749 247.462 93.9261 247.462 92.024C247.462 90.1219 249.008 88.5731 250.924 88.5731C252.839 88.5731 254.386 90.1219 254.386 92.024Z" stroke="#B75DA5" stroke-width="4"/>
<path d="M248.37 235.151L246.944 236.008L248.37 236.865L250.015 237.855L251.531 238.766L251.531 236.998L251.531 235.019L251.531 233.251L250.015 234.162L248.37 235.151ZM252.744 240.905L244.6 236.008L252.744 231.112L252.744 240.905Z" stroke="#7DA7D9" stroke-width="2"/>
<path d="M26.5321 232.326L19.1807 234.204L21.0618 226.867L26.5321 232.326Z" stroke="#CEA8B4" stroke-width="2"/>
<path d="M79.679 299.479C80.3151 299.691 80.9512 299.902 81.6067 300.12C81.6067 302.025 81.6067 303.93 81.6067 305.892C80.7585 305.892 79.9103 305.892 79.0364 305.892C79.0191 304.943 79.0066 303.995 78.9962 303.046C78.9888 302.518 78.9813 301.99 78.9736 301.445C79.0364 300.12 79.0364 300.12 79.679 299.479Z" fill="#1AFFA1"/>
<path d="M82.249 296.914C84.1575 296.914 86.0659 296.914 88.0322 296.914C88.0322 297.76 88.0322 298.607 88.0322 299.479C86.1237 299.479 84.2153 299.479 82.249 299.479C82.249 298.632 82.249 297.786 82.249 296.914Z" fill="#1EFBA2"/>
<path d="M72.6104 296.914C74.5188 296.914 76.4272 296.914 78.3935 296.914C78.3935 297.76 78.3935 298.607 78.3935 299.479C76.4851 299.479 74.5766 299.479 72.6104 299.479C72.6104 298.632 72.6104 297.786 72.6104 296.914Z" fill="#1AFEA1"/>
<path d="M79.0361 290.501C79.8843 290.501 80.7325 290.501 81.6064 290.501C81.6064 292.406 81.6064 294.31 81.6064 296.273C80.7582 296.273 79.91 296.273 79.0361 296.273C79.0361 294.368 79.0361 292.463 79.0361 290.501Z" fill="#1EFBA2"/>
<path d="M301.365 171.222C302.002 171.434 302.638 171.646 303.293 171.864C303.293 173.768 303.293 175.673 303.293 177.635C302.445 177.635 301.597 177.635 300.723 177.635C300.706 176.687 300.693 175.738 300.683 174.79C300.675 174.261 300.668 173.733 300.66 173.189C300.723 171.864 300.723 171.864 301.365 171.222Z" fill="#DB5D5F"/>
<path d="M294.297 168.657C296.206 168.657 298.114 168.657 300.08 168.657C300.08 169.504 300.08 170.35 300.08 171.222C298.172 171.222 296.264 171.222 294.297 171.222C294.297 170.376 294.297 169.529 294.297 168.657Z" fill="#D86164"/>
<path d="M303.936 168.657C305.844 168.657 307.752 168.657 309.719 168.657C309.719 169.504 309.719 170.35 309.719 171.222C307.81 171.222 305.902 171.222 303.936 171.222C303.936 170.376 303.936 169.529 303.936 168.657Z" fill="#DB5D5F"/>
<path d="M300.723 162.245C301.571 162.245 302.419 162.245 303.293 162.245C303.293 164.149 303.293 166.054 303.293 168.016C302.445 168.016 301.597 168.016 300.723 168.016C300.723 166.111 300.723 164.207 300.723 162.245Z" fill="#DB5E5F"/>
<path d="M98.3135 58.3567C100.01 58.3567 101.706 58.3567 103.454 58.3567C103.454 59.2032 103.454 60.0497 103.454 60.9218C101.758 60.9218 100.061 60.9218 98.3135 60.9218C98.3135 60.0753 98.3135 59.2288 98.3135 58.3567Z" fill="#27AFF9"/>
<path d="M104.096 52.5852C104.944 52.5852 105.793 52.5852 106.666 52.5852C106.666 54.2782 106.666 55.9712 106.666 57.7155C105.818 57.7155 104.97 57.7155 104.096 57.7155C104.096 56.0225 104.096 54.3295 104.096 52.5852Z" fill="#26AFF9"/>
<path d="M104.739 60.9219C105.375 61.1335 106.011 61.3451 106.667 61.5632C106.667 63.0445 106.667 64.5259 106.667 66.0521C105.818 66.0521 104.97 66.0521 104.096 66.0521C104.069 64.5561 104.07 63.0593 104.096 61.5632C104.308 61.3515 104.52 61.1399 104.739 60.9219Z" fill="#2BAFF7"/>
<path d="M107.309 58.3567C108.793 58.3567 110.278 58.3567 111.807 58.3567C111.807 59.2032 111.807 60.0497 111.807 60.9218C110.323 60.9218 108.838 60.9218 107.309 60.9218C107.309 60.0753 107.309 59.2288 107.309 58.3567Z" fill="#2BAFF7"/>
<path d="M114.049 93H174.457L177.391 93.7337L179.837 95.2011L182.038 97.6467L183.261 100.092L183.75 104.005V125.772H188.397L192.799 126.505L196.712 127.728L200.625 129.685L203.071 131.152L206.25 133.598L208.451 135.799L210.897 138.978L212.609 141.913L214.565 146.56L215.543 150.228L216.033 153.897V158.054L215.299 162.701L214.076 166.614L212.364 170.527L210.163 173.951L207.228 177.375L204.538 179.821L200.87 182.266L196.712 184.223L192.799 185.446L188.397 186.179L183.995 186.424L183.75 216.261L183.505 219.685L182.283 222.62L180.815 224.576L179.103 226.043L176.658 227.266L173.967 227.755L163.207 228H126.522L114.293 227.755L111.114 226.777L108.424 224.821L106.957 222.864L105.978 220.908L105.489 219.196L105.245 213.571L105 198.163V119.168L105.245 106.207L105.489 101.315L106.467 98.625L108.179 96.4239L110.38 94.4674L112.826 93.2446L114.049 93Z" fill="#F6F6F9"/>
<path d="M110.87 116.478H178.125L178.37 123.326V126.75L174.212 128.217L170.299 130.174L166.875 132.62L163.696 135.554L161.495 138.245L159.783 140.935L157.826 144.848L156.603 148.516L155.87 152.674V159.277L156.848 163.924L158.071 167.592L160.027 171.505L162.228 174.685L164.429 177.13L164.674 177.864L165.652 178.353L167.609 180.065L171.033 182.266L175.924 184.467L178.125 185.201V199.141L122.609 199.386L121.63 199.63L121.386 202.321L121.875 203.543L122.609 204.033L135.326 204.277H153.668L178.125 204.522V219.196L176.902 221.152L175.435 222.13L173.234 222.62H115.516L113.315 221.886L111.359 220.174L110.87 218.462L110.625 204.522L111.359 204.277L116.739 204.033L117.962 203.299V200.364L117.717 199.386L110.87 199.141V116.478Z" fill="#7E82A2"/>
<path d="M183.75 130.908H189.13L193.532 131.886L197.201 133.598L200.136 135.31L202.337 137.022L204.782 139.223L206.739 141.913L208.696 145.337L210.163 149.25L210.652 151.451L210.897 153.653V158.055L209.918 163.435L207.962 167.837L206.494 170.528H206.005L205.516 171.75L202.581 174.93L200.869 176.153H200.38V176.642L196.467 178.843L193.288 180.066L188.886 181.044L187.174 181.288H184.728L180.081 180.555L177.147 179.821L173.234 177.864L170.299 175.908L167.853 173.707L167.119 172.973V172.484L166.386 172.239L165.897 171.017H165.407L163.94 168.816L162.228 164.903L161.25 162.212L160.761 159.033V153.408L161.25 150.229L162.228 146.805L164.185 142.892L166.63 139.468L169.81 136.288L173.478 133.843L175.435 132.864L178.859 131.642L183.75 130.908Z" fill="#2D2E2E"/>
<path d="M114.538 98.3802H174.701L176.169 99.1139L177.391 100.337L178.125 101.804L178.37 111.098L178.125 111.342H110.87V101.804L111.848 100.092L113.315 98.8694L114.538 98.3802Z" fill="#7D81A1"/>
<path d="M142.908 206.967H145.843L148.288 207.945L149.511 208.924L150.734 210.88L150.979 211.614V215.038L149.756 217.483L147.799 219.195L145.843 219.929H142.908L140.462 218.706L138.75 216.75L138.017 214.793V211.858L139.239 209.413L141.196 207.701L142.908 206.967Z" fill="#F6F6F9"/>
<path d="M190.842 153.897L197.201 154.141L197.69 154.875V158.054L197.201 158.543L195.489 158.788H175.19L174.212 158.543L173.723 157.321V155.364L174.212 154.141L190.842 153.897Z" fill="#EDEEF3"/>
<path d="M145.598 102.538H150.978L153.424 102.783L154.647 103.761L154.891 105.228L154.402 107.185L153.179 107.919H143.641L142.418 107.185L141.929 106.207V104.25L142.418 103.272L143.152 102.783L145.598 102.538Z" fill="#F5F5F8"/>
<path d="M136.06 102.783L138.261 103.028L138.995 103.761L139.239 104.495V106.451L138.261 107.43L137.038 107.919L135.571 107.674L134.348 106.696L134.104 106.207V104.495L134.837 103.272L136.06 102.783Z" fill="#F4F4F8"/>
<path d="M143.886 212.348H145.108L145.598 212.837V214.06L145.108 214.549H143.886L143.396 214.06L143.641 212.593L143.886 212.348Z" fill="#7E82A2"/>
</g>
<defs>
<clipPath id="clip0_112_991">
<rect width="320" height="320" fill="white"/>
</clipPath>
</defs>
</svg>
