<svg width="127" height="127" viewBox="0 0 127 127" fill="none" xmlns="http://www.w3.org/2000/svg">
<g clip-path="url(#clip0_112_1408)">
<path d="M90.4875 63.9627L91.1489 64.095L91.5458 64.3596L91.8104 64.8226L91.8765 65.1533V78.7132L91.7442 80.0361L91.4797 81.2929L91.0166 82.6158L90.4875 83.6742L89.826 84.7325L89.2307 85.4601L88.5692 86.1877L88.0401 86.6507L87.1802 87.3122L86.188 87.9075L85.0635 88.4367L83.8729 88.8335L82.6161 89.0981L82.0208 89.1643H44.9791L43.6562 88.9658L42.2672 88.569L41.0765 88.0398L40.0182 87.4445L39.2245 86.8492L38.563 86.2539L38.1661 85.9231L37.7031 85.394L37.0416 84.5341L36.5125 83.6742L35.9833 82.6158L35.5203 81.2929L35.2557 80.0361L35.1234 78.7132V65.3518L35.3219 64.8226L35.6526 64.4257L36.1156 64.2273H36.7109L37.2401 64.4919L37.5047 64.8226L37.637 65.0872L37.7031 78.7132L37.8354 79.9039L38.2323 81.2929L38.8937 82.682L39.5552 83.608L39.8198 83.8726V84.0049H39.9521L40.3489 84.4679L41.0104 84.9971L42.0687 85.6585L42.9286 86.0554L43.9208 86.3861L45.0453 86.5846H81.9547L83.2776 86.32L84.2698 85.9893L85.3942 85.394L86.3203 84.7325L86.9817 84.1372L87.0479 84.0049H87.1802L87.3125 83.7403L87.9739 82.8804L88.6354 81.6236L89.0323 80.433L89.2307 79.4408L89.2968 78.7132L89.363 64.8887L89.5614 64.4919L90.0245 64.095L90.4875 63.9627Z" fill="#1B1B1B"/>
<path d="M63.3015 37.8355H63.8968L64.426 38.1001L64.6906 38.4308L64.889 39.0261V73.5542L65.4182 73.0912L74.8109 63.6985L75.4062 63.5001L76.0676 63.6324L76.4645 63.897L76.7291 64.36L76.7952 64.823L76.5968 65.4845L64.2937 77.7876L64.0291 77.9199H63.1031L62.5077 77.523L50.6015 65.6167L50.3369 65.0214V64.5584L50.5354 64.0954L50.7999 63.7647L51.1968 63.5662L51.6598 63.5001L52.3213 63.6985L62.2432 73.6204L62.3755 73.6865V38.6954L62.7062 38.1662L63.1031 37.9016L63.3015 37.8355Z" fill="#1B1B1B"/>
</g>
<defs>
<clipPath id="clip0_112_1408">
<rect width="127" height="127" fill="white"/>
</clipPath>
</defs>
</svg>
