<svg width="57" height="57" viewBox="0 0 57 57" fill="none" xmlns="http://www.w3.org/2000/svg">
<g clip-path="url(#clip0_112_1804)">
<rect x="1" y="1" width="55" height="55" rx="14" fill="white" stroke="#CFCFCF" stroke-width="2"/>
<path d="M18.1221 12H32.6816L32.8975 12.1826L33.0303 12.2988L33.2793 12.5645L33.4453 12.7305L33.5615 12.8633L33.7773 13.0791L33.8936 13.2119L34.1094 13.4277L34.2256 13.5605L34.4414 13.7764L34.5576 13.9092L34.7734 14.125L34.8896 14.2578L35.1387 14.5068L35.2549 14.6396L35.4707 14.8555V14.8887H35.5039L35.6201 15.0215L35.8027 15.2041V15.2373H35.8359L35.9521 15.3701L36.1348 15.5527V15.5859H36.168L36.2842 15.7188L36.5 15.9346L36.6162 16.0674L36.832 16.2832L36.9482 16.416L37.1641 16.6318L37.2803 16.7646L37.4961 16.9805L37.6123 17.1133L37.8613 17.3623L37.9775 17.4951L38.1934 17.7109V17.7441H38.2266L38.3428 17.877L38.4922 18.0264V18.0596H38.5254L38.6416 18.1924L38.8574 18.4082V18.4414H38.8906L39.0068 18.5742L39.2227 18.79L39.3389 18.9229L39.5547 19.1387L39.6709 19.2715L39.8867 19.4873L40.0029 19.6201L40.2188 19.8359L40.335 19.9688L40.5674 20.2012L40.6836 20.334L40.9492 20.5996L41.0654 20.7324L41.2148 20.8818L41.3809 21.0977L41.4805 21.2637L41.5303 21.4297V41.667L41.4971 42.0156L41.4473 42.3477L41.3477 42.7461L41.1816 43.2109L41.0488 43.4766L40.8994 43.7588L40.7334 44.0078L40.5342 44.2734L40.3848 44.4395L40.2686 44.5723L40.0527 44.7881L39.8701 44.9375L39.6543 45.1035L39.4053 45.2695L39.1064 45.4355L38.7578 45.6016L38.3428 45.751L37.9609 45.8506L37.5127 45.917L37.2969 45.9336H18.8857L18.4541 45.9004L18.0723 45.834L17.6572 45.7178L17.3086 45.585L16.8936 45.3857L16.5449 45.1699L16.1963 44.9043L15.9639 44.6885L15.8643 44.6055L15.748 44.4727L15.5986 44.3066L15.3828 44.0244L15.1504 43.6592L15.0176 43.3936L14.8848 43.1113L14.7354 42.6631L14.6523 42.3145L14.6025 41.999L14.5693 41.5342V16.3164L14.6025 15.8516L14.6689 15.4531L14.7852 15.0381L14.918 14.6729L15.1172 14.2578L15.333 13.9092L15.4824 13.71L15.6484 13.4941L15.8975 13.2285L16.0635 13.0625L16.2461 12.9131L16.4619 12.7471L16.7441 12.5645L17.0098 12.415L17.3584 12.249L17.7236 12.1162L18.1055 12.0166L18.1221 12ZM19.1348 13.5771L18.6699 13.6104L18.3877 13.6602L17.9395 13.8096L17.541 14.0254L17.3252 14.1914L17.0928 14.3906L16.9766 14.5068L16.7109 14.8389L16.4951 15.2373L16.4121 15.4365L16.3125 15.7354L16.2461 16.1836L16.2295 16.4824V41.4014L16.2627 41.8164L16.3125 42.1152L16.4785 42.6133L16.6777 42.9785L16.8438 43.1943L17.043 43.4268L17.2588 43.626L17.4746 43.792L17.8232 43.9912L18.0391 44.0908L18.3545 44.1904L18.6035 44.2402L18.9023 44.2734L19.2012 44.29H36.7822L37.1973 44.2734L37.6289 44.2236L38.0605 44.0908L38.3428 43.958L38.5752 43.8252L38.7578 43.6924L38.9902 43.4932L39.0732 43.4102L39.2725 43.1943L39.4053 43.0117L39.5713 42.7129L39.6709 42.5137L39.8037 42.082L39.8535 41.6836L39.8701 41.4844V22.376L35.3047 22.3594L34.8398 22.3428L34.5244 22.3096L34.1426 22.2266L33.7441 22.0938L33.2959 21.8779L33.0137 21.6953L32.7812 21.5127L32.6152 21.3633L32.3994 21.1475L32.2168 20.915L32.1006 20.749L31.9512 20.5L31.8184 20.2344L31.6855 19.9023L31.5859 19.5371L31.5195 19.1055L31.5029 18.8896L31.4863 13.5771H19.1348ZM33.1465 14.8721L33.1631 18.9395L33.1963 19.1885L33.2793 19.4541L33.3623 19.6367L33.4785 19.8525L33.6279 20.0352L33.7441 20.168L33.9268 20.3174L34.0762 20.417L34.3252 20.5498L34.624 20.6494L34.9062 20.6992L35.0723 20.7158H38.708L38.6748 20.6494L38.4756 20.4336L37.9775 19.9023L37.8115 19.7363L37.6953 19.6035L37.4297 19.3379L37.3135 19.2051L37.0645 18.9561L36.9482 18.8232L36.8154 18.6904L36.6992 18.5576L36.4834 18.3418L36.4668 18.3086H36.4336L36.4004 18.2422L36.1016 17.9434L35.9854 17.8105L35.7363 17.5615L35.6201 17.4287L35.4873 17.2959L35.3711 17.1631L35.1553 16.9473L35.0391 16.8145L34.7734 16.5488L34.6572 16.416L34.4082 16.167L34.292 16.0342L34.1592 15.9014L34.043 15.7686L33.8271 15.5527L33.7109 15.4199L33.3955 15.1045L33.2793 14.9717L33.1631 14.8721H33.1465Z" fill="#FCB237"/>
<path d="M27.9004 23.2393H28.2158L28.3984 23.3057L28.6143 23.4551L28.7637 23.6377L28.8467 23.8037L28.8799 23.9531L28.8965 32.9678L28.9463 32.918H28.9795L29.0127 32.8516L29.1787 32.6855L29.2949 32.5527L29.4443 32.4033L29.5605 32.2705L29.8262 31.9883L29.8926 31.9053H29.9258L29.959 31.8389L30.1748 31.623L30.291 31.4902L30.54 31.2246L30.7393 31.0088L30.8223 30.9092H30.8555L30.8887 30.8428L31.1045 30.627L31.2207 30.4941L31.4697 30.2285L31.6523 30.0293L31.752 29.9131H31.7852L31.8184 29.8467L31.9844 29.6807L32.1006 29.5479L32.1836 29.4482H32.2168L32.25 29.3818L32.416 29.249L32.5488 29.1826L32.748 29.1328H32.9805L33.1465 29.166L33.3457 29.2656L33.4785 29.3818L33.5947 29.5479L33.6611 29.7305L33.6943 29.8633V30.0127L33.6445 30.2451L33.5449 30.4277L33.3955 30.6104L33.2461 30.7598L33.1299 30.8926L33.0137 31.0088L32.8975 31.1416L32.7812 31.2578L32.665 31.3906L32.582 31.4902H32.5488L32.5156 31.5566L32.3496 31.7227L32.2334 31.8555L31.7188 32.4033L31.5195 32.6191L31.4365 32.7188H31.4033L31.3701 32.7852L31.2041 32.9512L31.0879 33.084L30.9551 33.2168L30.8389 33.3496L30.7559 33.4492H30.7227L30.6895 33.5156L30.54 33.665L30.4238 33.7979L30.3242 33.9141H30.291L30.2578 33.9805L30.0918 34.1465L29.8594 34.4121H29.8262L29.793 34.4785L29.6602 34.6113L29.6436 34.6445H29.6104L29.5771 34.7109L29.4111 34.877L29.2949 35.0098L29.1621 35.1426L29.0459 35.2754L28.9629 35.375H28.9297L28.8965 35.4414L28.6309 35.707L28.415 35.8564L28.249 35.9229L28.083 35.9561L27.917 35.9395L27.751 35.8896L27.5186 35.7402L27.3691 35.6074V35.5742H27.3359L27.2197 35.4414L27.0869 35.3086L26.9707 35.1758L26.7217 34.9102L26.5723 34.7441L26.3066 34.4619L26.0576 34.1963L25.8584 33.9805L25.6758 33.7812L25.1777 33.25L24.9453 33.001L24.7959 32.835L24.7129 32.752V32.7188H24.6797L24.5635 32.5859L24.2979 32.3037L24.0654 32.0547L23.916 31.8887L23.6504 31.6064L23.4014 31.3408L23.2021 31.125L23.0527 30.959L22.9365 30.8428L22.8203 30.71L22.7041 30.5938L22.5547 30.4111L22.4717 30.2451L22.4219 30.0293V29.8799L22.4883 29.6309L22.5879 29.4648L22.7041 29.3154L22.8701 29.1992L23.0195 29.1494L23.1357 29.1328H23.3682L23.584 29.1992L23.75 29.2988L23.9492 29.4814L24.0986 29.6309L24.2148 29.7637L24.4805 30.0459L24.5137 30.1123H24.5469L24.6631 30.2451L24.7129 30.2949V30.3281H24.7461L24.8623 30.4609L25.1113 30.7266L25.5762 31.2246L25.7588 31.4238L26.0078 31.6895L26.2402 31.9385L26.4229 32.1377L26.6553 32.3867L26.9209 32.6689L27.1699 32.9346L27.2031 32.9678V32.0879L27.2197 23.9697L27.2695 23.7871L27.3525 23.6211L27.5352 23.4219L27.7012 23.3057L27.9004 23.2393Z" fill="#FCB237"/>
<path d="M21.21 36.6123H34.873L35.1055 36.6621L35.3047 36.7783L35.4375 36.8945L35.5537 37.0605L35.6367 37.2598L35.6533 37.3594L35.6367 37.625L35.5537 37.8242L35.4375 37.9902L35.2881 38.123L35.0557 38.2393L34.873 38.2725H21.21L21.0107 38.2227L20.8779 38.1562L20.7285 38.04L20.6289 37.9238L20.4961 37.6914L20.4629 37.542V37.3594L20.5127 37.1602L20.5957 37.0107L20.7119 36.8613L20.8779 36.7285L21.0439 36.6455L21.21 36.6123Z" fill="#FCB237"/>
</g>
<defs>
<clipPath id="clip0_112_1804">
<rect width="57" height="57" fill="white"/>
</clipPath>
</defs>
</svg>
