<svg width="64" height="64" viewBox="0 0 64 64" fill="none" xmlns="http://www.w3.org/2000/svg">
<path d="M19.1875 0H19.9688V0.0625L20.2812 0.25L20.6562 0.59375L29.75 9.6875H30.2812L43.8125 8.71875L45.1875 8.625L45.25 8.25L45.4062 7.65625L45.6562 7.03125L45.9688 6.46875L46.1875 6.15625L46.5312 5.75L46.7812 5.46875L47.2188 5.125L47.5312 4.875L48.0938 4.5625L48.5625 4.34375L49.1875 4.15625L49.6562 4.0625L50.2812 4H50.7188L51.5312 4.09375L52.2812 4.3125L52.75 4.5L53.375 4.84375L53.7812 5.15625L54.125 5.4375L54.5 5.8125L54.8438 6.25L55.0625 6.59375L55.4375 7.3125L55.6562 8L55.75 8.40625L55.8438 9.375L55.75 10.3125L55.5938 10.9062L55.4375 11.375L55.0938 12.0625L54.8438 12.4375L54.5625 12.7812L54.2188 13.1875L53.7812 13.5625L53.375 13.8438L52.9062 14.125L52.2812 14.375L51.7812 14.5312L51.2188 14.6562L51.125 15.8125L50.875 19.2812L50.25 28.0312L50.125 29.75V30.0625L59.4375 39.375L59.6875 39.6875L59.8438 40.0312L59.875 40.3438L59.75 40.75L59.5 41.0938L59.0312 41.5625H58.9688V41.625L58.7188 41.8438L58.4375 42.125L58.1875 42.3438L57.7812 42.6875L57.4375 43L57 43.3438L56.5 43.75L56.0938 44.0625L55.5625 44.4375L55 44.8438L54.2812 45.3125L53.8438 45.5938L53.375 45.875L52.8438 46.1875L52.125 46.5938L50.9062 47.2188L49.75 47.75L48.5 48.25L47.4375 48.625L46.5625 48.9062L45.4375 49.2188L44.0938 49.5312L42.9375 49.75L41.375 49.9688L39.9062 50.0938L39.3125 50.125H37.3125L35.8438 50.0625L33.7188 49.8125L31.7812 49.4375L30.5938 49.125L29.4375 48.8125L29.3438 49.125L29 49.9375L28.4688 50.75L28.375 50.9062L28.4375 51.0625L28.9688 51.9375L29.4062 52.625L29.75 53.1875L30.2188 53.9375L30.5938 54.5312L31 55.1875L31.375 55.7812L31.8438 56.5312L32.2188 57.125L32.4688 57.5312L32.6562 57.5625H37.0938L37.5312 57.625L37.8438 57.7812L38.1562 58.0625L42.3125 62.2188L42.5312 62.5938L42.5625 62.7188V63.125L42.4375 63.4375L42.3125 63.625L42.0312 63.875L41.8125 63.9375V64H4.8125L4.84375 63.9375L4.59375 63.8125L4.4375 63.6875L4.25 63.4062L4.125 63.0625V62.8125L4.21875 62.5L4.4375 62.1562L8.71875 57.875L9.0625 57.6562L9.28125 57.5938L9.71875 57.5625H14.25L14.3125 57.4062L14.7188 56.75L15.0938 56.1562L17.9062 51.6562L18.3125 51L18.2812 50.875L17.9688 50.4062L17.7188 50L17.4062 49.3438L17.25 48.9062L17.0625 48.25L16.9688 47.5938L16.9375 47.2188V46.6875L17.0312 45.7812L17.1875 45.1875L17.4375 44.4375L17.75 43.8125L18.0312 43.3438L18.375 42.9062L18.6562 42.5625L18.6875 42.4375L17.4688 41.2188L17.25 40.9688L17 40.7188L16.7188 40.375L16.375 40L16.0938 39.6562L15.75 39.2188L15.125 38.4062L14.7188 37.8125L14.4062 37.375L13.9688 36.6875L13.5938 36.0625L13.1875 35.3438L12.875 34.7812L12.375 33.7812L11.9062 32.7188L11.5625 31.8438L11.25 31L10.8438 29.75L10.4688 28.3438L10.1875 27L9.96875 25.6875L9.8125 24.3125L9.71875 22.9688L9.6875 21.2812L9.75 19.75L9.875 18.375L10.0938 16.8438L10.3438 15.5312L10.6562 14.2188L11.0312 12.9375L11.5625 11.375L12 10.3125L12.3438 9.53125L12.7812 8.59375L13.2812 7.625L13.7188 6.875L14.0938 6.21875L14.5938 5.4375L15.0312 4.78125L15.4375 4.21875L15.6875 3.875L16.0625 3.375L16.4688 2.875L16.8125 2.4375L17.1875 2L17.5 1.65625L17.5312 1.59375H17.5938L17.6562 1.46875L17.75 1.34375H17.8125L17.875 1.21875L18.2812 0.8125L18.5 0.5625L18.8125 0.25L19.1562 0.03125L19.1875 0ZM19.5312 2.625L19.25 2.9375L18.9688 3.28125L18.2188 4.15625L17.875 4.5625L17.4688 5.125L17.25 5.4375L16.8438 6L16.5 6.5L16.1875 6.96875L15.7188 7.78125L15.375 8.375L15.0625 8.90625L14.5 10.0625L14.2188 10.6875L13.875 11.4375L13.5938 12.25L13.0938 13.625L12.75 14.9062L12.4062 16.3125L12.0938 18.25L12 18.9688L11.875 20.9688V22.7188L12 24.4375L12.1562 25.6562L12.3438 26.75L12.625 28.0312L12.9688 29.2812L13.3438 30.4375L13.8125 31.6562L14.25 32.6562L14.6875 33.5625L15.0625 34.2812L15.4688 35L15.875 35.6562L16.1562 36.0938L16.5625 36.6875L16.9375 37.2188L17.25 37.625L17.5938 38.0625L17.875 38.4062L18.625 39.2812L19.0625 39.75L19.3438 40.0312L19.5625 40.2812L19.9375 40.625L20.1562 40.8438L20.4062 41.0625L20.9062 41.5312L21.3125 41.875L21.7188 42.1875L22.1562 42.5312L22.7188 42.9688L23.0625 43.2188L24.1562 43.9375L24.9375 44.4375L25.7188 44.8438L26.4062 45.2188L26.9062 45.4688L28.1875 46.0312L29.0312 46.375L29.6875 46.5938L31.5312 47.1562L33.25 47.5312L34.2188 47.6875L35.75 47.875L36.7188 47.9375L37.6562 47.9688H38.7812L40.8125 47.8438L41.7812 47.7188L43.5312 47.4375L45.1562 47.0312L46.0938 46.7812L47.75 46.1875L48.5 45.9062L49.25 45.5625L50.9062 44.7812L51.6562 44.3438L52.4688 43.875L53.0938 43.5L53.7188 43.0625L54.2812 42.6562L54.8125 42.2812L55.3125 41.9062L55.75 41.5312L56.0938 41.25L56.4375 40.9375L56.7812 40.6562L57.2188 40.2812L57.125 40.125L19.625 2.625H19.5312ZM50.0938 6.1875L49.5938 6.28125L49.0938 6.46875L48.7188 6.6875L48.2188 7.09375L47.8438 7.5625L47.625 7.9375L47.4688 8.34375L47.3438 8.78125L47.3125 9.125V9.71875L47.4062 10.1875L47.5938 10.6875L47.7812 11.0312L48.0312 11.375L48.375 11.75L48.8125 12.0625L49.3125 12.3125L49.8438 12.4688L50.4062 12.5312L50.9062 12.5L51.5625 12.3438L52.0938 12.0938L52.5312 11.7812L52.8125 11.5312V11.4688H52.875L53.1875 11.0312L53.4375 10.5312L53.5938 10.0312L53.6562 9.5625V9.09375L53.5625 8.5625L53.4062 8.09375L53.1875 7.65625L52.9375 7.3125L52.6562 7L52.25 6.6875L51.6562 6.375L51.0938 6.21875L50.9062 6.1875H50.0938ZM45.2812 10.7812L33.125 11.6562L31.8125 11.75L31.875 11.875L32.125 12.0938L48 27.9688H48.0625L48.125 27.25L48.3438 24.25L48.7812 18.0938L49.0312 14.6562V14.5L48.5625 14.3125L47.9375 14.0312L47.4375 13.7188L47.1562 13.5L46.7188 13.125L46.375 12.75L46.0312 12.2812L45.75 11.7812L45.5312 11.3125L45.3438 10.8125L45.2812 10.7812ZM20.3438 43.9062L20.0625 44.25L19.8125 44.5625L19.4688 45.1875L19.25 45.7812L19.125 46.4688L19.0938 47.0312L19.1562 47.625L19.2812 48.1562L19.5 48.75L19.8438 49.3438L20.1875 49.75L20.4062 50L20.6875 50.25L21.1875 50.5938L21.8438 50.9062L22.4688 51.0938L22.9062 51.1562L23.375 51.1875L24.0312 51.125L24.5625 51L24.9375 50.875L25.5625 50.5625L26.1562 50.125L26.375 49.9375L26.6562 49.5938L26.9688 49.1562L27.2188 48.6875L27.4062 48.1562V48.0312L25.4688 47.1562L24.0312 46.375L23.4062 46L22.875 45.6562L22.1875 45.2188L21.625 44.8125L21.2188 44.5L20.7188 44.125L20.4375 43.9062H20.3438ZM20 52.4062L19.6562 52.9375L19.3125 53.5L19 54L18.5625 54.6875L18.3125 55.0938L17.9375 55.6875L17 57.1875L16.7812 57.5312V57.5938H29.875L29.9062 57.5312L29.5312 56.9062L29.1562 56.3125L27.75 54.0625L27.375 53.4688L26.875 52.6562L26.7188 52.4062L26.5625 52.4375L25.9688 52.75L25.4062 52.9688L24.5938 53.1875L24 53.2812L23.5938 53.3125H23.0938L22.4062 53.25L21.5625 53.0625L20.8438 52.8125L20.1562 52.4688L20 52.4062ZM9.90625 59.75L7.84375 61.8125V61.8438H38.8438L38.7812 61.7188L38.5938 61.5625L38.4375 61.375H38.375L38.3125 61.25H38.25L38.1875 61.125L38.0625 61H38L37.9375 60.875L37.4375 60.375H37.375V60.3125H37.3125V60.25L37.0938 60.0625L36.9375 59.9062L36.8125 59.75H9.90625Z" fill="#1B1B1B"/>
<path d="M19.625 6.25H19.9688L20.25 6.34375L20.5312 6.53125L20.75 6.8125L20.875 7.15625V7.46875L20.7812 7.75L20.5938 8.09375L19.8438 9.21875L19.625 9.5625L19.2188 10.2812L19.0312 10.5938L18.8438 10.9375L18.4062 11.8125L18.125 12.4375L17.8438 13.0938L17.4062 14.25L17.1562 15.0625L16.8438 16.1562L16.5312 17.5938L16.4062 18.3438L16.25 19.6562L16.1562 21.25L16.0938 21.7188L15.9062 22.0938L15.625 22.3438L15.3438 22.4688L14.9375 22.5L14.6562 22.4375L14.3438 22.25L14.0625 21.875L13.9688 21.5312V21L14.0625 19.375L14.2812 17.6562L14.5938 16.125L14.7812 15.3438L15.1875 13.9688L15.375 13.4062L15.7188 12.5L16.0625 11.6562L16.6562 10.4062L16.9062 9.90625L17.3438 9.125L17.8125 8.3125L18.7188 6.96875L18.9375 6.65625L19.25 6.375L19.4688 6.28125L19.625 6.25Z" fill="#1B1B1B"/>
</svg>
