<svg width="64" height="64" viewBox="0 0 64 64" fill="none" xmlns="http://www.w3.org/2000/svg">
<g clip-path="url(#clip0_112_1810)">
<path d="M34.5938 11.6875H35.3438L35.7812 11.8125L36.25 12.0625L36.625 12.4062L36.875 12.7188L37.0625 13.0938L37.1875 13.5L37.2188 13.6875V14.1562L37.125 14.5938L36.9375 15.0312L36.7188 15.3438L36.4375 15.6562L6.78125 45.3125L6.65625 45.9375L6.1875 49.4375L5.4375 55L5 58.25L4.875 59.125L5.15625 59.0625L8.625 58.5938L17 57.4688L18.4062 57.2812L18.6875 57.1875L30.7188 45.1562L30.875 44.9688L31.0938 44.7812L31.25 44.5938L31.4688 44.4062L31.625 44.2188L31.8438 44.0312L32 43.8438L32.2188 43.6562L32.375 43.4688L32.5938 43.2812L32.75 43.0938L32.9688 42.9062L33.125 42.7188L33.25 42.5938H33.3125V42.5312H33.375V42.4688H33.4375V42.4062H33.5V42.3438H33.5625V42.2812H33.625V42.2188H33.6875V42.1562H33.75V42.0938H33.8125V42.0312H33.875V41.9688H33.9375V41.9062H34V41.8438H34.0625V41.7812H34.125V41.7188H34.1875V41.6562H34.25V41.5938H34.3125V41.5312H34.375V41.4688H34.4375V41.4062H34.5V41.3438H34.5625V41.2812H34.625V41.2188H34.6875V41.1562H34.75V41.0938H34.8125V41.0312H34.875V40.9688H34.9375V40.9062H35V40.8438H35.0625V40.7812H35.125V40.7188H35.1875V40.6562H35.25V40.5938H35.3125V40.5312H35.375V40.4688H35.4375V40.4062H35.5V40.3438H35.5625V40.2812H35.625L35.6875 40.1562H35.75L35.8125 40.0312H35.875L35.9375 39.9062H36L36.0625 39.7812H36.125L36.1875 39.6562H36.25L36.3125 39.5312L49.875 25.9688L50.25 25.6875L50.6875 25.4688L51.0625 25.375L51.5 25.3438L52 25.4062L52.4375 25.5625L52.7812 25.7812L53.0938 26.0625L53.3125 26.3125L53.5312 26.6875L53.6875 27.1562L53.7188 27.3438V27.8438L53.5938 28.375L53.375 28.8125L53.1562 29.0938L52.875 29.4062L21.1562 61.125L20.7188 61.4062L20.4062 61.5312L19.7812 61.6562L17.5 61.9688L3.625 63.8438L2.75 63.9688L2.625 64H1.84375L1.25 63.7812L0.90625 63.5625L0.59375 63.2812L0.34375 62.9688L0.09375 62.4688L0 62.1875V61.0938L0.09375 60.5938L0.65625 56.4688L1.15625 52.7188L1.5625 49.75L1.96875 46.6562L2.3125 44.1562L2.46875 43.5625L2.59375 43.25L3.03125 42.6562L23.2188 22.4688L23.375 22.2812L23.5938 22.0938L23.75 21.9062L23.9688 21.7188L24.125 21.5312L24.3438 21.3438L24.375 21.2812H24.4375V21.2188H24.5V21.1562H24.5625V21.0938H24.625V21.0312H24.6875V20.9688H24.75V20.9062H24.8125V20.8438H24.875V20.7812H24.9375V20.7188H25V20.6562H25.0625V20.5938H25.125V20.5312H25.1875V20.4688H25.25V20.4062H25.3125V20.3438H25.375V20.2812H25.4375V20.2188H25.5V20.1562H25.5625V20.0938H25.625V20.0312H25.6875V19.9688H25.75V19.9062H25.8125V19.8438H25.875V19.7812H25.9375V19.7188H26V19.6562H26.0625V19.5938H26.125V19.5312H26.1875V19.4688H26.25V19.4062H26.3125V19.3438H26.375V19.2812H26.4375V19.2188H26.5V19.1562H26.5625V19.0938H26.625V19.0312H26.6875V18.9688H26.75V18.9062H26.8125V18.8438H26.875V18.7812H26.9375V18.7188H27V18.6562H27.0625V18.5938H27.125L27.1875 18.4688H27.25L27.3125 18.3438H27.375L27.4375 18.2188H27.5L27.5625 18.0938H27.625L27.6875 17.9688H27.75L27.8125 17.8438H27.875L27.9375 17.7188H28L28.0625 17.5938H28.125L28.1875 17.4688H28.25L28.3125 17.3438H28.375L28.4375 17.2188H28.5L28.5625 17.0938H28.625L28.6875 16.9688H28.75L28.8125 16.8438H28.875L28.9375 16.7188H29L29.0625 16.5938H29.125L29.1875 16.4688H29.25L29.3125 16.3438H29.375L29.4375 16.2188H29.5L29.5625 16.0938H29.625L29.6875 15.9688H29.75L29.8125 15.8438H29.875L29.9375 15.7188H30L30.0625 15.5938H30.125L30.1875 15.4688H30.25L30.3125 15.3438H30.375L30.4375 15.2188H30.5L30.5625 15.0938H30.625L30.6875 14.9688H30.75L30.8125 14.8438H30.875L30.9375 14.7188H31L31.0625 14.5938H31.125L31.1875 14.4688H31.25L31.3125 14.3438L33.3125 12.3438L33.75 12L34.1875 11.7812L34.5938 11.6875Z" fill="black"/>
<path d="M48.75 0H50.9688V0.03125L51.9375 0.21875L52.5625 0.375L53.2188 0.59375L53.9375 0.90625L54.5625 1.21875L55.0625 1.53125L55.5938 1.90625L56.0312 2.25L56.4062 2.59375L56.6562 2.8125L61.375 7.53125L61.5938 7.78125L61.9375 8.1875L62.375 8.78125L62.6562 9.25L62.9375 9.75L63.3125 10.5312L63.6562 11.5625L63.875 12.5L63.9375 12.8438L64 12.875V15.5L63.9375 15.5312L63.8125 16.2188L63.5938 17.0938L63.3438 17.8125L63.125 18.3125L62.875 18.8125L62.6875 19.1562L62.375 19.6562L61.9688 20.2188L61.625 20.625L61.25 21.0312L61.125 21.1875H61.0625V21.25H61V21.3125H60.9375V21.375H60.875V21.4375H60.8125V21.5H60.75V21.5625H60.6875V21.625H60.625V21.6875H60.5625V21.75H60.5V21.8125H60.4375V21.875H60.375V21.9375H60.3125V22H60.25V22.0625H60.1875V22.125H60.125V22.1875H60.0625V22.25H60V22.3125H59.9375V22.375H59.875V22.4375H59.8125V22.5H59.75V22.5625H59.6875V22.625H59.625V22.6875H59.5625V22.75H59.5V22.8125H59.4375V22.875H59.375V22.9375H59.3125V23H59.25V23.0625H59.1875V23.125H59.125V23.1875H59.0625V23.25H59V23.3125H58.9375V23.375H58.875V23.4375H58.8125V23.5H58.75V23.5625H58.6875V23.625H58.625V23.6875H58.5625V23.75H58.5V23.8125H58.4375V23.875H58.375V23.9375H58.3125V24H58.25V24.0625H58.1875V24.125H58.125V24.1875H58.0625V24.25L57.8125 24.4688L57.4375 24.75L57.0938 24.9062L56.6562 25.0312L56.5 25.0625H56.0625L55.7188 25L55.2812 24.8438L54.9375 24.625L54.625 24.375V24.3125H54.5625V24.25L54.4375 24.1875V24.125L54.3125 24.0625V24L54.1875 23.9375V23.875L54.0625 23.8125V23.75H54V23.6875H53.9375V23.625H53.875V23.5625H53.8125V23.5H53.75V23.4375H53.6875V23.375H53.625V23.3125H53.5625V23.25H53.5V23.1875H53.4375V23.125H53.375V23.0625H53.3125V23H53.25V22.9375H53.1875V22.875H53.125V22.8125H53.0625V22.75H53V22.6875H52.9375V22.625H52.875V22.5625H52.8125V22.5H52.75V22.4375H52.6875V22.375H52.625V22.3125H52.5625V22.25H52.5V22.1875H52.4375V22.125H52.375V22.0625H52.3125V22H52.25V21.9375H52.1875V21.875H52.125V21.8125H52.0625V21.75H52V21.6875H51.9375V21.625H51.875V21.5625H51.8125V21.5H51.75V21.4375H51.6875V21.375H51.625V21.3125H51.5625V21.25H51.5V21.1875H51.4375V21.125H51.375V21.0625H51.3125V21H51.25V20.9375H51.1875V20.875H51.125V20.8125H51.0625V20.75L50.9375 20.6875V20.625L50.8125 20.5625V20.5L50.6875 20.4375V20.375L50.5625 20.3125V20.25L50.4375 20.1875V20.125L50.3125 20.0625V20L50.1875 19.9375V19.875L50.0625 19.8125V19.75L49.9375 19.6875V19.625L49.8125 19.5625V19.5H49.75V19.4375H49.6875V19.375H49.625V19.3125H49.5625V19.25H49.5V19.1875H49.4375V19.125H49.375V19.0625H49.3125V19H49.25V18.9375H49.1875V18.875H49.125V18.8125H49.0625V18.75H49V18.6875H48.9375V18.625H48.875V18.5625H48.8125V18.5H48.75V18.4375H48.6875V18.375H48.625V18.3125H48.5625V18.25H48.5V18.1875H48.4375V18.125H48.375V18.0625H48.3125V18H48.25V17.9375H48.1875V17.875H48.125V17.8125H48.0625V17.75H48V17.6875H47.9375V17.625H47.875V17.5625H47.8125V17.5H47.75V17.4375H47.6875V17.375H47.625V17.3125H47.5625V17.25H47.5V17.1875H47.4375V17.125H47.375V17.0625H47.3125V17H47.25V16.9375H47.1875V16.875H47.125V16.8125H47.0625V16.75H47V16.6875H46.9375V16.625H46.875V16.5625H46.8125V16.5H46.75V16.4375H46.6875V16.375H46.625V16.3125H46.5625V16.25H46.5V16.1875H46.4375V16.125H46.375V16.0625H46.3125V16H46.25V15.9375H46.1875V15.875H46.125V15.8125H46.0625V15.75H46V15.6875H45.9375V15.625H45.875V15.5625H45.8125V15.5H45.75V15.4375H45.6875V15.375H45.625V15.3125H45.5625V15.25H45.5V15.1875H45.4375V15.125H45.375V15.0625H45.3125V15L45.1875 14.9375V14.875L45.0625 14.8125V14.75L44.9375 14.6875V14.625L44.8125 14.5625V14.5L44.6875 14.4375V14.375L44.5625 14.3125V14.25L44.4375 14.1875V14.125L44.3125 14.0625V14L44.1875 13.9375V13.875L44.0625 13.8125V13.75L43.9375 13.6875V13.625L43.8125 13.5625V13.5L43.6875 13.4375V13.375L43.5625 13.3125V13.25H43.5V13.1875H43.4375V13.125H43.375V13.0625H43.3125V13H43.25V12.9375H43.1875V12.875H43.125V12.8125H43.0625V12.75H43V12.6875H42.9375V12.625H42.875V12.5625H42.8125V12.5H42.75V12.4375H42.6875V12.375H42.625V12.3125H42.5625V12.25H42.5V12.1875H42.4375V12.125H42.375V12.0625H42.3125V12H42.25V11.9375H42.1875V11.875H42.125V11.8125H42.0625V11.75H42V11.6875H41.9375V11.625H41.875V11.5625H41.8125V11.5H41.75V11.4375H41.6875V11.375H41.625V11.3125H41.5625V11.25H41.5V11.1875H41.4375V11.125H41.375V11.0625H41.3125V11H41.25V10.9375H41.1875V10.875H41.125V10.8125H41.0625V10.75H41L40.8125 10.5312L40.625 10.375V10.3125H40.5625V10.25H40.5V10.1875H40.4375V10.125H40.375V10.0625H40.3125V10H40.25V9.9375H40.1875V9.875H40.125V9.8125H40.0625V9.75H40V9.6875H39.9375V9.625L39.8125 9.5625V9.5H39.75L39.5312 9.25L39.2812 8.9375L39.0625 8.5L38.9375 8V7.5L39.0312 7.0625L39.1875 6.6875L39.4062 6.34375L39.75 5.96875L43.125 2.59375L43.375 2.375L43.75 2.0625L44.3438 1.625L45.125 1.15625L45.8125 0.8125L46.5312 0.53125L47.125 0.34375L47.875 0.15625L48.6562 0.03125L48.75 0ZM49.75 4.46875L49.0312 4.53125L48.4062 4.65625L47.75 4.875L47.0312 5.25L46.6875 5.5L46.2812 5.84375L46.0312 6.0625L45 7.09375L44.7812 7.28125L44.625 7.46875L44.375 7.6875L44.5625 7.90625L56.25 19.5938L56.375 19.5312L58 17.9062L58.2812 17.5625L58.3125 17.4688H58.375L58.7188 17L59.125 16.2188L59.3125 15.6562L59.4375 15.1562L59.5 14.625V13.8438L59.4062 13.125L59.1562 12.2812L58.9062 11.75L58.6562 11.3125L58.4375 11.0312L58.0312 10.5312L57.8125 10.3125L57.6562 10.125L57.4688 9.96875L57.2812 9.75L57.0625 9.5625L56.9062 9.375L56.6875 9.1875L54.8125 7.3125L54.6562 7.125L54.4375 6.9375L54.2812 6.75L54.0938 6.59375L53.9062 6.375H53.8438L53.7812 6.25L53.5312 6.03125L53.2188 5.75L52.9062 5.5L52.5938 5.28125L51.75 4.84375L50.9375 4.59375L50.25 4.5L49.75 4.46875Z" fill="black"/>
<path d="M42.2812 19.2188H42.7188L43.1875 19.3125L43.5625 19.4688L43.9062 19.7188L44.1875 19.9688L44.4688 20.375L44.625 20.6875L44.75 21.1875V21.8438L44.5938 22.375L44.3438 22.8125L44.0938 23.125H44.0312L43.9688 23.25L14.0938 53.125L13.8438 53.3438L13.4062 53.625L13.125 53.75L12.7812 53.8438L12.5 53.875H12.1875L11.7188 53.7812L11.3438 53.625L11 53.4062L10.75 53.1875V53.125H10.6875L10.4688 52.8125L10.25 52.375L10.125 51.875V51.375L10.25 50.8438L10.5 50.3438L10.875 49.9062L41.0625 19.7188L41.5 19.4375L41.9062 19.2812L42.2812 19.2188Z" fill="black"/>
</g>
<defs>
<clipPath id="clip0_112_1810">
<rect width="64" height="64" fill="white"/>
</clipPath>
</defs>
</svg>
