<svg width="64" height="64" viewBox="0 0 64 64" fill="none" xmlns="http://www.w3.org/2000/svg">
<path d="M31.625 3.96875H32.4062L33.875 4.03125L34.9688 4.125L36.25 4.28125L37.6562 4.53125L38.7812 4.78125L40.3438 5.21875L41.625 5.65625L42.8125 6.125L43.6562 6.5L44.5625 6.9375L45.25 7.28125L45.9688 7.6875L46.75 8.15625L47.5312 8.65625L48.1562 9.09375L48.7188 9.5L49.2812 9.9375L49.7188 10.2812L50.1875 10.6875L50.5312 10.9688L51.0312 11.4375L51.125 11.5V11.5625L51.25 11.625L52.4062 12.7812L52.625 13.0312L53.0312 13.4688L53.3125 13.8125L53.5938 14.125L54.2812 15L54.6562 15.5L55.0312 16.0312L55.5938 16.875L56 17.5312L56.3125 18.0625L56.625 18.625L57 19.3438L57.25 19.8125L57.75 20.9375L58 21.5312L58.3125 22.3438L58.8125 23.8125L59.1562 25.0625L59.4375 26.2812L59.6875 27.6562L59.875 29.125L59.9688 30.25L60 30.9375V33.0625L59.9375 34.1875L59.8125 35.4375L59.6875 36.3438L59.4688 37.5938L59.125 39.0625L58.75 40.375L58.25 41.8438L57.7812 43L57.2812 44.0938L57 44.6875L56.25 46.0625L56 46.4688L55.5938 47.125L55.0938 47.875L54.7188 48.4062L54.4375 48.7812L54.125 49.1875L53.6875 49.75L53.2812 50.2188L52.9062 50.6562L52.5312 51.0625L52.375 51.25L51.3438 52.2812L51.0938 52.5L50.8438 52.75L50.5938 52.9688L50.1562 53.3438L49.75 53.6875L48.625 54.5625L48.0938 54.9375L47.1562 55.5625L46.5625 55.9375L45.8125 56.375L45.25 56.6875L44.2188 57.2188L43.0625 57.75L42.0625 58.1562L40.9375 58.5625L39.9375 58.875L38.6562 59.2188L37.5 59.4688L36.2812 59.6875L34.75 59.875L33.5625 59.9688L32.875 60H31.0938L29.875 59.9375L28.3438 59.7812L27.5 59.6562L26.2812 59.4375L24.7188 59.0625L23.3438 58.6562L22.0938 58.2188L20.9375 57.75L20.4375 57.5312L19.9688 57.3125L18.9688 56.8125L18.2812 56.4375L17.5312 56L16.9375 55.625L16.3125 55.2188L15.7812 54.8438L15.2188 54.4375L14.75 54.0625L14.4688 53.8438L13.9688 53.4375L13.6562 53.1562L13.3125 52.875L12.8125 52.4062L12.4375 52.0312L12.1875 51.8125L11.9375 51.5625V51.5H11.875L11.6562 51.25L11.2812 50.875L11.0625 50.625L10.3125 49.75L9.96875 49.3125L9.53125 48.75L9.125 48.1875L8.6875 47.5625L8.25 46.875L7.84375 46.2188L7.40625 45.4375L7.03125 44.75L6.65625 44L6.15625 42.875L5.6875 41.6875L5.21875 40.3125L4.84375 38.9688L4.5625 37.75L4.34375 36.5938L4.15625 35.25L4.03125 33.875L4 33.3438L3.96875 32.2812V31.5938L4 30.5312L4.125 28.9688L4.3125 27.5938L4.53125 26.375L4.84375 25L5.25 23.5938L5.71875 22.2188L6.09375 21.2812L6.40625 20.5625L6.78125 19.75L7.15625 19L7.53125 18.3125L8 17.5L8.4375 16.8125L8.8125 16.25L9.1875 15.7188L9.4375 15.375L9.8125 14.875L10.1875 14.4062L10.4688 14.0625L11.2188 13.1875L11.4688 12.9375L11.6875 12.6875L12.0312 12.3438L12.0625 12.2812H12.125V12.2188H12.1875L12.25 12.0938H12.3125V12.0312L12.5625 11.8125L12.9062 11.4688L13.1562 11.25L13.5938 10.8438L13.9375 10.5625L14.3438 10.2188L14.75 9.90625L15.1875 9.5625L15.75 9.15625L16.2812 8.78125L16.8125 8.4375L17.5 8L18.3125 7.53125L19 7.15625L19.5938 6.84375L20.4688 6.4375L21.0938 6.15625L22.125 5.75L22.7188 5.53125L23.875 5.15625L25.125 4.8125L26.3438 4.53125L27.75 4.28125L29 4.125L30.0938 4.03125L31.625 3.96875ZM31.7812 17L31.2188 17.0938L30.7812 17.25L30.375 17.4688L30 17.75V17.8125L29.875 17.875V17.9375H29.8125L29.5625 18.25L29.3125 18.6562L29.125 19.125L29.0312 19.625L29 20.3125V34.2188L29.0312 34.7812L29.1562 35.375L29.3125 35.75L29.5938 36.1875L29.875 36.5L30.0938 36.7188L30.5625 37.0312L30.9688 37.2188L31.4688 37.3438L31.6875 37.375H32.3438L32.9062 37.25L33.3125 37.0938L33.8125 36.7812L34.2188 36.4062L34.5312 36L34.7812 35.5L34.875 35.2188L34.9688 34.7188V19.6875L34.8438 19.0625L34.625 18.5625L34.4062 18.2188L34.125 17.875L33.7812 17.5938L33.3438 17.3125L32.875 17.125L32.4375 17.0312L32.1875 17H31.7812ZM31.5312 40.6562L30.9375 40.7812L30.4375 41L30.0625 41.2188L29.7188 41.5L29.375 41.8438L29.0938 42.25L28.8438 42.75L28.6875 43.2188L28.625 43.5312L28.5938 43.8438V44.2188L28.6562 44.6875L28.7812 45.1562L29 45.6562L29.25 46.0312L29.625 46.4688L30 46.7812L30.4062 47.0312L31.0312 47.2812L31.5 47.375L31.8125 47.4062H32.2188L32.6562 47.3438L33.1875 47.1875L33.7188 46.9375L34.1562 46.625L34.5 46.3125L34.8125 45.9062L35.0625 45.4688L35.25 44.9375L35.3438 44.5L35.375 43.9062L35.2812 43.2188L35.0938 42.6562L34.8438 42.1875L34.5625 41.8125L34.2812 41.5L33.8125 41.1562L33.3438 40.9062L32.7812 40.7188L32.4062 40.6562H31.5312Z" fill="#EE2C30"/>
<path d="M31.625 3.96875H32.4062L33.875 4.03125V4.0625H30.0938V4.03125L31.625 3.96875Z" fill="#AB0D09"/>
<path d="M12.9062 11.4688L12.9688 11.5L11.6875 12.7812L11.6562 12.875L11.5 13L11.4688 12.9375L11.6875 12.6875L12.0312 12.3438L12.0625 12.2812H12.125V12.2188H12.1875L12.25 12.0938H12.3125V12.0312L12.5625 11.8125L12.9062 11.4688Z" fill="#ED100E"/>
</svg>
