<svg width="100" height="100" viewBox="0 0 100 100" fill="none" xmlns="http://www.w3.org/2000/svg">
<path d="M12.0625 50.625H13.625L14.8125 50.75L15.75 51L16.75 51.4375L17.625 52L18.4375 52.6875L18.9375 53.1875L19.5625 54L20.1875 55.0625L20.75 56.3125L21 57.375L21.0625 57.875V59.0625L20.9375 59.9375L20.6875 60.75L20.1875 61.75L19.6875 62.5625L19.0625 63.375L18.3125 64.1875L17.4375 64.875L16.1875 65.625V65.75L16.5 66.0625L16.8125 66.5625L17.3125 67.5625L18.125 69L19 70.375L19.75 71.5L20.375 72.375L21.1875 73.4375L22.0625 74.5L22.5 75L23.25 75.875L23.9375 76.625L24.875 77.5625L25.375 78L26.0625 78.625L26.75 79.1875L27.75 80L28.8125 80.75L29.6875 81.375L31.125 82.3125L32.0625 82.875L33.1875 83.5L34.75 84.3125L36.75 85.1875L39.0625 86.0625L41.6875 86.8125L43.3125 87.1875L45.6875 87.5625L48 87.8125L49.6875 87.9375H53.25L55.5625 87.75L57.75 87.4375L59.5 87.125L61.75 86.5625L62.9375 86.1875L65.0625 85.4375L66.9375 84.625L68.75 83.75L70.3125 82.875L71.9375 81.875L73 81.125L73.875 80.5L75.0625 79.625L76 78.8125L76.5 78.375L77.25 77.6875L79.0625 75.875L79.5 75.375L80.1875 74.625L80.75 73.9375L81.3125 73.3125L81.9375 72.5L83.8125 69.6875L84.3125 68.8125L85.125 67.375L85.875 65.9375L86.3125 65.3125L86.625 65L87.25 65.0625L87.9375 65.4375L88.4375 65.75L88.75 66V66.5625L88.4375 67.5L87.3125 69.75L86.3125 71.4375L85.6875 72.5L85.0625 73.3125L84.375 74.3125L83.8125 75.0625L83.1875 75.875L82.625 76.5L82.1875 77L81.25 78L79.4375 79.8125L78.9375 80.25L78.25 80.875L77.75 81.3125L76.9375 82L75.9375 82.75L74.9375 83.4375L74.3125 83.875L72.9375 84.75L71.4375 85.625L70.0625 86.375L69.0625 86.875L67.875 87.4375L66.3125 88.0625L64.6875 88.6875L62 89.5L60.1875 89.9375L57.75 90.375L55.875 90.625L53.1875 90.8125H48.75L45.9375 90.625L44.0625 90.375L41.625 89.875L39.6875 89.375L36.625 88.375L35.125 87.75L33.6875 87.125L31.625 86.125L30.1875 85.3125L28.625 84.3125L27.4375 83.5L26.25 82.625L25.25 81.8125L24.5625 81.25L23.875 80.625L23.375 80.1875L22.4375 79.3125L21.125 78L20.6875 77.5L20.125 76.875L19.6875 76.375L18.8125 75.3125L18.0625 74.3125L17.1875 73.0625L16.0625 71.375L15.125 69.75L14.5 68.5625L14 67.5L13.75 66.75L13.5625 66.3125L12.5625 66.375L11.4375 66.25L9.875 65.8125L8.6875 65.1875L7.625 64.3125L7.125 63.8125L6.5 63L5.9375 62.0625L5.5 61.0625L5.125 59.75L5.0625 59.375V57.5L5.3125 56.25L5.6875 55.25L6.25 54.25L6.875 53.375L7.4375 52.75L8.0625 52.1875L9 51.5625L10 51.0625L10.6875 50.8125L11.375 50.6875L12.0625 50.625ZM12.375 53.5L11.4375 53.6875L10.6875 54L9.875 54.5625L9.25 55.1875L8.8125 55.8125L8.375 56.5625L8.0625 57.375L7.9375 58.0625V59.0625L8.125 59.875L8.75 61.0625L9.3125 61.8125L10.0625 62.5L10.75 62.9375L11.6875 63.3125L12.1875 63.4375H13.6875L15 63L15.9375 62.5L16.75 61.8125L17.25 61.125L17.6875 60.375L17.9375 59.625L18 59V57.875L17.8125 57L17.5 56.25L17.0625 55.625L16.5 55L15.875 54.4375L15.1875 54L14.4375 53.6875L13.5625 53.5H12.375Z" fill="#F3973F"/>
<path d="M49.3125 9.0625H52.0625L54.6875 9.25L56.8125 9.5L58.5625 9.8125L60.6875 10.3125L62.625 10.875L65 11.6875L66.8125 12.4375L67.9375 12.9375L69 13.4375L70.1875 14.0625L71.8125 15L73.0625 15.8125L73.8125 16.3125L74.875 17.0625L76 17.9375L76.8125 18.625L77.5 19.1875L78.5 20.125L79 20.5625L80.625 22.1875L81.0625 22.6875L81.6875 23.375L82.25 24.0625L83.0625 25.0625L83.6875 25.9375L84.4375 27L85.375 28.4375L86.25 29.9375L87.125 31.625L87.75 32.9375L88.0625 33.1875L88.9375 33.375L90 33.5625L91.125 33.9375L92.1875 34.5L93.0625 35.125L93.8125 35.8125L94.25 36.25L94.8125 37.0625L95.4375 38.25L95.75 39.1875L95.9375 40.1875L96 41.6875L95.875 43L95.625 44L95.1875 45L94.4375 46.125L93.75 46.875L92.875 47.6875L92 48.25L91.125 48.6875L89.8125 49L89.125 49.125L87.8125 49.1875L86.5625 49.0625L85.5 48.8125L84.4375 48.375L83.6875 47.875L82.8125 47.125L82.375 46.6875L81.875 46.0625L81.125 44.875L80.6875 43.875L80.4375 43.0625L80.25 42.0625V40.5625L80.5 39.3125L80.875 38.25L81.125 37.75L81.6875 36.875L82.25 36.1875L82.4375 35.9375H82.5625L82.625 35.75L83.125 35.3125L84.25 34.5L84.9375 34.0625L85.0625 33.875L84.125 32.1875L83.0625 30.4375L82.3125 29.1875L81.5 28.0625L80.625 26.875L79.9375 26L79.375 25.3125L78.75 24.625L78.3125 24.125L77.5625 23.3125L77 22.75L76.5 22.3125L76 21.8125L75.3125 21.25L74.375 20.4375L73.375 19.6875L72.25 18.875L70.4375 17.6875L69 16.875L67.5625 16.125L66.0625 15.4375L64.125 14.625L62 13.875L60.3125 13.375L58.625 12.9375L57.375 12.6875L55.5625 12.4375L53 12.1875L51.875 12.125H48.5L46.3125 12.3125L44 12.625L41.8125 13.0625L39.8125 13.625L38 14.1875L35.875 15L34.375 15.6875L32.6875 16.5L31.375 17.25L29.9375 18.125L28.1875 19.3125L27.125 20.125L25.75 21.25L25.0625 21.9375L24.5625 22.375L22.875 24.0625L22.4375 24.5625L21.6875 25.4375L21.125 26.0625L20.4375 26.9375L19.8125 27.75L18.3125 30L17.875 30.6875L17.3125 31.6875L16.5 33L15.9375 33.8125L15.5625 34.1875L15.0625 34.125L13.9375 33.5L13.625 33.25L13.5 33.0625V32.5625L13.75 31.9375L14.4375 30.6875L14.8125 29.9375L15.625 28.5625L16.375 27.375L17.1875 26.25L17.8125 25.375L18.375 24.625L18.875 24L19.6875 23L20.6875 21.9375L23.125 19.5L23.625 19.0625L24.4375 18.375L25.5 17.5L26.625 16.6875L28.125 15.6875L29.3125 14.9375L30.8125 14.0625L32.625 13.125L33.6875 12.625L35.625 11.8125L38.125 10.9375L40.375 10.3125L42 9.9375L44.0625 9.5625L45.875 9.3125L48.125 9.125L49.3125 9.0625ZM87.75 36.3125L86.625 36.5625L85.625 37L84.8125 37.625L84.375 38.0625L83.8125 38.9375L83.4375 39.875L83.3125 40.4375L83.25 41.1875V41.8125L83.375 42.625L83.6875 43.4375L84.0625 44.125L84.9375 45.0625L85.75 45.6875L86.625 46.0625L87.5625 46.3125L88.6875 46.375L89.875 46.0625L90.75 45.625L91.5 45.0625L91.9375 44.625L92.5625 43.6875L92.875 43L93.0625 42V40.4375L92.8125 39.5L92.3125 38.5625L91.8125 37.9375L91.1875 37.3125L90.4375 36.8125L89.4375 36.4375L88.8125 36.3125H87.75Z" fill="#F3973F"/>
<path d="M46.875 33.1875H59.125L60.375 33.25L61.125 33.375L61.5 33.5625L61.6875 33.75L61.8125 34.3125V35.4375L61.625 35.8125L61.3125 36.0625L60.8125 36.1875L60.25 36.25L58.625 36.3125H54.6875L55.3125 37.3125L56.0625 38.75L56.625 40.125L56.9375 40.4375L59.625 40.5L60.9375 40.625L61.625 40.875L61.875 41.375V42.1875L61.6875 42.75L61.3125 43.125L60.4375 43.3125L59.1875 43.375L56.875 43.4375L56.75 43.5L56.125 45.125L55.4375 46.5L54.9375 47.25L54.375 47.9375L53.75 48.4375L53.0625 48.9375L53 49.125L53.25 49.25L54.0625 49.9375L54.5 50.3125L55.1875 51.1875L55.75 52.0625L56.375 53.5625L56.6875 54.6875L56.75 55.25V64.0625L56.6875 65.9375L56.375 66.4375L56.0625 66.625L55.8125 66.6875H54.8125L54.3125 66.5L53.9375 66.1875L53.6875 65.5L53.625 64.25V55.625L53.5 54.8125L53.25 54L52.8125 53.125L52.25 52.375L51.625 51.75L50.6875 51.125L50 50.875L49.5625 50.75L48.6875 50.6875L40.875 50.625L40.1875 50.375L39.6875 49.9375L39.5 49.5625V48.625L39.6875 48.0625L40.0625 47.6875L40.625 47.5L41.3125 47.4375L49 47.375L49.875 47.25L50.875 46.75L51.5625 46.25L52.3125 45.5625L52.875 44.875L53.3125 44.25L53.8125 43.4375L40.5625 43.375L39.9375 43.25L39.625 42.875L39.5 42.5L39.4375 42.0625V41.3125L39.6875 40.9375L40.0625 40.625L40.4375 40.5L41.5 40.4375H53.5625L52.9375 39.3125L52.3125 38.4375L51.5 37.5L50.875 37L50.1875 36.625L49.3125 36.4375L48.3125 36.375L40.25 36.3125L39.875 36.1875L39.625 35.8125L39.4375 35.0625V34.4375L39.75 33.8125L40.25 33.375L40.4375 33.3125L46.875 33.1875Z" fill="#F3973F"/>
</svg>
