<svg width="100" height="100" viewBox="0 0 100 100" fill="none" xmlns="http://www.w3.org/2000/svg">
<path d="M20.0625 25.875H21.25L22.0625 26.125L22.75 26.5L23.5625 27.125L25.3125 28.625L26 29.1875L26.625 29.75L27.3125 30.3125L28.0625 31L28.75 31.5625L29.375 32.125L30.0625 32.6875L30.6875 33.25L31.1875 33.6875L32.0625 34.4375L32.875 35.125L33.5625 35.6875L34.5 36.5L35.125 37.0625L35.8125 37.625L36.5 38.25L37.1875 38.8125L37.8125 39.375L38.3125 39.8125L38.9375 40.375L39.625 40.9375L40.25 41.5L40.9375 42.0625L41.1875 41.9375L41.8125 41.125L42.5625 40.125L43.6875 38.4375L44.5625 37.1875L45.9375 35.1875L46.5 34.375L47.3125 33.1875L47.75 32.5625L48.875 30.875L49.625 29.875L50.125 29.25L50.8125 28.6875L51.8125 28.1875L52.1875 28.125H53.375L54.25 28.3125L55 28.625L55.5625 29.0625L56.0625 29.5625L56.5 30.3125L56.75 31.1875L56.875 33.125V49.75L56.9375 50.5L57.4375 50.6875L59.5625 51.3125L64.375 52.875L69.4375 54.5625L72.125 55.4375L74.875 56.375L77.125 57.125L78.125 57.625L78.625 58.0625L79 58.5625L79.3125 59.125L79.5625 60.1875L79.5 60.9375L79.1875 61.8125L78.75 62.375L78.1875 62.8125L77.1875 63.3125L75.6875 64L74.4375 64.5625L72.625 65.375L70.875 66.125L68.625 67.125L66.4375 68.0625L62.4375 69.8125L60.5625 70.625L58.1875 71.6875L56.5625 72.375L54.6875 73.1875L52.875 74L50.1875 75.1875L48.75 75.8125L47.1875 76.5L44.75 77.5625L42.9375 78.375L41.0625 79.1875L39.5 79.875L37.625 80.6875L33.6875 82.4375L31.9375 83.1875L27 85.375L25.125 86.1875L22.4375 87.375L20 88.4375L18.125 89.25L15.875 90.25L14.625 90.8125L10.75 92.5L8.375 93.5L7.4375 93.8125L6.6875 94H5.9375L5.5625 93.75L5.25 93.125L5.125 92.6875V92.0625L5.5625 89.6875L5.9375 87.875L6.5625 84.625L7.0625 82.0625L7.625 79.1875L8.5 74.625L8.9375 72.5L9.375 70.1875L9.9375 67.375L10.6875 63.5625L11.5625 59L14.875 42.4375L16.25 35.5L17.5625 28.75L17.875 27.75L18.25 27L18.75 26.5L19.4375 26.0625L20.0625 25.875ZM20.75 29.1875L20.5 30.5L19.75 34.3125L19.25 36.9375L18.6875 39.75L18.3125 41.6875L17.9375 43.4375L17.5 45.8125L16.8125 49.1875L16.25 52.125L15.875 53.9375L15.3125 56.9375L14.75 59.6875L14.125 62.875L13.3125 67.125L12.875 69.1875L12.3125 72.125L11.8125 74.5625L11.25 77.5L10.8125 79.625L10.4375 81.5625L9.875 84.25V84.625L10.1875 84.5L10.75 83.875L11.4375 82.9375L12.1875 81.9375L13.0625 80.75L14.0625 79.4375L14.625 78.625L15.1875 77.875L15.8125 77L16.5 76.0625L18.125 73.8125L18.8125 72.875L19.6875 71.6875L20.4375 70.625L21.0625 69.75L21.875 68.625L22.75 67.4375L23.5625 66.3125L24.3125 65.3125L25.125 64.1875L26 63L26.6875 62.0625L27.25 61.3125L27.9375 60.375L29.5625 58.125L30.5 56.875L32.125 54.625L33.0625 53.375L33.6875 52.5L34.5 51.375L35.375 50.1875L36.0625 49.25L37.6875 47L38.3125 46.1875L38.875 45.375L39.1875 44.9375L39.125 44.625L38.375 44.0625L37.5 43.3125L36.8125 42.75L35.0625 41.25L34.375 40.625L33.875 40.1875L33 39.4375L32.0625 38.625L31.4375 38.0625L30.75 37.5L30.125 36.9375L29.4375 36.375L28.8125 35.8125L28.125 35.25L27.4375 34.625L26.75 34.0625L26 33.375L24.625 32.25L23.6875 31.4375L23 30.875L22.375 30.3125L21.5 29.625L20.9375 29.1875H20.75ZM53.3125 31L52.75 31.375L52.125 31.9375L51.5625 32.6875L50.9375 33.5L49.875 35.125L49.25 36L48.8125 36.625L47.5625 38.5L46.6875 39.6875L45.3125 41.75L44.5 42.875L43.0625 45L42.1875 46.1875L41.6875 46.875L40.9375 47.9375L40.25 48.875L39.375 50.0625L38.75 50.9375L38.1875 51.75L36.875 53.5L35.625 55.25L35.125 55.9375L34.375 56.9375L32.75 59.1875L32.25 59.875L31.625 60.6875L31.0625 61.4375L30.4375 62.3125L29.6875 63.375L29.0625 64.1875L28.1875 65.375L27.4375 66.4375L26.9375 67.125L25.0625 69.625L24.375 70.625L22.875 72.625L22.1875 73.625L21.375 74.75L20.75 75.5625L19.25 77.5625L18.375 78.75L17.6875 79.625L16.9375 80.6875L16.4375 81.3125L16.5625 81.375L17.625 80.625L18.5 79.9375L20.125 78.5625L20.8125 78L21.6875 77.25L22.3125 76.75L23.375 75.875L24.25 75.1875L25.3125 74.3125L26 73.75L26.625 73.1875L27.25 72.6875L28.1875 71.875L28.875 71.3125L29.6875 70.625L30.3125 70.125L31 69.5625L31.75 68.9375L33.125 67.8125L33.9375 67.125L34.5625 66.625L35.5625 65.8125L36.1875 65.3125L37 64.625L38.375 63.5L39.25 62.75L40.125 62.0625L41.25 61.1875L42.125 60.5L42.75 60L43.6875 59.4375L44.125 59.5L44.625 59.9375H44.75L44.875 60.1875L45.125 60.5625L45.25 60.875V61.5L44.8125 62.0625L44.25 62.6875L43.75 63.125L43.125 63.6875L42.3125 64.3125L41.3125 65.125L40.4375 65.875L39.8125 66.375L39.0625 67L38.375 67.5625L37.5625 68.25L36.875 68.8125L36.0625 69.4375L35.4375 70L34.625 70.625L34.125 71.0625L33.5 71.5625L32.8125 72.125L32.1875 72.6875L31.4375 73.25L30.875 73.75L30.125 74.3125L29.3125 75L28.6875 75.5L28.1875 75.9375L27.5625 76.4375L26.6875 77.1875L25.8125 77.875L24.8125 78.6875L23.9375 79.375L23 80.1875L22.5 80.625L21.8125 81.125L21.375 81.5625L20.625 82.125L19.8125 82.8125L19.25 83.25L18.625 83.8125L17.8125 84.4375L17.1875 85L16.125 85.8125L15.25 86.5L14.625 87.0625V87.1875H14.5V87.3125L15.0625 87.125L16.1875 86.6875L17.4375 86.125L19.3125 85.3125L21.25 84.4375L23.1875 83.625L25.0625 82.8125L26.6875 82.0625L29.0625 81L32.375 79.5625L33.9375 78.875L35.4375 78.25L37.25 77.4375L39.375 76.5L40.9375 75.8125L42.25 75.25L43.5 74.6875L45.0625 74L46.9375 73.1875L48.1875 72.625L49.1875 72.1875L51.375 71.25L53.1875 70.4375L55.5 69.4375L56.75 68.875L58.0625 68.3125L59.5 67.6875L61.1875 66.9375L65 65.25L66.25 64.6875L67.4375 64.1875L69.875 63.125L71.5 62.4375L73.875 61.4375L75.75 60.6875L76.125 60.5L76 60.25L75.625 60L67.75 57.375L64.25 56.1875L59 54.4375L56.4375 53.5625L54 52.75L53.8125 52.1875L53.75 51.4375L53.6875 33.4375L53.625 31.5L53.4375 31H53.3125Z" fill="#1F1E1F"/>
<path d="M47.8125 3H52.1875L54.9375 3.1875L57.1875 3.4375L59.5625 3.875L63.0625 4.75L65.4375 5.5L67.1875 6.125L69.3125 7L71.5 8.0625L72.9375 8.8125L74.1875 9.5625L75.375 10.3125L76.5 11.0625L77.4375 11.75L78.1875 12.3125L79.8125 13.5625L80.6875 14.3125L81.625 15.125L82.125 15.625L82.625 16.0625L84.25 17.6875L84.6875 18.1875L85.3125 18.875L85.8125 19.5L86.5625 20.375L87.3125 21.375L88.125 22.4375L89.125 23.9375L90.125 25.5L91 27L91.875 28.6875L92.8125 30.625L93.625 32.5625L94.4375 34.8125L95 36.625L95.625 38.875L96.1875 41.5L96.5625 43.8125L96.8125 46.25L96.875 47.1875V52.3125L96.6875 55L96.375 57.375L95.625 61.125L95.1875 62.75L94.5 65L93.625 67.4375L92.8125 69.3125L91.9375 71.1875L91.25 72.4375L90.8125 73.3125L90.1875 74.3125L89.8125 74.9375L89.0625 76.125L88.4375 77L87.875 77.75L87.125 78.8125L86.4375 79.6875L85.75 80.5L85.3125 81L84.375 82L83.9375 82.5L82.125 84.3125L81.625 84.75L80.875 85.4375L80.375 85.875L79.375 86.6875L78.4375 87.4375L77.4375 88.125L76 89.125L74.8125 89.875L73.875 90.4375L72.6875 91.125L70.4375 92.3125L68.1875 93.3125L66.9375 93.8125L64.6875 94.625L61.9375 95.4375L60.0625 95.875L58.0625 96.25L55.875 96.5625L53.8125 96.75L51.4375 96.875H47.9375L45.75 96.75L43.8125 96.5625L42.125 96.3125L39.5625 95.8125L37.375 95.25L34.875 94.5L32.9375 93.8125L31.375 93.1875L30.125 92.625L29.4375 92.25L28.875 91.75L28.625 91.1875L28.5625 90.9375V90.4375L28.9375 89.6875L29.375 89L30 88.625H30.5625L31.8125 89L34.125 89.9375L36 90.625L37.5 91.125L39.125 91.5625L41.5625 92.125L43.8125 92.5L46.0625 92.75L48 92.875H51.8125L54.125 92.6875L56.5625 92.375L58.6875 92L60.75 91.5L62.5 91L64.75 90.25L66.9375 89.375L68.75 88.5625L69.75 88.0625L71 87.375L72.5 86.5L74 85.5625L75.125 84.75L76.4375 83.75L77.3125 83.0625L78.125 82.375L79.0625 81.5625L79.5625 81.125L81.1875 79.5L81.625 79L82.1875 78.4375L82.6875 77.8125L83.1875 77.25L83.875 76.375L84.625 75.375L85.4375 74.25L86.0625 73.3125L86.5 72.5625L87 71.75L88 69.9375L88.5 68.875L89 67.875L89.9375 65.625L90.75 63.3125L91.25 61.625L91.8125 59.4375L92.25 57.0625L92.5 55.1875L92.75 53.125L92.875 51.6875V47.8125L92.625 45.125L92.3125 42.75L91.9375 40.8125L91.5 39L90.6875 36.25L90.1875 34.875L89.375 32.875L88.625 31.25L87.8125 29.625L87.0625 28.3125L86.3125 27.0625L85.4375 25.75L84.6875 24.6875L83.8125 23.5L83.125 22.625L82.5625 21.9375L81.8125 21.125L81.375 20.625L79.5 18.75L79 18.3125L78.125 17.5L77.4375 16.9375L76.625 16.25L75.375 15.3125L74.4375 14.625L73.375 13.875L72.375 13.25L71.4375 12.6875L70.25 12L68.4375 11.0625L66.4375 10.1875L64.8125 9.5625L62.5625 8.8125L60.3125 8.1875L57.9375 7.6875L56.375 7.4375L53.75 7.125L52.3125 7L51.1875 6.9375H48.5L45.9375 7.125L44 7.375L41.3125 7.8125L39.5625 8.1875L36.5 9.0625L33.875 10L32.3125 10.6875L30.8125 11.375L29.125 12.25L27.6875 13.125L26.6875 13.75L25.5 14.5625L24.375 15.375L23.3125 16.1875L22.375 17L21.6875 17.5625L21.1875 18.0625H21.0625V18.1875L20.5625 18.625L18.375 20.8125L18.1875 21.0625H18.0625L17.9375 21.3125L17.125 22.1875L15.75 23.9375L14.6875 25.5L13.875 26.6875L13.0625 28.0625L12.3125 29.375L11 32L10.25 33.75L9.625 35.375L8.875 37.5625L8.125 40.25L7.75 42.0625L7.3125 45.0625L7.0625 47.5L7 48.4375V52.125L7.3125 55.3125L7.625 57.4375V58.75L7.3125 59.375L6.8125 59.8125L6.25 60.0625L5.625 60.125L4.8125 60L4.3125 59.6875L4.0625 59.375L3.75 58.5625L3.5625 57.625L3.25 55.25L3.0625 53.25L3 52.25V47.875L3.125 45.6875L3.375 43.375L3.625 41.8125L4.3125 38.625L4.6875 37.3125L5.25 35.4375L5.75 34L6.5625 31.875L7.3125 30.25L8 28.8125L8.75 27.375L9.5 26.0625L10 25.25L10.875 23.875L11.5625 22.875L12.0625 22.1875L12.9375 21L13.8125 19.875L14.625 18.9375L15.25 18.25L15.6875 17.75L16.25 17.1875L16.625 16.75L17.625 15.75L18.125 15.3125L18.625 14.8125L19.125 14.375L19.9375 13.6875L20.625 13.125L21.625 12.3125L22.6875 11.5625L23.5625 10.9375L25 10L26.375 9.1875L27.8125 8.375L29.25 7.625L31 6.8125L32.6875 6.125L34.5 5.4375L36.6875 4.75L38.375 4.3125L40.0625 3.9375L42.4375 3.5L44.375 3.25L46.5625 3.0625L47.8125 3Z" fill="#1F1E1F"/>
<path d="M69.25 22H78.6875L80.0625 22.125L80.375 22.4375L80.5625 22.9375V23.5625L80.375 24.1875L80.125 24.4375L79.6875 24.5625L78.75 24.625L74.9375 24.75L75.625 26.1875L76.25 27.75L76.4375 27.9375L77.1875 28.0625H79.375L80.125 28.1875L80.375 28.5L80.5 28.875V29.75L80.3125 30.25L80 30.5L79.875 30.5625L79.125 30.625L76.4375 30.6875L76.3125 31.0625L76.125 32.0625L75.6875 33.0625L75.125 33.9375L74.5625 34.625L74.125 35.0625L73.1875 35.75L71.8125 36.4375L70.625 36.8125L69.1875 37.125L67.6875 37.3125H66.9375L67.375 37.8125L67.9375 38.4375L68.5 39.125L69.3125 40.0625L69.75 40.5L70.3125 41.1875L71.9375 43.0625L72.5 43.75L73.125 44.4375L73.6875 45.125L74.3125 45.8125L75 46.6875L75.5 47.375L75.8125 48V48.5L75.0625 49.3125L74.5625 49.6875L73.5625 49.0625L73.125 48.625L72.75 48.3125L72.3125 47.8125L71.5 46.9375L70.9375 46.25L70.125 45.3125L69.4375 44.5L68.875 43.8125L68.25 43.125L67.6875 42.4375L67.0625 41.75L66.5 41.0625L65 39.3125L64.4375 38.625L63.75 37.75L63 36.75L62.75 36.1875L62.6875 35.8125L62.9375 35.125L63.25 34.875L63.5 34.8125L67.5625 34.625L69.3125 34.375L70.375 34.0625L71.125 33.75L72.0625 33.1875L72.6875 32.6875L73.125 32.1875L73.5 31.5625L73.8125 30.75L66.75 30.6875L63.6875 30.625L62.8125 30.5L62.5625 30.1875L62.375 29.625L62.3125 28.8125L62.5625 28.3125L62.875 28.0625L64.6875 28H73.375L73.0625 27.1875L72.5 26.25L71.8125 25.4375L71.4375 25L71 24.8125L70.6875 24.75L65.625 24.6875L63.25 24.625L62.8125 24.5625L62.5625 24.25L62.3125 23.5L62.25 23L62.4375 22.5L62.8125 22.1875L63.125 22.125L64.8125 22.0625L69.25 22Z" fill="#212021"/>
<path d="M49.1875 54.875L49.8125 54.9375L50.3125 55.1875L50.75 55.6875L50.875 55.9375V56.375L50.5 56.875L49.5 57.8125L48.6875 58.5625L47.8125 59.125L47.4375 59.3125H47.0625L46.4375 58.9375L46 58.4375L45.8125 58L45.9375 57.375L46.1875 57L46.875 56.375L47.4375 55.9375L48.4375 55.1875L48.9375 54.9375L49.1875 54.875Z" fill="#201F20"/>
</svg>
