<svg width="85" height="85" viewBox="0 0 85 85" fill="none" xmlns="http://www.w3.org/2000/svg">
<path d="M29.4263 9.5459H30.1733L31.6675 9.62891L32.7466 9.75342L33.7012 9.91943L34.8633 10.21L35.9839 10.5835L36.814 10.957L37.6855 11.4136L38.3496 11.8701L38.8892 12.3267L39.1797 12.5757L39.5532 13.0322L39.9268 13.5303L40.2588 14.1943L40.4663 14.8169L40.5493 15.4395V24.5703L40.5078 24.6948L40.9229 24.4873L41.9189 23.9062L42.998 23.2837L43.9941 22.7026L45.1562 22.0386L46.1523 21.4575L47.1069 20.918L47.8125 20.5029L49.5972 19.4653L50.5518 18.9258L51.5479 18.3447L52.627 17.7222L53.4985 17.2241L54.2041 16.8091L55.3662 16.145L56.3623 15.564L56.5698 15.4395L56.8188 15.481L57.8564 16.062L58.8525 16.6431L61.0107 17.8882L62.0068 18.4692L63.0859 19.0918L64.248 19.7559L65.2441 20.3369L66.4062 21.001L67.4023 21.582L68.5645 22.2461L69.5605 22.8271L77.1143 27.1851L78.1104 27.7661L79.1895 28.3887L80.3516 29.0527L81.3477 29.6338L84.585 31.5015L85 31.7505V42.7905L84.4604 43.1226L83.2983 43.7866L81.1401 45.0317L79.978 45.6958L78.9819 46.2769L77.8198 46.9409L76.8237 47.522L74.79 48.6841L73.7109 49.3066L72.7148 49.8877L71.5527 50.5518L70.5566 51.1328L69.3945 51.7969L68.3154 52.4194L67.1533 53.0835L66.2402 53.623L65.6177 53.9966L63.4595 55.2417L62.4634 55.8228L61.3843 56.4453L60.2222 57.1094L55.9058 59.5996L54.7437 60.2637L52.5854 61.5088L51.5894 62.0898L50.4272 62.7539L49.3896 63.335L48.3936 63.916L47.356 64.4971L46.4014 65.0366L45.4053 65.6177L44.2432 66.2817L43.1641 66.9043L42.168 67.4854L41.1304 68.0664L40.4248 68.4814L39.3457 69.104L38.3496 69.6851L37.1875 70.3491L36.1084 70.9717L35.2368 71.4697L30.9204 73.96L30.0488 74.458L28.5547 75.3296L28.3057 75.4126L26.1475 74.1675L25.2759 73.6694L24.2798 73.0884L22.1216 71.8433L20.9595 71.1792L19.9634 70.5981L18.8013 69.9341L17.7222 69.3115L16.7261 68.7305L15.564 68.0664L14.5679 67.4854L13.4058 66.8213L12.4097 66.2402L11.2476 65.5762L9.08936 64.3311L8.09326 63.75L6.93115 63.0859L0.456543 59.3506L0 59.0601V48.1445L0.373535 47.8955L1.36963 47.3145L2.44873 46.6919L3.32031 46.1938L4.31641 45.6128L5.18799 45.1147L5.89355 44.6997L7.05566 44.0356L8.13477 43.4131L9.13086 42.832L9.71191 42.5L10.708 41.9189L11.6626 41.3794L12.6587 40.7983L13.7378 40.1758L14.6094 39.6777L15.6055 39.0967L17.7637 37.8516L18.0542 37.6855L18.0957 37.6025L17.8882 37.5195L17.3486 37.1045L16.7261 36.5234L16.228 35.9009L15.8545 35.2368L15.647 34.6973L15.5225 34.2407L15.481 33.9502L15.4395 31.958V17.3071L15.647 16.4355L15.9375 15.73L16.311 15.1074L16.6846 14.6094L17.1826 14.0283L17.6807 13.5303L18.1372 13.1567L18.6768 12.7417L19.3823 12.2852L20.0049 11.9116L20.8765 11.4551L21.9141 10.9985L23.0762 10.5835L24.2383 10.2515L25.4834 9.96094L26.438 9.79492L27.3096 9.67041L28.4717 9.5874L29.4263 9.5459Z" fill="#FDC8A0"/>
<path d="M18.8428 37.229L19.0088 37.312L19.9219 37.8101L21.499 38.7231L21.5405 38.8892L20.7935 39.3042L20.0879 39.7192L19.0088 40.3418L18.0127 40.9229L12.1191 44.3262L11.123 44.9072L9.96094 45.5713L8.96484 46.1523L7.84424 46.7749L7.01416 47.2729L5.52002 48.1445V48.2275L6.47461 48.7256L7.01416 49.0576L8.17627 49.7217L9.25537 50.3442L10.4175 51.0083L11.4136 51.5894L13.5718 52.8345L14.7339 53.4985L15.73 54.0796L16.8091 54.7021L17.9712 55.3662L20.1294 56.6113L20.7935 56.9849L21.499 57.3999L22.5781 58.0225L23.5742 58.6035L24.6118 59.1846L25.4419 59.6826L26.4795 60.2637L27.4756 60.8447L28.1812 61.2598L28.2227 61.3013H28.4717L29.4678 60.7202L30.4224 60.1807L31.0864 59.8071L31.709 59.4336L32.7881 58.811L33.7842 58.23L34.8633 57.6074L36.0254 56.9434L37.0215 56.3623L40.2588 54.4946L41.2549 53.9136L42.417 53.2495L44.2847 52.1704L44.5752 52.0459L45.2393 52.4194L46.3184 53.042L47.0654 53.4985L47.2729 53.6646V64.5386L46.2769 65.1196L43.9526 66.4478L42.9565 67.0288L41.7944 67.6929L39.6362 68.938L38.7646 69.436L37.6855 70.0586L36.6895 70.6396L35.5273 71.3037L34.5312 71.8848L33.3691 72.5488L32.29 73.1714L31.1279 73.8354L30.1318 74.4165L28.9697 75.0806L28.5547 75.3296L28.3057 75.4126L26.1475 74.1675L25.2759 73.6694L24.2798 73.0884L22.1216 71.8433L20.9595 71.1792L19.9634 70.5981L18.8013 69.9341L17.7222 69.3115L16.7261 68.7305L15.564 68.0664L14.5679 67.4854L13.4058 66.8213L12.4097 66.2402L11.2476 65.5762L9.08936 64.3311L8.09326 63.75L6.93115 63.0859L0.456543 59.3506L0 59.0601V48.1445L0.373535 47.8955L1.36963 47.3145L2.44873 46.6919L3.32031 46.1938L4.31641 45.6128L5.18799 45.1147L5.89355 44.6997L7.05566 44.0356L8.13477 43.4131L9.13086 42.832L9.71191 42.5L10.708 41.9189L11.6626 41.3794L12.6587 40.7983L13.7378 40.1758L14.6094 39.6777L15.6055 39.0967L17.7637 37.8516L18.3862 37.478L18.8428 37.229Z" fill="#00A466"/>
<path d="M29.4263 9.5459H30.1733L31.6675 9.62891L32.7466 9.75342L33.7012 9.91943L34.8633 10.21L35.9839 10.5835L36.814 10.957L37.6855 11.4136L38.3496 11.8701L38.8892 12.3267L39.1797 12.5757L39.5532 13.0322L39.9268 13.5303L40.2588 14.1943L40.4663 14.8169L40.5493 15.4395V24.5703L40.5078 24.7363L39.7192 25.2344L38.6816 25.8154L38.1006 26.1475L37.146 26.687L36.1499 27.2681L35.2783 27.7661L34.1992 28.3887L33.4937 28.8037L32.4146 29.4263L30.4224 30.5884L28.0981 31.9165L27.2681 32.4146L26.272 32.9956L25.3174 33.5352L24.6118 33.9502L23.8647 34.3652L22.8687 34.9463L21.9971 35.4443L21.084 35.9839L20.0879 36.5649L19.1333 37.1045L18.7183 37.3535L18.2202 37.6025L18.0957 37.644L17.6392 37.3535L17.1826 36.9385L16.8506 36.6479L16.4771 36.2329L16.1035 35.6934L15.7715 35.0708L15.564 34.4482L15.481 33.9502L15.4395 31.958V17.3071L15.647 16.4355L15.9375 15.73L16.311 15.1074L16.6846 14.6094L17.1826 14.0283L17.6807 13.5303L18.1372 13.1567L18.6768 12.7417L19.3823 12.2852L20.0049 11.9116L20.8765 11.4551L21.9141 10.9985L23.0762 10.5835L24.2383 10.2515L25.4834 9.96094L26.438 9.79492L27.3096 9.67041L28.4717 9.5874L29.4263 9.5459Z" fill="#CA8205"/>
<path d="M35.6519 27.5171L35.8179 27.5586L35.6104 27.7661L35.5688 27.9321L35.9839 28.2227L37.0215 28.8037L37.9761 29.3433L38.5571 29.6753L39.7607 30.3809L41.7944 31.543L42.417 31.9165L43.2886 32.4146L43.9111 32.7881L44.3677 33.0371L46.5259 34.2822L47.0654 34.6143L47.522 34.8633L48.6841 35.5273L49.6802 36.1084L50.3442 36.4819L51.0498 36.897L52.1289 37.5195L53.0005 38.0176L54.7021 39.0137L56.7358 40.1758L57.3584 40.5493L58.0225 40.9229L59.0186 41.5039L61.0522 42.666L62.1313 43.2886L63.1274 43.8696L63.501 44.0771L63.4595 44.2432L62.5879 44.7412L61.5918 45.3223L60.7202 45.8203L59.1431 46.7334L56.9849 47.9785L55.7812 48.6841L54.6191 49.3481L53.623 49.9292L52.5854 50.5103L51.5894 51.0913L50.5103 51.7139L49.6802 52.1704L49.5557 52.1289L49.4312 52.0044L48.4766 51.4648L47.937 51.1328L46.8579 50.5103L45.6543 49.8047L44.4922 49.1406L42.5 47.9785L41.5454 47.439L40.8398 47.0239L39.6777 46.3599L38.5986 45.7373L37.8931 45.3223L36.731 44.6582L35.7349 44.0771L34.5728 43.4131L33.5767 42.832L32.4146 42.168L31.4185 41.5869L30.4639 41.0474L29.3848 40.4248L28.3887 39.8438L27.3511 39.2627L26.355 38.6816L24.1968 37.4365L22.8687 36.6479L21.665 35.9839L21.25 35.9424L21.2915 35.8179L22.1631 35.3198L23.2422 34.6973L23.9478 34.2822L24.6948 33.8672L25.4004 33.4521L26.355 32.9126L27.3511 32.3315L28.4717 31.6675L29.3433 31.1694L30.4224 30.5469L31.2524 30.0488L31.709 29.7998L33.8672 28.5547L34.7803 28.0151L35.6519 27.5171Z" fill="#FDE3C7"/>
<path d="M56.5698 15.4395L56.8188 15.481L57.8564 16.062L58.8525 16.6431L61.0107 17.8882L62.0068 18.4692L63.0859 19.0918L64.248 19.7559L65.2441 20.3369L66.4062 21.001L67.4023 21.582L68.5645 22.2461L69.5605 22.8271L77.1143 27.1851L78.1104 27.7661L79.1895 28.3887L80.3516 29.0527L81.3477 29.6338L84.585 31.5015L85 31.7505V42.7905L84.4604 43.1226L83.2983 43.7866L81.1401 45.0317L79.978 45.6958L78.9819 46.2769L77.8198 46.9409L76.8237 47.522L74.79 48.6841L73.7109 49.3066L72.7148 49.8877L71.5527 50.5518L70.5566 51.1328L69.3945 51.7969L68.3154 52.4194L67.1533 53.0835L66.2402 53.623L66.0327 53.7061L66.0742 53.0835V42.7905L65.9082 42.6245L64.9121 42.0435L63.999 41.5039L63.584 41.2549L63.4595 41.1304V41.0474L64.1235 40.7153L65.9082 39.6777L66.8628 39.1382L67.8589 38.5571L68.7305 38.0591L69.436 37.644L70.3076 37.146L71.3867 36.5234L72.3828 35.9424L74.541 34.6973L77.4463 33.0371L78.0688 32.6636L79.0649 32.0825L79.48 31.8335L79.4385 31.709L78.7744 31.377L77.8613 30.8374L76.8652 30.2563L76.2842 29.9243L75.2466 29.3433L74.541 28.9282L73.4619 28.3057L72.4658 27.7246L70.1416 26.3965L69.0625 25.7739L68.3569 25.3589L67.2778 24.7363L66.1157 24.0723L65.0366 23.4497L64.0405 22.8687L62.9614 22.2461L61.7993 21.582L60.7202 20.9595L60.1807 20.6274L59.5581 20.2539L58.562 19.7144L57.5659 19.1333L56.6943 18.6353L56.4038 18.7598L55.3662 19.3408L54.4946 19.8389L53.8306 20.2124L53.0835 20.6689L50.9253 21.9141L49.9292 22.4951L49.0576 22.9932L42.8735 26.5625L41.8774 27.1436L40.7153 27.8076L40.5908 27.9321L40.3418 27.8491L39.3457 27.2681L38.1836 26.604L37.7686 26.355L37.8931 26.2305L38.5156 25.8569L38.9722 25.6079L40.0098 25.0269L40.5078 24.6948L40.9229 24.4873L41.9189 23.9062L42.998 23.2837L43.9941 22.7026L45.1562 22.0386L46.1523 21.4575L47.1069 20.918L47.8125 20.5029L49.5972 19.4653L50.5518 18.9258L51.5479 18.3447L52.627 17.7222L53.4985 17.2241L54.2041 16.8091L55.3662 16.145L56.3623 15.564L56.5698 15.4395Z" fill="#00A466"/>
<path d="M0.0415039 48.269L0.373535 48.3936L1.45264 49.0161L2.24121 49.4727L3.36182 50.1367L4.10889 50.5518L5.52002 51.3818L6.68213 52.0459L7.76123 52.6685L8.75732 53.2495L10.9155 54.4946L12.4927 55.4077L13.4888 55.9888L14.5264 56.5698L16.228 57.5659L18.3862 58.811L19.1748 59.2676L20.1709 59.8486L21.333 60.5127L23.1177 61.5503L23.9893 62.0483L25.0684 62.6709L25.9399 63.1689L27.019 63.7915L27.4756 64.082L27.9321 64.3311L28.3057 64.5801L28.3472 64.7046V65.5347L28.3057 66.8213V68.855L28.3472 70.2246L28.3057 73.0884L28.3472 73.5864V75.2466L28.1812 75.3296L27.4341 74.9146L26.438 74.3335L22.1216 71.8433L20.9595 71.1792L19.9634 70.5981L18.8013 69.9341L17.7222 69.3115L16.7261 68.7305L15.564 68.0664L14.5679 67.4854L13.4058 66.8213L12.4097 66.2402L11.2476 65.5762L9.08936 64.3311L8.09326 63.75L6.93115 63.0859L0.456543 59.3506L0 59.0601V48.3105L0.0415039 48.269Z" fill="#01907D"/>
<path d="M54.1626 23.0762L54.4531 23.1177L55.1172 23.4497L55.8643 23.6987L56.6113 23.8647L56.9849 23.9062H58.147L58.9771 23.7817L59.7656 23.5327H60.0146L60.8447 24.0308L61.4258 24.3628L62.4219 24.9438L64.7461 26.272L65.6592 26.8115L66.7383 27.4341L67.9004 28.0981L68.606 28.5132L70.3491 29.5093L71.0132 29.8828V30.0073L70.6396 30.2979L70.3906 30.6299L70.2661 31.0034V31.5015L70.3906 31.875L70.6396 32.29L71.0132 32.6636L71.4697 32.9541L71.7603 33.1201L71.7188 33.3276L71.1377 33.6182L70.1416 34.1992L69.5605 34.5312L68.4399 35.1953L67.4023 35.7764L66.4062 36.3574L65.2441 37.0215L63.252 38.1836L62.5049 38.5986L61.5088 39.1797L60.8447 39.5947L60.5957 39.5532L59.8901 39.1382L58.811 38.5156L57.6489 37.8516L56.5698 37.229L55.5737 36.6479L54.4946 36.0254L53.3325 35.3613L52.2534 34.7388L51.5479 34.3237L50.4688 33.7012L49.3066 33.0371L47.605 32.041L46.4429 31.377L44.6582 30.3394L43.6621 29.7583L43.2471 29.5093V29.3848L44.2432 28.8452L44.8657 28.4717L45.9448 27.8491L46.9409 27.2681L47.8955 26.7285L48.5181 26.355L49.6802 25.6909L50.7593 25.0684L51.4648 24.6533L52.4609 24.0723L53.4155 23.5327L54.1626 23.0762Z" fill="#00A466"/>
<path d="M24.2798 40.3833L24.4873 40.4663L25.6079 41.0889L26.0229 41.3379L27.1021 41.9604L28.0981 42.5415L29.2603 43.2056L30.0488 43.6621L30.9204 44.1602L31.9165 44.7412L32.7881 45.2393L33.8672 45.8618L34.4067 46.1938L34.8633 46.4429L35.9424 47.0654L37.1045 47.7295L38.1836 48.3521L40.0513 49.4312L41.0474 50.0122L41.7114 50.3857L41.8359 50.5103L41.7944 50.6348L41.2964 50.8423L40.1343 51.5063L38.3496 52.5439L37.1875 53.208L36.1914 53.7891L35.0293 54.4531L33.9087 55.1172L32.8711 55.6982L31.875 56.2793L31.0864 56.7358L30.8789 56.8604L30.6714 56.8188L29.9658 56.4868L29.0942 56.1963L28.1812 56.0303L27.6416 55.9888H27.2266L26.438 56.0718L25.6079 56.2793L25.1514 56.4453L24.6118 56.1133L23.6572 55.5737L22.5781 54.9512L21.416 54.2871L20.4199 53.7061L19.5483 53.208L18.5522 52.627L16.228 51.2988L15.813 51.0498L14.7339 50.4272L14.1113 50.0952L14.1528 49.8877L14.4849 49.5972L14.7754 49.2236L14.8999 48.8916V48.4351L14.7339 47.9785L14.4434 47.5635L14.0698 47.1899L13.5303 46.8579L13.4058 46.7749V46.6504L14.1943 46.2354L14.6094 45.9863L15.5225 45.4468L16.6016 44.8242L17.4731 44.3262L18.2617 43.8696L18.9673 43.4546L19.8389 42.9565L20.835 42.3755L21.416 42.0435L22.9932 41.1304L24.0723 40.5078L24.2798 40.3833Z" fill="#00A466"/>
<path d="M18.8428 37.229L19.0088 37.312L19.9219 37.8101L21.499 38.7231L21.5405 38.8892L20.7935 39.3042L20.0879 39.7192L19.0088 40.3418L18.0127 40.9229L12.1191 44.3262L11.123 44.9072L9.96094 45.5713L8.96484 46.1523L7.84424 46.7749L7.01416 47.2729L5.52002 48.1445V48.2275L6.47461 48.7256L7.01416 49.0576L8.17627 49.7217L9.25537 50.3442L10.4175 51.0083L11.4136 51.5894L13.5718 52.8345L14.7339 53.4985L15.73 54.0796L16.8091 54.7021L17.9712 55.3662L20.1294 56.6113L20.7935 56.9849L21.499 57.3999L22.5781 58.0225L23.5742 58.6035L24.6118 59.1846L25.4419 59.6826L26.4795 60.2637L27.4756 60.8447L28.1812 61.2598L28.2227 61.3013H28.4717L29.4678 60.7202L30.4224 60.1807L31.0864 59.8071L31.709 59.4336L32.7881 58.811L33.7842 58.23L34.8633 57.6074L36.0254 56.9434L37.0215 56.3623L40.2588 54.4946L41.2549 53.9136L42.417 53.2495L44.2847 52.1704L44.5752 52.0459L45.2393 52.4194L46.3184 53.042L47.0654 53.4985L46.9409 53.6646L46.7334 53.9136L46.1523 54.2041L45.5713 54.5776L45.1562 54.7852L44.6582 55.0757L44.0771 55.4077L43.8281 55.5322L43.4131 55.7812L42.5415 56.2793L42.2925 56.4453L41.8359 56.6943L41.5869 56.8188H41.5039V56.9019L40.8813 57.2339L39.9683 57.7734L39.3872 58.1055L39.1797 58.23L38.8062 58.4375L38.2251 58.7695H38.1006V58.8525L37.3535 59.2676L37.1875 59.3091V59.3921L36.6479 59.6826L36.2329 59.9316L35.4858 60.3467L34.8218 60.7617L34.3652 61.0107L33.9917 61.2183L33.6597 61.4258L33.2031 61.6748L32.7051 61.9653L32.3315 62.1729L31.9165 62.4219H31.792V62.5049L31.377 62.7539L31.0449 62.9199L30.5054 63.252L30.2148 63.418L30.0073 63.5425H29.8828V63.6255H29.7168V63.7085L29.2603 63.9575H29.1772V64.0405L28.7622 64.248L28.3887 64.4556L28.1812 64.4141L27.6831 64.165L27.4341 64.082L26.355 63.4595L25.3589 62.8784L24.3213 62.2974L23.6157 61.8823L23.0347 61.5503L22.4951 61.2183L22.0386 60.9692L21.0425 60.3882L20.0049 59.8071L19.3408 59.3921L18.8843 59.1431L17.8882 58.562L16.8506 57.981L15.1489 56.9849L14.0698 56.3623L12.9077 55.6982L12.2021 55.2832L11.6211 54.9512L10.9155 54.5361L9.75342 53.8721L8.67432 53.2495L7.67822 52.6685L5.52002 51.4233L4.02588 50.5518L3.07129 50.0122L2.40723 49.5972L1.95068 49.3481L0.95459 48.7671L0.373535 48.4351L0 48.3105L0.0415039 48.103L0.581055 47.771L5.39551 44.9902L6.3916 44.4092L7.34619 43.8696L8.34229 43.2886L9.42139 42.666L10.293 42.168L11.0815 41.7114L14.0283 40.0098L15.0244 39.4287L16.1865 38.7646L17.2656 38.1421L18.1787 37.6025L18.5938 37.3535L18.8428 37.229Z" fill="#00BB6F"/>
<path d="M28.7207 10.874H30.2563L31.6675 10.9985L32.041 11.0815L32.8296 11.2061L33.9087 11.4966L34.8218 11.8286L35.5273 12.1606L36.1499 12.5342L36.731 12.9492L36.8555 13.0322V13.1152L37.0215 13.1982L37.2705 13.4473V13.5303H37.3535L37.6855 13.9868L38.0176 14.5679L38.2251 15.1489L38.3081 15.6055V16.394L38.1836 16.9751L37.9346 17.6392L37.561 18.3032L37.0215 18.9673L36.6479 19.3823L36.1914 19.7559L35.6519 20.1709L35.0293 20.5859L34.0332 21.1255L33.2031 21.499L31.9995 21.9556L30.6714 22.3291L29.6338 22.5366L28.8037 22.6611L27.5171 22.7856H25.4419L24.5703 22.7026L23.5327 22.5366L22.9102 22.4121L22.0386 22.1631L21.001 21.7896L20.2124 21.3745L19.6729 21.0425L19.0088 20.5029L18.6353 20.1294L18.2202 19.5483L17.8882 18.8843L17.7222 18.3447L17.6807 18.1372V17.2241L17.8882 16.4355L18.1787 15.813L18.4692 15.3149L18.8428 14.8169L19.1333 14.4849H19.2163L19.2993 14.3188H19.3823L19.4238 14.1943L19.6729 13.9868H19.7559L19.7974 13.8623L20.3784 13.4473L20.7935 13.1567L21.25 12.9077L21.8726 12.5757L22.4121 12.3267L23.0762 12.0361L24.5703 11.5381L26.1475 11.1646L27.1851 10.9985L28.7207 10.874Z" fill="#FED60A"/>
<path d="M56.5698 15.4395L56.8188 15.481L57.8564 16.062L58.8525 16.6431L61.0107 17.8882L62.0068 18.4692L63.0859 19.0918L64.248 19.7559L65.2441 20.3369L66.4062 21.001L67.4023 21.582L68.5645 22.2461L69.5605 22.8271L77.1143 27.1851L78.1104 27.7661L79.1895 28.3887L80.3516 29.0527L81.3477 29.6338L84.585 31.5015L84.668 31.5845L84.5435 31.8335V32.041L84.2114 32.2485L83.2568 32.7881L82.5098 33.2031L82.0947 33.4521L81.6382 33.7012L81.0571 34.0332L80.6421 34.2822L80.144 34.5728H80.0195V34.6558L79.231 35.0708L79.0234 35.1953L78.8159 35.3613L78.3179 35.6104L77.9028 35.8594L77.5293 36.0669L77.1143 36.3159L76.8237 36.4819L75.8691 37.0215L75.3296 37.3535L74.873 37.6025L74.624 37.7271H74.541V37.8101L74.0015 38.1006L73.5864 38.3496L73.2129 38.5571L73.0054 38.6816L72.4243 39.0137L72.2168 39.1382L71.5527 39.5117L71.3867 39.5532V39.6362L70.7227 40.0098L70.2661 40.2588L69.5605 40.6738L69.353 40.7983L68.772 41.1304L68.2324 41.4624L67.8589 41.6699H67.7344V41.7529L67.4023 41.9189L66.5723 42.417L66.3647 42.583L66.0327 42.7075L65.4102 42.334L63.7085 41.3379L63.4595 41.1304V41.0474L64.1235 40.7153L65.9082 39.6777L66.8628 39.1382L67.8589 38.5571L68.7305 38.0591L69.436 37.644L70.3076 37.146L71.3867 36.5234L72.3828 35.9424L74.541 34.6973L77.4463 33.0371L78.0688 32.6636L79.0649 32.0825L79.48 31.8335L79.4385 31.709L78.7744 31.377L77.8613 30.8374L76.8652 30.2563L76.2842 29.9243L75.2466 29.3433L74.541 28.9282L73.4619 28.3057L72.4658 27.7246L70.1416 26.3965L69.0625 25.7739L68.3569 25.3589L67.2778 24.7363L66.1157 24.0723L65.0366 23.4497L64.0405 22.8687L62.9614 22.2461L61.7993 21.582L60.7202 20.9595L60.1807 20.6274L59.5581 20.2539L58.562 19.7144L57.5659 19.1333L56.6943 18.6353L56.4038 18.7598L55.3662 19.3408L54.4946 19.8389L53.8306 20.2124L53.0835 20.6689L50.9253 21.9141L49.9292 22.4951L49.0576 22.9932L42.8735 26.5625L41.8774 27.1436L40.7153 27.8076L40.5908 27.9321L40.3418 27.8491L39.3457 27.2681L38.1836 26.604L37.7686 26.355L37.8931 26.2305L38.5156 25.8569L38.9722 25.6079L40.0098 25.0269L40.5078 24.6948L40.9229 24.4873L41.9189 23.9062L42.998 23.2837L43.9941 22.7026L45.1562 22.0386L46.1523 21.4575L47.1069 20.918L47.8125 20.5029L49.5972 19.4653L50.5518 18.9258L51.5479 18.3447L52.627 17.7222L53.4985 17.2241L54.2041 16.8091L55.3662 16.145L56.3623 15.564L56.5698 15.4395Z" fill="#00BB6F"/>
<path d="M21.5405 38.8477L21.8311 38.8892L22.1631 39.1382L22.4536 39.3042L22.9932 39.6362L23.9893 40.1758L24.2383 40.3833L24.0723 40.5493L22.0386 41.7114L21.333 42.1265L20.3369 42.7075L19.3823 43.2471L18.3862 43.8281L16.6016 44.8657L15.4395 45.5298L14.7339 45.9448L13.9453 46.4014L13.4888 46.6504H13.4058L13.4473 46.7749L13.9453 47.0654L14.3604 47.439L14.6509 47.771L14.8999 48.269L14.9414 48.4351V48.8916L14.7754 49.3066L14.3188 49.8047L14.1528 49.9292L14.1113 50.0952L14.3604 50.1782L15.3979 50.7593L15.9375 51.0913L16.394 51.3403L17.3901 51.9214L18.3447 52.4609L19.4238 53.0835L20.2539 53.5815L20.7104 53.8306L21.7896 54.4531L23.8232 55.6152L24.8193 56.1963L25.1929 56.4038L25.8984 56.1548L26.687 55.9888L27.2266 55.9473H27.6416L28.4302 56.0303L29.2603 56.1963L30.1733 56.5283L30.7544 56.8188L30.9619 56.7773L31.5845 56.4038L32.6636 55.7812L33.8257 55.1172L34.9048 54.4946L35.9009 53.9136L36.98 53.291L38.1421 52.627L39.2212 52.0044L39.9268 51.5894L41.0059 50.9668L41.6699 50.6348L41.8774 50.5518L42.0435 50.5933L42.7075 51.0083L43.5791 51.5063L44.3262 51.9214L44.4922 52.0044L44.4507 52.1289L43.9111 52.4194L42.915 53.0005L41.7529 53.6646L40.7568 54.2456L39.8853 54.7437L39.0967 55.2002L36.9385 56.4453L35.9424 57.0264L34.8633 57.6489L33.7012 58.313L31.0034 59.8901L29.0942 60.9692L28.4717 61.3428H28.2227L27.6831 61.0107L26.604 60.3882L26.0229 60.0562L25.0684 59.5166L24.5288 59.1846L23.4912 58.6035L22.7026 58.147L20.918 57.1094L20.0464 56.6113L19.0503 56.0303L18.0957 55.4907L17.0996 54.9097L15.9375 54.2456L14.9414 53.6646L12.6172 52.3364L10.625 51.1743L8.30078 49.8462L6.80664 48.9746L5.93506 48.4766L5.47852 48.2275L5.56152 48.0615L6.10107 47.771L7.09717 47.1899L8.01025 46.6504L9.04785 46.0693L9.75342 45.6543L10.9155 44.9902L11.9116 44.4092L18.3862 40.6738L20.3784 39.5117L21.25 39.0137L21.5405 38.8477Z" fill="#FDE3C7"/>
<path d="M56.6528 18.5938L57.0679 18.8013L58.064 19.3823L59.1846 20.0049L59.8486 20.3784L61.0938 21.1255L62.1729 21.748L63.335 22.4121L64.4141 23.0347L65.4102 23.6157L66.4893 24.2383L67.6514 24.9023L68.7305 25.5249L69.7266 26.106L70.8057 26.7285L71.9678 27.3926L73.0469 28.0151L74.043 28.5962L74.9146 29.0942L75.9937 29.7168L76.4917 30.0073L76.9482 30.2563L77.9443 30.8374L79.1479 31.543L79.48 31.709V31.875L78.7744 32.29L77.6953 32.9126L77.1558 33.2446L76.1182 33.8257L75.1221 34.4067L74.1675 34.9463L73.1714 35.5273L72.0093 36.1914L71.3037 36.6064L70.2246 37.229L69.0625 37.8931L68.1494 38.4326L67.2778 38.9307L66.2817 39.5117L65.3271 40.0513L64.3311 40.6323L63.667 41.0059L63.2935 41.0889L62.2144 40.4663L61.5503 40.0513L61.0522 39.8022L60.8032 39.6362L61.0107 39.4287L62.1729 38.7646L62.9614 38.3081L65.1196 37.063L66.1157 36.4819L67.1948 35.8594L68.3569 35.1953L69.353 34.6143L70.4321 33.9917L71.4282 33.4106L71.7188 33.2861L71.7603 33.1201L71.5527 33.0371L71.1377 32.7881L70.7227 32.4146L70.4321 32.041L70.2661 31.709L70.2246 31.5015V31.0034L70.3906 30.5469L70.7642 30.1318L71.0132 29.9658L70.8887 29.8413L70.1001 29.4263L69.104 28.8452L68.2324 28.3472L67.5269 27.9321L66.3647 27.2681L65.2856 26.6455L64.3726 26.106L63.2104 25.4419L62.1313 24.8193L61.3428 24.3628L60.3467 23.7817L60.0146 23.5742L59.6411 23.6157L58.7695 23.8647L58.147 23.9478H56.9849L56.1963 23.8232L55.3247 23.5742L54.6606 23.2837L54.3701 23.1177L54.0796 23.1592L53.54 23.4912L52.4609 24.1138L51.5894 24.6118L50.6763 25.1514L48.5181 26.3965L47.522 26.9775L46.6504 27.4756L45.6543 28.0566L44.5752 28.6792L43.7036 29.1772L43.3301 29.3848H42.998L41.7529 28.6377L40.9644 28.1812L40.5908 27.9736L40.6738 27.8076L41.3794 27.3926L42.4585 26.77L43.4546 26.189L44.6167 25.5249L45.6128 24.9438L47.771 23.6987L48.9331 23.0347L49.9292 22.4536L53.1665 20.5859L54.3286 19.8804L55.0342 19.5068L56.5283 18.6353L56.6528 18.5938Z" fill="#FDE3C7"/>
<path d="M0 54.7852L0.20752 54.8682L0.95459 55.2832L1.45264 55.5737L1.90918 55.8228L2.32422 56.0718L2.78076 56.3208L3.77686 56.9019L4.15039 57.1094L5.02197 57.6074L5.39551 57.8564L5.89355 58.1055L6.72363 58.6035L7.09717 58.811L7.67822 59.1431L8.13477 59.3921L8.75732 59.7656L9.83643 60.3882L10.625 60.8447L11.123 61.1353L11.7871 61.5088L12.1191 61.7163L12.5757 61.9653L13.1567 62.2974L13.5718 62.5464L14.0283 62.7954L15.0244 63.3765L15.4395 63.6255L16.2695 64.082L16.4355 64.2065L16.8921 64.4556L17.3071 64.7046L18.2202 65.2026L18.7598 65.5347L19.2163 65.7837L20.2124 66.3647L20.7935 66.6968L21.0425 66.8628L21.5405 67.1118L21.9141 67.3608L22.3706 67.6099L22.9517 67.9419L23.3667 68.1909L23.8232 68.4399L24.8193 69.021L25.8569 69.6021L26.936 70.2246L27.3096 70.4736L27.7661 70.7227L28.0151 70.8887L28.3057 70.9302V73.0884L28.3472 73.5864V75.2466L28.1812 75.3296L27.4341 74.9146L26.438 74.3335L22.1216 71.8433L20.9595 71.1792L19.9634 70.5981L18.8013 69.9341L17.7222 69.3115L16.7261 68.7305L15.564 68.0664L14.5679 67.4854L13.4058 66.8213L12.4097 66.2402L11.2476 65.5762L9.08936 64.3311L8.09326 63.75L6.93115 63.0859L0.456543 59.3506L0 59.0601V54.7852Z" fill="#01907D"/>
<path d="M29.4263 9.5459H30.1733L31.6675 9.62891L32.7466 9.75342L33.7012 9.91943L34.8633 10.21L35.9839 10.5835L36.814 10.957L37.6855 11.4136L38.3496 11.8701L38.8892 12.3267L39.1797 12.5757L39.5532 13.0322L39.9268 13.5303L40.2588 14.1943L40.4663 14.8169L40.5493 15.4395V16.9336H40.5078L40.4663 16.7261H40.3833L40.3003 17.2656L40.2173 17.5146L40.0098 17.9297L39.5947 18.6353H39.5117L39.4287 18.8428L39.0967 19.2578L38.8062 19.5898L38.4741 19.8804L37.8516 20.4614L37.395 20.7935L36.8555 21.167L36.3159 21.499L35.8179 21.7896L35.2368 22.0801L34.6143 22.3706L33.5767 22.7856L32.4561 23.1592L31.2109 23.4912L29.7998 23.7817L28.9697 23.9062L27.5586 24.0308L26.8115 24.0723H25.6079L24.3628 23.9893L23.3667 23.8647L22.4121 23.6987L21.167 23.4082L20.1709 23.0762L19.4238 22.7856L18.6353 22.3706L18.0542 21.9971L17.9297 21.9556L17.7222 21.748L17.3071 21.4575L17.0996 21.2915L16.8506 21.001L16.6431 20.7935L16.228 20.2539L16.0205 19.9219L15.813 19.3408L15.6885 19.0088L15.6055 18.7183L15.5225 17.9712L15.481 17.0581L15.6885 16.311L15.979 15.6885L16.228 15.2319L16.6846 14.6094L17.1826 14.0283L17.6807 13.5303L18.1372 13.1567L18.6768 12.7417L19.3823 12.2852L20.0049 11.9116L20.8765 11.4551L21.9141 10.9985L23.0762 10.5835L24.2383 10.2515L25.4834 9.96094L26.438 9.79492L27.3096 9.67041L28.4717 9.5874L29.4263 9.5459ZM28.7207 10.874L27.1851 10.9985L25.9814 11.2061L24.5703 11.5381L23.3252 11.9531L22.5781 12.2437L22.0801 12.4927L21.7896 12.6172L21.167 12.9492L20.6274 13.2812L19.9219 13.7793L19.7559 13.9038V13.9868L19.5898 14.0698L19.3823 14.2358V14.3188L19.2163 14.4019V14.4849L19.0918 14.5264L18.8013 14.8584L18.4277 15.3564L18.1787 15.813L17.8882 16.4355L17.6807 17.2241V18.1372L17.8467 18.8013L18.1787 19.4653L18.4692 19.9219L18.9673 20.4614L19.3408 20.7935L19.7974 21.1255L20.5029 21.5405L21.2085 21.8726L22.4121 22.2876L23.0347 22.4536L23.9478 22.6196L24.8193 22.7441L25.4419 22.7856H27.5171L28.8037 22.6611L29.9243 22.4951L31.1279 22.2046L31.9995 21.9556L33.4106 21.416L34.4482 20.918L35.3613 20.3784L36.0254 19.8804L36.4404 19.5483L36.9385 19.0918L37.395 18.5107L37.644 18.1372L37.8516 17.8052L38.1006 17.2241L38.2666 16.6846L38.3081 16.394V15.6055L38.1836 14.9829L37.8516 14.2358L37.478 13.6963L37.3535 13.5303H37.2705L37.1875 13.3643L36.9385 13.1152H36.8555V13.0322L36.2744 12.6172L35.7349 12.2852L35.1123 11.9531L34.2822 11.6211L33.3276 11.3306L32.4146 11.123L31.9165 11.04L31.2524 10.957L30.0488 10.874H28.7207Z" fill="#DBA507"/>
<path d="M37.7271 26.3135L38.3496 26.6455L39.3457 27.2266L40.5078 27.8906L40.9644 28.1396L41.8359 28.6377L42.666 29.1357L42.998 29.3433L43.2471 29.3848L43.2886 29.5093L44.3262 30.0903L44.9487 30.4639L45.5298 30.7959L46.2354 31.2109L47.3975 31.875L48.4766 32.4976L49.1821 32.9126L52.4194 34.7803L53.4155 35.3613L54.5776 36.0254L55.6567 36.6479L56.6528 37.229L57.7319 37.8516L58.894 38.5156L59.9731 39.1382L60.5957 39.5117L61.0107 39.7192L61.4258 39.9683L61.8823 40.2173L62.7954 40.7568L63.2935 41.0474H63.4595L63.6255 41.2549L64.3726 41.6699L64.9951 42.0435L65.7007 42.4585L66.0327 42.666V42.915L65.9082 42.9565L65.7007 42.998L65.0366 43.3301L64.2896 43.7451L63.7085 44.1187H63.5425L63.501 44.2017L63.4595 44.0771L62.9614 43.8281L62.3389 43.4546L61.2598 42.832L58.9355 41.5039L57.9395 40.9229L57.0679 40.4248L56.3623 40.0098L55.2002 39.3457L54.1211 38.7231L53.4155 38.3081L52.3364 37.6855L51.4648 37.1875L50.7593 36.7725L50.0952 36.3989L49.1821 35.8594L48.02 35.1953L47.1899 34.6973L46.7334 34.4482L45.6543 33.8257L44.6582 33.2446L44.0356 32.8711L43.5791 32.6221L42.8735 32.207L42.417 31.958L40.5493 30.8789L39.3872 30.2148L38.7646 29.8413L38.1006 29.4678L37.229 28.9697L36.2744 28.4302L35.6519 28.0566L35.5273 27.9321L35.5688 27.7661L35.7349 27.5171L35.8594 27.3926L37.0215 26.7285L37.7271 26.3135Z" fill="#FDD4A2"/>
<path d="M21.2085 35.8594L21.2915 35.9009L21.665 35.9424L22.6611 36.4819L23.7817 37.146L24.8608 37.7686L25.8569 38.3496L27.019 39.0137L28.0151 39.5947L28.7622 40.0098L29.7583 40.5908L30.6299 41.0889L32.7881 42.334L33.9502 42.998L34.9463 43.5791L38.1836 45.4468L39.1797 46.0278L41.5039 47.356L42.2095 47.771L46.5259 50.2612L48.2275 51.2573L48.8501 51.6309L49.5557 52.0459L49.6387 52.2119L48.6426 52.793L47.4805 53.4985L47.2729 53.623L47.1069 53.5815L46.5259 53.208L44.7827 52.2119L44.5337 52.0874L44.3262 51.9629L43.8281 51.6724L43.3301 51.4233L42.5 50.9253L42.0435 50.6348L41.8359 50.5933L41.6699 50.3857L40.9644 50.0122L40.2588 49.5972L39.1797 48.9746L38.5986 48.6426L37.6025 48.0615L36.4404 47.3975L35.3613 46.7749L34.5312 46.2769L34.0747 46.0278L32.9956 45.4053L31.8335 44.7412L30.7544 44.1187L30.1733 43.7866L29.4678 43.3716L28.3887 42.749L27.2266 42.085L26.2305 41.5039L24.7778 40.6738L24.3628 40.4248L24.1968 40.3833L23.8232 40.1343L22.9102 39.6362L22.4536 39.3457L22.0801 39.1382L21.748 38.8892L21.5405 38.8477L21.3745 38.6816L20.2539 38.0591L19.3823 37.561L18.9673 37.312L18.9258 37.1875L19.9634 36.6064L20.9595 36.0254L21.2085 35.8594Z" fill="#FDD4A2"/>
<path d="M34.5728 31.2524L34.8218 31.3354L35.5273 31.7505L36.6479 32.373L37.3535 32.7881L38.4326 33.4106L39.2212 33.8672L40.0928 34.3652L41.1719 34.9878L41.9604 35.4443L42.9565 36.0254L43.4131 36.2744L44.3262 36.814L45.4883 37.478L46.2769 37.9346L47.2729 38.5156L47.7295 38.7646L48.1445 39.0137L49.2236 39.6362L50.3857 40.3003L51.7969 41.1304L52.2534 41.3794L52.959 41.7944L54.1211 42.4585L54.9097 42.915L55.9058 43.4961L56.7773 43.9941L57.5244 44.4092V44.5337L56.9434 44.8657L56.1133 45.3638L55.2002 45.9033L55.0342 45.8618L54.0796 45.3223L53.1665 44.7827L52.1704 44.2017L51.1328 43.6206L50.4272 43.2056L49.3481 42.583L46.4014 40.8813L45.4053 40.3003L43.2471 39.0552L42.251 38.4741L41.3794 37.9761L40.3833 37.395L39.4287 36.8555L37.7271 35.8594L36.5649 35.1953L35.4858 34.5728L34.6973 34.1162L33.7012 33.5352L32.4976 32.8296L32.207 32.6636L32.29 32.5391L32.8711 32.2485L33.2031 32.041L34.1577 31.5015L34.5728 31.2524Z" fill="#E6C193"/>
<path d="M40.5078 18.7598H40.5493V22.5781H40.5078L40.4663 21.499L40.3418 22.0386L40.2588 22.5366L40.0513 22.9932L39.8022 23.4497H39.7192L39.6777 23.6572L39.5947 23.7817H39.5117L39.4287 23.9893L39.1382 24.3628L38.9722 24.5703H38.8892L38.8062 24.7363L38.4741 25.1099H38.3911L38.3081 25.2759L37.644 25.8154L36.98 26.272L36.2744 26.687L35.8594 26.936L35.1953 27.2681L34.4067 27.6416L33.4521 28.0151L32.0825 28.4302L30.7544 28.7622L29.6338 28.9697L28.2642 29.1357L27.1851 29.2188H25.1099L23.8232 29.0942L22.5781 28.8867L21.7896 28.7207L21.25 28.5962L20.8765 28.4717L20.2124 28.2642L19.3823 27.9321L18.5938 27.5171L17.8882 27.1021V27.019L17.6807 26.936L17.3071 26.6455L16.9751 26.355V26.272H16.8921V26.189H16.8091L16.4355 25.6909L16.0205 25.0684L15.813 24.5288L15.73 24.1553L15.647 23.4082L15.6055 22.8687L15.647 22.6611L15.6055 22.2876V22.0386L15.647 22.1216L15.7715 22.0801L15.896 22.4121V22.4951H16.0205V22.5781H16.1035L16.394 23.0347L16.7261 23.4497L17.0166 23.7817L17.0581 23.9062L17.2241 23.9893V24.0723L17.3901 24.1553L17.7222 24.4458L18.0542 24.6948L19.1748 25.3174L19.8389 25.6079L20.6274 25.8984L21.8311 26.2305L22.9102 26.438L23.6572 26.5625L24.8608 26.687H27.6001L29.1772 26.521L30.1733 26.355L31.875 25.9399L32.7466 25.6909L33.7427 25.3589L34.6558 24.9854L35.3198 24.6948L36.2329 24.1968L37.0215 23.6987L37.7271 23.2007L38.1836 22.8271L38.5986 22.4536L38.8892 22.1216H38.9722L39.0552 21.9556L39.4702 21.416L39.7607 21.001L40.1343 20.2954L40.3003 19.9219L40.3833 19.6313L40.4663 19.5068L40.5078 18.7598Z" fill="#DBA507"/>
<path d="M0 52.5854L0.20752 52.6685L1.24512 53.2495L2.1582 53.7891L2.61475 54.0381L3.69385 54.6606L4.56543 55.1587L5.3125 55.6152L5.76904 55.8643L6.84814 56.4868L7.84424 57.0679L8.42529 57.3999L9.42139 57.981L9.87793 58.23L10.5005 58.6035L11.1646 58.9771L12.1606 59.5581L12.7832 59.9316L13.2397 60.1807L13.7793 60.5127L14.2358 60.7617L14.9829 61.1768L15.896 61.7163L16.4771 62.0483L16.9336 62.3389L17.3486 62.5464L17.8052 62.8369L18.2617 63.0859L19.5898 63.833L21.2915 64.8291L21.9556 65.2026L22.9517 65.7837L23.5742 66.1572L24.0308 66.4062L24.9854 66.9458L26.0645 67.5684L26.687 67.9419L27.3926 68.3569L27.8076 68.606V68.689L28.1812 68.8135L28.3057 68.938L28.3472 70.2246L28.3057 70.9302L28.1396 70.9717L27.8076 70.8057L27.4341 70.5566L26.9775 70.3076L26.272 69.8926L24.2383 68.7305L23.5327 68.3154L23.0762 68.0664L22.4536 67.6929L22.0801 67.4854L21.582 67.1948L21.167 66.9458L20.918 66.8213L19.4238 65.9497L19.0503 65.7422L18.3447 65.3271L17.6807 64.9536L16.9751 64.5386L16.6016 64.3311L16.1035 64.0405L15.6885 63.7915L15.4395 63.667L14.4434 63.0859L13.7378 62.6709L12.8662 62.1729L12.4512 61.9238L11.9946 61.6748L11.3721 61.3013L11.123 61.1768L10.625 60.8862L9.75342 60.3882L8.67432 59.7656L8.13477 59.4336L7.22168 58.9355L6.93115 58.7695L5.52002 57.9395L5.14648 57.7319L4.2749 57.2339L3.90137 56.9849L3.40332 56.7358L2.73926 56.3208L2.49023 56.1963L1.61865 55.6982L0.788574 55.2417L0 54.7852V52.5854Z" fill="#00796D"/>
<path d="M0 56.9434L0.581055 57.2339L1.24512 57.6074L1.95068 58.0225L2.61475 58.396L3.61084 58.9771L4.64844 59.5581L5.39551 60.0146L5.85205 60.2637L6.3916 60.5957L6.84814 60.8447L7.51221 61.2183L8.09326 61.5503L8.5498 61.8408L8.96484 62.0483L9.96094 62.6294L10.5005 62.9614L10.957 63.2104L12.4097 64.0405L13.0322 64.4141L13.4888 64.6631L14.0283 64.9951L14.4849 65.2441L15.9375 66.0742L16.4771 66.4062L16.9336 66.6553L17.3486 66.9043L17.8052 67.1533L18.3447 67.4854L18.8013 67.7344L19.4653 68.1079L20.2539 68.5645L20.7935 68.8965L21.25 69.1455L21.665 69.3945L22.1216 69.6436L22.6611 69.9756L23.1177 70.2246L24.2383 70.8472L25.1514 71.3867L25.8984 71.8018L26.604 72.2168L27.1436 72.5488L27.6001 72.7979L28.1396 73.1299L28.3057 73.2544L28.3472 73.5864V75.2466L28.1812 75.3296L27.4341 74.9146L26.438 74.3335L22.1216 71.8433L20.9595 71.1792L19.9634 70.5981L18.8013 69.9341L17.7222 69.3115L16.7261 68.7305L15.564 68.0664L14.5679 67.4854L13.4058 66.8213L12.4097 66.2402L11.2476 65.5762L9.08936 64.3311L8.09326 63.75L6.93115 63.0859L0.456543 59.3506L0 59.0601V56.9434Z" fill="#00796D"/>
<path d="M0.0415039 48.269L0.373535 48.3936L1.45264 49.0161L2.24121 49.4727L3.36182 50.1367L4.10889 50.5518L5.52002 51.3818L6.68213 52.0459L7.76123 52.6685L8.75732 53.2495L10.9155 54.4946L12.4927 55.4077L13.4888 55.9888L14.5264 56.5698L16.228 57.5659L18.3862 58.811L19.1748 59.2676L20.1709 59.8486L21.333 60.5127L23.1177 61.5503L23.9893 62.0483L25.0684 62.6709L25.9399 63.1689L27.019 63.7915L27.4756 64.082L27.9321 64.3311L28.3057 64.5801L28.3472 64.7046V65.5347L28.3057 66.5308L28.1396 66.6138L27.0605 66.0327L26.687 65.7837L26.0229 65.4102L24.6118 64.5801L24.1553 64.3311L23.7402 64.082L23.2837 63.833L22.2876 63.252L21.9141 63.0444L21.416 62.7539L21.2915 62.7124V62.6294L21.0425 62.5464L20.3369 62.1313L19.7974 61.7993L19.2993 61.5503L18.9258 61.3013L18.4692 61.0522L18.0957 60.8447L17.0996 60.2637L16.9751 60.2222V60.1392L16.7261 60.0562L15.73 59.4751L15.3979 59.2676L14.9414 59.0186L14.3604 58.6865L13.9453 58.4375L13.4888 58.1885L13.0737 57.9395L12.9492 57.8979V57.8149L12.6587 57.7319V57.6489L12.4097 57.5659L11.4966 57.0264L10.542 56.4868L9.33838 55.7812L8.59131 55.3662L8.34229 55.2417V55.1587L8.09326 55.0757L7.09717 54.4946L6.05957 53.9136L5.68604 53.6646L5.18799 53.4155V53.3325L4.89746 53.2495L4.52393 53.0005L4.2749 52.876L3.77686 52.5854L2.90527 52.0874L2.28271 51.7139L1.45264 51.2573L0.664062 50.8008L0 50.4272V48.3105L0.0415039 48.269Z" fill="#00796D"/>
<path d="M32.3315 35.6934L32.5391 35.7349L33.3276 36.1914L34.2822 36.731L35.2783 37.312L36.4404 37.9761L37.4365 38.5571L38.5986 39.2212L39.3042 39.6362L40.3833 40.2588L40.9644 40.5908L41.9604 41.1719L43.4131 42.002L44.4922 42.6245L45.4883 43.2056L47.6465 44.4507L48.186 44.7827L48.6426 45.0317L49.5972 45.5713L49.8877 45.7373L49.7217 45.9033L48.8916 46.4014L47.937 46.9409L47.5635 47.1484L47.3145 47.1069L46.7749 46.7749L46.3184 46.5259L45.4053 45.9863L43.0811 44.6582L42.3755 44.2432L40.2173 42.998L39.0552 42.334L38.0591 41.7529L35.9009 40.5078L34.7388 39.8438L33.6597 39.2212L32.4976 38.5571L31.5015 37.9761L30.4224 37.3535L30.0073 37.1045L30.1733 36.9385L30.8374 36.5649L31.543 36.1499L32.3315 35.6934Z" fill="#E6C193"/>
<path d="M66.0327 42.7075L66.1157 42.7905V53.0835L66.0742 53.6646L65.9082 53.8306L64.8291 54.4531L63.833 55.0342H63.6255L63.5425 54.7437V47.439L63.584 44.1602L64.165 43.7866L65.2441 43.1641L65.7837 42.915H65.9912L66.0327 42.7075Z" fill="#E3AF94"/>
<path d="M49.6387 52.1704H49.7217L49.7632 53.9136V58.064L49.8047 60.6787V63.0029L49.6387 63.1274H49.5142L49.4727 63.2935L48.3936 63.916L47.356 64.4971L47.2729 64.5386L47.2314 64.3726V53.623L47.605 53.374L48.5181 52.8345L49.1406 52.4609L49.6387 52.1704Z" fill="#E3AF94"/>
<path d="M15.73 27.5171L15.813 27.5586L15.896 27.7661L16.1035 27.8906L16.2695 28.1812L16.8091 28.8037L16.9751 28.9697V29.0527L17.1411 29.1357L17.6807 29.5923L18.5522 30.1318L19.2578 30.5054L20.5444 31.0034L21.25 31.2109L21.9141 31.377L22.9102 31.5845L23.9478 31.7505L24.9438 31.8335L26.0645 31.875H26.8945L27.4756 31.8335L27.7246 31.792L28.0566 31.9165L27.8491 32.0825L26.687 32.7466L25.9814 33.1616L25.1099 33.6597L24.1138 34.2407H23.9062V34.1577L23.3252 34.1162L22.2876 33.9087L21.9141 33.7842L21.4575 33.7012L20.5859 33.4521L19.7559 33.1616L19.3408 32.9541L19.0503 32.8296L18.1787 32.3315L17.7637 32.041L17.4731 31.8335V31.7505L17.2656 31.6675V31.5845L17.0996 31.5015L16.4771 30.8374L16.1035 30.2563L15.8545 29.6753L15.73 29.1772L15.647 27.8076L15.73 27.5171Z" fill="#DBA507"/>
<path d="M15.6055 32.5806L15.6885 32.7466H15.7715L15.979 33.0786L16.1035 33.1201V33.2446L16.228 33.2031L16.311 33.4106L16.4355 33.4521L16.7676 33.8672L17.0996 34.1992L17.3486 34.3652V34.4482L17.5146 34.5312L17.9297 34.8218L18.4692 35.1538L19.0503 35.4858L19.5068 35.6934L20.0049 35.9009L20.5859 36.0669L20.6689 36.2329L19.5068 36.897L18.7183 37.3535L18.2202 37.6025L18.0957 37.644L17.6392 37.3535L17.1826 36.9385L16.8506 36.6479L16.4771 36.2329L16.1035 35.6934L15.7715 35.0708L15.564 34.4482L15.481 33.9502L15.5225 32.8711L15.6055 32.5806Z" fill="#DBA507"/>
<path d="M57.0264 29.2188H57.4829L58.1885 29.3433L58.6035 29.4678L59.2676 29.7998L59.5581 30.0488L59.8071 30.4639V30.9204L59.5581 31.2939L59.2261 31.543L58.811 31.709L58.147 31.8335H57.7734L57.1094 31.7505L56.4868 31.543L55.9888 31.2939L55.5737 30.9204L55.3662 30.5884V30.1733L55.5322 29.8413L55.8643 29.5508L56.3623 29.3433L56.6528 29.2603L57.0264 29.2188Z" fill="#FDE3C6"/>
<path d="M25.4419 47.356H26.1475L26.9775 47.522L27.6416 47.8125L28.0151 48.103L28.2642 48.3936L28.3887 48.6841V48.9746L28.1812 49.3066L27.8906 49.5972L27.4341 49.8047L26.8945 49.9292H26.0229L25.2759 49.7632L24.6118 49.4727L24.1968 49.1406V49.0576H24.1138L23.9062 48.6426V48.3105L24.1138 47.8955L24.5288 47.605L25.1514 47.3975L25.4419 47.356Z" fill="#FDE3C6"/>
<path d="M63.2935 54.9512H63.501V55.0757H63.6255V55.1587L62.6709 55.6982L61.6748 56.2793L60.7202 56.8188L59.7241 57.3999L58.562 58.064L56.7773 59.1016L54.4531 60.4297L53.457 61.0107L52.3779 61.6333L51.2158 62.2974L50.1367 62.9199L49.9292 63.0029L49.9707 62.7954L50.1367 62.6294L50.3857 62.5049L50.6763 62.3389L51.0913 62.0483H51.2158V61.9653H51.2988V61.8823L51.7969 61.6333L52.2119 61.3428L53.374 60.6787L53.4985 60.5542L53.9551 60.3052L54.3701 60.0146L54.8682 59.7656L55.6982 59.2676L56.1548 59.0186L56.7773 58.645L57.4414 58.313L57.8149 58.064L58.479 57.7319L58.894 57.4829L59.1431 57.3169L59.4751 57.1509L59.9731 56.8188L60.4712 56.5698L61.1353 56.1548L61.6333 55.9058L62.2974 55.4907L62.7954 55.2417L63.2935 54.9512Z" fill="#FED7A8"/>
<path d="M25.1099 15.9375L25.3589 15.979L26.1475 16.4355L26.604 16.6846L27.6001 17.2656L28.0566 17.5562L28.3057 17.6807L29.0942 18.1372L29.5093 18.3862V18.4692H28.9697L28.3057 18.3447L27.6416 18.1787L26.936 17.9297L26.2305 17.6392L25.6494 17.2656L25.4419 17.0996L25.2344 16.8506L25.0684 16.5186L25.0269 16.3525V15.979L25.1099 15.9375Z" fill="#FED60A"/>
<path d="M2.40723 49.5557L2.61475 49.6387L3.73535 50.2612L4.81445 50.8838L5.60303 51.3403L6.05957 51.5894L6.72363 52.0044L7.18018 52.2534L7.59521 52.5024L8.05176 52.7515L8.75732 53.1665L9.13086 53.374L9.83643 53.7891L10.9985 54.4531L12.9907 55.6152L14.1528 56.2793L15.1489 56.8604L16.1035 57.3999L16.8091 57.8149L17.3486 58.147L17.8052 58.396L18.2202 58.645L18.6768 58.894L20.4614 59.9316L21.4575 60.5127L21.8311 60.7202L22.6196 61.1768L23.3667 61.6333L23.8232 61.8823L24.8193 62.4634L25.2759 62.7124L25.9814 63.1274L27.1436 63.7915L27.6001 64.082L27.4756 64.1235L26.936 63.7915L25.8569 63.1689L24.6948 62.5049L23.6157 61.8823L23.0347 61.5503L22.4951 61.2183L22.0386 60.9692L21.0425 60.3882L20.0049 59.8071L19.3408 59.3921L18.8843 59.1431L17.8882 58.562L16.8506 57.981L15.1489 56.9849L14.0698 56.3623L12.9077 55.6982L12.2021 55.2832L11.6211 54.9512L10.9155 54.5361L9.75342 53.8721L8.67432 53.2495L7.67822 52.6685L5.52002 51.4233L4.02588 50.5518L3.07129 50.0122L2.40723 49.5972V49.5557Z" fill="#00A466"/>
<path d="M56.9019 15.6055L57.1094 15.647L58.147 16.228L58.2715 16.3525H58.064V16.2695L57.6489 16.145V16.062L57.3169 15.979V15.896L57.0264 15.813L56.9019 15.6885V15.6055Z" fill="#00A569"/>
<path d="M27.1851 55.8228H27.7246L28.1396 55.9058V55.9888H26.687L26.77 55.9058H27.019L27.1851 55.8228Z" fill="#00B870"/>
<path d="M65.8667 53.6646H66.0327L65.9912 53.7891L65.1196 54.2871V54.1626L65.3271 54.0796L65.3687 53.9551L65.6592 53.7891H65.7422L65.7837 53.7061L65.8252 53.7476L65.8667 53.6646Z" fill="#ECC79D"/>
<path d="M0.124512 48.0615H0.332031L0.415039 48.2275L0.581055 48.5181L0.373535 48.4351L0 48.3105L0.0415039 48.103L0.124512 48.0615Z" fill="#00A366"/>
<path d="M70.3491 29.5508L70.5566 29.6338L71.0132 29.8828V30.0073L70.8887 29.9243L70.5566 29.9658L70.5981 29.7583L70.3906 29.6753L70.3491 29.5508Z" fill="#00B86F"/>
<path d="M19.2993 36.98H19.4238L19.3408 37.2705L19.0088 37.3535L18.9258 37.1875L19.2993 36.98Z" fill="#F9DBBD"/>
<path d="M58.645 16.5601L59.2261 16.8506L59.6826 17.1411L59.5581 17.1826L59.2676 17.0166L58.894 16.8091L58.645 16.6431V16.5601Z" fill="#00A56A"/>
<path d="M25.3174 56.1548H25.5249L25.6079 56.2793L25.1514 56.4453L25.0269 56.3208L25.3174 56.1548Z" fill="#00BB6F"/>
<path d="M44.8242 49.3896L45.0732 49.4312L45.5298 49.6802L45.4883 49.8047L45.3223 49.7217L44.8657 49.4727L44.8242 49.3896Z" fill="#FECBA0"/>
<path d="M66.1157 52.8345H66.1572L66.1987 53.54V53.6646L66.0327 53.7061L66.1157 52.8345Z" fill="#00A277"/>
<path d="M81.0156 29.5093L81.1816 29.5508L81.8457 29.9243L81.6797 29.9658L81.1401 29.6338L81.0156 29.5093Z" fill="#00A56A"/>
<path d="M49.3481 63.252L49.4727 63.2935L48.8916 63.6255H48.8086V63.5425L48.9746 63.501L49.0161 63.3765L49.3481 63.252Z" fill="#F1CAA1"/>
<path d="M48.1445 63.916L48.269 63.9575L48.103 64.082L47.8125 64.248H47.7295V64.165L48.1445 63.916Z" fill="#ECC99F"/>
<path d="M65.9912 42.749L66.0327 42.915L65.9082 42.9565L65.4932 43.0396L65.5347 42.9565L65.9912 42.749Z" fill="#FEC8A0"/>
<path d="M63.584 54.7437L63.667 54.7852V54.8682L63.7915 54.8267V54.9512L63.916 54.9927L63.6255 55.0342L63.584 54.7437Z" fill="#E8C397"/>
<path d="M22.0386 41.5039L22.2046 41.5454L21.7065 41.8359H21.6235V41.7529L22.0386 41.5039Z" fill="#00A376"/>
<path d="M14.2773 49.8047L14.3188 49.9292L14.2773 50.1367L14.1113 50.0952L14.1528 49.8877L14.2773 49.8047Z" fill="#00B670"/>
</svg>
