<svg width="37" height="36" viewBox="0 0 37 36" fill="none" xmlns="http://www.w3.org/2000/svg">
<g clip-path="url(#clip0_112_1428)">
<mask id="path-1-inside-1_112_1428" fill="white">
<path fill-rule="evenodd" clip-rule="evenodd" d="M11.6223 1H10.9681L10.702 1.01109L10.2696 1.04435L9.8039 1.09979L9.28276 1.1885L8.73945 1.31046L8.34028 1.42135L7.83023 1.58767L7.45324 1.73181L7.10951 1.87595L6.77687 2.03119L6.59946 2.11989L6.33334 2.26404L6.02288 2.44144L5.87873 2.53015L5.6348 2.68538L5.50174 2.77409L5.27998 2.92932L5.06931 3.08455L4.91408 3.20652L4.76993 3.3174L4.45947 3.58351L4.37076 3.66113L4.27097 3.76092L4.18227 3.83854L4.17118 3.8718H4.149L3.90506 4.11574L3.82745 4.20444L3.73874 4.29315L3.66113 4.38185L3.52807 4.52599L3.42828 4.64796L3.29522 4.8032L3.17325 4.95843L3.06237 5.10257L2.96258 5.23563L2.82953 5.42413L2.60776 5.75677L2.47471 5.96744L2.40818 6.08941L2.33056 6.21138L2.19751 6.45531L2.08663 6.66598L1.98683 6.87666L1.85378 7.16495L1.73181 7.45324L1.57658 7.86349L1.44352 8.27375L1.33264 8.66183L1.22176 9.12753L1.15523 9.47126L1.0887 9.8926L1.03326 10.3694L1 10.8905V11.6556L1.02218 12.0659L1.06653 12.5094L1.13306 12.9751L1.22176 13.4519L1.34373 13.9619L1.45461 14.3389L1.58767 14.7381L1.69855 15.0374L1.82051 15.3368L1.96466 15.6584L2.14207 16.0132L2.2973 16.3015L2.45253 16.5676L2.54124 16.7117L2.70756 16.9779L2.86279 17.1996L3.00693 17.3992L3.17325 17.621L3.3174 17.7984L3.41719 17.9203L3.51698 18.0312L3.61678 18.1532L3.69439 18.2308L3.77201 18.3195L3.90506 18.4526L3.98268 18.5413L4.0603 18.6078L4.19335 18.7409L4.28206 18.8185L4.40403 18.9404L4.52599 19.0402L4.63687 19.14L4.75884 19.2398L4.93625 19.384L5.09148 19.5059L5.21345 19.5946L5.41304 19.7388L5.62371 19.8829L5.90091 20.0603L6.3777 20.3375L6.76578 20.5371L7.19821 20.7367L7.60847 20.903L8.0409 21.0583L8.32919 21.147L8.72836 21.2578L9.2495 21.3798L9.75955 21.4685L10.3139 21.535L10.7575 21.5683L11.1012 21.5794H11.4449L11.7776 21.5683L12.1102 21.5461L12.5426 21.5018L13.0083 21.4352L13.4186 21.3576L13.851 21.2578L14.3278 21.1248L14.8157 20.9585L15.1927 20.8143L15.5031 20.6813L15.7582 20.5593L15.9356 20.4706L16.1906 20.3375L16.3902 20.2266L16.6563 20.0714L16.867 19.9384L17.1331 19.761L17.3216 19.6279L17.5323 19.4727L17.8427 19.2287L17.9647 19.1178L18.0867 19.0181L18.2086 18.9072L18.2973 18.8296L18.4193 18.7076L18.5524 18.5856L18.63 18.4969L18.7519 18.3749L18.885 18.2308L18.9626 18.1421L19.0846 18.009L19.1844 17.8871L19.3063 17.7429L19.4283 17.5877L19.6057 17.3548L19.7388 17.1664L19.8829 16.9557L20.0382 16.7117L20.1601 16.5122L20.3043 16.2571L20.4373 16.0132L20.5482 15.7914L20.7256 15.4034L20.8365 15.1372L20.9695 14.7935L21.1026 14.3943L21.2024 14.0617L21.28 13.7623L21.3798 13.3299L21.4463 12.9529L21.5129 12.4872L21.5461 12.1435L21.5683 11.8219L21.5794 11.4228V11.1455L21.5683 10.7575L21.5572 10.569L21.5239 10.2031L21.4574 9.69302L21.3909 9.30494L21.2689 8.76162L21.1359 8.28484L21.0361 7.97437L20.8919 7.5752L20.7367 7.19821L20.5926 6.87666L20.4706 6.63272L20.3043 6.32226L20.1712 6.08941L20.0603 5.90091L19.8829 5.62371L19.772 5.45739L19.6612 5.30216L19.517 5.10257L19.3618 4.90299L19.2398 4.74776L19.0957 4.58143L18.9626 4.4262L18.885 4.3375L18.7741 4.22662L18.6965 4.13791L18.4969 3.93833L18.4082 3.86071L18.3195 3.77201L18.2086 3.67222L18.1199 3.5946L18.009 3.49481L17.8427 3.35066L17.6875 3.22869L17.5101 3.08455L17.3548 2.97367L17.1553 2.82953L16.9113 2.6632L16.6674 2.50797L16.4456 2.37492L16.1684 2.21968L15.9578 2.1088L15.6806 1.97575L15.2925 1.79834L14.7824 1.59875L14.2724 1.43243L13.8843 1.32155L13.5073 1.23285L13.0527 1.14414L12.5094 1.06653L12.0326 1.02218L11.6223 1ZM11.5168 4.25898H11.0699L10.8881 4.26656L10.5928 4.28928L10.2746 4.32715L9.91866 4.38774L9.54753 4.47106L9.27486 4.5468L8.92645 4.66041L8.66893 4.75887L8.43414 4.85734L8.20692 4.96337L8.08573 5.02397L7.90395 5.12243L7.69188 5.24361L7.59341 5.30421L7.42678 5.41024L7.3359 5.47084L7.18441 5.57687L7.04051 5.68291L6.93447 5.76623L6.836 5.84197L6.62393 6.02375L6.56334 6.07676L6.49517 6.14493L6.43458 6.19795L6.427 6.22067H6.41186L6.24523 6.3873L6.19221 6.4479L6.13161 6.50849L6.0786 6.56908L5.98771 6.66754L5.91954 6.75086L5.82865 6.8569L5.74534 6.96293L5.66959 7.0614L5.60143 7.15229L5.51054 7.28104L5.35906 7.50827L5.26817 7.65218L5.22272 7.73549L5.1697 7.81881L5.07882 7.98544L5.00307 8.12934L4.93491 8.27325L4.84402 8.47018L4.7607 8.6671L4.65467 8.94735L4.56378 9.22759L4.48804 9.49268L4.4123 9.81079L4.36685 10.0456L4.32141 10.3334L4.28354 10.6591L4.26081 11.0151V11.5377L4.27596 11.8179L4.30626 12.1209L4.3517 12.439L4.4123 12.7647L4.49561 13.1131L4.57135 13.3706L4.66224 13.6433L4.73798 13.8478L4.8213 14.0523L4.91976 14.2719L5.04095 14.5143L5.14698 14.7112L5.25302 14.893L5.31361 14.9915L5.42722 15.1732L5.53326 15.3247L5.63172 15.4611L5.74534 15.6125L5.8438 15.7337L5.91197 15.817L5.98013 15.8928L6.0483 15.9761L6.10132 16.0291L6.15434 16.0897L6.24523 16.1806L6.29824 16.2412L6.35126 16.2866L6.44215 16.3775L6.50274 16.4305L6.58606 16.5139L6.66937 16.582L6.74512 16.6502L6.82843 16.7184L6.94962 16.8168L7.05565 16.9001L7.13897 16.9607L7.2753 17.0592L7.41921 17.1577L7.60856 17.2788L7.93425 17.4682L8.19934 17.6045L8.49473 17.7409L8.77497 17.8545L9.07036 17.9605L9.26729 18.0211L9.53996 18.0968L9.89594 18.1802L10.2443 18.2408L10.6231 18.2862L10.926 18.3089L11.1608 18.3165H11.3956L11.6228 18.3089L11.8501 18.2938L12.1454 18.2635L12.4636 18.218L12.7438 18.165L13.0392 18.0968L13.3649 18.006L13.6981 17.8923L13.9557 17.7939L14.1677 17.703L14.3419 17.6197L14.4631 17.5591L14.6373 17.4682L14.7737 17.3925L14.9554 17.2864L15.0993 17.1955L15.2811 17.0743L15.4099 16.9835L15.5538 16.8774L15.7659 16.7108L15.8492 16.635L15.9325 16.5669L16.0158 16.4911L16.0764 16.4381L16.1597 16.3548L16.2506 16.2715L16.3036 16.2109L16.3869 16.1276L16.4778 16.0291L16.5308 15.9685L16.6142 15.8776L16.6823 15.7943L16.7656 15.6959L16.849 15.5898L16.9701 15.4308L17.061 15.302L17.1595 15.1581L17.2655 14.9915L17.3488 14.8551L17.4473 14.6809L17.5382 14.5143L17.6139 14.3628L17.7351 14.0977L17.8109 13.9159L17.9018 13.6812L17.9926 13.4085L18.0608 13.1813L18.1138 12.9768L18.182 12.6814L18.2274 12.4239L18.2729 12.1057L18.2956 11.8709L18.3108 11.6513L18.3183 11.3786V11.1893L18.3108 10.9242L18.3032 10.7954L18.2805 10.5455L18.235 10.1971L18.1896 9.93198L18.1063 9.56085L18.0154 9.23516L17.9472 9.02309L17.8487 8.75042L17.7427 8.4929L17.6442 8.27325L17.5609 8.10662L17.4473 7.89455L17.3564 7.73549L17.2807 7.60673L17.1595 7.41738L17.0837 7.30377L17.008 7.19773L16.9095 7.0614L16.8035 6.92506L16.7202 6.81903L16.6217 6.70541L16.5308 6.59938L16.4778 6.53878L16.4021 6.46304L16.3491 6.40245L16.2127 6.26612L16.1521 6.2131L16.0915 6.15251L16.0158 6.08434L15.9552 6.03132L15.8795 5.96315L15.7659 5.86469L15.6598 5.78137L15.5386 5.68291L15.4326 5.60717L15.2963 5.50871L15.1296 5.3951L14.963 5.28906L14.8115 5.19817L14.6222 5.09213L14.4783 5.01639L14.2889 4.9255L14.0238 4.80432L13.6754 4.66798L13.327 4.55437L13.0619 4.47863L12.8044 4.41804L12.4939 4.35745L12.1227 4.30443L11.797 4.27413L11.5168 4.25898Z"/>
</mask>
<path fill-rule="evenodd" clip-rule="evenodd" d="M11.6223 1H10.9681L10.702 1.01109L10.2696 1.04435L9.8039 1.09979L9.28276 1.1885L8.73945 1.31046L8.34028 1.42135L7.83023 1.58767L7.45324 1.73181L7.10951 1.87595L6.77687 2.03119L6.59946 2.11989L6.33334 2.26404L6.02288 2.44144L5.87873 2.53015L5.6348 2.68538L5.50174 2.77409L5.27998 2.92932L5.06931 3.08455L4.91408 3.20652L4.76993 3.3174L4.45947 3.58351L4.37076 3.66113L4.27097 3.76092L4.18227 3.83854L4.17118 3.8718H4.149L3.90506 4.11574L3.82745 4.20444L3.73874 4.29315L3.66113 4.38185L3.52807 4.52599L3.42828 4.64796L3.29522 4.8032L3.17325 4.95843L3.06237 5.10257L2.96258 5.23563L2.82953 5.42413L2.60776 5.75677L2.47471 5.96744L2.40818 6.08941L2.33056 6.21138L2.19751 6.45531L2.08663 6.66598L1.98683 6.87666L1.85378 7.16495L1.73181 7.45324L1.57658 7.86349L1.44352 8.27375L1.33264 8.66183L1.22176 9.12753L1.15523 9.47126L1.0887 9.8926L1.03326 10.3694L1 10.8905V11.6556L1.02218 12.0659L1.06653 12.5094L1.13306 12.9751L1.22176 13.4519L1.34373 13.9619L1.45461 14.3389L1.58767 14.7381L1.69855 15.0374L1.82051 15.3368L1.96466 15.6584L2.14207 16.0132L2.2973 16.3015L2.45253 16.5676L2.54124 16.7117L2.70756 16.9779L2.86279 17.1996L3.00693 17.3992L3.17325 17.621L3.3174 17.7984L3.41719 17.9203L3.51698 18.0312L3.61678 18.1532L3.69439 18.2308L3.77201 18.3195L3.90506 18.4526L3.98268 18.5413L4.0603 18.6078L4.19335 18.7409L4.28206 18.8185L4.40403 18.9404L4.52599 19.0402L4.63687 19.14L4.75884 19.2398L4.93625 19.384L5.09148 19.5059L5.21345 19.5946L5.41304 19.7388L5.62371 19.8829L5.90091 20.0603L6.3777 20.3375L6.76578 20.5371L7.19821 20.7367L7.60847 20.903L8.0409 21.0583L8.32919 21.147L8.72836 21.2578L9.2495 21.3798L9.75955 21.4685L10.3139 21.535L10.7575 21.5683L11.1012 21.5794H11.4449L11.7776 21.5683L12.1102 21.5461L12.5426 21.5018L13.0083 21.4352L13.4186 21.3576L13.851 21.2578L14.3278 21.1248L14.8157 20.9585L15.1927 20.8143L15.5031 20.6813L15.7582 20.5593L15.9356 20.4706L16.1906 20.3375L16.3902 20.2266L16.6563 20.0714L16.867 19.9384L17.1331 19.761L17.3216 19.6279L17.5323 19.4727L17.8427 19.2287L17.9647 19.1178L18.0867 19.0181L18.2086 18.9072L18.2973 18.8296L18.4193 18.7076L18.5524 18.5856L18.63 18.4969L18.7519 18.3749L18.885 18.2308L18.9626 18.1421L19.0846 18.009L19.1844 17.8871L19.3063 17.7429L19.4283 17.5877L19.6057 17.3548L19.7388 17.1664L19.8829 16.9557L20.0382 16.7117L20.1601 16.5122L20.3043 16.2571L20.4373 16.0132L20.5482 15.7914L20.7256 15.4034L20.8365 15.1372L20.9695 14.7935L21.1026 14.3943L21.2024 14.0617L21.28 13.7623L21.3798 13.3299L21.4463 12.9529L21.5129 12.4872L21.5461 12.1435L21.5683 11.8219L21.5794 11.4228V11.1455L21.5683 10.7575L21.5572 10.569L21.5239 10.2031L21.4574 9.69302L21.3909 9.30494L21.2689 8.76162L21.1359 8.28484L21.0361 7.97437L20.8919 7.5752L20.7367 7.19821L20.5926 6.87666L20.4706 6.63272L20.3043 6.32226L20.1712 6.08941L20.0603 5.90091L19.8829 5.62371L19.772 5.45739L19.6612 5.30216L19.517 5.10257L19.3618 4.90299L19.2398 4.74776L19.0957 4.58143L18.9626 4.4262L18.885 4.3375L18.7741 4.22662L18.6965 4.13791L18.4969 3.93833L18.4082 3.86071L18.3195 3.77201L18.2086 3.67222L18.1199 3.5946L18.009 3.49481L17.8427 3.35066L17.6875 3.22869L17.5101 3.08455L17.3548 2.97367L17.1553 2.82953L16.9113 2.6632L16.6674 2.50797L16.4456 2.37492L16.1684 2.21968L15.9578 2.1088L15.6806 1.97575L15.2925 1.79834L14.7824 1.59875L14.2724 1.43243L13.8843 1.32155L13.5073 1.23285L13.0527 1.14414L12.5094 1.06653L12.0326 1.02218L11.6223 1ZM11.5168 4.25898H11.0699L10.8881 4.26656L10.5928 4.28928L10.2746 4.32715L9.91866 4.38774L9.54753 4.47106L9.27486 4.5468L8.92645 4.66041L8.66893 4.75887L8.43414 4.85734L8.20692 4.96337L8.08573 5.02397L7.90395 5.12243L7.69188 5.24361L7.59341 5.30421L7.42678 5.41024L7.3359 5.47084L7.18441 5.57687L7.04051 5.68291L6.93447 5.76623L6.836 5.84197L6.62393 6.02375L6.56334 6.07676L6.49517 6.14493L6.43458 6.19795L6.427 6.22067H6.41186L6.24523 6.3873L6.19221 6.4479L6.13161 6.50849L6.0786 6.56908L5.98771 6.66754L5.91954 6.75086L5.82865 6.8569L5.74534 6.96293L5.66959 7.0614L5.60143 7.15229L5.51054 7.28104L5.35906 7.50827L5.26817 7.65218L5.22272 7.73549L5.1697 7.81881L5.07882 7.98544L5.00307 8.12934L4.93491 8.27325L4.84402 8.47018L4.7607 8.6671L4.65467 8.94735L4.56378 9.22759L4.48804 9.49268L4.4123 9.81079L4.36685 10.0456L4.32141 10.3334L4.28354 10.6591L4.26081 11.0151V11.5377L4.27596 11.8179L4.30626 12.1209L4.3517 12.439L4.4123 12.7647L4.49561 13.1131L4.57135 13.3706L4.66224 13.6433L4.73798 13.8478L4.8213 14.0523L4.91976 14.2719L5.04095 14.5143L5.14698 14.7112L5.25302 14.893L5.31361 14.9915L5.42722 15.1732L5.53326 15.3247L5.63172 15.4611L5.74534 15.6125L5.8438 15.7337L5.91197 15.817L5.98013 15.8928L6.0483 15.9761L6.10132 16.0291L6.15434 16.0897L6.24523 16.1806L6.29824 16.2412L6.35126 16.2866L6.44215 16.3775L6.50274 16.4305L6.58606 16.5139L6.66937 16.582L6.74512 16.6502L6.82843 16.7184L6.94962 16.8168L7.05565 16.9001L7.13897 16.9607L7.2753 17.0592L7.41921 17.1577L7.60856 17.2788L7.93425 17.4682L8.19934 17.6045L8.49473 17.7409L8.77497 17.8545L9.07036 17.9605L9.26729 18.0211L9.53996 18.0968L9.89594 18.1802L10.2443 18.2408L10.6231 18.2862L10.926 18.3089L11.1608 18.3165H11.3956L11.6228 18.3089L11.8501 18.2938L12.1454 18.2635L12.4636 18.218L12.7438 18.165L13.0392 18.0968L13.3649 18.006L13.6981 17.8923L13.9557 17.7939L14.1677 17.703L14.3419 17.6197L14.4631 17.5591L14.6373 17.4682L14.7737 17.3925L14.9554 17.2864L15.0993 17.1955L15.2811 17.0743L15.4099 16.9835L15.5538 16.8774L15.7659 16.7108L15.8492 16.635L15.9325 16.5669L16.0158 16.4911L16.0764 16.4381L16.1597 16.3548L16.2506 16.2715L16.3036 16.2109L16.3869 16.1276L16.4778 16.0291L16.5308 15.9685L16.6142 15.8776L16.6823 15.7943L16.7656 15.6959L16.849 15.5898L16.9701 15.4308L17.061 15.302L17.1595 15.1581L17.2655 14.9915L17.3488 14.8551L17.4473 14.6809L17.5382 14.5143L17.6139 14.3628L17.7351 14.0977L17.8109 13.9159L17.9018 13.6812L17.9926 13.4085L18.0608 13.1813L18.1138 12.9768L18.182 12.6814L18.2274 12.4239L18.2729 12.1057L18.2956 11.8709L18.3108 11.6513L18.3183 11.3786V11.1893L18.3108 10.9242L18.3032 10.7954L18.2805 10.5455L18.235 10.1971L18.1896 9.93198L18.1063 9.56085L18.0154 9.23516L17.9472 9.02309L17.8487 8.75042L17.7427 8.4929L17.6442 8.27325L17.5609 8.10662L17.4473 7.89455L17.3564 7.73549L17.2807 7.60673L17.1595 7.41738L17.0837 7.30377L17.008 7.19773L16.9095 7.0614L16.8035 6.92506L16.7202 6.81903L16.6217 6.70541L16.5308 6.59938L16.4778 6.53878L16.4021 6.46304L16.3491 6.40245L16.2127 6.26612L16.1521 6.2131L16.0915 6.15251L16.0158 6.08434L15.9552 6.03132L15.8795 5.96315L15.7659 5.86469L15.6598 5.78137L15.5386 5.68291L15.4326 5.60717L15.2963 5.50871L15.1296 5.3951L14.963 5.28906L14.8115 5.19817L14.6222 5.09213L14.4783 5.01639L14.2889 4.9255L14.0238 4.80432L13.6754 4.66798L13.327 4.55437L13.0619 4.47863L12.8044 4.41804L12.4939 4.35745L12.1227 4.30443L11.797 4.27413L11.5168 4.25898Z" fill="#F1C090"/>
<path d="M10.9681 1V-0.0813472H10.9456L10.9231 -0.0804098L10.9681 1ZM11.6223 1L11.6807 -0.0797709L11.6515 -0.0813472H11.6223V1ZM10.702 1.01109L10.657 -0.0693218L10.638 -0.0685309L10.6191 -0.0670741L10.702 1.01109ZM10.2696 1.04435L10.1867 -0.03381L10.1642 -0.0320798L10.1418 -0.029413L10.2696 1.04435ZM9.8039 1.09979L9.67607 0.0260272L9.64916 0.0292304L9.62245 0.0337773L9.8039 1.09979ZM9.28276 1.1885L9.10131 0.122482L9.07347 0.127221L9.0459 0.133408L9.28276 1.1885ZM8.73945 1.31046L8.50259 0.255377L8.47615 0.261313L8.45003 0.268567L8.73945 1.31046ZM8.34028 1.42135L8.05086 0.379448L8.0278 0.385855L8.00504 0.393276L8.34028 1.42135ZM7.83023 1.58767L7.49499 0.559597L7.46929 0.567977L7.44404 0.577631L7.83023 1.58767ZM7.45324 1.73181L7.06705 0.721776L7.05095 0.727932L7.03505 0.734598L7.45324 1.73181ZM7.10951 1.87595L6.69132 0.878742L6.6716 0.887012L6.65222 0.896056L7.10951 1.87595ZM6.77687 2.03119L6.31958 1.05129L6.30634 1.05747L6.29327 1.064L6.77687 2.03119ZM6.59946 2.11989L6.11586 1.15271L6.10001 1.16063L6.08443 1.16907L6.59946 2.11989ZM6.33334 2.26404L5.81832 1.31322L5.80751 1.31907L5.79685 1.32516L6.33334 2.26404ZM6.02288 2.44144L5.48638 1.50257L5.47112 1.51129L5.45615 1.52051L6.02288 2.44144ZM5.87873 2.53015L5.312 1.60921L5.30506 1.61348L5.29819 1.61786L5.87873 2.53015ZM5.6348 2.68538L5.05425 1.77309L5.04454 1.77927L5.03497 1.78565L5.6348 2.68538ZM5.50174 2.77409L4.90192 1.87435L4.89169 1.88117L4.88163 1.88821L5.50174 2.77409ZM5.27998 2.92932L4.65987 2.04344L4.6491 2.05098L4.63853 2.05877L5.27998 2.92932ZM5.06931 3.08455L4.42785 2.21401L4.41438 2.22393L4.40123 2.23427L5.06931 3.08455ZM4.91408 3.20652L5.57342 4.06367L5.58216 4.0568L4.91408 3.20652ZM4.76993 3.3174L4.11062 2.4603L4.08793 2.47775L4.0662 2.49638L4.76993 3.3174ZM4.45947 3.58351L3.7557 2.76245L3.74739 2.76972L4.45947 3.58351ZM4.37076 3.66113L3.65869 2.84733L3.63159 2.87104L3.60613 2.8965L4.37076 3.66113ZM4.27097 3.76092L4.98304 4.57472L5.01014 4.55101L5.0356 4.52555L4.27097 3.76092ZM4.18227 3.83854L3.47019 3.02474L3.24925 3.21807L3.15641 3.49658L4.18227 3.83854ZM4.17118 3.8718V4.95315H4.95057L5.19703 4.21375L4.17118 3.8718ZM4.149 3.8718V2.79045H3.70109L3.38437 3.10717L4.149 3.8718ZM3.90506 4.11574L3.14044 3.35111L3.11498 3.37657L3.09127 3.40367L3.90506 4.11574ZM3.82745 4.20444L4.59208 4.96907L4.61754 4.94361L4.64125 4.91651L3.82745 4.20444ZM3.73874 4.29315L2.97412 3.52852L2.94866 3.55398L2.92495 3.58107L3.73874 4.29315ZM3.66113 4.38185L4.45571 5.11531L4.46546 5.10474L4.47492 5.09392L3.66113 4.38185ZM3.52807 4.52599L2.73349 3.79254L2.7116 3.81626L2.69116 3.84124L3.52807 4.52599ZM3.42828 4.64796L4.2493 5.35169L4.25736 5.3423L4.26519 5.33271L3.42828 4.64796ZM3.29522 4.8032L2.4742 4.09946L2.45919 4.11698L2.44494 4.13512L3.29522 4.8032ZM3.17325 4.95843L2.32293 4.29031L2.31615 4.29912L3.17325 4.95843ZM3.06237 5.10257L2.20521 4.44322L2.1973 4.45376L3.06237 5.10257ZM2.96258 5.23563L2.0975 4.58682L2.08815 4.59929L2.07916 4.61203L2.96258 5.23563ZM2.82953 5.42413L1.9461 4.80053L1.93779 4.81231L1.92979 4.8243L2.82953 5.42413ZM2.60776 5.75677L1.70803 5.15694L1.70063 5.16805L1.6935 5.17933L2.60776 5.75677ZM2.47471 5.96744L1.56044 5.39001L1.54197 5.41926L1.5254 5.44963L2.47471 5.96744ZM2.40818 6.08941L3.32047 6.66996L3.34004 6.63921L3.35749 6.60721L2.40818 6.08941ZM2.33056 6.21138L1.41827 5.63083L1.39871 5.66158L1.38125 5.69357L2.33056 6.21138ZM2.19751 6.45531L1.2482 5.93751L1.24435 5.94456L1.2406 5.95168L2.19751 6.45531ZM2.08663 6.66598L1.12972 6.16235L1.11912 6.1825L1.10937 6.20307L2.08663 6.66598ZM1.98683 6.87666L1.00953 6.41372L1.00502 6.42351L1.98683 6.87666ZM1.85378 7.16495L0.871959 6.7118L0.86467 6.72759L0.857893 6.74361L1.85378 7.16495ZM1.73181 7.45324L0.735925 7.0319L0.727811 7.05108L0.720441 7.07056L1.73181 7.45324ZM1.57658 7.86349L0.565208 7.48081L0.556002 7.50515L0.547976 7.52989L1.57658 7.86349ZM1.44352 8.27375L0.414919 7.94015L0.409027 7.95832L0.40378 7.97668L1.44352 8.27375ZM1.33264 8.66183L0.2929 8.36476L0.28628 8.38793L0.2807 8.41137L1.33264 8.66183ZM1.22176 9.12753L0.169819 8.87707L0.164489 8.89945L0.160116 8.92205L1.22176 9.12753ZM1.15523 9.47126L0.0935875 9.26578L0.0900342 9.28414L0.0871177 9.30261L1.15523 9.47126ZM1.0887 9.8926L0.0205895 9.72395L0.017145 9.74577L0.0145941 9.76771L1.0887 9.8926ZM1.03326 10.3694L-0.0408461 10.2445L-0.0440952 10.2724L-0.045887 10.3005L1.03326 10.3694ZM1 10.8905L-0.0791512 10.8216L-0.0813472 10.856V10.8905H1ZM1 11.6556H-0.0813472V11.6848L-0.0797709 11.714L1 11.6556ZM1.02218 12.0659L-0.0575949 12.1242L-0.0562619 12.1489L-0.0538046 12.1735L1.02218 12.0659ZM1.06653 12.5094L-0.00945246 12.617L-0.00718033 12.6397L-0.00395095 12.6623L1.06653 12.5094ZM1.13306 12.9751L0.0625772 13.128L0.0657927 13.1505L0.0699514 13.1729L1.13306 12.9751ZM1.22176 13.4519L0.158656 13.6496L0.163679 13.6766L0.170065 13.7034L1.22176 13.4519ZM1.34373 13.9619L0.292034 14.2134L0.298489 14.2404L0.306322 14.267L1.34373 13.9619ZM1.45461 14.3389L0.417202 14.644L0.422649 14.6625L0.428753 14.6809L1.45461 14.3389ZM1.58767 14.7381L0.561809 15.08L0.567445 15.0969L0.573634 15.1136L1.58767 14.7381ZM1.69855 15.0374L0.684514 15.413L0.690556 15.4293L0.697119 15.4454L1.69855 15.0374ZM1.82051 15.3368L0.819087 15.7448L0.826134 15.7621L0.833775 15.7792L1.82051 15.3368ZM1.96466 15.6584L0.977919 16.1007L0.98726 16.1215L0.997472 16.142L1.96466 15.6584ZM2.14207 16.0132L1.17488 16.4968L1.18221 16.5114L1.18997 16.5259L2.14207 16.0132ZM2.2973 16.3015L1.3452 16.8142L1.35396 16.8304L1.36326 16.8463L2.2973 16.3015ZM2.45253 16.5676L1.51849 17.1125L1.52491 17.1235L1.53159 17.1343L2.45253 16.5676ZM2.54124 16.7117L1.62028 17.2785L1.62426 17.2849L2.54124 16.7117ZM2.70756 16.9779L1.79058 17.551L1.80552 17.5749L1.82168 17.598L2.70756 16.9779ZM2.86279 17.1996L1.97692 17.8197L1.98149 17.8263L1.98616 17.8327L2.86279 17.1996ZM3.00693 17.3992L2.13031 18.0323L2.13601 18.0402L2.14185 18.048L3.00693 17.3992ZM3.17325 17.621L2.30818 18.2698L2.32077 18.2866L2.33401 18.3029L3.17325 17.621ZM3.3174 17.7984L2.47815 18.4803L2.48049 18.4831L3.3174 17.7984ZM3.41719 17.9203L2.58028 18.6051L2.5964 18.6248L2.61343 18.6437L3.41719 17.9203ZM3.51698 18.0312L4.3539 17.3465L4.33778 17.3268L4.32075 17.3078L3.51698 18.0312ZM3.61678 18.1532L2.77986 18.8379L2.81401 18.8797L2.85215 18.9178L3.61678 18.1532ZM3.69439 18.2308L4.50819 17.5187L4.48448 17.4916L4.45902 17.4662L3.69439 18.2308ZM3.77201 18.3195L2.95821 19.0316L2.98192 19.0587L3.00738 19.0841L3.77201 18.3195ZM3.90506 18.4526L4.71886 17.7405L4.69515 17.7134L4.66969 17.6879L3.90506 18.4526ZM3.98268 18.5413L3.16889 19.2533L3.22001 19.3118L3.27895 19.3623L3.98268 18.5413ZM4.0603 18.6078L4.82493 17.8432L4.79556 17.8138L4.76403 17.7868L4.0603 18.6078ZM4.19335 18.7409L3.42872 19.5055L3.45419 19.5309L3.48128 19.5547L4.19335 18.7409ZM4.28206 18.8185L5.04669 18.0538L5.02123 18.0284L4.99413 18.0047L4.28206 18.8185ZM4.40403 18.9404L3.63939 19.7051L3.67753 19.7432L3.71928 19.7774L4.40403 18.9404ZM4.52599 19.0402L5.24938 18.2365L5.23045 18.2194L5.21074 18.2033L4.52599 19.0402ZM4.63687 19.14L3.91349 19.9438L3.93242 19.9608L3.95212 19.9769L4.63687 19.14ZM4.75884 19.2398L4.07409 20.0767L4.07695 20.0791L4.75884 19.2398ZM4.93625 19.384L4.25436 20.2232L4.26122 20.2288L4.26818 20.2342L4.93625 19.384ZM5.09148 19.5059L4.42341 20.3562L4.43921 20.3686L4.45546 20.3804L5.09148 19.5059ZM5.21345 19.5946L4.57743 20.4692L4.58034 20.4713L5.21345 19.5946ZM5.41304 19.7388L4.77992 20.6154L4.79107 20.6235L4.80242 20.6312L5.41304 19.7388ZM5.62371 19.8829L5.01309 20.7754L5.02681 20.7847L5.0408 20.7937L5.62371 19.8829ZM5.90091 20.0603L5.318 20.9711L5.33745 20.9836L5.3574 20.9952L5.90091 20.0603ZM6.3777 20.3375L5.83419 21.2724L5.85832 21.2864L5.88314 21.2992L6.3777 20.3375ZM6.76578 20.5371L6.27122 21.4987L6.29171 21.5093L6.31263 21.5189L6.76578 20.5371ZM7.19821 20.7367L6.74507 21.7185L6.76826 21.7292L6.79194 21.7388L7.19821 20.7367ZM7.60847 20.903L7.2022 21.9051L7.2225 21.9134L7.24312 21.9208L7.60847 20.903ZM8.0409 21.0583L7.67555 22.076L7.69904 22.0844L7.7229 22.0918L8.0409 21.0583ZM8.32919 21.147L8.01118 22.1805L8.02542 22.1849L8.03977 22.1889L8.32919 21.147ZM8.72836 21.2578L8.43894 22.2997L8.46033 22.3057L8.48194 22.3107L8.72836 21.2578ZM9.2495 21.3798L9.00307 22.4327L9.03346 22.4398L9.06422 22.4452L9.2495 21.3798ZM9.75955 21.4685L9.57427 22.5339L9.60238 22.5388L9.63071 22.5422L9.75955 21.4685ZM10.3139 21.535L10.1851 22.6087L10.209 22.6116L10.2331 22.6134L10.3139 21.535ZM10.7575 21.5683L10.6766 22.6466L10.6996 22.6483L10.7226 22.6491L10.7575 21.5683ZM11.1012 21.5794L11.0663 22.6602L11.0838 22.6607H11.1012V21.5794ZM11.4449 21.5794V22.6607H11.4629L11.481 22.6601L11.4449 21.5794ZM11.7776 21.5683L11.8136 22.649L11.8316 22.6485L11.8495 22.6473L11.7776 21.5683ZM12.1102 21.5461L12.1821 22.6251L12.2014 22.6238L12.2205 22.6218L12.1102 21.5461ZM12.5426 21.5018L12.653 22.5775L12.6743 22.5753L12.6956 22.5723L12.5426 21.5018ZM13.0083 21.4352L13.1613 22.5057L13.1854 22.5023L13.2094 22.4977L13.0083 21.4352ZM13.4186 21.3576L13.6196 22.4201L13.6408 22.4161L13.6617 22.4113L13.4186 21.3576ZM13.851 21.2578L14.0942 22.3115L14.1181 22.306L14.1417 22.2994L13.851 21.2578ZM14.3278 21.1248L14.6185 22.1663L14.6479 22.1581L14.6767 22.1483L14.3278 21.1248ZM14.8157 20.9585L15.1646 21.982L15.1834 21.9756L15.2019 21.9685L14.8157 20.9585ZM15.1927 20.8143L15.5789 21.8244L15.5989 21.8167L15.6186 21.8082L15.1927 20.8143ZM15.5031 20.6813L15.9291 21.6752L15.9496 21.6664L15.9697 21.6568L15.5031 20.6813ZM15.7582 20.5593L16.2247 21.5348L16.2333 21.5307L16.2418 21.5265L15.7582 20.5593ZM15.9356 20.4706L16.4192 21.4378L16.4275 21.4336L16.4358 21.4293L15.9356 20.4706ZM16.1906 20.3375L16.6908 21.2962L16.7034 21.2897L16.7158 21.2828L16.1906 20.3375ZM16.3902 20.2266L16.9153 21.1719L16.9253 21.1664L16.935 21.1607L16.3902 20.2266ZM16.6563 20.0714L17.2012 21.0055L17.2176 20.9959L17.2337 20.9857L16.6563 20.0714ZM16.867 19.9384L17.4444 20.8526L17.4557 20.8455L17.4668 20.8381L16.867 19.9384ZM17.1331 19.761L17.7329 20.6607L17.7449 20.6527L17.7567 20.6444L17.1331 19.761ZM17.3216 19.6279L17.9452 20.5113L17.9542 20.505L17.963 20.4984L17.3216 19.6279ZM17.5323 19.4727L18.1737 20.3432L18.1872 20.3333L18.2003 20.3229L17.5323 19.4727ZM17.8427 19.2287L18.5108 20.079L18.5414 20.055L18.5701 20.0289L17.8427 19.2287ZM17.9647 19.1178L17.2799 18.2809L17.2581 18.2988L17.2373 18.3177L17.9647 19.1178ZM18.0867 19.0181L18.7714 19.855L18.7932 19.8371L18.814 19.8182L18.0867 19.0181ZM18.2086 18.9072L17.4966 18.0934L17.4888 18.1001L17.4812 18.107L18.2086 18.9072ZM18.2973 18.8296L19.0094 19.6434L19.0365 19.6196L19.062 19.5942L18.2973 18.8296ZM18.4193 18.7076L17.6886 17.9105L17.6713 17.9263L17.6547 17.943L18.4193 18.7076ZM18.5524 18.5856L19.283 19.3827L19.3269 19.3425L19.3662 19.2977L18.5524 18.5856ZM18.63 18.4969L17.8654 17.7323L17.8399 17.7577L17.8162 17.7848L18.63 18.4969ZM18.7519 18.3749L19.5166 19.1396L19.5319 19.1243L19.5465 19.1084L18.7519 18.3749ZM18.885 18.2308L19.6796 18.9643L19.6893 18.9537L19.6988 18.9429L18.885 18.2308ZM18.9626 18.1421L18.1655 17.4114L18.1571 17.4206L18.1488 17.43L18.9626 18.1421ZM19.0846 18.009L19.8817 18.7397L19.9022 18.7173L19.9215 18.6938L19.0846 18.009ZM19.1844 17.8871L18.3589 17.1886L18.3531 17.1954L18.3475 17.2023L19.1844 17.8871ZM19.3063 17.7429L20.1318 18.4414L20.1445 18.4264L20.1566 18.411L19.3063 17.7429ZM19.4283 17.5877L20.2786 18.2558L20.2836 18.2494L20.2885 18.243L19.4283 17.5877ZM19.6057 17.3548L20.4659 18.0102L20.4778 17.9945L20.4891 17.9784L19.6057 17.3548ZM19.7388 17.1664L20.6222 17.7899L20.6268 17.7835L20.6312 17.777L19.7388 17.1664ZM19.8829 16.9557L20.7754 17.5663L20.7855 17.5514L20.7952 17.5362L19.8829 16.9557ZM20.0382 16.7117L20.9504 17.2923L20.9557 17.284L20.9608 17.2756L20.0382 16.7117ZM20.1601 16.5122L21.0828 17.076L21.0924 17.0603L21.1015 17.0442L20.1601 16.5122ZM20.3043 16.2571L21.2456 16.7892L21.2497 16.7821L21.2536 16.7749L20.3043 16.2571ZM20.4373 16.0132L21.3866 16.531L21.3959 16.5141L21.4045 16.4968L20.4373 16.0132ZM20.5482 15.7914L21.5154 16.275L21.5238 16.2582L21.5317 16.241L20.5482 15.7914ZM20.7256 15.4034L21.7091 15.8529L21.7167 15.8362L21.7238 15.8193L20.7256 15.4034ZM20.8365 15.1372L21.8347 15.5531L21.84 15.5404L21.8449 15.5276L20.8365 15.1372ZM20.9695 14.7935L21.978 15.1839L21.9873 15.1599L21.9954 15.1355L20.9695 14.7935ZM21.1026 14.3943L22.1285 14.7363L22.1336 14.7208L22.1383 14.7051L21.1026 14.3943ZM21.2024 14.0617L22.2381 14.3724L22.244 14.3529L22.2491 14.3331L21.2024 14.0617ZM21.28 13.7623L22.3268 14.0337L22.3304 14.0196L22.3337 14.0055L21.28 13.7623ZM21.3798 13.3299L22.4335 13.573L22.4398 13.5456L22.4447 13.5178L21.3798 13.3299ZM21.4463 12.9529L22.5112 13.1408L22.5143 13.1234L22.5168 13.1058L21.4463 12.9529ZM21.5129 12.4872L22.5833 12.6401L22.5868 12.6158L22.5892 12.5914L21.5129 12.4872ZM21.5461 12.1435L22.6224 12.2476L22.6239 12.2328L22.6249 12.2179L21.5461 12.1435ZM21.5683 11.8219L22.6471 11.8963L22.6486 11.8742L22.6492 11.8519L21.5683 11.8219ZM21.5794 11.4228L22.6603 11.4528L22.6607 11.4378V11.4228H21.5794ZM21.5794 11.1455H22.6607V11.1301L22.6603 11.1147L21.5794 11.1455ZM21.5683 10.7575L22.6492 10.7266L22.6487 10.7103L22.6478 10.694L21.5683 10.7575ZM21.5572 10.569L22.6367 10.5055L22.6357 10.4882L22.6341 10.4711L21.5572 10.569ZM21.5239 10.2031L22.6009 10.1052L22.5989 10.0841L22.5962 10.0632L21.5239 10.2031ZM21.4574 9.69302L22.5297 9.55316L22.5269 9.53167L22.5232 9.51031L21.4574 9.69302ZM21.3909 9.30494L22.4567 9.12223L22.452 9.09502L22.446 9.06808L21.3909 9.30494ZM21.2689 8.76162L22.324 8.52477L22.3179 8.49769L22.3105 8.47096L21.2689 8.76162ZM21.1359 8.28484L22.1774 7.99417L22.1718 7.97394L22.1653 7.95394L21.1359 8.28484ZM21.0361 7.97437L22.0655 7.64347L22.0597 7.62517L22.0531 7.6071L21.0361 7.97437ZM20.8919 7.5752L21.909 7.20793L21.9009 7.18552L21.8918 7.16348L20.8919 7.5752ZM20.7367 7.19821L21.7366 6.78649L21.7303 6.77108L21.7234 6.75588L20.7367 7.19821ZM20.5926 6.87666L21.5793 6.43433L21.57 6.41349L21.5597 6.39307L20.5926 6.87666ZM20.4706 6.63272L21.4378 6.14913L21.431 6.13551L21.4238 6.12209L20.4706 6.63272ZM20.3043 6.32226L21.2575 5.81162L21.2505 5.79859L21.2431 5.78576L20.3043 6.32226ZM20.1712 6.08941L21.1102 5.55287L21.1033 5.54114L20.1712 6.08941ZM20.0603 5.90091L20.9924 5.35265L20.9821 5.33512L20.9711 5.318L20.0603 5.90091ZM19.8829 5.62371L20.7937 5.0408L20.7883 5.03229L20.7827 5.02389L19.8829 5.62371ZM19.772 5.45739L20.6718 4.85757L20.6621 4.84306L20.652 4.82887L19.772 5.45739ZM19.6612 5.30216L20.5411 4.67363L20.5378 4.66904L19.6612 5.30216ZM19.517 5.10257L20.3936 4.46945L20.3824 4.45387L20.3706 4.43869L19.517 5.10257ZM19.3618 4.90299L20.2154 4.23909L20.2121 4.23491L19.3618 4.90299ZM19.2398 4.74776L20.0901 4.07968L20.074 4.05922L20.057 4.03955L19.2398 4.74776ZM19.0957 4.58143L18.2746 5.28518L18.2785 5.28964L19.0957 4.58143ZM18.9626 4.4262L19.7837 3.72243L19.7764 3.71412L18.9626 4.4262ZM18.885 4.3375L19.6988 3.62542L19.6751 3.59833L19.6496 3.57287L18.885 4.3375ZM18.7741 4.22662L17.9603 4.93869L17.984 4.96578L18.0095 4.99124L18.7741 4.22662ZM18.6965 4.13791L19.5103 3.42584L19.4866 3.39875L19.4611 3.37328L18.6965 4.13791ZM18.4969 3.93833L19.2615 3.1737L19.2361 3.14824L19.209 3.12454L18.4969 3.93833ZM18.4082 3.86071L17.6436 4.62534L17.669 4.6508L17.6961 4.6745L18.4082 3.86071ZM18.3195 3.77201L19.0841 3.00738L19.064 2.98727L19.0429 2.96825L18.3195 3.77201ZM18.2086 3.67222L18.932 2.86846L18.9264 2.8634L18.9207 2.85842L18.2086 3.67222ZM18.1199 3.5946L17.3965 4.39836L17.4022 4.40342L17.4079 4.4084L18.1199 3.5946ZM18.009 3.49481L18.7324 2.69105L18.7249 2.68428L18.7172 2.67764L18.009 3.49481ZM17.8427 3.35066L18.5509 2.5335L18.5313 2.51646L18.5108 2.50038L17.8427 3.35066ZM17.6875 3.22869L17.0056 4.06795L17.0125 4.07352L17.0194 4.07898L17.6875 3.22869ZM17.5101 3.08455L18.192 2.2453L18.1659 2.22413L18.1386 2.20462L17.5101 3.08455ZM17.3548 2.97367L16.7217 3.85031L16.7263 3.8536L17.3548 2.97367ZM17.1553 2.82953L17.7884 1.9529L17.7765 1.94433L17.7644 1.93609L17.1553 2.82953ZM16.9113 2.6632L17.5205 1.76977L17.5063 1.76011L17.4919 1.75091L16.9113 2.6632ZM16.6674 2.50797L17.2479 1.59568L17.2359 1.58804L17.2237 1.58072L16.6674 2.50797ZM16.4456 2.37492L17.002 1.44767L16.9881 1.43934L16.974 1.43143L16.4456 2.37492ZM16.1684 2.21968L16.6968 1.2762L16.6845 1.26933L16.6721 1.26278L16.1684 2.21968ZM15.9578 2.1088L16.4614 1.1519L16.4437 1.14259L16.4257 1.13394L15.9578 2.1088ZM15.6806 1.97575L16.1485 1.00089L16.1394 0.996502L16.1301 0.99229L15.6806 1.97575ZM15.2925 1.79834L15.7421 0.814881L15.7146 0.802336L15.6865 0.791341L15.2925 1.79834ZM14.7824 1.59875L15.1765 0.591757L15.1474 0.580371L15.1177 0.570685L14.7824 1.59875ZM14.2724 1.43243L14.6076 0.404364L14.5886 0.398176L14.5694 0.392692L14.2724 1.43243ZM13.8843 1.32155L14.1814 0.281812L14.1568 0.274798L14.132 0.268951L13.8843 1.32155ZM13.5073 1.23285L13.755 0.180247L13.7348 0.175492L13.7144 0.171517L13.5073 1.23285ZM13.0527 1.14414L13.2598 0.0828122L13.2328 0.0775507L13.2056 0.0736653L13.0527 1.14414ZM12.5094 1.06653L12.6623 -0.00395095L12.636 -0.00770915L12.6095 -0.0101706L12.5094 1.06653ZM12.0326 1.02218L12.1328 -0.0545226L12.1119 -0.0564637L12.091 -0.0575949L12.0326 1.02218ZM11.0699 4.25898V3.17764H11.0474L11.0249 3.17857L11.0699 4.25898ZM11.5168 4.25898L11.5752 3.17921L11.546 3.17764H11.5168V4.25898ZM10.8881 4.26656L10.8431 3.18615L10.8241 3.18694L10.8052 3.18839L10.8881 4.26656ZM10.5928 4.28928L10.5098 3.21112L10.4873 3.21285L10.4649 3.21551L10.5928 4.28928ZM10.2746 4.32715L10.1468 3.25338L10.1199 3.25659L10.0932 3.26113L10.2746 4.32715ZM9.91866 4.38774L9.73721 3.32173L9.70936 3.32647L9.6818 3.33265L9.91866 4.38774ZM9.54753 4.47106L9.31067 3.41597L9.28423 3.42191L9.25811 3.42916L9.54753 4.47106ZM9.27486 4.5468L8.98545 3.5049L8.96238 3.51131L8.93962 3.51873L9.27486 4.5468ZM8.92645 4.66041L8.59121 3.63234L8.56551 3.64072L8.54026 3.65038L8.92645 4.66041ZM8.66893 4.75887L8.28274 3.74884L8.26664 3.75499L8.25075 3.76166L8.66893 4.75887ZM8.43414 4.85734L8.01595 3.86012L7.99623 3.86839L7.97685 3.87744L8.43414 4.85734ZM8.20692 4.96337L7.74963 3.98347L7.73639 3.98965L7.72332 3.99619L8.20692 4.96337ZM8.08573 5.02397L7.60214 4.05678L7.58629 4.0647L7.5707 4.07315L8.08573 5.02397ZM7.90395 5.12243L7.38893 4.17161L7.37812 4.17746L7.36745 4.18356L7.90395 5.12243ZM7.69188 5.24361L7.15538 4.30474L7.14012 4.31346L7.12515 4.32267L7.69188 5.24361ZM7.59341 5.30421L7.02668 4.38327L7.01974 4.38754L7.01287 4.39192L7.59341 5.30421ZM7.42678 5.41024L6.84624 4.49795L6.83653 4.50413L6.82696 4.51051L7.42678 5.41024ZM7.3359 5.47084L6.73607 4.5711L6.72585 4.57792L6.71578 4.58496L7.3359 5.47084ZM7.18441 5.57687L6.5643 4.691L6.55354 4.69854L6.54296 4.70633L7.18441 5.57687ZM7.04051 5.68291L6.39905 4.81237L6.38558 4.82229L6.37243 4.83263L7.04051 5.68291ZM6.93447 5.76623L7.59381 6.62337L7.60255 6.61651L6.93447 5.76623ZM6.836 5.84197L6.1767 4.98487L6.15401 5.00232L6.13227 5.02095L6.836 5.84197ZM6.62393 6.02375L5.92016 5.20268L5.91186 5.20995L6.62393 6.02375ZM6.56334 6.07676L5.85127 5.26297L5.82417 5.28668L5.79871 5.31214L6.56334 6.07676ZM6.49517 6.14493L7.20724 6.95873L7.23434 6.93502L7.2598 6.90956L6.49517 6.14493ZM6.43458 6.19795L5.72251 5.38415L5.50156 5.57748L5.40872 5.856L6.43458 6.19795ZM6.427 6.22067V7.30202H7.2064L7.45286 6.56262L6.427 6.22067ZM6.41186 6.22067V5.13933H5.96395L5.64723 5.45604L6.41186 6.22067ZM6.24523 6.3873L5.4806 5.62267L5.45514 5.64813L5.43143 5.67523L6.24523 6.3873ZM6.19221 6.4479L6.95683 7.21252L6.98229 7.18707L7.006 7.15997L6.19221 6.4479ZM6.13161 6.50849L5.36699 5.74386L5.34153 5.76932L5.31782 5.79642L6.13161 6.50849ZM6.0786 6.56908L6.87318 7.30253L6.88293 7.29197L6.89239 7.28115L6.0786 6.56908ZM5.98771 6.66754L5.19313 5.93409L5.17123 5.95781L5.15079 5.98279L5.98771 6.66754ZM5.91954 6.75086L6.74056 7.45459L6.74862 7.44519L6.75646 7.43561L5.91954 6.75086ZM5.82865 6.8569L5.00763 6.15316L4.99262 6.17068L4.97837 6.18882L5.82865 6.8569ZM5.74534 6.96293L4.89501 6.29482L4.88823 6.30362L5.74534 6.96293ZM5.66959 7.0614L4.81243 6.40204L4.80452 6.41259L5.66959 7.0614ZM5.60143 7.15229L4.73635 6.50348L4.72699 6.51595L4.718 6.52869L5.60143 7.15229ZM5.51054 7.28104L4.62711 6.65745L4.6188 6.66923L4.6108 6.68122L5.51054 7.28104ZM5.35906 7.50827L4.45932 6.90844L4.45192 6.91955L4.44479 6.93084L5.35906 7.50827ZM5.26817 7.65218L4.3539 7.07475L4.33543 7.104L4.31886 7.13437L5.26817 7.65218ZM5.22272 7.73549L6.13501 8.31604L6.15458 8.28529L6.17203 8.2533L5.22272 7.73549ZM5.1697 7.81881L4.25741 7.23826L4.23785 7.269L4.2204 7.301L5.1697 7.81881ZM5.07882 7.98544L4.12951 7.46763L4.12566 7.47469L4.12191 7.4818L5.07882 7.98544ZM5.00307 8.12934L4.04617 7.62571L4.03557 7.64586L4.02582 7.66643L5.00307 8.12934ZM4.93491 8.27325L3.9576 7.81032L3.95309 7.8201L4.93491 8.27325ZM4.84402 8.47018L3.8622 8.01703L3.85491 8.03282L3.84813 8.04884L4.84402 8.47018ZM4.7607 8.6671L3.76482 8.24577L3.7567 8.26495L3.74933 8.28442L4.7607 8.6671ZM4.65467 8.94735L3.6433 8.56466L3.63409 8.589L3.62606 8.61375L4.65467 8.94735ZM4.56378 9.22759L3.53518 8.89399L3.52928 8.91215L3.52404 8.93052L4.56378 9.22759ZM4.48804 9.49268L3.4483 9.19561L3.44168 9.21878L3.43609 9.24222L4.48804 9.49268ZM4.4123 9.81079L3.36035 9.56033L3.35502 9.58272L3.35065 9.60531L4.4123 9.81079ZM4.36685 10.0456L3.30521 9.84011L3.30165 9.85847L3.29874 9.87694L4.36685 10.0456ZM4.32141 10.3334L3.25329 10.1648L3.24985 10.1866L3.2473 10.2085L4.32141 10.3334ZM4.28354 10.6591L3.20943 10.5342L3.20618 10.5621L3.20438 10.5902L4.28354 10.6591ZM4.26081 11.0151L3.18166 10.9462L3.17947 10.9806V11.0151H4.26081ZM4.26081 11.5377H3.17947V11.5669L3.18104 11.5961L4.26081 11.5377ZM4.27596 11.8179L3.19619 11.8763L3.19752 11.901L3.19998 11.9255L4.27596 11.8179ZM4.30626 12.1209L3.23028 12.2285L3.23255 12.2512L3.23578 12.2738L4.30626 12.1209ZM4.3517 12.439L3.28122 12.5919L3.28444 12.6144L3.2886 12.6368L4.3517 12.439ZM4.4123 12.7647L3.34919 12.9625L3.35421 12.9895L3.3606 13.0162L4.4123 12.7647ZM4.49561 13.1131L3.44391 13.3646L3.45037 13.3916L3.4582 13.4182L4.49561 13.1131ZM4.57135 13.3706L3.53394 13.6757L3.53939 13.6943L3.5455 13.7126L4.57135 13.3706ZM4.66224 13.6433L3.63638 13.9852L3.64202 14.0021L3.64821 14.0189L4.66224 13.6433ZM4.73798 13.8478L3.72395 14.2234L3.72999 14.2397L3.73655 14.2558L4.73798 13.8478ZM4.8213 14.0523L3.81987 14.4603L3.82692 14.4776L3.83456 14.4946L4.8213 14.0523ZM4.91976 14.2719L3.93302 14.7143L3.94236 14.7351L3.95257 14.7555L4.91976 14.2719ZM5.04095 14.5143L4.07376 14.9979L4.08108 15.0125L4.08885 15.027L5.04095 14.5143ZM5.14698 14.7112L4.19489 15.2239L4.20364 15.2401L4.21294 15.2561L5.14698 14.7112ZM5.25302 14.893L4.31898 15.4379L4.3254 15.4489L4.33208 15.4597L5.25302 14.893ZM5.31361 14.9915L4.39265 15.5582L4.39663 15.5646L5.31361 14.9915ZM5.42722 15.1732L4.51024 15.7464L4.52518 15.7703L4.54135 15.7934L5.42722 15.1732ZM5.53326 15.3247L4.64739 15.9448L4.65196 15.9514L4.65664 15.9578L5.53326 15.3247ZM5.63172 15.4611L4.7551 16.0942L4.7608 16.1021L4.76665 16.1099L5.63172 15.4611ZM5.74534 15.6125L4.88026 16.2614L4.89285 16.2781L4.90609 16.2944L5.74534 15.6125ZM5.8438 15.7337L5.00455 16.4156L5.00688 16.4185L5.8438 15.7337ZM5.91197 15.817L5.07505 16.5018L5.09117 16.5215L5.10821 16.5404L5.91197 15.817ZM5.98013 15.8928L6.81705 15.208L6.80093 15.1883L6.78389 15.1694L5.98013 15.8928ZM6.0483 15.9761L5.21138 16.6609L5.24553 16.7026L5.28366 16.7407L6.0483 15.9761ZM6.10132 16.0291L6.91511 15.317L6.89141 15.29L6.86595 15.2645L6.10132 16.0291ZM6.15434 16.0897L5.34054 16.8018L5.36425 16.8289L5.38971 16.8543L6.15434 16.0897ZM6.24523 16.1806L7.05902 15.4685L7.03531 15.4414L7.00985 15.416L6.24523 16.1806ZM6.29824 16.2412L5.48445 16.9533L5.53557 17.0117L5.59451 17.0622L6.29824 16.2412ZM6.35126 16.2866L7.11589 15.522L7.08653 15.4926L7.05499 15.4656L6.35126 16.2866ZM6.44215 16.3775L5.67752 17.1422L5.70298 17.1676L5.73008 17.1913L6.44215 16.3775ZM6.50274 16.4305L7.26737 15.6659L7.24191 15.6405L7.21482 15.6168L6.50274 16.4305ZM6.58606 16.5139L5.82143 17.2785L5.85957 17.3166L5.90131 17.3508L6.58606 16.5139ZM6.66937 16.582L7.39276 15.7783L7.37383 15.7612L7.35413 15.7451L6.66937 16.582ZM6.74512 16.6502L6.02173 17.454L6.04066 17.471L6.06037 17.4871L6.74512 16.6502ZM6.82843 16.7184L6.14368 17.5553L6.14654 17.5576L6.82843 16.7184ZM6.94962 16.8168L6.26772 17.6561L6.27459 17.6616L6.28154 17.6671L6.94962 16.8168ZM7.05565 16.9001L6.38757 17.7504L6.40338 17.7628L6.41964 17.7747L7.05565 16.9001ZM7.13897 16.9607L6.50295 17.8353L6.50585 17.8374L7.13897 16.9607ZM7.2753 17.0592L6.64219 17.9358L6.65333 17.9439L6.66468 17.9516L7.2753 17.0592ZM7.41921 17.1577L6.80858 18.0501L6.8223 18.0595L6.83631 18.0684L7.41921 17.1577ZM7.60856 17.2788L7.02566 18.1896L7.0451 18.2021L7.06506 18.2137L7.60856 17.2788ZM7.93425 17.4682L7.39074 18.403L7.41487 18.4171L7.4397 18.4298L7.93425 17.4682ZM8.19934 17.6045L7.70479 18.5662L7.72528 18.5767L7.74619 18.5864L8.19934 17.6045ZM8.49473 17.7409L8.04158 18.7227L8.06478 18.7334L8.08846 18.743L8.49473 17.7409ZM8.77497 17.8545L8.36871 18.8566L8.38901 18.8648L8.40962 18.8722L8.77497 17.8545ZM9.07036 17.9605L8.70501 18.9783L8.7285 18.9867L8.75235 18.994L9.07036 17.9605ZM9.26729 18.0211L8.94928 19.0546L8.96352 19.059L8.97787 19.063L9.26729 18.0211ZM9.53996 18.0968L9.25054 19.1387L9.27192 19.1447L9.29353 19.1497L9.53996 18.0968ZM9.89594 18.1802L9.64952 19.2331L9.67991 19.2402L9.71066 19.2455L9.89594 18.1802ZM10.2443 18.2408L10.0591 19.3061L10.0872 19.311L10.1155 19.3144L10.2443 18.2408ZM10.6231 18.2862L10.4942 19.3598L10.5181 19.3627L10.5422 19.3645L10.6231 18.2862ZM10.926 18.3089L10.8451 19.3872L10.8681 19.389L10.8912 19.3897L10.926 18.3089ZM11.1608 18.3165L11.1259 19.3973L11.1434 19.3978H11.1608V18.3165ZM11.3956 18.3165V19.3978H11.4136L11.4316 19.3972L11.3956 18.3165ZM11.6228 18.3089L11.6589 19.3897L11.6768 19.3891L11.6948 19.3879L11.6228 18.3089ZM11.8501 18.2938L11.922 19.3727L11.9412 19.3714L11.9604 19.3695L11.8501 18.2938ZM12.1454 18.2635L12.2558 19.3392L12.2771 19.337L12.2984 19.334L12.1454 18.2635ZM12.4636 18.218L12.6165 19.2885L12.6406 19.2851L12.6646 19.2805L12.4636 18.218ZM12.7438 18.165L12.9448 19.2275L12.966 19.2235L12.9869 19.2187L12.7438 18.165ZM13.0392 18.0968L13.2823 19.1505L13.3062 19.145L13.3299 19.1384L13.0392 18.0968ZM13.3649 18.006L13.6555 19.0475L13.6849 19.0393L13.7138 19.0295L13.3649 18.006ZM13.6981 17.8923L14.0471 18.9159L14.0658 18.9095L14.0843 18.9024L13.6981 17.8923ZM13.9557 17.7939L14.3418 18.8039L14.3619 18.7963L14.3816 18.7878L13.9557 17.7939ZM14.1677 17.703L14.5937 18.6969L14.6142 18.6881L14.6343 18.6785L14.1677 17.703ZM14.3419 17.6197L14.8085 18.5952L14.817 18.5911L14.8255 18.5869L14.3419 17.6197ZM14.4631 17.5591L14.9467 18.5263L14.955 18.5221L14.9633 18.5178L14.4631 17.5591ZM14.6373 17.4682L15.1375 18.4269L15.1501 18.4203L15.1625 18.4135L14.6373 17.4682ZM14.7737 17.3925L15.2988 18.3377L15.3087 18.3322L15.3185 18.3265L14.7737 17.3925ZM14.9554 17.2864L15.5003 18.2205L15.5168 18.2109L15.5329 18.2007L14.9554 17.2864ZM15.0993 17.1955L15.6768 18.1098L15.6881 18.1027L15.6992 18.0953L15.0993 17.1955ZM15.2811 17.0743L15.8809 17.9741L15.8929 17.9661L15.9047 17.9578L15.2811 17.0743ZM15.4099 16.9835L16.0335 17.8669L16.0425 17.8605L16.0513 17.854L15.4099 16.9835ZM15.5538 16.8774L16.1952 17.748L16.2087 17.738L16.2219 17.7277L15.5538 16.8774ZM15.7659 16.7108L16.4339 17.5611L16.4645 17.5371L16.4933 17.5109L15.7659 16.7108ZM15.8492 16.635L15.1644 15.7981L15.1426 15.816L15.1218 15.8349L15.8492 16.635ZM15.9325 16.5669L16.6172 17.4038L16.639 17.386L16.6599 17.367L15.9325 16.5669ZM16.0158 16.4911L15.3037 15.6773L15.296 15.6841L15.2884 15.691L16.0158 16.4911ZM16.0764 16.4381L16.7885 17.2519L16.8156 17.2282L16.841 17.2027L16.0764 16.4381ZM16.1597 16.3548L15.429 15.5577L15.4117 15.5736L15.3951 15.5902L16.1597 16.3548ZM16.2506 16.2715L16.9813 17.0686L17.0252 17.0284L17.0644 16.9836L16.2506 16.2715ZM16.3036 16.2109L15.539 15.4463L15.5135 15.4717L15.4898 15.4988L16.3036 16.2109ZM16.3869 16.1276L17.1516 16.8922L17.1668 16.8769L17.1815 16.861L16.3869 16.1276ZM16.4778 16.0291L17.2724 16.7626L17.2822 16.752L17.2916 16.7412L16.4778 16.0291ZM16.5308 15.9685L15.7337 15.2378L15.7253 15.2471L15.717 15.2565L16.5308 15.9685ZM16.6142 15.8776L17.4113 16.6083L17.4318 16.5859L17.4511 16.5624L16.6142 15.8776ZM16.6823 15.7943L15.8568 15.0958L15.8511 15.1027L15.8454 15.1096L16.6823 15.7943ZM16.7656 15.6959L17.5911 16.3944L17.6038 16.3794L17.6159 16.3639L16.7656 15.6959ZM16.849 15.5898L17.6992 16.2579L17.7042 16.2516L17.7091 16.2452L16.849 15.5898ZM16.9701 15.4308L17.8303 16.0861L17.8422 16.0704L17.8536 16.0544L16.9701 15.4308ZM17.061 15.302L17.9445 15.9256L17.949 15.9191L17.9535 15.9126L17.061 15.302ZM17.1595 15.1581L18.0519 15.7687L18.0621 15.7539L18.0718 15.7386L17.1595 15.1581ZM17.2655 14.9915L18.1778 15.572L18.1831 15.5637L18.1882 15.5553L17.2655 14.9915ZM17.3488 14.8551L18.2715 15.419L18.2812 15.4033L18.2902 15.3872L17.3488 14.8551ZM17.4473 14.6809L18.3887 15.213L18.3927 15.2059L18.3966 15.1987L17.4473 14.6809ZM17.5382 14.5143L18.4875 15.0321L18.4967 15.0152L18.5054 14.9979L17.5382 14.5143ZM17.6139 14.3628L18.5811 14.8464L18.5896 14.8295L18.5974 14.8124L17.6139 14.3628ZM17.7351 14.0977L18.7186 14.5473L18.7262 14.5306L18.7333 14.5136L17.7351 14.0977ZM17.8109 13.9159L18.809 14.3319L18.8143 14.3191L18.8193 14.3063L17.8109 13.9159ZM17.9018 13.6812L18.9102 14.0715L18.9195 14.0475L18.9276 14.0231L17.9018 13.6812ZM17.9926 13.4085L19.0185 13.7504L19.0237 13.7349L19.0284 13.7192L17.9926 13.4085ZM18.0608 13.1813L19.0966 13.492L19.1024 13.4724L19.1075 13.4526L18.0608 13.1813ZM18.1138 12.9768L19.1606 13.2481L19.1642 13.2341L19.1675 13.2199L18.1138 12.9768ZM18.182 12.6814L19.2356 12.9245L19.242 12.8971L19.2469 12.8693L18.182 12.6814ZM18.2274 12.4239L19.2923 12.6118L19.2954 12.5943L19.2979 12.5768L18.2274 12.4239ZM18.2729 12.1057L19.3434 12.2587L19.3468 12.2344L19.3492 12.2099L18.2729 12.1057ZM18.2956 11.8709L19.3719 11.9751L19.3734 11.9602L19.3744 11.9453L18.2956 11.8709ZM18.3108 11.6513L19.3895 11.7257L19.3911 11.7035L19.3917 11.6813L18.3108 11.6513ZM18.3183 11.3786L19.3993 11.4087L19.3997 11.3936V11.3786H18.3183ZM18.3183 11.1893H19.3997V11.1738L19.3992 11.1584L18.3183 11.1893ZM18.3108 10.9242L19.3917 10.8933L19.3912 10.877L19.3902 10.8607L18.3108 10.9242ZM18.3032 10.7954L19.3827 10.7319L19.3816 10.7147L19.3801 10.6975L18.3032 10.7954ZM18.2805 10.5455L19.3574 10.4476L19.3555 10.4266L19.3527 10.4056L18.2805 10.5455ZM18.235 10.1971L19.3073 10.0572L19.3045 10.0357L19.3008 10.0144L18.235 10.1971ZM18.1896 9.93198L19.2554 9.74927L19.2507 9.72206L19.2447 9.69512L18.1896 9.93198ZM18.1063 9.56085L19.1613 9.32399L19.1553 9.29691L19.1478 9.27018L18.1063 9.56085ZM18.0154 9.23516L19.0569 8.9445L19.0513 8.92426L19.0448 8.90426L18.0154 9.23516ZM17.9472 9.02309L18.9767 8.69218L18.9708 8.67389L18.9643 8.65581L17.9472 9.02309ZM17.8487 8.75042L18.8658 8.38315L18.8577 8.36073L18.8486 8.3387L17.8487 8.75042ZM17.7427 8.4929L18.7426 8.08118L18.7363 8.06577L18.7294 8.05057L17.7427 8.4929ZM17.6442 8.27325L18.631 7.83092L18.6216 7.81008L18.6114 7.78966L17.6442 8.27325ZM17.5609 8.10662L18.5281 7.62303L18.5213 7.60941L18.5141 7.59599L17.5609 8.10662ZM17.4473 7.89455L18.4005 7.38391L18.3935 7.37088L18.3862 7.35805L17.4473 7.89455ZM17.3564 7.73549L18.2954 7.19895L18.2885 7.18723L17.3564 7.73549ZM17.2807 7.60673L18.2127 7.05847L18.2024 7.04095L18.1915 7.02383L17.2807 7.60673ZM17.1595 7.41738L18.0703 6.83447L18.0648 6.82596L18.0592 6.81754L17.1595 7.41738ZM17.0837 7.30377L17.9835 6.70393L17.9738 6.68943L17.9637 6.67525L17.0837 7.30377ZM17.008 7.19773L17.888 6.5692L17.8846 6.56462L17.008 7.19773ZM16.9095 7.0614L17.7862 6.42828L17.7749 6.41269L17.7631 6.39752L16.9095 7.0614ZM16.8035 6.92506L17.6571 6.26117L17.6538 6.25698L16.8035 6.92506ZM16.7202 6.81903L17.5705 6.15094L17.5544 6.13048L17.5374 6.11082L16.7202 6.81903ZM16.6217 6.70541L15.8007 7.40916L15.8046 7.41362L16.6217 6.70541ZM16.5308 6.59938L17.3519 5.89561L17.3446 5.88731L16.5308 6.59938ZM16.4778 6.53878L17.2916 5.82671L17.2679 5.79962L17.2425 5.77416L16.4778 6.53878ZM16.4021 6.46304L15.5883 7.17512L15.612 7.20221L15.6375 7.22767L16.4021 6.46304ZM16.3491 6.40245L17.1629 5.69038L17.1392 5.66328L17.1137 5.63782L16.3491 6.40245ZM16.2127 6.26612L16.9774 5.50149L16.9519 5.47603L16.9248 5.45232L16.2127 6.26612ZM16.1521 6.2131L15.3875 6.97773L15.413 7.00318L15.4401 7.02689L16.1521 6.2131ZM16.0915 6.15251L16.8562 5.38788L16.8361 5.36777L16.8149 5.34874L16.0915 6.15251ZM16.0158 6.08434L16.7392 5.28058L16.7336 5.27552L16.7279 5.27054L16.0158 6.08434ZM15.9552 6.03132L15.2318 6.83508L15.2374 6.84014L15.2431 6.84512L15.9552 6.03132ZM15.8795 5.96315L16.6029 5.15939L16.5953 5.15262L16.5877 5.14599L15.8795 5.96315ZM15.7659 5.86469L16.4741 5.04753L16.4544 5.03049L16.4339 5.01441L15.7659 5.86469ZM15.6598 5.78137L14.9779 6.62062L14.9848 6.6262L14.9917 6.63166L15.6598 5.78137ZM15.5386 5.68291L16.2205 4.84366L16.1945 4.82249L16.1672 4.80298L15.5386 5.68291ZM15.4326 5.60717L14.7995 6.48381L14.8041 6.4871L15.4326 5.60717ZM15.2963 5.50871L15.9294 4.63208L15.9175 4.62351L15.9054 4.61527L15.2963 5.50871ZM15.1296 5.3951L15.7388 4.50166L15.7246 4.49201L15.7102 4.48281L15.1296 5.3951ZM14.963 5.28906L15.5436 4.37677L15.5316 4.36913L15.5194 4.36181L14.963 5.28906ZM14.8115 5.19817L15.3679 4.27092L15.354 4.2626L15.3399 4.25469L14.8115 5.19817ZM14.6222 5.09213L15.1505 4.14865L15.1383 4.14178L15.1258 4.13523L14.6222 5.09213ZM14.4783 5.01639L14.9819 4.05949L14.9642 4.05018L14.9462 4.04153L14.4783 5.01639ZM14.2889 4.9255L14.7568 3.95064L14.7477 3.94626L14.7385 3.94205L14.2889 4.9255ZM14.0238 4.80432L14.4734 3.82086L14.446 3.80832L14.4179 3.79732L14.0238 4.80432ZM13.6754 4.66798L14.0695 3.66099L14.0404 3.6496L14.0106 3.63991L13.6754 4.66798ZM13.327 4.55437L13.6622 3.5263L13.6433 3.52011L13.6241 3.51463L13.327 4.55437ZM13.0619 4.47863L13.359 3.43889L13.3344 3.43188L13.3096 3.42603L13.0619 4.47863ZM12.8044 4.41804L13.0521 3.36544L13.0319 3.36068L13.0115 3.35671L12.8044 4.41804ZM12.4939 4.35745L12.7009 3.29611L12.674 3.29085L12.6468 3.28697L12.4939 4.35745ZM12.1227 4.30443L12.2756 3.23395L12.2493 3.23019L12.2229 3.22773L12.1227 4.30443ZM11.797 4.27413L11.8972 3.19743L11.8763 3.19549L11.8554 3.19436L11.797 4.27413ZM10.9681 2.08135H11.6223V-0.0813472H10.9681V2.08135ZM10.747 2.0915L11.0132 2.08041L10.9231 -0.0804098L10.657 -0.0693218L10.747 2.0915ZM10.3525 2.12251L10.785 2.08925L10.6191 -0.0670741L10.1867 -0.03381L10.3525 2.12251ZM9.93173 2.17356L10.3974 2.11812L10.1418 -0.029413L9.67607 0.0260272L9.93173 2.17356ZM9.46421 2.25451L9.98535 2.16581L9.62245 0.0337773L9.10131 0.122482L9.46421 2.25451ZM8.9763 2.36555L9.51962 2.24358L9.0459 0.133408L8.50259 0.255377L8.9763 2.36555ZM8.62969 2.46324L9.02886 2.35236L8.45003 0.268567L8.05086 0.379448L8.62969 2.46324ZM8.16547 2.61573L8.67552 2.44941L8.00504 0.393276L7.49499 0.559597L8.16547 2.61573ZM7.83942 2.74184L8.21642 2.5977L7.44404 0.577631L7.06705 0.721776L7.83942 2.74184ZM7.52769 2.87317L7.87142 2.72902L7.03505 0.734598L6.69132 0.878742L7.52769 2.87317ZM7.23415 3.01109L7.56679 2.85585L6.65222 0.896056L6.31958 1.05129L7.23415 3.01109ZM7.08305 3.08708L7.26046 2.99837L6.29327 1.064L6.11586 1.15271L7.08305 3.08708ZM6.84837 3.21486L7.11448 3.07071L6.08443 1.16907L5.81832 1.31322L6.84837 3.21486ZM6.55938 3.38032L6.86984 3.20291L5.79685 1.32516L5.48638 1.50257L6.55938 3.38032ZM6.44547 3.45109L6.58961 3.36238L5.45615 1.52051L5.312 1.60921L6.44547 3.45109ZM6.21535 3.59767L6.45928 3.44244L5.29819 1.61786L5.05425 1.77309L6.21535 3.59767ZM6.10157 3.67382L6.23462 3.58512L5.03497 1.78565L4.90192 1.87435L6.10157 3.67382ZM5.90009 3.81519L6.12185 3.65996L4.88163 1.88821L4.65987 2.04344L5.90009 3.81519ZM5.71076 3.95509L5.92144 3.79986L4.63853 2.05877L4.42785 2.21401L5.71076 3.95509ZM5.58216 4.0568L5.73739 3.93483L4.40123 2.23427L4.246 2.35624L5.58216 4.0568ZM5.42924 4.1745L5.57338 4.06362L4.25477 2.34942L4.11062 2.4603L5.42924 4.1745ZM5.1632 4.40453L5.47366 4.13842L4.0662 2.49638L3.75573 2.76249L5.1632 4.40453ZM5.08283 4.47492L5.17154 4.39731L3.74739 2.76972L3.65869 2.84733L5.08283 4.47492ZM5.0356 4.52555L5.13539 4.42576L3.60613 2.8965L3.50634 2.99629L5.0356 4.52555ZM4.89434 4.65233L4.98304 4.57472L3.5589 2.94712L3.47019 3.02474L4.89434 4.65233ZM5.19703 4.21375L5.20812 4.18049L3.15641 3.49658L3.14532 3.52985L5.19703 4.21375ZM4.149 4.95315H4.17118V2.79045H4.149V4.95315ZM4.66969 4.88037L4.91363 4.63643L3.38437 3.10717L3.14044 3.35111L4.66969 4.88037ZM4.64125 4.91651L4.71886 4.82781L3.09127 3.40367L3.01365 3.49237L4.64125 4.91651ZM4.50337 5.05777L4.59208 4.96907L3.06282 3.43981L2.97412 3.52852L4.50337 5.05777ZM4.47492 5.09392L4.55254 5.00522L2.92495 3.58107L2.84733 3.66978L4.47492 5.09392ZM4.32265 5.25945L4.45571 5.11531L2.86655 3.64839L2.73349 3.79254L4.32265 5.25945ZM4.26519 5.33271L4.36499 5.21075L2.69116 3.84124L2.59136 3.96321L4.26519 5.33271ZM4.11624 5.50693L4.2493 5.35169L2.60726 3.94423L2.4742 4.09946L4.11624 5.50693ZM4.02354 5.62651L4.14551 5.47127L2.44494 4.13512L2.32297 4.29035L4.02354 5.62651ZM3.91948 5.76188L4.03036 5.61774L2.31615 4.29912L2.20527 4.44326L3.91948 5.76188ZM3.82766 5.88444L3.92745 5.75138L2.1973 4.45376L2.0975 4.58682L3.82766 5.88444ZM3.71295 6.04772L3.84601 5.85922L2.07916 4.61203L1.9461 4.80053L3.71295 6.04772ZM3.5075 6.35659L3.72926 6.02395L1.92979 4.8243L1.70803 5.15694L3.5075 6.35659ZM3.38898 6.54487L3.52203 6.3342L1.6935 5.17933L1.56044 5.39001L3.38898 6.54487ZM3.35749 6.60721L3.42402 6.48524L1.5254 5.44963L1.45887 5.5716L3.35749 6.60721ZM3.24286 6.79192L3.32047 6.66996L1.49589 5.50886L1.41827 5.63083L3.24286 6.79192ZM3.14682 6.97312L3.27987 6.72918L1.38125 5.69357L1.2482 5.93751L3.14682 6.97312ZM3.04353 7.16962L3.15441 6.95895L1.2406 5.95168L1.12972 6.16235L3.04353 7.16962ZM2.96409 7.33957L3.06388 7.12889L1.10937 6.20307L1.00958 6.41375L2.96409 7.33957ZM2.8356 7.61809L2.96865 7.3298L1.00502 6.42351L0.871959 6.7118L2.8356 7.61809ZM2.7277 7.87457L2.84966 7.58628L0.857893 6.74361L0.735925 7.0319L2.7277 7.87457ZM2.58795 8.24617L2.74318 7.83592L0.720441 7.07056L0.565208 7.48081L2.58795 8.24617ZM2.47212 8.60735L2.60518 8.19709L0.547976 7.52989L0.414919 7.94015L2.47212 8.60735ZM2.37238 8.9589L2.48326 8.57082L0.40378 7.97668L0.2929 8.36476L2.37238 8.9589ZM2.2737 9.37799L2.38458 8.91229L0.2807 8.41137L0.169819 8.87707L2.2737 9.37799ZM2.21688 9.67674L2.28341 9.33301L0.160116 8.92205L0.0935875 9.26578L2.21688 9.67674ZM2.15682 10.0613L2.22335 9.63991L0.0871177 9.30261L0.0205895 9.72395L2.15682 10.0613ZM2.10737 10.4943L2.16281 10.0175L0.0145941 9.76771L-0.0408461 10.2445L2.10737 10.4943ZM2.07915 10.9594L2.11242 10.4383L-0.045887 10.3005L-0.0791512 10.8216L2.07915 10.9594ZM2.08135 11.6556V10.8905H-0.0813472V11.6556H2.08135ZM2.10195 12.0075L2.07977 11.5972L-0.0797709 11.714L-0.0575949 12.1242L2.10195 12.0075ZM2.14251 12.4018L2.09816 11.9583L-0.0538046 12.1735L-0.00945246 12.617L2.14251 12.4018ZM2.20354 12.8222L2.13701 12.3565L-0.00395095 12.6623L0.0625772 13.128L2.20354 12.8222ZM2.28487 13.2541L2.19616 12.7773L0.0699514 13.1729L0.158656 13.6496L2.28487 13.2541ZM2.39542 13.7104L2.27346 13.2004L0.170065 13.7034L0.292034 14.2134L2.39542 13.7104ZM2.49202 14.0338L2.38114 13.6568L0.306322 14.267L0.417202 14.644L2.49202 14.0338ZM2.61352 14.3961L2.48047 13.997L0.428753 14.6809L0.561809 15.08L2.61352 14.3961ZM2.71258 14.6619L2.6017 14.3625L0.573634 15.1136L0.684514 15.413L2.71258 14.6619ZM2.82194 14.9288L2.69997 14.6295L0.697119 15.4454L0.819087 15.7448L2.82194 14.9288ZM2.9514 15.216L2.80725 14.8945L0.833775 15.7792L0.977919 16.1007L2.9514 15.216ZM3.10925 15.5296L2.93185 15.1748L0.997472 16.142L1.17488 16.4968L3.10925 15.5296ZM3.2494 15.7888L3.09416 15.5005L1.18997 16.5259L1.3452 16.8142L3.2494 15.7888ZM3.38658 16.0227L3.23134 15.7566L1.36326 16.8463L1.51849 17.1125L3.38658 16.0227ZM3.46217 16.145L3.37347 16.0009L1.53159 17.1343L1.6203 17.2785L3.46217 16.145ZM3.62454 16.4047L3.45822 16.1386L1.62426 17.2849L1.79058 17.551L3.62454 16.4047ZM3.74866 16.5795L3.59343 16.3577L1.82168 17.598L1.97692 17.8197L3.74866 16.5795ZM3.88356 16.7661L3.73942 16.5665L1.98616 17.8327L2.13031 18.0323L3.88356 16.7661ZM4.03833 16.9722L3.87201 16.7504L2.14185 18.048L2.30818 18.2698L4.03833 16.9722ZM4.15665 17.1165L4.0125 16.9391L2.33401 18.3029L2.47815 18.4803L4.15665 17.1165ZM4.2541 17.2356L4.15431 17.1136L2.48049 18.4831L2.58028 18.6051L4.2541 17.2356ZM4.32075 17.3078L4.22096 17.197L2.61343 18.6437L2.71322 18.7546L4.32075 17.3078ZM4.45369 17.4684L4.3539 17.3465L2.68007 18.716L2.77986 18.8379L4.45369 17.4684ZM4.45902 17.4662L4.3814 17.3886L2.85215 18.9178L2.92977 18.9954L4.45902 17.4662ZM4.58581 17.6074L4.50819 17.5187L2.88059 18.9429L2.95821 19.0316L4.58581 17.6074ZM4.66969 17.6879L4.53664 17.5549L3.00738 19.0841L3.14044 19.2172L4.66969 17.6879ZM4.79647 17.8292L4.71886 17.7405L3.09127 19.1646L3.16889 19.2533L4.79647 17.8292ZM4.76403 17.7868L4.68641 17.7202L3.27895 19.3623L3.35656 19.4288L4.76403 17.7868ZM4.95798 17.9762L4.82493 17.8432L3.29567 19.3724L3.42872 19.5055L4.95798 17.9762ZM4.99413 18.0047L4.90542 17.9271L3.48128 19.5547L3.56999 19.6323L4.99413 18.0047ZM5.16866 18.1758L5.04669 18.0538L3.51743 19.5831L3.63939 19.7051L5.16866 18.1758ZM5.21074 18.2033L5.08878 18.1035L3.71928 19.7774L3.84124 19.8771L5.21074 18.2033ZM5.36026 18.3363L5.24938 18.2365L3.80261 19.844L3.91349 19.9438L5.36026 18.3363ZM5.44359 18.4029L5.32163 18.3031L3.95212 19.9769L4.07409 20.0767L5.44359 18.4029ZM5.61814 18.5447L5.44073 18.4006L4.07695 20.0791L4.25436 20.2232L5.61814 18.5447ZM5.75956 18.6556L5.60433 18.5337L4.26818 20.2342L4.42341 20.3562L5.75956 18.6556ZM5.84947 18.7201L5.72751 18.6314L4.45546 20.3804L4.57743 20.4692L5.84947 18.7201ZM6.04615 18.8621L5.84657 18.718L4.58034 20.4713L4.77992 20.6154L6.04615 18.8621ZM6.23433 18.9905L6.02366 18.8463L4.80242 20.6312L5.01309 20.7754L6.23433 18.9905ZM6.48382 19.1495L6.20662 18.9721L5.0408 20.7937L5.318 20.9711L6.48382 19.1495ZM6.9212 19.4027L6.44442 19.1255L5.3574 20.9952L5.83419 21.2724L6.9212 19.4027ZM7.26033 19.5755L6.87225 19.3759L5.88314 21.2992L6.27122 21.4987L7.26033 19.5755ZM7.65135 19.7549L7.21892 19.5553L6.31263 21.5189L6.74507 21.7185L7.65135 19.7549ZM8.01474 19.9009L7.60448 19.7346L6.79194 21.7388L7.2022 21.9051L8.01474 19.9009ZM8.40625 20.0405L7.97382 19.8853L7.24312 21.9208L7.67555 22.076L8.40625 20.0405ZM8.6472 20.1134L8.35891 20.0247L7.7229 22.0918L8.01118 22.1805L8.6472 20.1134ZM9.01777 20.2159L8.6186 20.1051L8.03977 22.1889L8.43894 22.2997L9.01777 20.2159ZM9.49592 20.3269L8.97478 20.2049L8.48194 22.3107L9.00307 22.4327L9.49592 20.3269ZM9.94483 20.4032L9.43478 20.3144L9.06422 22.4452L9.57427 22.5339L9.94483 20.4032ZM10.4428 20.4614L9.88838 20.3949L9.63071 22.5422L10.1851 22.6087L10.4428 20.4614ZM10.8383 20.49L10.3948 20.4567L10.2331 22.6134L10.6766 22.6466L10.8383 20.49ZM11.1361 20.4986L10.7923 20.4875L10.7226 22.6491L11.0663 22.6602L11.1361 20.4986ZM11.4449 20.498H11.1012V22.6607H11.4449V20.498ZM11.7415 20.4876L11.4089 20.4986L11.481 22.6601L11.8136 22.649L11.7415 20.4876ZM12.0383 20.4672L11.7056 20.4893L11.8495 22.6473L12.1821 22.6251L12.0383 20.4672ZM12.4323 20.4261L11.9999 20.4704L12.2205 22.6218L12.653 22.5775L12.4323 20.4261ZM12.8554 20.3648L12.3897 20.4313L12.6956 22.5723L13.1613 22.5057L12.8554 20.3648ZM13.2176 20.2951L12.8073 20.3727L13.2094 22.4977L13.6196 22.4201L13.2176 20.2951ZM13.6079 20.2042L13.1754 20.304L13.6617 22.4113L14.0942 22.3115L13.6079 20.2042ZM14.0372 20.0832L13.5604 20.2163L14.1417 22.2994L14.6185 22.1663L14.0372 20.0832ZM14.4668 19.935L13.9789 20.1013L14.6767 22.1483L15.1646 21.982L14.4668 19.935ZM14.8065 19.8043L14.4295 19.9484L15.2019 21.9685L15.5789 21.8244L14.8065 19.8043ZM15.0772 19.6873L14.7667 19.8204L15.6186 21.8082L15.9291 21.6752L15.0772 19.6873ZM15.2916 19.5838L15.0366 19.7057L15.9697 21.6568L16.2247 21.5348L15.2916 19.5838ZM15.452 19.5034L15.2746 19.5921L16.2418 21.5265L16.4192 21.4378L15.452 19.5034ZM15.6904 19.3788L15.4354 19.5119L16.4358 21.4293L16.6908 21.2962L15.6904 19.3788ZM15.865 19.2814L15.6655 19.3923L16.7158 21.2828L16.9153 21.1719L15.865 19.2814ZM16.1114 19.1374L15.8453 19.2926L16.935 21.1607L17.2012 21.0055L16.1114 19.1374ZM16.2895 19.0241L16.0789 19.1572L17.2337 20.9857L17.4444 20.8526L16.2895 19.0241ZM16.5333 18.8612L16.2672 19.0386L17.4668 20.8381L17.7329 20.6607L16.5333 18.8612ZM16.698 18.7445L16.5095 18.8775L17.7567 20.6444L17.9452 20.5113L16.698 18.7445ZM16.8908 18.6021L16.6801 18.7573L17.963 20.4984L18.1737 20.3432L16.8908 18.6021ZM17.1746 18.3784L16.8642 18.6224L18.2003 20.3229L18.5108 20.079L17.1746 18.3784ZM17.2373 18.3177L17.1153 18.4286L18.5701 20.0289L18.6921 19.918L17.2373 18.3177ZM17.4019 18.1811L17.2799 18.2809L18.6494 19.9548L18.7714 19.855L17.4019 18.1811ZM17.4812 18.107L17.3593 18.2179L18.814 19.8182L18.936 19.7073L17.4812 18.107ZM17.5853 18.0158L17.4966 18.0934L18.9207 19.721L19.0094 19.6434L17.5853 18.0158ZM17.6547 17.943L17.5327 18.0649L19.062 19.5942L19.1839 19.4722L17.6547 17.943ZM17.8217 17.7885L17.6886 17.9105L19.15 19.5047L19.283 19.3827L17.8217 17.7885ZM17.8162 17.7848L17.7386 17.8736L19.3662 19.2977L19.4438 19.209L17.8162 17.7848ZM17.9873 17.6103L17.8654 17.7323L19.3946 19.2615L19.5166 19.1396L17.9873 17.6103ZM18.0904 17.4974L17.9574 17.6415L19.5465 19.1084L19.6796 18.9643L18.0904 17.4974ZM18.1488 17.43L18.0712 17.5187L19.6988 18.9429L19.7764 18.8542L18.1488 17.43ZM18.2875 17.2784L18.1655 17.4114L19.7597 18.8728L19.8817 18.7397L18.2875 17.2784ZM18.3475 17.2023L18.2477 17.3243L19.9215 18.6938L20.0213 18.5718L18.3475 17.2023ZM18.4809 17.0444L18.3589 17.1886L20.0099 18.5856L20.1318 18.4414L18.4809 17.0444ZM18.578 16.9196L18.4561 17.0749L20.1566 18.411L20.2786 18.2558L18.578 16.9196ZM18.7456 16.6995L18.5682 16.9324L20.2885 18.243L20.4659 18.0102L18.7456 16.6995ZM18.8553 16.5428L18.7223 16.7313L20.4891 17.9784L20.6222 17.7899L18.8553 16.5428ZM18.9905 16.3451L18.8463 16.5557L20.6312 17.777L20.7754 17.5663L18.9905 16.3451ZM19.1259 16.1312L18.9706 16.3751L20.7952 17.5362L20.9504 17.2923L19.1259 16.1312ZM19.2374 15.9483L19.1155 16.1479L20.9608 17.2756L21.0828 17.076L19.2374 15.9483ZM19.3629 15.725L19.2187 15.9801L21.1015 17.0442L21.2456 16.7892L19.3629 15.725ZM19.488 15.4954L19.355 15.7393L21.2536 16.7749L21.3866 16.531L19.488 15.4954ZM19.581 15.3078L19.4701 15.5296L21.4045 16.4968L21.5154 16.275L19.581 15.3078ZM19.7422 14.9538L19.5647 15.3419L21.5317 16.241L21.7091 15.8529L19.7422 14.9538ZM19.8383 14.7213L19.7274 14.9875L21.7238 15.8193L21.8347 15.5531L19.8383 14.7213ZM19.9611 14.4032L19.8281 14.7469L21.8449 15.5276L21.978 15.1839L19.9611 14.4032ZM20.0767 14.0524L19.9437 14.4516L21.9954 15.1355L22.1285 14.7363L20.0767 14.0524ZM20.1667 13.751L20.0669 14.0836L22.1383 14.7051L22.2381 14.3724L20.1667 13.751ZM20.2333 13.491L20.1557 13.7903L22.2491 14.3331L22.3268 14.0337L20.2333 13.491ZM20.3261 13.0867L20.2264 13.5192L22.3337 14.0055L22.4335 13.573L20.3261 13.0867ZM20.3814 12.765L20.3149 13.142L22.4447 13.5178L22.5112 13.1408L20.3814 12.765ZM20.4424 12.3343L20.3759 12.8L22.5168 13.1058L22.5833 12.6401L20.4424 12.3343ZM20.4698 12.0393L20.4365 12.383L22.5892 12.5914L22.6224 12.2476L20.4698 12.0393ZM20.4895 11.7475L20.4673 12.0691L22.6249 12.2179L22.6471 11.8963L20.4895 11.7475ZM20.4985 11.3927L20.4874 11.7919L22.6492 11.8519L22.6603 11.4528L20.4985 11.3927ZM20.498 11.1455V11.4228H22.6607V11.1455H20.498ZM20.4874 10.7884L20.4985 11.1764L22.6603 11.1147L22.6492 10.7266L20.4874 10.7884ZM20.4777 10.6325L20.4888 10.821L22.6478 10.694L22.6367 10.5055L20.4777 10.6325ZM20.447 10.301L20.4803 10.6669L22.6341 10.4711L22.6009 10.1052L20.447 10.301ZM20.3852 9.83288L20.4517 10.3429L22.5962 10.0632L22.5297 9.55316L20.3852 9.83288ZM20.3251 9.48765L20.3916 9.87573L22.5232 9.51031L22.4567 9.12223L20.3251 9.48765ZM20.2138 8.99848L20.3358 9.54179L22.446 9.06808L22.324 8.52477L20.2138 8.99848ZM20.0943 8.5755L20.2274 9.05229L22.3105 8.47096L22.1774 7.99417L20.0943 8.5755ZM20.0066 8.30528L20.1064 8.61574L22.1653 7.95394L22.0655 7.64347L20.0066 8.30528ZM19.8749 7.94248L20.019 8.34165L22.0531 7.6071L21.909 7.20793L19.8749 7.94248ZM19.7368 7.60993L19.892 7.98693L21.8918 7.16348L21.7366 6.78649L19.7368 7.60993ZM19.6058 7.31899L19.75 7.64054L21.7234 6.75588L21.5793 6.43433L19.6058 7.31899ZM19.5034 7.11631L19.6254 7.36025L21.5597 6.39307L21.4378 6.14913L19.5034 7.11631ZM19.3511 6.83289L19.5174 7.14336L21.4238 6.12209L21.2575 5.81162L19.3511 6.83289ZM19.2323 6.62591L19.3654 6.85876L21.2431 5.78576L21.1101 5.55291L19.2323 6.62591ZM19.1283 6.44917L19.2392 6.63767L21.1033 5.54114L20.9924 5.35265L19.1283 6.44917ZM18.9721 6.20662L19.1495 6.48382L20.9711 5.318L20.7937 5.0408L18.9721 6.20662ZM18.8723 6.05721L18.9832 6.22353L20.7827 5.02389L20.6718 4.85757L18.8723 6.05721ZM18.7812 5.93068L18.8921 6.08591L20.652 4.82887L20.5411 4.67364L18.7812 5.93068ZM18.6404 5.73569L18.7845 5.93527L20.5378 4.66904L20.3936 4.46945L18.6404 5.73569ZM18.5082 5.56687L18.6635 5.76646L20.3706 4.43869L20.2153 4.2391L18.5082 5.56687ZM18.3895 5.41583L18.5115 5.57106L20.2121 4.23491L20.0901 4.07968L18.3895 5.41583ZM18.2785 5.28964L18.4227 5.45596L20.057 4.03955L19.9128 3.87323L18.2785 5.28964ZM18.1416 5.12993L18.2747 5.28517L19.9167 3.8777L19.7836 3.72247L18.1416 5.12993ZM18.0712 5.04958L18.1488 5.13828L19.7764 3.71412L19.6988 3.62542L18.0712 5.04958ZM18.0095 4.99124L18.1204 5.10212L19.6496 3.57287L19.5387 3.46199L18.0095 4.99124ZM17.8827 4.84998L17.9603 4.93869L19.5879 3.51455L19.5103 3.42584L17.8827 4.84998ZM17.7323 4.70296L17.9319 4.90254L19.4611 3.37328L19.2615 3.1737L17.7323 4.70296ZM17.6961 4.6745L17.7848 4.75212L19.209 3.12454L19.1203 3.04692L17.6961 4.6745ZM17.5549 4.53664L17.6436 4.62534L19.1728 3.09608L19.0841 3.00738L17.5549 4.53664ZM17.4852 4.47597L17.5961 4.57577L19.0429 2.96825L18.932 2.86846L17.4852 4.47597ZM17.4079 4.4084L17.4966 4.48602L18.9207 2.85842L18.832 2.7808L17.4079 4.4084ZM17.2857 4.29857L17.3965 4.39836L18.8433 2.79084L18.7324 2.69105L17.2857 4.29857ZM17.1345 4.16783L17.3008 4.31197L18.7172 2.67764L18.5509 2.5335L17.1345 4.16783ZM17.0194 4.07898L17.1746 4.20094L18.5108 2.50038L18.3556 2.37841L17.0194 4.07898ZM16.8282 3.9238L17.0056 4.06795L18.3694 2.38944L18.192 2.2453L16.8282 3.9238ZM16.7263 3.8536L16.8816 3.96448L18.1386 2.20462L17.9834 2.09374L16.7263 3.8536ZM16.5221 3.70615L16.7217 3.8503L17.988 2.09704L17.7884 1.9529L16.5221 3.70615ZM16.3022 3.55664L16.5461 3.72296L17.7644 1.93609L17.5205 1.76977L16.3022 3.55664ZM16.0868 3.42026L16.3308 3.5755L17.4919 1.75091L17.2479 1.59568L16.0868 3.42026ZM15.8893 3.30216L16.111 3.43522L17.2237 1.58072L17.002 1.44767L15.8893 3.30216ZM15.6401 3.16317L15.9173 3.3184L16.974 1.43143L16.6968 1.2762L15.6401 3.16317ZM15.4541 3.06571L15.6648 3.17659L16.6721 1.26278L16.4614 1.1519L15.4541 3.06571ZM15.2126 2.95061L15.4898 3.08366L16.4257 1.13394L16.1485 1.00089L15.2126 2.95061ZM14.8429 2.7818L15.231 2.9592L16.1301 0.99229L15.7421 0.814881L14.8429 2.7818ZM14.3884 2.60575L14.8984 2.80534L15.6865 0.791341L15.1765 0.591757L14.3884 2.60575ZM13.9371 2.4605L14.4472 2.62682L15.1177 0.570685L14.6076 0.404364L13.9371 2.4605ZM13.5872 2.36129L13.9753 2.47217L14.5694 0.392692L14.1814 0.281812L13.5872 2.36129ZM13.2596 2.28545L13.6366 2.37415L14.132 0.268951L13.755 0.180247L13.2596 2.28545ZM12.8456 2.20548L13.3002 2.29418L13.7144 0.171517L13.2598 0.0828122L12.8456 2.20548ZM12.3565 2.13701L12.8998 2.21462L13.2056 0.0736653L12.6623 -0.00395095L12.3565 2.13701ZM11.9324 2.09887L12.4092 2.14323L12.6095 -0.0101706L12.1328 -0.0545226L11.9324 2.09887ZM11.564 2.07977L11.9742 2.10195L12.091 -0.0575949L11.6807 -0.0797709L11.564 2.07977ZM11.0699 5.34033H11.5168V3.17764H11.0699V5.34033ZM10.9332 5.34697L11.1149 5.33939L11.0249 3.17857L10.8431 3.18615L10.9332 5.34697ZM10.6757 5.36744L10.9711 5.34472L10.8052 3.18839L10.5098 3.21112L10.6757 5.36744ZM10.4025 5.40091L10.7206 5.36304L10.4649 3.21551L10.1468 3.25338L10.4025 5.40091ZM10.1001 5.45376L10.4561 5.39316L10.0932 3.26113L9.73721 3.32173L10.1001 5.45376ZM9.78438 5.52615L10.1555 5.44283L9.6818 3.33265L9.31067 3.41597L9.78438 5.52615ZM9.56428 5.5887L9.83695 5.51295L9.25811 3.42916L8.98545 3.5049L9.56428 5.5887ZM9.26169 5.68848L9.6101 5.57487L8.93962 3.51873L8.59121 3.63234L9.26169 5.68848ZM9.05512 5.76891L9.31264 5.67044L8.54026 3.65038L8.28274 3.74884L9.05512 5.76891ZM8.85232 5.85455L9.08712 5.75608L8.25075 3.76166L8.01595 3.86012L8.85232 5.85455ZM8.6642 5.94327L8.89142 5.83723L7.97685 3.87744L7.74963 3.98347L8.6642 5.94327ZM8.56932 5.99115L8.69051 5.93056L7.72332 3.99619L7.60214 4.05678L8.56932 5.99115ZM8.41898 6.07325L8.60076 5.97479L7.5707 4.07315L7.38893 4.17161L8.41898 6.07325ZM8.22838 6.18249L8.44045 6.0613L7.36745 4.18356L7.15538 4.30474L8.22838 6.18249ZM8.16014 6.22515L8.25861 6.16455L7.12515 4.32267L7.02668 4.38327L8.16014 6.22515ZM8.00733 6.32254L8.17396 6.2165L7.01287 4.39192L6.84624 4.49795L8.00733 6.32254ZM7.93572 6.37057L8.02661 6.30998L6.82696 4.51051L6.73607 4.5711L7.93572 6.37057ZM7.80453 6.46275L7.95601 6.35671L6.71578 4.58496L6.5643 4.691L7.80453 6.46275ZM7.68196 6.55346L7.82587 6.44742L6.54296 4.70633L6.39905 4.81237L7.68196 6.55346ZM7.60255 6.61651L7.70858 6.5332L6.37243 4.83263L6.26639 4.91594L7.60255 6.61651ZM7.49531 6.69907L7.59378 6.62333L6.27516 4.90913L6.1767 4.98487L7.49531 6.69907ZM7.32766 6.84477L7.53974 6.66299L6.13227 5.02095L5.9202 5.20273L7.32766 6.84477ZM7.27541 6.89056L7.336 6.83755L5.91186 5.20995L5.85127 5.26297L7.27541 6.89056ZM7.2598 6.90956L7.32797 6.84139L5.79871 5.31214L5.73054 5.3803L7.2598 6.90956ZM7.14665 7.01175L7.20724 6.95873L5.7831 5.33113L5.72251 5.38415L7.14665 7.01175ZM7.45286 6.56262L7.46044 6.5399L5.40872 5.856L5.40115 5.87873L7.45286 6.56262ZM6.41186 7.30202H6.427V5.13933H6.41186V7.30202ZM7.00985 7.15193L7.17648 6.9853L5.64723 5.45604L5.4806 5.62267L7.00985 7.15193ZM7.006 7.15997L7.05902 7.09938L5.43143 5.67523L5.37841 5.73582L7.006 7.15997ZM6.89624 7.27312L6.95683 7.21252L5.42758 5.68327L5.36699 5.74386L6.89624 7.27312ZM6.89239 7.28115L6.94541 7.22056L5.31782 5.79642L5.2648 5.85701L6.89239 7.28115ZM6.78229 7.401L6.87318 7.30253L5.28402 5.83563L5.19313 5.93409L6.78229 7.401ZM6.75646 7.43561L6.82462 7.35229L5.15079 5.98279L5.08262 6.06611L6.75646 7.43561ZM6.64967 7.56063L6.74056 7.45459L5.09852 6.04713L5.00763 6.15316L6.64967 7.56063ZM6.59562 7.63101L6.67894 7.52497L4.97837 6.18882L4.89505 6.29486L6.59562 7.63101ZM6.5267 7.72071L6.60244 7.62224L4.88823 6.30362L4.81249 6.40209L6.5267 7.72071ZM6.46651 7.80109L6.53467 7.71021L4.80452 6.41259L4.73635 6.50348L6.46651 7.80109ZM6.39396 7.90464L6.48485 7.77588L4.718 6.52869L4.62711 6.65745L6.39396 7.90464ZM6.25879 8.10809L6.41027 7.88087L4.6108 6.68122L4.45932 6.90844L6.25879 8.10809ZM6.18244 8.22961L6.27332 8.0857L4.44479 6.93084L4.3539 7.07475L6.18244 8.22961ZM6.17203 8.2533L6.21748 8.16998L4.31886 7.13437L4.27341 7.21769L6.17203 8.2533ZM6.082 8.39935L6.13501 8.31604L4.31043 7.15494L4.25741 7.23826L6.082 8.39935ZM6.02812 8.50324L6.11901 8.33661L4.2204 7.301L4.12951 7.46763L6.02812 8.50324ZM5.95998 8.63298L6.03572 8.48907L4.12191 7.4818L4.04617 7.62571L5.95998 8.63298ZM5.91216 8.73616L5.98033 8.59225L4.02582 7.66643L3.95765 7.81034L5.91216 8.73616ZM5.82584 8.92333L5.91673 8.7264L3.95309 7.8201L3.8622 8.01703L5.82584 8.92333ZM5.75659 9.08844L5.8399 8.89151L3.84813 8.04884L3.76482 8.24577L5.75659 9.08844ZM5.66604 9.33003L5.77207 9.04978L3.74933 8.28442L3.6433 8.56466L5.66604 9.33003ZM5.59238 9.56119L5.68327 9.28095L3.62606 8.61375L3.53518 8.89399L5.59238 9.56119ZM5.52778 9.78975L5.60352 9.52466L3.52404 8.93052L3.4483 9.19561L5.52778 9.78975ZM5.46424 10.0613L5.53998 9.74314L3.43609 9.24222L3.36035 9.56033L5.46424 10.0613ZM5.4285 10.2511L5.47394 10.0163L3.35065 9.60531L3.30521 9.84011L5.4285 10.2511ZM5.38952 10.5021L5.43497 10.2142L3.29874 9.87694L3.25329 10.1648L5.38952 10.5021ZM5.35765 10.784L5.39552 10.4583L3.2473 10.2085L3.20943 10.5342L5.35765 10.784ZM5.33996 11.084L5.36269 10.728L3.20438 10.5902L3.18166 10.9462L5.33996 11.084ZM5.34216 11.5377V11.0151H3.17947V11.5377H5.34216ZM5.35573 11.7596L5.34058 11.4793L3.18104 11.5961L3.19619 11.8763L5.35573 11.7596ZM5.38224 12.0133L5.35194 11.7103L3.19998 11.9255L3.23028 12.2285L5.38224 12.0133ZM5.42218 12.2861L5.37674 11.968L3.23578 12.2738L3.28122 12.5919L5.42218 12.2861ZM5.4754 12.5669L5.41481 12.2412L3.2886 12.6368L3.34919 12.9625L5.4754 12.5669ZM5.54731 12.8616L5.46399 12.5132L3.3606 13.0162L3.44391 13.3646L5.54731 12.8616ZM5.60876 13.0655L5.53302 12.808L3.4582 13.4182L3.53394 13.6757L5.60876 13.0655ZM5.6881 13.3013L5.59721 13.0287L3.5455 13.7126L3.63638 13.9852L5.6881 13.3013ZM5.75201 13.4722L5.67627 13.2677L3.64821 14.0189L3.72395 14.2234L5.75201 13.4722ZM5.82272 13.6443L5.73941 13.4398L3.73655 14.2558L3.81987 14.4603L5.82272 13.6443ZM5.9065 13.8296L5.80804 13.61L3.83456 14.4946L3.93302 14.7143L5.9065 13.8296ZM6.00813 14.0307L5.88695 13.7883L3.95257 14.7555L4.07376 14.9979L6.00813 14.0307ZM6.09908 14.1986L5.99304 14.0016L4.08885 15.027L4.19489 15.2239L6.09908 14.1986ZM6.18706 14.3481L6.08103 14.1664L4.21294 15.2561L4.31898 15.4379L6.18706 14.3481ZM6.23455 14.4247L6.17396 14.3263L4.33208 15.4597L4.39267 15.5582L6.23455 14.4247ZM6.3442 14.6001L6.23059 14.4184L4.39663 15.5646L4.51024 15.7464L6.3442 14.6001ZM6.41914 14.7046L6.3131 14.5531L4.54135 15.7934L4.64739 15.9448L6.41914 14.7046ZM6.50835 14.8279L6.40989 14.6916L4.65664 15.9578L4.7551 16.0942L6.50835 14.8279ZM6.61041 14.9637L6.4968 14.8123L4.76665 16.1099L4.88026 16.2614L6.61041 14.9637ZM6.68305 15.0518L6.58458 14.9307L4.90609 16.2944L5.00455 16.4156L6.68305 15.0518ZM6.74888 15.1323L6.68071 15.049L5.00688 16.4185L5.07505 16.5018L6.74888 15.1323ZM6.78389 15.1694L6.71572 15.0937L5.10821 16.5404L5.17637 16.6162L6.78389 15.1694ZM6.88522 15.2914L6.81705 15.208L5.14322 16.5775L5.21138 16.6609L6.88522 15.2914ZM6.86595 15.2645L6.81293 15.2115L5.28366 16.7407L5.33668 16.7937L6.86595 15.2645ZM6.96813 15.3776L6.91511 15.317L5.28752 16.7412L5.34054 16.8018L6.96813 15.3776ZM7.00985 15.416L6.91896 15.3251L5.38971 16.8543L5.4806 16.9452L7.00985 15.416ZM7.11204 15.5291L7.05902 15.4685L5.43143 16.8927L5.48445 16.9533L7.11204 15.5291ZM7.05499 15.4656L7.00198 15.4202L5.59451 17.0622L5.64753 17.1077L7.05499 15.4656ZM7.20678 15.6129L7.11589 15.522L5.58664 17.0513L5.67752 17.1422L7.20678 15.6129ZM7.21482 15.6168L7.15422 15.5637L5.73008 17.1913L5.79067 17.2443L7.21482 15.6168ZM7.35069 15.7492L7.26737 15.6659L5.73812 17.1952L5.82143 17.2785L7.35069 15.7492ZM7.35413 15.7451L7.27081 15.6769L5.90131 17.3508L5.98462 17.4189L7.35413 15.7451ZM7.4685 15.8464L7.39276 15.7783L5.94599 17.3858L6.02173 17.454L7.4685 15.8464ZM7.51318 15.8814L7.42987 15.8133L6.06037 17.4871L6.14368 17.5553L7.51318 15.8814ZM7.63151 15.9776L7.51032 15.8791L6.14654 17.5576L6.26772 17.6561L7.63151 15.9776ZM7.72373 16.0499L7.6177 15.9665L6.28154 17.6671L6.38757 17.7504L7.72373 16.0499ZM7.77499 16.0862L7.69167 16.0256L6.41964 17.7747L6.50295 17.8353L7.77499 16.0862ZM7.90842 16.1826L7.77208 16.0841L6.50585 17.8374L6.64219 17.9358L7.90842 16.1826ZM8.02984 16.2652L7.88593 16.1668L6.66468 17.9516L6.80858 18.0501L8.02984 16.2652ZM8.19147 16.3681L8.00211 16.2469L6.83631 18.0684L7.02566 18.1896L8.19147 16.3681ZM8.47775 16.5334L8.15207 16.344L7.06506 18.2137L7.39074 18.403L8.47775 16.5334ZM8.69389 16.6429L8.4288 16.5066L7.4397 18.4298L7.70479 18.5662L8.69389 16.6429ZM8.94788 16.759L8.65249 16.6227L7.74619 18.5864L8.04158 18.7227L8.94788 16.759ZM9.18124 16.8523L8.901 16.7387L8.08846 18.743L8.36871 18.8566L9.18124 16.8523ZM9.43571 16.9428L9.14032 16.8367L8.40962 18.8722L8.70501 18.9783L9.43571 16.9428ZM9.5853 16.9876L9.38837 16.927L8.75235 18.994L8.94928 19.0546L9.5853 16.9876ZM9.82937 17.055L9.5567 16.9792L8.97787 19.063L9.25054 19.1387L9.82937 17.055ZM10.1424 17.1273L9.78638 17.044L9.29353 19.1497L9.64952 19.2331L10.1424 17.1273ZM10.4296 17.1754L10.0812 17.1148L9.71066 19.2455L10.0591 19.3061L10.4296 17.1754ZM10.7519 17.2126L10.3732 17.1671L10.1155 19.3144L10.4942 19.3598L10.7519 17.2126ZM11.0069 17.2306L10.7039 17.2079L10.5422 19.3645L10.8451 19.3872L11.0069 17.2306ZM11.1957 17.2357L10.9609 17.2281L10.8912 19.3897L11.1259 19.3973L11.1957 17.2357ZM11.3956 17.2351H11.1608V19.3978H11.3956V17.2351ZM11.5868 17.2282L11.3596 17.2357L11.4316 19.3972L11.6589 19.3897L11.5868 17.2282ZM11.7781 17.2148L11.5509 17.23L11.6948 19.3879L11.922 19.3727L11.7781 17.2148ZM12.0351 17.1878L11.7397 17.2181L11.9604 19.3695L12.2558 19.3392L12.0351 17.1878ZM12.3106 17.1476L11.9925 17.193L12.2984 19.334L12.6165 19.2885L12.3106 17.1476ZM12.5428 17.1025L12.2625 17.1555L12.6646 19.2805L12.9448 19.2275L12.5428 17.1025ZM12.796 17.0432L12.5006 17.1114L12.9869 19.2187L13.2823 19.1505L12.796 17.0432ZM13.0742 16.9644L12.7485 17.0553L13.3299 19.1384L13.6555 19.0475L13.0742 16.9644ZM13.3492 16.8688L13.0159 16.9825L13.7138 19.0295L14.0471 18.9159L13.3492 16.8688ZM13.5695 16.7838L13.3119 16.8823L14.0843 18.9024L14.3418 18.8039L13.5695 16.7838ZM13.7418 16.7091L13.5297 16.8L14.3816 18.7878L14.5937 18.6969L13.7418 16.7091ZM13.8754 16.6442L13.7012 16.7275L14.6343 18.6785L14.8085 18.5952L13.8754 16.6442ZM13.9795 16.5919L13.8583 16.6525L14.8255 18.5869L14.9467 18.5263L13.9795 16.5919ZM14.1371 16.5095L13.9629 16.6004L14.9633 18.5178L15.1375 18.4269L14.1371 16.5095ZM14.2485 16.4472L14.1122 16.5229L15.1625 18.4135L15.2988 18.3377L14.2485 16.4472ZM14.4106 16.3524L14.2288 16.4584L15.3185 18.3265L15.5003 18.2205L14.4106 16.3524ZM14.5219 16.2813L14.378 16.3722L15.5329 18.2007L15.6768 18.1098L14.5219 16.2813ZM14.6813 16.1746L14.4995 16.2958L15.6992 18.0953L15.8809 17.9741L14.6813 16.1746ZM14.7863 16.1L14.6575 16.1909L15.9047 17.9578L16.0335 17.8669L14.7863 16.1ZM14.9123 16.0069L14.7684 16.1129L16.0513 17.854L16.1952 17.748L14.9123 16.0069ZM15.0978 15.8605L14.8857 16.0271L16.2219 17.7277L16.4339 17.5611L15.0978 15.8605ZM15.1218 15.8349L15.0385 15.9107L16.4933 17.5109L16.5766 17.4352L15.1218 15.8349ZM15.2477 15.73L15.1644 15.7981L16.5339 17.472L16.6172 17.4038L15.2477 15.73ZM15.2884 15.691L15.2051 15.7667L16.6599 17.367L16.7432 17.2913L15.2884 15.691ZM15.3643 15.6243L15.3037 15.6773L16.7279 17.3049L16.7885 17.2519L15.3643 15.6243ZM15.3951 15.5902L15.3118 15.6735L16.841 17.2027L16.9243 17.1194L15.3951 15.5902ZM15.5199 15.4744L15.429 15.5577L16.8904 17.1519L16.9813 17.0686L15.5199 15.4744ZM15.4898 15.4988L15.4368 15.5594L17.0644 16.9836L17.1174 16.923L15.4898 15.4988ZM15.6223 15.363L15.539 15.4463L17.0682 16.9755L17.1516 16.8922L15.6223 15.363ZM15.6832 15.2957L15.5924 15.3941L17.1815 16.861L17.2724 16.7626L15.6832 15.2957ZM15.717 15.2565L15.664 15.3171L17.2916 16.7412L17.3446 16.6806L15.717 15.2565ZM15.817 15.1469L15.7337 15.2378L17.328 16.6992L17.4113 16.6083L15.817 15.1469ZM15.8454 15.1096L15.7772 15.1929L17.4511 16.5624L17.5192 16.4791L15.8454 15.1096ZM15.9402 14.9974L15.8568 15.0958L17.5078 16.4928L17.5911 16.3944L15.9402 14.9974ZM15.9987 14.9217L15.9154 15.0278L17.6159 16.3639L17.6992 16.2579L15.9987 14.9217ZM16.11 14.7754L15.9888 14.9345L17.7091 16.2452L17.8303 16.0861L16.11 14.7754ZM16.1776 14.6784L16.0867 14.8072L17.8536 16.0544L17.9445 15.9256L16.1776 14.6784ZM16.2671 14.5475L16.1686 14.6914L17.9535 15.9126L18.0519 15.7687L16.2671 14.5475ZM16.3532 14.4109L16.2472 14.5776L18.0718 15.7386L18.1778 15.572L16.3532 14.4109ZM16.4262 14.2913L16.3428 14.4276L18.1882 15.5553L18.2715 15.419L16.4262 14.2913ZM16.5059 14.1488L16.4075 14.3231L18.2902 15.3872L18.3887 15.213L16.5059 14.1488ZM16.5889 13.9965L16.498 14.1631L18.3966 15.1987L18.4875 15.0321L16.5889 13.9965ZM16.6468 13.8792L16.571 14.0307L18.5054 14.9979L18.5811 14.8464L16.6468 13.8792ZM16.7517 13.6481L16.6305 13.9132L18.5974 14.8124L18.7186 14.5473L16.7517 13.6481ZM16.8127 13.5L16.737 13.6818L18.7333 14.5136L18.809 14.3319L16.8127 13.5ZM16.8933 13.2908L16.8024 13.5256L18.8193 14.3063L18.9102 14.0715L16.8933 13.2908ZM16.9668 13.0665L16.8759 13.3392L18.9276 14.0231L19.0185 13.7504L16.9668 13.0665ZM17.0251 12.8705L16.9569 13.0978L19.0284 13.7192L19.0966 13.492L17.0251 12.8705ZM17.0671 12.7054L17.0141 12.9099L19.1075 13.4526L19.1606 13.2481L17.0671 12.7054ZM17.1283 12.4382L17.0602 12.7336L19.1675 13.2199L19.2356 12.9245L17.1283 12.4382ZM17.1625 12.2359L17.1171 12.4935L19.2469 12.8693L19.2923 12.6118L17.1625 12.2359ZM17.2024 11.9528L17.157 12.2709L19.2979 12.5768L19.3434 12.2587L17.2024 11.9528ZM17.2193 11.7668L17.1966 12.0016L19.3492 12.2099L19.3719 11.9751L17.2193 11.7668ZM17.232 11.5769L17.2168 11.7965L19.3744 11.9453L19.3895 11.7257L17.232 11.5769ZM17.2374 11.3486L17.2298 11.6213L19.3917 11.6813L19.3993 11.4087L17.2374 11.3486ZM17.237 11.1893V11.3786H19.3997V11.1893H17.237ZM17.2298 10.9551L17.2374 11.2202L19.3992 11.1584L19.3917 10.8933L17.2298 10.9551ZM17.2237 10.8589L17.2313 10.9877L19.3902 10.8607L19.3827 10.7319L17.2237 10.8589ZM17.2036 10.6434L17.2263 10.8933L19.3801 10.6975L19.3574 10.4476L17.2036 10.6434ZM17.1627 10.3369L17.2082 10.6853L19.3527 10.4056L19.3073 10.0572L17.1627 10.3369ZM17.1238 10.1147L17.1692 10.3798L19.3008 10.0144L19.2554 9.74927L17.1238 10.1147ZM17.0512 9.7977L17.1345 10.1688L19.2447 9.69512L19.1613 9.32399L17.0512 9.7977ZM16.9738 9.52583L17.0647 9.85151L19.1478 9.27018L19.0569 8.9445L16.9738 9.52583ZM16.9177 9.35399L16.9859 9.56606L19.0448 8.90426L18.9767 8.69218L16.9177 9.35399ZM16.8317 9.11769L16.9301 9.39036L18.9643 8.65581L18.8658 8.38315L16.8317 9.11769ZM16.7428 8.90462L16.8488 9.16214L18.8486 8.3387L18.7426 8.08118L16.7428 8.90462ZM16.6575 8.71558L16.756 8.93523L18.7294 8.05057L18.631 7.83092L16.6575 8.71558ZM16.5937 8.59021L16.677 8.75684L18.6114 7.78966L18.5281 7.62303L16.5937 8.59021ZM16.4941 8.40518L16.6077 8.61726L18.5141 7.59599L18.4005 7.38391L16.4941 8.40518ZM16.4175 8.27199L16.5084 8.43105L18.3862 7.35805L18.2953 7.19899L16.4175 8.27199ZM16.3486 8.15499L16.4244 8.28375L18.2885 7.18723L18.2127 7.05847L16.3486 8.15499ZM16.2487 8.00028L16.3699 8.18964L18.1915 7.02383L18.0703 6.83447L16.2487 8.00028ZM16.184 7.9036L16.2598 8.01721L18.0592 6.81754L17.9835 6.70393L16.184 7.9036ZM16.1281 7.82625L16.2038 7.93229L17.9637 6.67525L17.8879 6.56921L16.1281 7.82625ZM16.0329 7.69451L16.1314 7.83084L17.8846 6.56462L17.7862 6.42828L16.0329 7.69451ZM15.9499 7.58894L16.056 7.72528L17.7631 6.39752L17.6571 6.26118L15.9499 7.58894ZM15.8699 7.48711L15.9532 7.59315L17.6538 6.25698L17.5705 6.15094L15.8699 7.48711ZM15.8046 7.41362L15.903 7.52723L17.5374 6.11082L17.4389 5.99721L15.8046 7.41362ZM15.7098 7.30311L15.8007 7.40915L17.4428 6.00168L17.3519 5.89565L15.7098 7.30311ZM15.664 7.25085L15.717 7.31145L17.3446 5.88731L17.2916 5.82671L15.664 7.25085ZM15.6375 7.22767L15.7132 7.30341L17.2425 5.77416L17.1667 5.69842L15.6375 7.22767ZM15.5353 7.11452L15.5883 7.17512L17.2159 5.75097L17.1629 5.69038L15.5353 7.11452ZM15.4481 7.03075L15.5844 7.16708L17.1137 5.63782L16.9774 5.50149L15.4481 7.03075ZM15.4401 7.02689L15.5007 7.07991L16.9248 5.45232L16.8642 5.3993L15.4401 7.02689ZM15.3269 6.91713L15.3875 6.97773L16.9168 5.44847L16.8562 5.38788L15.3269 6.91713ZM15.2924 6.8881L15.3682 6.95627L16.8149 5.34874L16.7392 5.28058L15.2924 6.8881ZM15.2431 6.84512L15.3037 6.89814L16.7279 5.27054L16.6673 5.21752L15.2431 6.84512ZM15.1561 6.76691L15.2318 6.83508L16.6786 5.22756L16.6029 5.15939L15.1561 6.76691ZM15.0577 6.68185L15.1713 6.78032L16.5877 5.14599L16.4741 5.04753L15.0577 6.68185ZM14.9917 6.63166L15.0978 6.71497L16.4339 5.01441L16.3279 4.93109L14.9917 6.63166ZM14.8567 6.52216L14.9779 6.62062L16.3417 4.94213L16.2205 4.84366L14.8567 6.52216ZM14.8041 6.4871L14.9101 6.56284L16.1672 4.80298L16.0611 4.72724L14.8041 6.4871ZM14.6631 6.38534L14.7995 6.4838L16.0657 4.73054L15.9294 4.63208L14.6631 6.38534ZM14.5205 6.28853L14.6871 6.40215L15.9054 4.61527L15.7388 4.50166L14.5205 6.28853ZM14.3825 6.20135L14.5491 6.30739L15.7102 4.48281L15.5436 4.37677L14.3825 6.20135ZM14.2552 6.12542L14.4067 6.21631L15.5194 4.36181L15.3679 4.27092L14.2552 6.12542ZM14.0938 6.03561L14.2832 6.14165L15.3399 4.25469L15.1505 4.14865L14.0938 6.03561ZM13.9746 5.9733L14.1185 6.04904L15.1258 4.13523L14.9819 4.05949L13.9746 5.9733ZM13.821 5.90036L14.0103 5.99125L14.9462 4.04153L14.7568 3.95064L13.821 5.90036ZM13.5742 5.78777L13.8393 5.90896L14.7385 3.94205L14.4734 3.82086L13.5742 5.78777ZM13.2814 5.67498L13.6298 5.81131L14.4179 3.79732L14.0695 3.66099L13.2814 5.67498ZM12.9918 5.58244L13.3402 5.69605L14.0106 3.63991L13.6622 3.5263L12.9918 5.58244ZM12.7648 5.51837L13.0299 5.59411L13.6241 3.51463L13.359 3.43889L12.7648 5.51837ZM12.5567 5.47064L12.8142 5.53123L13.3096 3.42603L13.0521 3.36544L12.5567 5.47064ZM12.2868 5.41878L12.5973 5.47937L13.0115 3.35671L12.7009 3.29611L12.2868 5.41878ZM11.9698 5.37491L12.3409 5.42793L12.6468 3.28697L12.2756 3.23395L11.9698 5.37491ZM11.6969 5.35083L12.0226 5.38113L12.2229 3.22773L11.8972 3.19743L11.6969 5.35083ZM11.4584 5.33875L11.7387 5.3539L11.8554 3.19436L11.5752 3.17921L11.4584 5.33875Z" fill="#EE9338" mask="url(#path-1-inside-1_112_1428)"/>
<path d="M9.05706 6.48808H14.7198L14.8595 6.50075L14.9865 6.56412L15.0754 6.66549L15.1261 6.76687L15.1388 6.80488V6.96962L15.0881 7.08367L15.0119 7.18504L14.9103 7.26108L14.8468 7.28642L14.6691 7.29909H12.9169L13.0566 7.48917L13.1708 7.66658L13.2851 7.86934L13.3867 8.09743L14.8087 8.1101L14.9484 8.16079L15.0754 8.27484L15.1388 8.4269V8.60431L15.0754 8.73103L14.9865 8.83241L14.8849 8.89577L14.7325 8.92111L13.539 8.93379L13.5009 9.22524L13.4375 9.54204L13.3359 9.84617L13.2216 10.0869L13.0946 10.2897L12.9677 10.4544L12.8153 10.6192L12.6884 10.7459L12.5487 10.8599L12.2821 11.0373L11.99 11.1767L11.7361 11.2654L11.5202 11.3161L11.3298 11.3415L11.1266 11.3541H9.93314L9.97123 11.4175L10.1236 11.5949L10.2379 11.7216L10.3394 11.8484L10.4918 12.0258L10.5934 12.1525L10.733 12.3172L10.8473 12.4566L10.987 12.6213L11.1012 12.7607L11.2409 12.9255L11.3552 13.0649L11.4948 13.2296L11.6091 13.369L11.7488 13.5337L11.9138 13.7365L12.0662 13.9139L12.1678 14.0406L12.3201 14.218L12.4217 14.3447L12.5741 14.5222L12.6757 14.6489L12.828 14.8263L12.9296 14.953L13.082 15.1304L13.1962 15.2698L13.3359 15.4345L13.4629 15.6119L13.5136 15.726V15.8907L13.4629 16.0048L13.3486 16.1315L13.247 16.1949L13.1708 16.2202H13.0566L12.9296 16.1695L12.8026 16.0555L12.7137 15.9668L12.5741 15.7894L12.2947 15.4599L12.1932 15.3332L12.0408 15.1558L11.9392 15.029L11.7869 14.8516L11.6853 14.7249L11.5329 14.5475L11.4314 14.4208L11.279 14.2434L11.1774 14.1166L11.0251 13.9392L10.9235 13.8125L10.7711 13.6351L10.6696 13.5084L10.5172 13.331L10.4156 13.2043L10.2633 13.0269L10.1617 12.9001L10.0093 12.7227L9.90774 12.596L9.75538 12.4186L9.65381 12.2919L9.51414 12.1271L9.39987 11.9877L9.2602 11.823L9.14593 11.6836L9.00627 11.5189L8.85391 11.3415L8.72694 11.1767L8.65076 11.0247V10.8853L8.71424 10.7332L8.82851 10.6192L8.95548 10.5558L9.03166 10.5431H10.7838L11.2536 10.5305L11.571 10.4671L11.7869 10.3784L11.9773 10.277L12.1297 10.163L12.2821 10.0236L12.409 9.85884L12.5106 9.69411L12.5995 9.50403L12.6503 9.35196L12.701 9.07318L12.7137 8.92111H9.01897L8.90469 8.89577L8.81582 8.84508L8.71424 8.73103L8.65076 8.59164V8.47759L8.68885 8.35087L8.76503 8.23682L8.90469 8.13545L9.01897 8.1101H11.8377L12.4725 8.09743V8.07209L12.3709 7.9327L12.2313 7.78063L12.0916 7.65391L11.8758 7.51452L11.6599 7.41314L11.4568 7.34978L11.2155 7.31177L9.01897 7.29909L8.892 7.27375L8.79042 7.19772L8.71424 7.10901L8.66345 7.02031L8.65076 6.96962V6.85557L8.70154 6.70351L8.79042 6.60213L8.892 6.5261L8.95548 6.50075L9.05706 6.48808Z" fill="#EE9338"/>
<path d="M8.68201 11.2897L8.71527 11.3008L8.79289 11.3895L8.91486 11.5337L8.95921 11.578V11.6002L9.00356 11.6224L9.12553 11.7776L9.22532 11.8885L9.3362 12.0326L9.36946 12.0659V12.0881L9.40273 12.0992L9.50252 12.2211L9.51361 12.2544H9.53579L9.55796 12.2987L9.59123 12.332V12.3542L9.62449 12.3653L9.74646 12.5205L9.81299 12.5981V12.6203L9.84625 12.6314L9.96822 12.7866L10.0237 12.8421L10.0569 12.8975L10.1567 13.0084L10.2232 13.0971L10.2454 13.1082L10.2676 13.1525L10.323 13.208L10.4672 13.3854L10.5448 13.4741L10.6889 13.6515L10.7666 13.7402L10.9107 13.9176L10.9883 14.0063L11.1103 14.1615L11.1436 14.1948V14.217L11.1768 14.2281L11.2988 14.3833L11.3653 14.4609V14.4831L11.3986 14.4942L11.5095 14.6383L11.5316 14.6494L11.5538 14.6938L11.5871 14.727V14.7492L11.6203 14.7603L11.7312 14.9044L11.7534 14.9155L11.7867 14.971L11.8864 15.0818L11.9862 15.2149V15.2371L12.0195 15.2482L12.086 15.3369L12.1304 15.3812V15.4145L12.086 15.3923L12.0084 15.3258L11.9308 15.226L11.831 15.104L11.698 14.9488L11.6092 14.8379L11.4762 14.6827L11.3875 14.5718L11.2544 14.4166L11.1657 14.3057L11.0327 14.1504L10.944 14.0396L10.8109 13.8843L10.7222 13.7735L10.5891 13.6182L10.5004 13.5073L10.3674 13.3521L10.2787 13.2412L10.1456 13.086L10.0569 12.9751L9.92387 12.8199L9.83516 12.709L9.70211 12.5538L9.6134 12.4429L9.48035 12.2877L9.39164 12.1768L9.26967 12.0326L9.16988 11.9107L9.04791 11.7665L8.94812 11.6446L8.82615 11.5004L8.69309 11.3452L8.68201 11.2897Z" fill="#FEE59B"/>
<mask id="path-5-inside-2_112_1428" fill="white">
<rect x="2.16266" y="25.1271" width="15.4819" height="3.87047" rx="0.351861"/>
</mask>
<rect x="2.16266" y="25.1271" width="15.4819" height="3.87047" rx="0.351861" stroke="#EE9338" stroke-width="2.16269" mask="url(#path-5-inside-2_112_1428)"/>
<mask id="path-6-inside-3_112_1428" fill="white">
<rect x="2.16266" y="32.1633" width="15.4819" height="3.51861" rx="0.351861"/>
</mask>
<rect x="2.16266" y="32.1633" width="15.4819" height="3.51861" rx="0.351861" stroke="#EE9338" stroke-width="2.16269" mask="url(#path-6-inside-3_112_1428)"/>
<mask id="path-7-inside-4_112_1428" fill="white">
<rect x="3.57013" y="21.6075" width="15.4819" height="3.87047" rx="0.351861"/>
</mask>
<rect x="3.57013" y="21.6075" width="15.4819" height="3.87047" rx="0.351861" stroke="#EE9338" stroke-width="2.16269" mask="url(#path-7-inside-4_112_1428)"/>
<mask id="path-8-inside-5_112_1428" fill="white">
<rect x="3.57013" y="28.6436" width="15.4819" height="3.87047" rx="0.351861"/>
</mask>
<rect x="3.57013" y="28.6436" width="15.4819" height="3.87047" rx="0.351861" stroke="#EE9338" stroke-width="2.16269" mask="url(#path-8-inside-5_112_1428)"/>
<mask id="path-9-inside-6_112_1428" fill="white">
<path d="M23.9782 10.6954C23.9782 10.5011 24.1357 10.3436 24.3301 10.3436H32.7747C32.9691 10.3436 33.1266 10.5011 33.1266 10.6954V27.2329C33.1266 27.4272 32.9691 27.5847 32.7747 27.5847H24.3301C24.1357 27.5847 23.9782 27.4272 23.9782 27.2329V10.6954Z"/>
</mask>
<path d="M23.9782 10.3436H33.1266H23.9782ZM34.2079 27.2329C34.2079 28.0244 33.5663 28.6661 32.7747 28.6661H24.3301C23.5385 28.6661 22.8969 28.0244 22.8969 27.2329L25.0596 26.5034H32.0452L34.2079 27.2329ZM24.3301 28.6661C23.5385 28.6661 22.8969 28.0244 22.8969 27.2329V11.7768C22.8969 10.9852 23.5385 10.3436 24.3301 10.3436H25.0596C25.0596 10.3436 25.0596 10.5011 25.0596 10.6954V26.5034L24.3301 28.6661ZM32.7747 10.3436C33.5663 10.3436 34.2079 10.9852 34.2079 11.7768V27.2329C34.2079 28.0244 33.5663 28.6661 32.7747 28.6661L32.0452 26.5034V10.6954C32.0452 10.5011 32.0452 10.3436 32.0452 10.3436H32.7747Z" fill="#EE9338" mask="url(#path-9-inside-6_112_1428)"/>
<rect x="24.2484" y="28.9121" width="8.6077" height="0.866769" rx="0.433384" stroke="#EE9338" stroke-width="0.540674"/>
<rect x="24.2484" y="31.7264" width="8.6077" height="0.866769" rx="0.433384" stroke="#EE9338" stroke-width="0.540674"/>
<rect x="24.2484" y="34.5396" width="8.6077" height="0.866769" rx="0.433384" stroke="#EE9338" stroke-width="0.540674"/>
<path fill-rule="evenodd" clip-rule="evenodd" d="M21.9947 9.53456L28.5522 1.50565L35.1097 9.53456H32.4404V10.6159H35.9929H36.0077H36.2166H36.6474C36.9441 10.6159 37.1076 10.2713 36.9199 10.0415L36.6474 9.7078L36.5152 9.54597L36.5059 9.53456L28.8247 0.129857C28.684 -0.0425228 28.4205 -0.0425226 28.2797 0.129857L20.5985 9.53456L20.5892 9.54597L20.457 9.7078L20.1845 10.0415C19.9968 10.2713 20.1603 10.6159 20.457 10.6159H20.8878H21.0968H21.1115H24.871V9.53456H21.9947Z" fill="#EE9338"/>
</g>
<defs>
<clipPath id="clip0_112_1428">
<rect width="37" height="35.6821" fill="white"/>
</clipPath>
</defs>
</svg>
