<svg width="64" height="64" viewBox="0 0 64 64" fill="none" xmlns="http://www.w3.org/2000/svg">
<path d="M31.8125 9.875H32.1875L32.7812 9.9375L33.4375 10.125L33.8125 10.2812L34.2812 10.5312L34.6562 10.8125L35.0625 11.1562L35.4062 11.5625L35.7188 12.0312L36 12.625L36.1875 13.25L36.25 13.6875L36.2812 14.1562V39.75L57.0312 39.7188L58.8438 39.75L59.5 39.8125L60 39.9062L60.75 40.1562L61.4062 40.5L61.7812 40.75L62.1875 41.0938L62.4375 41.3125L62.6562 41.5312L63 41.9688L63.2188 42.2812L63.5938 43L63.875 43.875L63.9375 44.1562L64 44.125V52.4062H63.9062L63.875 52.6875L63.7188 53.25L63.4375 53.9062L63.3125 54.1562L62.9688 54.6562L62.7812 54.9062L62.7188 55H62.6562L62.5938 55.125L62.2188 55.5L61.8125 55.8125L61.375 56.0938L60.9062 56.3438L60.25 56.5938L59.75 56.7188V61.0625L59.7188 61.0938H53.3125V56.8438H10.6875V61.0625L10.6562 61.0938H4.28125L4.25 61.0625L4.21875 56.75L3.28125 56.4375L2.59375 56.0938L2.0625 55.7188L1.65625 55.375L1.40625 55.125L1.1875 54.875L0.78125 54.3125L0.4375 53.6562L0.25 53.1562L0.09375 52.5938V52.4688L0.03125 52.4375L0.0625 52.3125L0 52.2812V44.4375L0.1875 43.6562L0.40625 43L0.78125 42.2812L1.0625 41.875L1.46875 41.4062L1.625 41.2188L1.96875 40.9375L2.375 40.625L3.0625 40.25L3.5 40.0625L4.125 39.875L4.75 39.7812L5.125 39.75L27.6875 39.7188V16.0938L27.7188 13.9062L27.7812 13.3438L28 12.5938L28.25 12.0938L28.5312 11.625L28.8125 11.3125L29.0312 11.0625L29.4688 10.6875L29.875 10.4375L30.3438 10.1875L30.9375 10L31.4688 9.90625L31.8125 9.875ZM31.625 12.0625L31.25 12.1562L30.7812 12.4062L30.4062 12.75L30.2188 13L30 13.4375L29.9062 13.8125L29.875 14.0938V35.4688H34.125V19.3438L34.0938 13.8438L34 13.4688L33.8438 13.0938L33.5625 12.7188L33.3438 12.5L32.9375 12.25L32.5312 12.0938L32.375 12.0625H31.625ZM29.9062 37.625L29.875 37.6562V39.75H34.0938L34.125 39.625V37.6562L34 37.625H29.9062ZM5.15625 41.9062L4.5 42L4 42.1875L3.59375 42.4062L3.28125 42.6562L3 42.9062L2.6875 43.3125L2.40625 43.8125L2.25 44.25L2.15625 44.9062V51.75L2.25 52.3125L2.4375 52.8438L2.6875 53.2812L2.96875 53.625L3.125 53.7812L3.4375 54.0625L3.84375 54.3125L4.28125 54.5L4.75 54.625L5.46875 54.6875H58.5625L59.25 54.625L59.7812 54.4688L60.3125 54.2188L60.6562 53.9688L60.9688 53.6875L61.2188 53.4062L61.4375 53.0625L61.625 52.6875L61.7812 52.1562L61.8438 51.625V45L61.7812 44.4375L61.625 43.9375L61.375 43.4062L61.125 43.0625L60.8438 42.75L60.3438 42.375L59.8438 42.125L59.3438 41.9688L58.7812 41.9062H5.15625ZM6.40625 56.8438V58.9375H8.5V56.8438H6.40625ZM55.5 56.8438L55.4688 56.9688V58.9375H57.5938V56.875L57.5625 56.8438H55.5Z" fill="#1B1B1B"/>
<path d="M4.28125 44H20L21.3438 44.0312V52.5312L21.3125 52.5625H4.28125L4.25 52.5312V44.0312L4.28125 44ZM6.46875 46.1562L6.40625 46.2188V50.4062H19.1562L19.1875 49.5938V46.1875L19.1562 46.1562H6.46875Z" fill="#1B1B1B"/>
<path d="M10.625 2.90625H11.125L11.5 3.09375L11.6562 3.21875L11.875 3.5625L11.9375 3.78125V4.15625L11.8438 4.4375L11.5938 4.78125L11.2188 5.21875L10.9062 5.5625L10.5625 6.03125L10.2812 6.4375L10.0312 6.84375L9.84375 7.1875L9.40625 8.09375L9.15625 8.75L8.90625 9.59375L8.75 10.3125L8.625 11.1562L8.59375 11.6562V12.8438L8.65625 13.5625L8.8125 14.5L9.0625 15.4375L9.34375 16.2188L9.6875 16.9688L9.90625 17.4062L10.2812 18.0312L10.5938 18.4688L10.9688 18.9688L11.3125 19.3438L11.5312 19.5938L11.8438 19.9688L11.9688 20.2188L12.0312 20.4688L12 20.8438L11.8438 21.1562L11.5938 21.4375L11.2812 21.5938L11.1562 21.625H10.6875L10.4062 21.5L10.125 21.2812L9.90625 21.0625L9.6875 20.8125L9.3125 20.4062L8.84375 19.7812L8.46875 19.25L7.9375 18.375L7.5625 17.625L7.25 16.9062L6.875 15.7812L6.65625 14.9062L6.53125 14.2188L6.4375 13.5312L6.375 12.5938V11.9062L6.4375 10.9062L6.59375 9.84375L6.875 8.65625L7.25 7.5625L7.59375 6.78125L7.84375 6.25L8.15625 5.71875L8.5 5.15625L8.90625 4.59375L9.1875 4.21875L9.59375 3.75L9.90625 3.40625L9.9375 3.34375H10L10.0625 3.21875L10.375 3L10.625 2.90625Z" fill="#1B1B1B"/>
<path d="M52.9062 2.90625H53.375L53.6562 3.03125L53.9062 3.21875L54.1875 3.5L54.4062 3.75L54.6875 4.0625L55 4.46875L55.4062 5.03125L55.7188 5.5L56.1562 6.28125L56.4062 6.78125L56.75 7.5625L57.125 8.6875L57.375 9.71875L57.5312 10.75L57.5938 11.375V13.0625L57.5 13.9688L57.3438 14.9062L57.0938 15.875L56.8125 16.7188L56.5625 17.3438L56.0625 18.375L55.5938 19.1562L55.3438 19.5312L54.8438 20.1875L54.625 20.4688L54.25 20.875L53.9062 21.25L53.6875 21.4375L53.4062 21.5938L53.25 21.625H52.8125L52.5625 21.5312L52.375 21.4062L52.125 21.125L52 20.8438L51.9688 20.5L52.0625 20.125L52.3438 19.7188L52.5625 19.4688H52.625L52.6875 19.3438L53.0625 18.9375L53.5 18.3438L53.8125 17.875L54.2188 17.1562L54.5938 16.375L54.9062 15.5L55.0938 14.8438L55.25 14.125L55.375 13.2188L55.4062 12.6875V11.7812L55.375 11.1875L55.2188 10.1562L54.9688 9.15625L54.6875 8.3125L54.3125 7.5L53.9688 6.84375L53.5938 6.25L53.1875 5.6875L52.8125 5.25L52.5312 4.9375L52.1875 4.5L52.0625 4.1875L52.0312 3.9375L52.125 3.5625L52.3125 3.25L52.5312 3.0625L52.7812 2.9375L52.9062 2.90625Z" fill="#1B1B1B"/>
<path d="M46.625 5.8125H46.9688L47.2812 5.90625L47.6562 6.1875L48.0938 6.65625L48.4375 7.09375L48.8125 7.625L49.1875 8.28125L49.5312 9L49.8438 9.9375L50.0312 10.75L50.125 11.4688L50.1562 12.25L50.125 13L50.0312 13.6875L49.875 14.4375L49.5312 15.4688L49.0938 16.375L48.75 16.9375L48.3438 17.5L47.9688 17.9375L47.7188 18.2188L47.4375 18.4062L47.25 18.5L47.0938 18.5312H46.6875L46.375 18.4062L46.125 18.2188L45.9062 17.875L45.8438 17.6562V17.3125L45.9375 17L46.2188 16.5938L46.4375 16.3438H46.5L46.5625 16.2188L46.9688 15.6562L47.2812 15.0938L47.5 14.5938L47.75 13.7812L47.8438 13.375L47.9375 12.4688V11.9688L47.8438 11.0625L47.6562 10.3438L47.375 9.5625L47.0312 8.90625L46.7812 8.53125L46.4688 8.125L46.125 7.75L45.8438 7.375L45.75 7.125L45.7188 6.875L45.7812 6.53125L45.9375 6.21875L46.2188 5.96875L46.4688 5.84375L46.625 5.8125Z" fill="#1B1B1B"/>
<path d="M37.3125 45.0625L37.9375 45.125L38.375 45.25L38.75 45.4062L39.0938 45.5938L39.4062 45.8438L39.7188 46.125L40.0312 46.5312L40.3125 47.0625L40.5 47.6875L40.5625 48.2188L40.5312 48.625L40.4688 49.0312L40.2812 49.5938L40.0312 50.0625L39.625 50.5625L39.2188 50.9062L38.7188 51.1875L38.2188 51.375L37.8125 51.4688L37.5 51.5H37.125L36.625 51.4375L36.0625 51.25L35.5312 50.9688L35.125 50.625L34.9062 50.4062L34.625 50.0312L34.3438 49.5L34.1875 49L34.125 48.625V47.9688L34.2188 47.4688L34.375 47L34.6562 46.5L35 46.0625L35.3438 45.75L35.7812 45.4688L36.1562 45.2812L36.7188 45.125L37.3125 45.0625ZM37.1562 47.25L36.8125 47.375L36.5625 47.5625L36.375 47.8438L36.3125 48.0625V48.5312L36.4375 48.8438L36.6875 49.125L36.9688 49.2812L37.375 49.3438L37.75 49.25L38.0312 49.0625L38.25 48.8125L38.3438 48.5625L38.375 48.2188L38.3125 47.9062L38.125 47.5938L37.9062 47.4062L37.625 47.2812L37.4688 47.25H37.1562Z" fill="#1B1B1B"/>
<path d="M45.8125 45.0625L46.4688 45.125L47.0312 45.2812L47.625 45.5938L48.0625 45.9375L48.2812 46.1562L48.625 46.625L48.875 47.125L49.0312 47.6875L49.0938 48.1875L49.0625 48.6875L48.9375 49.25L48.7812 49.6562L48.5312 50.0938L48.1875 50.5312L47.875 50.8125L47.4375 51.0938L47.0312 51.2812L46.5312 51.4375L46.0625 51.5H45.6562L45.1562 51.4375L44.5938 51.25L44.0625 50.9688L43.6562 50.625L43.4375 50.4062L43.125 49.9688L42.875 49.5L42.6875 48.875L42.6562 48.625V47.9688L42.75 47.4688L42.9062 47L43.1875 46.5L43.5938 46L44 45.6562L44.4375 45.4062L44.6875 45.2812L45.25 45.125L45.8125 45.0625ZM45.6875 47.25L45.3438 47.375L45.125 47.5312L44.9375 47.8125L44.8438 48.0625V48.5312L44.9375 48.7812L45.125 49.0312L45.375 49.2188L45.6562 49.3125L45.8438 49.3438L46.2812 49.25L46.5625 49.0625L46.7812 48.8125L46.875 48.5625L46.9062 48.4062V48.1562L46.8125 47.8438L46.625 47.5625L46.375 47.375L46.1562 47.2812L46 47.25H45.6875Z" fill="#1B1B1B"/>
<path d="M54 45.0938H54.8125L55.375 45.2188L55.75 45.375L56.1562 45.5938L56.5625 45.9062L56.8125 46.1562L57.1562 46.625L57.4062 47.1562L57.5312 47.5625L57.5938 47.875V48.7188L57.4688 49.25L57.3125 49.6562L57.0312 50.1562L56.625 50.625L56.1875 50.9688L55.6562 51.25L55.0625 51.4375L54.5938 51.5H54.1875L53.6875 51.4375L53.125 51.25L52.5938 50.9688L52.1875 50.625L51.9688 50.4062L51.625 49.9375L51.375 49.4062L51.2188 48.8438L51.1875 48.5938V48L51.2812 47.4688L51.4062 47.0938L51.7188 46.5L51.9688 46.1875L52.1875 45.9375L52.625 45.5938L53.2188 45.2812L53.7812 45.125L54 45.0938ZM54.2188 47.25L53.875 47.375L53.625 47.5625L53.4375 47.875L53.375 48.0625V48.5312L53.5 48.8125L53.6875 49.0625L53.9688 49.25L54.1875 49.3125L54.4375 49.3438L54.8125 49.25L55.0938 49.0625L55.3125 48.8125L55.4062 48.5625L55.4375 48.4062V48.1562L55.3438 47.8438L55.1562 47.5625L54.9062 47.375L54.6875 47.2812L54.5312 47.25H54.2188Z" fill="#1B1B1B"/>
<path d="M28.4062 45.0938H29.1875L29.6562 45.1875L30.1562 45.375L30.6562 45.6562L31.0938 46.0312L31.4375 46.4375L31.7188 46.9375L31.9062 47.4375L31.9688 47.6875L32 47.9688V48.6562L31.9375 49.0312L31.75 49.5938L31.4688 50.0938L31.1562 50.5H31.0938L31.0312 50.625L30.5938 50.9688L30.0625 51.25L29.4688 51.4375L28.9688 51.5H28.5938L28.0938 51.4375L27.5312 51.25L27.0625 51L26.6562 50.6875L26.375 50.4062L26.0312 49.9375L25.75 49.3438L25.625 48.875L25.5938 48.625V48L25.6562 47.5625L25.8438 47L26.125 46.5L26.3438 46.2188L26.625 45.9062L27.0312 45.5938L27.4062 45.375L27.8125 45.2188L28.1875 45.125L28.4062 45.0938ZM28.625 47.25L28.2812 47.375L28 47.5938L27.8438 47.875L27.7812 48.0625L27.75 48.3125L27.8125 48.6562L28 48.9688L28.25 49.1875L28.4375 49.2812L28.8438 49.3438L29.2188 49.25L29.5 49.0625L29.7188 48.8125L29.8438 48.4062V48.1875L29.7188 47.7812L29.5312 47.5312L29.25 47.3438L28.9375 47.25H28.625Z" fill="#1B1B1B"/>
<path d="M17.0312 5.875L17.375 5.90625L17.6562 6.03125L17.875 6.1875L18.0938 6.5L18.1875 6.8125V7.125L18.0625 7.46875L17.8125 7.8125L17.5312 8.125L17.1562 8.625L16.8438 9.125L16.5312 9.78125L16.25 10.6562L16.1562 11.0312L16.0625 11.9062V12.5312L16.1562 13.4375L16.4375 14.4375L16.625 14.9062L16.875 15.4062L17.3125 16.0625L17.6562 16.4688L17.9375 16.8125L18.0938 17.0938L18.1562 17.3125V17.625L18.0625 17.9062L17.875 18.1875L17.6562 18.375L17.375 18.5L17.2188 18.5312H16.875L16.5938 18.4375L16.3125 18.2188L16.0312 17.9375L15.75 17.5938L15.5 17.2812L15.0938 16.6875L14.7812 16.125L14.5 15.5312L14.25 14.875L14.0625 14.1875L13.9062 13.3125L13.8438 12.625V11.8438L13.9062 11.1562L14.0312 10.4062L14.1875 9.78125L14.4688 9L14.8125 8.25L15.1875 7.625L15.5625 7.09375L15.875 6.6875L16.0625 6.46875H16.125L16.1875 6.34375L16.4062 6.125L16.6562 5.96875L17.0312 5.875Z" fill="#1B1B1B"/>
<path d="M23.0938 8.90625H23.5312L23.8125 9L24.0938 9.21875L24.2812 9.46875L24.375 9.6875L24.4062 9.84375V10.0938L24.3125 10.4062L24.0938 10.75L23.8125 11.125L23.625 11.5312L23.5312 11.875L23.5 12.25L23.5625 12.7188L23.6875 13.0938L23.9062 13.4688L24.25 13.9062L24.4062 14.2188L24.4375 14.3125V14.7188L24.3438 15L24.125 15.2812L23.875 15.4688L23.5312 15.5938H23.1875L22.8438 15.4688L22.5312 15.2188L22.1875 14.8125L21.9688 14.5L21.625 13.8438L21.4375 13.25L21.3438 12.7812L21.3125 12.5V12L21.4062 11.3125L21.625 10.5938L21.9375 10L22.2188 9.59375L22.5625 9.1875L22.8438 9L23.0938 8.90625Z" fill="#1B1B1B"/>
<path d="M40.4688 8.90625H40.875L41.25 9.0625L41.5625 9.34375L41.9062 9.78125L42.1562 10.1875L42.4062 10.7188L42.5938 11.375L42.6875 12.125L42.6562 12.625L42.5938 13.125L42.375 13.8438L42 14.5625L41.5938 15.0625L41.375 15.3125L41.0625 15.5L40.7188 15.5938L40.4375 15.5625L40.0938 15.4375L39.8125 15.1875L39.625 14.875L39.5625 14.5938L39.5938 14.25L39.7188 13.9688L39.9375 13.6562L40.2188 13.2812L40.375 12.9062L40.4688 12.5V11.9688L40.3438 11.4688L40.125 11.0312L39.875 10.7188L39.6562 10.375L39.5938 10.1562V9.8125L39.6875 9.5L39.875 9.25L40.125 9.03125L40.4688 8.90625Z" fill="#1B1B1B"/>
</svg>
