<svg width="85" height="85" viewBox="0 0 85 85" fill="none" xmlns="http://www.w3.org/2000/svg">
<path d="M31.377 70.8887L32.4146 70.8887L32.9956 70.7642L33.6597 70.4736L34.2407 70.0586L34.6973 69.602L35.1123 68.9795L35.3613 68.3154L35.4858 67.7344L35.4858 66.9458L35.3198 66.2402L35.0293 65.5762L34.6558 65.0366L34.4067 64.7461L34.3237 64.7461L34.2407 64.5801L33.7427 64.082L33.6597 64.082L33.5767 63.916L33.4937 63.916L33.4106 63.75L33.1616 63.5425L32.9126 63.252L32.6636 63.0444L32.4146 62.7539L32.1655 62.5464L31.9165 62.2559L31.6675 62.0483L31.4185 61.7578L31.1694 61.5503L30.9204 61.2598L30.6714 61.0522L30.4224 60.7617L30.1733 60.5542L29.9243 60.2637L29.6753 60.0561L29.4263 59.7656L29.1772 59.5581L28.9282 59.2676L28.6792 59.0601L28.4302 58.7695L28.1812 58.562L27.9321 58.2715L27.6831 58.064L27.4341 57.7734L27.1851 57.5659L26.936 57.2754L26.687 57.0679L26.438 56.7773L26.189 56.5698L25.9399 56.2793L25.6909 56.0718L25.4419 55.7812L25.1929 55.5737L24.9438 55.2832L24.6948 55.0757L24.4458 54.7852L24.1968 54.5776L23.9478 54.2871L23.6572 54.0381L23.4497 53.7891L23.1592 53.54L22.9517 53.291L22.6611 53.042L22.4536 52.793L22.1631 52.5439L21.9556 52.2949L21.665 52.0459L21.4575 51.7969L21.167 51.5478L20.9595 51.2988L20.6274 51.0083L18.3447 48.7256L18.1372 48.4766L17.8052 48.186L16.8506 47.2314L16.6431 46.9824L16.311 46.6919L15.73 46.1108L27.8491 46.0693L78.1934 46.0693L78.7329 45.9863L79.2725 45.8203L79.895 45.4883L80.3101 45.1562L80.6836 44.7827L81.0986 44.1601L81.3477 43.5376L81.4722 42.998L81.4722 42.0434L81.3062 41.3794L81.0156 40.7153L80.7251 40.3003L80.3516 39.8852L79.9365 39.5532L79.314 39.2212L78.6499 39.0137L77.9443 38.9307L15.7715 38.9307L16.062 38.5986L22.5781 32.0825L22.5781 31.9995L22.7441 31.9165L22.7441 31.8335L22.9102 31.7505L22.9102 31.6675L23.0762 31.5845L23.0762 31.5015L23.2422 31.4185L23.2422 31.3354L23.4082 31.2524L23.4082 31.1694L23.5742 31.0864L23.5742 31.0034L23.7402 30.9204L23.7402 30.8374L23.9062 30.7544L23.9062 30.6714L24.0723 30.5884L24.0723 30.5054L24.2383 30.4224L24.2383 30.3393L24.4043 30.2563L24.4043 30.1733L24.5703 30.0903L24.5703 30.0073L24.7363 29.9243L24.7363 29.8413L24.9023 29.7583L24.9023 29.6753L25.0684 29.5923L25.0684 29.5093L25.2344 29.4263L25.2344 29.3433L25.4004 29.2602L25.4004 29.1772L25.5664 29.0942L25.5664 29.0112L25.7324 28.9282L25.7324 28.8452L25.8984 28.7622L25.8984 28.6792L26.0645 28.5962L26.0645 28.5132L26.2305 28.4302L26.2305 28.3472L26.3965 28.2642L26.3965 28.1811L26.5625 28.0981L26.5625 28.0151L26.7285 27.9321L26.7285 27.8491L26.8945 27.7661L26.8945 27.6831L27.0605 27.6001L27.0605 27.5171L27.2266 27.4341L27.5586 27.102L27.5586 27.019L27.7246 26.936L31.2109 23.4497L31.2109 23.3667L31.377 23.2837L31.377 23.2007L31.543 23.1177L31.543 23.0347L31.709 22.9517L31.709 22.8686L31.875 22.7856L31.875 22.7026L32.041 22.6196L32.041 22.5366L32.207 22.4536L32.207 22.3706L32.373 22.2876L32.373 22.2046L32.5391 22.1216L32.5391 22.0386L32.7051 21.9556L32.7051 21.8726L32.8711 21.7895L32.8711 21.7065L33.0371 21.6235L33.0371 21.5405L33.2031 21.4575L33.2031 21.3745L33.3691 21.2915L33.3691 21.2085L33.5352 21.1255L34.1992 20.4614L34.1992 20.3784L34.2822 20.3784L34.2822 20.2954L34.3652 20.2954L34.8218 19.7143L35.1953 19.0088L35.3613 18.3447L35.4028 18.0127L35.4028 17.5976L35.3198 16.9336L35.1538 16.4355L34.8633 15.8545L34.4482 15.3149L34.1577 15.0244L33.5352 14.6094L32.9126 14.3603L32.207 14.1943L31.4185 14.1943L30.8374 14.3188L30.2978 14.5264L29.8413 14.7754L29.3018 15.2319L4.44092 40.0928L4.06738 40.5908L3.81836 41.0059L3.56933 41.7529L3.48633 42.2925L3.48633 42.666L3.56933 43.2471L3.73535 43.7866L4.06738 44.4507L4.44092 44.9072L4.68994 45.1978L4.93896 45.4053L5.18799 45.6958L5.43701 45.9033L5.68603 46.1938L5.97656 46.4429L6.18408 46.6919L6.47461 46.9409L6.68213 47.1899L6.97265 47.439L7.18017 47.688L7.4707 47.937L7.67822 48.186L7.96875 48.4351L8.17627 48.6841L8.4668 48.9331L8.67431 49.1821L8.96484 49.4311L9.17236 49.6802L9.46289 49.9292L9.67041 50.1782L9.96094 50.4272L10.1685 50.6763L10.459 50.9253L10.6665 51.1743L10.957 51.4233L11.1645 51.6724L11.4551 51.9214L11.6626 52.1704L11.9531 52.4194L12.1606 52.6685L12.4512 52.9175L12.6587 53.1665L12.9492 53.4155L13.1567 53.6645L13.4473 53.9136L13.6548 54.1626L13.9453 54.4116L14.1528 54.6606L14.4434 54.9097L14.6509 55.1587L14.9414 55.4077L15.1489 55.6567L15.4395 55.9058L15.647 56.1548L15.9375 56.4038L16.145 56.6528L16.4355 56.9019L16.6431 57.1509L16.9336 57.3999L17.1411 57.6489L17.4316 57.8979L17.6392 58.147L17.9297 58.396L18.1372 58.645L18.4277 58.894L18.6353 59.1431L18.9258 59.3921L19.1333 59.6411L19.4238 59.8901L19.6313 60.1392L19.9219 60.3882L20.1294 60.6372L20.4199 60.8862L20.6274 61.1353L20.918 61.3843L21.1255 61.6333L21.416 61.8823L21.6235 62.1313L21.9141 62.3804L22.1216 62.6294L22.4121 62.8784L22.6196 63.1274L22.9102 63.3765L23.1177 63.6255L23.4082 63.8745L23.6157 64.1235L23.9063 64.3726L24.1138 64.6216L24.4043 64.8706L24.6118 65.1196L24.9023 65.3686L25.1099 65.6177L25.4004 65.8667L25.6079 66.1157L25.8984 66.3647L26.106 66.6138L26.3965 66.8628L26.604 67.1118L26.853 67.3193L27.1021 67.6099L27.3511 67.8174L27.6001 68.1079L27.8491 68.3154L28.0981 68.606L28.3472 68.8135L28.4717 68.9795L28.5547 68.9795L28.6377 69.1455L28.7207 69.1455L28.8037 69.3115L28.8867 69.3115L28.9697 69.4775L29.0527 69.4775L29.1357 69.6436L29.2188 69.6436L29.2603 69.7681L29.5923 70.0586L30.0903 70.4321L30.7129 70.7227L31.377 70.8887Z" fill="#1B1B1B"/>
</svg>
