<svg width="100" height="100" viewBox="0 0 100 100" fill="none" xmlns="http://www.w3.org/2000/svg">
<path d="M53.3167 65.8285H79.975C80.9747 65.8285 81.6411 65.1621 81.6411 64.1624V49.1671C81.6411 48.1674 80.9747 47.501 79.975 47.501H53.3167C52.317 47.501 51.6506 48.1674 51.6506 49.1671V64.1624C51.6504 65.1619 52.317 65.8285 53.3167 65.8285ZM54.9828 50.8331H78.3089V62.4961H54.9828V50.8331Z" fill="#EE9338"/>
<path d="M8.33088 44.1683H21.6601C22.6598 44.1683 23.3262 43.5019 23.3262 42.5023C23.3262 41.5026 22.6598 40.8362 21.6601 40.8362H8.33088C7.33119 40.8362 6.66479 41.5026 6.66479 42.5023C6.66479 43.5019 7.33119 44.1683 8.33088 44.1683Z" fill="#EE9338"/>
<path d="M28.3245 44.1683H41.6538C42.6534 44.1683 43.3198 43.5019 43.3198 42.5023C43.3198 41.5026 42.6534 40.8362 41.6538 40.8362H28.3245C27.3248 40.8362 26.6584 41.5026 26.6584 42.5023C26.6584 43.5019 27.3248 44.1683 28.3245 44.1683Z" fill="#EE9338"/>
<path d="M8.33088 50.8331H29.9907C30.9904 50.8331 31.6568 50.1667 31.6568 49.1671C31.6568 48.1674 30.9904 47.501 29.9907 47.501H8.33088C7.33119 47.501 6.66479 48.1674 6.66479 49.1671C6.66479 50.1667 7.33119 50.8331 8.33088 50.8331Z" fill="#EE9338"/>
<path d="M41.6535 47.5007H36.6551C35.6554 47.5007 34.989 48.1671 34.989 49.1668C34.989 50.1665 35.6554 50.8329 36.6551 50.8329H41.6535C42.6532 50.8329 43.3196 50.1665 43.3196 49.1668C43.3196 48.1671 42.6532 47.5007 41.6535 47.5007Z" fill="#EE9338"/>
<path d="M98.4692 26.8405C97.303 25.341 95.8035 24.5079 93.9706 24.3413L89.9719 23.8567V19.1761V15.844C89.9719 12.1785 86.9728 9.17944 83.3074 9.17944H6.66452C2.99906 9.17925 0 12.1783 0 15.844V19.1763V32.5056V69.1607C0 72.1701 2.02222 74.7289 4.77448 75.5489C4.69053 78.9194 7.24071 81.8454 10.6635 82.1566L87.6394 90.8205C87.806 90.8205 88.1393 90.8205 88.3058 90.8205C91.6382 90.8205 94.6372 88.3213 94.9703 85.1557L99.9688 31.6724C100.135 30.0061 99.6355 28.1733 98.4692 26.8405ZM3.33236 20.8424H86.6397V25.1744V30.8393H3.33236V20.8424ZM6.66452 12.5116H83.3072C85.14 12.5116 86.6395 14.0111 86.6395 15.844V17.51H3.33236V15.844C3.33236 14.0111 4.83189 12.5116 6.66452 12.5116ZM3.33236 69.1605V34.1714H86.6397V69.1605C86.6397 70.9933 85.1402 72.4929 83.3074 72.4929H6.83126H6.66471C4.83189 72.4929 3.33236 70.9933 3.33236 69.1605ZM96.6364 31.0058L91.638 84.4891C91.4714 86.3219 89.8051 87.6547 87.9725 87.4882L11.1631 78.8243C9.49703 78.6577 8.3306 77.3247 8.16405 75.8252H83.3072C86.9726 75.8252 89.9717 72.8261 89.9717 69.1607V32.5054V27.0071L93.8039 27.3404C94.637 27.3404 95.47 27.8402 95.9698 28.5066C96.4699 29.173 96.8031 30.1727 96.6364 31.0058Z" fill="#EE9338"/>
</svg>
