<svg width="100" height="100" viewBox="0 0 100 100" fill="none" xmlns="http://www.w3.org/2000/svg">
<path d="M72.168 0H73.1445L73.6816 0.341797L74.1211 0.78125L74.5605 1.31836L75.2441 2.14844L75.6348 2.63672L76.123 3.27148L76.8066 4.10156L77.2461 4.63867L78.6133 6.29883L79.1504 6.93359L79.6875 7.61719L80.2734 8.30078L80.6641 8.78906L81.3477 9.61914L81.8848 10.2539L82.2754 10.7422L82.8125 11.377L83.3496 12.0605L83.8867 12.6953L84.3262 13.2324L85.0098 14.0625L85.5469 14.6973L86.084 15.3809L86.6211 16.0156L87.0605 16.5527L87.7441 17.3828L88.2812 18.0176L88.8184 18.7012L89.3555 19.3359L89.7949 19.873L90.4785 20.7031L91.0156 21.3379L91.5527 22.0215L92.0898 22.6562L92.5293 23.1934L93.2129 24.0234L93.75 24.6582L94.2871 25.3418L94.873 26.0254L95.2637 26.5137L95.8008 27.1973L96.0449 27.6855L96.0938 27.8809V28.3203L95.8984 28.8574L95.6055 29.248L95.3613 29.4434L94.873 29.6387L94.2871 29.6875H85.1562V75L85.0586 75.5371L84.7656 76.0254L84.4238 76.3184L83.8867 76.5137L83.1543 76.5625H61.5234L61.084 76.4648L60.6445 76.1719L60.3516 75.8301L60.1562 75.293V29.6875H50.4883L50.0488 29.541L49.6582 29.248L49.3652 28.8086L49.2188 28.4668V27.7344L49.3652 27.3438L49.9023 26.6602L50.293 26.1719L50.8301 25.5371L51.2207 25.0488L51.9043 24.2188L52.4414 23.584L52.9785 22.9004L53.5645 22.2168L53.9551 21.7285L54.6387 20.8984L55.1758 20.2637L55.8105 19.4824L56.4941 18.6523L57.373 17.5781L57.9102 16.9434L58.5449 16.1621L59.2285 15.332L60.1074 14.2578L60.6445 13.623L61.2793 12.8418L61.9629 12.0117L62.8418 10.9375L63.3789 10.3027L64.0137 9.52148L64.6973 8.69141L65.5762 7.61719L66.1133 6.98242L66.748 6.20117L67.4316 5.37109L68.3105 4.29688L68.8477 3.66211L69.4824 2.88086L70.166 2.05078L71.0449 0.976562L71.4844 0.488281L71.8262 0.195312L72.168 0Z" fill="#FE9578"/>
<path d="M9.7168 62.5H47.7051L48.2422 62.5977L48.6816 62.8906L49.0234 63.2812L49.1699 63.6719L49.2188 64.0137V70.3125L49.1211 70.8496L48.8281 71.3379L48.4863 71.6309L48.1445 71.7773L47.2656 71.875L44.873 71.9238L45.459 72.168L45.8008 72.5098L46.0449 72.998L46.0938 73.3398V79.6387L45.9961 80.2246L45.752 80.6641L45.3613 81.0059L44.873 81.1523L45.1172 81.2012L47.7051 81.25L48.1934 81.3477L48.584 81.543L48.9258 81.8848L49.1211 82.2754L49.2188 82.7148V89.0625L49.1211 89.5996L48.8281 90.0879L48.4863 90.3809L48.1445 90.5273L47.2656 90.625L44.873 90.6738L45.459 90.918L45.8008 91.2598L46.0449 91.748L46.0938 92.0898V98.4375L45.9961 98.9746L45.7031 99.4629L45.3613 99.7559L44.7754 100H6.54297L5.95703 99.6094L5.61523 99.1699L5.46875 98.7793V91.7969L5.76172 91.2109L6.10352 90.8691L6.5918 90.625H9.61914L9.47266 90.4785L9.0332 90.1855L8.74023 89.7949L8.59375 89.4043V82.4219L8.88672 81.8359L9.32617 81.4453L9.61914 81.3477V81.25H6.83594L6.39648 81.1523L5.95703 80.8594L5.66406 80.5176L5.46875 79.9805V73.0469L5.76172 72.4609L6.10352 72.1191L6.5918 71.875H9.61914L9.47266 71.7285L9.0332 71.4355L8.74023 71.0449L8.59375 70.6543V63.6719L8.88672 63.0859L9.32617 62.6953L9.7168 62.5Z" fill="#FFD45F"/>
<path d="M25.3616 16H26.7366L28.2098 16.0983L29.9777 16.3441L31.3527 16.6391L32.7277 17.0324L34.1027 17.524L35.3304 18.0648L36.7054 18.7531L37.9821 19.5397L38.6205 19.9821L39.5536 20.6704L40.0938 21.1128L40.6339 21.6045L41.0268 21.9486L41.7634 22.6369L42.1071 23.0302L42.6964 23.6693L43.2366 24.3575L43.9241 25.2425L44.6116 26.2749L45.25 27.3564L45.8393 28.4872L46.3795 29.667L47.067 31.6335L47.6071 33.7966L47.9018 35.8615L48 37.7296L47.9509 39.4994L47.8527 40.581L47.558 42.4983L47.1161 44.219L46.5759 45.8413L46.0848 47.0212L45.3482 48.5452L44.5134 49.9218L43.875 50.8559L43.3839 51.495L42.8438 52.1832L42.2054 52.8715L41.8616 53.2648L41.6161 53.5598L41.2232 53.9039L40.8795 54.248L40.4866 54.5922L39.7991 55.1821L38.8661 55.8704L38.1786 56.362L36.8036 57.1978L35.6741 57.7877L34.2991 58.4268L32.4821 59.0659L31.0089 59.4592L29.7812 59.705L28.4062 59.9017L27.1786 60H24.7723L23.4955 59.9017L21.875 59.6559L20.7455 59.4101L19.3214 59.0168L17.7009 58.4268L16.7188 57.9844L15.6875 57.4927L14.3616 56.7061L13.5268 56.1654L12.4955 55.3788L11.8571 54.8871L11.1205 54.1989L10.7277 53.8547L9.94196 53.0682L9.59821 52.6749L9.10714 52.1341L8.46875 51.2983L7.87946 50.5117L7.19196 49.4302L6.55357 48.3486L5.81696 46.8246L5.32589 45.5464L4.83482 44.0715L4.49107 42.695L4.24554 41.3184L4.09821 40.286L4 38.6637V37.3363L4.09821 35.7631L4.39286 33.7966L4.6875 32.5184L5.08036 31.1419L5.66964 29.5687L6.35714 28.0939L6.84821 27.1598L7.48661 26.1274L7.97768 25.3899L8.76339 24.3575L9.15625 23.8659L9.64732 23.3251L9.99107 22.9318L10.5804 22.2927L11.0714 21.8503L11.7589 21.2112L12.4464 20.6704L13.4286 19.933L14.1652 19.4413L15.4911 18.6547L16.2768 18.2615L17.5045 17.6715L18.9777 17.1307L19.9107 16.8358L21.4821 16.4425L23.0045 16.1966L24.3304 16.0492L25.3616 16Z" fill="#FEDD77"/>
<path d="M9.7168 62.5H47.7051L48.2422 62.5977L48.6816 62.8906L49.0234 63.2812L49.1699 63.6719L49.2188 64.0137V70.3125L49.1211 70.8496L48.8281 71.3379L48.4863 71.6309L48.1445 71.7773L47.2656 71.875L44.873 71.9238L44.7266 71.9727L44.6777 71.9238H18.457L16.7969 71.875L16.0645 71.8262L15.5273 71.6797L15.2832 71.4355L15.0879 71.3379L14.9902 71.1914L14.8926 70.7031L14.8438 69.873L14.7949 65.8203L14.8438 63.5742L14.9414 62.9883L15.625 62.793L15.8691 62.6953V62.6465L14.9902 62.5977L9.7168 62.5488V62.5Z" fill="#FFDE76"/>
<path d="M44.7754 81.1035L45.1172 81.2012L47.7051 81.25L48.1934 81.3477L48.584 81.543L48.9258 81.8848L49.1211 82.2754L49.2188 82.7148V89.0625L49.1211 89.5996L48.8281 90.0879L48.4863 90.3809L48.1445 90.5273L47.2656 90.625L44.873 90.6738L44.7266 90.7227L44.6777 90.6738H17.6758L16.0645 90.5762L15.4785 90.3809L15.4297 90.2344L15.1367 90.1367L14.9902 89.8926L14.8926 89.3066L14.8438 88.4277V82.5684L14.9414 82.1777L15.332 81.7871L15.6738 81.543L16.0156 81.3965L16.748 81.3477H37.1582L42.3828 81.2988L44.7266 81.25L44.7754 81.1035Z" fill="#FEE89F"/>
<path d="M60.2051 29.6875L66.2598 29.7363L66.3574 29.7852V73.3887L66.4062 74.9512L66.5039 76.1719L66.6016 76.416L66.6504 76.5137H61.1816L60.6934 76.2207L60.3516 75.8301L60.2051 75.4883V29.6875Z" fill="#FE7D5C"/>
<path d="M72.168 0H73.1445L73.6816 0.341797L74.1211 0.78125L74.5605 1.31836L75.2441 2.14844L75.6348 2.63672L75.7812 2.83203V2.92969L75.5859 3.02734L75.4883 3.22266L75.2441 3.4668L74.7559 4.10156L74.2676 4.6875L73.9258 5.12695L73.4863 5.61523L73.3887 5.81055H73.291L73.1934 6.05469L72.8516 6.39648L72.3145 7.08008L71.9727 7.51953L71.7285 7.76367L71.1914 8.44727L70.8008 8.93555L70.7031 8.98438L70.5566 9.22852L70.1172 9.7168L69.5801 10.4004L69.2383 10.8398H69.1406L69.043 11.0352L68.4082 11.8164L68.0664 12.2559H67.9688L67.8711 12.5L67.4316 12.9883L66.8945 13.6719L66.3086 14.3555L65.6738 15.1367L65.332 15.5762H65.2344L65.1367 15.8203L64.6973 16.3086L64.1602 16.9922L63.5742 17.6758L62.9395 18.457L62.5977 18.8965H62.5L62.4023 19.1406L61.9629 19.6289L61.4258 20.3125L60.8398 20.9961L60.3516 21.6309L59.9121 22.1191L59.8633 22.2168H59.7656L59.668 22.4609L59.2285 22.9492L58.1543 24.3164L58.0078 24.4629L57.959 24.5605H57.8613L57.7637 24.7559L57.3242 25.293L56.7871 25.9277L56.5918 26.2207L56.3477 26.4648L56.2012 26.709H56.1035L56.0059 26.9043L55.6641 27.3926L55.5176 27.7344L55.4688 28.0273L55.5664 28.5645L55.8594 29.1504L56.1035 29.4434V29.541L56.2012 29.5898L56.1523 29.6387H50.2441L49.7559 29.3457L49.4629 29.0039L49.2188 28.4668V27.7344L49.3652 27.3438L49.9023 26.6602L50.293 26.1719L50.8301 25.5371L51.2207 25.0488L51.9043 24.2188L52.4414 23.584L52.9785 22.9004L53.5645 22.2168L53.9551 21.7285L54.6387 20.8984L55.1758 20.2637L55.8105 19.4824L56.4941 18.6523L57.373 17.5781L57.9102 16.9434L58.5449 16.1621L59.2285 15.332L60.1074 14.2578L60.6445 13.623L61.2793 12.8418L61.9629 12.0117L62.8418 10.9375L63.3789 10.3027L64.0137 9.52148L64.6973 8.69141L65.5762 7.61719L66.1133 6.98242L66.748 6.20117L67.4316 5.37109L68.3105 4.29688L68.8477 3.66211L69.4824 2.88086L70.166 2.05078L71.0449 0.976562L71.4844 0.488281L71.8262 0.195312L72.168 0Z" fill="#FE7D5C"/>
<path d="M61.5234 96.875H83.6426L84.1309 96.9727L84.5703 97.2168L84.9609 97.6562L85.1074 97.998L85.1562 98.2422V98.6328L85.0098 99.0723L84.7168 99.5117L84.3262 99.8047L83.7891 100H61.4746L60.8887 99.7559L60.498 99.4141L60.2051 98.8281L60.1562 98.6328V98.2422L60.3516 97.6562L60.7422 97.2168L61.3281 96.9238L61.5234 96.875Z" fill="#FE7D5C"/>
<path d="M61.5723 89.0625H83.6426L84.1309 89.1602L84.5703 89.4043L84.9609 89.8438L85.1074 90.2344L85.1562 90.4785V90.8203L85.0098 91.2598L84.7168 91.6992L84.4238 91.9434L83.8867 92.1387L83.3008 92.1875H61.8164L61.1816 92.0898L60.791 91.8945L60.4004 91.4551L60.2051 91.0156L60.1562 90.8203V90.4785L60.3027 89.9414L60.5957 89.5508L60.9863 89.2578L61.3281 89.1113L61.5723 89.0625Z" fill="#FE7D5C"/>
<path d="M61.5723 81.25H83.5938L84.1309 81.3477L84.5703 81.5918L84.9609 82.0312L85.1074 82.4219L85.1562 82.666V83.0078L85.0098 83.4473L84.7168 83.8867L84.4238 84.1309L83.8867 84.3262L83.3008 84.375H61.8164L61.1816 84.2773L60.791 84.082L60.4004 83.6426L60.2051 83.2031L60.1562 83.0078V82.666L60.3027 82.1289L60.5957 81.7383L60.8887 81.4941L61.3281 81.2988L61.5723 81.25Z" fill="#FE7D5C"/>
<path d="M33.5449 52.9785L33.6914 53.0273H33.5938L33.5449 53.1738L33.0566 53.418L32.3242 53.7598L30.957 54.248L30.5664 54.3457L30.3711 54.2969L30.5664 54.1016L30.8105 54.0039L31.25 53.9062L31.8848 53.6621L32.666 53.3691L33.1543 53.1738L33.5449 52.9785Z" fill="#FEE89F"/>
<circle cx="26" cy="38" r="17" fill="#FBDA5F"/>
<path d="M19.002 26H32.9667L33.3112 26.0312L33.6243 26.1875L33.8434 26.4375L33.9687 26.6875L34 26.7812V27.1875L33.8748 27.4688L33.6869 27.7188L33.4364 27.9062L33.2798 27.9688L32.8415 28H28.5205L28.865 28.4688L29.1468 28.9062L29.4286 29.4062L29.6791 29.9688L33.1859 30L33.5303 30.125L33.8434 30.4062L34 30.7812V31.2188L33.8434 31.5312L33.6243 31.7812L33.3738 31.9375L32.998 32L30.0548 32.0312L29.9609 32.75L29.8043 33.5312L29.5538 34.2812L29.272 34.875L28.9589 35.375L28.6458 35.7812L28.2701 36.1875L27.9569 36.5L27.6125 36.7812L26.955 37.2188L26.2348 37.5625L25.6086 37.7812L25.0763 37.9062L24.6067 37.9688L24.1057 38H21.1624L21.2564 38.1562L21.6321 38.5938L21.9139 38.9062L22.1644 39.2188L22.5401 39.6562L22.7906 39.9688L23.135 40.375L23.4168 40.7188L23.7613 41.125L24.0431 41.4688L24.3875 41.875L24.6693 42.2188L25.0137 42.625L25.2955 42.9688L25.6399 43.375L26.047 43.875L26.4227 44.3125L26.6732 44.625L27.0489 45.0625L27.2994 45.375L27.6751 45.8125L27.9256 46.125L28.3014 46.5625L28.5519 46.875L28.9276 47.3125L29.2094 47.6562L29.5538 48.0625L29.8669 48.5L29.9922 48.7812V49.1875L29.8669 49.4688L29.5851 49.7812L29.3346 49.9375L29.1468 50H28.865L28.5519 49.875L28.2387 49.5938L28.0196 49.375L27.6751 48.9375L26.9863 48.125L26.7358 47.8125L26.3601 47.375L26.1096 47.0625L25.7339 46.625L25.4834 46.3125L25.1076 45.875L24.8571 45.5625L24.4814 45.125L24.2309 44.8125L23.8552 44.375L23.6047 44.0625L23.229 43.625L22.9785 43.3125L22.6027 42.875L22.3523 42.5625L21.9765 42.125L21.726 41.8125L21.3503 41.375L21.0998 41.0625L20.7241 40.625L20.4736 40.3125L20.1292 39.9062L19.8474 39.5625L19.5029 39.1562L19.2211 38.8125L18.8767 38.4062L18.501 37.9688L18.1879 37.5625L18 37.1875V36.8438L18.1566 36.4688L18.4384 36.1875L18.7515 36.0312L18.9393 36H23.2603L24.4188 35.9688L25.2016 35.8125L25.7339 35.5938L26.2035 35.3438L26.5793 35.0625L26.955 34.7188L27.2681 34.3125L27.5186 33.9062L27.7378 33.4375L27.863 33.0625L27.9883 32.375L28.0196 32H18.908L18.6262 31.9375L18.407 31.8125L18.1566 31.5312L18 31.1875V30.9062L18.0939 30.5938L18.2818 30.3125L18.6262 30.0625L18.908 30H25.8591L27.4247 29.9688V29.9062L27.1742 29.5625L26.8297 29.1875L26.4853 28.875L25.953 28.5312L25.4207 28.2812L24.9198 28.125L24.3249 28.0312L18.908 28L18.5949 27.9375L18.3444 27.75L18.1566 27.5312L18.0313 27.3125L18 27.1875V26.9062L18.1252 26.5312L18.3444 26.2812L18.5949 26.0938L18.7515 26.0312L19.002 26Z" fill="white"/>
</svg>
