<svg width="52" height="52" viewBox="0 0 52 52" fill="none" xmlns="http://www.w3.org/2000/svg">
<g clip-path="url(#clip0_112_1911)">
<path fill-rule="evenodd" clip-rule="evenodd" d="M19.2281 2.67044C19.2112 1.92508 19.2033 1.57576 19.6565 0.898091C20.5592 0.102249 21.2457 0.00770259 22.4356 0L23.0456 0.00868277C23.4755 0.00905778 23.9055 0.00984906 24.3354 0.0110192C25.0105 0.0185809 25.6854 0.0258217 26.3605 0.0266929C26.8027 0.0266288 27.2448 0.0275653 27.6869 0.029583L28.3206 0.0336049L28.933 0.0349496L29.5035 0.0426586C30.2028 0.049095 30.6679 0.110277 31.2565 0.499337C31.8278 1.0599 32.0404 1.35945 32.1347 2.16055L32.1065 2.85448L32.0847 3.55619L32.0565 4.08812C34.2776 4.07974 36.4987 4.07293 38.7198 4.06865L38.9795 4.06819C40.0244 4.06635 41.0692 4.0645 42.1141 4.06074C43.2235 4.05633 44.3328 4.05242 45.4422 4.05089C45.8631 4.05049 46.284 4.04992 46.705 4.04918C47.3132 4.04606 47.9213 4.04296 48.5295 4.04268L49.0853 4.04285C49.682 4.03795 50.2599 4.05057 50.8565 4.08812C51.0867 4.27475 51.2007 4.36711 51.2564 4.48662C51.311 4.60373 51.3098 4.7469 51.3073 5.03036L51.3083 5.7306C51.3102 6.1363 51.3121 6.54202 51.3111 6.94772C51.3101 7.23843 51.3098 7.52914 51.3101 7.81985C51.3111 8.42515 51.3116 9.03045 51.3101 9.63575C51.3077 10.424 51.3064 11.2122 51.3087 12.0005C51.3106 12.6147 51.3114 13.229 51.3108 13.8432C51.3103 14.1364 51.3099 14.4296 51.3097 14.7229C51.3106 15.0092 51.3114 15.2956 51.3121 15.5819L51.3083 16.3762L51.3083 16.5009C51.3084 17.254 51.3085 17.568 50.8565 18.2439H45.4565V29.409H48.4565C48.8359 29.719 48.9822 29.8385 49.0517 29.9927C49.0953 30.0895 49.1086 30.1999 49.1304 30.3796L49.1287 30.8057L49.1312 31.2962L49.1246 31.832C49.1249 32.4264 49.1243 33.0207 49.12 33.615C49.1167 34.0403 49.1146 34.4655 49.1135 34.8907C49.1119 36.0037 49.1083 37.1168 49.1018 38.2298C49.095 39.3837 49.0908 40.5377 49.0876 41.6916C49.0817 43.936 49.0727 46.1803 49.0606 48.4247L49.0565 49.1473L49.8315 49.1348L49.8554 49.1345C50.3463 49.1265 50.6063 49.1223 51.0565 49.3467L51.0565 49.3467L51.0566 49.3469C51.1476 49.6295 51.1938 49.773 51.2191 49.9201C51.2451 50.0717 51.2489 50.2272 51.2565 50.5429C50.9532 50.9568 50.7709 51.1195 50.2619 51.2156L49.803 51.2152L49.2723 51.2192L48.6889 51.2143C48.0331 51.2164 47.3774 51.2176 46.7216 51.2151C46.2397 51.2131 45.7578 51.2122 45.2759 51.2124C43.9658 51.2141 42.6557 51.2138 41.3455 51.2104C39.9519 51.2068 38.5583 51.2057 37.1647 51.2055C34.6838 51.2052 32.203 51.2027 29.7222 51.198C27.3041 51.1934 24.8861 51.1899 22.468 51.1891L22.0161 51.189L21.114 51.1887L20.6644 51.1886L20.2159 51.1884C17.904 51.1878 15.5921 51.1857 13.2802 51.1833C12.4447 51.1824 11.6093 51.1815 10.7738 51.181C9.43497 51.1801 8.09615 51.1788 6.75734 51.1762L5.28227 51.1732H5.27684C4.59031 51.1729 3.90379 51.1726 3.21726 51.1709L2.59879 51.1691L2.01402 51.1696L1.48494 51.1673L1.45384 51.1672C0.963077 51.1665 0.706843 51.1662 0.256533 50.9417L0.0940326 50.3685C0.042279 50.0333 0.0192484 49.8841 0.0548572 49.7505C0.0834089 49.6435 0.14966 49.5464 0.269033 49.3716L0.269052 49.3716C0.450099 49.2481 0.549775 49.1802 0.659936 49.146C0.794871 49.1042 0.945539 49.1133 1.28075 49.1333L1.85653 49.1473C1.84391 46.916 1.83367 44.6847 1.82724 42.4534L1.82654 42.1904C1.82377 41.1408 1.821 40.0911 1.81533 39.0415C1.8087 37.9271 1.8028 36.8127 1.80051 35.6982C1.79991 35.2747 1.79906 34.8512 1.79794 34.4277C1.79324 33.8171 1.78857 33.2066 1.78815 32.5959L1.78842 32.0357L1.78188 31.5077L1.78438 31.0215C1.81006 30.6295 1.82381 30.4198 1.89308 30.2303C1.97287 30.012 2.12633 29.8207 2.45653 29.409H5.45653V18.2439H0.456533C0.219752 17.9452 0.109729 17.8064 0.0573022 17.6485C0.0117968 17.5114 0.00968459 17.3599 0.00573909 17.0769L0.00477474 16.3762C0.00282097 15.9701 0.000999031 15.5639 0.00201442 15.1577C0.00294518 14.8672 0.0032732 14.5766 0.00300624 14.2861C0.00196976 13.6808 0.00150981 13.0755 0.00295513 12.4702C0.00535244 11.6822 0.00666104 10.8942 0.00438411 10.1062C0.00251716 9.49157 0.00165759 8.87698 0.00224788 8.26236C0.00275006 7.96934 0.00313819 7.67632 0.00340755 7.38329C0.00249035 7.09653 0.00166995 6.80976 0.000953937 6.52299L0.00477474 5.7306C-0.000512591 5.36531 -0.00293864 5.19771 0.00569914 5.03067C0.013023 4.88904 0.0283008 4.74783 0.0565326 4.48688C0.41144 4.24848 0.592814 4.12665 0.792699 4.06897C1.00161 4.00869 1.23075 4.01848 1.69936 4.03851H1.69937L2.22772 4.04285C2.81201 4.04267 3.39623 4.04308 3.98051 4.04596C4.39884 4.04811 4.81717 4.04955 5.23551 4.05029C6.32999 4.05133 7.42446 4.05372 8.51894 4.05804C9.65383 4.06255 10.7887 4.06538 11.9236 4.06746C14.1309 4.07138 16.3382 4.07737 18.5455 4.08544L19.2565 4.08812L19.2425 3.54217L19.2315 2.82956L19.2281 2.67044ZM2.05653 6.08189H19.0565L19.2565 11.0663C19.5283 11.6752 19.6558 11.9607 19.8486 12.1917C20.0188 12.3956 20.24 12.5569 20.6565 12.8607C20.8869 12.9047 21.0058 12.9275 21.1257 12.938C21.2536 12.9493 21.3827 12.9467 21.6495 12.9413L22.2462 12.9489L22.887 12.9472L23.549 12.9503C24.0108 12.9516 24.4726 12.9513 24.9344 12.9496C25.6407 12.9479 26.3467 12.9537 27.053 12.96C27.5018 12.9603 27.9507 12.9602 28.3995 12.9596L29.0391 12.9664C29.918 12.9581 30.4957 12.9501 31.2726 12.5181C32.4062 11.175 32.3426 9.51065 32.2775 7.80384V7.80381V7.80378V7.80375V7.80372C32.2556 7.23104 32.2336 6.65359 32.2565 6.08189H49.2565V16.2501L45.0268 16.2867C44.1446 16.2948 43.2623 16.3029 42.38 16.3113C40.9784 16.3245 39.5769 16.3375 38.1753 16.3493C37.0458 16.3588 35.9163 16.3692 34.7868 16.3803C34.3551 16.3844 33.9234 16.3881 33.4916 16.3915C32.8887 16.3963 32.2857 16.4023 31.6828 16.4086L31.1375 16.412C30.6994 16.4041 30.4825 16.4002 30.2705 16.4308C30.0625 16.4607 29.8592 16.5238 29.4565 16.6489C29.448 17.0475 29.4484 17.4465 29.4565 17.8451C29.7113 18.0991 29.9676 18.0937 30.2882 18.0871C30.363 18.0855 30.4412 18.0839 30.5238 18.0854L31.0897 18.0976L31.6886 18.1076L32.236 18.1189C32.8394 18.131 33.4428 18.1418 34.0462 18.1527L34.0488 18.1527L34.269 18.1567L38.8565 18.2439V29.409L36.0565 29.6084L35.6565 29.8077L35.4565 37.1847L32.2175 37.2003C31.5393 37.2053 30.8612 37.2105 30.1831 37.2166C29.1073 37.2263 28.0316 37.235 26.9558 37.2387C26.0882 37.2418 25.2207 37.2486 24.3531 37.2581C24.0225 37.2611 23.6919 37.2627 23.3613 37.2628C22.8974 37.2633 22.4337 37.2687 21.9697 37.2752L21.1703 37.2806C20.1099 37.4343 19.5003 37.9123 18.794 38.6925C18.1615 39.6032 18.148 40.4986 18.2565 41.571C18.3969 41.9217 18.4629 42.0865 18.5438 42.2435C18.6156 42.3828 18.699 42.516 18.8565 42.7672L18.8565 42.7673L19.0565 43.3654C19.2245 43.4727 19.3133 43.5294 19.4066 43.5773C19.5114 43.6311 19.622 43.6737 19.8565 43.7641L20.2949 43.9712C20.9839 44.2063 21.5637 44.2188 22.2919 44.2265L22.718 44.2325C23.1801 44.2387 23.6421 44.2421 24.1042 44.2454C24.4256 44.2492 24.747 44.2531 25.0685 44.2571C25.9125 44.2674 26.7565 44.2753 27.6005 44.2827C28.3937 44.29 29.1869 44.2993 29.98 44.3085L30.1866 44.3109C31.8766 44.3301 33.5665 44.3468 35.2565 44.3623V49.1473H15.6565C15.609 41.9789 15.5976 40.2579 15.5883 38.537C15.5853 37.9941 15.5826 37.4512 15.579 36.7372L15.579 36.7365L15.5789 36.7343L15.5715 35.8538L15.5635 34.9734C15.5603 34.5808 15.5582 34.1882 15.5571 33.7956C15.5552 33.2014 15.5495 32.6073 15.543 32.0131L15.5439 31.4819C15.5397 30.9523 15.5376 30.6875 15.4517 30.4533C15.3658 30.2191 15.1961 30.0155 14.8565 29.6084L12.0565 29.409V18.2439L12.0644 18.2438L12.0732 18.2436C15.7643 18.187 16.6521 18.1734 17.5399 18.1611L18.4709 18.1486C18.8718 18.1416 19.2728 18.1344 19.6737 18.1271L20.3087 18.1202L20.9115 18.1081L21.4364 18.1C21.649 18.0917 21.7641 18.0872 21.8609 18.0427C21.975 17.9902 22.0635 17.8819 22.2565 17.6458C22.24 17.3883 22.2317 17.2599 22.2065 17.1349C22.1815 17.0107 22.1398 16.8899 22.0565 16.6489C21.5047 16.3738 20.8848 16.3882 20.27 16.4024C20.1166 16.406 19.9635 16.4095 19.8119 16.4086L19.2324 16.4026C18.5983 16.3963 17.9641 16.3913 17.33 16.3864L16.0134 16.3739C14.8567 16.3628 13.7 16.353 12.5433 16.3434C11.3554 16.3333 10.1676 16.3222 8.97976 16.311H8.9797H8.97964H8.97958H8.97952H8.97945H8.97939H8.97933H8.97927H8.97921H8.97915H8.97909H8.97903H8.97897H8.97891H8.97885H8.97879H8.97873L8.38227 16.3054C6.61196 16.289 4.84164 16.2739 3.07132 16.2588L2.05653 16.2501V6.08189ZM47.0565 31.4028H37.2565V49.1473H47.0565V31.4028ZM3.85653 31.4028H13.6565V49.1473H3.85653V31.4028ZM22.6158 2.06665L22.0839 2.06855C22.0044 2.06864 21.9282 2.06661 21.8558 2.06468C21.3864 2.05218 21.0748 2.04388 21.0311 2.64184L21.0307 3.10019L21.0287 3.61833L21.03 4.18158C21.0296 4.57073 21.0293 4.95988 21.0292 5.34903C21.0305 5.96602 21.0315 6.58299 21.0305 7.19998C21.0296 7.60156 21.0293 8.00315 21.0294 8.40474L21.03 8.97909L21.0287 9.54234L21.0307 10.0605C21.0309 10.3294 21.037 10.5987 21.0565 10.8669L21.0565 10.8669C21.146 10.9562 21.1955 11.0055 21.2548 11.035C21.328 11.0714 21.4162 11.0776 21.6133 11.0916L22.0839 11.0921L22.6158 11.094L23.194 11.0928C23.5935 11.0932 23.993 11.0934 24.3925 11.0936C25.0259 11.0923 25.6593 11.0912 26.2927 11.0923C26.7049 11.0931 27.1172 11.0935 27.5294 11.0934L28.119 11.0928L28.6973 11.094L29.2292 11.0921C29.5051 11.0918 29.7813 11.0858 30.0565 11.0663C30.1471 10.976 30.1967 10.9266 30.2261 10.8672C30.2617 10.7955 30.268 10.7093 30.2819 10.5188L30.2824 10.0605L30.2843 9.54234L30.2831 8.97909C30.2835 8.58994 30.2837 8.20079 30.2839 7.81164C30.2826 7.19465 30.2815 6.57768 30.2826 5.96069C30.2834 5.5591 30.2838 5.15752 30.2837 4.75593L30.2831 4.18158L30.2843 3.61833L30.2824 3.10019C30.2821 2.83124 30.2761 2.56198 30.2565 2.29373C30.167 2.20451 30.1176 2.15521 30.0583 2.12571C29.9851 2.08928 29.8969 2.08302 29.6997 2.06904L29.2292 2.06855L28.6973 2.06665L28.119 2.06787C27.7196 2.06748 27.3201 2.06723 26.9206 2.06709C26.2872 2.06837 25.6538 2.06943 25.0204 2.06836C24.6081 2.06753 24.1959 2.06716 23.7836 2.0673L23.194 2.06787L22.6158 2.06665ZM40.8565 18.2439H43.6565V29.409H40.8565V18.2439ZM10.0565 18.2439H7.45653V29.409H10.0565V18.2439ZM21.9214 39.1201L22.5444 39.1259L23.194 39.1411L23.8507 39.1493C24.3861 39.1563 24.9212 39.1662 25.4565 39.1785C24.9695 40.4451 24.2908 41.473 23.2565 42.3685C22.4635 42.623 21.8512 42.6117 21.0565 42.3685C20.4901 42.0216 20.3844 41.8145 20.0737 41.206L20.0565 41.1722C20.0565 40.4718 20.0836 40.0134 20.5025 39.4399C20.9604 39.1017 21.2775 39.1078 21.813 39.1181L21.9214 39.1201ZM31.0565 39.1785C30.596 39.1131 30.1326 39.0671 29.669 39.0289C28.8151 38.994 28.2975 38.9728 27.8833 39.1694C27.2458 39.472 26.8533 40.2905 25.8565 42.3685C26.8822 42.4751 27.8333 42.522 28.8565 42.3685C29.3889 41.982 29.6542 41.6232 29.9972 41.0663L30.2565 40.5741C30.5352 40.1123 30.8024 39.6547 31.0565 39.1785ZM35.2565 39.1785V42.3685H31.2565C32.1173 41.0813 32.3319 40.7604 32.5561 40.4463C32.6305 40.342 32.706 40.2385 32.8065 40.1006L33.1784 39.5725C33.3211 39.455 33.4212 39.3725 33.5339 39.3146C33.799 39.1785 34.134 39.1785 35.2565 39.1785Z" fill="#050505"/>
<circle cx="26" cy="17" r="1" fill="#050505"/>
<circle cx="9" cy="36" r="2.5" stroke="black"/>
<circle cx="42" cy="36" r="2.5" stroke="black"/>
<circle cx="9" cy="44" r="2.5" stroke="black"/>
<circle cx="42" cy="44" r="2.5" stroke="black"/>
<path d="M25.8282 6.82843H28.6567L25.8282 9.65685L22.9998 6.82843H25.8282Z" fill="#050505"/>
<rect x="24.8282" y="4" width="2" height="3" fill="#050505"/>
</g>
<defs>
<clipPath id="clip0_112_1911">
<rect width="51.3121" height="51.2192" fill="white"/>
</clipPath>
</defs>
</svg>
