<svg width="144" height="144" viewBox="0 0 144 144" fill="none" xmlns="http://www.w3.org/2000/svg">
<g clip-path="url(#clip0_112_1942)">
<path d="M113.977 53.3672H135.773L137.039 53.6484L137.742 54L138.094 54.2812L138.516 54.9844L138.797 55.8281L138.867 56.25V138.234L140.625 138.375L141.891 138.586L142.523 138.938L143.016 139.57L143.297 139.992L143.859 140.133L144 140.273V142.031L143.227 142.664L142.875 142.945L142.383 143.719L142.172 144H1.54688L1.61719 143.508L1.33594 143.086L0.632812 142.594L0.28125 142.383L0.140625 142.312L0.0703125 142.172V140.062L0.5625 139.992L1.19531 139.289L1.47656 138.867L2.53125 138.586L4.71094 138.234L4.92188 138.164L4.99219 136.125V120.938L5.0625 110.25L5.27344 109.406L5.83594 108.352L6.32812 107.93L7.10156 107.578L7.80469 107.438L10.5469 107.367H29.8125L31.0078 107.578L31.9219 107.93L32.4844 108.422L32.9062 109.125L33.1172 109.758L33.1875 110.109L33.2578 111.164L33.3281 138.164L33.4688 138.234H39.0234L39.7266 138.164L39.7969 111.094L39.8672 92.4609L40.1484 91.3359L40.5703 90.4922L41.1328 89.9297L41.9766 89.5781L42.6797 89.4375L44.5078 89.3672H64.9688L66.2344 89.6484L67.0078 90.0703L67.5 90.5625L67.8516 91.2656L68.0625 92.0391L68.1328 92.8125L68.2031 138.234H74.3906L75.6562 138.164L75.7266 138.023L75.7969 119.883L75.8672 75.1641L76.0078 74.1797L76.7109 72.9141L77.3438 72.3516L77.7656 72.1406L78.8906 72L81.3516 71.9297H99.9141L101.25 72L102.094 72.1406L102.656 72.4219L103.359 73.0547L103.852 73.8984L104.062 74.5312L104.133 79.7344V122.133L104.203 138.164L104.414 138.234H110.109L110.531 138.164L110.602 137.812L110.742 113.836L111.164 112.711L111.656 112.008L112.359 111.445L112.922 111.234H113.906L114.75 111.445L115.453 111.867L115.945 112.359L116.367 113.273L116.508 114.047V138.305L133.102 138.234L133.172 115.172L133.242 64.2656V59.0625H118.477L116.508 59.1328V85.8516L116.367 86.6953L115.805 87.8203L115.312 88.5234L114.68 88.8047L114.258 88.875H113.133L112.289 88.6641L111.727 88.2422L111.094 87.2578L110.742 86.2734L110.672 84.5156V74.1797L110.742 56.6016L110.953 55.6172L111.234 54.9141L111.797 54.1406L112.5 53.7188L113.344 53.4375L113.977 53.3672ZM95.9062 77.4844L81.5625 77.5547V138.305L93.4453 138.375H97.7344L98.1562 138.305L98.2266 138.164L98.2969 123.047L98.3672 78.0469L98.2969 77.5547L97.1719 77.4844H95.9062ZM47.3203 94.9922L45.4922 95.0625L45.5625 138.234L45.6328 138.305L57.375 138.375H61.6641L62.1562 138.305L62.2266 138.164L62.2969 122.906V94.9922H47.3203ZM13.2188 112.992L10.6172 113.062L10.6875 138.234L24.0469 138.375H26.5078L27.2812 138.305L27.3516 138.164L27.4219 121.008L27.4922 113.062L27.4219 112.992H13.2188Z" fill="#FDBC1F"/>
<circle cx="122.5" cy="21.5" r="19" stroke="#FDBC1F" stroke-width="5"/>
<path d="M91.7578 36.2812H99.0703L100.547 36.4219L101.32 36.7031L101.953 37.125L102.375 37.6172L102.727 38.4609L102.867 39.0938L102.938 39.9375V49.9922L102.656 50.9062L102.023 52.0312L101.461 52.5234L100.828 52.7344H99.4922L98.8594 52.5938L98.2969 52.2422L97.8047 51.6797L97.3828 50.5547L97.1719 49.0781V48.1641L97.3125 46.6875V46.2656L96.4688 46.8984L95.7656 47.5312L92.3906 50.9062H92.25L92.1094 51.1875L91.2656 52.0312H91.125V52.1719H90.9844L90.8438 52.4531L90.2812 53.0156H90.1406V53.1562H90L89.8594 53.4375L84.5156 58.7812H84.375V58.9219H84.2344L84.0938 59.2031L83.3906 59.9062H83.25V60.0469H83.1094L82.9688 60.3281L75.5156 67.7812H75.375L75.2344 68.0625L74.6719 68.625L74.1094 69.1172L73.5469 69.75H73.4062V69.8906H73.2656V70.0312H73.125V70.1719H72.9844L72.8438 70.4531L66.7969 76.5L66.2344 76.9922L65.7422 77.4844L64.8984 78.1172L64.2656 78.5391L63.7031 78.75H62.8594L61.9453 78.3984L61.2422 77.9062L60.3984 77.1328L59.8359 76.6406L56.1094 72.9141L55.8281 72.7031V72.5625H55.6875V72.4219H55.5469V72.2812H55.4062V72.1406H55.2656V72H55.125V71.8594H54.9844V71.7188L54.7031 71.5781V71.4375H54.5625V71.2969H54.4219V71.1562H54.2812L53.8594 70.6641L53.7188 70.5938V70.4531H53.5781V70.3125H53.4375L52.9453 69.75L50.7656 67.5703L50.625 67.5V67.3594H50.4844V67.2188H50.3438V67.0781H50.2031V66.9375H50.0625L49.6406 66.4453L49.5 66.375V66.2344H49.3594V66.0938L49.0781 65.9531L48.5156 65.3906V65.25H48.375L47.8828 64.6875L47.5312 64.4062L47.0391 63.8438L46.3359 63.0703L45.9141 62.9297L45.4922 63.1406L43.1016 65.5312L43.0312 65.6719H42.8906L42.75 65.9531L41.0625 67.6406H40.9219L40.7812 67.9219L39.7969 68.9062H39.6562V69.0469H39.5156L39.375 69.3281L38.9531 69.75H38.8125V69.8906H38.6719L38.5312 70.1719L27 81.7031L26.6484 82.125L26.1562 82.5469L26.0859 82.6875H25.9453L25.8047 82.9688L21.8672 86.9062H21.7266V87.0469H21.5859V87.1875H21.4453L21.3047 87.4688L20.7422 87.9609L18.4219 90.2812L17.8594 90.7734L17.0156 91.4766L16.2422 91.9688L15.8203 92.1797H15.2578L14.4141 91.8984L13.7109 91.2656L13.0781 90.4922L12.375 89.4375V89.0859L12.9375 88.1719L13.3594 87.5391L13.9922 86.7656L14.8359 85.9219L15.3281 85.3594L15.75 85.0078L16.2422 84.4453L19.3359 81.3516L19.4062 81.2109H19.5469V81.0703H19.6875L19.8281 80.7891L20.1797 80.5078L20.6719 79.9453L21.0938 79.5234H21.2344V79.3828H21.375V79.2422H21.5156V79.1016H21.6562L21.7969 78.8203L22.2188 78.3984H22.3594V78.2578H22.5V78.1172H22.6406V77.9766H22.7812L22.9219 77.6953L23.3438 77.2734H23.4844V77.1328H23.625V76.9922H23.7656V76.8516H23.9062L24.0469 76.5703L24.6797 76.0078L25.1719 75.4453L25.8047 74.8828L26.1562 74.4609H26.2969L26.4375 74.1797L27.2109 73.4766L27.2812 73.3359H27.4219L27.5625 73.0547L28.3359 72.3516L28.4062 72.2109H28.5469V72.0703H28.6875L28.8281 71.7891H28.9688V71.6484L29.4609 71.2266L29.5312 71.0859H29.6719V70.9453H29.8125L29.9531 70.6641H30.0938V70.5234L30.6562 70.0312L30.9375 69.6797H31.0781V69.5391L31.6406 69.0469L32.0625 68.5547L32.625 68.0625L36.4922 64.1953L36.5625 64.0547H36.7031V63.9141L37.2656 63.4219L37.5469 63.0703H37.6875L37.8281 62.7891L38.4609 62.2266L38.9531 61.6641L42.3281 58.2891L42.8906 57.7969L43.3828 57.3047L44.1562 56.6719L44.8594 56.1797L45.4922 55.9688H46.1953L47.1094 56.3203L47.9531 56.8828L48.9375 57.7266L49.7812 58.5L55.2656 63.9844L55.6875 64.3359L56.1797 64.8984L56.5312 65.1797L57.0234 65.7422L62.2266 70.9453L62.7188 71.5078L63.1406 71.8594L63.4219 71.9297L63.4922 71.7188L63.8438 71.3672L64.6875 70.4531L65.8828 69.2578L65.9531 69.1172H66.0938L66.2344 68.8359H66.375L66.5156 68.5547H66.6562L66.7969 68.2734H66.9375L67.0781 67.9922H67.2188L67.3594 67.7109H67.5V67.5703L68.0625 67.0781L78.9609 56.1797L79.3828 55.8281L79.5234 55.6172H79.6641L79.8047 55.3359L80.2266 54.9844L80.6484 54.4922H80.7891L80.9297 54.2109L81.3516 53.8594L81.8438 53.2969L82.3359 52.8047H82.4766L82.6172 52.5234L88.9453 46.1953L89.0156 46.0547H89.1562V45.9141H89.2969V45.7734H89.4375V45.6328L90 45.1406L90.9844 44.1562L91.5469 43.6641L92.3906 42.8906L93.0938 42.1875V42.0469H89.7891L88.5938 41.8359L87.6797 41.4844L87.2578 41.2031L86.8359 40.7109L86.4844 40.0078L86.3438 39.375V38.7422L86.625 37.8984L87.0469 37.2656L87.6094 36.8438L88.3828 36.4922L89.0156 36.3516L91.7578 36.2812Z" fill="#FDBC1F"/>
<path d="M7.66406 93.9375H8.50781L9.35156 94.2891L10.125 94.9922L10.6172 95.7656L10.8984 96.5391L10.7578 97.2422L10.3359 98.0156L9.5625 98.8594L9 99.2109L8.57812 99.3516H7.73438L6.60938 98.7891L6.04688 98.2969L5.55469 97.5234L5.34375 96.8203V96.1875L5.625 95.4844L6.1875 94.7812L6.67969 94.3594L7.38281 94.0078L7.66406 93.9375Z" fill="#FDBC1F"/>
<path d="M112.992 96.8906H114.047L114.82 97.1719L115.594 97.7344L116.016 98.2969L116.227 98.9297V99.9844L115.945 100.688L115.523 101.32L115.031 101.742L114.398 102.023L114.117 102.094H113.273L112.57 101.953L112.008 101.672L111.445 101.109L110.883 99.9844L110.812 99.7734V99L111.305 98.0156L111.867 97.4531L112.992 96.8906Z" fill="#FDBC1F"/>
<path d="M143.93 25.875H144V26.2266L143.789 26.0859L143.93 25.875Z" fill="#FDBC1F"/>
<path d="M0.421875 143.016L0.703125 143.086L0.492188 143.156L0.421875 143.016Z" fill="#FDBC1F"/>
<path d="M115.002 10H128.967L129.311 10.0312L129.624 10.1875L129.843 10.4375L129.969 10.6875L130 10.7812V11.1875L129.875 11.4688L129.687 11.7188L129.436 11.9062L129.28 11.9688L128.841 12H124.521L124.865 12.4688L125.147 12.9062L125.429 13.4062L125.679 13.9688L129.186 14L129.53 14.125L129.843 14.4062L130 14.7812V15.2188L129.843 15.5312L129.624 15.7812L129.374 15.9375L128.998 16L126.055 16.0312L125.961 16.75L125.804 17.5312L125.554 18.2812L125.272 18.875L124.959 19.375L124.646 19.7812L124.27 20.1875L123.957 20.5L123.613 20.7812L122.955 21.2188L122.235 21.5625L121.609 21.7812L121.076 21.9062L120.607 21.9688L120.106 22H117.162L117.256 22.1562L117.632 22.5938L117.914 22.9062L118.164 23.2188L118.54 23.6562L118.791 23.9688L119.135 24.375L119.417 24.7188L119.761 25.125L120.043 25.4688L120.387 25.875L120.669 26.2188L121.014 26.625L121.295 26.9688L121.64 27.375L122.047 27.875L122.423 28.3125L122.673 28.625L123.049 29.0625L123.299 29.375L123.675 29.8125L123.926 30.125L124.301 30.5625L124.552 30.875L124.928 31.3125L125.209 31.6562L125.554 32.0625L125.867 32.5L125.992 32.7812V33.1875L125.867 33.4688L125.585 33.7812L125.335 33.9375L125.147 34H124.865L124.552 33.875L124.239 33.5938L124.02 33.375L123.675 32.9375L122.986 32.125L122.736 31.8125L122.36 31.375L122.11 31.0625L121.734 30.625L121.483 30.3125L121.108 29.875L120.857 29.5625L120.481 29.125L120.231 28.8125L119.855 28.375L119.605 28.0625L119.229 27.625L118.978 27.3125L118.603 26.875L118.352 26.5625L117.977 26.125L117.726 25.8125L117.35 25.375L117.1 25.0625L116.724 24.625L116.474 24.3125L116.129 23.9062L115.847 23.5625L115.503 23.1562L115.221 22.8125L114.877 22.4062L114.501 21.9688L114.188 21.5625L114 21.1875V20.8438L114.157 20.4688L114.438 20.1875L114.751 20.0312L114.939 20H119.26L120.419 19.9688L121.202 19.8125L121.734 19.5938L122.204 19.3438L122.579 19.0625L122.955 18.7188L123.268 18.3125L123.519 17.9062L123.738 17.4375L123.863 17.0625L123.988 16.375L124.02 16H114.908L114.626 15.9375L114.407 15.8125L114.157 15.5312L114 15.1875V14.9062L114.094 14.5938L114.282 14.3125L114.626 14.0625L114.908 14H121.859L123.425 13.9688V13.9062L123.174 13.5625L122.83 13.1875L122.485 12.875L121.953 12.5312L121.421 12.2812L120.92 12.125L120.325 12.0312L114.908 12L114.595 11.9375L114.344 11.75L114.157 11.5312L114.031 11.3125L114 11.1875V10.9062L114.125 10.5312L114.344 10.2812L114.595 10.0938L114.751 10.0312L115.002 10Z" fill="#FDBC1F"/>
</g>
<defs>
<clipPath id="clip0_112_1942">
<rect width="144" height="144" fill="white"/>
</clipPath>
</defs>
</svg>
