<svg width="70" height="70" viewBox="0 0 70 70" fill="none" xmlns="http://www.w3.org/2000/svg">
<path d="M12.8174 17.8076H64.4971L65.7617 17.8418L66.5137 17.9443L67.2314 18.1836L67.8809 18.5254L68.291 18.833L68.7012 19.1748V19.2432H68.7695L69.1455 19.7217L69.3848 20.0635L69.6924 20.7129L69.9316 21.4648H70V56.0547H69.8975L69.8633 56.3281L69.6582 56.9434L69.3848 57.4902L69.1455 57.8662L68.7695 58.3105L68.5303 58.5498L68.0518 58.9258L67.6074 59.1992L67.0605 59.4385L66.4795 59.6094L65.8301 59.7119L65.2148 59.7461H12.373L11.3818 59.6777L10.9033 59.5752L10.3223 59.3701L9.67285 59.0283L9.2627 58.7207L8.81836 58.3105L8.51074 57.9688L8.27148 57.627L8.06641 57.2852L7.82715 56.7383L7.65625 56.1572L7.55371 55.3711V22.1826L7.65625 21.3965L7.92969 20.5762L8.27148 19.9268L8.61328 19.4824L8.9209 19.1406L9.29688 18.7988L9.74121 18.4912L10.3223 18.1836L11.04 17.9443L11.7578 17.8418L12.8174 17.8076ZM12.0996 20.8838L11.5869 20.9863L11.2109 21.1914L10.9375 21.4648L10.7666 21.7725L10.6641 22.0459L10.6299 22.251V55.3369L10.7324 55.7471L10.9375 56.0889L11.1084 56.2939L11.5527 56.5674L12.0654 56.6699L16.8848 56.7041H59.9854L65.5225 56.6699L66.001 56.5674L66.4111 56.3281L66.6846 56.0205L66.8555 55.7129L66.958 55.0977V22.627L66.8896 22.0117L66.7529 21.6699L66.5479 21.3623L66.3086 21.1572L65.9668 20.9863L65.4541 20.8838H12.0996Z" fill="#69C692"/>
<path d="M4.375 10.2539H58.1396L58.9941 10.3223L59.6777 10.459L60.293 10.6641L60.8398 10.9375L61.25 11.1768L61.7285 11.5869L62.002 11.9287L62.207 12.2705L62.3438 12.6123L62.4463 13.1934V14.8682L62.3096 15.415L62.1045 15.7568L61.8311 16.0303L61.3525 16.2695L61.0449 16.3379H60.7715L60.3271 16.2354L59.9512 15.9961L59.7803 15.8594L59.5068 15.4492L59.3701 14.9023L59.3359 13.6377L58.9941 13.501L58.4814 13.3984L58.1055 13.3643L56.0547 13.3301H10.8008L4.375 13.3643L3.93066 13.4668L3.58887 13.7061L3.31543 14.0137L3.17871 14.2871L3.07617 14.834V47.6465L3.17871 48.5693L3.31543 48.9795V49.082H4.30664L4.75098 49.1162L5.19531 49.2529L5.57129 49.4922L5.84473 49.834L5.98145 50.1074L6.08398 50.6201L5.98145 51.167L5.74219 51.5771L5.60547 51.748L5.16113 52.0215L4.61426 52.1582H2.87109L2.32422 52.0557L1.91406 51.8848L1.60645 51.6797L1.26465 51.4062L0.957031 51.0303L0.649414 50.5518L0.375977 49.9707L0.136719 49.1846L0.0341797 48.6719L0 48.6377V14.082L0.0683594 13.9111L0.273438 13.1934L0.581055 12.5439L0.820312 12.168L1.19629 11.7236L1.29883 11.5869H1.36719V11.5186L1.74316 11.2109L2.1875 10.9033L2.76855 10.5957L3.28125 10.4248L3.72559 10.3223L4.375 10.2539Z" fill="#69C692"/>
<path d="M51.4404 39.5117H52.2266L52.9785 39.5801L53.7646 39.7168L54.6533 39.9561L55.6104 40.332L56.3281 40.708L56.9775 41.1182L57.5586 41.5625L57.9004 41.8701L58.1738 42.1094L58.584 42.5195L58.8916 42.8955L59.2334 43.3398L59.5752 43.8525L59.8828 44.3652L60.2588 45.1855L60.5322 45.9375L60.7373 46.7578L60.874 47.6123L60.9082 47.9541V48.8086L60.8057 49.2188L60.6006 49.5605L60.3271 49.834L59.9854 50.0391L59.6094 50.1416H59.165L58.7891 50.0391L58.4131 49.7998L58.1055 49.458L57.9688 49.2188L57.832 48.5352L57.6953 47.373L57.3877 46.3818L57.0801 45.7324L56.7725 45.2197L56.499 44.8779L56.1914 44.502L55.8838 44.1943L55.5078 43.8867L55.1318 43.6133L54.3457 43.1689L53.7988 42.9639L53.1152 42.7588L52.7051 42.6904L51.9189 42.6221L51.2354 42.6562L50.5176 42.7588L49.7998 42.9639L49.2871 43.1689L48.6035 43.5449L48.2275 43.8184L47.7832 44.1943L47.5098 44.4336L47.0996 44.9121L46.792 45.3223L46.3818 46.0742L46.1768 46.5869L45.9375 47.373L45.7666 48.7744L45.6299 49.2871L45.3564 49.6631L45.083 49.9023L44.8096 50.0391L44.4336 50.1416H44.0234L43.6133 50.0391L43.2715 49.7998L43.1006 49.6289L42.8613 49.2871L42.7246 48.8428L42.6904 48.6719L42.7246 47.8516L42.8613 46.8945L43.0664 46.04L43.374 45.1855L43.6475 44.5703L43.9551 44.0234L44.3652 43.374L44.7412 42.8955L45.0488 42.5195L45.7666 41.8018L46.1426 41.4941L46.6895 41.084L47.5439 40.5713L48.3984 40.1611L49.4238 39.8193L49.9707 39.6826L50.8594 39.5459L51.4404 39.5117Z" fill="#69C692"/>
<path d="M51.5088 27.4121H52.124L52.7734 27.4805L53.3203 27.6172L53.9697 27.8564L54.6191 28.1982L54.9951 28.4717L55.3711 28.7793L55.6445 29.0186L55.9521 29.3945L56.2939 29.8389L56.7383 30.6934L56.9434 31.3086L57.0459 31.7529L57.1143 32.2314V33.2227L57.0117 33.9062L56.8066 34.5557L56.6016 35.0684L56.2256 35.7178L55.8496 36.1621L55.5762 36.5039H55.5078V36.5723L55.1318 36.8799L54.7217 37.1875L54.1064 37.5293L53.5938 37.7344L52.876 37.9395L52.3291 38.0078L51.9873 38.042H51.6113L50.6885 37.9395L49.6631 37.5977L48.9111 37.1875L48.5693 36.9141L48.125 36.5381L47.8857 36.2988L47.5781 35.9229L47.373 35.6494L47.0654 35.1025L46.8262 34.5898L46.5869 33.7695L46.4844 32.915V32.5391L46.5869 31.7188L46.6895 31.3086L46.8945 30.6934L47.168 30.1465L47.4756 29.6338L47.8857 29.1553L48.125 28.8818L48.6035 28.4717L48.9453 28.2324L49.6973 27.8223L50.415 27.583L50.8594 27.4805L51.5088 27.4121ZM51.4404 30.4883L51.0645 30.5908L50.5176 30.8643L50.1074 31.2402L49.8682 31.582L49.6631 32.0264L49.5605 32.5391V32.8809L49.6289 33.3252L49.7998 33.7354L50.0049 34.0771L50.3125 34.4189L50.6543 34.6582L50.9961 34.8291L51.543 34.9658H52.0557L52.5342 34.8633L53.0811 34.5898L53.457 34.2822L53.7646 33.8721L53.9697 33.4277L54.0723 32.8467L54.0381 32.2998L53.9014 31.8555L53.6621 31.4111L53.3545 31.0693L53.0811 30.8301L52.6025 30.5908L52.1924 30.4883H51.4404Z" fill="#69C692"/>
<path d="M18.0811 44.6387H35.2051L35.6836 44.7412L35.957 44.8779L36.2305 45.083L36.5381 45.5273L36.6406 45.835L36.6748 46.2451L36.6064 46.6553L36.3672 47.0996L36.0938 47.373L35.8203 47.5439L35.3418 47.6807L34.8291 47.7148H18.3545L17.8076 47.6465L17.4316 47.5098L17.0898 47.2363L16.8848 46.9629L16.7139 46.6211L16.6797 46.4502V45.9033L16.7822 45.5615L16.9873 45.2197L17.1582 45.0488L17.4658 44.8096L17.7393 44.707L18.0811 44.6387Z" fill="#69C692"/>
<path d="M18.2178 37.0508H34.8291L35.376 37.085L35.752 37.1875L36.1279 37.4268L36.3672 37.666L36.6064 38.1445L36.6748 38.4521L36.6406 38.9307L36.5039 39.3066L36.2305 39.6826L35.8887 39.9219L35.5469 40.0586L35.2051 40.127H18.0811L17.5342 39.9902L17.1924 39.751L16.9531 39.5117L16.7139 39.0332L16.6455 38.5547L16.748 38.042L16.9873 37.6318L17.2266 37.3926L17.5684 37.1875L17.9102 37.085L18.2178 37.0508Z" fill="#69C692"/>
<path d="M19.0039 29.8389L35.3076 29.873L35.7178 29.9756L36.0596 30.1807L36.2988 30.3857L36.5381 30.7617L36.6406 31.0352L36.6748 31.4795L36.6064 31.8555L36.3672 32.334L36.1279 32.5732L35.7861 32.7783L35.2734 32.915H18.0469L17.6025 32.8125L17.2607 32.6074L17.0898 32.4707L16.8164 32.0947L16.6797 31.6846L16.6455 31.3428L16.748 30.8643L16.8848 30.5908L17.124 30.2832L17.5 30.0098L17.8076 29.9072L17.9785 29.873L19.0039 29.8389Z" fill="#69C692"/>
</svg>
