<svg width="64" height="64" viewBox="0 0 64 64" fill="none" xmlns="http://www.w3.org/2000/svg">
<path d="M31.875 1.71875L32.0312 1.78125L32.4062 2.0625L32.6562 2.28125L33.0938 2.53125L33.6875 2.90625L34.125 3.21875L34.75 3.59375L35.4688 4L36.2188 4.46875L36.7812 4.8125L37.4375 5.1875L39.3125 6.1875L40.125 6.59375L40.9688 6.96875L41.375 7.15625L42.125 7.4375L43 7.75L44.1875 8.15625L45.625 8.59375L46.5938 8.84375L48.1562 9.21875L49.9062 9.5L51.0938 9.65625L52.2812 9.78125L54.2812 9.90625L56.875 10.0312L57 10.125V11.0938L56.9688 17.375L56.9375 32.6875L56.875 34L56.7812 35.0312L56.6562 35.9688L56.4375 37.4375L56.25 38.3438L55.8438 39.7188L55.625 40.4062L55.375 41.2188L55.0312 42.125L54.8125 42.75L54.2812 43.9062L53.25 45.9688L52.9062 46.5625L52.75 46.8438L52.4062 47.3438L52.2188 47.625L51.8438 48.2188L51.375 48.8438L51.0625 49.25L50.7188 49.6562L50.5 50L50.1562 50.4062L49.6875 50.9062L49.3125 51.2812L49.0938 51.5312L48.8125 51.8125L48.5938 52.0625L48.2188 52.4062L47.9688 52.6562H47.9062L47.8438 52.7812H47.7812V52.8438L47.5312 53.0625L46.7188 53.875L46.4062 54.125L46.125 54.375L45.6875 54.6875L45.0938 55.125L44.5312 55.4688L43.9062 55.9062L43.1562 56.375L42.3438 56.8438L41.75 57.1562L41 57.5938L39.5625 58.3438L35.375 60.4375L34.5938 60.8438L34 61.125L33.5312 61.375L32.8125 61.7188L32.5 61.875L32.1562 61.9688H31.8125L31.4375 61.7812L31.1875 61.625L30.8125 61.4688L29.5625 60.8438L28.8438 60.5L27.9375 60.0625L27.1875 59.7188L26.4375 59.3125L26.0625 59.0938L25.3438 58.75L24.1562 58.1562L23.25 57.75L22.7188 57.4688L22 57.0625L21.3438 56.7188L20.9375 56.4688L20.3125 56.0938L19.9688 55.8438L19.4688 55.5L18.7188 55L18.375 54.75L17.875 54.375L17.5312 54.0938L17.1875 53.7812L16.9375 53.5625L16.625 53.25L16.375 53.0312L15.2188 51.875L14.9688 51.6562L14.5938 51.25L14.3125 50.9688L14.0938 50.7188L13.8125 50.4062L13.4688 49.9688L13.2188 49.6562L12.875 49.25L12.4375 48.6562L12.0312 48.0625L11.5312 47.3125L11.125 46.6562L10.7188 45.9375L10.0938 44.7188L9.6875 43.9062L9.3125 43.0938L9 42.3438L8.71875 41.5L8.4375 40.7812L8.15625 39.8125L7.96875 39.2188L7.65625 38.0625L7.46875 37.1562L7.3125 36.1562L7.15625 34.9375L7.0625 33.9375L7 32.5625L6.96875 29.9375V20.625L7 10.0938L7.0625 10L8.75 9.96875L9.5625 9.9375L11.9062 9.78125L13.6562 9.5625L15.25 9.28125L16.4688 9.03125L17.75 8.75L18.6875 8.46875L20.1562 8L21.5625 7.53125L22.3125 7.25L22.9688 6.96875L23.5938 6.6875L24.25 6.40625L24.8438 6.09375L25.3438 5.84375L26.0938 5.4375L26.6562 5.125L27.4688 4.6875L27.8438 4.4375L28.375 4.0625L29.25 3.5625L29.7812 3.25L30.1562 2.96875L30.75 2.59375L31.2812 2.28125L31.6562 1.9375L31.875 1.71875ZM31.9062 4.21875L31.4688 4.46875L30.875 4.90625L30 5.46875L29.1875 5.96875L28.5938 6.34375L28.0938 6.625L27.25 7.09375L26.6562 7.40625L25.8125 7.84375L24.3125 8.5625L23.1875 9.0625L22.375 9.375L20.8438 9.90625L19.7188 10.2812L18.1875 10.7188L17.0625 10.9688L15.5312 11.2812L13.5625 11.5938L12.1875 11.75L10.4062 11.875L9.03125 11.9688L8.9375 12.0312L8.96875 32.4375L9.0625 33.9062L9.125 35L9.375 36.5312L9.625 37.7188L9.8125 38.4062L10.1562 39.8125L10.5312 40.9688L10.75 41.4688L11.125 42.3438L11.6562 43.4375L12.5312 45.1875L12.9062 45.8125L13.25 46.25L13.625 46.875L13.875 47.25L14.2188 47.6875L14.4688 48.0312L14.75 48.4062L15.0312 48.7188L15.375 49.1562L15.9375 49.8438L16.3438 50.25L16.5625 50.5L17.1562 51.0938H17.2188V51.1562L17.4688 51.375L17.8438 51.7188L18.375 52.125L18.9375 52.5938H19V52.6562L19.5938 53.0938L20.4062 53.7188L20.9375 54.0938L21.2812 54.3438L21.7812 54.625L22.4688 55L23.4375 55.5L24.125 55.875L24.625 56.125L25.6562 56.6562L26.25 56.9375L29.75 58.6875L30.7812 59.2188L31.2812 59.4688L31.625 59.625L31.9688 59.6875H32.2188L32.8125 59.4688L33.25 59.3125L33.75 59.0312L34.25 58.8125L34.6875 58.5625L35.3438 58.25L36.1562 57.75L36.9688 57.4062L37.2812 57.2812L38.2188 56.7188L39.1875 56.3125L40.0625 55.8125L40.6562 55.5L41.3125 55.125L42.3125 54.5625L42.7812 54.2812L43.0938 54.0312L43.5312 53.7188L43.9062 53.4375L44.5 53L44.875 52.7188L45.4375 52.2812L45.8438 51.9688L46.1562 51.6875L46.6875 51.1875V51.125L46.8125 51.0625L47.9375 49.9375V49.875L48.0625 49.8125L48.3438 49.4688L48.6875 49.0312L49.1875 48.4062L49.5 48.0312L49.875 47.5L50.1562 47.125L50.3438 46.8125L50.75 46.1875L51 45.8438L51.3125 45.3125L51.5 45L52.0625 43.875L52.4688 43.0938L52.8438 42.2188L53.2188 41.1562L53.625 40.1875L53.8125 39.5625L54.1562 38.25L54.375 37.375L54.6562 35.875L54.7812 35.1562L54.8125 34.8438L54.875 33.375L54.9375 32.7812L54.9688 31.3438V15.1562L55 12L54.9375 11.9688L51.375 11.75L49.5938 11.5L47.9062 11.1875L46.375 10.8438L44.5625 10.375L43.375 10L42.25 9.625L41.125 9.21875L40.2188 8.84375L39.3438 8.4375L38.625 8.09375L38.0938 7.84375L37.5 7.53125L36.7188 7.125L36 6.71875L35.5312 6.4375L35 6.125L34.25 5.65625L33.4688 5.1875L33.0312 4.875L32.6562 4.59375L32.125 4.25L31.9062 4.21875Z" fill="#1B1B1B"/>
<path d="M31.75 9.03125L32.0312 9.0625L32.4688 9.21875L33.0312 9.53125L33.5938 9.875L34.2812 10.3125L35.0625 10.75L35.6562 11.0625L36.375 11.4062L37.0938 11.7812L38.1562 12.3125L38.9062 12.6562L39.8125 13L41.7188 13.6562L43.25 14.1562L44.6562 14.5625L45.8438 14.8438L47 15.125L48 15.3125L49.7188 15.5625L50.6562 15.6562L50.9375 15.75L50.9688 15.8438V30.8125L50.9375 32.4062L50.8438 34L50.75 34.875L50.5625 36.1562L50.3125 37.3125L49.9062 38.6562L49.6875 39.25L49.3125 40.375L48.9062 41.2812L48.5312 42.0625L47.7812 43.4375L47.3438 44.2188L46.9062 44.8125L46.5938 45.2188L46.25 45.625L46.0625 45.9062L45.8125 46.25L45.5312 46.5312L45.0938 47.0312H45.0312L44.9688 47.1562L44.625 47.5625L44.2188 47.9688L43.9062 48.25L43.6562 48.4688L43.3438 48.7812H43.2812V48.8438L43.0312 49.0625L42.625 49.4688L42.2812 49.75L41.9062 50.0312L41.5625 50.25L40.2188 51.1562L39.6562 51.5L39.1562 51.8125L38.6562 52.0625L38.0938 52.375L37.0312 52.9375L35.3438 53.7812L34.6875 54.125L33.9688 54.4688L32.1562 55.375L31.9375 55.4375L31.75 55.375L31.1562 55.0625L30.4688 54.6875L30.1562 54.5L29.4062 54.1562L29.125 54L28.3438 53.625L28.0312 53.4688L27.3125 53.125L26.375 52.625L26.0938 52.4688L25.4375 52.125L25.0312 51.875L24.5312 51.5938L23.8438 51.2188L23.5625 51.0312L22.9688 50.6562L22.375 50.25L21.8125 49.8438L21.4062 49.5L21.0938 49.2188L20.625 48.75L20.375 48.5312L20.1875 48.375L20.1562 48.3125L19.9688 48.25L19.5312 47.875L19.4062 47.7188L19.0312 47.1875L18.75 46.875L18.375 46.4688L18.0312 46.0312L17.75 45.6562L17.4375 45.3125L17.0625 44.8125L16.625 44.1562L16.2812 43.5625L15.875 42.8125L15.5 42.1562L15.1562 41.4375L14.9375 41L14.25 39.4375L13.875 38.1562L13.6875 37.375L13.4688 36.5625L13.3125 35.6875L13.1562 34.625L13.0312 33.25L13 32.75L12.9688 31.6875L12.9375 28.6562V24.1875L12.9688 17.9375L13 15.8125L13.0938 15.6562L13.125 15.625H13.7812L14.375 15.5625L16.2812 15.25L17.5 15L18.5938 14.7188L19.5938 14.4688L20.6562 14.1562L22.4062 13.5938L23.6875 13.1562L24.9062 12.7188L25.9688 12.2188L26.6875 11.875L27.875 11.2812L28.4688 10.9688L29.4688 10.4688L30.5 9.9375L30.8125 9.71875L31.2188 9.40625L31.75 9.03125ZM31.8125 11.5L31.25 11.8125L30.4688 12.1875L29.5625 12.6562L26.5625 14.1562L25.4688 14.6562L24.5938 14.9688L23.4375 15.375L22.3125 15.75L21.0312 16.1562L20.25 16.375L18.6875 16.75L15.9375 17.2812L15.0312 17.4688L14.9375 17.5312V27.2188L14.9688 32.3438L15.0625 33.5938L15.125 34.5312L15.3438 35.8438L15.5625 36.6875L15.7812 37.4062L16 38.1875L16.1562 38.8125L16.5938 39.8125L17.6875 42L18 42.5625L18.3125 43.0625L18.9062 43.9375L19.2188 44.375L19.4688 44.6875L19.8125 45.1562L20.0938 45.5L20.4375 45.8438L20.6562 46.0938L21.5312 46.9688L21.7812 47.1875L22.0625 47.4375L22.5 47.7812L22.875 48.0625L23.2812 48.375L23.625 48.625L24 48.9062L24.4375 49.2188L25.0312 49.5625L25.8438 50.0625L26.3125 50.3438L27.625 51L28.4062 51.4062L29 51.6875L29.5312 51.9688L30.125 52.25L30.625 52.5L31.0938 52.75L31.5312 52.9688L31.75 53.0312L32.0625 53.0625L32.5938 52.9062L33.0625 52.6562L34.9375 51.7188L35.4062 51.4688L37.0312 50.6562L37.625 50.3438L38.0625 50.0938L38.5625 49.7812L39 49.5L39.625 49.125L40.0625 48.8125L40.5625 48.4375L40.9688 48.125L41.5625 47.6875L42 47.3438L42.3438 47L42.5938 46.7812L42.6875 46.6875V46.625L42.8125 46.5625V46.5L42.9375 46.4375L43.1875 46.1875V46.125L43.3125 46.0625L43.6875 45.6875L44.125 45.1875L44.375 44.8438L44.6562 44.4688L45.0625 43.9375L45.5625 43.1875L46.0312 42.4375L46.3438 41.8125L46.6562 41.2188L47.25 40.0312L47.625 39.2188L47.9062 38.3438L48.2812 36.9688L48.5 36.2188L48.7812 34.7188L48.8438 34.0938L48.875 33.2812L48.9375 32.75L48.9688 31.8438L49 17.5938L48.9375 17.4688L47.8125 17.25L46.5938 17.0312L44.75 16.6562L43.8438 16.4375L42.9375 16.1875L41.9375 15.875L40.8125 15.5L39.4688 15.0312L38.5625 14.6875L37.9062 14.4062L36.1875 13.5938L35.6875 13.3438L34.8438 12.9062L34.25 12.5938L33.125 12.0312L32.5312 11.7188L32.0625 11.5H31.8125Z" fill="#1B1B1B"/>
<path d="M30.5625 19.9688H34.7188L35.5312 20.0312L35.8438 20.125L36.125 20.2812L36.4375 20.5312L36.7188 20.9375L36.8438 21.1875L36.9375 21.5L36.9688 22.0625V24.9688L36.9375 27L39.8438 26.9688H40.75L42.1562 27L42.6562 27.0625L43.0312 27.2188L43.4375 27.5312L43.6875 27.875L43.875 28.25L43.9375 28.5L43.9688 28.9688V34.3438L43.9375 35.2812L43.8438 35.8438L43.6562 36.1562L43.375 36.4688L43.125 36.6875L42.8438 36.8438L42.4375 36.9062L41.75 36.9375L39.5625 36.9688H37.1875L36.9688 37V41.125L36.9375 42.2812L36.8438 42.8125L36.6875 43.125L36.3438 43.5L36.0625 43.7188L35.8125 43.8438L35.4062 43.9062L34.7812 43.9375L32.8125 43.9688H31.25L28.6875 43.9375L28.1562 43.8438L27.7188 43.625L27.5 43.4375L27.2812 43.125L27.0938 42.75L27 42.4062L26.9688 41.4375V37L26.9375 36.9688H22.1562L21.625 36.9375L21.1562 36.8438L20.8438 36.7188L20.5312 36.4688L20.3125 36.1875L20.0938 35.75L20 35.3438V28.7812L20.0625 28.3125L20.1875 28L20.4688 27.5938L20.75 27.3438L21.1875 27.0938L21.4688 27.0312L21.875 27L26.875 26.9688L26.9688 26.9375V22.75L27 21.6562L27.0625 21.2812L27.3125 20.7812L27.6562 20.4062L28.0938 20.1562L28.375 20.0625L29.25 20L30.5625 19.9688ZM32.125 21.9375L29 21.9688L28.9375 22.0625V25.9375L28.9062 27.25L28.8125 27.8438L28.625 28.1562L28.2812 28.5312L28.0312 28.7188L27.7188 28.8438L27.4688 28.875L26.75 28.9062L24.5312 28.9375H22.2188L21.9688 28.9688L21.9375 29V35L27.25 35.0312L27.6562 35.0938L27.9688 35.2188L28.3125 35.4375L28.5312 35.6875L28.7812 36.125L28.9062 36.5L28.9375 37.0938V41.9688L28.9688 42H34.8438L35 41.9375V37.75L35.0312 36.75L35.0938 36.3125L35.2188 36L35.5 35.5938L35.75 35.375L36.125 35.1562L36.5 35.0625L36.875 35.0312L41.8438 35L42 34.9375V29L41.875 28.9375H36.9688L36.3438 28.875L35.9688 28.75L35.625 28.5312L35.4062 28.2812L35.1562 27.875L35.0625 27.5938L35.0312 27.375L35 25.7188V22L34.9688 21.9688L34.7188 21.9375H32.125Z" fill="#1B1B1B"/>
</svg>
