<svg width="52" height="47" viewBox="0 0 52 47" fill="none" xmlns="http://www.w3.org/2000/svg">
<g clip-path="url(#clip0_112_1187)">
<path fill-rule="evenodd" clip-rule="evenodd" d="M21 2H19V3H21V2ZM5 2H7V3H5V2ZM3 2.12602C1.27477 2.57006 0 4.13616 0 6V37C0 39.2091 1.79086 41 4 41H7V40H4C2.34315 40 1 38.6569 1 37V6C1 4.69378 1.83481 3.58254 3 3.17071V2.12602ZM22 41H19V40H22V41ZM24 41H47V40H24V41ZM23 3H48C49.6569 3 51 4.34315 51 6V37C51 38.3062 50.1652 39.4175 49 39.8293V40.874C50.7252 40.4299 52 38.8638 52 37V6C52 3.79086 50.2091 2 48 2H23V3Z" fill="#1B1B1B"/>
<path fill-rule="evenodd" clip-rule="evenodd" d="M8 1H18C18.5523 1 19 1.44772 19 2V45C19 45.5523 18.5523 46 18 46H8C7.44772 46 7 45.5523 7 45V40H6V45C6 46.1046 6.89543 47 8 47H18C19.1046 47 20 46.1046 20 45V2C20 0.89543 19.1046 0 18 0H8C6.89543 0 6 0.89543 6 2V38H7V2C7 1.44772 7.44772 1 8 1Z" fill="#1B1B1B"/>
<rect x="26.5" y="9.5" width="18" height="5" stroke="#1B1B1B"/>
<rect x="26" y="19" width="5" height="2" fill="#1B1B1B"/>
<rect x="26" y="24" width="5" height="2" fill="#1B1B1B"/>
<rect x="26" y="29" width="5" height="2" fill="#1B1B1B"/>
<rect x="33" y="19" width="5" height="2" fill="#1B1B1B"/>
<rect x="33" y="24" width="5" height="2" fill="#1B1B1B"/>
<rect x="33" y="29" width="5" height="2" fill="#1B1B1B"/>
<rect x="40" y="19" width="5" height="2" fill="#1B1B1B"/>
<rect x="40" y="24" width="5" height="2" fill="#1B1B1B"/>
<rect x="40" y="29" width="5" height="2" fill="#1B1B1B"/>
</g>
<defs>
<clipPath id="clip0_112_1187">
<rect width="52" height="47" fill="white"/>
</clipPath>
</defs>
</svg>
