<svg width="100" height="100" viewBox="0 0 100 100" fill="none" xmlns="http://www.w3.org/2000/svg">
<path d="M22.3145 6.20117H40.332L41.2598 6.25L41.6504 6.34766L42.2363 6.64062L42.7246 7.08008L43.1152 7.61719L43.7988 8.78906L44.2871 9.61914L45.0684 10.9375L45.752 12.1094L46.4844 13.3789L47.0703 14.3555L48.4375 16.6992L49.0723 17.7734L49.6094 18.7012L49.8047 19.2383V20.166L49.6582 20.6055L49.3652 21.1426L48.7305 21.9727L48.1445 22.7539L47.5098 23.584L46.7773 24.5605L46.2891 25.1953L45.7031 25.9766L45.2148 26.6113L44.6289 27.3926L43.0664 29.4434L42.334 30.4199L41.5527 31.4453L41.3086 31.7871L41.7969 31.9336L43.4082 32.5195L44.873 33.1543L45.6055 33.4961L46.7285 34.082L47.8516 34.7168L48.6328 35.2051L49.6094 35.8398L49.9023 36.0352L50.1465 35.9863L50.8301 35.5469L51.8066 34.9121L52.6367 34.4238L53.8086 33.7891L54.5898 33.3984L55.957 32.7637L56.9336 32.373L57.9102 32.0312L58.9355 31.6895L60.3027 31.2988L61.5723 31.0059L63.4277 30.6641L64.9414 30.4688L66.0645 30.3711L66.9434 30.3223H69.4824L71.582 30.4688L74.0234 30.8105L75.4395 31.1035L77.6367 31.6895L79.0527 32.1777L80.7129 32.8125L83.252 34.0332L84.1797 34.5703L85.5469 35.4004L86.1328 35.791L87.0605 36.4746L88.0859 37.2559L88.5742 37.6465L89.1113 38.1348L89.502 38.4766L90.1367 39.0625L90.5273 39.4043L91.2109 40.0879L91.5527 40.4785L92.1387 41.1133L92.5781 41.6016L93.1152 42.2852L93.6035 42.9199L94.2383 43.7988L94.7266 44.4824L95.5078 45.752L96.1914 46.9238L96.582 47.6562L97.2168 49.0234L97.6074 49.8535L98.4863 52.2461L98.8281 53.418L99.3652 55.5664L99.6582 57.3242L99.9023 59.1309L100 59.082V64.9414L99.9023 64.8926L99.707 66.4062L99.3652 68.5059L98.7305 71.0449L98.2422 72.5098L97.5586 74.3164L97.168 75.1953L96.7773 75.9766L96.3867 76.8066L95.8984 77.6855L95.1172 78.9551L94.6289 79.7363L94.1406 80.4199L93.3594 81.4453L92.9199 82.0312L92.4805 82.5684L92.1875 82.9102H92.0898L91.9922 83.1055L91.2109 83.9355L90.6738 84.5215L89.8438 85.3027L89.4531 85.6445L88.8672 86.1816L88.2812 86.6699L86.3281 88.1348L85.5957 88.623L84.2773 89.4043L83.6426 89.7949L82.4219 90.4297L81.2988 90.9668L80.2734 91.4062L78.418 92.0898L77.1973 92.4805L74.8535 93.0664L73.1445 93.3594L71.7285 93.5547L70.6055 93.6523L68.7012 93.75H67.5781L65.5273 93.6523L63.5742 93.4082L61.9141 93.1152L60.4492 92.7734L58.6914 92.2852L57.1777 91.748L55.957 91.2598L54.248 90.4785L53.0273 89.8438L51.9043 89.209L50.293 88.1348L50.0488 87.9883L49.8047 88.0859L49.2676 88.4277L48.5352 88.916L47.5586 89.502L46.3867 90.1367L45.459 90.625L43.7012 91.4062L41.9922 92.041L40.9668 92.3828L39.1602 92.8711L37.2559 93.2617L35.2051 93.5547L34.2773 93.6523L32.3242 93.75H31.2012L29.1992 93.6523L27.7832 93.5059L25.293 93.1152L22.6074 92.4316L21.2891 91.9922L19.3359 91.2598L16.8945 90.0879L15.918 89.5508L15.1367 89.0625L14.0137 88.3789L11.6699 86.6211L11.1816 86.1816L10.791 85.8398L10.3027 85.4004L9.66797 84.8145L9.27734 84.4727V84.375L9.13086 84.3262L8.78906 83.9355L8.44727 83.5938L8.10547 83.2031L7.56836 82.6172L7.12891 82.0801L6.44531 81.2012L6.00586 80.6152L5.37109 79.7363L4.63867 78.5645L3.85742 77.2461L3.32031 76.2207L2.7832 75.0977L2.29492 73.9746L1.9043 72.9492L1.41602 71.5332L1.02539 70.1172L0.683594 68.75L0.439453 67.4316L0.146484 65.4785L0.0488281 65.332V64.6973H0V59.3262L0.0976562 58.9844L0.390625 56.7871L0.78125 54.834L1.26953 53.0273L1.66016 51.7578L2.34375 49.9512L2.7832 48.9746L3.4668 47.5586L4.3457 45.9473L4.98047 44.9219L5.81055 43.7012L6.29883 43.0176L6.93359 42.2363L7.4707 41.5527L8.10547 40.8203L8.44727 40.4785L8.49609 40.3809H8.59375L8.69141 40.1855L10.0586 38.8184L10.4492 38.4766L11.084 37.8906L11.5723 37.5L12.4512 36.8164L13.4277 36.084L15.2832 34.8633L16.5039 34.1797L17.5781 33.5938L19.1406 32.8613L20.6543 32.2754L21.7285 31.8848H21.8262L21.582 31.4453L21.0938 30.8105L19.7266 28.9551L19.0918 28.0762L18.3105 27.0508L17.8223 26.3672L14.4043 21.7285L13.916 21.0449L13.623 20.4102L13.5254 19.9707L13.5742 19.3848L13.8184 18.7012L14.502 17.4316L15.1367 16.3086L15.918 14.8926L16.5527 13.7695L17.1875 12.5977L17.8223 11.4746L18.6035 10.0586L19.8242 7.86133L20.3125 7.08008L20.6543 6.73828L21.2402 6.39648L21.7285 6.25L22.3145 6.20117ZM31.3965 38.4766L29.541 38.5742L28.2715 38.7207L26.9043 38.9648L25.4883 39.3066L24.2188 39.6973L22.998 40.1367L21.7773 40.6738L20.9961 41.0645L19.9707 41.6016L19.1895 42.0898L18.5059 42.5293L17.5781 43.2129L16.9434 43.7012L16.3086 44.2383L15.5762 44.9219L15.1855 45.2637L14.6973 45.752L14.3555 46.1426L13.7207 46.8262L13.1836 47.5098L12.7441 48.0957L12.3535 48.6328L11.8652 49.3652L11.4258 50.0977L10.9375 50.9277L10.3516 52.0996L9.86328 53.2227L9.32617 54.6875L8.98438 55.8594L8.64258 57.2266L8.34961 58.9844L8.20312 60.498L8.1543 61.4746V62.6465L8.25195 64.2578L8.49609 66.0156L8.74023 67.2852L9.17969 68.9453L9.61914 70.2148L10.1074 71.4355L10.791 72.8516L11.2305 73.6816L11.8652 74.707L12.4512 75.5859L13.2324 76.6113L13.7695 77.2949L14.1113 77.6367L14.4531 78.0273L15.1367 78.7598L15.8691 79.4434L16.4551 79.9805L17.1387 80.5176L17.7734 81.0059L18.457 81.4941L19.3848 82.0801L20.3613 82.666L21.0938 83.0566L22.8027 83.8379L24.707 84.5215L26.5625 85.0098L27.5879 85.2051L29.3945 85.4492L30.8105 85.5469H32.8613L34.082 85.4492L35.3027 85.3027L36.8652 85.0098L38.3789 84.6191L39.8438 84.1309L41.2598 83.5449L42.8711 82.7637L43.7012 82.2754L43.7988 82.1289L43.75 82.0312H43.6523L43.5547 81.7871L43.1152 81.25L42.7246 80.7129L42.1875 79.9805L41.4062 78.7598L40.8203 77.832L40.2344 76.709L39.7461 75.7812L39.3555 74.9512L38.5742 73.0469L37.9883 71.2891L37.6465 70.1172L37.207 68.1641L36.9629 66.6992L36.7188 64.7461L36.6211 62.9883V61.084L36.7188 59.2773L37.0117 56.9824L37.2559 55.6641L37.6953 53.7598L38.4277 51.416L38.9648 50.0488L39.5996 48.584L40.1855 47.4121L40.6738 46.4844L41.2598 45.5078L41.748 44.7754L42.2852 43.9453L42.7246 43.3594L43.4082 42.4316L43.7988 41.9434L43.75 41.7969L42.4316 41.0645L41.1133 40.4297L39.502 39.7949L38.1348 39.3555L36.7676 39.0137L35.4004 38.7695L34.375 38.623L33.2031 38.5254L32.0312 38.4766H31.3965ZM68.0176 38.4766L66.6504 38.5254L65.1367 38.6719L63.7207 38.916L62.4023 39.209L61.084 39.5996L59.8145 40.0391L58.4473 40.625L57.6172 41.0156L56.4941 41.6504L56.2012 41.8457L56.3965 42.1875L57.0312 43.0176L57.7148 43.9453L58.2031 44.6777L58.6914 45.459L59.2285 46.3379L60.4004 48.584L61.084 50.1953L61.5723 51.4648L62.2559 53.6133L62.7441 55.7129L62.9883 57.0801L63.2324 59.0332L63.3301 60.4004L63.3789 61.4746V62.5488L63.2812 64.4531L63.1836 65.5762L62.9395 67.334L62.6465 68.8477L62.1582 70.8008L61.4258 73.0469L60.791 74.5605L60.498 75.293L60.1074 76.0742L59.4238 77.3926L59.0332 78.0762L58.3496 79.1504L57.9102 79.834L57.4219 80.5176L56.6406 81.543L56.2012 82.1289L56.4453 82.373L57.4707 82.959L58.8379 83.5938L59.7656 83.9844L61.1328 84.4727L62.3047 84.8145L63.8672 85.1562L65.0879 85.3516L66.3574 85.498L67.0898 85.5469H69.1895L70.6543 85.4492L72.0703 85.2539L73.1934 85.0586L74.9512 84.6191L76.123 84.2285L77.5391 83.6914L79.248 82.8613L80.127 82.373L81.3965 81.5918L82.3242 80.9082L82.9102 80.4688L83.3984 80.0781L84.0332 79.4922L84.4238 79.1504L85.0586 78.5645V78.4668H85.1562L85.498 78.0762L86.1328 77.3926L86.5723 76.8555L87.2559 75.9766L87.8906 75.0977L88.5742 73.9746L89.1113 73.0469L89.8926 71.4355L90.332 70.3125L90.7715 69.0918L91.2598 67.2363L91.5039 65.9668L91.6992 64.6484L91.7969 63.2812L91.8457 61.9141L91.748 59.9609L91.5527 58.3984L91.3086 57.0312L90.8691 55.3223L90.4785 54.1504L90.0879 53.125L89.6973 52.2461L88.9648 50.7324L88.1348 49.3652L87.5488 48.4863L86.7676 47.4609L86.4258 47.0215L85.8398 46.3379L85.0586 45.5078L84.375 44.8242L83.9844 44.4824L83.3984 43.9453L81.6406 42.627L80.5664 41.9434L79.4922 41.3086L78.3203 40.7227L77.0996 40.1855L75.3418 39.5508L73.3398 39.0137L71.582 38.7207L70.3125 38.5742L68.0176 38.4766ZM50 47.2656L49.6094 47.7051L48.6328 49.0723L47.7539 50.5371L47.168 51.6602L46.6797 52.6855L46.1426 54.0527L45.6055 55.7129L45.166 57.6172L44.9219 59.1797L44.8242 60.2051L44.7754 61.0352V63.0859L44.9219 64.8926L45.166 66.4551L45.5078 67.9688L45.8984 69.2871L46.2891 70.4102L46.7773 71.582L47.3633 72.8027L47.9492 73.877L48.584 74.9023L49.1211 75.6836L49.8047 76.5625L49.9512 76.7578L50.1465 76.6602L50.5371 76.123L51.2207 75.1953L51.8066 74.2676L52.2461 73.5352L53.125 71.8262L53.8574 70.0195L54.4434 68.1641L54.8828 66.1621L55.127 64.3555L55.1758 63.8184L55.2246 62.6953V61.3281L55.127 59.7168L54.8828 57.9102L54.4922 56.1523L54.0527 54.6387L53.7109 53.6621L53.1738 52.3926L52.5879 51.1719L52.002 50.0977L51.416 49.1699L50.8789 48.3887L50.293 47.6074L50.0488 47.2656H50Z" fill="white"/>
</svg>
