<svg width="70" height="70" viewBox="0 0 70 70" fill="none" xmlns="http://www.w3.org/2000/svg">
<g clip-path="url(#clip0_112_1508)">
<path d="M17.2266 0H56.9775L57.0117 0.0683594L57.7979 0.273438L58.4814 0.512695L59.0283 0.786133L59.6094 1.12793L60.0879 1.50391L60.5664 1.91406L60.9424 2.32422L61.3867 2.90527L61.6602 3.34961L61.9336 3.8623L62.1387 4.375L62.3779 5.19531L62.4463 5.53711L62.5488 6.7334V11.1768L62.4463 12.4756L62.207 13.4326L61.9336 14.1504L61.6602 14.6973L61.3184 15.21L60.9766 15.6885L60.5664 16.1328L60.1562 16.543L59.6436 16.9189L59.1309 17.2607L58.3105 17.6709L57.3877 17.9785L56.9092 18.0811V28.7109L58.0029 28.7451L58.6523 28.8135L59.6436 29.0186L60.2588 29.2236L61.1133 29.5654L61.8994 30.0098L62.3438 30.3174L62.5488 30.5566L62.6855 30.8643V31.3086L62.583 31.582L62.3096 31.9238L61.9678 32.0947L61.8311 32.1289H61.4209L61.0107 31.958L60.293 31.5479L59.8828 31.3428L59.1309 31.0693L58.3447 30.8984L57.2852 30.8301L56.3965 30.8984L55.6104 31.0693L54.79 31.3428L54.2432 31.6162L53.6621 31.958L53.1152 32.3682L52.7051 32.7441L52.2949 33.1543L52.0215 33.5303L51.7139 33.9746L51.3379 34.6582L51.0303 35.4785L50.8594 36.2305L50.791 36.709L50.7568 37.2559V37.7002L50.8936 38.8281L51.2354 40.6055L51.8506 43.7158L52.3633 46.3135V46.9629L52.1924 47.3047L51.9531 47.5439L51.6455 47.6807L51.5088 47.7148H51.167L50.791 47.5781L50.6201 47.4414L50.415 47.1338L50.2783 46.7578L49.4922 42.793L48.8428 39.4775L48.7061 38.4863L48.6377 37.8369V37.4268L48.7061 36.2646L48.9795 35.0342L49.1504 34.5215L49.5947 33.4619L50.0391 32.71L50.3809 32.1973L50.791 31.7188L51.0986 31.377L51.3379 31.1035L51.8164 30.6934L52.2949 30.3174L52.7734 30.0098L53.5596 29.5654L54.0381 29.3604L54.7559 29.0869L54.79 18.2178H29.4287L28.54 18.1494L28.0273 18.0469L27.1387 17.7734L26.626 17.5684L25.8057 17.124L25.3955 16.8164L24.9512 16.4404L24.6777 16.2012L24.2676 15.7568L23.8916 15.2783L23.584 14.7998L23.1396 13.9453L22.832 12.9883L22.7295 12.5781L22.627 11.7578L22.5928 6.63086L22.5244 5.87891L22.3877 5.33203L22.2168 4.81934L21.875 4.16992L21.4648 3.62305L21.0547 3.21289L20.542 2.83691L20.0635 2.56348L19.4824 2.32422L18.7305 2.15332L18.457 2.11914H17.876L17.0898 2.22168L16.4062 2.42676L15.8594 2.7002L15.415 2.97363L15.0391 3.28125L14.6973 3.58887L14.2529 4.13574L13.9795 4.58008L13.7402 5.09277L13.5352 5.74219L13.4326 6.35742L13.3984 6.83594L13.3643 63.8135L13.2275 64.7021L13.0225 65.4541L12.7832 66.0693L12.4072 66.7871L12.1338 67.1631L11.7578 67.6416L11.5869 67.8809H48.5352V65.5566L47.9883 65.4541L47.4756 65.2832L46.7236 64.873L46.6211 64.8047L46.3135 64.8389L45.5273 65.0098L44.7754 65.0781L44.0576 65.0439L43.3057 64.9414L42.4854 64.7021L41.9043 64.4629L41.1182 64.0186L40.7764 63.7451L40.4004 63.4375L40.0928 63.1641L39.7852 62.7881L39.375 62.2754L38.9307 61.4551L38.7598 61.0791L38.4521 60.0879L38.3154 58.9258L38.3496 58.3789L38.4521 57.5244L38.7256 56.6357L38.8965 56.1914L39.3066 55.4395L39.5801 55.0635L39.8877 54.6875L40.127 54.3799H40.1953V54.3115L40.9473 53.6963L41.4258 53.3887L42.1436 53.0127L42.9639 52.7393L43.5791 52.6025L44.2285 52.5342H45.083L45.835 52.6367L46.6211 52.8418L47.4414 53.1836L48.125 53.5938L48.6035 53.9697L48.9453 54.2432L49.1846 54.5166L49.5605 54.9268L49.9707 55.542L50.1758 55.8838L50.4492 56.4648V56.5332H52.1924L51.8164 54.5508L51.2012 51.4404L51.1328 51.0986V50.4492L51.3037 50.1074L51.543 49.8682L51.8164 49.7314L51.9531 49.6973H52.3291L52.6367 49.7998L52.9443 50.0391L53.1494 50.415L53.3203 51.1328L53.7988 53.5938L54.3799 56.499H60.1904L60.3271 55.9521L60.8398 53.4229L61.1816 51.7822L61.4209 50.5859L62.1045 47.2363L62.5488 45.083L63.0615 42.5537L63.6768 39.4775L63.8135 38.6914L63.916 37.7686V36.9824L63.8135 36.2305L63.6084 35.4443L63.335 34.7266L63.2324 34.3506V34.043L63.3691 33.7012L63.5742 33.4277L63.8477 33.2568L64.0527 33.1885H64.4971L64.8389 33.3252L65.0439 33.4961L65.2832 33.8721L65.5566 34.5557L65.7959 35.3418L65.9326 35.957L66.0352 36.709V38.0762L65.9326 38.9648L65.7275 40.127L65.3516 42.0752L65.1123 43.2031L64.5996 45.7324L64.292 47.2021L63.7793 49.7314L63.3691 51.7139L62.6855 55.0635L62.3779 56.5332H65.5908L66.2744 56.6016L66.8555 56.7383L67.4023 56.9434L68.0176 57.2852L68.5986 57.7637L68.9062 58.0713L69.248 58.5156L69.5215 58.9941L69.7266 59.4385L69.9316 60.0879V60.293H70V61.9336H69.9316L69.7949 62.5146L69.5557 63.0957L69.2822 63.5742L68.8721 64.1211L68.5645 64.4287L68.1885 64.7363L67.5732 65.1123L66.8896 65.3857L66.2402 65.5566H66.1719V67.9492L66.1377 68.5303L66.001 69.0088L65.7275 69.4189L65.4541 69.6582L65.0781 69.8633L64.5996 70H5.87891L5.81055 69.9316L5.12695 69.7949L4.13574 69.4873L3.58887 69.2139L2.97363 68.8721L2.49512 68.4961L2.0166 68.0859L1.77734 67.8467L1.16211 67.0947L0.820312 66.5137L0.512695 65.9326L0.205078 65.0098L0 64.1895V56.4307L0.205078 55.6104L0.444336 54.9268L0.854492 54.1748L1.23047 53.6963L1.57227 53.2861L1.94824 52.9785L2.42676 52.6025L3.17871 52.1924L3.72559 51.9873L4.2041 51.8506L5.05859 51.748H11.2451V8.4082L11.2793 6.32324L11.3818 5.57129L11.6211 4.7168L11.8604 4.06738L12.3389 3.17871L12.6807 2.7002L12.9883 2.3584L13.125 2.15332H13.1934L13.2617 2.0166L13.6377 1.6748L14.0137 1.36719L14.4922 1.02539L15.4492 0.512695L16.3037 0.239258L16.8848 0.0683594L17.2266 0ZM22.9346 2.08496L23.0029 2.22168L23.3105 2.59766L23.6865 3.11035L24.165 4.0332L24.4385 4.85352L24.5752 5.43457L24.6777 6.35742L24.7119 11.2451L24.7803 12.0654L24.9512 12.7832L25.1562 13.3301L25.5664 14.0479L25.9424 14.4922L26.1816 14.7656L26.626 15.1416L26.9678 15.3809L27.6855 15.7568L28.4717 15.9961L29.2578 16.0986H56.0547L56.7041 15.9961L57.2852 15.8252L57.9004 15.5518L58.4473 15.21L58.9258 14.7998L59.3359 14.3896L59.6777 13.9111L59.9512 13.4326L60.1904 12.8516L60.3955 11.9971L60.4297 11.5527V6.42578L60.3613 5.77637L60.1562 5.05859L59.8828 4.44336L59.541 3.89648L59.2334 3.55469L58.9941 3.28125L58.4131 2.83691L57.8662 2.5293L57.4902 2.3584L56.7725 2.15332L56.123 2.08496H22.9346ZM5.22949 53.833L4.64844 53.9014L4.0332 54.1064L3.58887 54.3457L3.28125 54.585L3.00781 54.8242V54.8926H2.93945L2.59766 55.3369L2.39258 55.7129L2.1875 56.2598L2.11914 56.6016L2.08496 56.9434V63.6426L2.1875 64.3945L2.42676 65.1123L2.66602 65.5908L2.93945 66.001L3.24707 66.377L3.58887 66.7188L4.0332 67.0605L4.40918 67.2998L5.09277 67.6074L5.67383 67.7783L6.0498 67.8467L6.42578 67.8809H6.9043L7.51953 67.8125L8.16895 67.6416L8.5791 67.4707L9.12598 67.1973L9.50195 66.9238L9.94629 66.5479L10.2539 66.2061L10.5957 65.7275L10.9375 65.0781L11.1084 64.5654L11.2109 64.0869L11.2793 63.3691V53.8672L11.2451 53.833H5.22949ZM44.4678 54.6191L43.8184 54.6875L43.1006 54.8926L42.5537 55.166L42.2119 55.3711L41.8359 55.6787L41.5967 55.8838L41.2207 56.3623L41.0156 56.6699L40.7422 57.2168L40.5713 57.7295L40.4688 58.208L40.4346 58.5156V59.0625L40.5371 59.7461L40.708 60.293L40.8789 60.7031L41.2891 61.3525L41.5283 61.5918L41.7676 61.8652L42.0068 62.0703L42.6221 62.4805L43.2373 62.7539L43.7842 62.8906L44.1602 62.959H44.9805L45.0488 62.9248L44.9805 62.6172L44.8096 62.0361L44.7412 61.4893L44.707 60.9766L44.8096 60.1562L45.0146 59.4727L45.2539 58.9258L45.6641 58.2764V58.208H45.7324L45.9717 57.9346L46.3477 57.5586L46.8604 57.2168L47.2705 56.9775L48.1592 56.6699L48.0908 56.499L47.7148 56.0205L47.4756 55.7471L46.9287 55.3369L46.5527 55.0977L46.04 54.8584L45.5957 54.7217L45.2197 54.6533L44.4678 54.6191ZM50.4834 58.6182L48.8428 58.6523L48.2959 58.7891L47.9541 58.96L47.5439 59.2676L47.2021 59.6777L46.9287 60.2246L46.8262 60.6006L46.792 60.9082V61.3184L46.8945 61.8652L47.168 62.4121L47.4414 62.7881L47.749 63.0615L48.0908 63.2666L48.5693 63.4375L49.1162 63.5059H65.6934L66.1035 63.4375L66.5137 63.3008L66.958 63.0273L67.2998 62.7197L67.5391 62.4463L67.7783 61.9336L67.8809 61.5576L67.915 61.2842V60.8398L67.8467 60.4297L67.6758 59.9512L67.4365 59.5752L67.1289 59.2334L66.6846 58.9258L66.3086 58.7549L65.8643 58.6523L65.4199 58.6182H50.4834ZM50.6543 65.5908V67.8809H64.0527V65.625L63.916 65.5908H50.6543Z" fill="#1B1B1B"/>
<path d="M17.9785 26.7627H49.9707L50.3125 26.8652L50.6201 27.1045L50.791 27.3438L50.8594 27.5488V28.0615L50.6543 28.4717L50.3809 28.7109L50.0732 28.8135L49.834 28.8477H18.1152L17.7734 28.7793L17.5 28.6084L17.2949 28.3691L17.1582 28.0957L17.124 27.9932V27.6172L17.2607 27.2754L17.4316 27.0361L17.7734 26.8311L17.9785 26.7627Z" fill="#1B1B1B"/>
<path d="M18.0469 21.4307H49.9023L50.21 21.499L50.4834 21.6699L50.6543 21.8408L50.8252 22.1143L50.8594 22.251V22.7637L50.6543 23.1396L50.3809 23.3789L50.1074 23.4814L49.8682 23.5156H18.0127L17.6709 23.4131L17.3291 23.1055L17.1582 22.7637L17.124 22.6611V22.3193L17.2607 21.9434L17.5 21.6699L17.7734 21.499L18.0469 21.4307Z" fill="#1B1B1B"/>
<path d="M18.0127 48.0566H48.2617L48.5693 48.1592L48.8428 48.3643L49.0479 48.6377L49.1504 48.9795L49.1162 49.3555L48.9111 49.7656L48.6377 50.0049L48.1934 50.1416H18.0469L17.7051 50.0391L17.4316 49.834L17.2266 49.5605L17.124 49.2529V48.9111L17.2949 48.501L17.4316 48.3301L17.7393 48.125L18.0127 48.0566Z" fill="#1B1B1B"/>
<path d="M18.3887 32.0605H46.1768L46.8604 32.0947L47.2021 32.2314L47.4756 32.4707L47.6465 32.7441L47.7148 33.1885L47.6123 33.5645L47.373 33.9062L47.0996 34.0771L46.8945 34.1455L46.5527 34.1797H18.1494L17.8076 34.1113L17.5342 33.9746L17.2949 33.7012L17.1582 33.4277L17.124 33.291V32.9492L17.2607 32.5732L17.4658 32.334L17.7393 32.1631L17.9443 32.0947L18.3887 32.0605Z" fill="#1B1B1B"/>
<path d="M18.0469 42.7246H46.7578L47.0996 42.8271L47.3047 42.9639L47.4756 43.1348L47.6465 43.4082L47.6807 43.5107V44.0234L47.5098 44.3652L47.3047 44.6045L47.0654 44.7412L46.792 44.8096H18.0127L17.6709 44.707L17.3291 44.3994L17.1582 44.0576L17.124 43.9551V43.6133L17.2607 43.2373L17.5 42.9639L17.7734 42.793L18.0469 42.7246Z" fill="#1B1B1B"/>
<path d="M24.541 37.3926H46.04L46.3818 37.4609L46.6895 37.6318L46.9629 37.9395L47.0654 38.2471V38.6572L46.9287 38.999L46.6895 39.2725L46.4502 39.4092L46.2109 39.4775L45.5273 39.5117H24.8145L24.3701 39.4775L24.0625 39.375L23.7549 39.1016L23.5498 38.6914L23.5156 38.418L23.6182 38.0078L23.8232 37.7344L24.0625 37.5293L24.3018 37.4268L24.541 37.3926Z" fill="#1B1B1B"/>
<path d="M18.1152 37.3926H20.4736L20.8838 37.4951L21.1914 37.7002L21.3965 38.0078L21.4648 38.1787L21.499 38.5205L21.4307 38.8281L21.2598 39.1016L21.0205 39.3408L20.6104 39.4775L20.0977 39.5117H18.2861L17.8076 39.4434L17.4658 39.2383L17.2607 38.9648L17.124 38.623V38.2812L17.2607 37.9053L17.5 37.6318L17.8076 37.4609L18.1152 37.3926Z" fill="#1B1B1B"/>
</g>
<defs>
<clipPath id="clip0_112_1508">
<rect width="70" height="70" fill="white"/>
</clipPath>
</defs>
</svg>
