<svg width="512" height="512" viewBox="0 0 512 512" fill="none" xmlns="http://www.w3.org/2000/svg">
<path d="M399 0H400L401.75 2.25L405.5 6L406 6.25V6.75H406.5V7.25L407.5 7.75V8.25H408V8.75H408.5V9.25H409V9.75H409.5V10.25H410V10.75H410.5V11.25H411V11.75H411.5V12.25H412V12.75H412.5V13.25H413L414.5 15L416 16.25L417.5 18L418 18.25V18.75H418.5V19.25H419V19.75H419.5V20.25L420.5 20.75L479.5 79.75V80.25L480.5 80.75V81.25L481.5 81.75V82.25L482.5 82.75V83.25H483V83.75H483.5V84.25H484V84.75H484.5V85.25H485V85.75H485.5V86.25H486V86.75H486.5V87.25H487L488.5 89L490 90.25L491.5 92L493 93.25L494.5 95L496 96.25V96.75H496.5V97.25H497V97.75H497.5V98.25H498V98.75H498.5V99.25H499L500.75 101.25L503 104.25L504.5 107.5L505.25 110.25L505.5 112V114.25L504.75 118.5L503.5 121.5L502 124L499 127.5L402.5 224H402L401.5 225H401L400.5 226L399.25 227L374 201.75L374.5 200.75L376.5 198.75H377L377.5 197.75H378L378.5 196.75H379L379.5 195.75H380L380.5 194.75H381L381.5 193.75L443.75 131.5H96.5L90.5 131.75L85 132.5L80 133.75L75 135.5L69.25 138.25L65.75 140.5L60.25 145L57 148L54.25 151.25L52.25 153.75L50 157L48.25 160L46 165L44.25 170.25L43 175.75L42.5 180.25L42.25 184.75L42 255.75L41.75 256H6.25L6 255.75V185.25L6.5 175.75L7.75 167.5L9.25 161.25L10.75 156.25L13.25 149.5L17 141.75L19 138.5L21.5 134.5L25.5 129.25L26.5 127.75H27L27.5 126.75L30.75 123.25L32.5 121.25L36.25 117.75L38.25 116L41.5 113.5L45.25 110.75L50 107.75L54.5 105.25L60.75 102.25L69 99.25L77 97.25L84.75 96L91.25 95.5L442.75 95.25L443.75 95.5L442 93.5L380 31.5V31L379 30.5L378 29.5V29L377 28.5L376 27.5V27H375.5V26.5L374.5 26L374 25.5V24.75L375.25 23.5L376 23.25V22.75L377.75 21.25L378 20.75H378.5V20.25H379V19.75H379.5V19.25H380V18.75H380.5V18.25H381V17.75H381.5L382 16.75H382.5L383 15.75H383.5L384 14.75L386.5 12.25H387L387.5 11.25H388L388.5 10.25H389L389.5 9.25H390L390.5 8.25H391L391.5 7.25H392L392.5 6.25H393V5.75L394 4.75H394.5V4.25H395V3.75L396.25 2.5L398.75 0.25L399 0Z" fill="#EFC227"/>
<path d="M469.75 255.75H504.75L505.5 256.25V327.25L505 336.5L503.75 345L502 352L499.75 358.75L497.75 363.5L494.5 370.25L491.5 375.25L488.75 379.25L485.5 383.5L482.5 387L478.75 391L475.5 394L473.5 395.75L469 399.25L465 402L460 405L453.75 408.25L447.75 410.75L441 413L433.75 414.75L427.5 415.75L422.5 416.25L418.25 416.5L68 416.75L70.25 419.25L137.5 486.5L137 487.5L134 490.5L132.75 492L131 493.5L130.75 494H130.25V494.5H129.75V495H129.25V495.5H128.75V496H128.25V496.5H127.75V497H127.25L126.75 498H126.25L125.75 499H125.25L124.75 500H124.25L123.75 501H123.25L122.75 502H122.25L121.75 503L120 504.5L118.75 506L116.75 507.75L115.75 509L114.75 510H114.25L113.75 511L112.75 512L111.75 511.75L110.5 510.5L109.5 509.25L108 508L106.25 506L105 505L103.5 503.25L102 502L100.5 500.25L100 500V499.5H99.5V499H99V498.5H98.5V498H98V497.5H97.5V497H97V496.5H96.5V496H96V495.5H95.5V495L94.5 494.5V494L93.5 493.5V493L92.5 492.5V492L91.5 491.5V491L90.5 490.5V490L89.5 489.5V489L88.5 488.5V488L87.5 487.5V487L86.5 486.5V486L85.5 485.5V485L84.5 484.5V484L83.5 483.5V483L82.5 482.5V482L81.5 481.5V481L80.5 480.5V480L79.5 479.5V479L78.5 478.5V478L77.5 477.5V477L76.5 476.5V476L75.5 475.5V475L74.5 474.5V474L73.5 473.5V473L72.5 472.5V472L71.5 471.5V471L70.5 470.5V470L69.5 469.5V469L68.5 468.5V468L67.5 467.5V467L66.5 466.5V466L65.5 465.5V465L64.5 464.5V464L63.5 463.5V463L62.5 462.5V462L61.5 461.5V461L60.5 460.5V460L59.5 459.5V459L58.5 458.5V458L57.5 457.5V457L56.5 456.5V456L55.5 455.5V455L54.5 454.5V454L53.5 453.5V453L52.5 452.5V452L51.5 451.5V451L50.5 450.5V450L49.5 449.5V449L48.5 448.5V448L47.5 447.5V447L46.5 446.5V446L45.5 445.5V445L44.5 444.5V444L43.5 443.5V443L42.5 442.5V442L41.5 441.5V441L40.5 440.5V440L39.5 439.5L12.5 412.5V412H12L10.25 410L8.5 407.5L7 404.25L6.25 401.5L6 398.25L6.5 394.75L7.5 391.5L9.5 388L11.75 385.5L13.5 383.5H14L14.5 382.5L100.5 296.5H101L101.5 295.5H102L102.5 294.5H103L103.5 293.5H104L104.5 292.5H105L105.5 291.5H106L106.5 290.5H107L107.5 289.5H108L108.5 288.5H109L109.25 287.75L110.5 286.5H111L111.5 285.5H112V285L113 285.5L137.5 310L137.25 311L134.75 313.25L134.25 314H133.75L133.25 315H132.75L132.25 316H131.75L131.25 317L78.25 370H77.75L77.25 371H76.75L76.25 372H75.75L75.25 373L70.25 378H69.75L69.25 379L68.5 379.75H68V380.25L108.75 380.5H402.25L419.25 380.25L424.25 379.75L430.25 378.5L436.25 376.5L442.5 373.5L446 371.25L450.25 367.75L453 365.5L455 363.5L457.25 360.75L460.5 356.75L463.25 352L465.5 347.25L467.5 341.25L468.5 337L469 333L469.25 329.25V275.25L469.5 256L469.75 255.75Z" fill="#EFC227"/>
</svg>
