<svg width="15" height="15" viewBox="0 0 15 15" fill="none" xmlns="http://www.w3.org/2000/svg">
<path d="M5.62509 10.106L3.45634 7.93727C3.33948 7.82041 3.18098 7.75476 3.01572 7.75476C2.85045 7.75476 2.69195 7.82041 2.57509 7.93727C2.45823 8.05413 2.39258 8.21263 2.39258 8.3779C2.39258 8.45973 2.4087 8.54076 2.44001 8.61636C2.47133 8.69197 2.51723 8.76066 2.57509 8.81852L5.18759 11.431C5.43134 11.6748 5.82509 11.6748 6.06884 11.431L12.6813 4.81852C12.7982 4.70166 12.8639 4.54317 12.8639 4.3779C12.8639 4.21263 12.7982 4.05413 12.6813 3.93727C12.5645 3.82041 12.406 3.75476 12.2407 3.75476C12.0754 3.75476 11.917 3.82041 11.8001 3.93727L5.62509 10.106Z" fill="#0EB028"/>
</svg>
