<svg width="40" height="40" viewBox="0 0 40 40" fill="none" xmlns="http://www.w3.org/2000/svg">
<path fill-rule="evenodd" clip-rule="evenodd" d="M23.9751 25.7433C21.7287 27.5382 18.8803 28.4048 16.0149 28.1651C13.1495 27.9254 10.4846 26.5976 8.56765 24.4545C6.65065 22.3114 5.62702 19.5156 5.70699 16.6413C5.78697 13.767 6.96448 11.0325 8.99769 8.99928C11.0309 6.96607 13.7655 5.78856 16.6397 5.70858C19.514 5.6286 22.3098 6.65223 24.4529 8.56923C26.5961 10.4862 27.9238 13.1511 28.1635 16.0165C28.4032 18.8818 27.5366 21.7302 25.7417 23.9767L34.3351 32.5683C34.4579 32.6828 34.5564 32.8208 34.6247 32.9741C34.693 33.1274 34.7298 33.2929 34.7327 33.4608C34.7357 33.6286 34.7048 33.7953 34.6419 33.951C34.5791 34.1066 34.4855 34.248 34.3668 34.3667C34.2481 34.4854 34.1067 34.579 33.9511 34.6419C33.7954 34.7047 33.6287 34.7356 33.4609 34.7326C33.293 34.7297 33.1275 34.6929 32.9742 34.6246C32.8208 34.5563 32.6828 34.4578 32.5684 34.335L23.9751 25.7433ZM10.7651 23.14C9.5418 21.9166 8.70865 20.358 8.37092 18.6613C8.03318 16.9645 8.20602 15.2057 8.86758 13.6072C9.52915 12.0086 10.6497 10.642 12.0878 9.68015C13.5258 8.71828 15.2166 8.20429 16.9467 8.20312C18.6767 8.20196 20.3683 8.71368 21.8076 9.67361C23.2469 10.6335 24.3693 11.9986 25.033 13.5963C25.6968 15.1939 25.872 16.9525 25.5365 18.6497C25.2011 20.3469 24.37 21.9066 23.1484 23.1317L23.1401 23.14L23.1317 23.1467C21.4902 24.7844 19.2658 25.7035 16.947 25.7023C14.6283 25.701 12.4048 24.7795 10.7651 23.14Z" fill="#3C3C3C"/>
</svg>
