<svg width="51" height="51" viewBox="0 0 51 51" fill="none" xmlns="http://www.w3.org/2000/svg">
<g clip-path="url(#clip0_112_1520)">
<path d="M24.3376 0.0986328H26.261L27.4446 0.172607L28.4062 0.27124L29.2939 0.394531L30.3789 0.591797L31.5625 0.863037L32.8694 1.23291L34.0283 1.62744L35.0146 2.02197L35.9023 2.4165L36.6174 2.76172L36.9873 2.95898L37.3818 3.15625L37.9736 3.50146L38.3188 3.69873L38.7874 3.99463L39.2065 4.26587L39.5024 4.46313L39.9463 4.78369L40.3655 5.07959L41.0559 5.62207L41.4504 5.94263L42.1902 6.58374L42.5847 6.95361L42.8066 7.17554L43.0039 7.34814L43.3491 7.69336L43.5217 7.89062L43.8423 8.21118L44.0149 8.40845L44.2368 8.65503L44.4587 8.92627L44.6807 9.17285L44.9519 9.51807L45.2725 9.9126L45.5684 10.3071L46.1602 11.1455L46.4067 11.5154L46.7026 11.9839L46.9739 12.4277L47.3438 13.0688L47.7876 13.9072L48.0835 14.499L48.4041 15.2141L48.7246 15.9785L49.0452 16.8416L49.3657 17.7786L49.7109 19.0115L49.9822 20.1704L50.2288 21.5759L50.3767 22.8088L50.4753 24.0664L50.5 24.4609V25.9404L50.426 27.2227L50.3027 28.4309L50.1794 29.3186L49.9822 30.4036L49.7109 31.5872L49.3657 32.7954L49.0698 33.6831L48.7986 34.4229L48.4534 35.2612L48.0835 36.075L47.7876 36.6914L47.4917 37.2585L47.1465 37.875L46.8999 38.2942L46.604 38.7627L46.2588 39.3052L45.9136 39.7983L45.593 40.2422L45.2971 40.6367L45.0012 41.0066L44.73 41.3518L44.4341 41.697L44.2122 41.9436L43.9902 42.2148L43.6943 42.5107L43.5217 42.708L43.2012 43.0286L43.1272 43.1272H43.0779V43.1765L42.8806 43.3491L42.5601 43.6697L42.3628 43.8423L42.1902 44.0149L41.9189 44.2368L41.623 44.5081L41.3518 44.73L40.9573 45.0505L40.2175 45.6177L39.7983 45.9136L39.3052 46.2588L38.2942 46.8999L37.6038 47.2944L37.1599 47.541L36.7654 47.7383L36.1982 48.0342L35.3845 48.4041L34.6201 48.7246L33.7571 49.0452L32.8694 49.3411L32.2283 49.5383L31.1926 49.8096L30.2803 50.0068L29.4912 50.1548L28.283 50.3274L27.0994 50.4507L26.4583 50.5H24.1157L22.5129 50.3521L21.354 50.2041L20.1211 49.9822L18.9622 49.7109L17.7539 49.3657L16.8662 49.0698L16.2004 48.8232L15.4607 48.5273L14.425 48.0588L13.3401 47.5164L12.7483 47.1711L12.3044 46.9246L11.762 46.5793L11.3428 46.3081L10.8743 45.9875L10.4304 45.667L10.0852 45.4204L9.69067 45.0999L9.34546 44.8286L9.0249 44.5574L8.67969 44.2615L8.43311 44.0396L8.23584 43.8669L7.81665 43.4724L7.54541 43.2012L7.42212 43.1025L7.24951 42.9053L6.85498 42.5107L6.68237 42.3135L6.38647 41.9929L6.16455 41.7217L5.91797 41.4504L5.64673 41.1052L5.32617 40.7107L4.9563 40.2175L4.3645 39.3792L4.04395 38.886L3.74805 38.4175L3.50146 37.9983L3.13159 37.3572L2.68774 36.4941L2.34253 35.7791L2.04663 35.1133L1.67676 34.1763L1.38086 33.3379L1.10962 32.4995L0.789062 31.3159L0.54248 30.2063L0.345215 29.072L0.197266 27.8391L0.0986328 26.5322L0.0739746 25.7925V24.8801L0.123291 23.6472L0.197266 22.7595L0.320557 21.7239L0.493164 20.6636L0.715088 19.6033L0.96167 18.6169L1.25757 17.6306L1.6521 16.4717L2.04663 15.4854L2.49048 14.499L3.05762 13.3647L3.37817 12.7976L3.77271 12.1318L4.16724 11.5154L4.51245 10.9976L4.83301 10.5537L5.07959 10.2085L5.4248 9.76465L5.69604 9.41943L5.91797 9.14819L6.23853 8.77832L6.46045 8.53174L6.63306 8.33447L6.85498 8.08789L7.24951 7.6687L7.86597 7.05225L8.06323 6.87964L8.28516 6.65771L8.5564 6.43579L8.87695 6.13989L9.14819 5.91797L9.46875 5.64673L9.78931 5.40015L10.2332 5.05493L10.677 4.73438L11.1455 4.41382L11.5894 4.11792L12.1318 3.77271L12.6743 3.45215L13.2908 3.10693L13.7593 2.86035L14.5977 2.44116L15.4854 2.04663L16.5457 1.62744L17.7786 1.20825L18.9128 0.887695L20.0718 0.616455L21.1321 0.419189L22.1431 0.27124L23.1294 0.172607L23.7952 0.123291L24.3376 0.0986328ZM15.9292 14.2031L15.4607 14.2771L15.0168 14.425L14.5977 14.647L14.2524 14.9182L14.0059 15.1401L13.7346 15.4854L13.5374 15.8306L13.3894 16.1511L13.2661 16.5457L13.1921 17.2607V38.4668L13.2908 38.4175L13.8086 37.8997L14.0059 37.7271L14.7456 36.9873L14.9429 36.8147L15.5347 36.2229L15.584 36.1982V36.1489L15.6826 36.0996L16.447 35.3352L16.6443 35.1626L17.1868 34.6201L17.384 34.4475L18.1238 33.7078L18.1978 33.6584V33.6091H18.2471V33.5598H34.2009L34.7434 33.5352L35.2366 33.4612L35.7544 33.2886L36.1982 33.042L36.4448 32.8447L36.6914 32.6228L36.9133 32.3762L37.1353 32.031L37.3325 31.6365L37.4805 31.1433L37.5298 30.6748V17.0388L37.4805 16.595L37.3325 16.1018L37.1353 15.7073L36.9873 15.4607L36.7161 15.1401L36.4941 14.9182L36.1736 14.6716L35.6558 14.4004L35.1626 14.2524L34.7434 14.2031H15.9292Z" fill="#4E6DFE"/>
<path d="M18.0498 22.7349H32.4995L32.5488 22.7595V25.176L32.5242 25.2007H18.0251V22.7595L18.0498 22.7349Z" fill="#506EFE"/>
<path d="M18.0745 19.0608H31.3159L32.5488 19.0854V21.5266H18.0498L18.0251 21.428V20.0718L18.0498 19.0854L18.0745 19.0608Z" fill="#4E6DFE"/>
<path d="M18.0251 26.2363H27.7158V28.6775L18.1238 28.7021L18.0498 28.6775L18.0251 28.3323V26.2363Z" fill="#4E6DFE"/>
</g>
<defs>
<clipPath id="clip0_112_1520">
<rect width="50.5" height="50.5" fill="white"/>
</clipPath>
</defs>
</svg>
