<svg width="48" height="30" viewBox="0 0 48 30" fill="none" xmlns="http://www.w3.org/2000/svg">
<g clip-path="url(#clip0_112_1304)">
<rect x="0.5" y="0.5" width="47" height="29" rx="2.5" stroke="#9881B5"/>
<path d="M10.0693 10.0469V20H8.02539V10.0469H10.0693ZM15.581 10.0469V20H13.5302V10.0469H15.581ZM19.5459 14.2988V15.8984H15.0205V14.2988H19.5459ZM20.0244 10.0469V11.6533H15.0205V10.0469H20.0244ZM27.9355 17.3955C27.9355 17.2178 27.9081 17.0583 27.8534 16.917C27.8033 16.7712 27.7076 16.639 27.5663 16.5205C27.4251 16.3975 27.2268 16.2767 26.9716 16.1582C26.7164 16.0397 26.386 15.9167 25.9804 15.7891C25.5292 15.6432 25.1008 15.4792 24.6952 15.2969C24.2942 15.1146 23.9387 14.9027 23.6288 14.6611C23.3235 14.415 23.082 14.1302 22.9042 13.8066C22.731 13.4831 22.6445 13.1071 22.6445 12.6787C22.6445 12.264 22.7356 11.888 22.9179 11.5508C23.1002 11.209 23.3554 10.9173 23.6835 10.6758C24.0116 10.4297 24.399 10.2406 24.8456 10.1084C25.2968 9.97624 25.7913 9.91016 26.329 9.91016C27.0627 9.91016 27.703 10.0423 28.2499 10.3066C28.7968 10.571 29.2206 10.9333 29.5214 11.3936C29.8267 11.8538 29.9794 12.3802 29.9794 12.9727H27.9423C27.9423 12.681 27.8808 12.4258 27.7577 12.207C27.6392 11.9837 27.457 11.8083 27.2109 11.6807C26.9693 11.5531 26.664 11.4893 26.2948 11.4893C25.9394 11.4893 25.6432 11.5439 25.4062 11.6533C25.1692 11.7581 24.9915 11.9017 24.873 12.084C24.7545 12.2617 24.6952 12.4622 24.6952 12.6855C24.6952 12.8542 24.7362 13.0068 24.8183 13.1436C24.9049 13.2803 25.0325 13.4079 25.2011 13.5264C25.3697 13.6449 25.5771 13.7565 25.8232 13.8613C26.0693 13.9661 26.3541 14.0687 26.6777 14.1689C27.22 14.333 27.6962 14.5176 28.1064 14.7227C28.5211 14.9277 28.8674 15.1579 29.1454 15.4131C29.4234 15.6683 29.6331 15.9577 29.7743 16.2812C29.9156 16.6048 29.9862 16.9717 29.9862 17.3818C29.9862 17.8148 29.9019 18.2021 29.7333 18.5439C29.5647 18.8857 29.3209 19.1751 29.0019 19.4121C28.6829 19.6491 28.3023 19.8291 27.8603 19.9521C27.4182 20.0752 26.9237 20.1367 26.3769 20.1367C25.8847 20.1367 25.3993 20.0729 24.9208 19.9453C24.4423 19.8132 24.0071 19.6149 23.6152 19.3506C23.2278 19.0863 22.9179 18.749 22.6855 18.3389C22.453 17.9287 22.3368 17.4434 22.3368 16.8828H24.3945C24.3945 17.1927 24.4423 17.4548 24.538 17.6689C24.6337 17.8831 24.7682 18.0563 24.9413 18.1885C25.1191 18.3206 25.3287 18.4163 25.5702 18.4756C25.8163 18.5348 26.0852 18.5645 26.3769 18.5645C26.7323 18.5645 27.024 18.5143 27.2519 18.4141C27.4843 18.3138 27.6552 18.1748 27.7646 17.9971C27.8785 17.8193 27.9355 17.6188 27.9355 17.3955ZM38.6903 16.6982H40.7343C40.6932 17.3682 40.5087 17.9629 40.1805 18.4824C39.857 19.002 39.4035 19.4076 38.8202 19.6992C38.2414 19.9909 37.5442 20.1367 36.7284 20.1367C36.0904 20.1367 35.5184 20.0273 35.0126 19.8086C34.5067 19.5853 34.0738 19.2663 33.7137 18.8516C33.3583 18.4368 33.0871 17.9355 32.9003 17.3477C32.7134 16.7598 32.62 16.1012 32.62 15.3721V14.6816C32.62 13.9525 32.7157 13.2939 32.9071 12.7061C33.1031 12.1136 33.3811 11.61 33.7411 11.1953C34.1057 10.7806 34.5409 10.4616 35.0468 10.2383C35.5526 10.015 36.1177 9.90332 36.7421 9.90332C37.5715 9.90332 38.271 10.0537 38.8407 10.3545C39.4149 10.6553 39.8593 11.07 40.1737 11.5986C40.4927 12.1273 40.6841 12.7288 40.7479 13.4033H38.6971C38.6744 13.0023 38.5946 12.6628 38.4579 12.3848C38.3212 12.1022 38.1138 11.8903 37.8358 11.749C37.5624 11.6032 37.1978 11.5303 36.7421 11.5303C36.4003 11.5303 36.1018 11.5941 35.8466 11.7217C35.5914 11.8493 35.3772 12.043 35.204 12.3027C35.0308 12.5625 34.9009 12.8906 34.8143 13.2871C34.7323 13.679 34.6913 14.1393 34.6913 14.668V15.3721C34.6913 15.887 34.73 16.3405 34.8075 16.7324C34.885 17.1198 35.0035 17.4479 35.163 17.7168C35.327 17.9811 35.5367 18.1816 35.7919 18.3184C36.0516 18.4505 36.3638 18.5166 36.7284 18.5166C37.1568 18.5166 37.51 18.4482 37.788 18.3115C38.066 18.1748 38.2779 17.972 38.4237 17.7031C38.5741 17.4342 38.663 17.0993 38.6903 16.6982Z" fill="black"/>
</g>
<defs>
<clipPath id="clip0_112_1304">
<rect width="48" height="30" fill="white"/>
</clipPath>
</defs>
</svg>
