<svg width="84" height="10" viewBox="0 0 84 10" fill="none" xmlns="http://www.w3.org/2000/svg">
<g clip-path="url(#clip0_112_1360)">
<path fill-rule="evenodd" clip-rule="evenodd" d="M10.9823 6.48467L10.4855 8.86697H8.31389C8.47894 8.07839 8.64441 7.2328 8.83201 6.42603C8.87029 6.25093 8.91283 6.07178 8.95324 5.87646C8.95324 5.73816 8.97324 5.60066 8.99578 5.46276C9.07788 4.49909 8.3543 4.32115 7.65327 4.61677C7.23597 4.77408 7.05008 5.04866 6.84632 5.40412C6.65787 5.71915 6.59875 6.01315 6.51324 6.40662L5.97513 8.86697H3.82312L5.08438 3.00323C5.74713 2.98341 6.40775 2.9636 7.07177 2.9454C6.9901 3.31825 6.88631 3.67291 6.8242 4.04657C7.63243 3.12172 8.66271 2.65019 9.86569 2.98341C11.0653 3.29844 11.3154 4.44126 11.1261 5.54081C11.1027 5.87646 11.0653 6.17045 10.9823 6.48467Z" fill="#98272A"/>
<path fill-rule="evenodd" clip-rule="evenodd" d="M50.2299 0.349348H52.3411L50.4583 8.88574H48.5152C48.5964 8.57072 48.6781 8.25731 48.7836 7.93986C48.3888 8.29573 48.0596 8.58972 47.6244 8.78788V7.50837C47.7899 7.47035 47.9575 7.4097 48.1004 7.33246C48.7236 6.95799 48.9678 6.28912 48.9678 5.61984L48.9278 5.28581C48.8874 4.9724 48.7436 4.69499 48.3688 4.53929C48.1647 4.42 47.8728 4.42 47.6244 4.46044V2.94476C47.7474 2.94476 47.8511 2.98358 47.9575 2.98358C48.5564 3.12148 49.0716 3.49676 49.3651 4.06615L50.2299 0.349348ZM47.6244 8.78788C47.4806 8.86673 47.3169 8.90556 47.1267 8.94357C46.5512 9.08106 46.216 9.1211 45.617 8.90556C44.9152 8.66858 44.5646 8.21687 44.2954 7.60704C43.6747 6.1128 44.3549 3.9881 45.8863 3.25979C46.3823 3.02281 47.0229 2.88693 47.6244 2.94476V4.46044C47.4598 4.48025 47.2756 4.53929 47.1493 4.61694C46.797 4.8341 46.5686 5.14831 46.4457 5.52117C46.3028 5.89402 46.216 6.42621 46.3423 6.81887C46.3823 7.01622 46.467 7.15614 46.589 7.2722C46.8783 7.50837 47.2756 7.56701 47.6244 7.50837" fill="#98272A"/>
<path fill-rule="evenodd" clip-rule="evenodd" d="M32.6854 3.08581L32.2515 4.34389C31.6526 4.18779 31.2157 4.10691 30.5968 4.06849C30.4088 4.06849 30.2675 4.04868 30.1233 4.08669C29.686 4.18779 29.4993 4.55983 29.8315 4.83604C30.2437 5.22871 30.969 5.32576 31.4858 5.64159C31.6122 5.72166 31.7555 5.83934 31.8993 5.95702C32.3098 6.56645 32.2515 7.21591 31.8181 7.84676C31.1336 8.80882 29.8315 8.90749 28.6519 8.82864C28.0105 8.78779 27.4719 8.67092 26.8296 8.55324L27.2252 7.13624C28.0105 7.33439 28.5082 7.51192 29.2483 7.43064C29.5822 7.41163 30.0608 7.43064 30.0608 6.99956C29.9762 6.68413 29.6669 6.48678 29.3338 6.3501C28.8395 6.13374 28.301 5.99625 27.9084 5.62178C27.6774 5.30756 27.614 5.0714 27.614 4.67832C27.614 4.28485 27.7412 4.01066 27.9271 3.75387C28.9842 2.31948 31.1574 2.73197 32.6854 3.08581Z" fill="#98272A"/>
<path fill-rule="evenodd" clip-rule="evenodd" d="M20.4174 2.94476L22.6098 2.90594C22.4447 3.63426 22.2776 4.36176 22.1121 5.12769C22.0117 5.61984 21.8041 6.2511 21.9496 6.74163C22.0334 7.01622 22.1321 7.1153 22.4039 7.19334C22.7144 7.29282 23.11 7.23297 23.3576 7.05585C24.1003 6.5455 24.3075 5.69829 24.4934 4.87211L24.9485 2.90594H27.0806L25.7546 8.86714C25.1349 8.88574 24.5134 8.84732 23.8719 8.86714C23.9336 8.53109 24.0182 8.03934 24.1003 7.7049C23.8719 7.90265 23.6873 8.11981 23.4384 8.29573C23.1292 8.53109 22.7553 8.6892 22.3631 8.78788C21.907 8.88574 21.2864 8.88574 20.8517 8.70821C20.3748 8.53109 20.0243 8.11981 19.8376 7.66568C19.59 7.05585 19.6921 6.64417 19.7967 6.01332C19.9613 4.99141 20.1906 3.94847 20.4174 2.94476Z" fill="#98272A"/>
<path fill-rule="evenodd" clip-rule="evenodd" d="M17.9749 0.349348H20.0861L18.1833 8.88574H16.2376C16.3206 8.57072 16.4239 8.25731 16.5052 7.93986C16.1355 8.29573 15.7842 8.58972 15.3694 8.78788V7.50837C15.5357 7.47035 15.6991 7.4097 15.8463 7.33246C16.4435 6.95799 16.6945 6.28912 16.6945 5.61984L16.6707 5.28581C16.6307 4.9724 16.4652 4.69499 16.0964 4.53929C15.8846 4.42 15.5962 4.42 15.3694 4.46044V2.94476C15.4732 2.94476 15.5736 2.98358 15.6991 2.98358C16.2793 3.12148 16.7962 3.49676 17.1067 4.06615L17.9749 0.349348ZM15.3694 8.78788C15.2048 8.86673 15.038 8.90556 14.87 8.94357C14.2945 9.08106 13.9444 9.1211 13.3437 8.90556C12.6576 8.66858 12.2854 8.21687 12.0153 7.60704C11.4138 6.1128 12.1033 3.9881 13.6113 3.25979C14.1073 3.02281 14.7688 2.88693 15.3694 2.94476V4.46044C15.1835 4.48025 15.0189 4.53929 14.87 4.61694C14.5421 4.8341 14.2945 5.14831 14.1681 5.52117C14.0252 5.89402 13.9444 6.42621 14.0643 6.81887C14.1073 7.01622 14.1898 7.15614 14.3319 7.2722C14.625 7.50837 14.9947 7.56701 15.3694 7.50837" fill="#98272A"/>
<path fill-rule="evenodd" clip-rule="evenodd" d="M2.23056 0.349581H4.44383L2.60362 8.86697H0.369507" fill="#98272A"/>
<path fill-rule="evenodd" clip-rule="evenodd" d="M43.2809 6.48467L42.7615 8.86697H40.5691C40.7546 8.07839 40.9405 7.2328 41.1076 6.42603C41.1489 6.25093 41.1923 6.07178 41.2536 5.89708C41.2536 5.73816 41.2536 5.60066 41.2718 5.46276C41.3782 4.49909 40.6074 4.32115 39.9268 4.61677C39.5337 4.79349 39.3478 5.04866 39.1419 5.40412C38.9365 5.71915 38.8727 6.03377 38.811 6.40662L38.2503 8.86697H36.1409L37.3621 3.00323C38.0219 2.98341 38.6889 2.98341 39.3478 2.9454C39.2662 3.31825 39.1815 3.67291 39.0977 4.04657C39.9051 3.12172 40.9405 2.65019 42.14 2.98341C43.3418 3.29844 43.591 4.44126 43.4256 5.56143C43.383 5.87646 43.3418 6.17045 43.2809 6.48467Z" fill="#98272A"/>
<path fill-rule="evenodd" clip-rule="evenodd" d="M34.3819 0.349581H36.6169L34.7767 8.86697H32.5392" fill="#98272A"/>
<path fill-rule="evenodd" clip-rule="evenodd" d="M75.8027 6.54573L75.2867 8.9438H73.0934C73.2589 8.13825 73.4665 7.27243 73.6341 6.48507C73.6707 6.28894 73.7141 6.11303 73.757 5.91528C73.757 5.77738 73.7745 5.63989 73.797 5.49997C73.8817 4.53629 73.1355 4.362 72.4303 4.65478C72.0372 4.81452 71.853 5.0891 71.628 5.44376C71.4391 5.75838 71.3779 6.05439 71.2953 6.44625L70.7538 8.9256H68.6027L69.8465 3.02304C70.5046 3.00323 71.1898 2.98341 71.853 2.964C71.7692 3.33726 71.685 3.71254 71.6037 4.06638C72.3911 3.14153 73.4665 2.6692 74.6469 2.98341C75.8865 3.31866 76.1141 4.48048 75.949 5.58206C75.9265 5.91528 75.8648 6.21009 75.8027 6.54573Z" fill="#98272A"/>
<path fill-rule="evenodd" clip-rule="evenodd" d="M78.287 0.349111H80.4586L79.3407 5.42387L81.5357 2.98335H83.9757L81.4127 5.67905L83.0237 8.90532H80.7057L79.2807 5.77691L78.5971 8.90532H76.4668" fill="#98272A"/>
<path fill-rule="evenodd" clip-rule="evenodd" d="M68.2117 5.77646C68.0253 6.62246 67.8395 7.44864 67.671 8.27563L67.5902 8.94288H65.79L65.9167 8.03865C65.6062 8.33305 65.2731 8.58904 64.9226 8.76697V7.74385C64.9413 7.72403 64.9817 7.72403 65.0221 7.70301C65.2531 7.58613 65.4195 7.50768 65.5415 7.38839C65.8321 7.09479 65.9784 6.64389 66.0984 6.26861H65.79C65.5241 6.26861 65.2106 6.25042 64.9226 6.26861V5.28512C65.3552 5.2463 65.8525 5.2645 66.3472 5.2645C66.3472 4.75213 66.1413 4.36108 65.5828 4.24421C65.3352 4.20377 65.1093 4.20377 64.9226 4.20377V2.9829C66.2677 2.8272 67.6953 3.04275 68.1917 4.20377C68.438 4.79297 68.2963 5.16663 68.2117 5.77646ZM64.9226 8.76697C64.5908 8.92469 64.2169 9.02417 63.8664 9.06137C63.0581 9.13942 62.2112 8.78719 61.8598 8.07788C61.6097 7.684 61.6748 7.25251 61.7748 6.8008C61.8811 6.36809 62.0891 6.13112 62.6226 5.77646C63.3895 5.42343 64.1382 5.30413 64.9226 5.28512V6.26861C64.6112 6.28843 64.3011 6.36809 64.0944 6.5064C63.6813 6.8008 63.5176 7.35159 63.9693 7.684C64.2386 7.86072 64.6112 7.84414 64.9226 7.74385V8.76697ZM64.9226 4.20377C64.6308 4.20377 64.3815 4.22277 64.0535 4.30244C63.6813 4.38008 63.4121 4.49857 63.0581 4.65426L63.3066 3.27891C63.806 3.16204 64.339 3.04275 64.9226 2.9829" fill="#98272A"/>
<path fill-rule="evenodd" clip-rule="evenodd" d="M57.5976 1.03783H58.735C59.7304 1.03783 61.2605 1.17532 61.5464 2.2769C61.6098 2.45402 61.6298 2.62953 61.6298 2.80625V2.82768C61.6298 3.47431 61.3014 4.04613 60.6807 4.44122C60.2447 4.63614 59.8751 4.73522 59.4403 4.8529C60.5552 5.02962 61.2822 5.75794 61.0529 6.91896C60.719 8.53088 59.1281 8.78524 57.5976 8.88553V7.47015C57.6796 7.47015 57.7647 7.44912 57.826 7.42849C59.1072 7.23236 59.3956 5.81617 58.1782 5.5614C57.9889 5.52096 57.806 5.49953 57.5976 5.52096V4.26127C57.846 4.26127 58.1152 4.24145 58.3411 4.20425C59.0256 4.04613 59.9338 3.37807 59.1885 2.62953C58.878 2.31734 58.1352 2.35535 57.5976 2.39417V1.03783ZM55.5289 1.03783H57.5976V2.39417H57.4108L56.9752 4.24145C57.1624 4.24145 57.3925 4.26127 57.5976 4.26127V5.52096C57.3074 5.52096 56.9969 5.5614 56.7076 5.58162L56.2733 7.54698C56.6438 7.52717 57.1432 7.52717 57.5976 7.47015V8.88553C57.4721 8.90535 57.3317 8.90535 57.2019 8.92516H53.8521" fill="#98272A"/>
</g>
<defs>
<clipPath id="clip0_112_1360">
<rect width="84" height="9.09176" fill="white"/>
</clipPath>
</defs>
</svg>
