<svg width="60" height="60" viewBox="0 0 60 60" fill="none" xmlns="http://www.w3.org/2000/svg">
<g clip-path="url(#clip0_112_1307)">
<path d="M29.6777 0H30.0586L30.8496 0.351562L32.2852 0.966797L35.6836 2.43164L37.0312 3.01758L38.1738 3.51562L39.1992 3.95508L41.3672 4.89258L42.5098 5.39062L44.3555 6.18164L45.5566 6.70898L45.8203 6.91406L45.8789 7.06055V23.9355L45.791 24.8438L45.6445 25.6348L45.4395 26.4258L45.1758 27.1875L44.8828 27.8613L44.5898 28.4473L44.1797 29.1211L43.8867 29.5312L43.623 29.8828L43.2715 30.293L43.0078 30.5859L42.4219 31.1719L42.0996 31.4355L41.6602 31.7871L41.1328 32.168L40.1367 32.8711L39.6094 33.252L39.1113 33.6035L38.7012 33.8965L38.1738 34.2773L37.5879 34.6875L37.0898 35.0391L36.5625 35.4199L36.0645 35.7715L35.5371 36.1523L34.541 36.8555L34.0137 37.2363L33.0176 37.9395L32.4902 38.3203L32.0801 38.6133L31.582 38.9648L31.0547 39.3457L30.498 39.7266L30.2051 39.9023L30.1172 39.9316H29.6484L29.3848 39.8145L28.8867 39.4629L28.3594 39.082L27.8027 38.7012L27.334 38.3496L26.7773 37.9688L26.3379 37.6465L25.8398 37.2949L25.3125 36.9141L24.8145 36.5625L24.4043 36.2695L23.9062 35.918L23.3789 35.5371L22.8809 35.1855L22.4707 34.8926L21.9727 34.541L21.4453 34.1602L20.8887 33.7793L20.5371 33.5156L20.0391 33.1641L19.5117 32.7832L18.9551 32.4023L18.6035 32.1387L18.1934 31.8457L17.8125 31.5527L17.4023 31.2012L16.9629 30.791L16.6992 30.5273L16.4941 30.293L16.2305 30L15.791 29.4141L15.498 28.9746L15.2051 28.4766L14.8535 27.8027L14.502 26.9531L14.2676 26.2207L14.0918 25.4883L13.9746 24.8145L13.8867 23.9062V7.06055L14.0039 6.85547L14.2969 6.67969L15.1465 6.29883L15.9082 5.97656L17.2559 5.39062L18.3398 4.92188L19.3652 4.48242L20.7129 3.89648L21.5918 3.51562L23.2324 2.8125L24.375 2.31445L25.2539 1.93359L26.2793 1.49414L27.832 0.820312L28.8574 0.380859L29.5312 0.0878906L29.6777 0Z" fill="#B199C8"/>
<path d="M29.6777 0H30.0586L30.8496 0.351562L32.2852 0.966797L35.6836 2.43164L37.0312 3.01758L38.1738 3.51562L39.1992 3.95508L41.3672 4.89258L42.5098 5.39062L44.3555 6.18164L45.5566 6.70898L45.8203 6.91406L45.8789 7.06055V23.9355L45.791 24.8438L45.6445 25.6348L45.4395 26.4258L45.1758 27.1875L44.8828 27.8613L44.5898 28.4473L44.1797 29.1211L43.8867 29.5312L43.623 29.8828L43.2715 30.293L43.0078 30.5859L42.4219 31.1719L42.0996 31.4355L41.6602 31.7871L41.1328 32.168L40.1367 32.8711L39.6094 33.252L39.1113 33.6035L38.7012 33.8965L38.1738 34.2773L37.5879 34.6875L37.0898 35.0391L36.5625 35.4199L36.0645 35.7715L35.5371 36.1523L34.541 36.8555L34.0137 37.2363L33.0176 37.9395L32.4902 38.3203L32.0801 38.6133L31.582 38.9648L31.0547 39.3457L30.498 39.7266L30.2051 39.9023L30.1172 39.9316H29.6484L29.3848 39.8145L28.8867 39.4629L28.3594 39.082L27.8027 38.7012L27.334 38.3496L26.7773 37.9688L26.3379 37.6465L25.8398 37.2949L25.3125 36.9141L24.8145 36.5625L24.4043 36.2695L23.9062 35.918L23.3789 35.5371L22.8809 35.1855L22.4707 34.8926L21.9727 34.541L21.4453 34.1602L20.8887 33.7793L20.5371 33.5156L20.0391 33.1641L19.5117 32.7832L18.9551 32.4023L18.6035 32.1387L18.1934 31.8457L17.8125 31.5527L17.4023 31.2012L16.9629 30.791L16.6992 30.5273L16.4941 30.293L16.2305 30L15.791 29.4141L15.498 28.9746L15.2051 28.4766L14.8535 27.8027L14.502 26.9531L14.2676 26.2207L14.0918 25.4883L13.9746 24.8145L13.8867 23.9062V7.06055L14.0039 6.85547L14.2969 6.67969L15.1465 6.29883L15.9082 5.97656L17.2559 5.39062L18.3398 4.92188L19.3652 4.48242L20.7129 3.89648L21.5918 3.51562L23.2324 2.8125L24.375 2.31445L25.2539 1.93359L26.2793 1.49414L27.832 0.820312L28.8574 0.380859L29.5312 0.0878906L29.6777 0ZM29.7949 4.33594L28.916 4.7168L26.4551 5.77148L25.3125 6.26953L24.2871 6.70898L22.7344 7.38281L18.8086 9.08203L18.0176 9.43359L17.8711 9.52148V23.2617L17.9297 24.2578L18.0762 25.0195L18.252 25.5762L18.5156 26.1914L18.8086 26.748L19.043 27.0996L19.4531 27.627L20.0977 28.2715L20.5078 28.5938L21.0645 29.0039L22.0605 29.707L22.5879 30.0879L23.584 30.791L23.9062 31.0254L24.4043 31.377L24.7266 31.6113L25.7227 32.3145L26.0449 32.5488L27.041 33.252L27.4512 33.5449L27.9785 33.9258L28.9746 34.6289L29.502 35.0098L29.7656 35.1855L29.7949 35.2148L30 35.1855L30.5566 34.8047L30.9668 34.5117L31.4941 34.1309L32.0508 33.75L32.5195 33.3984L33.0762 33.0176L33.5449 32.666L34.0137 32.3438L34.541 31.9629L35.127 31.5527L35.6543 31.1719L36.6504 30.4688L37.1777 30.0879L37.5879 29.7949L38.584 29.0918L39.1113 28.7109L39.4922 28.418L39.7852 28.1543L40.0195 27.9492L40.2246 27.7441L40.4883 27.4219L40.8398 26.9531L41.2207 26.2793L41.4844 25.6641L41.7188 24.9316L41.8359 24.2578L41.8945 23.291V9.52148L41.6602 9.375L40.957 9.05273L39.5215 8.4375L34.6289 6.32812L33.6914 5.91797L31.7871 5.09766L30.498 4.54102L30 4.33594H29.7949Z" fill="#854B9A"/>
<path d="M56.543 28.2129H57.0703L57.4805 28.3008L57.832 28.4473L58.2129 28.7109L58.5352 29.0332L58.7695 29.4141L58.9453 29.8828L59.0039 30.2637L58.9746 30.7324L58.8574 31.1719L58.5938 31.7871L58.0957 32.8711L57.627 33.9258L57.0703 35.127L56.6016 36.1816L56.0449 37.3828L55.5762 38.4375L55.1953 39.2578L54.8438 40.0195L54.5215 40.6641L54.1406 41.2793L53.7891 41.7773L53.3789 42.2754L53.0566 42.627L45.7324 49.9512L46.2305 50.0098L46.5234 50.127L46.7871 50.3613L46.9629 50.7129L46.9922 50.8301V59.1504L46.9043 59.4141L46.7285 59.6777L46.5234 59.8535L46.2012 60H34.7461L34.3945 59.7949L34.248 59.6484L34.0723 59.4141L34.0137 59.2383L33.9844 58.9453V50.918L34.043 50.6543L34.1602 50.4199L34.3066 50.2441L34.5996 50.0684L34.7461 50.0098L35.9766 49.9805L36.0059 46.3184L36.123 45.3809L36.2695 44.6777L36.5332 43.8281L36.8262 43.0957L37.0898 42.5391L37.4414 41.9531L37.6758 41.6016L38.0273 41.1328L38.291 40.8105L38.4375 40.6348H38.4961L38.5547 40.5176L38.9062 40.1953L39.375 39.8438L39.7852 39.5801L40.3418 39.2871L41.3086 38.877L42.1582 38.4668L42.9492 38.0566L43.7402 37.5879L44.2969 37.2363L44.8535 36.8555L45.4102 36.4453L45.791 36.1523L46.1133 35.8887L46.4941 35.5664L46.9043 35.2148L47.373 34.8926L47.8418 34.6582L48.2812 34.5117L48.7793 34.4238H49.5996L50.2148 34.541L50.7422 34.6875L51.2109 34.9512L51.5918 35.2441L52.0312 35.6543L52.1191 35.7129L52.1484 35.5664L52.4707 34.9219L52.8516 34.043L54.7852 29.5312L54.9609 29.209L55.166 28.9453L55.3125 28.7988L55.5469 28.5938L55.8984 28.3887L56.3379 28.2422L56.543 28.2129ZM43.2129 49.9512V49.9805H44.9121V49.9512H43.2129Z" fill="#FBD4AD"/>
<path d="M2.90039 28.2129H3.45703L3.95508 28.3301L4.30664 28.5059L4.62891 28.7402L4.86328 28.9746L5.06836 29.2676L5.30273 29.7363L5.71289 30.7031L6.76758 33.1641L7.14844 34.043L7.5 34.8633L7.82227 35.5371L7.93945 35.7422L8.14453 35.5664L8.52539 35.1855L8.99414 34.8633L9.46289 34.6289L10.0195 34.4824L10.4004 34.4238H11.25L11.8066 34.541L12.3047 34.7168L12.8613 35.0391L13.2422 35.3613L13.5645 35.625L13.9746 35.9766L14.3848 36.2988L14.8535 36.6504L15.4395 37.0605L15.791 37.2949L16.3477 37.6465L17.1094 38.0859L17.959 38.5254L18.75 38.9062L19.5703 39.2578L20.0391 39.4922L20.4492 39.7266L20.8887 40.0488L21.2695 40.3711L21.7676 40.8691L22.0898 41.2793L22.4414 41.7773L22.793 42.3633L23.1152 42.9785L23.4082 43.6816L23.6426 44.3848L23.8184 45.1465L23.9355 45.8789L23.9941 46.6113V49.9512L24.1699 49.9805L25.1953 50.0098L25.5176 50.127L25.7812 50.3613L25.9277 50.5957L25.9863 50.8008V59.209L25.8691 59.502L25.6055 59.7949L25.1953 60H13.7695L13.3887 59.7949L13.1836 59.5898L13.0371 59.2969L13.0078 59.209L12.9785 58.7109V51.2109L13.0078 50.7422L13.1836 50.3906L13.418 50.1562L13.6523 50.0391L13.9453 49.9805H14.209L14.2969 50.0098V49.9512L14.1797 49.8926L13.9453 49.6582L13.7402 49.4238L6.70898 42.3926L6.44531 42.0703L6.09375 41.6309L5.68359 41.0156L5.33203 40.4004L4.92188 39.5508L4.45312 38.4961L4.07227 37.6758L3.80859 37.0898L3.33984 36.0645L2.90039 35.0977L2.63672 34.5117L2.08008 33.2812L1.61133 32.2559L1.20117 31.3477L1.02539 30.8203L0.996094 30.6445V30.1758L1.11328 29.6484L1.31836 29.2383L1.52344 28.9746L1.66992 28.7988L2.05078 28.5059L2.43164 28.3301L2.90039 28.2129Z" fill="#FBD4AD"/>
<path d="M13.9453 49.9805L17.6074 50.0098H20.3027L24.3164 49.9805L25.1953 50.0098L25.5176 50.127L25.7812 50.3613L25.9277 50.5957L25.9863 50.8008V59.209L25.8691 59.502L25.6055 59.7949L25.1953 60H13.7695L13.3887 59.7949L13.1836 59.5898L13.0371 59.2969L13.0078 59.209L12.9785 58.7109V51.2109L13.0078 50.7422L13.1836 50.3906L13.418 50.1562L13.6523 50.0391L13.9453 49.9805Z" fill="#40787F"/>
<path d="M34.7461 50.0098H46.2305L46.5234 50.127L46.7871 50.3613L46.9629 50.7129L46.9922 50.8301V59.1504L46.9043 59.4141L46.7285 59.6777L46.5234 59.8535L46.2012 60H34.7461L34.3945 59.7949L34.248 59.6484L34.0723 59.4141L34.0137 59.2383L33.9844 58.9453V50.918L34.043 50.6543L34.1602 50.4199L34.3066 50.2441L34.5996 50.0684L34.7461 50.0098Z" fill="#40787F"/>
<path d="M36.5039 12.6855H36.9727L37.2656 12.8027L37.5586 13.0664L37.7051 13.3594L37.7344 13.4766V13.8574L37.6172 14.1504L37.4414 14.4141L37.0605 14.8828L36.8262 15.1758L36.4453 15.6445L36.123 16.0547L35.7422 16.5234L35.4199 16.9336L35.0391 17.4023L34.7168 17.8125L34.3359 18.2812L34.0137 18.6914L33.6328 19.1602L33.3105 19.5703L32.9297 20.0391L32.6074 20.4492L32.2266 20.918L31.9043 21.3281L31.6406 21.6504L31.3184 22.0605L30.9375 22.5293L30.7031 22.8223L30.3809 23.2324L30 23.7012L29.7656 23.9941L29.4434 24.4043L29.0625 24.873L28.8281 25.166L28.5059 25.5762L28.2715 25.8398L27.9199 26.0449L27.832 26.0742H27.3633L26.9531 25.8691L26.4551 25.4883L25.0488 24.4336L24.4922 24.0234L22.9688 22.8809L22.4707 22.5L22.1777 22.207L22.0312 21.8848V21.4746L22.1484 21.1816L22.3535 20.918L22.6172 20.7422L22.7637 20.6836H23.2324L23.4961 20.8008L23.8184 21.0059L24.1699 21.2695L24.7852 21.7383L25.3418 22.1484L25.9277 22.5879L26.4844 22.998L26.9824 23.3789L27.3047 23.6133L27.4512 23.6719L27.8613 23.1738L28.1836 22.7637L28.5645 22.2949L28.7988 22.002L29.1211 21.5918L29.502 21.123L29.7363 20.8301L30.0586 20.4199L30.4395 19.9512L30.6738 19.6582L30.9961 19.248L31.377 18.7793L31.6113 18.4863L31.9336 18.0762L32.3145 17.6074L32.5488 17.3145L32.8711 16.9043L33.252 16.4355L33.4863 16.1426L33.8086 15.7324L34.1895 15.2637L34.4238 14.9707L34.7461 14.5605L35.127 14.0918L35.4492 13.6816L35.8301 13.2129L36.0352 12.9785L36.2695 12.7734L36.5039 12.6855Z" fill="#3C334B"/>
<path d="M50.4199 34.6289L50.6543 34.6582L51.123 34.8926L51.5918 35.2441L52.0312 35.6543L52.0898 35.7422L52.0605 35.8887L51.8848 36.2109L51.6211 36.6211L51.416 36.9434H51.3574L51.2988 37.0898L51.123 37.3242L51.0645 37.4121H51.0059L50.9473 37.5293L50.625 37.9395L50.1855 38.3789L50.127 38.4668H50.0684L50.0391 38.5547L49.8926 38.7012H49.834L49.7754 38.8184H49.7168L49.6582 38.9355L49.4824 39.082L49.4238 39.1699H49.3652L49.3066 39.2871H49.248V39.3457H49.1895V39.4043H49.1309L49.0723 39.5215H49.0137L48.9551 39.6387H48.8965L48.8379 39.7559L48.6621 39.9023L48.4863 40.1074L48.3105 40.2539L48.252 40.3418H48.1934L48.1348 40.459H48.0762V40.5176H48.0176V40.5762H47.959V40.6348H47.9004V40.6934L47.666 40.8984L47.5488 41.0449L47.3438 41.2207L47.1973 41.3965L46.9922 41.5723L46.8457 41.748L46.6113 41.9531L46.4941 42.0996L46.2891 42.2754L46.1426 42.4512L46.0254 42.5684H45.9668L45.9082 42.6855H45.8496L45.791 42.8027H45.7324L45.6738 42.9199L45.3223 43.1836L45.0586 43.2715H44.6777L44.3262 43.125L44.1797 42.9785L43.9746 42.7441L43.8867 42.5098V41.9824L44.0625 41.6602L44.209 41.4844L44.3262 41.3672H44.3848L44.4434 41.25L44.5605 41.1328H44.6191L44.6777 41.0156L44.8535 40.8691L45.0293 40.6641L45.2051 40.5176L45.3516 40.3418L45.5566 40.166L45.7031 39.9902L45.9082 39.8145L46.0547 39.6387L46.2598 39.4629L46.4062 39.2871L46.6113 39.1113L46.7578 38.9355L46.9629 38.7598L47.1094 38.584L47.3145 38.4082L47.4609 38.2324L47.6953 38.0273L47.8125 37.8809L48.0469 37.6758L48.3691 37.3535L48.5156 37.1777L48.75 36.9727L48.8672 36.8262L49.0137 36.6797L49.1895 36.4746H49.248V36.416H49.3066L49.3359 36.2988H49.3945L49.4531 36.1523L49.7754 35.7715L50.0977 35.2441L50.2734 34.9512L50.4199 34.6289Z" fill="#F19678"/>
<path d="M9.46289 34.6289L9.66797 34.6582L9.78516 34.9219L10.0488 35.3906L10.2832 35.7422L10.5469 36.0938L10.7812 36.3867L11.1328 36.7676L11.25 36.8848V36.9434H11.3086L11.5137 37.1777L12.0117 37.6758L12.2461 37.8809L12.4219 38.0859L12.5977 38.2324L12.7734 38.4375L12.832 38.4668V38.5254H12.8906V38.584H12.9492V38.6426L13.0664 38.7012L13.0957 38.7891L13.2129 38.8477L15.9082 41.543L16.084 41.8066L16.2012 42.0996V42.4805L16.084 42.7441L15.9082 43.0078L15.6445 43.1836L15.3809 43.2715H15.0293L14.7363 43.1543L14.4141 42.9199L11.8945 40.4004V40.3418L11.7773 40.2832L10.2539 38.7598V38.7012L10.1367 38.6426L9.90234 38.4082V38.3496L9.78516 38.291L9.58008 38.0566L9.49219 37.9688V37.9102H9.43359L9.19922 37.5879L8.87695 37.1777L8.58398 36.7676L8.29102 36.3281L7.99805 35.8594V35.7129L8.52539 35.1855L8.99414 34.8633L9.46289 34.6289Z" fill="#F19678"/>
<path d="M20.918 53.9941H21.9727L22.3828 54.082L22.6465 54.2578L22.8809 54.5215L22.9688 54.7266L22.998 54.873V55.1367L22.8809 55.459L22.6758 55.7227L22.4414 55.8984L22.1484 55.9863L21.9727 56.0156H21.0645L20.6543 55.9277L20.3613 55.752L20.1562 55.5469L20.0098 55.1953V54.7852L20.1562 54.4336L20.4199 54.1699L20.6543 54.0527L20.918 53.9941Z" fill="#343C4F"/>
<path d="M37.9395 53.9941H38.9941L39.375 54.082L39.668 54.2578L39.8438 54.4629L39.9609 54.6973L39.9902 54.7852V55.1953L39.873 55.459L39.6973 55.6934L39.4922 55.8691L39.1699 55.9863L38.9648 56.0156H38.2617L37.7344 55.957L37.3828 55.7812L37.1484 55.5176L37.0312 55.2539L37.002 55.1367V54.7852L37.1191 54.5215L37.2363 54.3457L37.4707 54.1406L37.7637 54.0234L37.9395 53.9941Z" fill="#343C4F"/>
</g>
<defs>
<clipPath id="clip0_112_1307">
<rect width="60" height="60" fill="white"/>
</clipPath>
</defs>
</svg>
