<svg width="55" height="55" viewBox="0 0 55 55" fill="none" xmlns="http://www.w3.org/2000/svg">
<g clip-path="url(#clip0_112_1086)">
<path d="M3.9209 0H27.2583L27.3657 0.0537109L27.9565 0.214844L28.3057 0.349121L28.7354 0.563965L29.165 0.83252L29.5142 1.12793L29.8364 1.42334L30.1318 1.77246L30.4004 2.17529L30.6152 2.55127L30.8301 3.08838L30.9644 3.57178L31.0449 4.10889L31.0718 4.75342V15.4956L31.0449 16.1133H44.9829L45.2783 16.167L45.4663 16.2744L45.6006 16.4087L45.7617 16.6504L45.8154 16.8652L45.7886 17.1606L45.6274 17.4561L45.4126 17.644L45.2246 17.7246L45.0635 17.7515H13.75L13.7231 37.2485L14.4482 37.2217H18.3423L18.7988 37.2485L19.1211 37.4097L19.2822 37.5977L19.3896 37.8125L19.4165 37.8931V38.2153L19.3091 38.457L19.1211 38.6987L18.8525 38.833L18.7451 38.8599L18.0469 38.8867H14.5288L12.7295 38.8599L12.5146 38.7793L12.2461 38.5376L12.1118 38.269L12.085 38.1348V16.8384L12.1655 16.5698L12.3535 16.3281L12.5415 16.1938L12.6758 16.1401L12.8638 16.1133H25.9692V9.13086H11.6553L11.3867 9.05029L11.1719 8.88916L11.0645 8.75488L10.957 8.51318L10.9302 8.27148L11.0107 7.94922L11.1719 7.73438L11.3867 7.57324L11.6016 7.49268H26.8555L27.0972 7.54639L27.2852 7.65381L27.4194 7.78809L27.5537 7.97607L27.6074 8.13721V16.1133H29.4336L29.4067 15.7642L29.3799 4.21631L29.2725 3.6792L29.1113 3.27637L28.8965 2.90039L28.7085 2.65869L28.4668 2.39014L28.064 2.09473L27.6074 1.85303L27.1777 1.71875L26.8555 1.66504L26.4795 1.63818H4.56543L4.05518 1.69189L3.65234 1.79932L3.1958 2.01416L2.87354 2.229L2.60498 2.4707L2.41699 2.65869L2.17529 3.00781L1.96045 3.41064L1.82617 3.81348L1.74561 4.21631V50.7837L1.82617 51.1865L1.96045 51.5894L2.12158 51.9116L2.36328 52.2607L2.60498 52.5293L2.84668 52.7441L3.22266 52.9858L3.62549 53.1738L4.00146 53.2812L4.4043 53.335H26.7749L27.2314 53.2544L27.6343 53.1201L28.0908 52.8784L28.4399 52.6099L28.7085 52.3413L28.7354 52.2876H28.7891L28.8428 52.1802L29.0845 51.7773L29.2725 51.3208L29.3799 50.7837L29.4067 38.8599L27.6343 38.8867L27.6074 44.5532L27.4463 44.8755L27.3389 45.0098L27.0972 45.144L26.748 45.1978H4.24316L3.97461 45.1172L3.75977 44.9561L3.59863 44.7412L3.51807 44.4995V8.16406L3.62549 7.89551L3.81348 7.68066L4.08203 7.51953L4.18945 7.49268H8.62061L8.83545 7.54639L9.104 7.70752L9.26514 7.92236L9.3457 8.13721V8.51318L9.18457 8.83545L8.96973 9.02344L8.75488 9.104L8.54004 9.13086H5.15625V43.5596H25.9692V38.8599L22.0752 38.8867L21.6187 38.8599L21.2964 38.6987L21.1353 38.5107L21.0278 38.2959L21.001 38.2153V37.9199L21.1084 37.6245L21.2964 37.4097L21.5918 37.2485L21.8604 37.2217H50.8643L53.2812 37.2485V17.7515H48.0176L47.6953 17.5903L47.5073 17.3755L47.3999 17.1338L47.373 16.8921L47.4268 16.6504L47.5073 16.4893L47.6685 16.3013L47.9639 16.1401L48.125 16.1133H54.1138L54.4092 16.167L54.624 16.3013L54.812 16.5161L54.8926 16.6772L54.9194 16.8115V38.1885L54.8389 38.4033L54.6777 38.645L54.5166 38.7793L54.2749 38.8599L53.2544 38.8867H45.7349L31.0718 38.8599V50.1123L31.0449 50.8911L30.9644 51.4014L30.8301 51.9116L30.6152 52.4219L30.4004 52.8247L30.1587 53.1738L29.917 53.4692L29.8633 53.5498H29.8096L29.7559 53.6572L29.6484 53.7109V53.7646H29.5947V53.8184L29.2188 54.1138L28.8159 54.3823L28.3862 54.5972L28.0103 54.7583L27.3389 54.9463L27.0972 55H4.02832L3.22266 54.7852L2.79297 54.624L2.229 54.3286L1.85303 54.0601L1.47705 53.7378L1.23535 53.4961L0.939941 53.1201L0.671387 52.7173L0.456543 52.2876L0.29541 51.8848L0.161133 51.3745L0.0805664 50.8105V4.21631L0.161133 3.62549L0.29541 3.11523L0.456543 2.68555L0.698242 2.229L0.913086 1.90674L1.18164 1.55762L1.34277 1.36963H1.39648L1.4502 1.26221L1.66504 1.07422L2.12158 0.725098L2.57812 0.456543L3.08838 0.241699L3.62549 0.0805664L3.89404 0.0268555L3.9209 0Z" fill="#1B1B1B"/>
<path d="M18.1274 18.7988H48.9038L49.1455 18.8794L49.3604 19.0405L49.5215 19.2822L49.6021 19.6582L49.6558 20.0879L49.8169 20.4907L50.0049 20.7861L50.2734 21.0547L50.6226 21.2695L50.8911 21.377L51.106 21.4307L51.5894 21.4844L51.8311 21.5649L52.0728 21.7529L52.207 21.9678L52.2607 22.1558V32.8174L52.1533 33.1128L51.9116 33.3813L51.6431 33.4888L51.0522 33.5693L50.6494 33.7036L50.3271 33.8916L50.2197 33.999H50.166V34.0527L50.0317 34.187L49.8438 34.4556L49.7363 34.6704L49.6289 35.0195L49.5752 35.5566L49.4678 35.7983L49.2529 36.04L49.0381 36.1475L48.9575 36.1743L48.6621 36.2012H18.2349L17.9395 36.1475L17.6978 35.9863L17.5098 35.7446L17.4292 35.5029L17.4023 35.127L17.2949 34.7241L17.0801 34.2944L16.7847 33.9722L16.5161 33.7842L16.167 33.623L15.791 33.5425L15.3345 33.4888L15.1196 33.3813L14.9585 33.2471L14.8242 33.0591L14.7437 32.7637V22.1826L14.8511 21.8872L15.0391 21.6724L15.1733 21.5649L15.3882 21.4844L16.0059 21.4038L16.3281 21.2964L16.6235 21.1353L16.8921 20.9204L16.9189 20.8667H16.9727L17.0264 20.7593L17.2144 20.4639L17.3486 20.1147L17.4023 19.8193L17.4292 19.4702L17.5635 19.1479L17.7515 18.96L17.9932 18.8257L18.1274 18.7988ZM18.96 20.437L18.772 21.001L18.5303 21.4575L18.2617 21.8335L17.9932 22.1289L17.6978 22.3706L17.4292 22.5586L16.9189 22.8271L16.4355 22.9883L16.3818 23.0688V31.958L17.0532 32.2266L17.5366 32.4951L17.8052 32.71L18.0737 32.9517L18.3154 33.2202L18.584 33.623L18.7988 34.0527L18.96 34.5361L18.9868 34.563H48.0176L48.125 34.3213L48.2861 33.8916L48.5278 33.4619L48.7695 33.1396L49.0918 32.7905L49.4678 32.4951L49.8975 32.2534L50.2734 32.0923L50.5957 31.9849L50.6226 31.958V23.0151L50.0854 22.8271L49.5752 22.5586L49.2529 22.3169L48.9844 22.0752L48.7964 21.8872L48.501 21.4844L48.313 21.1621L48.125 20.6787L48.0444 20.437H18.96Z" fill="#1B1B1B"/>
<path d="M32.9785 21.2427H33.999L34.7778 21.3501L35.3955 21.5112L36.1475 21.8066L36.7114 22.1021L37.2217 22.4512L37.5171 22.6929L37.7856 22.9346L38.0273 23.1494L38.2153 23.3643L38.4839 23.6865L38.7793 24.1162L39.021 24.519L39.3164 25.1367L39.4775 25.5664L39.6655 26.3184L39.7461 26.8555L39.7729 27.2583V27.7148L39.7192 28.3594L39.585 29.0308L39.4238 29.5679L39.2627 29.9707L39.0747 30.3735L38.8599 30.7495L38.6719 31.0449L38.4302 31.3672L38.1079 31.7432L37.9736 31.9043L37.7588 32.0923L37.4634 32.3608L37.0605 32.6562L36.4966 33.0054L35.8789 33.3008L35.2344 33.5156L34.6704 33.6499L34.1333 33.7305L33.8379 33.7573H33.1665L32.4683 33.6768L31.8774 33.5425L31.4209 33.4082L30.8569 33.1665L30.4272 32.9517L29.9976 32.6831L29.5679 32.3608L29.1919 32.0386L28.9233 31.77L28.6816 31.4746L28.4131 31.1523L28.0908 30.6421L27.7686 30.0244L27.5537 29.4604L27.3926 28.8965L27.2583 28.0908L27.2314 27.7417V27.2852L27.2852 26.6943L27.3926 26.1035L27.5537 25.5396L27.7417 25.0293L27.9565 24.5728L28.3325 23.9551L28.7085 23.4717L28.8965 23.2568L29.0576 23.0688L29.2725 22.8809L29.541 22.6392L29.9707 22.3169L30.5078 21.9946L30.9375 21.7798L31.6089 21.5112L32.2534 21.3501L32.9785 21.2427ZM33.0591 22.8809L32.4146 22.9883L31.9849 23.1226L31.582 23.2837L31.0718 23.5522L30.5884 23.9014L30.2393 24.2236L29.8901 24.5996L29.5947 25.0293L29.353 25.459L29.1382 25.9692L29.0039 26.4258L28.8965 27.0435V27.9565L29.0039 28.5742L29.165 29.1113L29.3799 29.5947L29.6216 30.0244L29.8633 30.3467L30.1855 30.7227L30.5615 31.0718L30.9644 31.3672L31.3672 31.6089L31.7969 31.7969L32.3608 31.9849L32.9517 32.0923L33.3545 32.1191H33.7036L34.2139 32.0654L34.6167 31.9849L35.1538 31.8237L35.6372 31.6089L36.1206 31.3135L36.4697 31.0449L36.792 30.7495L36.98 30.5615L37.2217 30.2661L37.5171 29.8096L37.7319 29.3799L37.8931 28.9771L38.0273 28.4668L38.1079 27.9834L38.1348 27.3926L38.0811 26.8018L37.9468 26.1841L37.7588 25.6738L37.5439 25.2441L37.3291 24.8682L36.98 24.4385L36.7383 24.1699L36.5234 23.9819L36.0669 23.6328L35.6104 23.3643L34.9658 23.0957L34.3213 22.9346L33.9185 22.8809H33.0591Z" fill="#1B1B1B"/>
<path d="M15.3076 46.1108H15.791L16.2207 46.1646L16.6504 46.2988L17.0801 46.4868L17.4023 46.7017L17.6709 46.9165L17.9932 47.2388L18.2886 47.6685L18.4766 48.0444L18.6108 48.4473L18.6914 48.8232V49.6826L18.584 50.166L18.4229 50.5957L18.208 50.9717L17.9932 51.2671L17.7783 51.5088H17.7246V51.5625L17.2681 51.9116L16.8384 52.1265L16.4087 52.2876L15.8716 52.395H15.2271L14.6899 52.2876L14.2603 52.1265L13.9111 51.9385L13.6157 51.7236L13.2935 51.4282L13.0786 51.1865L12.8101 50.7837L12.6221 50.3809L12.4878 49.9512L12.4341 49.6289V48.877L12.5684 48.2593L12.7832 47.7759L13.0518 47.3462L13.4546 46.9165L13.8306 46.6211L14.2603 46.3794L14.7168 46.2183L15.0928 46.1377L15.3076 46.1108ZM15.5225 47.749L15.1465 47.8027L14.8242 47.937L14.502 48.1787V48.2324H14.4482L14.2603 48.501L14.126 48.8232L14.0723 49.0381V49.4678L14.1528 49.79L14.3408 50.1392L14.5825 50.4077L14.8779 50.5957L15.1465 50.7031L15.4419 50.7568H15.7104L15.979 50.7031L16.3013 50.5688L16.5967 50.354L16.8115 50.1123L16.9995 49.7363L17.0532 49.5215V48.9844L16.9189 48.5815L16.731 48.2861L16.5161 48.0713L16.1401 47.8564L15.8716 47.7759L15.5225 47.749Z" fill="#1B1B1B"/>
<path d="M15.2539 3.81348H19.6313L19.8999 3.9209L20.1147 4.10889L20.249 4.32373L20.3027 4.51172V4.72656L20.2222 4.96826L20.061 5.20996L19.8193 5.37109L19.6582 5.4248L19.4165 5.45166H15.3613L15.0928 5.37109L14.9316 5.26367L14.7168 5.02197L14.6362 4.83398L14.6094 4.59229L14.6899 4.27002L14.8779 4.02832L15.0122 3.9209L15.2539 3.81348Z" fill="#1B1B1B"/>
<path d="M11.4673 3.81348H13.2666L13.5352 3.9209L13.75 4.10889L13.9111 4.43115L13.938 4.67285L13.8843 4.8877L13.7769 5.10254L13.562 5.31738L13.4009 5.39795L13.1055 5.45166H11.5747L11.2256 5.34424L10.9839 5.10254L10.8496 4.83398V4.45801L10.957 4.1626L11.1719 3.94775L11.4673 3.81348Z" fill="#1B1B1B"/>
<path d="M0.0268555 5.12939H0.0537109V49.6289H0.0268555V5.12939Z" fill="#1B1B1B"/>
</g>
<defs>
<clipPath id="clip0_112_1086">
<rect width="55" height="55" fill="white"/>
</clipPath>
</defs>
</svg>
