<svg width="100" height="100" viewBox="0 0 100 100" fill="none" xmlns="http://www.w3.org/2000/svg">
<path d="M74.5605 55.127H79.541L80.0781 55.2246L80.5176 55.4688L80.7617 55.6641L81.0547 56.1035L81.25 56.6406L81.6895 59.3262L81.9336 60.1074L82.3242 60.791L82.4219 60.9863L82.6172 61.084L83.0078 61.4258L83.5938 61.7676L84.4238 62.0117H85.498L86.2305 61.8164L87.0117 61.377L88.2324 60.5469L88.9648 60.0586L89.5996 59.8145H90.2832L90.8691 60.0586L91.5039 60.5957L94.4336 63.5254V63.623H94.5312L94.9707 64.3066L95.0684 64.6484V65.1855L94.8242 65.8203L94.2871 66.6016L93.7012 67.3828L93.1641 68.1641L92.8711 68.6523L92.627 69.3359L92.5781 69.6289V70.5566L92.7734 71.2402L93.1641 72.0215L93.5059 72.4121L93.9453 72.8027L94.4336 73.0957L95.3613 73.3887L97.6074 73.8281L98.1934 74.0234L98.584 74.3164L98.9258 74.707L99.1211 75.1953L99.1699 75.4395V80.4688L99.0234 81.0547L98.7305 81.4941L98.4863 81.7383L98.1934 81.9336L97.4609 82.1289L95.0684 82.5195L94.3359 82.7148L93.7012 83.0566L93.4082 83.3008H93.3105V83.3984L93.1152 83.5938H93.0176L92.9199 83.7891L92.627 84.2773L92.3828 84.9121L92.2852 85.3516L92.2363 85.9375L92.334 86.6211L92.5293 87.1582L92.8223 87.7441L94.2383 89.8438L94.4824 90.4297L94.5312 90.8691L94.3848 91.4551L94.0918 91.9434L93.8965 92.1875H93.7988L93.7012 92.3828H93.6035L93.5059 92.5781L93.3105 92.6758L93.2129 92.8711H93.1152L93.0176 93.0664H92.9199V93.1641H92.8223V93.2617H92.7246V93.3594H92.627V93.457H92.5293V93.5547H92.4316V93.6523H92.334V93.75H92.2363V93.8477H92.1387V93.9453H92.041V94.043H91.9434V94.1406H91.8457V94.2383H91.748V94.3359H91.6504V94.4336H91.5527V94.5312H91.4551V94.6289H91.3574V94.7266L91.0156 95.0195L90.7715 95.2637L90.332 95.6543L89.8926 95.8496L89.6484 95.8984H89.0625L88.623 95.752L87.9395 95.3125L87.0117 94.6289L86.1816 94.1406L85.5469 93.9453L85.3027 93.8965H84.375L83.6426 94.0918L82.9102 94.4824L82.3242 95.0195L81.9824 95.5078L81.7383 96.0449L81.543 96.7773L81.25 98.5352L81.0547 99.1211L80.7617 99.5117H80.6641V99.6094L80.2246 99.8535L80.0293 99.9023V100H74.1211V99.9023L73.7305 99.707L73.291 99.2676L73.0469 98.7793L72.8027 97.6562L72.5098 96.1914L72.2656 95.4102L71.9727 94.8242L71.4355 94.2383L71.0449 93.9453L70.459 93.6523L70.0195 93.5059L69.7754 93.457H68.6035L67.9688 93.6523L67.2363 94.043L65.3809 95.4102L64.6973 95.8008L64.3555 95.8984H63.7695L63.2812 95.752L62.7441 95.3613L59.4727 92.0898L59.082 91.5039L58.9355 91.0156L58.9844 90.3809L59.2285 89.7949L59.7656 89.0137L60.6445 87.6953L61.0352 86.9141L61.1816 86.2305V85.6934L61.1328 85.1562L60.8887 84.4238L60.498 83.7402L60.2539 83.4961V83.3984L60.0586 83.3008L59.668 83.0078L59.082 82.7148L58.1055 82.4707L55.9082 82.1289L55.2734 81.9336L54.834 81.6406L54.4922 81.2012L54.3457 80.8594L54.2969 80.6152L54.248 79.7852V75.8301L54.3457 75.0977L54.6387 74.5117L54.9805 74.1699L55.4688 73.9258L56.4941 73.6816L58.252 73.3398L59.082 73.0469L59.6191 72.7051L60.0098 72.3633L60.0586 72.2656H60.1562L60.2539 72.0703L60.6445 71.3379L60.8398 70.6055L60.8887 70.0684L60.791 69.2871L60.5469 68.6523L60.2051 68.0176L58.8379 66.1621L58.4473 65.4785L58.3984 65.332V64.5508L58.5938 64.0625L58.9355 63.623L59.1797 63.3789L59.4727 63.0371L59.8145 62.7441L60.791 61.7676L61.0352 61.4746L61.3281 61.2305L61.6211 60.8887L61.8164 60.6934H61.9141L62.0117 60.498L62.5 60.1074L62.9883 59.8633L63.1836 59.8145H63.8672L64.4531 60.0586L65.625 60.8398L66.1133 61.1816L67.1387 61.8652L67.8711 62.2559L68.6523 62.4512H69.3848L70.1172 62.3047L70.8984 61.9141L71.4355 61.5234L71.7285 61.1816L72.0703 60.6445L72.3633 59.7656L72.998 56.5918L73.1934 56.0547L73.4863 55.6641L73.8281 55.3711L74.3164 55.1758L74.5605 55.127ZM76.1719 58.6426L75.7324 60.791L75.4395 61.6699L74.9512 62.6953L74.5605 63.2324L74.1699 63.7207L74.0234 63.8672V63.9648H73.9258V64.0625L73.7305 64.1602L73.291 64.5508L72.5586 65.0391L71.5332 65.5273L70.7031 65.7715L70.0195 65.918L69.4824 65.9668H68.6523L67.5781 65.8203L66.748 65.5762L65.8691 65.1855L64.9902 64.6484L64.0137 63.9648L63.7695 63.8184L63.5742 63.916L62.4512 65.0391L62.5488 65.2832L63.1348 66.1133L63.5254 66.748L63.8672 67.4316L64.209 68.457L64.3555 69.1895L64.4043 70.2148L64.3066 71.1914L64.1113 72.0215L63.8184 72.8516L63.3789 73.6816L62.8906 74.3652L62.5977 74.707V74.8047H62.5V74.9023H62.4023V75L62.207 75.0977L61.7188 75.5371L60.9375 76.0254L60.2539 76.3672L59.375 76.6602L58.0566 76.9531L57.8125 77.002L57.7637 77.8809V78.8574L59.5703 79.1992L60.4492 79.4922L61.2793 79.8828L62.0605 80.4199L62.793 81.0547L63.3301 81.6895L63.8184 82.4707L64.1602 83.1543L64.502 84.1797L64.6973 85.4004V86.3281L64.5508 87.3047L64.209 88.4277L63.623 89.5508L62.9883 90.4785V90.625L63.0859 90.7715H63.1836V90.8691H63.2812V90.9668L63.4766 91.1621H63.5742L63.6719 91.3574H63.7695V91.4551H63.8672V91.5527L64.1113 91.7969L64.3066 91.8457L65.2344 91.1621L65.9668 90.7227L66.5527 90.4297L67.4316 90.1367L68.1152 89.9902L68.457 89.9414H69.9707L70.8008 90.0879L71.582 90.332L72.168 90.5762L72.9004 90.9668L73.6816 91.5527L74.2188 92.041L74.7559 92.7246L75.1953 93.4082L75.5371 94.0918L75.8301 94.9707L76.1719 96.4844L76.2207 96.5332L77.9785 96.4844L78.0762 96.1914L78.3203 95.166L78.6133 94.3848L79.0527 93.5547L79.3945 93.0664L79.834 92.5293L80.2246 92.1387L80.9082 91.6016L81.543 91.2109L82.373 90.8203L83.3008 90.5273L83.8867 90.4297L84.4727 90.3809H85.3516L86.377 90.5273L87.1582 90.7715L87.7441 91.0156L88.4766 91.4062L89.1113 91.8457L89.3066 91.7969L90.4785 90.625L90.332 90.2832L89.9902 89.7949L89.5508 89.0625L89.1602 88.2324L88.8672 87.207L88.7695 86.6699L88.7207 86.0352V85.498L88.8672 84.4727L89.1602 83.4473L89.5508 82.5684L89.9902 81.8848L90.332 81.4453L90.8691 80.8594L91.3574 80.4199L92.0898 79.9316L92.8711 79.541L93.5059 79.2969L94.5801 79.0527L95.5566 78.9062L95.6543 78.8574V77.0508L95.3613 76.9531L94.2383 76.709L93.457 76.4648L92.6758 76.123L91.9434 75.6836L91.4062 75.2441L90.918 74.8047L90.4297 74.2188L89.8438 73.291L89.4531 72.4121L89.209 71.582L89.0625 70.6055V69.5801L89.209 68.5547L89.4531 67.7734L89.6973 67.1387L90.1855 66.3086L90.5762 65.7227L91.0156 65.1367L90.4297 64.4531H90.332L90.2344 64.2578H90.1367L90.0391 64.0625L89.7461 63.8184L89.3555 64.0137L88.8672 64.3555L88.0371 64.8438L87.0605 65.2344L86.0352 65.4785L85.7422 65.5273H84.1797L83.2031 65.332L82.4707 65.0879L81.4453 64.5996L80.7617 64.1113L80.0781 63.5254L79.4922 62.8418L79.0527 62.1582L78.6621 61.377L78.3203 60.3516L78.0273 58.6426H76.1719Z" fill="#1B1B1B"/>
<path d="M76.3184 68.9453H77.1484L78.4668 69.0918L79.8828 69.5312L80.8105 69.9707L81.4941 70.3613L81.9824 70.752L82.5195 71.1914L83.0078 71.6309L83.5449 72.3145L83.9844 72.9004L84.4727 73.7793L84.7656 74.4141L85.1074 75.4883L85.2539 76.2207L85.3516 77.0996V78.0273L85.2051 79.248L84.9609 80.1758L84.668 81.0059L84.1309 82.0312L83.7891 82.5684L83.252 83.2031L82.8125 83.7402L82.1777 84.2773L81.543 84.7656L80.4688 85.3516L79.9316 85.5957L78.8574 85.9375L78.2715 86.084L76.9531 86.2305H76.4648L75.0977 86.084L74.0723 85.791L73.3398 85.5469L72.2168 84.9609L71.582 84.5215L70.9473 83.9844L70.5078 83.5938L70.0684 83.0566L69.5312 82.373L69.1406 81.6895L68.7012 80.8594L68.2617 79.4434L68.1641 78.8086L68.0664 77.8809V77.3438L68.2129 75.9277L68.6035 74.6094L68.7988 74.0723L69.0918 73.584L69.3848 72.998L69.6289 72.6074H69.7266L69.8242 72.4121L70.3613 71.7285L70.6055 71.4355H70.7031V71.3379L71.2402 70.8984L71.7285 70.5078L72.3633 70.1172L73.1445 69.6777L73.7793 69.4336L75 69.0918L76.3184 68.9453ZM76.123 72.4609L75.3418 72.6074L74.5605 72.9004L73.7793 73.3398L73.0957 73.9258L72.6562 74.4141L72.2168 75.0977L71.875 75.8301L71.6797 76.5137L71.582 77.2949V77.832L71.6797 78.6621L71.9727 79.5898L72.4121 80.4199L72.8027 80.9082L73.2422 81.3965L73.9746 81.9336L74.8047 82.373L75.6348 82.6172L76.416 82.7148H77.002L77.7832 82.6172L78.6133 82.373L79.541 81.8848L80.0293 81.4941L80.5176 81.0547L80.957 80.5176L81.3477 79.834L81.5918 79.248L81.7871 78.5645L81.8359 78.125V77.0508L81.6895 76.2207L81.3965 75.4395L81.0059 74.707L80.3711 73.9258L79.7363 73.3887L79.0039 72.9492L78.3691 72.7051L77.6367 72.5098L77.2949 72.4609H76.123Z" fill="#1B1B1B"/>
<path fill-rule="evenodd" clip-rule="evenodd" d="M19.0594 79.9381L15.7607 81.9229L16.5039 82.666L17.1875 83.252L17.9687 83.8867L18.6035 84.375L19.4824 85.0586L20.7519 86.0352L21.6796 86.6699L24.121 88.2324L25.1464 88.8184L26.0742 89.3066L28.0761 90.332L29.541 90.9668L30.7617 91.5039L32.2265 92.041L33.9355 92.627L36.1328 93.2617L37.5 93.6035L39.3554 93.9941L40.4296 94.1895L43.75 94.6289L45.2148 94.7266L48.1445 94.873L48.5351 94.8242L49.0722 94.6289L49.5117 94.3359L49.8046 93.9453L50 93.4082V92.7734L49.8046 92.2363L49.414 91.7969L48.9746 91.5039L48.4375 91.3574L45.7031 91.2109L43.8964 91.0645L41.1621 90.7227L38.7207 90.2344L37.4511 89.9414L35.0585 89.2578L33.5937 88.7695L31.0546 87.793L30.1269 87.3535L28.7597 86.7188L27.5878 86.1328L25.2441 84.7656L24.3652 84.2285L23.5351 83.6426L22.6074 83.0078L21.875 82.4707V82.373L22.8515 81.8359L23.9746 81.2012L25 80.6641L26.123 80.0293L27.1484 79.4922L28.2714 78.8574L29.2968 78.3203L30.4199 77.6855L31.6894 77.002L33.1054 76.2207L35.3515 75L36.0839 74.5605L36.8164 74.0234L37.4023 73.4375L37.5 73.2422H37.5976L38.0859 72.5586L38.5253 71.8262L38.9648 70.8008L39.2089 69.8242L39.3066 68.9453L39.3554 62.5L39.3066 62.2559L39.0625 61.9141L38.5742 61.2793L37.9394 60.3516L37.4023 59.5215L36.9628 58.8379L36.3769 57.8125L35.8398 56.7383L35.205 55.3711L34.5214 53.6133L34.1308 52.3438L33.6425 50.5371L33.496 50.293L32.666 49.707L32.2265 49.2188L31.9335 48.6816L31.7382 47.9004V41.2598L31.7871 40.8691L31.9335 40.4297L32.3242 39.7461L33.2031 38.8672V28.4668L33.2519 27.3926L33.3984 26.2207L33.6425 25.1953L34.082 23.9746L34.5703 23.0469L34.9121 22.5098L35.5957 21.582L36.4746 20.7031L37.0117 20.2637L37.8418 19.6777L38.5253 19.2871L39.3066 18.8965L40.4785 18.4082L42.1875 17.9199L43.6523 17.627L44.7753 17.4805L46.4843 17.334H49.8535L50.7324 17.3828L52.1484 17.5293L53.9062 17.8223L55.0781 18.1152L56.3964 18.5547L57.666 19.0918L58.6425 19.6289L59.4726 20.2148L60.1562 20.752L60.7421 21.3379L61.1816 21.875L61.621 22.4609L61.9628 22.998L62.5488 24.2188L62.8906 25.1953L63.1835 26.4648L63.33 28.2227V38.8672L63.4277 39.0137L63.7207 39.2578L63.916 39.3555V39.4531L64.3554 39.9414L64.6484 40.5273L64.7949 41.1621V47.8516L64.6484 48.5352L64.3066 49.2188L63.7207 49.8047L62.9882 50.1953L62.207 50.6348V50.7324H62.1093L61.8164 51.123L61.621 51.7578V52.1973L61.6699 52.4414L61.914 52.9297L62.207 53.2715L62.6464 53.5645L63.1347 53.7109L63.8183 53.6621L64.2578 53.5156L65.1855 53.0762L65.9179 52.5879L66.455 52.1484L66.6992 51.8555L67.1386 51.3672L67.6757 50.4883L68.0664 49.5605L68.2617 48.7793L68.3593 47.9492V41.2109L68.3105 40.6738L68.164 39.8926L67.9687 39.3066L67.4804 38.2812L66.8945 37.4512L66.8457 27.2461L66.748 26.3184L66.5527 25.1953L66.2597 24.0723L65.8691 22.9492L65.4296 21.9727L64.7949 20.8496L64.2089 20.0195L63.623 19.2871L63.2812 18.8965L62.6953 18.3105L62.5 18.2129V18.1152L62.0117 17.7246L61.3769 17.2363L60.6933 16.748L59.5214 16.0645L58.6914 15.6738L57.2753 15.0879L55.664 14.5996L54.3945 14.3066L52.9296 14.0625L51.123 13.8672L49.5117 13.7695H47.1191L45.3125 13.8672L43.5546 14.0625L42.1386 14.3066L40.8691 14.5996L39.2578 15.0879L38.0371 15.5762L37.207 15.9668L36.1816 16.5527L35.5468 16.9434L34.6191 17.627L34.1796 18.0176L33.789 18.3594L33.5449 18.6523L33.2519 18.8965L32.9101 19.2871L32.3242 20.0684L31.8359 20.7031L31.2988 21.6309L30.7617 22.7539L30.4199 23.6816L30.1757 24.4629L29.8828 25.6836L29.6875 27.1484L29.6386 37.4512L29.5898 37.5488L29.0527 38.2812L28.6132 39.209L28.3203 40.1367L28.1738 41.2109V47.8027L28.2226 48.291L28.3691 49.1211L28.6621 50L29.0039 50.6836L29.541 51.5137L29.9804 51.9531L30.3222 52.3438H30.4199L30.4687 52.5391L30.7617 53.4668L31.1523 54.7363L31.7871 56.3965L32.5683 58.1543L33.2031 59.375L33.8867 60.5469L34.4726 61.5234L34.8632 62.1582L35.498 63.0371L35.791 63.5254V68.3594L35.6933 69.2871L35.5468 69.7754L35.205 70.5078L34.6679 71.1914L34.3261 71.4355L33.5937 71.9238L32.666 72.4121L31.5429 73.0469L29.9804 73.877L28.8574 74.5117L27.2949 75.3418L26.1718 75.9766L24.707 76.7578L23.5839 77.3926L22.3144 78.0762L20.8984 78.8574L20.0195 79.3457L19.6212 79.5972L19.6225 79.5993L19.526 79.6574L19.0918 79.9316L19.0594 79.9381Z" fill="#1B1B1B"/>
</svg>
