<svg width="40" height="40" viewBox="0 0 40 40" fill="none" xmlns="http://www.w3.org/2000/svg">
<path d="M38.0664 6.66016H20.0586L19.8242 6.71875L19.6094 6.875L19.0234 7.46094L18.8672 7.59766L18.2227 8.24219L18.1836 8.26172V8.30078L18.1055 8.33984L17.3047 9.14062L17.2656 9.16016V9.19922L17.1875 9.23828L16.3867 10.0391L16.3477 10.0586V10.0977L16.2695 10.1367L15.5859 10.8203L15.5469 10.8398V10.8789L15.4688 10.918L14.7461 11.6406L14.5898 11.7773L13.8281 12.5391L13.6719 12.6758L12.9102 13.4375L12.7734 13.7109L12.4219 14.8242L11.3477 18.2617L11.2305 18.6328L11.2109 18.6523L1.875 18.6719L1.66016 18.75L1.46484 18.9258L1.36719 19.1016L1.32812 19.4141V32.3633L1.34766 32.832L1.46484 33.0664L1.62109 33.2227L1.79688 33.3008L1.875 33.3203L29.9023 33.3398L30.1562 33.3203L30.3516 33.2422L30.5273 33.0859L30.625 32.9102L30.6641 32.8125V21.8555L30.5664 21.6211L30.3906 21.4453L30.1953 21.3477L29.9609 21.3281L29.7656 21.3672L29.5898 21.4648L29.4336 21.6406L29.3555 21.7969L29.3359 21.875V31.9922H2.67578V20H16.6016V20.0391L16.4258 20.0977L16.1523 20.2539L15.8789 20.4492L15.6445 20.6641L15.4492 20.8594L15.2539 21.1133L15.0391 21.4648L14.8828 21.7969L14.7656 22.168L14.707 22.4609L14.668 22.8516V23.1055L14.7266 23.5742L14.8438 24.0039L14.9805 24.3164L15.0781 24.5117L15.2344 24.7266L15.4102 24.9219L15.625 25.0781L15.8984 25.2148L16.1719 25.293L16.4453 25.332L16.7969 25.3125L17.168 25.2148L18.457 24.8047L19.9219 24.3359L20.7422 24.043L21.2695 23.7891L21.6602 23.5547L22.1094 23.2422L22.3438 23.0664L22.5977 22.8711L22.9102 22.6367L23.2617 22.3633L23.7305 22.0508L24.0234 21.875L24.5312 21.6016L25.0586 21.3672L25.5859 21.1719L26.1328 21.0156L26.543 20.918L27.1289 20.8203L27.4414 20.7812L28.0664 20.7422L28.5938 20.7227L29.1992 20.6641L29.668 20.5664L30.1367 20.4297L30.625 20.2344L30.9375 20.0781L31.25 19.9023L31.4844 19.7461L31.8164 19.4922L32.0508 19.2773L32.207 19.1406L33.0859 18.3203L33.2812 18.1445L33.5742 17.8711L33.8281 17.6367L34.1406 17.3438L34.2969 17.207L34.9023 16.6406L35.4102 16.1719L35.5859 16.0156L38.1055 15.9961L38.3008 15.9375L38.457 15.8203L38.5742 15.6836L38.6523 15.5078L38.6719 15.4297V15.2344L38.5938 15L38.457 14.8242L38.2617 14.707L38.1445 14.668H35.1953L35 14.7461L34.8047 14.9023L34.4922 15.1953L34.2578 15.4102L33.9648 15.6836L33.2031 16.3867L32.9688 16.6016L32.6562 16.8945L32.4609 17.0703L32.3438 17.168V17.207L32.2656 17.2461L32.1094 17.4023L31.9531 17.5391L31.6211 17.8516L31.3672 18.0859L31.1328 18.3008L30.9375 18.4766L30.6055 18.7109L30.2344 18.9258L29.8438 19.1016L29.4336 19.2383L28.9453 19.3359L28.5547 19.375L27.6367 19.4141L26.875 19.4922L26.2891 19.5898L25.5078 19.7852L24.8047 20.0195L24.3164 20.2148L23.8086 20.4492L23.3789 20.6836L22.9883 20.918L22.5586 21.2109L22.0117 21.6211L21.7188 21.8555L21.3477 22.1289L20.7617 22.5195L20.2344 22.793L19.9609 22.9102L19.2188 23.1445L18.3008 23.4375L17.6953 23.6328L16.7383 23.9453L16.5625 23.9844L16.4062 23.9648L16.2891 23.8867L16.1914 23.7305L16.0938 23.4766L16.0352 23.2031V22.7148L16.1328 22.3047L16.2891 21.9922L16.4453 21.7773L16.6211 21.582L16.875 21.3867L17.168 21.2305L18.5742 20.6445L19.9805 20.0586L20.3711 19.9023L20.5859 19.7656L20.7031 19.6289L23.6914 14.707L23.9258 14.3164L24.0039 14.1016V13.9062L23.9453 13.7109L23.8672 13.5938L23.7891 13.4961L23.6133 13.3789L23.3984 13.3203L23.2031 13.3398L22.7148 13.457L21.2891 13.8086L19.9023 14.1602L18.1641 14.5898L17.7539 14.707L17.5586 14.8242L17.4414 14.9609L17.2852 15.2344L16.8359 16.1328L16.6406 16.5039L16.25 17.2656L15.5664 18.5938L15.5469 18.6523L12.6367 18.6719L12.8125 18.125L13.0859 17.2461L13.4766 15.9961L13.9258 14.5508L14.0234 14.2383L14.1992 14.043L14.5312 13.7305L15.2734 12.9883L15.4297 12.8516L16.0156 12.2656L16.1719 12.1289L16.7383 11.5625L16.8945 11.4258L17.7734 10.5469L17.9297 10.4102L18.7305 9.60938L18.8867 9.47266L19.4531 8.90625L19.6094 8.76953L20.3125 8.06641L20.4102 8.00781L38.1445 7.98828L38.3203 7.92969L38.5156 7.77344L38.6133 7.61719L38.6719 7.44141V7.24609L38.6133 7.05078L38.4961 6.875L38.3594 6.75781L38.1836 6.67969L38.0664 6.66016ZM21.9141 15.0391L21.8164 15.2344L21.543 15.6836L20.9375 16.6797L19.7852 18.5742L19.6875 18.6719H17.0508L17.0703 18.5742L17.2656 18.2031L17.7344 17.2852L18.0078 16.7578L18.2031 16.3867L18.3594 16.0742L18.457 15.8984L18.7305 15.8203L20.0781 15.4883L21.3281 15.1758L21.8555 15.0391H21.9141Z" fill="white"/>
<path d="M12.7148 21.3281H6.64062L6.42578 21.3672L6.23047 21.4844L6.11328 21.6211L6.03516 21.7773L5.99609 21.9727L5.95703 22.3047L5.87891 22.5391L5.76172 22.7539L5.54688 22.9883L5.33203 23.1445L5.05859 23.2617L4.90234 23.3008L4.53125 23.3398L4.33594 23.418L4.17969 23.5352L4.0625 23.7109L4.00391 23.8867V28.1055L4.0625 28.2812L4.17969 28.457L4.31641 28.5742L4.53125 28.6523L5 28.7109L5.25391 28.8086L5.44922 28.9258L5.64453 29.1016L5.78125 29.2773L5.91797 29.5508L5.97656 29.8047L6.01562 30.1562L6.09375 30.332L6.21094 30.4883L6.36719 30.6055L6.62109 30.6641H25.4297L25.625 30.6055L25.7422 30.5273L25.8398 30.4492L25.9766 30.2148L26.0156 29.9219L26.0742 29.6094L26.1719 29.3555L26.3086 29.1602L26.4453 29.0039L26.6406 28.8672L26.8945 28.75L27.1289 28.6914L27.5 28.6523L27.6758 28.5742L27.8516 28.4375L27.9883 28.1641L28.0078 28.0664V23.9062L27.9297 23.6719L27.7539 23.4766L27.5977 23.3789L27.4805 23.3398L27.0117 23.2812L26.7578 23.1836L26.5234 23.0469L26.3672 22.9102L26.1719 22.8125L26.0938 22.793H25.8594L25.6641 22.8516L25.5078 22.9688L25.3906 23.1055L25.3125 23.2812L25.293 23.5156L25.332 23.6914L25.4492 23.8867L25.625 24.0625L25.8789 24.2383L26.1914 24.4141L26.5039 24.5312L26.6602 24.5703V27.4023L26.3281 27.5195L26.0156 27.6758L25.7031 27.8711L25.3906 28.1641L25.2344 28.3398L25.0977 28.5352L24.9414 28.8086L24.7852 29.1797L24.7461 29.3164H7.26562L7.12891 28.9453L6.93359 28.5742L6.69922 28.2617L6.48438 28.0273L6.19141 27.793L5.87891 27.6172L5.56641 27.4805L5.35156 27.4023V24.5898L5.72266 24.4531L6.03516 24.2969L6.28906 24.1211L6.54297 23.9062L6.75781 23.6719L6.89453 23.4766L7.05078 23.2227L7.22656 22.793L7.26562 22.6758L12.8125 22.6562L13.0469 22.5586L13.1445 22.4805L13.2617 22.3047L13.3398 22.1094V21.8945L13.2617 21.6797L13.1445 21.5234L12.9883 21.4062L12.8516 21.3477L12.7148 21.3281Z" fill="white"/>
<path d="M14.2383 24.6484H14.0039L13.7891 24.7266L13.6523 24.8242L13.5156 25.0195L13.418 25.3125L13.3594 25.5859L13.3398 25.7422V26.2305L13.3984 26.6016L13.4961 26.9336L13.6328 27.2266L13.7891 27.5L13.9844 27.7539L14.2773 28.0469L14.5508 28.2422L14.8633 28.418L15.2344 28.5547L15.5664 28.6328L15.7031 28.6523H16.3281L16.7188 28.5742L17.0117 28.4766L17.3242 28.3203L17.5977 28.1445L17.8906 27.8906L18.0859 27.6758L18.2812 27.4023L18.4375 27.1094L18.5547 26.7969L18.6328 26.5039L18.6523 26.3867V26.2109L18.5742 25.957L18.3984 25.7617L18.2422 25.6641L18.1055 25.625H17.8711L17.6758 25.6836L17.5195 25.8008L17.4023 25.9375L17.3242 26.1523L17.2266 26.5039L17.0898 26.7578L16.875 26.9922L16.6602 27.1484L16.3867 27.2656L16.2109 27.3047H15.8008L15.5078 27.2266L15.2539 27.0898L15.0586 26.9336L14.9023 26.7383L14.7656 26.4648L14.6875 26.1328V25.8594L14.7852 25.4297V25.1953L14.707 24.9805L14.5703 24.8047L14.375 24.6875L14.2383 24.6484Z" fill="white"/>
<path d="M10.1172 25.332H8.55469L8.33984 25.4102L8.18359 25.5273L8.06641 25.7031L8.00781 25.8594V26.1328L8.06641 26.2891L8.18359 26.4648L8.33984 26.582L8.47656 26.6406L8.59375 26.6602H10.1172L10.332 26.582L10.4883 26.4648L10.6055 26.2891L10.6641 26.1328V25.8594L10.5859 25.6641L10.4688 25.5078L10.293 25.3906L10.1172 25.332Z" fill="white"/>
<path d="M23.457 25.332H21.8945L21.6797 25.4102L21.5234 25.5273L21.4062 25.6836L21.3477 25.8398L21.3281 26.0547L21.3672 26.2305L21.4844 26.4258L21.6406 26.5625L21.8164 26.6406L21.9141 26.6602H23.457L23.6719 26.582L23.8281 26.4453L23.9062 26.3477L23.9844 26.1914L24.0039 26.1133V25.8984L23.9453 25.7031L23.8281 25.5469L23.6914 25.4297L23.5352 25.3516L23.457 25.332Z" fill="white"/>
</svg>
