<svg width="100" height="100" viewBox="0 0 100 100" fill="none" xmlns="http://www.w3.org/2000/svg">
<path d="M46.0626 40.7036H80.6709C81.6936 40.7036 82.5322 39.865 82.5322 38.8423C82.5322 37.8196 81.6936 36.981 80.6709 36.981H46.0626C45.0399 36.981 44.2013 37.8196 44.2013 38.8423C44.2013 39.865 45.0399 40.7036 46.0626 40.7036Z" fill="#EF9439"/>
<path d="M46.0626 50.583H71.2007C72.2234 50.583 73.062 49.7444 73.062 48.7217C73.062 47.699 72.2234 46.8604 71.2007 46.8604H46.0626C45.0399 46.8604 44.2013 47.699 44.2013 48.7217C44.2013 49.7648 45.0399 50.583 46.0626 50.583Z" fill="#EF9439"/>
<path d="M46.0626 59.6442H80.6709C81.6936 59.6442 82.5322 58.8055 82.5322 57.7828C82.5322 56.7601 81.6936 55.9215 80.6709 55.9215H46.0626C45.0399 55.9215 44.2013 56.7601 44.2013 57.7828C44.2013 58.826 45.0399 59.6442 46.0626 59.6442Z" fill="#EF9439"/>
<path d="M49.3557 66.2507H46.0626C45.0399 66.2507 44.2013 67.0894 44.2013 68.1121C44.2013 69.1348 45.0399 69.9734 46.0626 69.9734H49.3557C50.3784 69.9734 51.217 69.1348 51.217 68.1121C51.217 67.0894 50.3784 66.2507 49.3557 66.2507Z" fill="#EF9439"/>
<path d="M49.3557 75.3119H46.0626C45.0399 75.3119 44.2013 76.1505 44.2013 77.1732C44.2013 78.1959 45.0399 79.0345 46.0626 79.0345H49.3557C50.3784 79.0345 51.217 78.1959 51.217 77.1732C51.1966 76.13 50.3784 75.3119 49.3557 75.3119Z" fill="#EF9439"/>
<path d="M80.6709 66.2507H56.7601C55.7374 66.2507 54.8987 67.0894 54.8987 68.1121C54.8987 69.1348 55.7374 69.9734 56.7601 69.9734H80.6709C81.6936 69.9734 82.5322 69.1348 82.5322 68.1121C82.5322 67.0894 81.6936 66.2507 80.6709 66.2507Z" fill="#EF9439"/>
<path d="M73.0415 77.1528C73.0415 76.1301 72.2029 75.2915 71.1802 75.2915H56.7601C55.7374 75.2915 54.8987 76.1301 54.8987 77.1528C54.8987 78.1755 55.7374 79.0141 56.7601 79.0141H71.1802C72.2029 79.0141 73.0415 78.1755 73.0415 77.1528Z" fill="#EF9439"/>
<path d="M69.4825 99.4477C70.1984 100.164 71.3848 100.164 72.1007 99.4477L78.4005 93.1479L84.7004 99.4477C85.0685 99.8159 85.539 100 86.0094 100C86.4799 100 86.9503 99.8159 87.3185 99.4477L91.1229 95.6433C91.4707 95.2956 91.6752 94.8251 91.6752 94.3342V31.1516C91.6752 26.488 87.8912 22.704 83.2277 22.704H69.0121V1.86132C69.0121 0.838617 68.1735 0 67.1508 0H10.1862C9.16345 0 8.32483 0.838617 8.32483 1.86132V65.0235C8.32483 69.687 12.1088 73.4711 16.7724 73.4711H27.4903C28.513 73.4711 29.3516 72.6324 29.3516 71.6097C29.3516 70.587 28.513 69.7484 27.4903 69.7484H23.7677C24.6881 68.3984 25.2404 66.7621 25.2404 65.0031V31.1516C25.2404 28.5334 27.3676 26.4062 29.9857 26.4062C32.6038 26.4062 34.731 28.5334 34.731 31.1516V94.3138C34.731 94.4365 34.7515 94.5592 34.772 94.6819C34.7924 94.7638 34.8129 94.8251 34.8333 94.9069C34.8538 94.9478 34.8538 94.9888 34.8742 95.0297C34.9151 95.1115 34.956 95.1933 34.997 95.2547C35.0174 95.2751 35.0174 95.316 35.0379 95.3365C35.0992 95.4387 35.181 95.541 35.2629 95.6228L39.0673 99.4273C39.7832 100.143 40.9695 100.143 41.6854 99.4273L47.9853 93.1274L54.2851 99.4273C55.001 100.143 56.1874 100.143 56.9033 99.4273L63.2031 93.1274L69.4825 99.4477ZM21.5382 31.1516V65.0235C21.5382 67.6416 19.4109 69.7689 16.7928 69.7689C14.1747 69.7689 12.0475 67.6416 12.0475 65.0235V3.70219H65.3099V22.704H29.9857C25.3222 22.704 21.5382 26.488 21.5382 31.1516ZM55.5942 95.5001L49.2944 89.2002C48.9262 88.8321 48.4557 88.648 47.9853 88.648C47.5149 88.648 47.0444 88.8321 46.6762 89.2002L40.3764 95.5001L38.4332 93.557V31.1516C38.4332 30.8857 38.4128 30.6198 38.3923 30.3743C38.3923 30.2925 38.3719 30.2311 38.3719 30.1493C38.3514 29.9652 38.331 29.7811 38.2901 29.5971C38.2696 29.5152 38.2696 29.4539 38.2491 29.3721C38.2082 29.1471 38.1469 28.9016 38.0651 28.6766C38.0651 28.6562 38.0651 28.6562 38.0446 28.6357C37.9628 28.3903 37.881 28.1653 37.7787 27.9403C37.7583 27.8789 37.7173 27.8176 37.6969 27.7357C37.6151 27.5721 37.5537 27.4085 37.4514 27.2448C37.4105 27.1835 37.3901 27.1221 37.3492 27.0403C37.2469 26.8562 37.1242 26.6517 37.0014 26.4676C36.981 26.4471 36.981 26.4267 36.9605 26.4062C36.9605 26.4062 36.9605 26.4062 36.9605 26.3858H83.1663C85.7844 26.3858 87.9117 28.513 87.9117 31.1311V93.557L85.9685 95.5001L79.6687 89.2002C78.9528 88.4844 77.7664 88.4844 77.0505 89.2002L70.7507 95.5001L64.5122 89.2207C63.7963 88.5048 62.61 88.5048 61.8941 89.2207L55.5942 95.5001Z" fill="#EF9439"/>
</svg>
