<svg width="148" height="148" viewBox="0 0 148 148" fill="none" xmlns="http://www.w3.org/2000/svg">
<g clip-path="url(#clip0_112_1552)">
<path d="M73.4649 43.345H74.9939L75.7583 43.4979L75.8348 43.7272V49.0784L75.7583 59.0165V72.7768L75.8348 73.0826H91.2005L103.814 73.159L105.267 73.2355L105.802 73.3884V76.064L105.649 76.3698L105.419 76.4462L104.12 76.5227L80.8802 76.5991L75.9112 76.5227L75.8348 77.2107L75.7583 82.1797V105.802L75.6819 105.878H73.4649L72.624 105.725L72.5476 105.649V82.2561L72.4711 76.6755L72.0889 76.5227L51.7542 76.5991L50.1488 76.5227L49.7666 76.3698L49.5373 75.8346L49.4608 75.4524V74.6879L49.6137 73.3119L49.7666 73.2355L50.5311 73.159L65.2087 73.0826L72.4711 73.0061L72.5476 56.4173L72.624 46.9379L72.7005 43.6508L73.4649 43.345Z" fill="#E78A29"/>
<path d="M45.562 80.5747H66.5083L68.1901 80.6512L68.343 80.7276L68.4959 81.7214L68.5723 83.0974V99.6863L68.4959 103.432L68.343 105.573L68.1137 105.878L67.4256 106.108L66.5847 106.184L63.9856 106.261L59.8575 106.337L49.7665 106.414H46.7851L44.4153 106.337L43.3451 106.184L43.0393 106.108L42.8864 105.267L42.8099 103.432V81.5685L42.9628 80.9569L43.498 80.7276L44.0331 80.6512L45.562 80.5747ZM57.717 83.8619L48.6199 83.9383L46.0971 84.0148L46.0207 84.0912L45.9442 89.5189V95.0231L46.0207 102.744L46.0971 103.05H54.5827L65.2087 102.973L65.2851 102.897L65.2087 84.0148L64.8265 83.8619H57.717Z" fill="#E78A29"/>
<path d="M82.3326 43.1918H103.814L105.267 43.2682L105.802 43.4211L105.878 47.5492V65.5141L105.802 68.419L105.649 68.7248L104.579 68.9542L102.056 69.0306H82.7149L81.033 68.9542L80.4215 68.8777L80.2686 68.419L80.1921 65.5905V57.1814L80.2686 44.7207L80.4215 43.4976L80.8037 43.3447L82.3326 43.1918ZM102.209 46.479L96.1694 46.5554L85.2376 46.6319L83.5558 46.7083L83.4029 47.2434L83.3264 54.8116V65.0554L83.4793 65.5141L83.6322 65.5905L92.0413 65.667H102.744L102.82 65.5141V46.7083L102.591 46.479H102.209Z" fill="#E78A29"/>
<path d="M82.9443 80.4982H86.6901L103.432 80.5746L105.802 80.6511L105.878 80.7275V103.508L105.802 105.343L105.649 106.031L105.496 106.184L104.655 106.261L101.979 106.337H84.0145L81.7976 106.261L80.6509 106.108L80.498 105.955L80.3451 104.655V81.9506L80.5744 80.9568L80.8802 80.6511L81.1096 80.5746L82.9443 80.4982ZM95.4815 83.8618L83.4029 83.9383L83.3265 84.0147V102.744L83.4029 102.973H102.744L102.897 102.82L102.82 84.0147L102.591 83.8618H95.4815Z" fill="#E78A29"/>
<path d="M46.6323 43.1918H65.2851L67.2727 43.2682L68.1901 43.3447L68.4194 43.4211L68.4959 43.574L68.5723 44.4149V49.231L68.4959 51.448L68.4194 51.8302L67.8843 51.9066H65.2851L65.2087 51.7538L65.1322 48.3137L65.0558 46.6319H60.2397L46.1736 46.7083L46.0971 47.5492L46.0207 52.4418V55.3467L46.0971 64.5203L46.1736 65.5905L65.2851 65.667V63.45L65.3616 61.9976L65.438 61.9211H68.5723V67.3488L68.4959 68.7248L68.1137 68.8777L67.5785 68.9542L64.5207 69.0306H47.7789L45.2562 68.9542L43.3451 68.8013L42.8099 68.6484V43.8033L42.8864 43.4211L43.1157 43.3447L44.0331 43.2682L46.6323 43.1918Z" fill="#E78A29"/>
<path d="M103.891 33.407H113.141L114.975 33.5599L115.587 33.7128L115.663 34.095V42.3512L115.587 45.7148L115.281 46.3264L114.899 46.4793L114.44 46.5557H112.911L112.453 46.4793L112.3 44.2624V36.8471L106.49 36.7706L103.738 36.6942L103.126 36.5413L102.973 36.2355L102.744 34.6301V33.7892L102.897 33.5599L103.891 33.407Z" fill="#E78A29"/>
<path d="M33.4836 33.407H44.1096L45.1799 33.4834L45.5621 33.7128V35.5475L45.4857 36.5413L45.4092 36.6177L44.4919 36.6942L39.5993 36.7706L36.465 36.8471L36.0828 36.9235L36.0063 37.0764L35.9299 45.1033L35.8534 46.4029L35.3183 46.5557L34.7068 46.6322H33.0249L32.9485 45.9442V36.8471L33.0249 33.5599L33.4836 33.407Z" fill="#E78A29"/>
<path d="M113.064 103.126H113.829L114.899 103.279L115.51 103.585L115.74 103.814L115.663 112.452L115.587 114.746L115.434 115.663L115.205 115.969L114.899 116.045L113.37 116.122H107.178L103.891 115.969L103.05 115.893L102.973 115.816L102.82 114.44V113.599L102.973 113.14L104.043 113.064L112.453 112.988V104.808L112.605 103.279L113.064 103.126Z" fill="#E78A29"/>
<path d="M33.1778 103.049H34.4774L35.3947 103.279L35.7005 103.432L35.8534 103.814L35.9299 113.064L44.6447 113.14L45.3328 113.37L45.5621 113.752V115.51L45.3328 115.892L44.9505 115.969L43.3451 116.045L40.5166 116.122H34.0952L33.0249 115.969V109.547L33.1013 104.502L33.1778 103.049Z" fill="#E78A29"/>
<path fill-rule="evenodd" clip-rule="evenodd" d="M96.1694 51.0654H89.6715L88.6777 51.1419L88.4483 51.2183L88.2954 51.5241L88.219 52.7472V59.8568L88.2954 60.4683L88.4483 60.8506L88.7541 61.0034L89.9008 61.1563H94.4876L95.7872 61.0799L97.3161 60.927L97.7748 60.6977L97.9277 60.239L98.0806 58.4043V53.053L97.9277 51.3712L97.7748 51.2183L96.1694 51.0654ZM93.7995 54.4307H91.8884L91.2768 54.5071L91.1239 54.8129V56.6476L91.2768 57.6414L91.5061 57.8707L92.347 58.0236H93.9524L94.7933 57.7943L95.0991 57.4885V54.66L94.8698 54.5071L93.7995 54.4307Z" fill="#E78A29"/>
<path fill-rule="evenodd" clip-rule="evenodd" d="M93.6467 88.4492H90.8946L88.907 88.5257L88.3719 88.6021L88.2955 88.6786L88.219 89.443L88.1426 91.8893V94.1827L88.219 97.3934L88.2955 98.2343L88.5248 98.4637L89.3657 98.6166H93.188L96.6281 98.4637L97.469 98.3108L97.8513 98.0815L97.9277 97.4699L98.0806 95.1765V90.6662L98.0041 89.1372L97.9277 88.8315L97.5455 88.6021L96.2459 88.5257L93.6467 88.4492ZM93.7232 91.8887H92.1178L91.3533 91.9651L91.2004 92.1945V94.1821L91.2769 95.023L91.4298 95.1759L92.1178 95.3288H93.5703L94.717 95.023L95.0228 94.7172L95.1756 92.9589L95.0992 92.1945L94.717 91.9651L93.7232 91.8887Z" fill="#E78A29"/>
<path fill-rule="evenodd" clip-rule="evenodd" d="M58.4814 51.0654H52.3657L51.2954 51.1419L50.8368 51.2948L50.6839 52.2121L50.6074 54.582V56.4931L50.6839 60.1625L50.7603 60.6212L50.9132 61.0034L51.6012 61.0799H58.4814L59.7045 61.0034L60.3161 60.8506L60.469 60.5448L60.6219 59.551L60.6983 57.4105V52.4415L60.5454 51.3712L60.3925 51.2948L59.7045 51.1419L58.4814 51.0654ZM57.2583 54.4307H53.8947L53.8182 54.8893L53.8947 57.7179L54.0476 57.8707L54.5827 58.0236H56.9525L57.3348 57.8707L57.4112 56.1125V54.7364L57.2583 54.4307Z" fill="#E78A29"/>
<path fill-rule="evenodd" clip-rule="evenodd" d="M56.4938 88.5254H54.4297L51.2954 88.6018L50.9132 88.6783L50.6839 89.5956L50.6074 91.201V93.6473L50.6839 96.9345L50.7603 97.7754L50.9132 98.3105L51.219 98.4634L52.0599 98.6163H55.6529L59.1694 98.4634L59.8574 98.387L60.5454 98.0812L60.6219 97.4696L60.6983 93.2651V91.1246L60.6219 89.2899L60.5454 88.8312L60.1632 88.6783L59.1694 88.6018L56.4938 88.5254ZM57.1818 91.9648H54.124L53.8947 92.1942V94.7169L53.9711 94.9462L54.2004 95.1756L54.6591 95.3285H56.1116L57.1054 95.0991L57.3347 94.8698L57.4112 92.4235L57.3347 92.1177L57.1818 91.9648Z" fill="#E78A29"/>
<path d="M43.2686 73.3887H44.5682L45.8678 73.5416L46.0971 73.8473V75.6821L45.7913 76.2172L45.4091 76.3701H43.7273L43.0392 76.2172L42.9628 76.1407L42.8864 75.1469V73.5416L43.2686 73.3887Z" fill="#E78A29"/>
<path d="M65.3616 55.3468H68.343L68.4195 55.6526L68.343 58.1753L67.8843 58.2518H66.0496L65.438 58.1753L65.2852 57.7931V55.4997L65.3616 55.3468Z" fill="#E78A29"/>
</g>
<defs>
<clipPath id="clip0_112_1552">
<rect width="148" height="148" fill="white"/>
</clipPath>
</defs>
</svg>
