<svg width="302" height="151" viewBox="0 0 302 151" fill="none" xmlns="http://www.w3.org/2000/svg">
<g clip-path="url(#clip0_112_1580)">
<path d="M81.9883 37.75H199.515V87.2969L199.367 87.4443H166.336L81.8408 87.1494V37.8975L81.9883 37.75Z" fill="#911817"/>
<path d="M38.1924 38.1919H39.9619L42.3213 38.7817L44.2383 39.814L44.9756 40.4038L46.5977 42.4683L50.4316 48.9565L52.9385 53.0854L55.1504 56.772L57.0674 60.0161L59.1318 63.4077L61.6387 67.5366L64.1455 71.813L64.7354 73.1401L65.0303 74.1724L65.1777 75.3521V76.9741L64.4404 79.6284L63.1133 81.6929L62.0811 82.5776L60.0166 83.7573L58.2471 84.1997L55.8877 84.4946L43.0586 84.6421L42.9111 85.9692V115.167L42.7637 142.299H39.2246L39.0771 117.968V105.876L39.2246 98.7983V85.2319L39.0771 84.6421L21.0869 84.4946L18.5801 83.9048L16.8105 83.02L15.041 81.3979L14.3037 80.5132L13.4189 78.5962L13.124 76.6792V75.2046L13.4189 73.73L14.1562 71.6655L16.0732 68.4214L17.5479 66.062L19.4648 62.8179L20.2021 61.7856L21.0869 60.1636L22.8564 57.2144L23.5938 56.0347L25.5107 52.7905L26.248 51.7583L27.1328 50.1362L28.6074 47.6294L29.9346 45.4175L31.8516 42.1733L33.0312 40.6987L34.3584 39.519L35.9805 38.6343L38.1924 38.1919Z" fill="#911817"/>
<path d="M38.3398 43.3535H39.8145L40.9941 43.9434L41.4365 44.3857V44.6807L41.8789 44.8281L43.6484 47.6299L45.2705 50.4316L47.4824 54.1182L49.5469 57.5098L51.4639 60.7539L53.6758 64.4404L56.1826 68.5693L57.9521 71.5186L59.7217 74.6152L60.0166 75.6475L59.8691 76.9746L59.1318 78.3018L57.9521 79.0391L56.4775 79.334H24.1836L20.9395 79.1865L19.9072 78.7441L19.1699 78.1543L18.4326 76.9746V74.9102L18.875 74.0254L20.0547 71.9609L21.8242 69.1592L22.709 67.6846L23.2988 66.6523L24.4785 64.7354L25.3633 63.4082L26.248 61.7861L27.7227 59.4268L28.6074 57.8047L29.3447 56.7725L30.082 55.2979L30.8193 54.2656L31.7041 52.6436L33.3262 49.9893L34.5059 47.9248L35.3906 46.5977L36.1279 45.2705L36.4229 44.8281H36.7178L37.0127 44.2383L37.75 43.6484L38.3398 43.3535Z" fill="#E3E5E5"/>
<path d="M38.3398 43.3535H39.8145L40.9941 43.9434L41.4365 44.3857V44.6807L41.8789 44.8281L42.4688 46.1553V46.8926L41.7314 47.04L40.4043 46.3027H39.667L39.3721 46.5977L39.2246 48.5146L39.3721 49.8418L39.5195 49.9893V50.7266L39.3721 50.874L37.0127 51.1689L36.5703 51.3164L36.8652 60.7539L37.0127 70.1914L38.3398 70.7812L38.7822 71.5186L38.4873 72.1084L37.6025 72.6982L37.1602 73.4355V74.3203L37.75 75.5L38.6348 75.9424V76.2373H38.9297V76.5322H40.5518L41.1416 77.1221L41.2891 78.1543L40.6992 78.5967L39.5195 78.8916L38.0449 79.0391L37.75 79.1865L24.1836 79.334L20.9395 79.1865L19.9072 78.7441L19.1699 78.1543L18.4326 76.9746V74.9102L18.875 74.0254L20.0547 71.9609L21.8242 69.1592L22.709 67.6846L23.2988 66.6523L24.4785 64.7354L25.3633 63.4082L26.248 61.7861L27.7227 59.4268L28.6074 57.8047L29.3447 56.7725L30.082 55.2979L30.8193 54.2656L31.7041 52.6436L33.3262 49.9893L34.5059 47.9248L35.3906 46.5977L36.1279 45.2705L36.4229 44.8281H36.7178L37.0127 44.2383L37.75 43.6484L38.3398 43.3535Z" fill="#FCFCFC"/>
<path d="M195.681 96.2925H203.938L206.15 96.7349L208.067 97.7671L208.952 98.5044L209.984 99.979L210.574 101.896L210.869 103.666V107.794L210.574 109.269L209.837 111.481L208.805 112.808L207.625 113.693L208.067 115.61L208.805 118.117L209.689 121.213L210.722 125.047L211.312 126.964V127.849H206.593L205.561 124.752L204.086 119.001L202.906 115.02L202.759 114.873H200.842L200.694 115.61L200.547 127.849H195.681V96.2925Z" fill="#060304"/>
<path d="M149.23 96.2925H152.475L153.507 102.191L153.949 104.993L154.539 108.532L155.129 112.513L156.014 117.674L156.309 119.886L156.604 121.656L157.046 123.868L157.488 127.112V127.849H152.77L152.475 126.669L151.737 121.656V121.066L146.576 120.918L145.691 127.112L145.396 127.849H140.678L141.12 124.9L141.562 122.541L142.152 118.854L142.595 116.347L143.185 112.661L144.069 107.352L144.364 106.025L144.807 103.076L145.691 97.7671L145.986 96.4399L149.23 96.2925Z" fill="#050204"/>
<path d="M178.133 96.4395H191.699L191.552 101.011L183.146 101.158L182.999 101.306V109.563L189.93 109.711L189.782 114.282L184.621 114.43L182.999 114.577V123.13H191.552V127.849H178.133L177.985 127.701L178.133 96.4395Z" fill="#030102"/>
<path d="M234.168 51.0215H240.951L242.721 51.6113L243.9 52.4961L244.195 53.0859H244.49L245.375 54.708L245.67 55.8877V60.6064L245.375 62.0811L244.49 63.7031L243.605 64.4404L243.311 64.5879L243.458 65.6201L243.9 67.2422L245.375 72.5508L245.965 74.4678V75.5L242.573 75.6475L242.131 74.9102L241.099 71.2236L240.066 67.3896L239.477 65.7676H238.002L237.854 66.21L237.707 75.6475H234.168V51.0215Z" fill="#050204"/>
<path d="M146.871 51.1685H153.359L154.981 51.4634L156.456 52.6431L156.604 53.0854H156.898L157.931 55.1499L158.078 56.1821V60.9009L157.636 62.228L156.898 63.7026L156.161 64.4399H155.866V64.7349H155.571L156.456 67.8315L157.488 71.813L158.226 74.0249L158.373 75.4995H155.276L154.834 74.9097L153.654 71.3706L153.064 69.3062L152.18 66.062V65.4722L150.263 65.6196V68.2739L150.115 75.4995L149.82 75.647H147.313L146.724 75.2046L146.576 62.9653V52.6431L146.724 51.3159L146.871 51.1685Z" fill="#F9F9F9"/>
<path d="M21.0869 84.3477H55.8877V84.4951L43.0586 84.6426L42.9111 85.9697V115.167L42.7637 142.3H39.2246L39.0771 117.969V105.877L39.2246 98.7988V85.2324L39.0771 84.6426L21.0869 84.4951V84.3477Z" fill="#92979E"/>
<path d="M221.044 51.0215H221.929V61.4912L226.058 61.3438L226.205 51.0215H230.039V75.6475H226.205L226.058 65.3252L221.929 65.1777L221.781 75.5H218.242V51.1689L221.044 51.0215Z" fill="#040103"/>
<path d="M265.872 51.0215H270.886L271.033 51.1689L271.918 57.3623L273.54 67.0947L273.982 69.8965L274.72 74.3203V75.3525L274.572 75.5H271.033L270.296 70.7812L270.148 70.4863L266.314 70.3389L265.872 73.4355L265.43 75.6475H262.038V73.8779L263.218 66.5049L263.66 64.293L264.103 61.1963L264.545 58.6895L265.43 52.9385L265.872 51.0215Z" fill="#060305"/>
<path d="M213.671 96.2925L229.007 96.4399V99.3892L228.859 101.011L223.846 101.159L223.698 101.454L223.551 127.849H218.979V101.011H213.671L213.523 96.4399L213.671 96.2925Z" fill="#040204"/>
<path d="M161.617 96.2925H166.041L166.188 122.983L166.483 123.13L174.446 123.278V127.849L161.175 127.997V96.4399L161.617 96.2925Z" fill="#060203"/>
<path d="M131.388 51.3164H134.927L135.074 51.6113V69.749L135.369 71.3711L136.106 72.1084L136.549 72.2559H137.876L138.761 71.666L138.908 71.2236L139.056 53.2334L139.203 51.4639L139.351 51.3164H142.595L142.742 53.0859L142.595 71.666L142.152 73.1406L140.825 74.7627L139.646 75.5L138.466 75.7949H135.664L133.747 75.0576L132.862 74.3203L131.978 72.9932L131.388 71.3711L131.24 70.3389V51.4639L131.388 51.3164Z" fill="#FAFAFA"/>
<path d="M293.595 50.7266H295.659L297.281 51.3164L298.756 52.6436L299.641 53.8232L300.23 56.3301V57.2148L299.936 57.6572L297.724 58.0996H296.691L296.544 57.9521L296.396 56.0352L295.954 55.1504L295.217 54.708L294.922 54.5605H293.89L293.152 55.0029L292.857 55.8877V57.5098L293.447 58.9844L294.774 60.6064L297.576 63.4082L298.903 65.0303V65.3252H299.198L300.23 67.0947L300.673 68.2744L300.82 69.6016V70.9287L300.083 72.8457L299.493 73.7305L298.166 74.9102L296.691 75.6475L295.807 75.9424H293.447L291.973 75.3525L290.793 74.6152L289.613 73.1406L289.023 71.8135L288.729 70.6338V69.3066L289.023 69.0117L290.646 68.7168H292.415L292.562 68.8643L292.71 71.2236L293.005 71.8135L293.89 72.2559H295.364L296.249 71.8135H296.544L296.839 70.9287L296.986 70.6338V69.3066L296.102 67.5371L294.479 65.6201L292.268 63.2607L290.793 61.7861L289.613 59.8691L289.023 57.8047V55.4453L289.466 53.9707L290.793 52.0537L292.415 51.0215L293.595 50.7266Z" fill="#050304"/>
<path d="M120.771 51.0215H124.162L125.637 51.7588L126.669 52.6436V52.9385H126.964V53.3809H127.259L127.849 54.708L128.144 56.1826L128.291 58.3945L127.996 59.4268L127.701 59.5742H125.489L124.752 59.2793L124.604 56.625L124.162 55.2979L123.572 54.708V54.4131H121.95L120.918 54.708L120.476 55.4453L120.328 56.4775V70.3389L120.623 71.5186L120.918 71.9609L121.803 72.2559H122.982L123.72 71.9609L124.162 71.8135L124.31 71.0762L124.604 69.8965L124.752 66.7998L125.047 66.6523H126.374L128.144 66.9473L128.291 67.832L128.144 70.7812L127.701 72.5508L126.669 74.1729L125.637 75.0576L124.457 75.6475L123.72 75.7949H120.918L119.591 75.3525L118.706 74.7627L118.264 74.3203V74.0254L117.821 73.8779L117.231 72.8457L116.789 71.8135L116.642 70.7812V55.7402L116.937 54.4131L117.969 52.791L119.148 51.7588L120.328 51.1689L120.771 51.0215Z" fill="#F8F8F8"/>
<path d="M249.209 51.0215L259.826 51.1689L259.679 54.708L259.531 54.8555H252.896V61.3438L253.043 61.4912L258.204 61.6387V64.1455L258.057 65.1777L254.223 65.3252L252.896 65.4727V71.8135L259.826 71.9609L259.679 75.5L251.863 75.6475H249.209V51.0215Z" fill="#050203"/>
<path d="M103.518 51.1685H113.545L113.84 51.3159L113.692 54.5601L113.397 54.7075L107.057 54.855V61.3433L110.448 61.4907L112.07 61.6382L112.365 61.7856V64.8823L112.07 65.1772L107.204 65.3247L107.057 65.9146V71.3706L107.204 71.813L107.499 71.9604L113.397 72.1079L113.692 72.2554L113.84 72.6978V75.3521L113.692 75.4995L105.14 75.647L103.665 75.4995L103.37 74.9097L103.223 65.1772V52.938L103.37 51.3159L103.518 51.1685Z" fill="#FAFAFA"/>
<path d="M92.458 51.0215H95.8496L97.1768 51.7588L98.209 52.6436L99.3887 55.0029L99.5361 55.7402V57.2148L99.0938 57.6572L97.1768 58.0996H96.4395L95.9971 57.5098L95.7021 55.4453L95.5547 54.8555L94.8174 54.5605H93.4902L92.458 55.0029L92.1631 55.4453L92.0156 57.3623L92.6055 58.8369L93.6377 60.1641L97.1768 63.7031L98.3564 65.1777L99.5361 67.2422L99.9785 68.5693V71.2236L99.5361 72.5508L98.6514 73.8779L97.6191 74.9102L96.1445 75.6475L95.5547 75.7949H92.9004L91.4258 75.3525L90.2461 74.6152L89.6562 74.0254V73.7305L89.2139 73.583L88.4766 71.9609L88.1816 70.6338V69.4541L88.4766 69.1592L90.2461 68.8643L91.4258 68.7168L91.7207 69.0117L92.0156 71.2236L92.6055 71.9609L93.4902 72.2559H94.9648L95.9971 71.666L96.292 70.7812L96.1445 69.0117L95.7021 67.9795L94.8174 66.6523V66.21L94.0801 65.915L93.0479 64.7354L90.3936 62.0811L89.6562 61.0488L88.7715 59.2793L88.3291 57.2148V55.8877L88.9189 53.9707L89.9512 52.3486L91.2783 51.4639L92.458 51.0215Z" fill="#F9F9F9"/>
<path d="M191.699 51.1685H193.911L194.943 51.3159V52.0532L194.648 52.4956L194.059 54.4126L193.321 56.9194L192.731 58.394L192.142 60.311L191.699 61.3433L190.52 64.8823L190.225 65.9146L190.077 75.3521L189.93 75.4995H186.833L186.538 75.0571L186.391 65.6196L185.801 63.4077L183.589 56.9194L182.409 53.3804L181.967 52.2007V51.3159H185.358L185.801 52.0532L186.391 53.9702L187.423 57.3618L188.16 59.5737V60.0161L188.603 59.5737L189.635 56.3296L191.109 51.9058L191.404 51.3159L191.699 51.1685Z" fill="#FAFAFA"/>
<path d="M36.7178 84.4956H39.0771L39.3721 85.5278V99.0942L39.2246 107.352V142.3H37.3076L37.1602 139.499L37.0127 124.015V99.6841L37.1602 94.6704V88.772L37.3076 87.1499V85.5278L37.1602 84.7905L36.7178 84.4956Z" fill="#E5E7E7"/>
<path d="M203.791 51.0215H215.44V54.708L215.293 54.8555H211.459V59.2793L211.312 75.5L209.1 75.6475L207.772 75.5V54.8555H203.791V51.0215Z" fill="#060204"/>
<path d="M168.548 51.1685H179.755L179.902 51.3159V54.5601L179.607 54.7075H175.921L175.773 74.4673L175.626 75.4995L175.479 75.647H172.677L172.234 75.2046L172.087 73.73V58.689L172.234 54.7075H169.433L168.105 54.5601L167.958 54.2651V52.4956L168.105 51.4634L168.548 51.1685Z" fill="#F7F8F8"/>
<path d="M275.162 51.0215H286.812V54.5605L286.664 54.708H282.83L282.683 75.6475H279.291L279.144 75.5L278.996 54.8555L275.162 54.708V51.0215Z" fill="#050304"/>
<path d="M38.6348 51.0215H40.9941L41.7314 51.3164L41.8789 52.0537V54.8555L41.584 63.4082L41.2891 68.8643L40.9941 70.9287L39.9619 71.0762V71.666L39.3721 71.8135V72.1084L40.1094 72.2559L40.8467 72.9932V75.0576L40.6992 75.5L39.5195 76.0898H38.6348L37.75 75.6475L37.3076 74.9102L37.0127 74.3203L37.1602 72.9932L38.1924 72.1084L38.6348 71.8135L38.3398 70.7812L37.0127 70.3389L36.8652 70.1914L36.7178 60.7539L36.5703 55.0029V51.3164L36.8652 51.1689L38.6348 51.0215Z" fill="#2B3D50"/>
<path d="M245.228 96.2925H246.407V108.679L246.26 110.154L245.965 116.642L245.67 119.739L245.522 119.886H242.426L242.278 118.412L241.983 112.956L241.836 110.154V96.4399L245.228 96.2925Z" fill="#050204"/>
<path d="M161.765 51.3164H165.009L165.156 51.4639V75.6475H162.207L161.765 74.6152L161.617 69.4541V51.6113L161.765 51.3164Z" fill="#F9F9F9"/>
<path d="M200.694 101.011H202.316L204.528 101.159L205.413 101.601L205.855 102.486L206.003 103.518V108.384L205.561 109.269L204.823 109.859L204.233 110.154L202.611 110.301H200.842L200.547 109.269V105.288L200.694 101.011Z" fill="#F9F9F9"/>
<path d="M121.36 50.4316H123.425L124.899 50.7266L125.637 51.1689L126.669 51.7588L127.554 52.791L127.701 53.5283H127.996L128.733 55.2979L129.176 56.9199V59.1318L128.881 59.5742H128.586V59.8691H124.457L124.31 59.2793H124.015L123.72 58.542L123.425 58.3945V56.625V56.3301L123.13 55.8877L121.803 56.0352L121.508 56.3301L121.065 58.542L120.918 59.5742L120.771 60.3115L120.918 63.998H120.623L120.771 64.4404L120.623 66.6523L120.918 66.7998L121.065 70.1914L121.36 70.9287V71.3711L122.54 71.5186L123.277 71.0762H123.572L123.72 69.4541V68.2744H124.015V67.832L124.31 67.6846L124.604 66.7998H124.752V69.8965L124.162 71.8135L123.572 72.2559L122.982 72.4033H121.803L120.771 71.9609L120.328 71.2236L120.181 70.3389V56.4775L120.328 55.4453L120.918 54.5605L121.95 54.2656H123.277L124.015 55.0029L124.457 55.5928L124.752 56.625V59.2793L125.489 59.4268H127.701L127.996 59.2793L128.144 57.8047L127.849 55.2979L127.259 53.6758V53.3809H126.964V52.9385H126.669L126.079 52.2012L124.604 51.3164L124.162 51.1689H120.771L119.443 51.7588L118.116 52.791L116.937 54.708H116.642L116.789 53.6758L117.231 53.2334H117.526L117.821 52.4961L118.411 51.7588L119.886 50.874L121.36 50.4316Z" fill="#A6242A"/>
<path d="M237.854 54.7075L240.951 54.855L241.688 55.2974L241.983 56.1821L242.131 57.6567V59.5737L241.836 60.7534L241.394 61.4907L240.066 62.0806H237.854L237.56 61.0483V58.0991L237.707 54.855L237.854 54.7075Z" fill="#F8F8F9"/>
<path d="M150.41 54.7075H152.77L154.097 55.1499L154.392 55.8872L154.539 57.0669V60.1636L154.097 61.3433L153.212 61.9331L152.475 62.0806H150.263L150.115 59.4263V54.855L150.41 54.7075Z" fill="#A72025"/>
<path d="M82.1357 85.8223H82.5781L82.873 86.707L83.3154 86.8545H94.0801L113.25 86.5596H145.396L145.839 86.8545L145.102 87.002H144.069L143.332 87.1494V87.2969H123.72L81.8408 87.1494L82.1357 85.8223Z" fill="#A71E23"/>
<path d="M15.7783 81.5464L16.6631 81.8413L17.1055 82.2837L19.6123 83.3159H21.3818L21.6768 83.1685H25.3633L26.3955 83.3159H31.8516L35.2432 83.4634H37.1602L37.3076 83.9058L37.6025 84.0532H43.7959L47.04 83.9058L53.5283 83.7583L57.5098 83.4634L58.9844 83.3159L60.0166 82.8735H60.7539L60.9014 83.3159L59.1318 84.0532L57.2148 84.3481L41.7314 84.4956L20.6445 84.3481L18.5801 83.9058L16.8105 83.021L16.2207 82.5786L15.7783 81.8413V81.5464Z" fill="#A71F24"/>
<path d="M98.9463 53.3809L99.2412 53.5283V53.8232L99.5361 53.9707L99.9785 55.0029L100.421 56.4775L100.273 57.2148L100.126 57.5098H99.8311V57.9521L98.6514 58.8369L96.5869 59.2793L95.8496 59.1318L94.9648 58.9844L95.1123 61.0488H95.4072L96.292 62.2285L96.4395 62.6709L97.0293 62.9658L97.9141 63.998V64.293L98.6514 64.5879L98.5039 65.1777L98.0615 65.0303L96.7344 63.4082L93.0479 59.7217L92.1631 58.2471L91.8682 57.3623L92.0156 55.4453L92.6055 54.708L93.4902 54.4131H94.8174L95.5547 54.8555L95.9971 56.1826L96.1445 57.5098L96.4395 57.9521L97.9141 57.8047L99.2412 57.3623L99.3887 57.2148V55.7402L98.9463 54.1182V53.3809Z" fill="#A71F24"/>
<path d="M148.936 104.107H149.23L149.968 108.089L151 115.314V116.199L150.705 116.347H147.313V115.02L148.493 107.204L148.936 104.107Z" fill="#F4F4F5"/>
<path d="M90.8359 51.4644L91.2783 51.6118L89.9512 52.4966L88.9189 54.2661L88.4766 55.8882V57.2153L89.0664 59.5747L90.0986 61.4917L91.7207 63.2612L92.0156 63.8511L92.7529 64.146L93.7852 65.3257L94.0801 65.9155L94.8174 66.2104L95.4072 67.2427L96.1445 68.4224L96.4395 69.897L96.292 71.3716L95.5547 72.1089L94.9648 72.4038H93.4902L92.458 71.9614L91.8682 71.2241L91.5732 69.0122L91.4258 68.8647L90.2461 69.0122L88.4766 69.3071L88.3291 69.4546V70.6343L88.7715 72.4038L89.3613 73.5835L90.0986 74.3208L90.8359 74.9106L92.1631 75.5005L92.9004 75.6479L95.2598 75.7954V75.9429L93.3428 76.2378L91.1309 75.7954V75.5005L89.8037 75.0581L88.7715 73.8784L88.4766 72.9937L88.1816 72.2563L87.8867 71.2241V69.6021L88.3291 68.8647L88.624 68.5698L90.8359 67.98L91.7207 68.1274L92.3105 68.5698V68.8647L93.1953 69.0122L93.3428 70.7817L93.4902 71.3716H94.6699L95.7021 70.9292L95.8496 70.4868L95.7021 69.1597L95.5547 68.7173L95.2598 68.5698L95.1123 67.98L94.6699 67.8325L94.2275 66.8003L94.0801 66.3579L93.4902 66.063L93.0479 65.6206V65.3257H92.7529V65.0308L92.1631 64.7358L91.2783 63.9985L90.6885 63.1138L90.2461 62.8188V62.3765H89.9512L88.9189 60.6069L88.1816 58.5425L88.0342 57.8052V55.7407L88.4766 53.9712L89.0664 52.7915L90.2461 51.7593L90.8359 51.4644Z" fill="#A72126"/>
<path d="M38.6348 51.0215H40.9941L41.7314 51.3164L41.8789 52.0537V54.8555L41.584 63.4082L41.2891 68.8643L40.9941 70.9287L39.9619 71.0762V71.666L39.3721 71.8135V72.1084L40.1094 72.2559L40.8467 72.9932V75.0576L40.6992 75.5L39.5195 76.0898H38.6348L37.75 75.6475L37.3076 74.9102L37.0127 74.3203L37.1602 72.9932L38.1924 72.1084L38.6348 71.8135L38.3398 70.7812L38.0449 70.6338L39.5195 70.7812L40.6992 70.6338L40.8467 69.8965L41.1416 64.293L41.4365 54.5605V51.7588L41.2891 51.4639H36.8652L37.0127 56.4775L37.1602 69.6016V70.3389L36.8652 70.1914L36.7178 60.7539L36.5703 55.0029V51.3164L36.8652 51.1689L38.6348 51.0215Z" fill="#9C7F85"/>
<path d="M241.836 122.982H246.407V127.849H241.688V124.457L241.836 122.982Z" fill="#0A0406"/>
<path d="M26.3955 51.7583V52.2007L26.1006 52.4956V53.3804L25.5107 54.4126H25.2158L24.7734 55.7397H24.4785L24.1836 56.3296L23.2988 57.9517H23.0039L22.8564 58.689L21.9717 60.0161L21.5293 61.0483H21.2344L20.9395 61.7856L19.9072 63.8501L19.4648 64.5874L19.1699 64.7349L19.0225 65.3247L18.5801 66.062L17.8428 67.2417L16.6631 69.3062L16.0732 70.4858L15.6309 71.2231L15.041 72.1079L14.7461 72.6978L13.7139 72.8452L14.3037 71.3706L16.3682 67.979L17.5479 66.062L19.4648 62.8179L20.2021 61.7856L21.0869 60.1636L22.8564 57.2144L23.5938 56.0347L25.5107 52.7905L25.9531 52.0532L26.3955 51.7583Z" fill="#A6282D"/>
<path d="M38.1924 38.1919H39.9619L42.3213 38.7817L44.2383 39.814L44.9756 40.4038L45.7129 41.436L45.418 41.5835L43.501 40.2563L41.7314 39.3716L40.6992 39.2241L38.9297 39.3716L35.9805 39.6665L34.3584 40.8462L33.4736 41.8784L33.0312 42.7632L32.2939 43.353L31.8516 44.0903L31.4092 44.2378L31.2617 44.8276L31.1143 45.27H30.082L31.2617 43.2056L32.2939 41.5835L33.6211 40.1089L35.0957 39.0767L35.9805 38.6343L38.1924 38.1919Z" fill="#A62429"/>
<path d="M157.931 55.2974L158.373 55.4448L158.521 56.3296H158.815V61.6382L158.668 62.5229H158.373L158.226 63.5552L157.783 63.7026L157.488 64.2925H157.193V64.7349H156.898V65.4722L156.751 65.6196L157.046 67.6841L157.341 69.0112L157.636 70.1909L158.078 71.2231L158.521 73.2876V74.1724L158.078 74.0249L157.341 71.813L155.866 66.062L155.571 65.3247V64.7349H155.866V64.4399L156.604 63.7026H156.898L157.193 62.8179L157.636 62.0806L157.931 60.9009V55.2974Z" fill="#A72125"/>
<path d="M268.379 57.3628H268.526L269.706 65.6206V66.6528H267.052L266.904 65.9155L267.937 58.9849L268.379 57.3628Z" fill="#F3F4F4"/>
<path d="M142.742 51.6113L143.185 52.2012L143.479 53.5283L143.332 53.9707L143.479 55.1504V61.9336L143.332 63.998L143.185 64.5879L143.037 68.8643L142.742 71.8135L142.447 72.2559L142.595 53.0859L142.742 51.6113Z" fill="#A3373C"/>
<path d="M38.7822 72.1089H39.9619L40.6992 72.6987L40.8467 72.9937V75.0581L40.6992 75.5005L39.5195 76.0903H38.6348L37.75 75.6479L37.3076 74.9106L37.0127 74.3208L37.1602 72.9937L37.6025 72.5513L38.4873 72.2563L38.7822 72.1089Z" fill="#313F52"/>
<path d="M121.36 50.4316H123.425L124.899 50.7266L125.637 51.1689L126.669 51.7588L127.554 52.791L127.701 53.5283H127.996L128.733 55.2979L129.176 56.9199V59.1318L128.881 59.5742H128.586V59.8691L127.701 59.7217L127.996 59.2793L128.144 57.8047L127.849 55.2979L127.259 53.6758V53.3809H126.964V52.9385H126.669L126.079 52.2012L124.604 51.3164L124.162 51.1689H120.771L119.443 51.7588L118.116 52.791L116.937 54.708H116.642L116.789 53.6758L117.231 53.2334H117.526L117.821 52.4961L118.411 51.7588L119.886 50.874L121.36 50.4316Z" fill="#A72227"/>
<path d="M113.84 51.3164L114.135 51.6113L114.577 52.3486V53.0859L114.725 53.3809L114.43 54.5605L114.282 54.8555L113.545 54.708V55.1504H110.006L108.384 55.2979L107.646 55.4453L107.794 60.1641L107.941 60.9014L108.531 61.0488L110.743 61.1963L112.07 61.4912V61.6387L107.352 61.4912L107.057 61.3438L106.909 60.3115V54.8555L107.057 54.708L113.692 54.5605V52.2012L113.84 51.3164Z" fill="#A81F24"/>
<path d="M107.204 65.1777H112.07V65.3252L107.646 65.6201V68.8643L107.794 70.4863L108.089 71.3711L112.955 71.5186L113.987 72.2559L114.282 73.583L113.987 75.5L113.692 75.3525V72.2559L107.499 72.1084L107.057 71.8135L106.909 71.3711V65.915L107.204 65.1777Z" fill="#A81F24"/>
<path d="M57.8047 71.519L58.2471 71.9614L59.7217 74.6157L60.0166 75.6479L59.8691 76.9751L59.1318 78.3022L57.9521 79.0396L56.4775 79.3345H35.9805V79.187L37.75 79.0396L47.4824 78.8921H56.625L58.0996 78.5972L59.1318 77.7124L59.5742 76.5327V75.5005L58.9844 73.8784L57.8047 71.814V71.519Z" fill="#92989F"/>
<path d="M186.096 52.3481L186.538 52.6431V53.0854L186.833 53.2329L187.57 55.1499L188.013 55.8872V56.1821L189.045 55.8872L189.635 55.7397L189.782 56.3296L188.75 59.5737L188.455 60.0161H188.16L186.686 55.5923L186.096 53.5278L185.948 52.7905L186.096 52.3481Z" fill="#A72025"/>
<path d="M165.304 51.7583L165.746 52.2007L166.041 53.6753L165.894 56.0347L165.746 56.6245V59.5737L165.451 75.4995H165.304V51.7583Z" fill="#A81F24"/>
<path d="M146.429 54.5605H146.576L146.724 62.9658L146.871 75.2051L147.019 75.5L146.429 75.3525L146.134 73.4355L146.281 72.8457L146.134 70.9287L146.281 69.749L146.429 54.5605Z" fill="#A14449"/>
<path d="M107.057 54.4136H111.628L113.397 54.561V54.7085L107.057 54.856V61.3442L110.448 61.4917L112.07 61.6392V61.7866H107.499L106.614 61.4917V54.561L107.057 54.4136Z" fill="#BCC0C3"/>
<path d="M150.853 65.4727H152.18V65.915L151.295 66.21L150.853 67.6846V69.4541L150.558 71.3711L150.41 71.666L150.263 75.6475L149.82 75.5H150.115V68.2744L150.263 65.6201L150.853 65.4727Z" fill="#A71F24"/>
<path d="M112.218 63.8511H112.365V64.8833L112.07 65.1782L107.204 65.3257L107.057 65.9155V71.3716L107.204 71.814L107.499 71.9614L113.397 72.1089V72.2563L111.923 72.4038H107.499L106.614 72.1089V65.1782L106.762 65.0308L111.923 64.8833L112.218 63.8511Z" fill="#BEC2C5"/>
<path d="M134.927 59.8691H135.074L135.222 69.6016L135.369 70.3389H135.664L136.106 71.2236V71.5186L137.139 71.666L138.023 71.5186L138.171 71.2236L138.761 71.0762L139.056 70.6338L138.908 71.666L138.171 72.2559L137.876 72.4033H136.549L135.664 71.9609L135.222 71.3711L134.927 69.749V59.8691Z" fill="#A1444A"/>
<path d="M58.2471 84.0527L58.8369 84.2002L58.0996 84.4951L56.4775 84.6426L48.6621 84.9375H43.2061L43.0586 85.6748H42.9111V84.6426L43.0586 84.4951L55.8877 84.3477L58.2471 84.0527Z" fill="#E1E3E3"/>
<path d="M188.16 86.5591H195.681L196.123 86.7065V87.1489H188.16V86.5591Z" fill="#A71E23"/>
<path d="M13.8613 73.5825L14.1562 73.73L14.0088 74.9097L13.8613 75.2046L14.0088 78.4487H14.3037L14.7461 79.7759L15.1885 80.5132L15.041 80.9556L14.4512 80.5132L14.1562 80.0708L13.4189 78.5962L13.124 76.6792V75.2046L13.4189 73.73L13.8613 73.8774V73.5825Z" fill="#A32328"/>
<path d="M130.945 51.4644L131.24 51.6118V70.3394H131.093L130.945 60.4595L130.798 59.4272V58.9849L130.945 58.6899V54.856L130.798 54.7085V51.6118L130.945 51.4644Z" fill="#A71E23"/>
<path d="M161.47 51.6113H161.617V67.832H161.47L161.322 60.7539L161.027 60.6064L160.88 59.5742L161.027 57.9521V57.5098H161.322L161.47 51.6113Z" fill="#A81F24"/>
<path d="M147.461 86.5591H149.82L150.263 86.7065L150.853 86.5591H153.949V87.0015L154.244 87.1489H147.461V86.5591Z" fill="#A61E23"/>
<path d="M38.6348 51.0215H40.9941L41.7314 51.3164L41.8789 52.0537V54.8555L41.584 60.1641H41.4365V51.7588L41.2891 51.4639L36.8652 51.3164V51.1689L38.6348 51.0215Z" fill="#92989F"/>
<path d="M21.0869 79.187H35.9805V79.3345L27.1328 79.4819L21.6768 79.6294L21.0869 79.4819V79.187Z" fill="#A81F24"/>
<path d="M116.937 72.4028L117.379 72.8452L117.969 73.8774L118.706 74.6147L119.886 75.3521L120.918 75.647L120.476 75.9419L119.148 75.7944L117.969 74.9097L117.379 74.1724L117.231 73.5825L116.937 72.4028Z" fill="#A72227"/>
<path d="M113.84 51.3164L114.135 51.6113L114.577 52.3486V53.0859L114.725 53.3809L114.43 54.5605L114.282 54.8555L113.545 54.708L113.692 52.2012L113.84 51.3164Z" fill="#A52E33"/>
<path d="M99.8311 71.2231H99.9785V73.1401L99.0938 74.4673L98.5039 74.6147V74.9097L97.3242 75.2046V74.9097L98.5039 73.8774L99.3887 72.5503L99.8311 71.2231Z" fill="#A52B30"/>
<path d="M94.0801 50.5786H95.2598L96.7344 51.021L98.209 52.2007L98.6514 52.4956V53.5278L98.209 52.938V52.6431L97.6191 52.3481L96.292 51.3159L95.8496 51.1685L93.1953 51.021V50.8735L94.0801 50.5786Z" fill="#A2363B"/>
<path d="M39.9619 70.9292L41.1416 71.0767L41.2891 71.2241L41.1416 72.2563L40.6992 72.4038L39.3721 72.1089V71.814L39.9619 71.6665V71.2241L39.5195 71.0767L39.9619 70.9292Z" fill="#FBFCFC"/>
<path d="M99.0938 65.9146L99.5361 66.2095L100.273 68.1265L100.421 69.4536L100.126 71.2231H99.9785L99.8311 68.5688L99.0938 66.6519L98.9463 66.2095L99.0938 65.9146Z" fill="#A81F24"/>
<path d="M131.978 72.9927L132.567 73.5825L133.157 74.4673L134.337 75.2046L135.664 75.647V75.7944H134.189L133.6 75.4995V75.2046L132.862 75.0571L132.567 74.3198L132.272 74.1724L131.978 72.9927Z" fill="#A72126"/>
<path d="M64.4404 72.9927L64.7354 73.1401L65.0303 74.1724L65.1777 75.3521V76.9741L64.7354 78.5962H64.5879V74.0249L64.4404 72.9927Z" fill="#A43339"/>
<path d="M38.0449 70.6333L39.9619 70.9282V71.6655L39.3721 71.813V72.1079L38.3398 72.5503L37.75 72.4028L38.6348 71.813L38.3398 70.7808L38.0449 70.6333Z" fill="#C7CACD"/>
<path d="M152.77 68.127H152.917L153.654 70.7812L153.507 71.3711L153.212 70.9287V70.3389L152.77 70.4863L152.475 70.0439L152.327 69.0117L152.77 68.127Z" fill="#A72328"/>
<path d="M127.554 72.5508L127.701 72.8457L127.406 74.1729H127.111V74.6152L126.227 75.0576L125.932 75.3525H125.047L125.784 74.7627L126.669 74.0254L127.554 72.5508Z" fill="#A43439"/>
<path d="M40.5518 73.8784H40.6992V75.5005L39.8145 75.9429H39.0771L39.3721 75.2056L39.5195 74.9106L40.2568 74.6157L40.5518 73.8784Z" fill="#090608"/>
<path d="M154.539 74.1724L154.834 74.4673L155.276 75.3521L157.783 75.4995V75.647L154.834 75.7944L154.244 75.2046L154.097 74.4673L154.539 74.1724Z" fill="#A14146"/>
<path d="M154.097 51.0215L155.276 51.1689L156.604 52.2012L156.898 52.6436L156.014 52.3486L154.981 51.6113L153.359 51.3164V51.1689L154.097 51.0215Z" fill="#A6252A"/>
<path d="M166.926 86.5591H167.516L167.663 86.854L168.253 86.5591L169.138 86.7065L169.58 87.1489H165.451V87.0015H166.926V86.5591Z" fill="#A71E23"/>
<path d="M82.1357 85.8223H82.5781L82.873 86.707H83.168L83.3154 87.1494H81.8408L82.1357 85.8223Z" fill="#A72126"/>
<path d="M96.4395 62.6714L97.0293 62.9663L97.9141 63.9985V64.2935L98.6514 64.5884L98.5039 65.1782L98.0615 65.0308L97.0293 63.7036L96.7344 63.1138L96.4395 62.6714Z" fill="#A42227"/>
<path d="M163.239 50.8745H164.861L165.009 51.3169H161.765L162.354 51.022L163.239 50.8745Z" fill="#A81F24"/>
<path d="M95.9971 56.7729H96.292L96.5869 57.5103H98.0615L98.5039 57.8052L97.1768 58.1001H96.4395L95.9971 57.5103V56.7729Z" fill="#BEC2C5"/>
<path d="M179.902 51.3164H180.05L180.345 52.9385V54.4131L179.902 54.5605V51.3164Z" fill="#A81F24"/>
<path d="M38.3398 43.3535H39.8145L40.9941 43.9434L41.1416 44.2383L39.8145 44.0908L39.2246 43.9434L38.9297 43.6484L38.3398 43.3535Z" fill="#CED1D3"/>
<path d="M60.0166 75.7949H60.1641L60.0166 77.1221L59.8691 78.0068H59.5742L59.4268 78.4492L58.3945 79.0391L57.9521 78.8916L59.1318 78.1543L59.7217 76.9746L60.0166 75.7949Z" fill="#A81F24"/>
<path d="M93.3428 54.1177H94.8174L95.5547 54.5601L95.7021 55.1499L95.5547 54.855L94.8174 54.5601H93.4902L92.6055 54.7075L92.7529 54.2651L93.3428 54.1177Z" fill="#BDC1C4"/>
<path d="M57.9521 72.9927L58.542 73.5825L58.8369 74.0249V74.9097L58.3945 74.7622V74.4673H58.0996L57.8047 73.2876L57.9521 72.9927Z" fill="#FDFDFD"/>
<path d="M99.0938 54.5605L99.3887 55.0029L99.5361 55.7402V57.2148L99.0938 57.6572H98.6514L98.9463 57.0674L99.0938 56.625V54.5605Z" fill="#C0C3C7"/>
<path d="M128.291 67.2422L128.586 67.6846L128.438 70.0439L128.144 70.6338V67.832L128.291 67.2422Z" fill="#A81F24"/>
<path d="M184.326 50.7266H185.063L185.358 51.3164L182.114 51.1689L182.557 50.874L184.326 50.7266Z" fill="#A81F24"/>
<path d="M126.374 66.3574L127.701 66.5049L128.144 66.9473L125.047 66.7998L124.752 66.6523L124.899 66.5049L126.374 66.3574Z" fill="#A81F24"/>
<path d="M29.9346 45.5659L30.082 46.1558L29.9346 46.7456H29.6396L29.4922 47.188L28.9023 47.3354L29.4922 46.1558L29.9346 45.5659Z" fill="#A33338"/>
<path d="M117.674 52.938V53.3804L116.937 54.7075H116.642L116.789 53.6753L117.674 52.938Z" fill="#A81F24"/>
<path d="M140.383 50.8745H141.71L142.595 51.1694V51.3169H141.268L139.793 51.1694L140.383 50.8745Z" fill="#A81F24"/>
<path d="M28.6074 47.6294H28.9023L29.1973 48.2192L29.0498 48.5142L28.46 48.6616L28.0176 49.2515L27.7227 49.104L28.6074 47.6294Z" fill="#A1383C"/>
<path d="M125.047 66.6523H126.374L127.701 66.7998V66.9473L124.752 67.0947V66.7998L125.047 66.6523Z" fill="#B6BABE"/>
<path d="M167.958 51.4644H168.105L167.958 54.2661H167.811L167.663 52.4966V52.0542L167.958 51.4644Z" fill="#A81F24"/>
</g>
<defs>
<clipPath id="clip0_112_1580">
<rect width="302" height="150.41" fill="white"/>
</clipPath>
</defs>
</svg>
