<svg width="70" height="70" viewBox="0 0 70 70" fill="none" xmlns="http://www.w3.org/2000/svg">
<g clip-path="url(#clip0_112_1680)">
<path d="M6.32324 0H52.0557V0.0683594L52.3633 0.136719L52.8076 0.307617L53.3203 0.581055L53.7988 0.991211L54.1406 1.36719L54.4141 1.81152L54.6191 2.22168L54.7559 2.66602L54.8242 3.11035L54.8584 3.8623V38.042L54.8242 38.6572L54.7217 38.9307L54.5166 39.2383L54.2773 39.4434L53.9014 39.5801H53.4229L53.0469 39.4434L52.7734 39.2041L52.5684 38.8965L52.5 38.623L52.4658 38.3154L52.4316 3.28125L52.2949 2.83691L52.0215 2.5293L51.6455 2.3584L51.4746 2.32422L7.51953 2.29004L6.80176 2.32422L6.42578 2.46094L6.18652 2.63184L5.94727 3.04199L5.87891 3.38379V47.8516L5.94727 48.1592L6.15234 48.501L6.35742 48.6719L6.59668 48.8086L6.9043 48.877L26.9336 48.9111L27.3096 49.0137L27.583 49.1846L27.8223 49.458L27.959 49.6973L28.0273 50.1074L27.959 50.4834L27.7539 50.8252L27.583 50.9961L27.3096 51.167L26.9336 51.2695H6.76758L6.11816 51.167L5.53711 50.9619L5.09277 50.7227L4.75098 50.4492L4.40918 50.1416L4.0332 49.6631L3.75977 49.1504L3.58887 48.6377L3.52051 48.3301L3.48633 48.0225L3.45215 46.8945V5.19531L3.48633 3.17871L3.58887 2.5293L3.82812 1.87988L4.13574 1.36719L4.51172 0.922852L4.95605 0.546875L5.43457 0.273438L5.81055 0.102539L6.28906 -0.0341797L6.32324 0Z" fill="#1B1B1B"/>
<path d="M42.8613 20.9863H43.4766L44.2285 21.0889L45.0488 21.3623L45.7324 21.7383L46.2109 22.1143L46.6211 22.4902L46.9971 22.9688L47.2705 23.4131L47.5439 23.9941L47.749 24.6777L47.8174 25.1221L47.8516 25.6006V39.9561L48.0908 39.9902L55.166 42.0068L61.1475 43.7158L62.4463 44.0918L63.3008 44.3311L63.916 44.5361L64.4287 44.8096L64.8389 45.1172L65.1807 45.4248L65.4199 45.6641L65.7617 46.1426L66.1035 46.792L66.3428 47.5098L66.4453 48.0566L66.5137 48.7744V54.1748L66.4453 55.7129L66.2744 57.5244L65.9668 59.3701L65.7275 60.3955L65.3857 61.6943L65.0439 62.7197L64.7021 63.6426L64.4971 64.2236L64.0869 65.1465L63.8477 65.6934L63.5059 66.3428L63.2324 66.8896L62.7881 67.6758L62.4463 68.2568L61.9336 69.0771L61.5576 69.624L61.3184 69.8291L60.9766 70H41.6309L41.5967 69.9316L41.3232 69.7949L40.9814 69.4873L40.5371 69.0088L40.2979 68.7354L39.9561 68.3594L39.6143 67.915L39.1699 67.3682L38.6914 66.7188L38.2129 66.0352L37.8369 65.4883L37.3242 64.7021L36.8799 63.9844L36.3672 63.0957L35.8887 62.2412L34.9316 60.5664L33.0859 56.875L32.5732 55.7471L31.958 54.4141L31.5137 53.3887L31.0693 52.3291L30.5908 51.167L30.0098 49.6973L29.5654 48.5352L29.3262 47.8174L29.1895 46.9629L29.2236 46.04L29.3945 45.2197L29.7021 44.4678L30.1807 43.7158L30.4199 43.4424H30.4883L30.5566 43.3057L30.7959 43.0664L31.4453 42.6221L31.958 42.3486L32.5391 42.1436L33.1543 42.0068L33.5645 41.9727H34.1797L34.7607 42.041L35.4102 42.2119L36.0254 42.4854L36.5039 42.7588L36.8457 43.0322L37.29 43.4424L37.6318 43.8867L37.9736 44.4336L38.3838 45.2197L38.4521 45.3223V27.2754L38.4863 25.3613L38.5889 24.6094L38.8623 23.7891L39.2725 23.0371L39.6484 22.5928L39.8877 22.3193L40.2637 21.9775L40.708 21.6699L41.4258 21.2939L42.0752 21.0889L42.4854 21.0205L42.8613 20.9863ZM42.9297 23.3447L42.4512 23.4473L42.041 23.6182L41.665 23.8916L41.3232 24.2334L41.0498 24.7119L40.8789 25.2246L40.8447 25.5322L40.8105 50.3125L40.708 50.6543L40.5029 50.9619L40.2295 51.167L39.9561 51.2695L39.8193 51.3037H39.5117L39.1699 51.2012L38.8623 50.9961L38.5889 50.6201L38.1104 49.7314L37.7002 48.9453L37.29 48.1934L36.6748 47.0312L36.1621 46.0742L35.7861 45.3906L35.5469 45.083L35.376 44.9121L35.1025 44.707L34.6924 44.502L34.3506 44.3994L34.1113 44.3652H33.5303L33.0518 44.4678L32.5732 44.707L32.1973 45.0146L31.958 45.3223L31.7188 45.8008L31.6162 46.2451L31.582 46.4502V46.8262L31.7188 47.4756L31.9922 48.2617L32.7441 50.1758L33.3936 51.7139L33.8721 52.8418L34.3848 53.9697L34.8291 54.9609L35.2051 55.7812L35.5469 56.499L36.7432 58.8916L37.2559 59.8486L37.7002 60.6348L38.0078 61.2158L38.4521 62.002L38.8965 62.7539L39.4092 63.5742L40.2295 64.8047L40.6396 65.3857L41.1182 66.001L41.4258 66.4111L41.8359 66.8896L42.1436 67.2656L42.4854 67.6416H60.0195L60.2246 67.334L60.7031 66.4795L61.0449 65.8984L61.3867 65.2832L61.8994 64.1895L62.4121 63.0273L62.7881 61.9678L63.1641 60.8057L63.5742 59.165L63.7451 58.2764L63.9502 56.9092L64.0869 55.3369L64.1211 54.1748L64.1553 52.0898V49.3213L64.1211 48.5352L64.0186 47.9883L63.8477 47.5439L63.6084 47.168L63.335 46.9287L62.9248 46.6895L61.9678 46.416H61.8652L61.7627 47.0312L61.5576 47.4072L61.3184 47.6123L61.0449 47.749L60.6348 47.8174L60.1904 47.7148L59.8828 47.5098L59.6777 47.2705L59.541 46.9287L59.5068 46.7578L59.4727 45.7324L59.2334 45.6299L57.4219 45.1172L57.1826 45.0488L57.1143 45.6299L56.9775 45.9717L56.7383 46.2451L56.3281 46.4502L56.123 46.4844H55.8154L55.4736 46.3818L55.2002 46.1768L54.9951 45.9375L54.8926 45.6641L54.8584 45.5273L54.8242 44.8438V44.4678L54.79 44.3652L53.1152 43.8867L52.6709 43.75L52.5 43.7842L52.4658 44.2627L52.3633 44.6045L52.124 44.9121L51.8164 45.1172L51.4062 45.2197L51.0303 45.1855L50.7568 45.083L50.415 44.7754L50.2441 44.4678L50.1758 44.1602L50.1416 43.0664L49.9023 42.9639L46.416 41.9727L45.9375 41.7334L45.6982 41.46L45.5615 41.1523L45.5273 41.0156L45.4932 40.5713L45.459 25.3271L45.3564 24.8828L45.083 24.3359L44.707 23.9258L44.3994 23.6865L43.8867 23.4473L43.4082 23.3447H42.9297Z" fill="#1B1B1B"/>
<path d="M30.0439 20.9863H30.6592L31.4111 21.0889L32.1289 21.3281L32.8467 21.7041L33.291 22.0459L33.6328 22.3535L33.9062 22.627L34.2822 23.1396L34.6924 23.9258L34.9316 24.7461L35 25.2588V26.0449L34.9316 26.5918L34.7266 27.3096L34.4531 27.8906L34.1797 28.335L33.9062 28.6768L33.5303 29.0869L32.9834 29.5312L32.3682 29.873L31.8896 30.0781L31.1035 30.2832L30.4541 30.3516H30.1465L29.3262 30.249L28.4033 29.9414L27.7881 29.5996L27.4805 29.3604L27.0361 28.9844L26.6943 28.6084L26.3867 28.1982L26.0449 27.583L25.7715 26.7627L25.7031 26.4551L25.6348 25.8057L25.6689 25.2246L25.7373 24.7119L25.9766 23.8916L26.3184 23.2422L26.626 22.7979L26.7285 22.6611H26.7969L26.8652 22.5244L27.1045 22.251L27.4805 21.9434L27.8564 21.6699L28.4375 21.3623L29.2578 21.0889L29.668 21.0205L30.0439 20.9863ZM30.1465 23.3447L29.7363 23.4131L29.292 23.584L28.916 23.8232L28.5742 24.1309L28.2666 24.6094L28.0957 25.0537L28.0273 25.3955V25.9766L28.1641 26.4893L28.4033 26.9678L28.6426 27.2754L29.1211 27.6514L29.5654 27.8564L30.0098 27.959H30.625L30.9668 27.8906L31.4111 27.7197L31.8555 27.4121L32.1631 27.1045L32.4023 26.7285L32.5732 26.25L32.6416 25.874V25.498L32.5732 25.0537L32.3682 24.541L32.0605 24.0967L31.7188 23.7891L31.2402 23.5156L30.7959 23.3789L30.5908 23.3447H30.1465Z" fill="#1B1B1B"/>
<path d="M29.0527 6.97266L29.7021 7.00684L30.2832 7.10938L31.001 7.34863L31.6504 7.69043L32.0264 7.96387L32.5049 8.37402L32.8125 8.71582L33.1885 9.2627L33.4619 9.80957L33.667 10.3564L33.7695 10.7666L33.8379 11.3135V12.0312L33.7354 12.7148L33.4619 13.5352L33.1201 14.1846L32.7783 14.6289L32.4365 15.0391L31.958 15.415L31.6162 15.6543L31.1035 15.9277L30.1807 16.2354L29.4629 16.3379H28.8135L28.0957 16.2354L27.2754 15.9619L26.5918 15.5859L26.2158 15.2783L25.7715 14.9023L25.4639 14.5264L25.1562 14.082L24.8486 13.501L24.6094 12.7832L24.5068 12.2363L24.4727 11.8945V11.4502L24.5752 10.6982L24.7803 10.0146L24.9512 9.60449L25.2246 9.12598L25.5322 8.71582L25.9082 8.30566L26.3184 7.92969L26.7969 7.62207L27.3779 7.31445L28.1641 7.0752L29.0527 6.97266ZM28.8477 9.36523L28.4717 9.43359L28.0957 9.60449L27.8223 9.77539L27.4805 10.083L27.2412 10.3564L26.9678 10.9033L26.8652 11.3818V11.9629L27.002 12.5098L27.207 12.9199L27.5146 13.2959L27.8906 13.6035L28.3691 13.8428L28.7451 13.9453L29.3262 13.9795L29.8389 13.877L30.249 13.7061L30.625 13.4668L31.0352 13.0566L31.2744 12.6465L31.4111 12.2705L31.4795 11.792V11.4844L31.377 10.9717L31.2061 10.5615L30.9668 10.1855L30.625 9.84375L30.1807 9.57031L29.7363 9.39941L29.5312 9.36523H28.8477Z" fill="#1B1B1B"/>
<path d="M43.1006 6.97266L43.9551 7.04102L44.502 7.17773L45.0146 7.34863L45.6641 7.69043L46.1084 8.03223L46.4502 8.33984L46.7236 8.61328L47.0654 9.05762L47.4756 9.80957L47.7148 10.5273L47.8174 11.1426L47.8516 11.4844L47.8174 12.2363L47.7148 12.7832L47.4414 13.6035L47.0312 14.3213L46.6553 14.7656L46.416 15.0391L45.9717 15.415L45.4932 15.7227L44.8438 16.0303L44.1602 16.2354L43.4424 16.3379H42.8271L42.1094 16.2354L41.2891 15.9619L40.708 15.6543L40.332 15.3809L39.8877 15.0049L39.5117 14.5947L39.1699 14.1162L38.8623 13.5352L38.5889 12.7148L38.4863 11.9971V11.3477L38.5889 10.6299L38.7939 9.98047L38.9307 9.67285L39.2383 9.0918L39.5117 8.75L39.8193 8.37402L40.1953 8.03223L40.6738 7.69043L41.1523 7.41699L41.665 7.21191L42.3828 7.04102L43.1006 6.97266ZM42.793 9.36523L42.2803 9.50195L41.8018 9.77539L41.4258 10.1172L41.1523 10.4932L40.9473 10.9717L40.8447 11.5186V11.8604L40.9473 12.3389L41.1182 12.749L41.3574 13.125L41.7334 13.501L42.2119 13.7744L42.5879 13.9111L43.0322 13.9795H43.3398L43.8525 13.877L44.2627 13.7061L44.6045 13.4668L44.9121 13.1934L45.2197 12.749L45.3906 12.3047L45.459 11.9971V11.3477L45.3223 10.8008L45.0488 10.2881L44.707 9.91211L44.2627 9.60449L43.8184 9.43359L43.5449 9.36523H42.793Z" fill="#1B1B1B"/>
<path d="M15.0732 6.97266L15.6885 7.00684L16.2695 7.10938L16.8506 7.28027L17.3975 7.55371L17.8076 7.79297L18.1836 8.10059L18.5254 8.4082L18.833 8.75L19.1406 9.19434L19.4141 9.67285L19.6533 10.3223L19.79 10.9033L19.8242 11.1768V12.0996L19.7559 12.6465L19.5166 13.3984L19.2432 13.9453L19.0039 14.3555L18.6279 14.7998L18.3887 15.0732L18.0127 15.3809L17.6709 15.6201L16.9531 15.9961L16.167 16.2354L15.4492 16.3379H14.834L14.1162 16.2354L13.2959 15.9619L12.6465 15.6201L12.168 15.2441L11.8262 14.9365L11.4844 14.5605L11.1768 14.1162L10.835 13.4668L10.5957 12.7148L10.4932 12.0312V11.3477L10.5615 10.7324L10.8008 9.94629L11.0742 9.39941L11.2793 9.02344L11.6895 8.54492L11.9287 8.27148L12.4072 7.86133L12.8516 7.58789L13.3984 7.31445L13.9111 7.14355L14.3896 7.04102L15.0732 6.97266ZM14.834 9.36523L14.2871 9.50195L13.9111 9.70703L13.5693 9.98047L13.2617 10.3223L12.9883 10.835L12.8857 11.2451L12.8516 11.4844V11.8945L12.9883 12.4756L13.2275 12.9541L13.5352 13.3301L13.9453 13.6377L14.3555 13.8428L14.7656 13.9453L15.3125 13.9795L15.8594 13.877L16.4404 13.6035L16.8848 13.2275L17.1582 12.8516L17.3633 12.4072L17.4658 11.9287V11.416L17.3633 10.9375L17.1924 10.5273L16.9531 10.1855L16.7822 9.98047L16.3721 9.67285L15.9277 9.46777L15.5176 9.36523H14.834Z" fill="#1B1B1B"/>
<path d="M14.8682 20.9863H15.4834L16.0645 21.0547L16.7822 21.2598L17.2266 21.4648L17.7734 21.7725L18.252 22.1484L18.5938 22.4561L18.9697 22.9346L19.209 23.3105L19.4824 23.8232L19.7559 24.6777L19.8242 25.2246V26.1133L19.7559 26.626L19.5508 27.3096L19.3799 27.6855L19.1064 28.1982L18.833 28.5742L18.3545 29.0869L17.9102 29.4629L17.4658 29.7363L16.9189 30.0098L16.0986 30.249L15.2783 30.3516H14.9707L14.1504 30.249L13.3301 29.9756L12.6123 29.5996L12.2705 29.3262L11.9287 29.0186L11.7578 28.8477L11.3818 28.4375L11.1084 27.9932L10.835 27.4463L10.6299 26.8311L10.5273 26.3525L10.4932 26.0449V25.3271L10.5957 24.6094L10.8691 23.7891L11.2109 23.1396L11.5527 22.6953L11.8604 22.3535L12.0996 22.1143L12.5439 21.7725L13.0225 21.499L13.4326 21.2939L14.082 21.0889L14.4922 21.0205L14.8682 20.9863ZM15.0049 23.3447L14.5605 23.4131L14.1162 23.584L13.7402 23.8232L13.5352 23.9941L13.2617 24.3359L13.0908 24.6436L12.9541 24.9854L12.8516 25.4639V25.874L12.9541 26.3525L13.125 26.7627L13.3643 27.1387L13.6719 27.4463L14.1504 27.7539L14.5264 27.8906L14.8682 27.959H15.4492L15.9277 27.8564L16.4746 27.583L16.8848 27.207L17.0898 26.9678L17.3291 26.5234L17.4658 25.9424V25.3955L17.3633 24.917L17.0898 24.3701L16.8848 24.0967L16.6455 23.8574L16.2695 23.6182L15.8936 23.4473L15.415 23.3447H15.0049Z" fill="#1B1B1B"/>
<path d="M14.7314 35H15.6543L16.3037 35.1025L16.9873 35.3418L17.7051 35.7178L18.0469 35.9912L18.4229 36.2988L18.6621 36.5381L19.1064 37.1191L19.5166 37.9053L19.7217 38.5547L19.8242 39.2041V40.127L19.7559 40.6396L19.5508 41.3232L19.2432 41.9727L19.0039 42.3486L18.5596 42.8955L18.1152 43.3057L17.6709 43.6133L17.0557 43.9551L16.2012 44.2285L15.4492 44.3311H14.8682L14.2529 44.2627L13.4326 44.0234L12.8857 43.75L12.4072 43.4424L11.9629 43.0664L11.6211 42.7246L11.2109 42.1777L10.9375 41.6992L10.7324 41.1865L10.5615 40.5713L10.4932 40.0244V39.3408L10.5615 38.7256L10.8008 37.9395L11.0742 37.3926L11.3477 36.9482L11.792 36.4014L12.168 36.0596L12.6123 35.7178L13.3984 35.3076L14.1846 35.0684L14.7314 35ZM14.834 37.3584L14.3896 37.4609L13.9795 37.666L13.6035 37.9395L13.2617 38.3154L12.9883 38.8623L12.8857 39.2383L12.8516 39.4775V39.8877L12.9541 40.3662L13.125 40.7764L13.4326 41.2207L13.7744 41.5283L14.2529 41.8018L14.6973 41.9385L15.0049 41.9727H15.3125L15.7568 41.9043L16.2012 41.7334L16.5771 41.4941L16.9189 41.1865L17.124 40.9131L17.3291 40.5029L17.4658 39.9561V39.4092L17.3633 38.9307L17.1924 38.5205L16.9189 38.1445L16.748 37.9736L16.4746 37.7344L15.9277 37.4609L15.4492 37.3584H14.834Z" fill="#1B1B1B"/>
<path d="M29.9072 35H30.8643L31.4453 35.1025L32.1631 35.3418L32.8125 35.6836L33.3594 36.0938L33.7695 36.4697L34.1455 36.9482L34.4531 37.4268L34.7607 38.1104L34.9316 38.7256V39.3066L34.7266 39.7168L34.5557 39.9219L34.2822 40.0928L33.9062 40.1953H33.6328L33.1885 40.0586L32.8467 39.751L32.6416 39.3408L32.4365 38.7598L32.1973 38.3154L31.8896 37.9736L31.582 37.7344L31.1035 37.4951L30.6592 37.3926H30.0098L29.4629 37.5293L29.0869 37.7344L28.7451 38.0078L28.4717 38.3154L28.1982 38.8623L28.0615 39.375V39.9902L28.1982 40.5029L28.4033 40.9131L28.7109 41.3574L28.8477 41.5967L28.916 41.9043V42.1436L28.8477 42.4512L28.6084 42.793L28.3691 42.998L28.0957 43.1348L27.959 43.1689H27.5146L27.207 43.0664L26.9336 42.8613L26.7627 42.6904L26.4209 42.2461L26.1475 41.7676L25.9424 41.3232L25.7373 40.6055L25.6689 40.1953L25.6348 39.8535V39.5117L25.7373 38.6914L25.9766 37.9053L26.25 37.3584L26.4893 36.9824L26.7627 36.6406L27.0703 36.2988L27.4121 35.9912L27.7881 35.7178L28.4033 35.376L28.9844 35.1709L29.5312 35.0342L29.9072 35Z" fill="#1B1B1B"/>
</g>
<defs>
<clipPath id="clip0_112_1680">
<rect width="70" height="70" fill="white"/>
</clipPath>
</defs>
</svg>
