<svg width="45" height="54" viewBox="0 0 45 54" fill="none" xmlns="http://www.w3.org/2000/svg">
<g clip-path="url(#clip0_112_1054)">
<path d="M22.4009 0H22.8257L23.1797 0.0566406L23.5054 0.141602L23.7178 0.226562L24.0151 0.382324L24.1992 0.509766L24.3833 0.665527L24.5391 0.792969L24.709 0.991211L24.8506 1.17529L24.9922 1.40186L25.1196 1.6709L25.2188 1.96826L25.2754 2.22314L25.3037 2.46387L25.3179 3.21436L25.4595 3.24268L25.9268 3.39844L26.4365 3.61084L26.7622 3.75244L27.2012 3.979L27.5269 4.16309L27.7393 4.29053L27.98 4.46045L28.2773 4.65869L28.4614 4.80029L28.6455 4.95605L28.7871 5.06934L28.9712 5.2251L29.127 5.35254L29.6509 5.87646L29.75 5.98975L29.9341 6.20215L30.0898 6.40039L30.2598 6.59863L30.4297 6.83936L30.7695 7.34912L30.897 7.56152L31.0952 7.92969L31.2651 8.24121L31.4492 8.66602L31.6475 9.14746L31.8032 9.61475L31.9307 10.082L32.0581 10.6768L32.1289 11.144L32.1714 11.5405L32.1855 11.7529V23.3501L32.1289 23.5767L32.0298 23.8032L31.9023 23.9731L31.8032 24.0864L31.5908 24.2422L31.2651 24.4121L30.9111 24.5679L30.4438 24.752L29.8633 24.9502L29.2402 25.1343L28.5464 25.3042L27.9375 25.4316L27.3994 25.5308L26.6489 25.644L25.9409 25.729L25.4028 25.7856L25.3179 25.7998L25.3037 26.5645L25.2471 26.9326L25.1479 27.2725L25.0347 27.5273L24.9072 27.7539L24.7939 27.9097L24.6382 28.0938L24.5107 28.2354L24.355 28.377L24.2134 28.4902L24.0293 28.6177L23.8877 28.7026L23.6045 28.8301L23.2363 28.9434L22.939 29H22.3018L21.792 28.8726L21.5371 28.7734L21.2397 28.6177L21.0132 28.4478L20.7158 28.1929L20.5884 28.0371L20.4468 27.8672L20.3193 27.6689L20.2061 27.4424L20.0928 27.1733L20.0078 26.8335L19.9795 26.6636L19.9653 26.4937V25.7432L19.4131 25.6865L18.5918 25.5591L18.167 25.4883L17.4731 25.3467L16.9067 25.2192L15.9722 24.9785L14.8252 24.6245L13.9614 24.313L13.6924 24.1997L13.5508 24.1006L13.4517 24.0156L13.3525 23.9023L13.2393 23.7607L13.126 23.52L13.0693 23.2935L13.0552 23.0811V11.9512L13.0977 11.3848L13.1685 10.8608L13.2676 10.3511L13.3667 9.94043L13.4658 9.58643L13.6357 9.09082L13.8481 8.58105L14.0181 8.19873L14.2446 7.77393L14.3296 7.63232L14.4146 7.4624L14.5278 7.29248L14.8252 6.85352L14.9385 6.68359L15.0942 6.49951L15.1934 6.37207L15.3491 6.18799L15.4624 6.04639L15.5898 5.90479L16.2271 5.26758L16.3828 5.14014L16.5669 4.98438L16.7651 4.82861L16.9209 4.70117L17.2607 4.47461L17.459 4.33301L17.7139 4.17725L18.0962 3.96484L18.4644 3.7666L19.1865 3.45508L19.3989 3.37012L19.8379 3.22852L19.937 3.2002L19.9512 3.07275L19.9653 2.49219L19.9937 2.25146L20.0645 1.92578L20.1777 1.61426L20.291 1.3877L20.4326 1.16113L20.5884 0.977051L20.7158 0.821289L20.8433 0.693848L21.0415 0.538086L21.2114 0.410645L21.438 0.283203L21.6504 0.184082L22.0186 0.0708008L22.4009 0ZM22.4858 1.35938L22.2168 1.41602L21.9902 1.51514L21.8486 1.6001L21.707 1.71338L21.6079 1.79834L21.4663 1.98242L21.353 2.18066L21.2822 2.36475L21.2256 2.64795L21.2114 2.91699H21.3389L21.877 2.86035L22.5 2.83203L22.585 2.81787H22.7124L22.7974 2.83203L23.1797 2.84619L23.6895 2.88867L23.9443 2.91699H24.0435V2.60547L23.9868 2.35059L23.916 2.1665L23.7886 1.93994L23.6187 1.75586L23.4912 1.64258L23.293 1.51514L23.0522 1.41602L22.8682 1.37354L22.6841 1.35938H22.4858ZM22.2593 4.34717L21.7778 4.38965L21.2256 4.46045L20.6309 4.58789L20.3193 4.67285L19.7104 4.87109L19.3423 5.02686L18.8467 5.25342L18.4927 5.45166L18.1812 5.63574L17.9546 5.7915L17.7139 5.96143L17.4873 6.13135L17.2749 6.31543L17.0767 6.48535L16.9351 6.61279L16.8784 6.65527V6.68359H16.8501L16.751 6.79688L16.5386 7.00928V7.0376H16.5103L16.4111 7.15088L16.2979 7.27832L16.1987 7.40576L16.043 7.604L15.8589 7.84473L15.6182 8.21289L15.4482 8.48193L15.25 8.8501L15.0518 9.24658L14.811 9.85547L14.7119 10.1528L14.542 10.7617L14.4429 11.2856L14.3862 11.6255L14.3438 12.0503L14.3296 12.2769V23.1094L15.4341 23.4917L16.1279 23.7041L16.5244 23.8174L17.4448 24.0439L18.3511 24.228L18.9316 24.3271L19.7104 24.4404L20.5176 24.5254L21.2539 24.582L21.7637 24.6104L22.5708 24.6245H23.0664L23.7886 24.6104L24.6665 24.5679L25.2754 24.5254L25.9976 24.4546L26.6772 24.3696L27.3003 24.2705L27.98 24.1431L28.6455 23.9873L29.2544 23.8174L29.8633 23.6191L30.3447 23.4351L30.8545 23.2085L30.9395 23.166V12.1636L30.8828 11.6255L30.812 11.1299L30.6562 10.4502L30.458 9.84131L30.3447 9.52979L30.0757 8.93506L29.8916 8.59521L29.6934 8.25537L29.5234 8.00049L29.3252 7.71729L29.1978 7.54736L29.0703 7.3916L28.9429 7.25L28.8154 7.09424L28.6455 6.91016L28.3481 6.61279L28.2349 6.51367L28.1357 6.41455L27.9375 6.25879L27.7676 6.11719L27.5693 5.96143L27.3003 5.77734L27.0171 5.59326L26.7197 5.40918L26.3232 5.21094L26.0825 5.0835L25.5869 4.88525L25.332 4.78613L24.6382 4.58789L24.2417 4.50293L23.6611 4.40381L23.2505 4.36133L23.0239 4.34717H22.2593ZM21.2256 26.0972V26.3521L21.2681 26.5928L21.3389 26.8052L21.4521 27.0176L21.5654 27.1592L21.6787 27.2866L21.8911 27.4424L22.1177 27.5557L22.2734 27.6123L22.415 27.6406L22.5566 27.6548H22.769L23.0381 27.5981L23.2646 27.5132L23.4487 27.3999L23.6045 27.2725L23.7036 27.1733L23.8452 26.9893L23.9585 26.7627L24.0293 26.5078L24.0576 26.1963V26.1113L24.0435 26.0972H21.2256Z" fill="white"/>
</g>
<path d="M18.7903 37.3722C18.7903 37.2611 18.7732 37.1614 18.739 37.0731C18.7077 36.982 18.6479 36.8994 18.5596 36.8253C18.4713 36.7484 18.3474 36.6729 18.1879 36.5989C18.0284 36.5248 17.8219 36.4479 17.5684 36.3682C17.2864 36.277 17.0187 36.1745 16.7652 36.0605C16.5145 35.9466 16.2923 35.8142 16.0987 35.6632C15.9078 35.5094 15.7569 35.3314 15.6458 35.1292C15.5375 34.9269 15.4834 34.6919 15.4834 34.4242C15.4834 34.165 15.5404 33.93 15.6543 33.7192C15.7683 33.5056 15.9278 33.3233 16.1328 33.1724C16.3379 33.0186 16.58 32.9003 16.8592 32.8177C17.1411 32.7351 17.4502 32.6938 17.7863 32.6938C18.2449 32.6938 18.645 32.7764 18.9868 32.9417C19.3286 33.1069 19.5935 33.3333 19.7815 33.621C19.9724 33.9087 20.0678 34.2376 20.0678 34.6079H18.7946C18.7946 34.4256 18.7561 34.2661 18.6792 34.1294C18.6052 33.9898 18.4912 33.8802 18.3374 33.8004C18.1865 33.7207 17.9956 33.6808 17.7649 33.6808C17.5427 33.6808 17.3576 33.715 17.2095 33.7833C17.0614 33.8488 16.9503 33.9386 16.8762 34.0525C16.8022 34.1636 16.7652 34.2889 16.7652 34.4285C16.7652 34.5339 16.7908 34.6293 16.8421 34.7147C16.8962 34.8002 16.9759 34.8799 17.0813 34.954C17.1867 35.028 17.3163 35.0978 17.4701 35.1633C17.6239 35.2288 17.8019 35.2929 18.0042 35.3556C18.3431 35.4581 18.6408 35.5735 18.8971 35.7017C19.1563 35.8298 19.3728 35.9737 19.5465 36.1332C19.7203 36.2927 19.8513 36.4736 19.9396 36.6758C20.0279 36.878 20.072 37.1073 20.072 37.3636C20.072 37.6342 20.0194 37.8763 19.914 38.09C19.8086 38.3036 19.6562 38.4845 19.4568 38.6326C19.2574 38.7807 19.0196 38.8932 18.7433 38.9701C18.467 39.047 18.158 39.0854 17.8162 39.0854C17.5086 39.0854 17.2052 39.0456 16.9062 38.9658C16.6071 38.8832 16.3351 38.7593 16.0901 38.5941C15.848 38.4289 15.6543 38.2181 15.5091 37.9618C15.3638 37.7054 15.2912 37.4021 15.2912 37.0518H16.5772C16.5772 37.2454 16.6071 37.4092 16.6669 37.5431C16.7267 37.677 16.8107 37.7852 16.919 37.8678C17.0301 37.9504 17.1611 38.0102 17.312 38.0472C17.4658 38.0843 17.6339 38.1028 17.8162 38.1028C18.0384 38.1028 18.2206 38.0715 18.3631 38.0088C18.5083 37.9461 18.6151 37.8593 18.6835 37.7482C18.7547 37.6371 18.7903 37.5118 18.7903 37.3722ZM23.9569 39.0854C23.598 39.0854 23.2762 39.0285 22.9913 38.9146C22.7065 38.7978 22.4644 38.6368 22.265 38.4318C22.0685 38.2267 21.9175 37.9889 21.8121 37.7183C21.7067 37.4448 21.6541 37.1543 21.6541 36.8467V36.6758C21.6541 36.3254 21.7039 36.005 21.8036 35.7145C21.9033 35.424 22.0457 35.1719 22.2308 34.9583C22.4188 34.7446 22.6467 34.5809 22.9144 34.4669C23.1822 34.3501 23.4841 34.2917 23.8202 34.2917C24.1477 34.2917 24.4383 34.3459 24.6918 34.4541C24.9453 34.5623 25.1575 34.7161 25.3284 34.9155C25.5021 35.1149 25.6331 35.3542 25.7214 35.6333C25.8097 35.9096 25.8539 36.2172 25.8539 36.5562V37.0688H22.1796V36.2485H24.6448V36.1545C24.6448 35.9836 24.6134 35.8313 24.5508 35.6974C24.491 35.5607 24.3998 35.4524 24.2773 35.3727C24.1549 35.2929 23.9982 35.2531 23.8074 35.2531C23.645 35.2531 23.5055 35.2887 23.3887 35.3599C23.2719 35.4311 23.1765 35.5308 23.1024 35.6589C23.0312 35.7871 22.9771 35.9381 22.9401 36.1118C22.9059 36.2827 22.8888 36.4707 22.8888 36.6758V36.8467C22.8888 37.0318 22.9144 37.2027 22.9657 37.3594C23.0198 37.516 23.0953 37.6513 23.1921 37.7653C23.2918 37.8792 23.4115 37.9675 23.551 38.0302C23.6934 38.0928 23.8544 38.1241 24.0338 38.1241C24.256 38.1241 24.4625 38.0814 24.6533 37.996C24.847 37.9077 25.0136 37.7752 25.1532 37.5986L25.7513 38.248C25.6545 38.3876 25.5221 38.5215 25.354 38.6497C25.1888 38.7778 24.9894 38.8832 24.7559 38.9658C24.5223 39.0456 24.256 39.0854 23.9569 39.0854ZM29.7815 34.3772V35.2488H27.0898V34.3772H29.7815ZM27.7563 33.2365H28.9868V37.6072C28.9868 37.741 29.0039 37.8436 29.0381 37.9148C29.0751 37.986 29.1292 38.0358 29.2004 38.0643C29.2716 38.09 29.3613 38.1028 29.4696 38.1028C29.5465 38.1028 29.6148 38.0999 29.6747 38.0942C29.7373 38.0857 29.79 38.0771 29.8327 38.0686L29.837 38.9744C29.7316 39.0085 29.6177 39.0356 29.4952 39.0555C29.3727 39.0755 29.2374 39.0854 29.0893 39.0854C28.8187 39.0854 28.5823 39.0413 28.3801 38.953C28.1807 38.8619 28.0269 38.7166 27.9187 38.5172C27.8104 38.3178 27.7563 38.0558 27.7563 37.7311V33.2365ZM0.691309 44.7793H3.01126C3.48692 44.7793 3.89565 44.8505 4.23745 44.9929C4.5821 45.1353 4.84699 45.3461 5.03213 45.6252C5.21727 45.9044 5.30984 46.2476 5.30984 46.6549C5.30984 46.9882 5.25287 47.2744 5.13894 47.5137C5.02786 47.7501 4.86978 47.948 4.6647 48.1075C4.46247 48.2642 4.22463 48.3895 3.9512 48.4835L3.54531 48.6971H1.52871L1.52017 47.6974H3.0198C3.24482 47.6974 3.43138 47.6575 3.57949 47.5778C3.7276 47.498 3.83869 47.3869 3.91274 47.2445C3.98965 47.1021 4.0281 46.9369 4.0281 46.7489C4.0281 46.5495 3.99107 46.3772 3.91702 46.2319C3.84296 46.0867 3.73045 45.9756 3.57949 45.8987C3.42853 45.8218 3.23912 45.7833 3.01126 45.7833H1.97305V51H0.691309V44.7793ZM4.16909 51L2.75064 48.2272L4.10501 48.2186L5.54055 50.9402V51H4.16909ZM9.31006 51.0854C8.95117 51.0854 8.62931 51.0285 8.34448 50.9146C8.05965 50.7978 7.81755 50.6368 7.61816 50.4318C7.42163 50.2267 7.27067 49.9889 7.16528 49.7183C7.0599 49.4448 7.0072 49.1543 7.0072 48.8467V48.6758C7.0072 48.3254 7.05705 48.005 7.15674 47.7145C7.25643 47.424 7.39884 47.1719 7.58398 46.9583C7.77197 46.7446 7.99984 46.5809 8.26758 46.4669C8.53532 46.3501 8.83724 46.2917 9.17334 46.2917C9.5009 46.2917 9.79142 46.3459 10.0449 46.4541C10.2984 46.5623 10.5106 46.7161 10.6815 46.9155C10.8553 47.1149 10.9863 47.3542 11.0746 47.6333C11.1629 47.9096 11.207 48.2172 11.207 48.5562V49.0688H7.53272V48.2485H9.99793V48.1545C9.99793 47.9836 9.96659 47.8313 9.90393 47.6974C9.84412 47.5607 9.75297 47.4524 9.63049 47.3727C9.50802 47.2929 9.35136 47.2531 9.16052 47.2531C8.99817 47.2531 8.8586 47.2887 8.74182 47.3599C8.62504 47.4311 8.52962 47.5308 8.45557 47.6589C8.38436 47.7871 8.33024 47.9381 8.29321 48.1118C8.25903 48.2827 8.24194 48.4707 8.24194 48.6758V48.8467C8.24194 49.0318 8.26758 49.2027 8.31885 49.3594C8.37297 49.516 8.44845 49.6513 8.54529 49.7653C8.64498 49.8792 8.76461 49.9675 8.90418 50.0302C9.04659 50.0928 9.20752 50.1241 9.38696 50.1241C9.60913 50.1241 9.81563 50.0814 10.0065 49.996C10.2002 49.9077 10.3668 49.7752 10.5063 49.5986L11.1045 50.248C11.0077 50.3876 10.8752 50.5215 10.7072 50.6497C10.542 50.7778 10.3426 50.8832 10.109 50.9658C9.87545 51.0456 9.60913 51.0854 9.31006 51.0854ZM14.1007 47.3342V51H12.8659V46.3772H14.0238L14.1007 47.3342ZM13.9298 48.5262H13.588C13.588 48.2044 13.6264 47.9082 13.7033 47.6376C13.7831 47.3641 13.8985 47.1277 14.0494 46.9283C14.2032 46.7261 14.3926 46.5695 14.6177 46.4584C14.8427 46.3473 15.1033 46.2917 15.3995 46.2917C15.6046 46.2917 15.7926 46.3231 15.9635 46.3857C16.1344 46.4456 16.2811 46.541 16.4035 46.672C16.5289 46.8002 16.6257 46.9682 16.6941 47.1761C16.7624 47.3812 16.7966 47.6276 16.7966 47.9153V51H15.5661V48.052C15.5661 47.8412 15.5377 47.6789 15.4807 47.5649C15.4237 47.451 15.3425 47.3713 15.2372 47.3257C15.1346 47.2801 15.0107 47.2573 14.8655 47.2573C14.7059 47.2573 14.5664 47.2901 14.4468 47.3556C14.33 47.4211 14.2331 47.5122 14.1562 47.629C14.0793 47.743 14.0224 47.8768 13.9853 48.0306C13.9483 48.1844 13.9298 48.3497 13.9298 48.5262ZM16.6813 48.3853L16.2412 48.4408C16.2412 48.1389 16.2782 47.8583 16.3523 47.5991C16.4292 47.3399 16.5417 47.1121 16.6898 46.9155C16.8408 46.719 17.0273 46.5666 17.2495 46.4584C17.4717 46.3473 17.728 46.2917 18.0185 46.2917C18.2407 46.2917 18.4429 46.3245 18.6252 46.39C18.8075 46.4527 18.9627 46.5538 19.0909 46.6934C19.2219 46.8301 19.3216 47.0095 19.39 47.2317C19.4612 47.4539 19.4968 47.7259 19.4968 48.0477V51H18.2621V48.0477C18.2621 47.8341 18.2336 47.6718 18.1766 47.5607C18.1225 47.4467 18.0427 47.3684 17.9374 47.3257C17.8348 47.2801 17.7123 47.2573 17.5699 47.2573C17.4218 47.2573 17.2922 47.2872 17.1811 47.347C17.07 47.404 16.9775 47.4838 16.9034 47.5863C16.8294 47.6888 16.7738 47.8085 16.7368 47.9452C16.6998 48.0791 16.6813 48.2257 16.6813 48.3853ZM22.7109 46.3772V51H21.4761V46.3772H22.7109ZM21.3992 45.1724C21.3992 44.9929 21.4619 44.8448 21.5872 44.728C21.7126 44.6112 21.8806 44.5529 22.0914 44.5529C22.2993 44.5529 22.4659 44.6112 22.5913 44.728C22.7194 44.8448 22.7835 44.9929 22.7835 45.1724C22.7835 45.3518 22.7194 45.4999 22.5913 45.6167C22.4659 45.7335 22.2993 45.7919 22.0914 45.7919C21.8806 45.7919 21.7126 45.7335 21.5872 45.6167C21.4619 45.4999 21.3992 45.3518 21.3992 45.1724ZM25.8951 47.3641V51H24.6646V46.3772H25.8182L25.8951 47.3641ZM25.7156 48.5262H25.3824C25.3824 48.1844 25.4265 47.8768 25.5148 47.6034C25.6031 47.3271 25.727 47.0921 25.8865 46.8984C26.046 46.7019 26.2354 46.5524 26.4548 46.4498C26.6769 46.3444 26.9247 46.2917 27.1982 46.2917C27.4146 46.2917 27.6126 46.3231 27.792 46.3857C27.9715 46.4484 28.1253 46.5481 28.2535 46.6848C28.3845 46.8215 28.4842 47.0024 28.5525 47.2274C28.6237 47.4524 28.6594 47.7273 28.6594 48.052V51H27.4203V48.0477C27.4203 47.8427 27.3919 47.6831 27.3349 47.5692C27.2779 47.4553 27.1939 47.3755 27.0828 47.33C26.9746 47.2815 26.8407 47.2573 26.6812 47.2573C26.516 47.2573 26.3722 47.2901 26.2497 47.3556C26.1301 47.4211 26.0304 47.5122 25.9506 47.629C25.8737 47.743 25.8153 47.8768 25.7754 48.0306C25.7356 48.1844 25.7156 48.3497 25.7156 48.5262ZM33.2876 49.9917V44.4375H34.5266V51H33.4115L33.2876 49.9917ZM30.3653 48.7441V48.6544C30.3653 48.3012 30.4051 47.9808 30.4849 47.6931C30.5646 47.4026 30.6814 47.1534 30.8352 46.9454C30.989 46.7375 31.1785 46.5766 31.4035 46.4626C31.6285 46.3487 31.8848 46.2917 32.1725 46.2917C32.4431 46.2917 32.6795 46.3487 32.8817 46.4626C33.0868 46.5766 33.2606 46.7389 33.403 46.9497C33.5482 47.1576 33.665 47.404 33.7533 47.6888C33.8416 47.9708 33.9057 48.2799 33.9456 48.616V48.8125C33.9057 49.1344 33.8416 49.4334 33.7533 49.7097C33.665 49.986 33.5482 50.2281 33.403 50.436C33.2606 50.6411 33.0868 50.8006 32.8817 50.9146C32.6767 51.0285 32.4374 51.0854 32.164 51.0854C31.8763 51.0854 31.6199 51.0271 31.3949 50.9103C31.1728 50.7935 30.9848 50.6297 30.831 50.4189C30.68 50.2082 30.5646 49.9604 30.4849 49.6755C30.4051 49.3907 30.3653 49.0802 30.3653 48.7441ZM31.5957 48.6544V48.7441C31.5957 48.935 31.61 49.113 31.6385 49.2782C31.6698 49.4434 31.7196 49.5901 31.788 49.7183C31.8592 49.8436 31.9503 49.9419 32.0614 50.0131C32.1754 50.0814 32.3135 50.1156 32.4759 50.1156C32.6866 50.1156 32.8604 50.0686 32.9971 49.9746C33.1338 49.8778 33.2378 49.7453 33.309 49.5773C33.383 49.4092 33.4258 49.2155 33.4372 48.9962V48.4365C33.4286 48.2571 33.403 48.0962 33.3603 47.9537C33.3204 47.8085 33.2606 47.6846 33.1808 47.582C33.1039 47.4795 33.0071 47.3997 32.8903 47.3428C32.7764 47.2858 32.6411 47.2573 32.4844 47.2573C32.3249 47.2573 32.1882 47.2944 32.0742 47.3684C31.9603 47.4396 31.8677 47.5379 31.7965 47.6632C31.7282 47.7885 31.6769 47.9366 31.6427 48.1075C31.6114 48.2756 31.5957 48.4579 31.5957 48.6544ZM38.5781 51.0854C38.2192 51.0854 37.8974 51.0285 37.6125 50.9146C37.3277 50.7978 37.0856 50.6368 36.8862 50.4318C36.6897 50.2267 36.5387 49.9889 36.4333 49.7183C36.328 49.4448 36.2753 49.1543 36.2753 48.8467V48.6758C36.2753 48.3254 36.3251 48.005 36.4248 47.7145C36.5245 47.424 36.6669 47.1719 36.8521 46.9583C37.04 46.7446 37.2679 46.5809 37.5356 46.4669C37.8034 46.3501 38.1053 46.2917 38.4414 46.2917C38.769 46.2917 39.0595 46.3459 39.313 46.4541C39.5665 46.5623 39.7787 46.7161 39.9496 46.9155C40.1233 47.1149 40.2544 47.3542 40.3427 47.6333C40.4309 47.9096 40.4751 48.2172 40.4751 48.5562V49.0688H36.8008V48.2485H39.266V48.1545C39.266 47.9836 39.2347 47.8313 39.172 47.6974C39.1122 47.5607 39.021 47.4524 38.8986 47.3727C38.7761 47.2929 38.6194 47.2531 38.4286 47.2531C38.2662 47.2531 38.1267 47.2887 38.0099 47.3599C37.8931 47.4311 37.7977 47.5308 37.7236 47.6589C37.6524 47.7871 37.5983 47.9381 37.5613 48.1118C37.5271 48.2827 37.51 48.4707 37.51 48.6758V48.8467C37.51 49.0318 37.5356 49.2027 37.5869 49.3594C37.641 49.516 37.7165 49.6513 37.8134 49.7653C37.913 49.8792 38.0327 49.9675 38.1722 50.0302C38.3147 50.0928 38.4756 50.1241 38.655 50.1241C38.8772 50.1241 39.0837 50.0814 39.2745 49.996C39.4682 49.9077 39.6348 49.7752 39.7744 49.5986L40.3726 50.248C40.2757 50.3876 40.1433 50.5215 39.9752 50.6497C39.81 50.7778 39.6106 50.8832 39.3771 50.9658C39.1435 51.0456 38.8772 51.0854 38.5781 51.0854ZM43.3688 47.3855V51H42.1383V46.3772H43.2961L43.3688 47.3855ZM44.7616 46.3473L44.7402 47.488C44.6804 47.4795 44.6078 47.4724 44.5223 47.4667C44.4397 47.4581 44.3642 47.4539 44.2959 47.4539C44.1221 47.4539 43.9712 47.4766 43.843 47.5222C43.7177 47.5649 43.6123 47.629 43.5268 47.7145C43.4442 47.7999 43.3816 47.9039 43.3388 48.0264C43.299 48.1488 43.2762 48.2884 43.2705 48.4451L43.0227 48.3682C43.0227 48.0691 43.0526 47.7942 43.1124 47.5436C43.1722 47.2901 43.2591 47.0693 43.373 46.8813C43.4898 46.6934 43.6322 46.5481 43.8003 46.4456C43.9683 46.343 44.1606 46.2917 44.3771 46.2917C44.4454 46.2917 44.5152 46.2974 44.5864 46.3088C44.6576 46.3174 44.716 46.3302 44.7616 46.3473Z" fill="white"/>
<defs>
<clipPath id="clip0_112_1054">
<rect width="29" height="29" fill="white" transform="translate(8)"/>
</clipPath>
</defs>
</svg>
