<svg width="64" height="64" viewBox="0 0 64 64" fill="none" xmlns="http://www.w3.org/2000/svg">
<g clip-path="url(#clip0_112_1702)">
<path d="M4.625 0.8125L6.75 0.84375L7.4375 0.90625L8.03125 1.03125L8.59375 1.1875L9.40625 1.53125L9.96875 1.84375L10.4688 2.1875L10.875 2.53125L11.1875 2.8125L11.3438 2.96875L11.6875 3.34375L12 3.75L12.375 4.375L12.625 4.875L12.9375 5.65625L13.3125 6.8125L13.6875 7.9375L14.1562 9.375V9.5L20.3438 9.59375L23.9062 9.65625L27.0625 9.6875L29.3438 9.71875L32.9688 9.78125L36.125 9.8125L42 9.90625L45.1562 9.9375L47.4375 9.96875L51.0312 10.0312L54.2188 10.0625L61.2188 10.1562L62.5 10.1875L63 10.3125L63.3125 10.4688L63.6562 10.75L63.875 11.0312L64 11.2812V12.0625L63.9375 12.125L63.4375 14.2188L63.0625 15.8125L62.6875 17.375L62.0625 19.9688L61.5938 21.9375L61.0625 24.1875L60.6875 25.75L60.3438 27.125L59.9688 28.25L59.4688 29.25L59.25 29.5938L58.8438 30.1562L58.5938 30.4688L58.125 30.9375L57.9688 31.125L57.625 31.4062L57.2188 31.7188L56.8125 32L56.25 32.3125L55.7812 32.5625L54.8438 32.9062L54.125 33.0938L53.1875 33.25L51.7812 33.4062L22.1875 36.5H22.0312L22 36.6875L21.5938 37.5938L21.4062 38.1562L21.2812 38.75V39.7188L21.4375 40.4375L21.625 40.9062L21.9062 41.4375L22.25 41.875L22.5 42.1562L23.0625 42.5625L23.5625 42.8125L24 42.9688L24.875 43.125L28.4062 43.1562H53.9375L54.4375 43.2812L54.8438 43.5625L55.0938 43.875L55.2188 44.125L55.3125 44.5V44.7812L55.2188 45.1875L55.0312 45.5312L54.8125 45.7812L54.4688 46L54.1875 46.0938L53.8125 46.1562H24.8438L23.9688 46.0625L23.1875 45.875L22.5312 45.6562L21.8125 45.3125L21.3125 45L20.8125 44.625L20.375 44.25L20.0938 43.9688L19.875 43.7188L19.5 43.25L19.1875 42.75L18.9375 42.3125L18.5938 41.5L18.375 40.7188L18.25 40L18.2188 39.7188L18.1875 39.0312L18.25 38.25L18.4062 37.4375L18.6562 36.625L19.0625 35.6562L19.375 34.9375L19.3438 34.6562L18.9688 33.5312L18.5312 32.1875L16.9688 27.5L16.5312 26.1562L15.2188 22.2188L14.7812 20.875L13.5938 17.3125L13.1562 15.9688L11.3125 10.4375L10.9062 9.1875L10 6.46875L9.78125 5.9375L9.5 5.46875L9.25 5.15625L9.03125 4.90625L8.59375 4.5625L8.125 4.28125L7.53125 4.03125L6.96875 3.90625L6.6875 3.875L1.5 3.84375L1 3.75L0.71875 3.625L0.375 3.34375L0.09375 2.90625L0 2.59375V2.0625L0.15625 1.65625L0.4375 1.25L0.875 0.96875L1.1875 0.875L1.34375 0.84375L4.625 0.8125ZM15.1562 12.5312L15.5312 13.6875L15.9688 15L16.4062 16.3438L17 18.125L17.875 20.8125L18.9688 24.0938L19.4062 25.4375L19.8438 26.75L20.2812 28.0938L20.9688 30.1562L21.4062 31.5L21.8438 32.8125L22.0312 33.4062H22.375L33.5312 32.25L52.8438 30.25L53.7812 30.0938L54.4375 29.875L54.9375 29.625L55.2812 29.4375L55.8125 29.0312L56.0312 28.8438L56.25 28.5938L56.5312 28.2812L56.9062 27.7188L57.2188 27.0625L57.4688 26.25L57.875 24.5938L58.5625 21.75L59 19.9688L59.5 17.9062L60.1875 15.0625L60.5625 13.5L60.625 13.1875L48.7812 13L47.125 12.9688L40.25 12.875L38.625 12.8438L31.75 12.75L30.0938 12.7188L23.1875 12.625L16.7812 12.5312H15.1562Z" fill="black"/>
<path d="M20.1562 49.75H20.6875L21.3438 49.8125L22.125 49.9688L22.625 50.125L23.25 50.375L23.8438 50.6875L24.25 50.9688L24.5938 51.25L25 51.5938L25.25 51.8125L25.5312 52.1562L25.9375 52.6562L26.3125 53.25L26.5938 53.8438L26.8125 54.4375L27 55.1875L27.0938 55.7812L27.125 56.4688L27.0938 57.125L26.9688 57.9062L26.7812 58.5625L26.5625 59.125L26.3438 59.5938L25.9688 60.2188L25.5312 60.75L25.25 61.0938L24.9688 61.375L24.1875 62L23.6875 62.3125L22.9688 62.6562L22.3438 62.875L21.6875 63.0312L21.0938 63.125L20.6875 63.1562H20.125L19.4688 63.0938L18.9375 63L18.2812 62.8125L17.7188 62.5938L17.1875 62.3438L16.5938 61.9688L16.1562 61.5938L15.8125 61.3125L15.5 61L15.2188 60.6562L14.8438 60.1875L14.5312 59.6875L14.1875 58.9688L13.9375 58.2188L13.8125 57.6562L13.7188 56.9375V56L13.8125 55.25L14 54.4688L14.2188 53.875L14.5312 53.2188L14.8438 52.7188L15.125 52.375L15.4375 51.9688H15.5L15.5625 51.8438L15.9062 51.5L16.3438 51.1562L16.6875 50.875L17.3125 50.5L17.9062 50.2188L18.4688 50.0312L19.0938 49.875L19.6562 49.7812L20.1562 49.75ZM20.0625 52.7812L19.5938 52.8438L18.9375 53.0625L18.4062 53.3438L17.9688 53.6875L17.8125 53.8125V53.875H17.75L17.5 54.1875L17.2812 54.5L17 55.0312L16.8438 55.5L16.75 55.9688L16.7188 56.25V56.6562L16.7812 57.1562L16.9688 57.8125L17.2188 58.3125L17.4375 58.6562L17.8125 59.0938L18.2188 59.4375L18.625 59.6875L19 59.875L19.4688 60.0312L19.7188 60.0938L20.3125 60.1562L20.8125 60.125L21.3438 60.0312L21.9062 59.8438L22.4688 59.5312L22.9688 59.125L23.1875 58.9062L23.5 58.5L23.8125 57.9375L24 57.3438L24.0938 56.7188V56.2188L24.0312 55.6875L23.8438 55.0625L23.5 54.4062L23.1562 53.9688L22.8438 53.6562L22.4688 53.375L21.9062 53.0625L21.4375 52.9062L21.0625 52.8125L20.7812 52.7812H20.0625Z" fill="black"/>
<path d="M48.4062 49.75H48.8438L49.5625 49.8125L50.3438 49.9688L51.0938 50.2188L51.6562 50.4688L52.25 50.8125L52.6562 51.125L53.0625 51.4688L53.375 51.7188L53.6562 52.0625L54 52.4688L54.3125 52.9062L54.5938 53.4062L54.8438 53.9375L55.125 54.7812L55.25 55.4062L55.3125 55.9375V57.0312L55.2188 57.7188L55.0625 58.3438L54.8438 58.9688L54.5938 59.5312L54.2188 60.1562L53.9062 60.5625L53.5312 61L53.3125 61.25L52.875 61.625L52.4375 61.9688L52 62.25L51.4688 62.5312L50.8438 62.7812L50.2188 62.9688L49.5625 63.0938L48.9062 63.1562H48.3438L47.6875 63.0938L47.1562 63L46.4688 62.8125L45.7188 62.5L45.1875 62.2188L44.8125 61.9688L44.4062 61.625L44.0625 61.3438L43.875 61.1875L43.5938 60.8438L43.1875 60.375L42.875 59.9062L42.5938 59.4062L42.2812 58.6562L42.0938 58L41.9688 57.3438L41.9062 56.5625L41.9375 55.8438L42.0625 55.0625L42.25 54.3438L42.5312 53.6562L42.7812 53.1562L43.0625 52.7188L43.3125 52.4062L43.5938 52.0625L43.9375 51.6562L44.2812 51.375L44.6875 51.0312L45.0938 50.75L45.5938 50.4688L46.125 50.2188L46.7812 50L47.5 49.8438L47.9062 49.7812L48.4062 49.75ZM48.25 52.7812L47.6875 52.875L47.125 53.0625L46.5625 53.375L46.1562 53.7188L45.9062 53.9375L45.5 54.4688L45.3125 54.8125L45.125 55.2812L45 55.7188L44.9375 56.25V56.6562L45 57.1875L45.1562 57.75L45.4375 58.3438L45.7188 58.75L46.1562 59.2188L46.5625 59.5312L47.125 59.8438L47.6875 60.0312L48.1875 60.125L48.75 60.1562L49.4375 60.0625L50.0938 59.8438L50.6875 59.5312L51.2188 59.0938L51.5 58.7812L51.8125 58.3438L52.0938 57.75L52.25 57.1875L52.3125 56.6562V56.3125L52.25 55.75L52.0625 55.0938L51.8125 54.5938L51.5938 54.25L51.3125 53.9062L50.9375 53.5625L50.625 53.3438L50.0312 53.0312L49.4375 52.8438L49 52.7812H48.25Z" fill="black"/>
</g>
<defs>
<clipPath id="clip0_112_1702">
<rect width="64" height="64" fill="white"/>
</clipPath>
</defs>
</svg>
