<svg width="100" height="100" viewBox="0 0 100 100" fill="none" xmlns="http://www.w3.org/2000/svg">
<path d="M48.1875 4H68L71.875 4.0625L73.6875 4.1875L75.125 4.4375L76.4375 4.8125L78 5.4375L79.1875 6.0625L80.25 6.75L81.3125 7.5625L82.125 8.3125L82.5625 8.75L83.125 9.4375L83.875 10.5L84.75 12L85.4375 13.625L85.75 14.75L85.875 15.6875L85.9375 16.5625L86 19.25V57.5625L85.9375 81.9375L85.875 84.4375L85.75 85.875L85.5 87L85.0625 88.125L84.375 89.5625L83.6875 90.625L82.8125 91.8125L82.125 92.5625L81.75 93L80.6875 93.8125L80 94.3125L79.1875 94.8125L78.25 95.3125L76.9375 95.8125L75.75 96.1875L74.3125 96.5L72.9375 96.6875L71.0625 96.8125L39.375 96.875H29.5L28.1875 96.8125L26.5625 96.625L25 96.25L23.6875 95.8125L22.4375 95.25L21.375 94.625L20.3125 93.875L19.625 93.3125L18.6875 92.4375L17.9375 91.5625L17.3125 90.6875L16.6875 89.75L16.0625 88.6875L15.5 87.25L15.125 85.6875L15 84.0625L14.9375 82.125L14.875 78.3125V37.25L14.9375 34.5625L15.0625 33.25L15.375 31.9375L15.75 31L16.25 30L16.875 28.9375L17.4375 28.1875L18 27.5L18.5 26.875L19.125 26.1875L19.5625 25.6875L20.5 24.6875L35.5 9.6875H35.625L35.75 9.4375H35.875L35.9375 9.25L36.4375 8.8125L36.9375 8.3125L37.625 7.75L38.4375 7.0625L39.5625 6.25L40.625 5.625L42.4375 4.875L43.6875 4.5L45.1875 4.1875L46.3125 4.0625L48.1875 4Z" fill="#FDFDFD"/>
<path d="M48.1875 4H68L71.875 4.0625L73.6875 4.1875L75.125 4.4375L76.4375 4.8125L78 5.4375L79.1875 6.0625L80.25 6.75L81.3125 7.5625L82.125 8.3125L82.5625 8.75L83.125 9.4375L83.875 10.5L84.75 12L85.4375 13.625L85.75 14.75L85.875 15.6875L85.9375 16.5625L86 19.25V57.5625L85.9375 81.9375L85.875 84.4375L85.75 85.875L85.5 87L85.0625 88.125L84.375 89.5625L83.6875 90.625L82.8125 91.8125L82.125 92.5625L81.75 93L80.6875 93.8125L80 94.3125L79.1875 94.8125L78.25 95.3125L76.9375 95.8125L75.75 96.1875L74.3125 96.5L72.9375 96.6875L71.0625 96.8125L39.375 96.875H29.5L28.1875 96.8125L26.5625 96.625L25 96.25L23.6875 95.8125L22.4375 95.25L21.375 94.625L20.3125 93.875L19.625 93.3125L18.6875 92.4375L17.9375 91.5625L17.3125 90.6875L16.6875 89.75L16.0625 88.6875L15.5 87.25L15.125 85.6875L15 84.0625L14.9375 82.125L14.875 78.3125V37.25L14.9375 34.5625L15.0625 33.25L15.375 31.9375L15.75 31L16.25 30L16.875 28.9375L17.4375 28.1875L18 27.5L18.5 26.875L19.125 26.1875L19.5625 25.6875L20.5 24.6875L35.5 9.6875H35.625L35.75 9.4375H35.875L35.9375 9.25L36.4375 8.8125L36.9375 8.3125L37.625 7.75L38.4375 7.0625L39.5625 6.25L40.625 5.625L42.4375 4.875L43.6875 4.5L45.1875 4.1875L46.3125 4.0625L48.1875 4ZM46.25 8L45 8.125L43.9375 8.375L42.9375 8.875L42.0625 9.375L41.1875 10L40.375 10.625L39.6875 11.25L39.1875 11.6875L25.375 25.5L24.875 25.9375L23.875 26.9375L22.9375 27.9375L22.25 28.625L21.8125 29.125L21.125 29.9375L20.5 30.75L19.5625 32.125L19.0625 32.875L18.9375 33.25L18.875 33.875L18.8125 35.375L18.75 39.4375L18.6875 45.875V73.8125L18.75 79.6875L18.875 83.625L19.0625 85.3125L19.375 86.5L20 87.8125L20.4375 88.5L21 89.25L21.5625 89.875L22 90.3125L23 91.0625L24.3125 91.8125L25.875 92.4375L26.9375 92.6875L27.875 92.8125L30.1875 92.9375H62.6875L72.1875 92.875L73.3125 92.8125L74.625 92.5625L75.875 92.125L77.3125 91.4375L78.0625 90.9375L79 90.125L79.5 89.625L80.0625 88.9375L80.5 88.3125L81 87.5L81.5 86.4375L81.75 85.625L81.9375 84.4375L82 83.625L82.0625 81.875V28.6875L82 22L81.875 16.875L81.75 15.375L81.5625 14.625L81.25 13.8125L80.625 12.6875L79.875 11.6875L79.0625 10.875L78 10.0625L77.375 9.625L76.375 9.0625L75.375 8.625L74.3125 8.3125L73.1875 8.125L72.4375 8.0625L69.5 8H46.25Z" fill="#EF9439"/>
<path d="M65.75 38H66.625L66.6875 38.4375L66.75 42V52.6875H66.125L64.75 52.5625L64.6875 52.3125L64.5 44.375L64.4375 42.8125H64.3125V42.3125L64.125 42.5L62.1875 46.375L61.5625 47.5625L61.125 48.375L60.4375 49.4375L59.8125 50.25L59.5625 50.5625L59.1875 50.875L58.875 50.8125L58.5 50.5L58.0625 49.875L57.6875 49.25L57.1875 48.4375L56.375 46.9375L55.625 45.5625L54.75 44.0625L53.9375 42.625L53.6875 42.375V51.4375L53.625 52.625H51.75L51.3125 52.5L51.25 52.4375L51.1875 51V38.1875L51.4375 38.0625H53.5625L53.875 38.375L54.3125 39L55.125 40.4375L55.5625 41.1875L56 42.0625L56.625 43.125L57.5 44.75L58.0625 45.8125L58.625 46.75L59.0625 47.5L59.4375 47.1875L59.9375 46.375L60.5625 45.25L61.25 43.875L61.875 42.6875L62.375 41.8125L63 40.75L63.875 39.125L64.3125 38.5L64.625 38.25L65.3125 38.0625L65.75 38Z" fill="#EF9439"/>
<path d="M50.125 60.5625H51.0625L52.25 60.6875L53 60.9375L53.5 61.1875L54.25 61.875L54.75 62.5625L55.0625 63.25L55.3125 64.0625L55.375 64.375V65.3125L55.0625 66.3125L54.5625 67.3125L53.8125 68.375L53.25 69.0625L52.375 70L51.5625 70.8125L51.125 71.3125L50.4375 71.9375L49.9375 72.375V72.625L50.5 72.8125L51.4375 72.875H55.5L55.6875 72.9375V75L55.5 75.0625H46.625L45.6875 74.9375L45.5625 74.6875L45.875 73.6875L46.375 72.9375L46.9375 72.3125L47.375 71.8125L47.875 71.375L50.6875 68.5625L51.125 68.0625L51.8125 67.25L52.25 66.625L52.75 65.8125L53 65.0625V64.125L52.8125 63.5L52.25 62.875L51.9375 62.6875L51.1875 62.5625L50.25 62.625L49.5 62.9375L49.125 63.1875L48.5 64L47.9375 64.75L47.625 65L47.3125 65.125L46.875 65.0625L46.25 64.8125L46.1875 64.75V63.6875L46.4375 63.0625L46.875 62.4375L47.3125 61.9375L47.8125 61.4375L48.5 61L49.0625 60.75L50.125 60.5625Z" fill="#EF9439"/>
<path d="M38 38H39.4375L40.5 38.25L41.4375 38.625L42.0625 39L42.5 39.375L42.75 39.75V40.25L42.5625 40.8125L42.5 40.875H42.0625L41.0625 40.5L40.0625 40L39.25 39.875H38.3125L37.75 40L37.0625 40.375L36.625 40.875L36.375 41.375L36.3125 41.9375L36.4375 42.5L36.8125 43L37.75 43.5L40 44.3125L41.5 45L42.125 45.5625L42.5 46.0625L42.875 46.8125L43.0625 47.5V48.75L42.9375 49.5L42.5625 50.25L42.0625 50.875L41.4375 51.5L40.625 52L40 52.3125L38.75 52.5625H37.0625L36.1875 52.375L35.25 52L34.375 51.5L33.8125 51L33.625 50.5625V50.125L33.875 49.625L34.1875 49.375L34.6875 49.4375L35.8125 49.9375L36.75 50.3125L37.9375 50.5625H38.875L39.5 50.3125L40.25 49.75L40.5625 49.4375L40.8125 49.0625L40.9375 48.6875V47.875L40.6875 47.375L40 46.875L39.3125 46.5625L37.4375 46L36.4375 45.5625L35.75 45.1875L35.0625 44.625L34.625 43.9375L34.375 43.25L34.25 42.3125L34.3125 41.3125L34.5625 40.375L34.9375 39.6875L35.5 39.0625L36.3125 38.5625L37 38.25L38 38Z" fill="#EF9439"/>
<path d="M47 38.0625H48.0625L48.1875 38.4375V46L48.125 50.5625L48.0625 52.75H47.375L45.625 52.5625L45.5 52.4375V38.1875L45.6875 38.125L47 38.0625Z" fill="#EF9439"/>
</svg>
