<svg width="100" height="100" viewBox="0 0 100 100" fill="none" xmlns="http://www.w3.org/2000/svg">
<g clip-path="url(#clip0_112_1706)">
<path d="M1.07422 0H72.2168V0.0976562L72.4609 0.195312L72.7539 0.390625L73.0957 0.78125L73.2422 1.02539L73.3398 1.36719V8.49609L73.1934 9.0332L72.8516 9.52148L72.4609 9.81445L72.0215 9.96094H71.2402L70.8496 9.81445L70.4102 9.47266L70.1172 8.98438L69.9707 8.49609V3.36914H3.36914L3.41797 78.7109L3.56445 79.6387L3.85742 80.4199L4.29688 81.2012L4.83398 81.8359L5.41992 82.3242L6.25 82.8125L7.27539 83.1543L8.10547 83.252H8.54492L9.375 83.1543L10.4004 82.8125L11.084 82.4219L11.5723 82.0312L11.9629 81.6895L12.4512 81.0547L12.8906 80.2246L13.1836 79.1992L13.2324 78.7598L13.2812 21.6797L13.4277 20.166L13.6719 19.2383L13.916 18.5059L14.4531 17.4316L14.7949 16.8945L15.2344 16.3574L15.5273 15.9668H15.625L15.7227 15.7715L16.3086 15.2344L17.0898 14.6484L18.1641 14.0625L18.75 13.8184L19.6777 13.5254L20.5566 13.3789L20.9961 13.3301H22.3145L23.4375 13.4766L24.707 13.8672L25.5371 14.2578L26.3672 14.7461L26.9043 15.1855L27.5391 15.7227L28.125 16.3574L28.7598 17.2363L29.3945 18.457L29.7852 19.6777L29.9316 20.5566L30.0293 21.582V96.6309H96.6309L96.582 21.4844L96.4844 20.6055L96.1426 19.5801L95.7031 18.7988L95.2637 18.2617L94.7266 17.7734L94.043 17.334L93.4082 17.041L92.7734 16.8457L92.0898 16.748L81.8359 16.6992H33.3984L32.8125 16.6016L32.3242 16.3574L31.9824 16.0156L31.6895 15.4297L31.6406 15.2344V14.7949L31.7871 14.3066L32.0312 13.916L32.4707 13.5254L33.0078 13.3301L33.7402 13.2812H90.1367L92.1875 13.3301L93.4082 13.4766L94.6777 13.8672L95.2637 14.1113L96.2891 14.6973L96.9727 15.2344L97.6562 15.8203L98.5352 16.8945L99.0234 17.7246L99.4141 18.5059L99.8047 19.7266L99.9023 20.2148H100V98.9258L99.8535 99.0723L99.5605 99.4629L99.2188 99.7559L98.9258 99.9023H98.8281L98.7793 100H27.9297L27.2949 99.6582L26.9043 99.2188L26.709 98.8281L26.6113 98.2422V86.6699H18.1152L17.5781 86.5234L17.1387 86.1816L16.8457 85.791L16.6504 85.2539V84.7168L16.8457 84.1797L17.1387 83.7891L17.5293 83.4961L17.9199 83.3496L18.1641 83.3008H26.6113L26.5625 21.1914L26.416 20.3613L26.1719 19.6289L25.7324 18.8477L25.1953 18.1641L24.5117 17.627L24.0234 17.334L23.291 16.9922L22.5586 16.7969L21.9727 16.748H21.2402L20.5078 16.8457L19.7754 17.0898L19.0918 17.4316L18.5059 17.8711L18.0664 18.2617L17.5293 18.9453L17.1387 19.6777L16.8457 20.5566L16.748 21.3867L16.6992 78.2715L16.5527 79.834L16.3086 80.7617L16.0645 81.4941L15.6738 82.2754L15.2344 83.0566L14.6973 83.6914L14.2578 84.2285L13.5742 84.8145L12.9395 85.3027L11.7676 85.9375L10.8398 86.2793L9.91211 86.5234L8.74023 86.6699H7.8125L6.68945 86.5234L5.46875 86.1816L4.6875 85.8398L3.71094 85.3027L2.92969 84.668L2.44141 84.2285L2.09961 83.8867L1.5625 83.2031L1.2207 82.7148L0.585938 81.4941L0.146484 80.0781L0 79.2969V1.17188L0.390625 0.537109L0.732422 0.244141L1.02539 0.146484L1.07422 0Z" fill="#B6B6B6"/>
<path d="M73.8506 61H85.7061L85.9985 61.0265L86.2644 61.1592L86.4504 61.3714L86.5568 61.5837L86.5833 61.6632V62.0081L86.477 62.2469L86.3175 62.4591L86.1049 62.6183L85.9719 62.6714L85.5998 62.6979H81.9315L82.2239 63.0959L82.4631 63.4673L82.7024 63.8918L82.915 64.3693L85.8922 64.3958L86.1846 64.502L86.4504 64.7407L86.5833 65.0591V65.4305L86.4504 65.6958L86.2644 65.908L86.0517 66.0407L85.7327 66.0938L83.234 66.1203L83.1543 66.7305L83.0214 67.3937L82.8087 68.0304L82.5695 68.5345L82.3037 68.959L82.0378 69.3039L81.7189 69.6488L81.453 69.9141L81.1606 70.1528L80.6024 70.5243L79.991 70.8161L79.4594 71.0018L79.0075 71.1079L78.6088 71.161L78.1835 71.1875H75.6848L75.7645 71.3201L76.0835 71.6916L76.3227 71.9569L76.5354 72.2222L76.8544 72.5936L77.067 72.8589L77.3594 73.2038L77.5987 73.4956L77.8911 73.8405L78.1303 74.1323L78.4227 74.4772L78.6619 74.769L78.9543 75.1139L79.1936 75.4058L79.486 75.7507L79.8315 76.1751L80.1505 76.5465L80.3632 76.8118L80.6822 77.1833L80.8948 77.4486L81.2138 77.82L81.4265 78.0853L81.7454 78.4567L81.9581 78.722L82.2771 79.0934L82.5163 79.3853L82.8087 79.7301L83.0745 80.1016L83.1809 80.3403V80.6852L83.0745 80.924L82.8353 81.1893L82.6226 81.3219L82.4631 81.375H82.2239L81.9581 81.2689L81.6923 81.0301L81.5062 80.8444L81.2138 80.473L80.629 79.7832L80.4163 79.5179L80.0974 79.1465L79.8847 78.8812L79.5657 78.5098L79.3531 78.2445L79.0341 77.873L78.8214 77.6077L78.5024 77.2363L78.2898 76.971L77.9708 76.5996L77.7582 76.3343L77.4392 75.9629L77.2265 75.6976L76.9075 75.3262L76.6949 75.0609L76.3759 74.6895L76.1632 74.4242L75.8443 74.0527L75.6316 73.7874L75.3126 73.416L75.1 73.1507L74.8076 72.8058L74.5683 72.514L74.2759 72.1691L74.0367 71.8773L73.7443 71.5324L73.4253 71.161L73.1595 70.8161L73 70.4977V70.2059L73.1329 69.8875L73.3721 69.6488L73.638 69.5161L73.7975 69.4896H77.4658L78.4493 69.4631L79.1138 69.3304L79.5657 69.1447L79.9644 68.9325L80.2834 68.6937L80.6024 68.4019L80.8682 68.057L81.0809 67.7121L81.267 67.3141L81.3733 66.9958L81.4796 66.4121L81.5062 66.0938H73.7709L73.5316 66.0407L73.3456 65.9346L73.1329 65.6958L73 65.404V65.1652L73.0797 64.8999L73.2392 64.6611L73.5316 64.4489L73.7709 64.3958H79.672L81.0011 64.3693V64.3162L80.7885 64.0244L80.4961 63.7061L80.2037 63.4408L79.7518 63.1489L79.2999 62.9367L78.8746 62.804L78.3695 62.7244L73.7709 62.6979L73.5051 62.6449L73.2924 62.4857L73.1329 62.3L73.0266 62.1143L73 62.0081V61.7694L73.1063 61.451L73.2924 61.2388L73.5051 61.0796L73.638 61.0265L73.8506 61Z" fill="#B6B6B6"/>
<path d="M41.4062 43.3105H85.1562L85.6934 43.457L86.1328 43.75L86.4258 44.0918L86.6211 44.5312L86.6699 44.6777V45.2637L86.4746 45.8008L86.1816 46.1914L85.791 46.4844L85.3516 46.6309L84.9609 46.6797H41.5527L40.9668 46.5332L40.5273 46.2402L40.1855 45.8008L39.9902 45.2637V44.7266L40.1855 44.1895L40.4785 43.7988L40.8691 43.5059L41.4062 43.3105Z" fill="#B6B6B6"/>
<path d="M41.5039 33.3008H61.7676L62.3535 33.4473L62.793 33.7402L63.0859 34.082L63.2812 34.4727L63.3301 34.7168V35.3027L63.1836 35.7422L62.8418 36.1816L62.4023 36.5234L61.7676 36.6699H41.4551L40.918 36.5234L40.4785 36.1816L40.1367 35.7422L39.9902 35.2539V34.7656L40.1367 34.2773L40.4297 33.8379L40.7715 33.5449L41.2109 33.3496L41.5039 33.3008Z" fill="#B6B6B6"/>
<path d="M49.7559 69.9707H65.1367L65.6738 70.1172L66.1133 70.4102L66.4551 70.8008L66.6504 71.2891L66.6992 71.6797L66.6016 72.2168L66.3574 72.6562L66.1133 72.9004L65.7227 73.1934L65.1367 73.3398H49.8047L49.1699 73.1445L48.6816 72.7051L48.3887 72.2168L48.291 71.7773L48.3398 71.2891L48.5352 70.8008L48.9746 70.3125L49.5605 70.0195L49.7559 69.9707Z" fill="#B6B6B6"/>
<path d="M49.7559 79.9805H63.5254L64.0625 80.127L64.502 80.4688L64.7949 80.8105L64.9902 81.2988V82.0312L64.7949 82.5195L64.3555 83.0078L63.8672 83.252L63.2812 83.3496H49.8535L49.3164 83.2031L48.877 82.9102L48.584 82.5684L48.3887 82.1777L48.291 81.7871L48.3398 81.2988L48.5352 80.8105L48.8281 80.4199L49.3652 80.0781L49.7559 79.9805Z" fill="#B6B6B6"/>
<path d="M49.9023 59.9609H61.6699L62.207 60.0586L62.5977 60.2539L62.8906 60.498L63.1836 60.9375L63.3301 61.3281V61.9629L63.1836 62.4023L62.9883 62.6953L62.5977 63.0859L62.1094 63.2812L61.8164 63.3301L57.666 63.3789H50.4883L49.7559 63.3301L49.2676 63.1836L48.9746 62.9883L48.7305 62.793L48.4375 62.3047L48.3398 62.0605L48.291 61.5234L48.4863 60.8887L48.7793 60.498L49.1211 60.2051L49.6094 60.0098L49.9023 59.9609Z" fill="#B6B6B6"/>
<path d="M68.1641 33.3008H78.418L78.9062 33.3984L79.3945 33.6914L79.7852 34.1309L79.9805 34.5703L80.0293 34.8145V35.1562L79.8828 35.6445L79.5898 36.1328L79.1504 36.4746L78.7109 36.6211L78.418 36.6699H68.1152L67.627 36.5234L67.1875 36.2305L66.8457 35.791L66.6504 35.2539V34.7168L66.8457 34.1797L67.1387 33.7891L67.627 33.4473L67.8711 33.3496L68.1641 33.3008Z" fill="#B6B6B6"/>
<path d="M41.5527 59.9609H43.4082L43.9941 60.1074L44.4336 60.4004L44.7754 60.791L44.9707 61.2305L45.0195 61.4746L44.9707 62.1094L44.6777 62.6953L44.2383 63.0859L43.75 63.2812L43.1152 63.3789H41.748L41.0156 63.2324L40.5762 62.9395L40.2344 62.5488L40.0391 62.1582L39.9902 61.9629V61.4258L40.1367 60.9375L40.4297 60.498L40.8691 60.1562L41.2598 60.0098L41.5527 59.9609Z" fill="#B6B6B6"/>
<path d="M41.4551 69.9707H43.5059L44.1406 70.166L44.5312 70.459L44.8242 70.8984L44.9707 71.2402L45.0195 71.4844V71.8262L44.873 72.3633L44.5312 72.8516L44.043 73.1934L43.5059 73.3398L42.1875 73.3887L41.4551 73.3398L40.918 73.1934L40.4785 72.8516L40.1855 72.4609L39.9902 71.9727V71.4355L40.1367 70.8984L40.5273 70.4102L40.9668 70.1172L41.4551 69.9707Z" fill="#B6B6B6"/>
<path d="M41.4551 79.9805H43.5547L44.043 80.127L44.4824 80.4199L44.8242 80.8594L45.0195 81.4453V81.8359L44.873 82.373L44.5801 82.7637L44.1895 83.1055L43.6523 83.3008L43.3594 83.3496H41.5039L40.9668 83.2031L40.5273 82.9102L40.1855 82.4707L39.9902 81.9336V81.3965L40.1855 80.8105L40.625 80.3223L41.0645 80.0781L41.4551 79.9805Z" fill="#B6B6B6"/>
</g>
<defs>
<clipPath id="clip0_112_1706">
<rect width="100" height="100" fill="white"/>
</clipPath>
</defs>
</svg>
