<svg width="70" height="70" viewBox="0 0 70 70" fill="none" xmlns="http://www.w3.org/2000/svg">
<path d="M20.3437 8.75L20.7375 8.88125L21.0875 9.1875L21.3937 9.5375L22.0937 10.2375L22.6187 10.6313L22.7062 10.675H23.0125L23.7562 10.15L24.325 9.66875L24.85 9.1875L25.2 8.925L25.5937 8.79375L26.0312 8.925L26.5125 9.275L26.8187 9.58125L27.3437 9.975L27.6937 10.325L28.0437 10.6313L28.2625 10.85L28.4812 10.8063L28.7 10.5875L28.9625 10.2813H29.05L29.1375 10.1063L29.4875 9.8L29.8375 9.40625L30.1875 9.1L30.4937 8.88125L30.7562 8.79375L31.15 8.8375L31.5437 9.1L31.9812 9.49375L32.3312 9.8L32.8125 10.2813L33.075 10.5875V10.675L33.25 10.7625L33.3375 10.85L33.5562 10.8063L33.8187 10.5875L33.95 10.4125H34.0375V10.325L34.3875 10.0188L34.9125 9.5375H35V9.45L35.5687 9.0125L36.0062 8.8375H36.4L36.8375 9.05625L37.1437 9.3625L37.45 9.7125L37.7562 9.975L37.975 10.2375L38.4562 10.5875L38.675 10.7625L38.85 10.7188L39.2875 10.325L40.0312 9.58125L40.5125 9.1875L40.95 8.96875L41.2125 8.88125H41.6062L42.1312 9.14375L43.2687 10.0188L43.8375 10.5L43.925 10.5438V10.6313L44.1437 10.7188L44.3625 10.85L44.625 10.675L45.0187 10.2813L45.8062 9.7125L46.2437 9.31875L46.5062 9.14375L46.6812 9.1H47.4687L48.3875 9.14375L48.6937 9.275L48.7812 9.625V28.3063H54.9937L56.3937 28.3938L56.7875 28.4813L56.8312 28.525V55.7375L56.7437 57.0063L56.6562 57.5313L56.4375 58.1L56 58.8875L55.5187 59.5L55.1687 59.85L54.5125 60.2875L53.9437 60.55L53.2437 60.725L52.325 60.8125L50.4 60.8563L45.9375 60.9H20.8687L18.9 60.8563L17.5875 60.7688L16.8 60.6375L16.275 60.4625L15.7062 60.1563L15.225 59.8063L14.7875 59.4125V59.325L14.6125 59.2375V59.15H14.525L14.0437 58.5375L13.65 57.925L13.2562 57.0063L13.125 56.35L13.0812 55.9125L13.0375 54.8625L12.9937 50.7938V32.55L13.0375 14.35L13.0812 9.14375L13.1687 8.96875L13.6062 9.0125L14.7 9.23125L15.2687 9.45L15.8812 9.8L16.7125 10.325L17.4125 10.85L17.6312 10.8938L18.1562 10.4125L18.4625 10.1063L18.8125 9.8L19.3812 9.23125L19.95 8.88125L20.3437 8.75ZM20.1687 11.9L19.7312 12.1625L19.2937 12.5563L18.6812 13.0375L18.2 13.3875L17.8937 13.5625L17.675 13.6063H17.1062L16.4062 13.475L15.8375 13.2563L15.225 12.9063H15.1375L15.225 14.175V19.5563L15.1812 48.1688V54.4688L15.2687 55.5188L15.4437 56.3938L15.75 57.0063L16.1 57.4438L16.4937 57.8375L17.0187 58.1438L17.675 58.4063L18.2875 58.5375L18.5937 58.5813L19.4687 58.625H41.7812L44.3187 58.6688H46.9437L46.8562 58.275L46.5062 57.4L46.375 56.875L46.2875 56.0438L46.2437 55.3L46.2 53.3313L46.1562 50.1813V25.7688L46.2 15.1813V13.1688L46.1562 13.125H45.8062L45.325 13.3L44.6687 13.6063L44.5375 13.65L43.8812 13.6063L43.3562 13.3875L42.8312 13.0375L42.3937 12.6875L42 12.2063L41.6937 11.9438H41.1687L40.7312 12.25L40.3812 12.6L39.7687 13.0813L39.2437 13.475L38.8937 13.65L38.5437 13.6063L38.15 13.4313L37.7125 13.125L37.3625 12.8188L36.6187 12.075L36.3562 11.9438L36.1812 11.9H35.875L35.525 12.075L35.2187 12.3813L34.8687 12.6875L34.4312 13.0813L34.125 13.3L33.9062 13.5625L33.6 13.7813L33.3375 13.6938L32.6375 13.1688L32.2 12.775L31.2375 11.9875L31.0187 11.9H30.625L30.2312 12.1625L29.8375 12.5563L29.75 12.6V12.6875L29.575 12.775L29.0062 13.3L28.6125 13.6063L28.2625 13.7375L27.6062 13.3875L27.2125 13.125L26.8625 12.8188L26.425 12.425L26.075 12.075L25.8562 11.9438H25.4187L25.0687 12.1625L24.325 12.9063L23.8875 13.2125L23.3625 13.5188L23.0125 13.6063L22.6187 13.5625L22.225 13.4313L21.5687 12.9938L21.1312 12.5563L20.7375 12.0313L20.5625 11.9H20.1687ZM48.7375 30.7563V54.4688L48.7812 55.9125L48.8687 56.6125L49.0875 57.3125L49.4375 57.75L49.875 58.0563L50.4437 58.3188L51.2312 58.5375H52.2375L52.85 58.3625L53.55 58.0125L53.9437 57.6625L54.2937 57.05L54.4687 56.4375L54.5562 55.8688L54.6 55.2563L54.6437 53.8125L54.6875 30.8L49.9625 30.7563H48.7375Z" fill="#EBA52F"/>
<path d="M29.9688 16.5375H30.625L31.3688 16.5812L32.6375 16.8437L33.5563 17.15L34.3875 17.5437L35.2188 18.0687L35.8313 18.5937L36.2688 18.9875L36.575 19.2937L37.0563 19.9062L37.4938 20.5625L37.975 21.4812L38.3688 22.5312L38.5438 23.1875L38.6313 23.6687L38.675 24.2375L38.6313 25.5062L38.4125 26.6L38.1063 27.5187L37.7563 28.2625L37.1875 29.1812L36.75 29.7937L36.3563 30.1875L36.05 30.5375L35.5688 30.975L34.8688 31.5L34.2125 31.8937L33.4688 32.2437L32.6375 32.5062L31.7625 32.6812L30.625 32.7687H30.0125L28.875 32.6812L28 32.5062L27.1688 32.2L26.25 31.7187L25.5938 31.2812L25.025 30.8L24.5438 30.3625V30.275L24.4125 30.2312L24.0188 29.75L23.625 29.225L23.0563 28.3062L22.6625 27.475L22.4 26.775L22.1813 25.7687L22.0938 24.85V24.1062L22.225 23.1437L22.4438 22.3125L22.8375 21.35L23.2313 20.65L23.7125 19.95L24.2813 19.25L24.85 18.6812L25.3313 18.2875L25.9 17.85L26.5563 17.4562L27.1688 17.15L28.35 16.7562L29.2688 16.5812L29.9688 16.5375ZM30.275 18.6812L29.4875 18.725L28.6125 18.9L27.9563 19.1625L27.3 19.6L26.5125 20.2125L26.2938 20.3875V20.475L26.1188 20.5625L25.55 21.175L25.1563 21.8312L24.9375 22.2687L24.7188 22.925L24.5438 23.8437L24.5 24.2375V25.4625L24.5875 26.2062L24.7188 26.775L25.025 27.5187L25.4188 28.0875L26.1188 28.8312L26.4688 29.1812L27.0375 29.6187L27.65 29.9687L28.35 30.2312L29.05 30.4062L29.7063 30.4937H30.9313L31.9813 30.3625L32.725 30.1437L33.4688 29.7937L33.95 29.4875L34.3438 29.1812L34.8688 28.7L35.2625 28.2187L35.6563 27.6062L36.0063 26.6875L36.1813 25.8562L36.225 25.2437V23.625L36.1375 23.0125L35.9188 22.3125L35.525 21.5687L35.0875 20.9562L34.5625 20.3875L33.9938 19.9062L33.5563 19.6L32.9875 19.25L32.1125 18.9L31.2813 18.725L30.275 18.6812Z" fill="#EBA52F"/>
<path d="M19.9063 52.0625H39.5063L40.9063 52.1063L40.95 52.1938V52.85L40.9063 53.9438L40.8188 54.3813L40.6875 54.4688L40.1625 54.5125H38.325L33.5563 54.5563H22.1813L20.4313 54.5125L20.0375 54.425L19.9063 54.2063L19.8188 52.8938V52.1063L19.9063 52.0625Z" fill="#EBA52F"/>
<path d="M26.8625 44.0125H40.8187L40.9062 44.1V46.025L40.8187 46.1125L39.4625 46.1562L36.3562 46.2H20.3437L19.8625 46.1125L19.8187 46.0687L19.775 45.325V44.0562L26.8625 44.0125Z" fill="#EBA52F"/>
<path d="M29.925 35.7875H38.5437L40.8625 35.8312L40.9937 36.0062L40.95 37.8437L40.775 37.9312L36.0062 37.975H28.35L23.8875 38.0187H20.5187L19.8625 37.9312L19.8187 37.8437L19.775 37.1437V35.875L21.4375 35.8312H23.5375L29.925 35.7875Z" fill="#EBA52F"/>
<path d="M21 48.0375L26.6 48.0812L31.15 48.125L31.325 48.1687L31.4125 48.6062V50.0062L31.325 50.225L31.1938 50.2687L30.7125 50.3125H20.9125L20.2125 50.2687L19.95 50.1812L19.8625 49.6125L19.8188 49.1312V48.0812L21 48.0375Z" fill="#EBA52F"/>
<path d="M19.8187 39.9437H31.1062L31.325 40.0312L31.3687 40.2062L31.4125 41.9125L31.2812 42.0437L30.8875 42.0875H20.8687L20.0812 42.0437L19.8625 42L19.8187 41.9125L19.775 40.7312V40.0312L19.8187 39.9437Z" fill="#EBA52F"/>
</svg>
