<svg width="54" height="64" viewBox="0 0 54 64" fill="none" xmlns="http://www.w3.org/2000/svg">
<path d="M25.5594 0H28.3477V0.0309811L29.463 0.185886L30.7332 0.433735L31.3838 0.619621L32.6541 1.05336L33.7384 1.58003L34.2341 1.82788L34.9776 2.2926L35.4114 2.60241L35.8141 2.9432L36.1239 3.19105L36.4338 3.46988L36.9604 3.99656L37.1773 4.24441L37.4561 4.55422L37.8899 5.14286L38.2926 5.70052L38.6644 6.32014L39.0362 7.0327L39.284 7.55938L39.6248 8.42685L39.9346 9.38726L40.1825 10.3787L40.3993 11.5559L40.5233 12.5473L40.6472 14.1274L40.7091 15.3356V17.0706L40.6472 18.4028L40.4923 20.1687L40.3374 21.253L40.0895 22.5542L39.7487 23.9174L39.346 25.1876L39.0052 26.0551L38.6954 26.7676L38.1687 27.821L37.8279 28.3787L37.4251 28.9983L37.1463 29.3701L36.8055 29.8038L36.4647 30.2065L36.093 30.6093L35.5973 31.105L35.2565 31.3838L34.8537 31.7246L34.327 32.0964L33.6455 32.5301L32.9329 32.9019L32.2823 33.2117L31.3529 33.5525L30.4544 33.8003L29.494 33.9862L28.6265 34.1102L27.883 34.1721L27.3253 34.2031H26.6128L25.5594 34.1411L24.63 34.0172L23.7935 33.8623L22.7401 33.5835L21.7177 33.2117L20.9432 32.8399L20.2926 32.4991L19.3632 31.8795L19.0534 31.6317L18.6506 31.2909L18.3098 31.012L17.8451 30.5473V30.4854H17.7831L17.5663 30.2375L17.1945 29.8038L16.8537 29.3701L16.451 28.8124L16.1102 28.2547L15.8623 27.852L15.3976 26.9535L15.1188 26.3649L14.716 25.3425L14.3442 24.2272L14.0344 23.0809L13.8176 22.0585L13.6317 21.0361L13.4768 19.8279L13.3219 18.031L13.2909 17.3184V15.0878L13.3838 13.5387L13.5078 12.2065L13.6627 11.1222L13.9105 9.9759L14.1584 9.07745L14.5301 7.99312L14.8709 7.21859L15.3047 6.35112L15.7384 5.63855L16.2341 4.98795L16.4819 4.64716L16.8537 4.18244H16.9157L16.9776 4.05852L17.8451 3.19105L18.2788 2.85026L18.7745 2.4475L19.7969 1.7969L20.6334 1.36317L21.1601 1.11532L21.9656 0.805508L22.8331 0.526678L23.5766 0.340792L24.63 0.154905L25.4974 0.0309811L25.5594 0ZM26.6437 3.56282L25.6833 3.62478L24.6609 3.77969L23.9174 3.9346L23.1119 4.18244L22.4923 4.43029L21.7797 4.77108L21.0671 5.20482L20.6644 5.51463L20.1687 5.91738L19.4871 6.59897L19.1773 7.00172L18.8055 7.49742L18.4957 8.0241L18.2169 8.51979L17.8451 9.35628L17.5043 10.3787L17.3184 11.1222L17.1016 12.2375L16.9467 13.8176L16.8537 15.2117V17.3184L16.9776 19.1153L17.1635 20.5095L17.3494 21.6248L17.5663 22.5232L17.7831 23.2978L18.093 24.2272L18.4028 24.9707L18.7745 25.7453L19.0844 26.3029L19.5181 26.9845L19.8589 27.4182L20.2926 27.9449L20.8813 28.5336L21.315 28.8744L21.7177 29.1842L22.1825 29.463L22.8331 29.8038L23.6386 30.1136L24.2892 30.2995L24.9708 30.4544L25.9312 30.5783L26.3959 30.6093H27.5422L28.3167 30.5473L29.1532 30.4234L29.9277 30.2375L30.8572 29.9277L31.7556 29.494L32.3442 29.1222L32.716 28.8434L33.1188 28.5026L33.3666 28.2857L33.7384 27.9139V27.852L33.8313 27.821L34.2341 27.2943L34.6059 26.7986L35.1325 25.9312L35.5353 25.1256L35.8761 24.2892L36.1549 23.5146L36.4647 22.3993L36.6816 21.4389L36.9604 19.58L37.0224 19.0843L37.1153 17.7212L37.1463 16.8537V15.6764L37.0534 14.0344L36.9294 12.6403L36.8365 11.9897L36.6196 10.8744L36.2788 9.72806L35.9071 8.8296L35.6592 8.33391L35.3184 7.71429L34.9467 7.18761L34.6059 6.75387L34.2341 6.35112L33.8313 5.94837L33.4905 5.66954L33.1807 5.42169L32.5611 5.01893L32.0035 4.70912L31.4148 4.43029L30.6713 4.15146L29.9277 3.9346L28.5955 3.68675L27.6041 3.5938L27.1394 3.56282H26.6437Z" fill="#1B1B1B"/>
<path d="M17.8141 34.2031H18.3098L18.6816 34.2961L19.0843 34.5129L19.4251 34.8227L19.704 35.2565L19.8279 35.6592V36.3098L19.704 36.7126L19.4251 37.1463L19.1463 37.4252L18.5267 37.8279L17.938 38.1997L17.0706 38.7264L16.296 39.1601L15.3976 39.6558L14.654 40.0276L14.1274 40.3064L13.2599 40.7091L12.1446 41.2048L11.5559 41.4527L10.3167 41.9174L9.48021 42.2272L8.05508 42.661L7.21859 42.9088L6.72289 43.0947L6.13425 43.4045L5.76248 43.6833L5.45267 43.9622L5.2358 44.179L4.83305 44.7367L4.61618 45.0775L4.27539 45.852L4.02754 46.6575L3.87263 47.3701L3.74871 48.2066L3.65577 49.4148L3.62478 49.9415V51.9243L3.68675 53.1016L3.77969 54.031L3.87263 54.6816L4.05852 54.7436L4.7401 55.1153L5.48365 55.4561L5.97935 55.704L6.59897 55.9828L7.96213 56.5405L8.92255 56.9122L10.9363 57.5938L11.7108 57.8417L13.2289 58.2444L14.4991 58.5852L15.8933 58.895L17.1635 59.1429L18.6506 59.3907L20.4785 59.6386L21.9656 59.7935L23.6386 59.9174L25.4355 60.0104H28.5026L30.3924 59.9174L31.7556 59.8245L33.6145 59.6386L35.6592 59.3598L37.611 59.019L39.4389 58.6162L42.3511 57.8417L43.8692 57.346L45.3253 56.8503L46.8434 56.2307L47.5869 55.9209L48.5164 55.4871L49.2909 55.1153L50.0654 54.7126L50.1583 54.6816L50.2823 53.6902L50.3442 53.0086L50.3752 52.451L50.4062 51.3976V50.3133L50.3442 49.0431L50.2203 47.8348L50.0654 46.9363L49.8485 46.1618L49.6317 45.5732L49.3219 44.9226L48.9501 44.3959L48.7022 44.0861L48.4234 43.8073L47.9587 43.4665L47.463 43.1876L46.8744 42.9398L44.7057 42.2892L43.7453 41.9484L42.8468 41.6076L42.0723 41.2978L40.957 40.8021L40.3373 40.5233L38.3546 39.5319L37.7969 39.2221L37.0224 38.7883L36.1549 38.2616L35.5663 37.8899L34.8847 37.4252L34.5439 37.0844L34.358 36.7746L34.2341 36.4647L34.1721 36.093L34.2031 35.6592L34.358 35.1945L34.5439 34.9157L34.8227 34.6059L35.1635 34.389L35.4733 34.2651L35.8451 34.2031L36.3408 34.2341L36.7126 34.358L37.1463 34.6059L37.611 34.9157L38.0138 35.1635L38.6644 35.5353L39.4699 36L40.1205 36.3718L40.957 36.8055L41.8864 37.2703L43.8692 38.1377L44.9535 38.5405L45.5112 38.7573L46.3167 39.0052L47.6799 39.4079L48.4544 39.6868L49.167 39.9966L49.9105 40.4303L50.3442 40.7401L50.747 41.0499L50.9948 41.2978L51.2427 41.5147L51.5525 41.8554L51.8933 42.2892L52.2031 42.7229L52.4819 43.1876L52.8227 43.8382L53.1325 44.6128L53.3494 45.3253L53.5972 46.2238L53.8141 47.494L53.9071 48.3615L54 49.8176V52.2651L53.938 53.3184L53.8141 54.5267L53.6902 55.3632L53.5353 56.0448L53.3494 56.5715L53.1635 56.8813L52.8847 57.1911L52.5439 57.4389L51.8313 57.8417L50.9639 58.3064L50.4682 58.5542L49.6317 58.957L48.7642 59.3598L47.8348 59.7315L46.0688 60.4131L45.2943 60.6919L43.9931 61.1257L42.0723 61.6833L39.9346 62.21L37.9828 62.6128L35.938 62.9536L34.6059 63.1394L32.685 63.3563L30.3305 63.5422L29.8038 63.5732L29.6179 63.6042H23.9174V63.5732L22.957 63.4802L21.0361 63.3253L19.4251 63.1394L17.9071 62.9226L16.389 62.6747L14.0964 62.21L12.0826 61.7143L10.0688 61.1257L8.36489 60.568L6.78485 59.9484L5.82444 59.5766L5.17384 59.2978L4.12048 58.8021L3.25301 58.3993L2.38554 57.9346L1.67298 57.5319L1.27022 57.253L0.991394 57.0052L0.712565 56.5715L0.464716 55.8279L0.309811 55.1153L0.185886 54.1859L0.0929432 53.3494L0.0309811 52.358L0 51.5835V50.3133L0.0619621 48.9811L0.154905 47.8968L0.340792 46.6575L0.526678 45.821L0.898451 44.5818L1.23924 43.7453L1.61102 43.0637L1.92083 42.568L2.2926 42.0723L2.66437 41.6386L3.25301 41.0499L3.65577 40.7401L4.18244 40.3684L4.95697 39.9346L5.91738 39.5319L7.34251 39.0981L8.36489 38.7883L9.94492 38.1997L10.7814 37.8589L11.7418 37.4252L12.3614 37.1463L13.6007 36.5267L14.1583 36.2169L14.9019 35.7832L15.6764 35.3494L16.296 34.9777L17.0086 34.5129L17.5043 34.2651L17.8141 34.2031Z" fill="#1B1B1B"/>
</svg>
