<svg width="64" height="64" viewBox="0 0 64 64" fill="none" xmlns="http://www.w3.org/2000/svg">
<path d="M56.6875 0H42.7812V0.0625L42.4688 0.125L41.875 0.34375L41.4375 0.59375L41.0312 0.90625L40.8125 1.09375L40.5312 1.4375L40.3125 1.75L40.125 2.0625L39.9375 2.53125L39.7812 3.125L39.75 3.4375V4.0625L39.8125 4.53125L40 5.15625L40.3438 5.8125L40.6875 6.25L41.0625 6.625L41.5 6.9375L42 7.1875L42.4062 7.34375L42.7812 7.4375L43.3438 7.5H46.2188L46.25 10.3438H45.9062L45.1875 10.4375L44.6562 10.5938L44.1562 10.8438L43.7188 11.125L43.375 11.4062V11.4688H43.3125L43.0312 11.8125L42.75 12.2188L42.5 12.7188L42.3125 13.3438L42.25 13.8438V15.8438H23.4062L22.1875 15.9062L21.2812 16.0312L20.375 16.25L19.5625 16.5312L18.9062 16.8125L18.2812 17.125L17.5312 17.5938L16.9688 18L16.5625 18.3438L16.1875 18.6875L16.125 18.7188V18.7812L16 18.8438L15.9375 18.9688H15.875L15.6562 19.2188L15.375 19.5312L14.9688 20.0625L14.625 20.5625L14.25 21.1875L14 21.6562L13.6875 22.375L13.375 23.3125L13.1875 24.0625L13.0312 25.0938L13 25.5938V32.125L13.0938 32.5L13.25 32.7812L13.4062 32.9688L13.7188 33.1562L14.0625 33.25L14.2812 33.2812H23.2812L23.7188 33.1875L24 33.0312L24.1875 32.875L24.4062 32.5312L24.5 32.2188L24.5312 31.9688L24.5625 28.5312L24.6562 28.125L24.875 27.7812L25.125 27.5938L25.4062 27.4688L25.7812 27.4062L37.625 27.375L38 27.2812L38.3125 27.0938L38.5312 26.8438L38.7188 26.4688L38.75 26.3438V25.9375L38.625 25.5312L38.4062 25.25L38.1875 25.0625L37.8438 24.9062L37.4062 24.8438H26L25.125 24.9062L24.5938 25.0312L24.125 25.2188L23.6875 25.4688L23.4062 25.6875L23.0938 25.9688L22.875 26.1875L22.5625 26.625L22.2812 27.1562L22.0938 27.7188L22 28.375V30.75H15.5312L15.5625 25.5625L15.6562 24.8125L15.8438 24L16.0938 23.25L16.4375 22.5L16.75 21.9688L17.0312 21.5625L17.3438 21.1562L17.7188 20.75L18.125 20.3438L18.5625 20L19.0312 19.6562L19.6875 19.2812L20.3438 18.9688L21.1875 18.6875L21.875 18.5312L22.6875 18.4375L23.5 18.4062L42.2188 18.375L42.25 29.4062L42.3125 29.9062L42.5625 30.6562L42.8438 31.1875L43.1875 31.625L43.5625 32L43.9688 32.2812L44.3438 32.5L44.9375 32.7188L45.3125 32.8125L45.9062 32.875H54.875L55.5 32.8125L56.125 32.625L56.625 32.375L56.9688 32.1562L57.375 31.8125L57.5938 31.5938L57.9375 31.125L58.2188 30.5938L58.4062 30.0312L58.4688 29.75L58.5312 29.0625V27.375H62.875L63.25 27.2812L63.5938 27.0625L63.875 26.7188L64 26.4375V16.8125L63.75 16.3438L63.5312 16.125L63.0938 15.9062L62.7188 15.8438H58.5312V14.125L58.4688 13.4688L58.3125 12.875L58.0938 12.375L57.8125 11.9062L57.5625 11.5938H57.5L57.4375 11.4688L57.125 11.1875L56.7812 10.9375L56.1875 10.625L55.7188 10.4688L55.4688 10.4062L54.8438 10.3438H53.2812V7.5H56.1875L56.7812 7.4375L57.375 7.25L57.9062 7L58.3125 6.71875L58.6875 6.375L58.9688 6.0625L59.1875 5.75L59.5 5.15625L59.6562 4.6875L59.7188 4.4375L59.7812 3.65625L59.6875 2.9375L59.5 2.34375L59.25 1.84375L59.0312 1.5L58.8125 1.21875H58.75L58.6875 1.09375L58.375 0.8125L57.9688 0.53125L57.5 0.28125L56.8438 0.0625L56.6875 0ZM55.9688 2.5L56.375 2.5625L56.6875 2.71875L56.9375 2.9375L57.125 3.25L57.2188 3.59375V3.90625L57.0938 4.3125L56.875 4.625L56.5625 4.84375L56.25 4.9375L56.125 4.96875H43.375L43 4.875L42.6875 4.65625L42.4375 4.375L42.3125 4.03125L42.2812 3.90625V3.59375L42.4062 3.1875L42.5938 2.90625L42.8125 2.71875L43.1562 2.5625L43.5312 2.5H55.9688ZM50.7188 7.5L50.75 8.09375V10.3438H48.7812V7.5H50.7188ZM54.7812 12.875L55.2188 12.9688L55.5312 13.1562L55.7812 13.4375L55.9375 13.8125L56 14.3438V29L55.9375 29.4375L55.8125 29.75L55.5938 30.0312L55.3125 30.2188L55 30.3125L54.8438 30.3438H45.9062L45.4375 30.2188L45.1562 30L44.9688 29.7812L44.8438 29.5312L44.7812 29.2188V13.9688L44.9062 13.5625L45.0938 13.2812L45.3438 13.0625L45.6562 12.9375L46 12.875H54.7812ZM61.4688 18.375L61.5 19.125V24.8438L58.625 24.875L58.5312 24.8438V18.375H61.4688Z" fill="#1B1B1B"/>
<path d="M18.7812 35.2188L18.3125 35.2812L18 35.4375L17.8125 35.5938L17.5312 35.9375L17.0938 36.5L16.7812 36.9062L15.0312 39.1562L14.7188 39.5625L14.0312 40.4375L13.4062 41.25L12.0938 42.9375L11.7812 43.3438L10.0312 45.5938L9.65625 46.0938L9.25 46.6875L8.875 47.3125L8.4375 48.1875L8.09375 49.0625L7.8125 50.0312L7.625 50.9375L7.53125 51.625L7.5 52.0938V53.3125L7.53125 53.875L7.6875 54.9375L7.9375 55.9375L8.1875 56.6875L8.5 57.4375L8.90625 58.25L9.375 59L9.8125 59.5938L10.1562 60.0312L10.5938 60.5L10.8125 60.75L11.2188 61.125L11.4688 61.3438L11.9375 61.7188L12.5 62.125L13.3438 62.625L13.8125 62.875L14.4375 63.1562L15.375 63.5L16.1875 63.7188L17.3438 63.9375L17.6875 64H20.0625L20.125 63.9375L21.1875 63.75L22.125 63.5L23 63.1875L23.8125 62.8125L24.3438 62.5312L25.0625 62.0938L25.5938 61.6875L26 61.375L26.5 60.9062L26.75 60.6875L27.1562 60.25L27.375 60L27.8125 59.4375L28.1875 58.9062L28.4375 58.5L28.75 57.9688L29.1875 57.0312L29.5625 55.9688L29.8125 54.9688L29.9688 53.9688L30.0312 53V52.5L29.9688 51.5625L29.8438 50.6875L29.5938 49.625L29.3125 48.7812L28.9688 47.9688L28.5938 47.2188L28.2188 46.625L27.9688 46.25L27.5625 45.7188L27.2812 45.3438L26.9375 44.9062L26.5625 44.4375L26.25 44.0312L25.8125 43.4688L25.4062 42.9688L24.9375 42.3438L24.5312 41.8438L24.125 41.3125L23.8438 40.9688L23.5312 40.5625L23.1875 40.125L22.8125 39.6562L22.1562 38.8125L21.8125 38.375L21.375 37.8125L21 37.3438L20.5938 36.8125L20.1875 36.3125L19.9062 35.9375L19.5625 35.5312L19.2188 35.3125L18.7812 35.2188ZM18.75 38.5625L19.0938 39L19.5312 39.5625L20.9062 41.3125L21.3438 41.875L21.7188 42.3438L22.0625 42.7812L22.4688 43.3125L22.875 43.8125L23.1875 44.2188L23.4375 44.5312L23.625 44.7812L24.6562 46.0938L24.9688 46.5L25.375 47L25.8125 47.5938L26.125 48.0625L26.375 48.4688L26.6875 49.0625L27 49.8438L27.2188 50.5625L27.375 51.2812L27.4688 52.0938L27.5 52.5312V52.9688L27.4375 53.75L27.2812 54.6875L27.0625 55.4688L26.8125 56.125L26.5625 56.6875L26.25 57.25L25.9688 57.6875L25.6875 58.0625L25.4062 58.4062L25.0625 58.7812L24.5625 59.2812L24.2188 59.5625L23.5938 60.0312L22.9688 60.4062L22.2188 60.7812L21.375 61.0938L20.5 61.3125L19.625 61.4375L19.2188 61.4688H18.2188L17.4062 61.375L16.625 61.2188L15.9688 61.0312L15.1875 60.7188L14.4375 60.3438L13.75 59.9062L13.1875 59.4688L12.875 59.1875L12.5 58.8438L12.0312 58.3438L11.5625 57.7188L11.1562 57.0625L10.7812 56.3438L10.5938 55.875L10.3438 55.125L10.1562 54.3438L10.0625 53.6875L10.0312 53.1875V52.1875L10.125 51.375L10.3125 50.4688L10.625 49.5312L10.9062 48.9062L11.25 48.25L11.625 47.6875L12 47.1875L12.3125 46.7812L12.75 46.2188L13.0938 45.7812L13.5 45.25L13.875 44.7812L14.5 43.9688L15.375 42.8438L15.6875 42.4375L16.0312 42L16.6562 41.1875L17 40.75L17.4375 40.1875L17.8438 39.6562L18.2188 39.1875L18.5938 38.6875L18.75 38.5625Z" fill="#1B1B1B"/>
<path d="M27.5625 19.8125H23.0938L22.0938 19.9062L21.2812 20.125L20.7812 20.3125L20.0312 20.6875L19.625 20.9688L19.0625 21.4062L18.75 21.75L18.625 22.0312L18.5625 22.2812L18.5938 22.6562L18.6562 22.9062L18.875 23.25L19.0625 23.4062L19.375 23.5938L19.75 23.6875L20.0625 23.6562L20.375 23.5625L20.75 23.3125L21.1562 23L21.7188 22.6875L22.1562 22.5312L22.7188 22.4062L23.0625 22.375L27.5312 22.3438L27.9375 22.25L28.25 22.0625L28.5 21.7812L28.6562 21.5L28.7188 21.25V20.9375L28.625 20.5938L28.4688 20.3125L28.3125 20.125L27.9688 19.9062L27.5625 19.8125Z" fill="#1B1B1B"/>
<path d="M13.2812 53.5H12.9062L12.5312 53.625L12.2812 53.8125L12.125 53.9688L11.9375 54.2812L11.875 54.4688L11.8438 54.8438L11.9375 55.2188L12.125 55.5938L12.5 56.1875L12.7812 56.5625L12.9375 56.75H13L13.0625 56.875L13.4375 57.2812L13.75 57.5312L14.1562 57.8438L14.5938 58.125L15.4375 58.5625L15.8438 58.6562H16.1562L16.5312 58.5312L16.7812 58.3438L17.0312 58.0625L17.1562 57.7812L17.2188 57.5312V57.2812L17.125 56.9062L16.9375 56.5938H16.875L16.8125 56.4688L16.3438 56.1562L15.75 55.8438L15.3438 55.5312L15.0312 55.25L14.7188 54.9062L14.375 54.375L14.0938 53.9688L13.9062 53.75L13.4688 53.5312L13.2812 53.5Z" fill="#1B1B1B"/>
<path d="M12.6875 49.7812H12.4062L12.0312 49.875L11.7188 50.0938L11.4688 50.375L11.3125 50.75L11.2812 50.875V51.1875L11.375 51.5625L11.6562 51.9688L11.9375 52.1562L12.125 52.25L12.5625 52.3438L13.0625 52.2188L13.375 52L13.5938 51.75L13.75 51.4375L13.8125 51.1562L13.7812 50.8125L13.6875 50.5L13.4688 50.1875L13.2188 49.9688L12.9688 49.8438L12.6875 49.7812Z" fill="#1B1B1B"/>
<path d="M18.2812 24.8438L17.9688 24.875L17.6562 24.9688L17.3438 25.1875L17.125 25.4688L17 25.75L16.9375 26.0312L16.9688 26.3438L17.0625 26.6562L17.25 26.9375L17.5312 27.1875L17.9062 27.3438L18.3125 27.375L18.7188 27.2812L19.0625 27.0625L19.3125 26.7188L19.4062 26.5312L19.4688 26.2812V25.9688L19.375 25.5938L19.0938 25.1875L18.75 24.9688L18.625 24.9062L18.2812 24.8438Z" fill="#1B1B1B"/>
</svg>
