<svg width="94" height="35" viewBox="0 0 94 35" fill="none" xmlns="http://www.w3.org/2000/svg">
<g clip-path="url(#clip0_112_1390)">
<path d="M68.4307 12.8171C68.6322 12.8843 68.7746 13.0455 68.9156 13.1959C70.9061 15.2912 72.91 17.3717 74.8965 19.4696C74.9005 17.3703 74.8911 15.271 74.9005 13.1717C75.4391 13.1704 75.9764 13.1798 76.515 13.1623C76.566 13.3517 76.5875 13.5451 76.5821 13.7412C76.5714 16.9338 76.5862 20.1264 76.5754 23.319C76.5351 23.3378 76.4559 23.3741 76.4169 23.3929C74.2773 21.217 72.2062 18.9727 70.0707 16.7941C70.0505 18.8867 70.0948 20.982 70.0492 23.0759C69.5066 23.0517 68.9639 23.0638 68.4227 23.0665C68.424 19.6496 68.4092 16.2327 68.4307 12.8171Z" fill="white"/>
<path d="M25.7745 13.0744C27.0276 12.6178 28.3761 12.9455 29.597 13.339C29.6118 14.1167 29.6037 14.893 29.6037 15.6707C28.8543 15.214 28.043 14.7574 27.1445 14.7318C26.6905 14.7023 26.1331 14.9803 26.1251 15.4894C26.0942 15.8614 26.391 16.1461 26.673 16.3369C27.761 17.0178 29.0262 17.4973 29.863 18.5127C30.8811 19.9069 30.3411 22.1351 28.8019 22.9195C27.3822 23.673 25.6912 23.3654 24.2272 22.9101C24.1426 22.0344 24.0875 21.1573 24.0526 20.2789C24.9001 20.8081 25.839 21.3024 26.8651 21.2849C27.3016 21.2554 27.816 21.1224 28.0309 20.6993C28.2552 20.3192 28.0847 19.8169 27.7502 19.5617C26.7912 18.7948 25.5502 18.4214 24.7067 17.5054C24.1601 16.9346 23.8834 16.1247 23.9599 15.3389C24.0164 14.298 24.8007 13.3941 25.7745 13.0744Z" fill="white"/>
<path d="M61.4491 13.9572C61.6466 13.5663 61.7862 13.1446 62.0508 12.7913C63.6424 16.2002 65.1763 19.6359 66.7357 23.0608C66.1406 23.0649 65.5443 23.0555 64.9493 23.0702C64.6699 22.4887 64.412 21.8977 64.1555 21.3067C62.6673 21.2987 61.1792 21.304 59.691 21.304C59.4277 21.8937 59.1698 22.486 58.8838 23.0662C58.3049 23.0582 57.7273 23.0635 57.1498 23.0608C58.5977 20.0348 60.0106 16.9899 61.4491 13.9572ZM61.848 16.4352C61.3403 17.5782 60.8581 18.7333 60.3316 19.8669C61.3967 19.9152 62.4659 19.8776 63.5323 19.8844C63.0206 18.6755 62.4887 17.4748 61.9783 16.2646C61.9461 16.3076 61.8803 16.3922 61.848 16.4352Z" fill="white"/>
<path d="M5.20325 13.1738C6.12866 13.1684 7.05273 13.1832 7.9768 13.1657C8.69805 14.1973 9.34947 15.2745 10.0613 16.3127C10.8054 15.2583 11.5562 14.2067 12.3258 13.1711C13.1398 13.1792 13.9537 13.1671 14.7676 13.1778C13.5346 14.9078 12.2063 16.5746 11.0042 18.322C10.9827 19.9002 10.9988 21.481 10.9975 23.0605C10.2252 23.0659 9.45289 23.0632 8.68059 23.0619C8.6685 21.4945 8.70611 19.923 8.66313 18.3569C7.53222 16.6162 6.33013 14.9199 5.20325 13.1738Z" fill="white"/>
<path d="M15.7803 23.0639C15.7856 19.7665 15.7736 16.4678 15.787 13.1704C17.7923 13.1758 19.7976 13.1718 21.8028 13.1731C21.8082 13.846 21.7961 14.5203 21.8122 15.1932C20.5591 15.2429 19.2979 15.1489 18.0421 15.2362C18.0448 15.8298 18.0407 16.4235 18.0475 17.0158C19.122 17.0118 20.1978 17.0024 21.2723 17.0225C21.2589 17.6901 21.2683 18.3589 21.2669 19.0291C20.1911 19.0278 19.1166 19.0291 18.0421 19.0265C18.0461 19.6765 18.0434 20.3279 18.0434 20.978C19.3113 20.9794 20.5793 20.9673 21.8472 20.982C21.8498 21.6764 21.8552 22.3708 21.8445 23.0666C19.8231 23.0599 17.8017 23.0625 15.7803 23.0639Z" fill="white"/>
<path d="M49.6323 13.1717C50.8828 13.1999 52.1373 13.1085 53.3823 13.2415C54.1882 13.3355 55.0653 13.6565 55.487 14.3993C55.9369 15.2199 55.9437 16.3468 55.3245 17.0855C55.0545 17.42 54.6543 17.5986 54.2795 17.788C54.9994 17.9854 55.6401 18.5079 55.8711 19.2318C56.1438 20.1223 56.0686 21.178 55.4937 21.9369C54.8544 22.7535 53.7651 22.9845 52.7846 23.0476C51.7316 23.0772 50.68 23.0557 49.6283 23.0638C49.6364 19.7664 49.6256 16.469 49.6323 13.1717ZM51.2763 14.4946C51.2817 15.4241 51.279 16.3549 51.279 17.2857C52.015 17.2655 52.829 17.3985 53.4898 16.9915C54.2755 16.551 54.3682 15.1783 53.5368 14.7391C52.8397 14.3885 52.0285 14.5161 51.2763 14.4946ZM51.2777 18.6059C51.2817 19.6321 51.279 20.6596 51.2803 21.6857C52.0311 21.6589 52.8343 21.7959 53.5408 21.4722C54.4837 21.041 54.6099 19.5367 53.7785 18.939C53.0465 18.4327 52.109 18.6516 51.2777 18.6059Z" fill="white"/>
<path d="M79.6941 23.0644C79.6982 19.7657 79.67 16.4656 79.7076 13.1669C80.2609 13.175 80.8143 13.1723 81.3677 13.1696C81.3905 14.647 81.3677 16.1245 81.3757 17.6019C82.7685 16.1245 84.1573 14.6444 85.5569 13.1736C86.2137 13.1696 86.8718 13.1723 87.5299 13.171C86.0525 14.7639 84.5549 16.3394 83.0654 17.9229C84.7147 19.6287 86.3453 21.3533 87.9973 23.055C87.2626 23.0698 86.5293 23.0563 85.7946 23.0657C84.3266 21.5198 82.8532 19.9792 81.3784 18.4414C81.3704 19.9806 81.3811 21.5198 81.3744 23.0604C80.8143 23.0644 80.2542 23.059 79.6941 23.0644Z" fill="white"/>
<path d="M49.9926 2.75051C50.4734 2.11924 50.9153 1.45574 51.431 0.849991C46.397 9.74684 41.3993 18.6665 36.376 27.5701C35.1242 29.8158 33.8415 32.0454 32.6031 34.2978C32.4944 34.24 32.3963 34.1675 32.3103 34.0802C30.5428 32.2791 28.7658 30.4887 26.9956 28.6903C28.2528 28.6768 29.5086 28.6889 30.7658 28.6835C37.1751 20.0405 43.5845 11.3962 49.9926 2.75051Z" fill="#C4261B"/>
<path d="M0.311735 8.21546C15.3346 8.19397 30.3561 8.2168 45.3789 8.20471C40.3825 14.8035 35.421 21.4291 30.4017 28.0104C20.3753 28.0023 10.3489 28.005 0.32248 28.0144C0.299647 21.4143 0.321136 14.8156 0.311735 8.21546ZM25.7747 13.0749C24.8009 13.3945 24.0165 14.2985 23.9601 15.3394C23.8835 16.1251 24.1602 16.935 24.7069 17.5058C25.5504 18.4218 26.7914 18.7952 27.7504 19.5622C28.0848 19.8174 28.2554 20.3197 28.0311 20.6998C27.8162 21.1229 27.3018 21.2558 26.8653 21.2854C25.8391 21.3028 24.9003 20.8086 24.0528 20.2794C24.0877 21.1578 24.1428 22.0349 24.2274 22.9106C25.6914 23.3659 27.3824 23.6735 28.8021 22.92C30.3413 22.1356 30.8812 19.9073 29.8631 18.5132C29.0264 17.4978 27.7611 17.0183 26.6732 16.3373C26.3912 16.1466 26.0943 15.8619 26.1252 15.4898C26.1333 14.9808 26.6907 14.7027 27.1447 14.7323C28.0432 14.7578 28.8544 15.2145 29.6039 15.6711C29.6039 14.8935 29.612 14.1171 29.5972 13.3395C28.3763 12.9459 27.0278 12.6182 25.7747 13.0749ZM5.20339 13.1743C6.33027 14.9203 7.53236 16.6167 8.66327 18.3574C8.70625 19.9235 8.66865 21.4949 8.68073 23.0623C9.45303 23.0637 10.2253 23.0664 10.9976 23.061C10.999 21.4815 10.9828 19.9006 11.0043 18.3225C12.2064 16.5751 13.5348 14.9082 14.7678 13.1783C13.9538 13.1676 13.1399 13.1796 12.326 13.1716C11.5564 14.2071 10.8056 15.2588 10.0615 16.3131C9.34961 15.2749 8.6982 14.1977 7.97694 13.1662C7.05287 13.1837 6.1288 13.1689 5.20339 13.1743ZM15.7805 23.065C17.8019 23.0637 19.8233 23.061 21.8447 23.0677C21.8554 22.372 21.8501 21.6776 21.8474 20.9832C20.5795 20.9684 19.3116 20.9805 18.0436 20.9792C18.0436 20.3291 18.0463 19.6777 18.0423 19.0276C19.1168 19.0303 20.1913 19.0289 21.2671 19.0303C21.2685 18.3601 21.2591 17.6912 21.2725 17.0237C20.198 17.0035 19.1222 17.0129 18.0477 17.0169C18.041 16.4246 18.045 15.831 18.0423 15.2373C19.2981 15.15 20.5593 15.244 21.8125 15.1943C21.7963 14.5214 21.8084 13.8472 21.803 13.1743C19.7978 13.1729 17.7925 13.177 15.7872 13.1716C15.7738 16.4689 15.7859 19.7677 15.7805 23.065Z" fill="#005192"/>
<path d="M44.5596 13.9639C45.6435 12.05 46.6549 10.093 47.771 8.20057C62.9403 8.20997 78.1108 8.21669 93.2801 8.19654C93.3284 14.8007 93.2935 21.4075 93.2975 28.013C74.4723 28.0009 55.6485 28.0103 36.8232 28.009C39.3846 23.3174 41.9862 18.6487 44.5596 13.9639ZM68.431 12.8182C68.4095 16.2338 68.4242 19.6507 68.4229 23.0676C68.9642 23.0649 69.5068 23.0528 70.0494 23.077C70.0951 20.9831 70.0508 18.8878 70.0709 16.7952C72.2065 18.9738 74.2776 21.2181 76.4172 23.394C76.4561 23.3752 76.5354 23.3389 76.5757 23.3201C76.5864 20.1275 76.5716 16.9349 76.5824 13.7423C76.5877 13.5462 76.5663 13.3528 76.5152 13.1634C75.9766 13.1809 75.4394 13.1715 74.9008 13.1728C74.8914 15.2721 74.9008 17.3714 74.8968 19.4707C72.9103 17.3728 70.9063 15.2923 68.9158 13.197C68.7748 13.0466 68.6324 12.8854 68.431 12.8182ZM61.4494 13.9585C60.0109 16.9913 58.598 20.0362 57.1501 23.0622C57.7276 23.0649 58.3052 23.0595 58.884 23.0676C59.1701 22.4874 59.428 21.8951 59.6913 21.3054C61.1794 21.3054 62.6676 21.3001 64.1558 21.3081C64.4123 21.8991 64.6702 22.4901 64.9496 23.0716C65.5446 23.0569 66.1409 23.0663 66.7359 23.0622C65.1766 19.6373 63.6427 16.2016 62.0511 12.7927C61.7865 13.1459 61.6468 13.5677 61.4494 13.9585ZM49.6326 13.1728C49.6259 16.4702 49.6366 19.7675 49.6286 23.0649C50.6802 23.0569 51.7319 23.0783 52.7849 23.0488C53.7654 22.9857 54.8547 22.7547 55.494 21.938C56.0689 21.1792 56.1441 20.1235 55.8714 19.233C55.6404 18.509 54.9997 17.9866 54.2798 17.7891C54.6545 17.5997 55.0548 17.4211 55.3248 17.0867C55.9439 16.348 55.9372 15.2211 55.4873 14.4004C55.0655 13.6577 54.1885 13.3367 53.3826 13.2427C52.1375 13.1097 50.8831 13.201 49.6326 13.1728ZM79.6944 23.0663C80.2545 23.0609 80.8146 23.0663 81.3746 23.0622C81.3814 21.5217 81.3706 19.9824 81.3787 18.4432C82.8534 19.9811 84.3268 21.5217 85.7949 23.0676C86.5295 23.0582 87.2629 23.0716 87.9976 23.0569C86.3455 21.3551 84.715 19.6306 83.0656 17.9248C84.5552 16.3412 86.0527 14.7658 87.5302 13.1728C86.872 13.1742 86.2139 13.1715 85.5571 13.1755C84.1576 14.6462 82.7688 16.1263 81.376 17.6038C81.3679 16.1263 81.3908 14.6489 81.3679 13.1715C80.8146 13.1742 80.2612 13.1768 79.7078 13.1688C79.6702 16.4675 79.6984 19.7675 79.6944 23.0663Z" fill="#005192"/>
<path d="M51.2764 14.4959C52.0285 14.5174 52.8398 14.3898 53.5368 14.7403C54.3682 15.1795 54.2756 16.5522 53.4898 16.9928C52.829 17.3997 52.0151 17.2667 51.2791 17.2869C51.2791 16.3561 51.2817 15.4253 51.2764 14.4959Z" fill="#005192"/>
<path d="M61.8482 16.4367C61.8804 16.3937 61.9462 16.3091 61.9785 16.2661C62.4888 17.4762 63.0207 18.677 63.5324 19.8858C62.466 19.8791 61.3969 19.9167 60.3318 19.8683C60.8583 18.7348 61.3405 17.5797 61.8482 16.4367Z" fill="#005192"/>
<path d="M51.2778 18.6075C52.1092 18.6532 53.0467 18.4342 53.7787 18.9406C54.6101 19.5383 54.4839 21.0426 53.541 21.4737C52.8345 21.7974 52.0313 21.6604 51.2805 21.6873C51.2792 20.6611 51.2819 19.6336 51.2778 18.6075Z" fill="#005192"/>
</g>
<defs>
<clipPath id="clip0_112_1390">
<rect width="93.75" height="35" fill="white"/>
</clipPath>
</defs>
</svg>
