<svg width="90" height="67" viewBox="0 0 90 67" fill="none" xmlns="http://www.w3.org/2000/svg">
<g clip-path="url(#clip0_1_993)">
<g clip-path="url(#clip1_1_993)">
<path d="M68.7949 0H69.2051L69.4922 0.143555L69.9434 0.430664L70.4561 0.758789L70.8662 1.02539L71.3174 1.3125L71.7275 1.5791L72.7529 2.23535L73.5732 2.76855L74.0244 3.05566L74.5371 3.38379L74.9473 3.65039L75.46 3.97852L75.8701 4.24512L76.3213 4.53223L76.6699 4.75781L77.0801 5.02441L77.4697 5.27051L77.8184 5.49609L78.2285 5.7627L78.6182 6.00879L79.0898 6.31641L79.541 6.60352L79.9512 6.87012L80.4639 7.19824L80.8125 7.42383L81.3252 7.75195L81.6738 7.97754L82.1865 8.30566L82.5967 8.57227L83.1094 8.90039L83.458 9.12598L83.9707 9.4541L84.3809 9.7207L84.832 10.0078L85.3037 10.3154L85.7549 10.6025L86.4521 11.0537L86.9033 11.3408L87.252 11.5664L87.6621 11.833L88.0518 12.0791L88.749 12.5303L89.1592 12.7969L89.3438 12.9404L89.5078 13.125L89.5898 13.3301L89.6104 13.5557L89.5693 13.7607L89.4668 13.9658L89.3232 14.1299L89.1387 14.2324L88.8926 14.2939L88.585 14.3145H85.8779L85.8984 16.3037V18.293L85.8779 19.0518L85.7549 19.2363L85.6113 19.3184L85.4883 19.3389H85.0781V20.877L85.0576 21.1641L84.9141 21.3486L84.8525 21.3896L84.709 21.4102H83.9707V35.0684H84.668L84.873 35.1299L84.9961 35.2324L85.0576 35.335L85.0781 35.417V37.1602H85.4883L85.6523 37.2012L85.8164 37.3447L85.8779 37.4473L85.8984 37.5703V39.4365L88.2773 39.457L88.4619 39.498L88.708 39.6211L88.9131 39.7852L89.0566 39.9287L89.2207 40.1953L89.3232 40.5029L89.3438 40.79L89.3027 41.0156L89.2207 41.2617L89.0977 41.4668L88.9131 41.6719L88.7285 41.8154L88.3799 42H49.5996L49.5176 41.9385L49.2305 41.7949L49.0254 41.6104L48.8818 41.4463L48.7383 41.1797L48.6562 40.8721V40.585L48.7383 40.2773L48.8818 40.0107L49.1074 39.7646L49.292 39.6211L49.5381 39.498L49.6816 39.457H52.1221V37.4678L52.2246 37.3037L52.3271 37.2217L52.4092 37.1807H52.9219V35.54L52.9424 35.3555L53.0244 35.2324L53.168 35.1094L53.2295 35.0889H54.0293V21.4307L53.25 21.4102L53.0859 21.3281L52.9834 21.2051L52.9424 21.123L52.9219 20.6924V19.3184H52.4297L52.2656 19.2363L52.1631 19.1133L52.1221 19.0107L52.1016 17.0625V15.627L52.1221 14.3145H49.3945L49.0664 14.2939L48.8818 14.2529L48.6768 14.1299L48.5127 13.9453L48.4102 13.7197L48.3896 13.6172V13.3916L48.4717 13.1455L48.6152 12.9609L48.8408 12.7969L49.251 12.5303L49.7637 12.2021L50.1123 11.9766L50.625 11.6484L50.9736 11.4229L51.4863 11.0947L51.835 10.8691L52.3477 10.541L52.8193 10.2334L53.332 9.90527L53.6807 9.67969L54.1934 9.35156L54.542 9.12598L55.0547 8.79785L55.4033 8.57227L55.916 8.24414L56.3262 7.97754L57.3516 7.32129L57.7617 7.05469L58.2744 6.72656L58.623 6.50098L59.1357 6.17285L59.4844 5.94727L59.9971 5.61914L60.4072 5.35254L60.8584 5.06543L61.5557 4.61426L62.0684 4.28613L62.417 4.06055L62.9297 3.73242L63.4014 3.4248L63.9141 3.09668L64.2627 2.87109L64.7754 2.54297L65.124 2.31738L65.6367 1.98926L65.9854 1.76367L66.498 1.43555L66.9082 1.16895L67.9336 0.512695L68.3438 0.246094L68.6104 0.0820312L68.7949 0ZM64.5088 17.042L59.3818 17.0625L59.3613 19.0107L59.2793 19.1748L59.1562 19.2773L58.9922 19.3184L58.582 19.3389L58.5615 19.585L58.541 21.123L58.4385 21.2871V21.3281L58.3359 21.3691L58.2129 21.3896L57.4746 21.4102L57.4541 21.4307V35.0684L58.1514 35.0889L58.3359 35.1299L58.4385 35.1709L58.4795 35.2529L58.541 35.3555L58.5615 37.1602L58.9922 37.1807L59.1562 37.2217L59.2793 37.3242L59.3613 37.4678L59.3818 39.457H65.3701L65.3906 37.5088L65.4521 37.3652L65.5547 37.2627L65.6777 37.2012L66.1699 37.1807L66.1904 37.1602L66.2109 35.3965L66.293 35.2324L66.4365 35.1299L66.498 35.1094L67.2979 35.0889V21.4102L66.498 21.3896L66.334 21.3076L66.2314 21.1641L66.2109 21.1025L66.1904 19.3184L65.6982 19.2979L65.5547 19.2363L65.4316 19.0928L65.3906 18.9492L65.3701 17.0625L64.5088 17.042ZM72.6299 17.0625L72.6094 18.9697L72.5479 19.1543L72.4043 19.2773L72.2197 19.3184L71.8301 19.3389L71.8096 20.9385L71.7686 21.1846L71.625 21.3486L71.502 21.3896L70.7227 21.4102V35.0684L71.4199 35.0889L71.584 35.1299L71.707 35.2119L71.7891 35.376L71.8096 35.458L71.8301 37.1602L72.2402 37.1807L72.4043 37.2217L72.5479 37.3447L72.6094 37.4883L72.6299 39.457H78.6182L78.6387 37.5293L78.7002 37.3652L78.8643 37.2217L78.9053 37.2012L79.4385 37.1807L79.459 35.3965L79.541 35.2324L79.6846 35.1299L79.7461 35.1094L80.5459 35.0889V21.4102L79.7666 21.3896L79.623 21.3281L79.4795 21.1641L79.459 21.082L79.4385 19.3184L78.9463 19.2979L78.7822 19.2158L78.6797 19.0928L78.6387 18.8672L78.6182 17.0625H72.6299Z" fill="#FD4E49"/>
<path d="M85.8779 16.3037H85.8984V18.293L85.8779 19.0518L85.7549 19.2363L85.6113 19.3184L85.4883 19.3389H85.0781V20.877L85.0576 21.1641L84.9141 21.3486L84.8525 21.3896L84.709 21.4102H83.9707V35.0684H84.668L84.873 35.1299L84.9961 35.2324L85.0576 35.335L85.0781 35.417V37.1602H85.4883L85.6523 37.2012L85.8164 37.3447L85.8779 37.4473L85.8984 37.5703V39.4365L88.2773 39.457L88.4619 39.498L88.708 39.6211L88.9131 39.7852L89.0566 39.9287L89.2207 40.1953L89.3232 40.5029L89.3438 40.79L89.3027 41.0156L89.2207 41.2617L89.0977 41.4668L88.9131 41.6719L88.7285 41.8154L88.3799 42H49.5996L49.5176 41.9385L49.2305 41.7949L49.0254 41.6104L48.8818 41.4463L48.7383 41.1797L48.6562 40.8721V40.585L48.7383 40.2773L48.8818 40.0107L49.1074 39.7646L49.292 39.6211L49.5381 39.498L49.6816 39.457H52.1221V37.4678L52.2246 37.3037L52.3271 37.2217L52.4092 37.1807H52.9219V35.54L52.9424 35.3555L53.0244 35.2324L53.168 35.1094L53.2295 35.0889H54.0293V21.4307L53.25 21.4102L53.0859 21.3281L52.9834 21.2051L52.9424 21.123L52.9219 20.6924V19.3184H52.4297L52.2656 19.2363L52.1631 19.1133L52.1221 19.0107V17.0625L52.1836 17.042L52.8193 17.0625H59.3818V19.0107L59.2998 19.1748L59.1562 19.2979L58.9922 19.3389H58.582L58.5615 21.123L58.4385 21.3281L58.3359 21.3896L58.2129 21.4102L57.4746 21.4307L57.4541 35.0684H58.1514L58.3359 35.1094L58.4385 35.1709L58.5615 35.3555V37.1602H58.9922L59.1562 37.2012L59.2998 37.3242L59.3818 37.4678V39.457H65.3701V37.5088L65.4316 37.3652L65.5137 37.2627L65.6777 37.1807L66.1699 37.1602L66.1904 35.3965L66.2725 35.2324L66.4365 35.1094L66.498 35.0889H67.2979V21.4102H66.498L66.334 21.3281L66.2109 21.1641L66.1904 21.1025V19.3184H65.6982L65.5547 19.2568L65.4111 19.0928L65.3701 18.9492V17.0625H72.6299V18.9697L72.5684 19.1543L72.4043 19.2979L72.2197 19.3389H71.8301V20.9385L71.7891 21.1846L71.6455 21.3486L71.6045 21.3896L71.502 21.4102H70.7227V35.0684H71.4199L71.584 35.1094L71.7275 35.2119L71.8096 35.376L71.8301 35.458V37.1602H72.2402L72.4043 37.2012L72.5684 37.3447L72.6299 37.4883V39.457H78.6182V37.5293L78.6797 37.3652L78.8232 37.2217L78.9053 37.1807H79.4385V35.3965L79.5205 35.2324L79.6846 35.1094L79.7461 35.0889H80.5459V21.4102H79.7666L79.623 21.3486L79.459 21.1641L79.4385 21.082V19.3184H78.9463L78.7822 19.2363L78.6592 19.0928L78.6182 18.8672V17.0625H85.8574L85.8779 16.3037Z" fill="#FCB029"/>
<path d="M68.918 3.62988H69.1641L69.4717 3.75293L69.5947 3.81445L69.8408 3.95801L70.0664 4.10156L70.374 4.30664L70.6406 4.4707L71.0508 4.7373L71.2764 4.88086L71.6865 5.14746L71.9121 5.29102L72.1992 5.47559L72.5479 5.70117L72.7734 5.84473L73.4707 6.2959L73.9219 6.58301L74.2705 6.80859L74.5781 7.01367L74.8447 7.17773L75.3574 7.50586L75.6035 7.66992L75.9932 7.91602L76.2188 8.05957L76.5674 8.28516L76.875 8.49023L77.1416 8.6543L78.0645 9.24902L78.4131 9.47461L78.8643 9.76172L79.1719 9.9668L79.3975 10.1104L79.582 10.2334L79.7256 10.3154L80.0127 10.5L80.3203 10.7051L80.5459 10.8486L80.7305 10.9717L80.833 11.0332L81.2842 11.3203L81.5918 11.5254L81.9814 11.7715L82.4326 12.0586L82.6377 12.2021L82.8223 12.3047L83.0273 12.4482L83.3555 12.6533L83.5811 12.7969L83.8887 13.002L84.1553 13.166L84.4424 13.3506L84.668 13.4941L84.9141 13.6582L85.3652 13.9453L85.5703 14.0889L85.6934 14.1504V14.1914H85.7344L85.6934 14.2734L84.3809 14.2939H70.9277L52.2656 14.2734L52.2451 14.2119L52.3066 14.1914V14.1504L52.5117 14.0479L52.8193 13.8428L53.1475 13.6377L53.373 13.4941L53.8652 13.166L54.0498 13.0635L54.4805 12.7764L54.8086 12.5713L55.1162 12.3662L55.957 11.833L56.2646 11.6279L56.6543 11.3818L56.9414 11.1973L57.4746 10.8486L57.8027 10.6436L58.0898 10.459L58.6846 10.0693L59.0127 9.86426L59.2383 9.7207L59.833 9.33105L60.1611 9.12598L60.4072 8.96191L60.7354 8.75684L61.0225 8.57227L61.4941 8.26465L61.8223 8.05957L62.1914 7.81348L62.5811 7.56738L62.7246 7.46484L62.9092 7.3623L63.3398 7.0752L63.9551 6.68555L64.4883 6.33691L64.8779 6.09082L65.165 5.90625L65.6367 5.59863L66.5391 5.02441L66.8467 4.81934L67.2363 4.57324L67.5234 4.38867L68.0566 4.04004L68.3848 3.83496L68.6309 3.71191L68.918 3.62988Z" fill="#FD9020"/>
<path d="M65.3701 17.0625H72.6299V18.9697L72.5684 19.1543L72.4043 19.2979L72.2197 19.3389H71.8301V20.9385L71.7891 21.1846L71.6455 21.3486L71.6045 21.3896L71.502 21.4102H70.7227V35.0684H71.4199L71.584 35.1094L71.7275 35.2119L71.8096 35.376L71.8301 35.458V37.1602H72.2402L72.4043 37.2012L72.5684 37.3447L72.6299 37.4883V39.457L72.5273 39.4775L71.0713 39.457H65.3701V37.5088L65.4316 37.3652L65.5137 37.2627L65.6777 37.1807L66.1699 37.1602L66.1904 35.3965L66.2725 35.2324L66.4365 35.1094L66.498 35.0889H67.2979V21.4102H66.498L66.334 21.3281L66.2109 21.1641L66.1904 21.1025V19.3184H65.6982L65.5547 19.2568L65.4111 19.0928L65.3701 18.9492V17.0625Z" fill="#FC8F20"/>
<path d="M52.1631 17.042L52.8193 17.0625H59.3818V19.0107L59.2998 19.1748L59.1562 19.2979L58.9922 19.3389H58.582L58.5615 21.123L58.4385 21.3281L58.3359 21.3896L58.2129 21.4102L57.4746 21.4307L57.4541 35.0684H58.1514L58.3359 35.1094L58.4385 35.1709L58.5615 35.3555V37.1602H58.9922L59.1562 37.2012L59.2998 37.3242L59.3818 37.4678V39.457L59.2383 39.4775L57.9463 39.457H52.1221V37.4678L52.2246 37.3037L52.3271 37.2217L52.4092 37.1807H52.9219V35.54L52.9424 35.3555L53.0244 35.2324L53.168 35.1094L53.2295 35.0889H54.0293V21.4307L53.25 21.4102L53.0859 21.3281L52.9834 21.2051L52.9424 21.123L52.9219 20.6924V19.3184H52.4297L52.2656 19.2363L52.1631 19.1133L52.1221 19.0107V17.0625L52.1631 17.042Z" fill="#FDB029"/>
<path d="M53.6807 39.4365H57.9463L59.2998 39.457L67.7695 39.4365H71.0713L72.5889 39.457H78.6592L80.7715 39.4365H84.5654L85.7959 39.457H88.2773L88.4619 39.498L88.708 39.6211L88.9131 39.7852L89.0566 39.9287L89.2207 40.1953L89.3232 40.5029L89.3438 40.79L89.3027 41.0156L89.2207 41.2617L89.0977 41.4668L88.9131 41.6719L88.7285 41.8154L88.3799 42H49.5996L49.5176 41.9385L49.2305 41.7949L49.0254 41.6104L48.8818 41.4463L48.7383 41.1797L48.6562 40.8721V40.585L48.7383 40.2773L48.8818 40.0107L49.1074 39.7646L49.292 39.6211L49.5381 39.498L49.6816 39.457L53.6807 39.4365Z" fill="#FD4D49"/>
<path d="M68.8359 3.6709H69L69.041 3.71191L69.0615 3.99902V5.61914L69.0205 5.74219L68.7744 5.80371L68.7334 5.90625L68.7129 6.19336L68.4053 6.27539L67.9131 6.43945L67.6055 6.60352L67.3799 6.78809L67.1953 7.05469L67.0928 7.28027L67.0107 7.58789L66.9902 7.75195V8.05957L67.0312 8.32617L67.1338 8.63379L67.2773 8.85938L67.5029 9.10547L67.8105 9.31055L68.2412 9.51562L68.6924 9.7002L68.7129 9.7207V11.874L68.6309 11.8945L68.1592 11.751L67.8105 11.5664L67.5645 11.3818L67.2979 11.1973H67.1133L66.9697 11.2998L66.8672 11.4639L66.8262 11.6074V11.751L66.8877 11.915L67.0107 12.0791L67.1953 12.2637L67.4619 12.4277L67.749 12.5508L68.1182 12.6738L68.3848 12.7354L68.6924 12.7764L68.7129 12.7969L68.7334 13.0635L68.7744 13.1455L68.8564 13.1865L68.877 13.2275L69.0205 13.2686L69.041 13.2891L69.0615 14.1709L69.082 14.2529L69.0615 14.2734H52.2656L52.2451 14.2119L52.3066 14.1914V14.1504L52.5117 14.0479L52.8193 13.8428L53.1475 13.6377L53.373 13.4941L53.8652 13.166L54.0498 13.0635L54.4805 12.7764L54.8086 12.5713L55.1162 12.3662L55.957 11.833L56.2646 11.6279L56.6543 11.3818L56.9414 11.1973L57.4746 10.8486L57.8027 10.6436L58.0898 10.459L58.6846 10.0693L59.0127 9.86426L59.2383 9.7207L59.833 9.33105L60.1611 9.12598L60.4072 8.96191L60.7354 8.75684L61.0225 8.57227L61.4941 8.26465L61.8223 8.05957L62.1914 7.81348L62.5811 7.56738L62.7246 7.46484L62.9092 7.3623L63.3398 7.0752L63.9551 6.68555L64.4883 6.33691L64.8779 6.09082L65.165 5.90625L65.6367 5.59863L66.5391 5.02441L66.8467 4.81934L67.2363 4.57324L67.5234 4.38867L68.0566 4.04004L68.3848 3.83496L68.6309 3.71191L68.8359 3.6709Z" fill="#FDB029"/>
<path d="M68.7949 0H69.2051L69.4922 0.143555L69.9434 0.430664L70.4561 0.758789L70.8662 1.02539L71.3174 1.3125L71.7275 1.5791L72.7529 2.23535L73.5732 2.76855L74.0244 3.05566L74.5371 3.38379L74.9473 3.65039L75.46 3.97852L75.8701 4.24512L76.3213 4.53223L76.6699 4.75781L77.0801 5.02441L77.4697 5.27051L77.8184 5.49609L78.2285 5.7627L78.6182 6.00879L79.0898 6.31641L79.541 6.60352L79.9512 6.87012L80.4639 7.19824L80.8125 7.42383L81.3252 7.75195L81.6738 7.97754L82.1865 8.30566L82.5967 8.57227L83.1094 8.90039L83.458 9.12598L83.9707 9.4541L84.3809 9.7207L84.832 10.0078L85.3037 10.3154L85.7549 10.6025L86.4521 11.0537L86.9033 11.3408L87.252 11.5664L87.6621 11.833L88.0518 12.0791L88.749 12.5303L89.1592 12.7969L89.3438 12.9404L89.5078 13.125L89.5898 13.3301L89.6104 13.5557L89.5693 13.7607L89.4668 13.9658L89.3232 14.1299L89.1387 14.2324L88.8926 14.2939H88.626V14.2529L88.5234 14.2324L88.4209 14.1709L88.1953 14.0479L87.9287 13.8838L87.5186 13.6377L87.2109 13.4326L86.9238 13.248L86.7598 13.125L86.6162 13.043L86.5137 12.9814L86.3086 12.8379L86.1855 12.7764L86.0625 12.6738L85.9395 12.6123L85.8369 12.5303L85.7139 12.4688L85.6113 12.4072V12.3662L85.5293 12.3457L85.3447 12.2227L85.2422 12.1611L84.9551 11.9766L84.7295 11.833L84.627 11.7715L84.3193 11.5664L84.1143 11.4434L84.0117 11.3613L83.9092 11.3203V11.2793L83.8066 11.2383L83.7041 11.1768L83.6631 11.1562V11.1152L83.5605 11.0742L83.3965 10.9717L82.9453 10.6846L82.6377 10.4795L82.3301 10.2949L82.125 10.1514L81.8584 9.9873L81.6738 9.86426L81.5303 9.78223V9.74121L81.4072 9.7002L81.2432 9.57715L81.0996 9.49512L80.6484 9.20801L80.4434 9.06445L80.3203 8.98242L80.1973 8.9209L80.0947 8.83887L79.9512 8.75684L79.7256 8.61328L79.541 8.49023L79.3154 8.34668L79.2334 8.30566L79.1719 8.24414L79.0693 8.20312V8.16211L78.9668 8.12109L78.8027 8.01855L78.5771 7.875L78.4746 7.79297L78.3311 7.71094L78.1055 7.56738L78.0234 7.50586L77.9209 7.46484V7.42383L77.8184 7.38281L77.6543 7.28027L77.4287 7.13672L77.2441 7.01367L77.1006 6.91113L76.9365 6.8291L76.875 6.76758L76.752 6.70605L76.5674 6.58301L76.4033 6.45996L76.2803 6.39844L76.0957 6.27539L75.9521 6.17285L75.7881 6.09082L75.7266 6.0293L75.6035 5.96777L75.4805 5.86523L75.3574 5.80371L75.2139 5.70117L75.1113 5.63965L74.8857 5.49609L74.7832 5.41406L74.6396 5.35254L74.5781 5.29102L74.373 5.16797L74.1475 5.02441L74.0654 4.96289L73.9629 4.90137L73.7373 4.75781L73.5322 4.63477L73.4297 4.55273L73.2451 4.4502L73.1836 4.38867L73.0811 4.34766V4.30664L72.9785 4.26562L72.8145 4.16309L72.5889 4.01953L72.3428 3.87598L72.2812 3.81445L71.9736 3.62988L71.748 3.48633L71.584 3.38379V3.34277L71.4609 3.30176L71.0918 3.05566L70.9482 2.97363V2.93262L70.8252 2.8916L70.6611 2.76855L70.5176 2.68652L70.415 2.60449L70.2715 2.52246L69.9434 2.31738L69.7998 2.21484V2.17383L69.6973 2.15332L69.3896 1.98926L69.1846 1.90723L69.041 1.88672H68.8564L68.6719 1.94824L68.5283 2.05078H68.4668V2.0918L68.3027 2.19434H68.2412V2.23535L68.1387 2.25586V2.29688L67.8926 2.44043L67.667 2.60449L67.585 2.64551H67.5234V2.68652H67.4824V2.72754L67.2979 2.83008L67.1543 2.93262H67.0928V2.97363H67.0312V3.01465H66.9697V3.05566L66.8467 3.11719L66.6211 3.26074H66.5801V3.30176L66.457 3.36328L66.375 3.38379V3.4248L66.2314 3.50684H66.1904V3.54785L66.0879 3.58887V3.62988L65.9443 3.69141L65.6162 3.91699L65.5342 3.95801H65.4727V3.99902H65.4316V4.04004L65.3086 4.10156L65.1035 4.24512H65.042V4.28613L64.8779 4.38867L64.7344 4.4707L64.5293 4.61426L64.3857 4.69629H64.3242V4.7373L63.8936 5.02441H63.832V5.06543L63.627 5.18848L63.4629 5.29102L63.2578 5.43457H63.1758L63.1553 5.49609L62.9297 5.63965L62.8066 5.72168H62.7451V5.7627H62.6836V5.80371H62.6221V5.84473L62.3965 5.98828L62.1914 6.11133L62.1094 6.17285H62.0273L62.0068 6.23438L61.7402 6.41895L61.5967 6.50098H61.5352V6.54199L61.3096 6.68555L61.207 6.72656V6.76758L61.084 6.8291L60.9814 6.91113H60.8789L60.8379 6.99316L60.5918 7.15723L60.5508 7.19824L60.4072 7.25977L60.3457 7.28027V7.32129L60.2227 7.3418L60.2021 7.40332L60.0176 7.52637L59.915 7.58789L59.833 7.64941H59.7305L59.6895 7.73145L59.4639 7.875L59.1357 8.08008L58.9102 8.24414L58.7871 8.30566H58.7461V8.34668H58.6846V8.3877L58.5615 8.44922L58.3359 8.59277L58.2334 8.6748L58.0898 8.75684L57.9873 8.81836L57.9053 8.83887V8.87988L57.7617 8.98242L57.5977 9.06445L57.4131 9.1875L57.1875 9.33105L57.0029 9.4541H56.9414V9.49512L56.7979 9.57715H56.7568V9.61816L56.6133 9.7207L56.4492 9.80273L56.3877 9.82324V9.86426L56.2852 9.90527L56.1006 10.0283L55.998 10.1104L55.875 10.1719L55.793 10.1924V10.2334L55.6494 10.3154H55.6084V10.3564L55.5059 10.3975V10.4385L55.3623 10.5L55.2803 10.5615H55.2393V10.6025L55.1162 10.6436V10.6846L54.9521 10.7666H54.8906V10.8076H54.8496V10.8486L54.7471 10.8691V10.9102L54.5215 11.0537H54.46V11.0947L54.2754 11.1973L54.0088 11.3818L53.8652 11.4844L53.7422 11.5049V11.5459L53.5166 11.6895L53.3115 11.833L53.127 11.9355L52.8193 12.1406L52.6758 12.2432H52.5938V12.2842L52.3682 12.4277L52.2041 12.5303H52.1631V12.5713H52.1016V12.6123L51.958 12.6943L51.7734 12.8174L51.5479 12.9609L51.4453 12.9814V13.0225L51.1582 13.2275L51.0967 13.248L51.0762 13.2891L50.9121 13.3711L50.748 13.4941L50.625 13.5762H50.584V13.6172L50.3379 13.7402L50.3174 13.7812L50.2148 13.8223L50.0098 13.9453L49.9893 13.9863L49.8457 14.0273H49.8047V14.0684H49.7432V14.1094L49.6201 14.1299V14.1709H49.5791L49.5586 14.2529L49.4971 14.2734L52.1016 14.2939V14.3145H49.3945L49.0664 14.2939L48.8818 14.2529L48.6768 14.1299L48.5127 13.9453L48.4102 13.7197L48.3896 13.6172V13.3916L48.4717 13.1455L48.6152 12.9609L48.8408 12.7969L49.251 12.5303L49.7637 12.2021L50.1123 11.9766L50.625 11.6484L50.9736 11.4229L51.4863 11.0947L51.835 10.8691L52.3477 10.541L52.8193 10.2334L53.332 9.90527L53.6807 9.67969L54.1934 9.35156L54.542 9.12598L55.0547 8.79785L55.4033 8.57227L55.916 8.24414L56.3262 7.97754L57.3516 7.32129L57.7617 7.05469L58.2744 6.72656L58.623 6.50098L59.1357 6.17285L59.4844 5.94727L59.9971 5.61914L60.4072 5.35254L60.8584 5.06543L61.5557 4.61426L62.0684 4.28613L62.417 4.06055L62.9297 3.73242L63.4014 3.4248L63.9141 3.09668L64.2627 2.87109L64.7754 2.54297L65.124 2.31738L65.6367 1.98926L65.9854 1.76367L66.498 1.43555L66.9082 1.16895L67.9336 0.512695L68.3438 0.246094L68.6104 0.0820312L68.7949 0Z" fill="#FD4E49"/>
<path d="M68.8564 1.86621H69.1025L69.3691 1.94824L69.5537 2.05078L69.7998 2.17383V2.21484L69.8818 2.25586L70.2715 2.50195L70.4971 2.64551L70.5996 2.72754L70.7432 2.80957L70.9072 2.91211L70.9482 2.93262V2.97363L71.0508 3.01465L71.2148 3.11719L71.4404 3.26074L71.584 3.34277V3.38379L71.6865 3.4248L71.9121 3.56836L72.0762 3.6709L72.3428 3.83496V3.87598L72.4453 3.91699L72.7324 4.08105L72.8965 4.2041L73.0811 4.30664V4.34766L73.2041 4.38867L73.3682 4.51172L73.4912 4.57324L73.5938 4.65527L73.8809 4.81934L74.0039 4.92188L74.127 4.9834L74.3115 5.10645L74.5371 5.25L74.6396 5.31152V5.35254L74.7832 5.39355L74.9473 5.5166L75.1318 5.63965L75.3369 5.7627L75.4189 5.82422L75.5215 5.88574L75.665 5.98828L75.7881 6.0498V6.09082L75.8906 6.13184L76.0342 6.21387L76.2598 6.35742L76.3418 6.41895L76.4854 6.50098L76.6904 6.64453L76.8135 6.72656L76.9365 6.78809V6.8291L77.0391 6.87012L77.1826 6.95215L77.4082 7.0957L77.5928 7.21875L77.7363 7.32129L77.9209 7.42383V7.46484L78.0645 7.50586L78.1875 7.6084L78.3311 7.69043L78.5566 7.83398L78.7412 7.95703L78.8848 8.05957L79.0693 8.16211V8.20312L79.2129 8.24414L79.2334 8.30566L79.3154 8.32617L79.541 8.46973L79.7256 8.59277L80.1768 8.87988L80.2588 8.94141L80.3818 9.00293L80.5664 9.12598L80.7715 9.26953L81.0996 9.47461L81.3252 9.61816L81.4072 9.67969L81.5303 9.74121V9.78223L81.6328 9.82324L81.8379 9.94629L82.043 10.0898L82.248 10.2129L82.3301 10.2744L82.4736 10.3564L82.5557 10.418L82.6582 10.4795L82.9248 10.6436L83.1094 10.7666L83.3965 10.9512L83.4785 11.0127L83.6631 11.1152V11.1562L83.7861 11.1973L83.9092 11.2793V11.3203L84.0117 11.3408L84.1758 11.4639L84.3809 11.5869L84.627 11.751L84.7705 11.833L84.9756 11.9766L85.2422 12.1406L85.4062 12.2432L85.5498 12.3457L85.6113 12.3662V12.4072L85.6934 12.4277L85.7754 12.4893L85.9189 12.5713L86.001 12.6328L86.1035 12.6943L86.2471 12.7969L86.3701 12.8584L86.5137 12.9609L86.6162 13.0225L86.8418 13.166L87.334 13.4941L87.8262 13.8018L88.1748 14.0068L88.3389 14.1094L88.5439 14.2324L88.626 14.2529V14.2939H85.9189L85.8779 14.2324L85.7344 14.1709L85.5293 14.0273L85.4678 14.0068V13.9658L85.3652 13.9248L85.1396 13.7812L85.0371 13.6992L84.8525 13.5967L84.6885 13.4941L84.5244 13.4326L84.3398 13.3096L83.7656 12.9404L83.5195 12.7764L83.1299 12.5303L82.9043 12.3867L82.6992 12.2432L82.5146 12.1406L82.3096 11.9971L81.9814 11.792L81.5303 11.5049L81.2227 11.2998L80.833 11.0537L80.6484 10.9307L80.3203 10.7256L80.0742 10.5615L79.8486 10.418L79.6436 10.2744L79.418 10.1514L79.2539 10.0283L79.0693 9.92578L78.8643 9.78223L78.5361 9.57715L78.3516 9.4541L77.9619 9.20801L77.6543 9.00293L77.2646 8.75684L76.6289 8.34668L76.2188 8.08008L75.6035 7.69043L75.1318 7.38281L74.8447 7.19824L74.4551 6.95215L73.9834 6.64453L73.6963 6.45996L73.2451 6.17285L72.835 5.90625L72.2607 5.53711L72.0352 5.39355L71.3994 4.9834L71.1738 4.83984L70.251 4.24512L70.0254 4.10156L69.7383 3.91699L69.5127 3.79395L69.2256 3.6709L69.1641 3.65039H68.918L68.5693 3.75293L68.3438 3.87598L68.0566 4.06055L67.5234 4.40918L67.1953 4.61426L66.3135 5.18848L65.9854 5.39355L65.6367 5.61914L65.165 5.92676L64.8369 6.13184L64.4883 6.35742L63.9551 6.70605L63.627 6.91113L63.1553 7.21875L62.7861 7.46484L62.6016 7.56738L62.2939 7.77246L61.9658 7.97754L61.6377 8.20312L61.4531 8.30566L61.0225 8.59277L60.6943 8.79785L60.4893 8.94141L60.3047 9.04395L59.874 9.33105L59.5459 9.53613L59.2383 9.74121L58.9102 9.94629L58.6846 10.0898L58.0898 10.4795L57.7617 10.6846L57.4746 10.8691L56.9414 11.2178L56.6133 11.4229L56.3262 11.6074L55.7314 11.9971L55.4033 12.2021L55.0547 12.4277L54.5215 12.7764L54.1934 12.9814L53.9473 13.1455L53.6191 13.3506L53.332 13.5352L52.9219 13.8018L52.5322 14.0479L52.3682 14.1504L52.2246 14.2119H52.1631L52.1426 14.2939H49.4355L49.4971 14.2529H49.5586L49.5791 14.1709H49.6201V14.1299H49.6816L49.7021 14.0889L49.7432 14.1094V14.0684H49.8047V14.0273L49.9893 13.9863L50.0098 13.9248L50.2148 13.8018L50.3174 13.7812L50.3379 13.7197L50.5225 13.6172H50.584V13.5762L50.8711 13.3916L51.0146 13.2891H51.0762L51.0967 13.2275L51.2812 13.125L51.4043 13.0225H51.4453V12.9814L51.5273 12.9609L51.5684 12.9199L51.8555 12.7559L52.04 12.6123H52.1016V12.5713H52.1631V12.5303L52.3477 12.4277L52.4502 12.3457L52.5527 12.2842H52.5938V12.2432L52.6963 12.2021L53.0654 11.9561L53.3115 11.8125L53.5166 11.6689L53.7012 11.5459H53.7422V11.5049L53.8857 11.4434L54.2139 11.2178L54.4189 11.0947H54.46V11.0537L54.624 10.9717L54.7061 10.9102H54.7471V10.8691L54.8496 10.8486V10.8076H54.8906V10.7666L55.0342 10.7051L55.1162 10.6846V10.6436L55.2393 10.6025V10.5615L55.3828 10.459L55.5059 10.4385V10.3975L55.6084 10.3564V10.3154L55.752 10.2334H55.793V10.1924L56.0186 10.0693L56.2031 9.94629L56.3057 9.86426H56.3877V9.82324L56.5518 9.7207L56.6953 9.63867L56.7568 9.61816V9.57715L56.9004 9.49512H56.9414V9.4541L57.167 9.33105L57.3516 9.20801L57.4541 9.12598L57.6387 9.02344L57.8438 8.90039L57.9053 8.87988V8.83887L58.0693 8.75684L58.1719 8.6748L58.3154 8.59277L58.623 8.3877H58.6846V8.34668H58.7461V8.30566L58.9307 8.20312L59.1357 8.05957L59.3203 7.93652L59.4639 7.85449L59.71 7.69043L59.7305 7.64941L59.8535 7.6084L59.9561 7.52637L60.0791 7.46484L60.2021 7.38281L60.2227 7.3418L60.3457 7.32129V7.28027L60.4688 7.19824L60.5713 7.15723L60.7969 6.99316L60.8789 6.91113L61.002 6.87012L61.1045 6.78809L61.207 6.76758V6.72656L61.4941 6.54199H61.5352V6.50098L61.6172 6.45996H61.6787L61.6992 6.41895L61.9248 6.27539L62.0273 6.17285L62.1709 6.11133L62.3145 6.00879L62.458 5.92676L62.5811 5.84473H62.6221V5.80371H62.6836V5.7627H62.7451V5.72168L62.9092 5.63965L63.0117 5.55762L63.1553 5.47559L63.1758 5.43457L63.3193 5.37305L63.627 5.16797L63.791 5.06543H63.832V5.02441L64.0576 4.90137L64.2832 4.7373H64.3242V4.69629L64.4678 4.63477L64.7959 4.40918L65.001 4.28613H65.042V4.24512L65.2266 4.14258L65.3291 4.06055L65.4316 4.04004V3.99902H65.4727V3.95801L65.6162 3.89648L65.9443 3.6709L66.0264 3.62988H66.0879V3.58887L66.1904 3.54785V3.50684L66.334 3.4248H66.375V3.38379L66.5186 3.30176H66.5801V3.26074L66.8467 3.09668L66.9082 3.05566H66.9697V3.01465H67.0312V2.97363H67.0928V2.93262L67.2773 2.83008L67.4209 2.72754H67.4824V2.68652H67.5234V2.64551L67.7285 2.54297L68.0156 2.33789L68.1387 2.29688V2.25586L68.2412 2.23535V2.19434L68.4258 2.0918H68.4668V2.05078L68.6309 1.96875L68.7539 1.88672L68.8564 1.86621Z" fill="#F33C3A"/>
<path d="M57.4336 17.0625H59.3818V19.0107L59.2998 19.1748L59.1562 19.2979L58.9922 19.3389H58.582L58.5615 21.123L58.4385 21.3281L58.3359 21.3896L58.2129 21.4102L57.4746 21.4307L57.4541 35.0684H58.1514L58.3359 35.1094L58.4385 35.1709L58.5615 35.3555V37.1602H58.9922L59.1562 37.2012L59.2998 37.3242L59.3818 37.4678V39.457L59.2383 39.4775L57.9463 39.457H54.8701V39.4365L55.7109 39.416L55.752 39.293V37.5703L55.7314 36.9346V35.6631L55.752 34.7607V21.8203L55.7314 21.1436V18.1494L55.752 17.4521V17.124L55.5264 17.1035V17.083L57.4336 17.0625Z" fill="#FC9020"/>
<path d="M65.3701 17.0625L68.9385 17.083L69.0205 17.1035L69 18.5186V21.6768L69.0205 36.1143V39.3135L68.959 39.4365L67.9336 39.457H65.3701V37.5088L65.4316 37.3652L65.5137 37.2627L65.6777 37.1807L66.1699 37.1602L66.1904 35.3965L66.2725 35.2324L66.4365 35.1094L66.498 35.0889H67.2979V21.4102H66.498L66.334 21.3281L66.2109 21.1641L66.1904 21.1025V19.3184H65.6982L65.5547 19.2568L65.4111 19.0928L65.3701 18.9492V17.0625Z" fill="#FCB029"/>
<path d="M85.8779 16.3037H85.8984V18.293L85.8779 19.0518L85.7549 19.2363L85.6113 19.3184L85.4883 19.3389H85.0781V20.877L85.0576 21.1641L84.9141 21.3486L84.8525 21.3896L84.709 21.4102H83.9707V35.0684H84.668L84.873 35.1299L84.9961 35.2324L85.0576 35.335L85.0781 35.417V37.1602H85.4883L85.6523 37.2012L85.8164 37.3447L85.8779 37.4473L85.8984 37.5703V39.457L85.7549 39.4775L84.5654 39.457H82.9248L82.248 39.4365L82.2686 39.252V17.124L81.7354 17.1035V17.083L85.1396 17.0625H85.8574L85.8779 16.3037Z" fill="#FC9020"/>
<path d="M52.1221 14.7451H52.1426L52.1631 15.668H52.4707L52.5732 15.6475L52.6143 15.668L52.7373 15.6475H52.9629L53.0449 15.668L53.1475 15.6475H53.5166L53.6602 15.668L53.8037 15.6475L54.0703 15.668H56.5312L56.6338 15.6475L56.7363 15.668H57.1465L57.5771 15.6885L57.9053 15.668H60.2842L60.4482 15.6885L60.6943 15.668L60.8994 15.6885L60.9404 15.668H67.3184L67.3594 15.6885L67.3799 15.6475V15.6885L67.8311 15.668H68.7949H68.877H69.3691H69.4512H69.5742L69.6562 15.6475V15.6885L69.7793 15.668L69.8203 15.627L69.9023 15.6475V15.6885L70.0869 15.6475L70.2305 15.6885L70.251 15.6475L70.333 15.668L70.4766 15.6475V15.6885L70.6201 15.6475L70.8252 15.668L70.8867 15.6475L70.9277 15.668L70.9893 15.6475H71.1328L71.1943 15.668H71.3789L71.4199 15.6475V15.6885H71.4609L71.4814 15.6475H71.9531L72.1377 15.668L72.4043 15.6475H72.4863H72.5684V15.6885L72.6094 15.668L72.8145 15.6475L72.876 15.668L72.917 15.6475L73.0811 15.668L73.1631 15.6475L73.2246 15.668H73.8809L73.9219 15.6475L74.1064 15.668H74.168H78.6797L78.7207 15.6475V15.6885H78.8027L78.8232 15.6475L78.9258 15.668H79.1309L79.2129 15.6885V15.6475L79.3359 15.668L79.4385 15.6475L79.623 15.6885V15.6475L79.8076 15.668H79.9717L80.0742 15.6475L80.1973 15.668L80.2588 15.6475H80.5049L80.5664 15.668H80.6279L80.6484 15.627L80.751 15.6475H81.0791L81.4688 15.668L81.5508 15.6475V15.6885L81.7559 15.6475L81.8174 15.668L81.9199 15.6475H82.207L82.2275 15.668L82.3506 15.6475H82.4326H82.9043L83.0273 15.668L83.1299 15.6475H83.2324L83.2734 15.627L83.3965 15.6475V15.6885L83.458 15.6475H83.7451L83.8477 15.668L84.1143 15.6475H85.1602L85.2217 15.627H85.5908L85.7959 15.6475L85.8164 15.6885L85.8574 15.5449H85.8779V17.0215L85.8574 17.0625L85.1396 17.083H65.6367L64.5088 17.0625L59.3203 17.083H52.8193L52.1016 17.0625V15.627L52.1221 14.7451Z" fill="#F23C3A"/>
<path d="M48.7588 40.2363H48.7998V40.2773L48.9023 40.2979L48.9844 40.3799V40.4414L49.0664 40.4619L49.1279 40.5234V40.5645L49.2305 40.6055V40.6465L49.3535 40.6875L49.6201 40.79L49.8047 40.8105L49.8662 40.8311H50.3584H50.4199H50.6045L50.6865 40.8516H51.1992L51.2607 40.8721V40.8311L51.4043 40.8516L51.4658 40.8311H52.7988L52.8398 40.8516L52.8604 40.8105L52.9014 40.8311H53.5166L53.5781 40.8105L53.9473 40.8311H54.5625L54.6445 40.8516H54.9316L54.9727 40.8721L54.9932 40.8311H55.0752V40.8721L55.2188 40.8516H55.3623L55.4648 40.8311L55.4854 40.8516L55.752 40.8311L55.875 40.8516H56.2031L56.2852 40.8721L56.3057 40.8311H56.3877L56.4902 40.8516H57.126L57.167 40.8311L57.2695 40.8516L57.3516 40.8311L57.3721 40.8721H57.4131L57.4336 40.8311L57.5361 40.8721V40.8311H57.6592L57.7412 40.8516L57.8027 40.8311L57.9258 40.8516L58.0078 40.8311L58.2129 40.8516L58.2744 40.8311V40.8721L58.3975 40.8311H58.6846L58.7871 40.8516H58.9307L58.9717 40.8721V40.8311L59.1973 40.8721V40.8311H59.2998V40.8721L59.3818 40.8311L59.5869 40.8516L59.7715 40.8311L59.9766 40.8516H61.8223H61.8838H63.3193L63.3809 40.8311L63.4629 40.8516L63.709 40.8311L63.791 40.8721L63.8115 40.8311L63.832 40.8516L63.9756 40.8311H64.1396L64.2422 40.8516L64.4268 40.8311L64.5088 40.8516L64.7754 40.8311H65.0215V40.8721H65.083V40.8311H66.2314H66.252H66.9287L67.0518 40.8721L67.0723 40.8311L67.1543 40.8516H67.2773L67.3799 40.8311L67.4209 40.8516L67.5645 40.8721V40.8311L67.7285 40.8516H67.9336L68.1182 40.8311L68.2002 40.8516H68.2617L68.5078 40.8311V40.8721L68.5898 40.8311L68.7334 40.8516H68.918L69.0205 40.8311L69.1436 40.8516L69.2256 40.8311L69.3281 40.8516L69.4307 40.8311L69.5332 40.8516L69.6152 40.8311L69.6973 40.8516H70.0459L70.1074 40.8311V40.8721L70.3125 40.8516L70.4561 40.8311H70.5176L70.5381 40.8721H70.5791V40.8311L70.6611 40.8516L70.7637 40.8311L70.8457 40.8721L70.8662 40.8311L70.9688 40.8516L71.0918 40.8311L71.1738 40.8516L71.3174 40.8311L71.4404 40.8516L71.543 40.8311L71.584 40.8516L71.7686 40.8311H71.9736L72.0762 40.8516H72.2197L72.2607 40.8721V40.8311L72.4453 40.8516L72.4863 40.8721V40.8311H72.5889V40.8721L72.6709 40.8311L72.876 40.8516L73.0605 40.8311L73.2656 40.8516H75.1113H75.1729H76.4443L76.5469 40.8311L76.752 40.8516H77.1416L77.2646 40.8311L77.3672 40.8516H77.4492L77.6748 40.8311L77.7979 40.8516L78.0645 40.8311H78.3105V40.8721H78.3721V40.8311H80.2383L80.3408 40.8721L80.3613 40.8311L80.4434 40.8516L80.5869 40.8311H80.8945L80.9971 40.8721L81.0176 40.8311L81.2227 40.8516L81.2432 40.8311L81.4893 40.8516H81.5508L81.7969 40.8311H81.8789L82.0225 40.8516L82.0635 40.8311H82.3096L82.4326 40.8516H82.6377L82.6787 40.8721V40.8311H82.7197V40.8721L82.9043 40.8311L82.9863 40.8516H83.2529H83.3145L83.458 40.8311L83.6221 40.8516L83.6836 40.8311H83.8682V40.8721L84.0527 40.8311L84.1758 40.8516L84.5039 40.8311L84.5449 40.8516L84.5654 40.8105L84.6885 40.8516L84.791 40.8311H86.2061L86.2471 40.8105H86.4111H86.4727L86.6162 40.8311L86.6777 40.8105L86.8828 40.8311L87.0059 40.8516L87.293 40.8311L87.6621 40.8105L87.8262 40.79H87.9902V40.8311L88.1338 40.7695L88.2568 40.79L88.4004 40.749L88.6055 40.708L88.708 40.6465L88.7285 40.6055L88.8311 40.585L89.0771 40.3799L89.1387 40.3389H89.2412L89.2617 40.4824L89.2822 40.7285L89.3027 40.749V41.0156L89.2207 41.2617L89.0977 41.4668L88.9131 41.6719L88.7285 41.8154L88.3799 42H49.5996L49.5176 41.9385L49.2305 41.7949L49.0254 41.6104L48.8818 41.4463L48.7383 41.1797L48.6562 40.8721V40.585L48.7383 40.2773L48.7588 40.2363Z" fill="#F33C3A"/>
<path d="M55.6699 17.1035L55.7725 17.124V17.6777L55.752 18.3135V21.3691L55.7725 21.9639V34.8223L55.752 35.8682V36.9551L55.7725 37.7754V39.334L55.7109 39.4365L54.7881 39.457H52.1221V39.4365L52.6553 39.416L55.4443 39.3955L55.6494 39.3545L55.6904 39.3135L55.6699 39.1084L55.6904 38.9033V20.5078L55.6699 20.1797L55.6904 19.4209V17.4111L55.6699 17.1035Z" fill="#FEA427"/>
<path d="M69.1641 9.92578L69.3076 9.94629L69.5947 10.1104L69.8408 10.3359L69.9639 10.5615L70.0049 10.7666V11.1152L69.9229 11.3818L69.7998 11.5459L69.6357 11.6895L69.3486 11.833L69.1846 11.8535L69.1641 9.92578Z" fill="#FD9020"/>
<path d="M82.2275 17.1035L82.2891 17.124V39.375L82.248 39.4365L82.084 39.457H79.2539V39.4365L79.7461 39.416L82.0225 39.3955L82.207 39.375V38.8623L82.2275 38.3496L82.207 37.3857V35.8477L82.2275 35.4785V23.3379L82.207 22.4766V17.4932L82.1865 17.4111V17.2061L82.2275 17.1035Z" fill="#FFA528"/>
<path d="M68.9015 4.59375L69.0328 4.82344V14.0109L68.639 13.8961L67.3921 12.8625L66.8015 12.0586L66.4078 11.1398L66.1453 9.64688V8.15391L66.4078 7.12031L66.8015 6.20156L67.4578 5.39766L68.5078 4.70859L68.9015 4.59375Z" fill="#FDAE29"/>
<path d="M68.9795 3.58887H69.123L69.3896 3.6709L69.5332 3.73242L69.6973 3.81445V3.85547L69.7998 3.89648L70.0254 4.04004L70.3945 4.26562L70.5791 4.38867L71.0303 4.67578L71.1943 4.79883L71.3379 4.88086L71.7891 5.16797L72.0762 5.35254L72.3018 5.49609L72.5889 5.68066L72.917 5.88574L73.2246 6.09082L73.5938 6.31641L73.7578 6.43945L73.9424 6.54199L74.25 6.74707L74.3936 6.84961L74.5371 6.93164L74.6396 6.99316V7.03418L74.7422 7.05469L74.9062 7.17773L75.0498 7.25977L75.5215 7.56738L75.7676 7.73145L76.1367 7.95703L76.4854 8.18262L76.6904 8.32617L76.834 8.4082L76.9365 8.46973V8.51074L77.0186 8.53125L77.2031 8.6543L77.3467 8.73633L77.8184 9.04395L78.0439 9.1875L78.2285 9.31055L78.4336 9.43359L78.7822 9.65918L79.0898 9.86426L79.2334 9.9668L79.418 10.0693L79.7051 10.2539L80.0332 10.459L80.2383 10.6025L80.3818 10.7051L80.5664 10.8076L80.8535 10.9922L81.1816 11.1973L81.2842 11.2793L81.4277 11.3613L81.5303 11.4434L81.7148 11.5459L82.002 11.7305L82.2275 11.874L82.5352 12.0791L82.6787 12.1816L82.8223 12.2637L83.0479 12.4072L83.1914 12.5098L83.2939 12.5713L83.5195 12.7148L83.6016 12.7764L83.7451 12.8584L83.9297 12.9814L84.0732 13.084L84.2578 13.1865L84.5654 13.3916L84.6475 13.4736L84.5244 13.4326L84.3398 13.3096L83.7656 12.9404L83.5195 12.7764L83.1299 12.5303L82.9043 12.3867L82.6992 12.2432L82.5146 12.1406L82.3096 11.9971L81.9814 11.792L81.5303 11.5049L81.2227 11.2998L80.833 11.0537L80.6484 10.9307L80.3203 10.7256L80.0742 10.5615L79.8486 10.418L79.6436 10.2744L79.418 10.1514L79.2539 10.0283L79.0693 9.92578L78.8643 9.78223L78.5361 9.57715L78.3516 9.4541L77.9619 9.20801L77.6543 9.00293L77.2646 8.75684L76.6289 8.34668L76.2188 8.08008L75.6035 7.69043L75.1318 7.38281L74.8447 7.19824L74.4551 6.95215L73.9834 6.64453L73.6963 6.45996L73.2451 6.17285L72.835 5.90625L72.2607 5.53711L72.0352 5.39355L71.3994 4.9834L71.1738 4.83984L70.251 4.24512L70.0254 4.10156L69.7383 3.91699L69.5127 3.79395L69.2256 3.6709L69.1641 3.65039H68.918L68.5693 3.75293L68.4463 3.79395L68.5078 3.73242L68.7744 3.62988L68.9795 3.58887Z" fill="#FE4E4A"/>
<path d="M52.3066 14.1504H52.3682V14.1914H52.4092V14.2324L52.6553 14.2119L52.7373 14.1709L52.9014 14.1504L53.1064 14.1709L53.1885 14.2119L53.4551 14.2324H66.6006L67.1133 14.2529V14.2734H52.2656L52.2451 14.2119L52.3066 14.1914V14.1504Z" fill="#FE9C24"/>
<path d="M68.9795 21.6768H69L69.0205 36.1143V39.3135L68.959 39.4365L67.9336 39.457H65.9648V39.4365L66.4775 39.416L68.7334 39.3955L68.918 39.334L68.959 38.8623V35.7656L68.9795 21.6768Z" fill="#FFA528"/>
<path d="M70.7021 21.4102H70.7227V23.2764L70.7021 33.7354L70.6611 33.7559V22.7842L70.6816 22.7637V21.5332L70.7021 21.4102Z" fill="#FD9C24"/>
<path d="M73.6963 16.96H77.7773L77.9004 16.9805H78.249L78.3926 17.001L78.3105 17.042H73.1631V17.0215L73.4092 16.9805L73.6963 16.96Z" fill="#FD4C48"/>
<path d="M82.2275 17.1035L82.2891 17.124V23.7275L82.248 23.7686L82.2275 23.584L82.207 22.3945V17.4932L82.1865 17.4111V17.2061L82.2275 17.1035Z" fill="#FFA528"/>
<path d="M82.248 35.6016L82.2891 35.6836V39.375L82.248 39.4365L82.084 39.457H79.2539V39.4365L79.7461 39.416L82.0225 39.3955L82.207 39.375V38.8623L82.2275 38.3496L82.207 37.3857V35.8477L82.2275 35.6221L82.248 35.6016Z" fill="#FEA126"/>
<path d="M60.1816 16.96H61.002L64.0781 16.9805H64.2422L64.2832 17.0215L63.9141 17.042L63.0732 17.0625H62.0889L59.874 17.042V17.0215H59.9766L59.9971 16.9805L60.1816 16.96Z" fill="#FC4B47"/>
<path d="M68.9795 36.75L69.0205 36.7705V39.3135L68.959 39.4365L67.9336 39.457H65.9648V39.4365L66.4775 39.416L68.7334 39.3955L68.918 39.334L68.959 38.8623V36.7705L68.9795 36.75Z" fill="#FEA126"/>
<path d="M55.6699 17.1035L55.7725 17.124V17.6777L55.752 18.3135V20.6924L55.6904 20.6719L55.6699 20.1797L55.6904 19.4209V17.4111L55.6699 17.1035Z" fill="#FFA528"/>
<path d="M68.8359 3.6709H69L69.041 3.71191L69.0615 3.99902V5.61914L69.041 5.72168H69.0205L69 5.55762V5.20898L69.0205 4.63477L69 4.18359L68.9795 4.01953L68.918 3.95801L68.877 3.79395L68.7334 3.77344H68.6719H68.5488L68.5693 3.73242L68.6924 3.69141L68.8359 3.6709Z" fill="#FEA327"/>
<path d="M52.3066 14.1504H52.3682V14.1914H52.4092V14.2324L52.6553 14.2119L52.7373 14.1709L52.9014 14.1504L53.1064 14.1709L53.1885 14.2119L53.4551 14.2324H53.9473L54.2549 14.2529V14.2734H52.2656L52.2451 14.2119L52.3066 14.1914V14.1504Z" fill="#FFA528"/>
<path d="M59.3613 17.083H59.3818V19.0107L59.2998 19.1748L59.2588 19.1953L59.2998 19.0312L59.3408 17.3701L59.3613 17.083Z" fill="#FEA528"/>
<path d="M85.8369 17.083H85.8574L85.8779 19.0518L85.7549 19.2363L85.6113 19.3184L85.4883 19.3389H85.0986V19.3184L85.4883 19.2773L85.7139 19.1543H85.7549L85.8164 18.8467V17.9238L85.8369 17.083Z" fill="#FEA728"/>
<path d="M59.3203 37.3857L59.3818 37.4678V38.7598L59.3613 39.293H59.3408L59.3203 38.6367V38.2676L59.2998 37.5908L59.3203 37.3857Z" fill="#FEA628"/>
<path d="M85.8779 16.3037H85.8984V18.293L85.8779 18.9697H85.8574L85.8369 17.0625L85.8574 17.0215L85.8779 16.3037Z" fill="#E98323"/>
<path d="M68.9385 17.1035H69.0205L69 18.5186V19.0312L68.959 19.0518L68.9385 18.6006L68.959 18.1494V17.6367L68.9385 17.3906H68.9795L68.9385 17.2061V17.1035Z" fill="#FFA528"/>
<path d="M85.7959 37.3447L85.8574 37.4062L85.8984 37.5703V39.1904H85.8779L85.8574 38.165H85.8369L85.8164 37.6318L85.7959 37.3447Z" fill="#FDB12A"/>
<path d="M69.0205 4.2041H69.0615V5.61914L69.041 5.72168H69.0205L69 5.55762V5.20898L69.0205 4.63477L69 4.32715L69.0205 4.2041Z" fill="#FFA528"/>
<path d="M69.0205 14.0068H69.041L69.082 14.2529L69.0615 14.2734H67.1133L67.1953 14.2324H69L69.0205 14.0068Z" fill="#FEA327"/>
<path d="M85.0166 20.877L85.0576 20.959V21.1641L84.9141 21.3486L84.8525 21.3896L84.709 21.4102H84.4424V21.3896L84.709 21.3486L84.8936 21.3076L84.9346 21.2051L85.0166 20.877Z" fill="#FEA728"/>
<path d="M58.541 20.877H58.5615V21.123L58.4385 21.3281L58.3359 21.3896L58.2129 21.4102H57.9873V21.3896L58.1719 21.3691L58.377 21.3076L58.459 21.1641L58.5205 20.8975L58.541 20.877Z" fill="#FEA628"/>
<path d="M58.459 35.2529H58.5L58.5615 35.3555V36.0322L58.5205 36.0527L58.5 35.5195L58.459 35.2529Z" fill="#FEA427"/>
<path d="M85.7959 37.3447L85.8574 37.4062L85.8779 37.4473V37.9189L85.8574 38.165H85.8369L85.8164 37.6318L85.7959 37.3447Z" fill="#FEA528"/>
<path d="M89.2412 40.3184L89.2822 40.3594L89.3438 40.6465L89.3232 40.9541H89.3027L89.2822 40.749L89.2617 40.667L89.2412 40.4824V40.3184Z" fill="#FD5C45"/>
<path d="M49.3125 41.7539L49.415 41.7744V41.8154L49.5176 41.8359L49.5586 41.918H49.5996L49.6201 41.959L49.6816 42L49.5791 41.9795L49.2305 41.7949L49.3125 41.7539Z" fill="#FE4E4A"/>
<path d="M59.2178 19.1748L59.2588 19.2158L59.1562 19.2979L58.9922 19.3389H58.582V19.3184L59.0332 19.2979L59.0537 19.2363L59.2178 19.1748Z" fill="#FDAB29"/>
<path d="M71.7891 21.041L71.8096 21.1025L71.748 21.2461L71.6045 21.3896L71.502 21.4102H71.2764V21.3896L71.5225 21.3486L71.707 21.2256L71.7891 21.041Z" fill="#FEA828"/>
<path d="M77.9004 16.9805H78.249L78.3926 17.001L78.3105 17.042H77.9619L77.8799 17.001L77.9004 16.9805Z" fill="#FE4E4A"/>
<path d="M72.3428 19.2363H72.4658L72.4043 19.2979L72.2197 19.3389H71.8506V19.3184L72.1582 19.2979L72.3428 19.2363Z" fill="#FEAA28"/>
<path d="M64.5498 16.9805H64.7754L64.9189 17.001L64.8574 17.0215V17.0625H64.5498V16.9805Z" fill="#FC6A3F"/>
<path d="M84.9551 21.2461V21.3076L84.8525 21.3896L84.709 21.4102H84.4424V21.3896L84.709 21.3486L84.9141 21.2871L84.9551 21.2461Z" fill="#FEAA28"/>
<path d="M58.459 21.2051L58.4795 21.2666L58.377 21.3691L58.2129 21.4102H57.9873V21.3896L58.1719 21.3691L58.377 21.3076L58.459 21.2051Z" fill="#FEA928"/>
<path d="M52.3066 14.1504L52.3682 14.1709L52.3066 14.2529H52.8398V14.2734H52.2656L52.2451 14.2119L52.3066 14.1914V14.1504Z" fill="#FB8F20"/>
<path d="M89.0156 41.4668L89.0566 41.4873L88.9131 41.6514L88.8105 41.7334L88.8311 41.6514L88.9541 41.5488L89.0156 41.4668Z" fill="#FD5A46"/>
<path d="M59.3408 18.8877L59.3818 18.9492L59.3613 19.0723L59.2793 19.1953L59.2588 19.1543L59.2998 19.0312H59.3408V18.8877Z" fill="#FDAD29"/>
<path d="M63.6475 16.9805L63.791 17.001L63.8936 17.0215V17.042H63.627L63.6475 16.9805Z" fill="#F84542"/>
</g>
<g clip-path="url(#clip2_1_993)">
<path d="M20.7949 25H21.2051L21.4922 25.1436L21.9434 25.4307L22.4561 25.7588L22.8662 26.0254L23.3174 26.3125L23.7275 26.5791L24.7529 27.2354L25.5732 27.7686L26.0244 28.0557L26.5371 28.3838L26.9473 28.6504L27.46 28.9785L27.8701 29.2451L28.3213 29.5322L28.6699 29.7578L29.0801 30.0244L29.4697 30.2705L29.8184 30.4961L30.2285 30.7627L30.6182 31.0088L31.0898 31.3164L31.541 31.6035L31.9512 31.8701L32.4639 32.1982L32.8125 32.4238L33.3252 32.752L33.6738 32.9775L34.1865 33.3057L34.5967 33.5723L35.1094 33.9004L35.458 34.126L35.9707 34.4541L36.3809 34.7207L36.832 35.0078L37.3037 35.3154L37.7549 35.6025L38.4521 36.0537L38.9033 36.3408L39.252 36.5664L39.6621 36.833L40.0518 37.0791L40.749 37.5303L41.1592 37.7969L41.3438 37.9404L41.5078 38.125L41.5898 38.3301L41.6104 38.5557L41.5693 38.7607L41.4668 38.9658L41.3232 39.1299L41.1387 39.2324L40.8926 39.2939L40.585 39.3145H37.8779L37.8984 41.3037V43.293L37.8779 44.0518L37.7549 44.2363L37.6113 44.3184L37.4883 44.3389H37.0781V45.877L37.0576 46.1641L36.9141 46.3486L36.8525 46.3896L36.709 46.4102H35.9707V60.0684H36.668L36.873 60.1299L36.9961 60.2324L37.0576 60.335L37.0781 60.417V62.1602H37.4883L37.6523 62.2012L37.8164 62.3447L37.8779 62.4473L37.8984 62.5703V64.4365L40.2773 64.457L40.4619 64.498L40.708 64.6211L40.9131 64.7852L41.0566 64.9287L41.2207 65.1953L41.3232 65.5029L41.3438 65.79L41.3027 66.0156L41.2207 66.2617L41.0977 66.4668L40.9131 66.6719L40.7285 66.8154L40.3799 67H1.59961L1.51758 66.9385L1.23047 66.7949L1.02539 66.6104L0.881836 66.4463L0.738281 66.1797L0.65625 65.8721V65.585L0.738281 65.2773L0.881836 65.0107L1.10742 64.7646L1.29199 64.6211L1.53809 64.498L1.68164 64.457H4.12207V62.4678L4.22461 62.3037L4.32715 62.2217L4.40918 62.1807H4.92188V60.54L4.94238 60.3555L5.02441 60.2324L5.16797 60.1094L5.22949 60.0889H6.0293V46.4307L5.25 46.4102L5.08594 46.3281L4.9834 46.2051L4.94238 46.123L4.92188 45.6924V44.3184H4.42969L4.26562 44.2363L4.16309 44.1133L4.12207 44.0107L4.10156 42.0625V40.627L4.12207 39.3145H1.39453L1.06641 39.2939L0.881836 39.2529L0.676758 39.1299L0.512695 38.9453L0.410156 38.7197L0.389648 38.6172V38.3916L0.47168 38.1455L0.615234 37.9609L0.84082 37.7969L1.25098 37.5303L1.76367 37.2021L2.1123 36.9766L2.625 36.6484L2.97363 36.4229L3.48633 36.0947L3.83496 35.8691L4.34766 35.541L4.81934 35.2334L5.33203 34.9053L5.68066 34.6797L6.19336 34.3516L6.54199 34.126L7.05469 33.7979L7.40332 33.5723L7.91602 33.2441L8.32617 32.9775L9.35156 32.3213L9.76172 32.0547L10.2744 31.7266L10.623 31.501L11.1357 31.1729L11.4844 30.9473L11.9971 30.6191L12.4072 30.3525L12.8584 30.0654L13.5557 29.6143L14.0684 29.2861L14.417 29.0605L14.9297 28.7324L15.4014 28.4248L15.9141 28.0967L16.2627 27.8711L16.7754 27.543L17.124 27.3174L17.6367 26.9893L17.9854 26.7637L18.498 26.4355L18.9082 26.1689L19.9336 25.5127L20.3438 25.2461L20.6104 25.082L20.7949 25ZM16.5088 42.042L11.3818 42.0625L11.3613 44.0107L11.2793 44.1748L11.1562 44.2773L10.9922 44.3184L10.582 44.3389L10.5615 44.585L10.541 46.123L10.4385 46.2871V46.3281L10.3359 46.3691L10.2129 46.3896L9.47461 46.4102L9.4541 46.4307V60.0684L10.1514 60.0889L10.3359 60.1299L10.4385 60.1709L10.4795 60.2529L10.541 60.3555L10.5615 62.1602L10.9922 62.1807L11.1562 62.2217L11.2793 62.3242L11.3613 62.4678L11.3818 64.457H17.3701L17.3906 62.5088L17.4521 62.3652L17.5547 62.2627L17.6777 62.2012L18.1699 62.1807L18.1904 62.1602L18.2109 60.3965L18.293 60.2324L18.4365 60.1299L18.498 60.1094L19.2979 60.0889V46.4102L18.498 46.3896L18.334 46.3076L18.2314 46.1641L18.2109 46.1025L18.1904 44.3184L17.6982 44.2979L17.5547 44.2363L17.4316 44.0928L17.3906 43.9492L17.3701 42.0625L16.5088 42.042ZM24.6299 42.0625L24.6094 43.9697L24.5479 44.1543L24.4043 44.2773L24.2197 44.3184L23.8301 44.3389L23.8096 45.9385L23.7686 46.1846L23.625 46.3486L23.502 46.3896L22.7227 46.4102V60.0684L23.4199 60.0889L23.584 60.1299L23.707 60.2119L23.7891 60.376L23.8096 60.458L23.8301 62.1602L24.2402 62.1807L24.4043 62.2217L24.5479 62.3447L24.6094 62.4883L24.6299 64.457H30.6182L30.6387 62.5293L30.7002 62.3652L30.8643 62.2217L30.9053 62.2012L31.4385 62.1807L31.459 60.3965L31.541 60.2324L31.6846 60.1299L31.7461 60.1094L32.5459 60.0889V46.4102L31.7666 46.3896L31.623 46.3281L31.4795 46.1641L31.459 46.082L31.4385 44.3184L30.9463 44.2979L30.7822 44.2158L30.6797 44.0928L30.6387 43.8672L30.6182 42.0625H24.6299Z" fill="#FD9020"/>
<path d="M37.8779 41.3037H37.8984V43.293L37.8779 44.0518L37.7549 44.2363L37.6113 44.3184L37.4883 44.3389H37.0781V45.877L37.0576 46.1641L36.9141 46.3486L36.8525 46.3896L36.709 46.4102H35.9707V60.0684H36.668L36.873 60.1299L36.9961 60.2324L37.0576 60.335L37.0781 60.417V62.1602H37.4883L37.6523 62.2012L37.8164 62.3447L37.8779 62.4473L37.8984 62.5703V64.4365L40.2773 64.457L40.4619 64.498L40.708 64.6211L40.9131 64.7852L41.0566 64.9287L41.2207 65.1953L41.3232 65.5029L41.3438 65.79L41.3027 66.0156L41.2207 66.2617L41.0977 66.4668L40.9131 66.6719L40.7285 66.8154L40.3799 67H1.59961L1.51758 66.9385L1.23047 66.7949L1.02539 66.6104L0.881836 66.4463L0.738281 66.1797L0.65625 65.8721V65.585L0.738281 65.2773L0.881836 65.0107L1.10742 64.7646L1.29199 64.6211L1.53809 64.498L1.68164 64.457H4.12207V62.4678L4.22461 62.3037L4.32715 62.2217L4.40918 62.1807H4.92188V60.54L4.94238 60.3555L5.02441 60.2324L5.16797 60.1094L5.22949 60.0889H6.0293V46.4307L5.25 46.4102L5.08594 46.3281L4.9834 46.2051L4.94238 46.123L4.92188 45.6924V44.3184H4.42969L4.26562 44.2363L4.16309 44.1133L4.12207 44.0107V42.0625L4.18359 42.042L4.81934 42.0625H11.3818V44.0107L11.2998 44.1748L11.1562 44.2979L10.9922 44.3389H10.582L10.5615 46.123L10.4385 46.3281L10.3359 46.3896L10.2129 46.4102L9.47461 46.4307L9.4541 60.0684H10.1514L10.3359 60.1094L10.4385 60.1709L10.5615 60.3555V62.1602H10.9922L11.1562 62.2012L11.2998 62.3242L11.3818 62.4678V64.457H17.3701V62.5088L17.4316 62.3652L17.5137 62.2627L17.6777 62.1807L18.1699 62.1602L18.1904 60.3965L18.2725 60.2324L18.4365 60.1094L18.498 60.0889H19.2979V46.4102H18.498L18.334 46.3281L18.2109 46.1641L18.1904 46.1025V44.3184H17.6982L17.5547 44.2568L17.4111 44.0928L17.3701 43.9492V42.0625H24.6299V43.9697L24.5684 44.1543L24.4043 44.2979L24.2197 44.3389H23.8301V45.9385L23.7891 46.1846L23.6455 46.3486L23.6045 46.3896L23.502 46.4102H22.7227V60.0684H23.4199L23.584 60.1094L23.7275 60.2119L23.8096 60.376L23.8301 60.458V62.1602H24.2402L24.4043 62.2012L24.5684 62.3447L24.6299 62.4883V64.457H30.6182V62.5293L30.6797 62.3652L30.8232 62.2217L30.9053 62.1807H31.4385V60.3965L31.5205 60.2324L31.6846 60.1094L31.7461 60.0889H32.5459V46.4102H31.7666L31.623 46.3486L31.459 46.1641L31.4385 46.082V44.3184H30.9463L30.7822 44.2363L30.6592 44.0928L30.6182 43.8672V42.0625H37.8574L37.8779 41.3037Z" fill="#FCB029"/>
<path d="M20.918 28.6299H21.1641L21.4717 28.7529L21.5947 28.8145L21.8408 28.958L22.0664 29.1016L22.374 29.3066L22.6406 29.4707L23.0508 29.7373L23.2764 29.8809L23.6865 30.1475L23.9121 30.291L24.1992 30.4756L24.5479 30.7012L24.7734 30.8447L25.4707 31.2959L25.9219 31.583L26.2705 31.8086L26.5781 32.0137L26.8447 32.1777L27.3574 32.5059L27.6035 32.6699L27.9932 32.916L28.2188 33.0596L28.5674 33.2852L28.875 33.4902L29.1416 33.6543L30.0645 34.249L30.4131 34.4746L30.8643 34.7617L31.1719 34.9668L31.3975 35.1104L31.582 35.2334L31.7256 35.3154L32.0127 35.5L32.3203 35.7051L32.5459 35.8486L32.7305 35.9717L32.833 36.0332L33.2842 36.3203L33.5918 36.5254L33.9814 36.7715L34.4326 37.0586L34.6377 37.2021L34.8223 37.3047L35.0273 37.4482L35.3555 37.6533L35.5811 37.7969L35.8887 38.002L36.1553 38.166L36.4424 38.3506L36.668 38.4941L36.9141 38.6582L37.3652 38.9453L37.5703 39.0889L37.6934 39.1504V39.1914H37.7344L37.6934 39.2734L36.3809 39.2939H22.9277L4.26562 39.2734L4.24512 39.2119L4.30664 39.1914V39.1504L4.51172 39.0479L4.81934 38.8428L5.14746 38.6377L5.37305 38.4941L5.86523 38.166L6.0498 38.0635L6.48047 37.7764L6.80859 37.5713L7.11621 37.3662L7.95703 36.833L8.26465 36.6279L8.6543 36.3818L8.94141 36.1973L9.47461 35.8486L9.80273 35.6436L10.0898 35.459L10.6846 35.0693L11.0127 34.8643L11.2383 34.7207L11.833 34.3311L12.1611 34.126L12.4072 33.9619L12.7354 33.7568L13.0225 33.5723L13.4941 33.2646L13.8223 33.0596L14.1914 32.8135L14.5811 32.5674L14.7246 32.4648L14.9092 32.3623L15.3398 32.0752L15.9551 31.6855L16.4883 31.3369L16.8779 31.0908L17.165 30.9062L17.6367 30.5986L18.5391 30.0244L18.8467 29.8193L19.2363 29.5732L19.5234 29.3887L20.0566 29.04L20.3848 28.835L20.6309 28.7119L20.918 28.6299Z" fill="#FD9020"/>
<path d="M17.3701 42.0625H24.6299V43.9697L24.5684 44.1543L24.4043 44.2979L24.2197 44.3389H23.8301V45.9385L23.7891 46.1846L23.6455 46.3486L23.6045 46.3896L23.502 46.4102H22.7227V60.0684H23.4199L23.584 60.1094L23.7275 60.2119L23.8096 60.376L23.8301 60.458V62.1602H24.2402L24.4043 62.2012L24.5684 62.3447L24.6299 62.4883V64.457L24.5273 64.4775L23.0713 64.457H17.3701V62.5088L17.4316 62.3652L17.5137 62.2627L17.6777 62.1807L18.1699 62.1602L18.1904 60.3965L18.2725 60.2324L18.4365 60.1094L18.498 60.0889H19.2979V46.4102H18.498L18.334 46.3281L18.2109 46.1641L18.1904 46.1025V44.3184H17.6982L17.5547 44.2568L17.4111 44.0928L17.3701 43.9492V42.0625Z" fill="#FC8F20"/>
<path d="M4.16309 42.042L4.81934 42.0625H11.3818V44.0107L11.2998 44.1748L11.1562 44.2979L10.9922 44.3389H10.582L10.5615 46.123L10.4385 46.3281L10.3359 46.3896L10.2129 46.4102L9.47461 46.4307L9.4541 60.0684H10.1514L10.3359 60.1094L10.4385 60.1709L10.5615 60.3555V62.1602H10.9922L11.1562 62.2012L11.2998 62.3242L11.3818 62.4678V64.457L11.2383 64.4775L9.94629 64.457H4.12207V62.4678L4.22461 62.3037L4.32715 62.2217L4.40918 62.1807H4.92188V60.54L4.94238 60.3555L5.02441 60.2324L5.16797 60.1094L5.22949 60.0889H6.0293V46.4307L5.25 46.4102L5.08594 46.3281L4.9834 46.2051L4.94238 46.123L4.92188 45.6924V44.3184H4.42969L4.26562 44.2363L4.16309 44.1133L4.12207 44.0107V42.0625L4.16309 42.042Z" fill="#FDB029"/>
<path d="M5.68066 64.4365H9.94629L11.2998 64.457L19.7695 64.4365H23.0713L24.5889 64.457H30.6592L32.7715 64.4365H36.5654L37.7959 64.457H40.2773L40.4619 64.498L40.708 64.6211L40.9131 64.7852L41.0566 64.9287L41.2207 65.1953L41.3232 65.5029L41.3438 65.79L41.3027 66.0156L41.2207 66.2617L41.0977 66.4668L40.9131 66.6719L40.7285 66.8154L40.3799 67H1.59961L1.51758 66.9385L1.23047 66.7949L1.02539 66.6104L0.881836 66.4463L0.738281 66.1797L0.65625 65.8721V65.585L0.738281 65.2773L0.881836 65.0107L1.10742 64.7646L1.29199 64.6211L1.53809 64.498L1.68164 64.457L5.68066 64.4365Z" fill="#FD9020"/>
<path d="M20.8359 28.6709H21L21.041 28.7119L21.0615 28.999V30.6191L21.0205 30.7422L20.7744 30.8037L20.7334 30.9062L20.7129 31.1934L20.4053 31.2754L19.9131 31.4395L19.6055 31.6035L19.3799 31.7881L19.1953 32.0547L19.0928 32.2803L19.0107 32.5879L18.9902 32.752V33.0596L19.0312 33.3262L19.1338 33.6338L19.2773 33.8594L19.5029 34.1055L19.8105 34.3105L20.2412 34.5156L20.6924 34.7002L20.7129 34.7207V36.874L20.6309 36.8945L20.1592 36.751L19.8105 36.5664L19.5645 36.3818L19.2979 36.1973H19.1133L18.9697 36.2998L18.8672 36.4639L18.8262 36.6074V36.751L18.8877 36.915L19.0107 37.0791L19.1953 37.2637L19.4619 37.4277L19.749 37.5508L20.1182 37.6738L20.3848 37.7354L20.6924 37.7764L20.7129 37.7969L20.7334 38.0635L20.7744 38.1455L20.8564 38.1865L20.877 38.2275L21.0205 38.2686L21.041 38.2891L21.0615 39.1709L21.082 39.2529L21.0615 39.2734H4.26562L4.24512 39.2119L4.30664 39.1914V39.1504L4.51172 39.0479L4.81934 38.8428L5.14746 38.6377L5.37305 38.4941L5.86523 38.166L6.0498 38.0635L6.48047 37.7764L6.80859 37.5713L7.11621 37.3662L7.95703 36.833L8.26465 36.6279L8.6543 36.3818L8.94141 36.1973L9.47461 35.8486L9.80273 35.6436L10.0898 35.459L10.6846 35.0693L11.0127 34.8643L11.2383 34.7207L11.833 34.3311L12.1611 34.126L12.4072 33.9619L12.7354 33.7568L13.0225 33.5723L13.4941 33.2646L13.8223 33.0596L14.1914 32.8135L14.5811 32.5674L14.7246 32.4648L14.9092 32.3623L15.3398 32.0752L15.9551 31.6855L16.4883 31.3369L16.8779 31.0908L17.165 30.9062L17.6367 30.5986L18.5391 30.0244L18.8467 29.8193L19.2363 29.5732L19.5234 29.3887L20.0566 29.04L20.3848 28.835L20.6309 28.7119L20.8359 28.6709Z" fill="#FDB029"/>
<path d="M20.7949 25H21.2051L21.4922 25.1436L21.9434 25.4307L22.4561 25.7588L22.8662 26.0254L23.3174 26.3125L23.7275 26.5791L24.7529 27.2354L25.5732 27.7686L26.0244 28.0557L26.5371 28.3838L26.9473 28.6504L27.46 28.9785L27.8701 29.2451L28.3213 29.5322L28.6699 29.7578L29.0801 30.0244L29.4697 30.2705L29.8184 30.4961L30.2285 30.7627L30.6182 31.0088L31.0898 31.3164L31.541 31.6035L31.9512 31.8701L32.4639 32.1982L32.8125 32.4238L33.3252 32.752L33.6738 32.9775L34.1865 33.3057L34.5967 33.5723L35.1094 33.9004L35.458 34.126L35.9707 34.4541L36.3809 34.7207L36.832 35.0078L37.3037 35.3154L37.7549 35.6025L38.4521 36.0537L38.9033 36.3408L39.252 36.5664L39.6621 36.833L40.0518 37.0791L40.749 37.5303L41.1592 37.7969L41.3438 37.9404L41.5078 38.125L41.5898 38.3301L41.6104 38.5557L41.5693 38.7607L41.4668 38.9658L41.3232 39.1299L41.1387 39.2324L40.8926 39.2939H40.626V39.2529L40.5234 39.2324L40.4209 39.1709L40.1953 39.0479L39.9287 38.8838L39.5186 38.6377L39.2109 38.4326L38.9238 38.248L38.7598 38.125L38.6162 38.043L38.5137 37.9814L38.3086 37.8379L38.1855 37.7764L38.0625 37.6738L37.9395 37.6123L37.8369 37.5303L37.7139 37.4688L37.6113 37.4072V37.3662L37.5293 37.3457L37.3447 37.2227L37.2422 37.1611L36.9551 36.9766L36.7295 36.833L36.627 36.7715L36.3193 36.5664L36.1143 36.4434L36.0117 36.3613L35.9092 36.3203V36.2793L35.8066 36.2383L35.7041 36.1768L35.6631 36.1562V36.1152L35.5605 36.0742L35.3965 35.9717L34.9453 35.6846L34.6377 35.4795L34.3301 35.2949L34.125 35.1514L33.8584 34.9873L33.6738 34.8643L33.5303 34.7822V34.7412L33.4072 34.7002L33.2432 34.5771L33.0996 34.4951L32.6484 34.208L32.4434 34.0645L32.3203 33.9824L32.1973 33.9209L32.0947 33.8389L31.9512 33.7568L31.7256 33.6133L31.541 33.4902L31.3154 33.3467L31.2334 33.3057L31.1719 33.2441L31.0693 33.2031V33.1621L30.9668 33.1211L30.8027 33.0186L30.5771 32.875L30.4746 32.793L30.3311 32.7109L30.1055 32.5674L30.0234 32.5059L29.9209 32.4648V32.4238L29.8184 32.3828L29.6543 32.2803L29.4287 32.1367L29.2441 32.0137L29.1006 31.9111L28.9365 31.8291L28.875 31.7676L28.752 31.7061L28.5674 31.583L28.4033 31.46L28.2803 31.3984L28.0957 31.2754L27.9521 31.1729L27.7881 31.0908L27.7266 31.0293L27.6035 30.9678L27.4805 30.8652L27.3574 30.8037L27.2139 30.7012L27.1113 30.6396L26.8857 30.4961L26.7832 30.4141L26.6396 30.3525L26.5781 30.291L26.373 30.168L26.1475 30.0244L26.0654 29.9629L25.9629 29.9014L25.7373 29.7578L25.5322 29.6348L25.4297 29.5527L25.2451 29.4502L25.1836 29.3887L25.0811 29.3477V29.3066L24.9785 29.2656L24.8145 29.1631L24.5889 29.0195L24.3428 28.876L24.2812 28.8145L23.9736 28.6299L23.748 28.4863L23.584 28.3838V28.3428L23.4609 28.3018L23.0918 28.0557L22.9482 27.9736V27.9326L22.8252 27.8916L22.6611 27.7686L22.5176 27.6865L22.415 27.6045L22.2715 27.5225L21.9434 27.3174L21.7998 27.2148V27.1738L21.6973 27.1533L21.3896 26.9893L21.1846 26.9072L21.041 26.8867H20.8564L20.6719 26.9482L20.5283 27.0508H20.4668V27.0918L20.3027 27.1943H20.2412V27.2354L20.1387 27.2559V27.2969L19.8926 27.4404L19.667 27.6045L19.585 27.6455H19.5234V27.6865H19.4824V27.7275L19.2979 27.8301L19.1543 27.9326H19.0928V27.9736H19.0312V28.0146H18.9697V28.0557L18.8467 28.1172L18.6211 28.2607H18.5801V28.3018L18.457 28.3633L18.375 28.3838V28.4248L18.2314 28.5068H18.1904V28.5479L18.0879 28.5889V28.6299L17.9443 28.6914L17.6162 28.917L17.5342 28.958H17.4727V28.999H17.4316V29.04L17.3086 29.1016L17.1035 29.2451H17.042V29.2861L16.8779 29.3887L16.7344 29.4707L16.5293 29.6143L16.3857 29.6963H16.3242V29.7373L15.8936 30.0244H15.832V30.0654L15.627 30.1885L15.4629 30.291L15.2578 30.4346H15.1758L15.1553 30.4961L14.9297 30.6396L14.8066 30.7217H14.7451V30.7627H14.6836V30.8037H14.6221V30.8447L14.3965 30.9883L14.1914 31.1113L14.1094 31.1729H14.0273L14.0068 31.2344L13.7402 31.4189L13.5967 31.501H13.5352V31.542L13.3096 31.6855L13.207 31.7266V31.7676L13.084 31.8291L12.9814 31.9111H12.8789L12.8379 31.9932L12.5918 32.1572L12.5508 32.1982L12.4072 32.2598L12.3457 32.2803V32.3213L12.2227 32.3418L12.2021 32.4033L12.0176 32.5264L11.915 32.5879L11.833 32.6494H11.7305L11.6895 32.7314L11.4639 32.875L11.1357 33.0801L10.9102 33.2441L10.7871 33.3057H10.7461V33.3467H10.6846V33.3877L10.5615 33.4492L10.3359 33.5928L10.2334 33.6748L10.0898 33.7568L9.9873 33.8184L9.90527 33.8389V33.8799L9.76172 33.9824L9.59766 34.0645L9.41309 34.1875L9.1875 34.3311L9.00293 34.4541H8.94141V34.4951L8.79785 34.5771H8.75684V34.6182L8.61328 34.7207L8.44922 34.8027L8.3877 34.8232V34.8643L8.28516 34.9053L8.10059 35.0283L7.99805 35.1104L7.875 35.1719L7.79297 35.1924V35.2334L7.64941 35.3154H7.6084V35.3564L7.50586 35.3975V35.4385L7.3623 35.5L7.28027 35.5615H7.23926V35.6025L7.11621 35.6436V35.6846L6.95215 35.7666H6.89062V35.8076H6.84961V35.8486L6.74707 35.8691V35.9102L6.52148 36.0537H6.45996V36.0947L6.27539 36.1973L6.00879 36.3818L5.86523 36.4844L5.74219 36.5049V36.5459L5.5166 36.6895L5.31152 36.833L5.12695 36.9355L4.81934 37.1406L4.67578 37.2432H4.59375V37.2842L4.36816 37.4277L4.2041 37.5303H4.16309V37.5713H4.10156V37.6123L3.95801 37.6943L3.77344 37.8174L3.54785 37.9609L3.44531 37.9814V38.0225L3.1582 38.2275L3.09668 38.248L3.07617 38.2891L2.91211 38.3711L2.74805 38.4941L2.625 38.5762H2.58398V38.6172L2.33789 38.7402L2.31738 38.7812L2.21484 38.8223L2.00977 38.9453L1.98926 38.9863L1.8457 39.0273H1.80469V39.0684H1.74316V39.1094L1.62012 39.1299V39.1709H1.5791L1.55859 39.2529L1.49707 39.2734L4.10156 39.2939V39.3145H1.39453L1.06641 39.2939L0.881836 39.2529L0.676758 39.1299L0.512695 38.9453L0.410156 38.7197L0.389648 38.6172V38.3916L0.47168 38.1455L0.615234 37.9609L0.84082 37.7969L1.25098 37.5303L1.76367 37.2021L2.1123 36.9766L2.625 36.6484L2.97363 36.4229L3.48633 36.0947L3.83496 35.8691L4.34766 35.541L4.81934 35.2334L5.33203 34.9053L5.68066 34.6797L6.19336 34.3516L6.54199 34.126L7.05469 33.7979L7.40332 33.5723L7.91602 33.2441L8.32617 32.9775L9.35156 32.3213L9.76172 32.0547L10.2744 31.7266L10.623 31.501L11.1357 31.1729L11.4844 30.9473L11.9971 30.6191L12.4072 30.3525L12.8584 30.0654L13.5557 29.6143L14.0684 29.2861L14.417 29.0605L14.9297 28.7324L15.4014 28.4248L15.9141 28.0967L16.2627 27.8711L16.7754 27.543L17.124 27.3174L17.6367 26.9893L17.9854 26.7637L18.498 26.4355L18.9082 26.1689L19.9336 25.5127L20.3438 25.2461L20.6104 25.082L20.7949 25Z" fill="#FDB029"/>
<path d="M20.8564 26.8662H21.1025L21.3691 26.9482L21.5537 27.0508L21.7998 27.1738V27.2148L21.8818 27.2559L22.2715 27.502L22.4971 27.6455L22.5996 27.7275L22.7432 27.8096L22.9072 27.9121L22.9482 27.9326V27.9736L23.0508 28.0146L23.2148 28.1172L23.4404 28.2607L23.584 28.3428V28.3838L23.6865 28.4248L23.9121 28.5684L24.0762 28.6709L24.3428 28.835V28.876L24.4453 28.917L24.7324 29.0811L24.8965 29.2041L25.0811 29.3066V29.3477L25.2041 29.3887L25.3682 29.5117L25.4912 29.5732L25.5938 29.6553L25.8809 29.8193L26.0039 29.9219L26.127 29.9834L26.3115 30.1064L26.5371 30.25L26.6396 30.3115V30.3525L26.7832 30.3936L26.9473 30.5166L27.1318 30.6396L27.3369 30.7627L27.4189 30.8242L27.5215 30.8857L27.665 30.9883L27.7881 31.0498V31.0908L27.8906 31.1318L28.0342 31.2139L28.2598 31.3574L28.3418 31.4189L28.4854 31.501L28.6904 31.6445L28.8135 31.7266L28.9365 31.7881V31.8291L29.0391 31.8701L29.1826 31.9521L29.4082 32.0957L29.5928 32.2188L29.7363 32.3213L29.9209 32.4238V32.4648L30.0645 32.5059L30.1875 32.6084L30.3311 32.6904L30.5566 32.834L30.7412 32.957L30.8848 33.0596L31.0693 33.1621V33.2031L31.2129 33.2441L31.2334 33.3057L31.3154 33.3262L31.541 33.4697L31.7256 33.5928L32.1768 33.8799L32.2588 33.9414L32.3818 34.0029L32.5664 34.126L32.7715 34.2695L33.0996 34.4746L33.3252 34.6182L33.4072 34.6797L33.5303 34.7412V34.7822L33.6328 34.8232L33.8379 34.9463L34.043 35.0898L34.248 35.2129L34.3301 35.2744L34.4736 35.3564L34.5557 35.418L34.6582 35.4795L34.9248 35.6436L35.1094 35.7666L35.3965 35.9512L35.4785 36.0127L35.6631 36.1152V36.1562L35.7861 36.1973L35.9092 36.2793V36.3203L36.0117 36.3408L36.1758 36.4639L36.3809 36.5869L36.627 36.751L36.7705 36.833L36.9756 36.9766L37.2422 37.1406L37.4062 37.2432L37.5498 37.3457L37.6113 37.3662V37.4072L37.6934 37.4277L37.7754 37.4893L37.9189 37.5713L38.001 37.6328L38.1035 37.6943L38.2471 37.7969L38.3701 37.8584L38.5137 37.9609L38.6162 38.0225L38.8418 38.166L39.334 38.4941L39.8262 38.8018L40.1748 39.0068L40.3389 39.1094L40.5439 39.2324L40.626 39.2529V39.2939H37.9189L37.8779 39.2324L37.7344 39.1709L37.5293 39.0273L37.4678 39.0068V38.9658L37.3652 38.9248L37.1396 38.7812L37.0371 38.6992L36.8525 38.5967L36.6885 38.4941L36.5244 38.4326L36.3398 38.3096L35.7656 37.9404L35.5195 37.7764L35.1299 37.5303L34.9043 37.3867L34.6992 37.2432L34.5146 37.1406L34.3096 36.9971L33.9814 36.792L33.5303 36.5049L33.2227 36.2998L32.833 36.0537L32.6484 35.9307L32.3203 35.7256L32.0742 35.5615L31.8486 35.418L31.6436 35.2744L31.418 35.1514L31.2539 35.0283L31.0693 34.9258L30.8643 34.7822L30.5361 34.5771L30.3516 34.4541L29.9619 34.208L29.6543 34.0029L29.2646 33.7568L28.6289 33.3467L28.2188 33.0801L27.6035 32.6904L27.1318 32.3828L26.8447 32.1982L26.4551 31.9521L25.9834 31.6445L25.6963 31.46L25.2451 31.1729L24.835 30.9062L24.2607 30.5371L24.0352 30.3936L23.3994 29.9834L23.1738 29.8398L22.251 29.2451L22.0254 29.1016L21.7383 28.917L21.5127 28.7939L21.2256 28.6709L21.1641 28.6504H20.918L20.5693 28.7529L20.3438 28.876L20.0566 29.0605L19.5234 29.4092L19.1953 29.6143L18.3135 30.1885L17.9854 30.3936L17.6367 30.6191L17.165 30.9268L16.8369 31.1318L16.4883 31.3574L15.9551 31.7061L15.627 31.9111L15.1553 32.2188L14.7861 32.4648L14.6016 32.5674L14.2939 32.7725L13.9658 32.9775L13.6377 33.2031L13.4531 33.3057L13.0225 33.5928L12.6943 33.7979L12.4893 33.9414L12.3047 34.0439L11.874 34.3311L11.5459 34.5361L11.2383 34.7412L10.9102 34.9463L10.6846 35.0898L10.0898 35.4795L9.76172 35.6846L9.47461 35.8691L8.94141 36.2178L8.61328 36.4229L8.32617 36.6074L7.73145 36.9971L7.40332 37.2021L7.05469 37.4277L6.52148 37.7764L6.19336 37.9814L5.94727 38.1455L5.61914 38.3506L5.33203 38.5352L4.92188 38.8018L4.53223 39.0479L4.36816 39.1504L4.22461 39.2119H4.16309L4.14258 39.2939H1.43555L1.49707 39.2529H1.55859L1.5791 39.1709H1.62012V39.1299H1.68164L1.70215 39.0889L1.74316 39.1094V39.0684H1.80469V39.0273L1.98926 38.9863L2.00977 38.9248L2.21484 38.8018L2.31738 38.7812L2.33789 38.7197L2.52246 38.6172H2.58398V38.5762L2.87109 38.3916L3.01465 38.2891H3.07617L3.09668 38.2275L3.28125 38.125L3.4043 38.0225H3.44531V37.9814L3.52734 37.9609L3.56836 37.9199L3.85547 37.7559L4.04004 37.6123H4.10156V37.5713H4.16309V37.5303L4.34766 37.4277L4.4502 37.3457L4.55273 37.2842H4.59375V37.2432L4.69629 37.2021L5.06543 36.9561L5.31152 36.8125L5.5166 36.6689L5.70117 36.5459H5.74219V36.5049L5.88574 36.4434L6.21387 36.2178L6.41895 36.0947H6.45996V36.0537L6.62402 35.9717L6.70605 35.9102H6.74707V35.8691L6.84961 35.8486V35.8076H6.89062V35.7666L7.03418 35.7051L7.11621 35.6846V35.6436L7.23926 35.6025V35.5615L7.38281 35.459L7.50586 35.4385V35.3975L7.6084 35.3564V35.3154L7.75195 35.2334H7.79297V35.1924L8.01855 35.0693L8.20312 34.9463L8.30566 34.8643H8.3877V34.8232L8.55176 34.7207L8.69531 34.6387L8.75684 34.6182V34.5771L8.90039 34.4951H8.94141V34.4541L9.16699 34.3311L9.35156 34.208L9.4541 34.126L9.63867 34.0234L9.84375 33.9004L9.90527 33.8799V33.8389L10.0693 33.7568L10.1719 33.6748L10.3154 33.5928L10.623 33.3877H10.6846V33.3467H10.7461V33.3057L10.9307 33.2031L11.1357 33.0596L11.3203 32.9365L11.4639 32.8545L11.71 32.6904L11.7305 32.6494L11.8535 32.6084L11.9561 32.5264L12.0791 32.4648L12.2021 32.3828L12.2227 32.3418L12.3457 32.3213V32.2803L12.4688 32.1982L12.5713 32.1572L12.7969 31.9932L12.8789 31.9111L13.002 31.8701L13.1045 31.7881L13.207 31.7676V31.7266L13.4941 31.542H13.5352V31.501L13.6172 31.46H13.6787L13.6992 31.4189L13.9248 31.2754L14.0273 31.1729L14.1709 31.1113L14.3145 31.0088L14.458 30.9268L14.5811 30.8447H14.6221V30.8037H14.6836V30.7627H14.7451V30.7217L14.9092 30.6396L15.0117 30.5576L15.1553 30.4756L15.1758 30.4346L15.3193 30.373L15.627 30.168L15.791 30.0654H15.832V30.0244L16.0576 29.9014L16.2832 29.7373H16.3242V29.6963L16.4678 29.6348L16.7959 29.4092L17.001 29.2861H17.042V29.2451L17.2266 29.1426L17.3291 29.0605L17.4316 29.04V28.999H17.4727V28.958L17.6162 28.8965L17.9443 28.6709L18.0264 28.6299H18.0879V28.5889L18.1904 28.5479V28.5068L18.334 28.4248H18.375V28.3838L18.5186 28.3018H18.5801V28.2607L18.8467 28.0967L18.9082 28.0557H18.9697V28.0146H19.0312V27.9736H19.0928V27.9326L19.2773 27.8301L19.4209 27.7275H19.4824V27.6865H19.5234V27.6455L19.7285 27.543L20.0156 27.3379L20.1387 27.2969V27.2559L20.2412 27.2354V27.1943L20.4258 27.0918H20.4668V27.0508L20.6309 26.9688L20.7539 26.8867L20.8564 26.8662Z" fill="#FD9020"/>
<path d="M9.43359 42.0625H11.3818V44.0107L11.2998 44.1748L11.1562 44.2979L10.9922 44.3389H10.582L10.5615 46.123L10.4385 46.3281L10.3359 46.3896L10.2129 46.4102L9.47461 46.4307L9.4541 60.0684H10.1514L10.3359 60.1094L10.4385 60.1709L10.5615 60.3555V62.1602H10.9922L11.1562 62.2012L11.2998 62.3242L11.3818 62.4678V64.457L11.2383 64.4775L9.94629 64.457H6.87012V64.4365L7.71094 64.416L7.75195 64.293V62.5703L7.73145 61.9346V60.6631L7.75195 59.7607V46.8203L7.73145 46.1436V43.1494L7.75195 42.4521V42.124L7.52637 42.1035V42.083L9.43359 42.0625Z" fill="#FC9020"/>
<path d="M17.3701 42.0625L20.9385 42.083L21.0205 42.1035L21 43.5186V46.6768L21.0205 61.1143V64.3135L20.959 64.4365L19.9336 64.457H17.3701V62.5088L17.4316 62.3652L17.5137 62.2627L17.6777 62.1807L18.1699 62.1602L18.1904 60.3965L18.2725 60.2324L18.4365 60.1094L18.498 60.0889H19.2979V46.4102H18.498L18.334 46.3281L18.2109 46.1641L18.1904 46.1025V44.3184H17.6982L17.5547 44.2568L17.4111 44.0928L17.3701 43.9492V42.0625Z" fill="#FCB029"/>
<path d="M37.8779 41.3037H37.8984V43.293L37.8779 44.0518L37.7549 44.2363L37.6113 44.3184L37.4883 44.3389H37.0781V45.877L37.0576 46.1641L36.9141 46.3486L36.8525 46.3896L36.709 46.4102H35.9707V60.0684H36.668L36.873 60.1299L36.9961 60.2324L37.0576 60.335L37.0781 60.417V62.1602H37.4883L37.6523 62.2012L37.8164 62.3447L37.8779 62.4473L37.8984 62.5703V64.457L37.7549 64.4775L36.5654 64.457H34.9248L34.248 64.4365L34.2686 64.252V42.124L33.7354 42.1035V42.083L37.1396 42.0625H37.8574L37.8779 41.3037Z" fill="#FC9020"/>
<path d="M4.12207 39.7451H4.14258L4.16309 40.668H4.4707L4.57324 40.6475L4.61426 40.668L4.7373 40.6475H4.96289L5.04492 40.668L5.14746 40.6475H5.5166L5.66016 40.668L5.80371 40.6475L6.07031 40.668H8.53125L8.63379 40.6475L8.73633 40.668H9.14648L9.57715 40.6885L9.90527 40.668H12.2842L12.4482 40.6885L12.6943 40.668L12.8994 40.6885L12.9404 40.668H19.3184L19.3594 40.6885L19.3799 40.6475V40.6885L19.8311 40.668H20.7949H20.877H21.3691H21.4512H21.5742L21.6562 40.6475V40.6885L21.7793 40.668L21.8203 40.627L21.9023 40.6475V40.6885L22.0869 40.6475L22.2305 40.6885L22.251 40.6475L22.333 40.668L22.4766 40.6475V40.6885L22.6201 40.6475L22.8252 40.668L22.8867 40.6475L22.9277 40.668L22.9893 40.6475H23.1328L23.1943 40.668H23.3789L23.4199 40.6475V40.6885H23.4609L23.4814 40.6475H23.9531L24.1377 40.668L24.4043 40.6475H24.4863H24.5684V40.6885L24.6094 40.668L24.8145 40.6475L24.876 40.668L24.917 40.6475L25.0811 40.668L25.1631 40.6475L25.2246 40.668H25.8809L25.9219 40.6475L26.1064 40.668H26.168H30.6797L30.7207 40.6475V40.6885H30.8027L30.8232 40.6475L30.9258 40.668H31.1309L31.2129 40.6885V40.6475L31.3359 40.668L31.4385 40.6475L31.623 40.6885V40.6475L31.8076 40.668H31.9717L32.0742 40.6475L32.1973 40.668L32.2588 40.6475H32.5049L32.5664 40.668H32.6279L32.6484 40.627L32.751 40.6475H33.0791L33.4688 40.668L33.5508 40.6475V40.6885L33.7559 40.6475L33.8174 40.668L33.9199 40.6475H34.207L34.2275 40.668L34.3506 40.6475H34.4326H34.9043L35.0273 40.668L35.1299 40.6475H35.2324L35.2734 40.627L35.3965 40.6475V40.6885L35.458 40.6475H35.7451L35.8477 40.668L36.1143 40.6475H37.1602L37.2217 40.627H37.5908L37.7959 40.6475L37.8164 40.6885L37.8574 40.5449H37.8779V42.0215L37.8574 42.0625L37.1396 42.083H17.6367L16.5088 42.0625L11.3203 42.083H4.81934L4.10156 42.0625V40.627L4.12207 39.7451Z" fill="#FDB029"/>
<path d="M0.758789 65.2363H0.799805V65.2773L0.902344 65.2979L0.984375 65.3799V65.4414L1.06641 65.4619L1.12793 65.5234V65.5645L1.23047 65.6055V65.6465L1.35352 65.6875L1.62012 65.79L1.80469 65.8105L1.86621 65.8311H2.3584H2.41992H2.60449L2.68652 65.8516H3.19922L3.26074 65.8721V65.8311L3.4043 65.8516L3.46582 65.8311H4.79883L4.83984 65.8516L4.86035 65.8105L4.90137 65.8311H5.5166L5.57812 65.8105L5.94727 65.8311H6.5625L6.64453 65.8516H6.93164L6.97266 65.8721L6.99316 65.8311H7.0752V65.8721L7.21875 65.8516H7.3623L7.46484 65.8311L7.48535 65.8516L7.75195 65.8311L7.875 65.8516H8.20312L8.28516 65.8721L8.30566 65.8311H8.3877L8.49023 65.8516H9.12598L9.16699 65.8311L9.26953 65.8516L9.35156 65.8311L9.37207 65.8721H9.41309L9.43359 65.8311L9.53613 65.8721V65.8311H9.65918L9.74121 65.8516L9.80273 65.8311L9.92578 65.8516L10.0078 65.8311L10.2129 65.8516L10.2744 65.8311V65.8721L10.3975 65.8311H10.6846L10.7871 65.8516H10.9307L10.9717 65.8721V65.8311L11.1973 65.8721V65.8311H11.2998V65.8721L11.3818 65.8311L11.5869 65.8516L11.7715 65.8311L11.9766 65.8516H13.8223H13.8838H15.3193L15.3809 65.8311L15.4629 65.8516L15.709 65.8311L15.791 65.8721L15.8115 65.8311L15.832 65.8516L15.9756 65.8311H16.1396L16.2422 65.8516L16.4268 65.8311L16.5088 65.8516L16.7754 65.8311H17.0215V65.8721H17.083V65.8311H18.2314H18.252H18.9287L19.0518 65.8721L19.0723 65.8311L19.1543 65.8516H19.2773L19.3799 65.8311L19.4209 65.8516L19.5645 65.8721V65.8311L19.7285 65.8516H19.9336L20.1182 65.8311L20.2002 65.8516H20.2617L20.5078 65.8311V65.8721L20.5898 65.8311L20.7334 65.8516H20.918L21.0205 65.8311L21.1436 65.8516L21.2256 65.8311L21.3281 65.8516L21.4307 65.8311L21.5332 65.8516L21.6152 65.8311L21.6973 65.8516H22.0459L22.1074 65.8311V65.8721L22.3125 65.8516L22.4561 65.8311H22.5176L22.5381 65.8721H22.5791V65.8311L22.6611 65.8516L22.7637 65.8311L22.8457 65.8721L22.8662 65.8311L22.9688 65.8516L23.0918 65.8311L23.1738 65.8516L23.3174 65.8311L23.4404 65.8516L23.543 65.8311L23.584 65.8516L23.7686 65.8311H23.9736L24.0762 65.8516H24.2197L24.2607 65.8721V65.8311L24.4453 65.8516L24.4863 65.8721V65.8311H24.5889V65.8721L24.6709 65.8311L24.876 65.8516L25.0605 65.8311L25.2656 65.8516H27.1113H27.1729H28.4443L28.5469 65.8311L28.752 65.8516H29.1416L29.2646 65.8311L29.3672 65.8516H29.4492L29.6748 65.8311L29.7979 65.8516L30.0645 65.8311H30.3105V65.8721H30.3721V65.8311H32.2383L32.3408 65.8721L32.3613 65.8311L32.4434 65.8516L32.5869 65.8311H32.8945L32.9971 65.8721L33.0176 65.8311L33.2227 65.8516L33.2432 65.8311L33.4893 65.8516H33.5508L33.7969 65.8311H33.8789L34.0225 65.8516L34.0635 65.8311H34.3096L34.4326 65.8516H34.6377L34.6787 65.8721V65.8311H34.7197V65.8721L34.9043 65.8311L34.9863 65.8516H35.2529H35.3145L35.458 65.8311L35.6221 65.8516L35.6836 65.8311H35.8682V65.8721L36.0527 65.8311L36.1758 65.8516L36.5039 65.8311L36.5449 65.8516L36.5654 65.8105L36.6885 65.8516L36.791 65.8311H38.2061L38.2471 65.8105H38.4111H38.4727L38.6162 65.8311L38.6777 65.8105L38.8828 65.8311L39.0059 65.8516L39.293 65.8311L39.6621 65.8105L39.8262 65.79H39.9902V65.8311L40.1338 65.7695L40.2568 65.79L40.4004 65.749L40.6055 65.708L40.708 65.6465L40.7285 65.6055L40.8311 65.585L41.0771 65.3799L41.1387 65.3389H41.2412L41.2617 65.4824L41.2822 65.7285L41.3027 65.749V66.0156L41.2207 66.2617L41.0977 66.4668L40.9131 66.6719L40.7285 66.8154L40.3799 67H1.59961L1.51758 66.9385L1.23047 66.7949L1.02539 66.6104L0.881836 66.4463L0.738281 66.1797L0.65625 65.8721V65.585L0.738281 65.2773L0.758789 65.2363Z" fill="#FDB029"/>
<path d="M7.66992 42.1035L7.77246 42.124V42.6777L7.75195 43.3135V46.3691L7.77246 46.9639V59.8223L7.75195 60.8682V61.9551L7.77246 62.7754V64.334L7.71094 64.4365L6.78809 64.457H4.12207V64.4365L4.65527 64.416L7.44434 64.3955L7.64941 64.3545L7.69043 64.3135L7.66992 64.1084L7.69043 63.9033V45.5078L7.66992 45.1797L7.69043 44.4209V42.4111L7.66992 42.1035Z" fill="#FEA427"/>
<path d="M21.1641 34.9258L21.3076 34.9463L21.5947 35.1104L21.8408 35.3359L21.9639 35.5615L22.0049 35.7666V36.1152L21.9229 36.3818L21.7998 36.5459L21.6357 36.6895L21.3486 36.833L21.1846 36.8535L21.1641 34.9258Z" fill="#FD9020"/>
<path d="M34.2275 42.1035L34.2891 42.124V64.375L34.248 64.4365L34.084 64.457H31.2539V64.4365L31.7461 64.416L34.0225 64.3955L34.207 64.375V63.8623L34.2275 63.3496L34.207 62.3857V60.8477L34.2275 60.4785V48.3379L34.207 47.4766V42.4932L34.1865 42.4111V42.2061L34.2275 42.1035Z" fill="#FFA528"/>
<path d="M20.9015 29.5938L21.0328 29.8234V39.0109L20.639 38.8961L19.3921 37.8625L18.8015 37.0586L18.4078 36.1398L18.1453 34.6469V33.1539L18.4078 32.1203L18.8015 31.2016L19.4578 30.3977L20.5078 29.7086L20.9015 29.5938Z" fill="#FDAE29"/>
<path d="M20.9795 28.5889H21.123L21.3896 28.6709L21.5332 28.7324L21.6973 28.8145V28.8555L21.7998 28.8965L22.0254 29.04L22.3945 29.2656L22.5791 29.3887L23.0303 29.6758L23.1943 29.7988L23.3379 29.8809L23.7891 30.168L24.0762 30.3525L24.3018 30.4961L24.5889 30.6807L24.917 30.8857L25.2246 31.0908L25.5938 31.3164L25.7578 31.4395L25.9424 31.542L26.25 31.7471L26.3936 31.8496L26.5371 31.9316L26.6396 31.9932V32.0342L26.7422 32.0547L26.9062 32.1777L27.0498 32.2598L27.5215 32.5674L27.7676 32.7314L28.1367 32.957L28.4854 33.1826L28.6904 33.3262L28.834 33.4082L28.9365 33.4697V33.5107L29.0186 33.5312L29.2031 33.6543L29.3467 33.7363L29.8184 34.0439L30.0439 34.1875L30.2285 34.3105L30.4336 34.4336L30.7822 34.6592L31.0898 34.8643L31.2334 34.9668L31.418 35.0693L31.7051 35.2539L32.0332 35.459L32.2383 35.6025L32.3818 35.7051L32.5664 35.8076L32.8535 35.9922L33.1816 36.1973L33.2842 36.2793L33.4277 36.3613L33.5303 36.4434L33.7148 36.5459L34.002 36.7305L34.2275 36.874L34.5352 37.0791L34.6787 37.1816L34.8223 37.2637L35.0479 37.4072L35.1914 37.5098L35.2939 37.5713L35.5195 37.7148L35.6016 37.7764L35.7451 37.8584L35.9297 37.9814L36.0732 38.084L36.2578 38.1865L36.5654 38.3916L36.6475 38.4736L36.5244 38.4326L36.3398 38.3096L35.7656 37.9404L35.5195 37.7764L35.1299 37.5303L34.9043 37.3867L34.6992 37.2432L34.5146 37.1406L34.3096 36.9971L33.9814 36.792L33.5303 36.5049L33.2227 36.2998L32.833 36.0537L32.6484 35.9307L32.3203 35.7256L32.0742 35.5615L31.8486 35.418L31.6436 35.2744L31.418 35.1514L31.2539 35.0283L31.0693 34.9258L30.8643 34.7822L30.5361 34.5771L30.3516 34.4541L29.9619 34.208L29.6543 34.0029L29.2646 33.7568L28.6289 33.3467L28.2188 33.0801L27.6035 32.6904L27.1318 32.3828L26.8447 32.1982L26.4551 31.9521L25.9834 31.6445L25.6963 31.46L25.2451 31.1729L24.835 30.9062L24.2607 30.5371L24.0352 30.3936L23.3994 29.9834L23.1738 29.8398L22.251 29.2451L22.0254 29.1016L21.7383 28.917L21.5127 28.7939L21.2256 28.6709L21.1641 28.6504H20.918L20.5693 28.7529L20.4463 28.7939L20.5078 28.7324L20.7744 28.6299L20.9795 28.5889Z" fill="#FE4E4A"/>
<path d="M4.30664 39.1504H4.36816V39.1914H4.40918V39.2324L4.65527 39.2119L4.7373 39.1709L4.90137 39.1504L5.10645 39.1709L5.18848 39.2119L5.45508 39.2324H18.6006L19.1133 39.2529V39.2734H4.26562L4.24512 39.2119L4.30664 39.1914V39.1504Z" fill="#FE9C24"/>
<path d="M20.9795 46.6768H21L21.0205 61.1143V64.3135L20.959 64.4365L19.9336 64.457H17.9648V64.4365L18.4775 64.416L20.7334 64.3955L20.918 64.334L20.959 63.8623V60.7656L20.9795 46.6768Z" fill="#FFA528"/>
<path d="M22.7021 46.4102H22.7227V48.2764L22.7021 58.7354L22.6611 58.7559V47.7842L22.6816 47.7637V46.5332L22.7021 46.4102Z" fill="#FD9C24"/>
<path d="M25.6963 41.96H29.7773L29.9004 41.9805H30.249L30.3926 42.001L30.3105 42.042H25.1631V42.0215L25.4092 41.9805L25.6963 41.96Z" fill="#FD4C48"/>
<path d="M34.2275 42.1035L34.2891 42.124V48.7275L34.248 48.7686L34.2275 48.584L34.207 47.3945V42.4932L34.1865 42.4111V42.2061L34.2275 42.1035Z" fill="#FFA528"/>
<path d="M34.248 60.6016L34.2891 60.6836V64.375L34.248 64.4365L34.084 64.457H31.2539V64.4365L31.7461 64.416L34.0225 64.3955L34.207 64.375V63.8623L34.2275 63.3496L34.207 62.3857V60.8477L34.2275 60.6221L34.248 60.6016Z" fill="#FEA126"/>
<path d="M12.1816 41.96H13.002L16.0781 41.9805H16.2422L16.2832 42.0215L15.9141 42.042L15.0732 42.0625H14.0889L11.874 42.042V42.0215H11.9766L11.9971 41.9805L12.1816 41.96Z" fill="#FC4B47"/>
<path d="M20.9795 61.75L21.0205 61.7705V64.3135L20.959 64.4365L19.9336 64.457H17.9648V64.4365L18.4775 64.416L20.7334 64.3955L20.918 64.334L20.959 63.8623V61.7705L20.9795 61.75Z" fill="#FEA126"/>
<path d="M7.66992 42.1035L7.77246 42.124V42.6777L7.75195 43.3135V45.6924L7.69043 45.6719L7.66992 45.1797L7.69043 44.4209V42.4111L7.66992 42.1035Z" fill="#FFA528"/>
<path d="M20.8359 28.6709H21L21.041 28.7119L21.0615 28.999V30.6191L21.041 30.7217H21.0205L21 30.5576V30.209L21.0205 29.6348L21 29.1836L20.9795 29.0195L20.918 28.958L20.877 28.7939L20.7334 28.7734H20.6719H20.5488L20.5693 28.7324L20.6924 28.6914L20.8359 28.6709Z" fill="#FEA327"/>
<path d="M4.30664 39.1504H4.36816V39.1914H4.40918V39.2324L4.65527 39.2119L4.7373 39.1709L4.90137 39.1504L5.10645 39.1709L5.18848 39.2119L5.45508 39.2324H5.94727L6.25488 39.2529V39.2734H4.26562L4.24512 39.2119L4.30664 39.1914V39.1504Z" fill="#FFA528"/>
<path d="M11.3613 42.083H11.3818V44.0107L11.2998 44.1748L11.2588 44.1953L11.2998 44.0312L11.3408 42.3701L11.3613 42.083Z" fill="#FEA528"/>
<path d="M37.8369 42.083H37.8574L37.8779 44.0518L37.7549 44.2363L37.6113 44.3184L37.4883 44.3389H37.0986V44.3184L37.4883 44.2773L37.7139 44.1543H37.7549L37.8164 43.8467V42.9238L37.8369 42.083Z" fill="#FEA728"/>
<path d="M11.3203 62.3857L11.3818 62.4678V63.7598L11.3613 64.293H11.3408L11.3203 63.6367V63.2676L11.2998 62.5908L11.3203 62.3857Z" fill="#FEA628"/>
<path d="M37.8779 41.3037H37.8984V43.293L37.8779 43.9697H37.8574L37.8369 42.0625L37.8574 42.0215L37.8779 41.3037Z" fill="#E98323"/>
<path d="M20.9385 42.1035H21.0205L21 43.5186V44.0312L20.959 44.0518L20.9385 43.6006L20.959 43.1494V42.6367L20.9385 42.3906H20.9795L20.9385 42.2061V42.1035Z" fill="#FFA528"/>
<path d="M37.7959 62.3447L37.8574 62.4062L37.8984 62.5703V64.1904H37.8779L37.8574 63.165H37.8369L37.8164 62.6318L37.7959 62.3447Z" fill="#FDB12A"/>
<path d="M21.0205 29.2041H21.0615V30.6191L21.041 30.7217H21.0205L21 30.5576V30.209L21.0205 29.6348L21 29.3271L21.0205 29.2041Z" fill="#FFA528"/>
<path d="M21.0205 39.0068H21.041L21.082 39.2529L21.0615 39.2734H19.1133L19.1953 39.2324H21L21.0205 39.0068Z" fill="#FEA327"/>
<path d="M37.0166 45.877L37.0576 45.959V46.1641L36.9141 46.3486L36.8525 46.3896L36.709 46.4102H36.4424V46.3896L36.709 46.3486L36.8936 46.3076L36.9346 46.2051L37.0166 45.877Z" fill="#FEA728"/>
<path d="M10.541 45.877H10.5615V46.123L10.4385 46.3281L10.3359 46.3896L10.2129 46.4102H9.9873V46.3896L10.1719 46.3691L10.377 46.3076L10.459 46.1641L10.5205 45.8975L10.541 45.877Z" fill="#FEA628"/>
<path d="M10.459 60.2529H10.5L10.5615 60.3555V61.0322L10.5205 61.0527L10.5 60.5195L10.459 60.2529Z" fill="#FEA427"/>
<path d="M37.7959 62.3447L37.8574 62.4062L37.8779 62.4473V62.9189L37.8574 63.165H37.8369L37.8164 62.6318L37.7959 62.3447Z" fill="#FEA528"/>
<path d="M41.2412 65.3184L41.2822 65.3594L41.3438 65.6465L41.3232 65.9541H41.3027L41.2822 65.749L41.2617 65.667L41.2412 65.4824V65.3184Z" fill="#FD5C45"/>
<path d="M1.3125 66.7539L1.41504 66.7744V66.8154L1.51758 66.8359L1.55859 66.918H1.59961L1.62012 66.959L1.68164 67L1.5791 66.9795L1.23047 66.7949L1.3125 66.7539Z" fill="#FE4E4A"/>
<path d="M11.2178 44.1748L11.2588 44.2158L11.1562 44.2979L10.9922 44.3389H10.582V44.3184L11.0332 44.2979L11.0537 44.2363L11.2178 44.1748Z" fill="#FDAB29"/>
<path d="M23.7891 46.041L23.8096 46.1025L23.748 46.2461L23.6045 46.3896L23.502 46.4102H23.2764V46.3896L23.5225 46.3486L23.707 46.2256L23.7891 46.041Z" fill="#FEA828"/>
<path d="M29.9004 41.9805H30.249L30.3926 42.001L30.3105 42.042H29.9619L29.8799 42.001L29.9004 41.9805Z" fill="#FE4E4A"/>
<path d="M24.3428 44.2363H24.4658L24.4043 44.2979L24.2197 44.3389H23.8506V44.3184L24.1582 44.2979L24.3428 44.2363Z" fill="#FEAA28"/>
<path d="M16.5498 41.9805H16.7754L16.9189 42.001L16.8574 42.0215V42.0625H16.5498V41.9805Z" fill="#FC6A3F"/>
<path d="M36.9551 46.2461V46.3076L36.8525 46.3896L36.709 46.4102H36.4424V46.3896L36.709 46.3486L36.9141 46.2871L36.9551 46.2461Z" fill="#FEAA28"/>
<path d="M10.459 46.2051L10.4795 46.2666L10.377 46.3691L10.2129 46.4102H9.9873V46.3896L10.1719 46.3691L10.377 46.3076L10.459 46.2051Z" fill="#FEA928"/>
<path d="M4.30664 39.1504L4.36816 39.1709L4.30664 39.2529H4.83984V39.2734H4.26562L4.24512 39.2119L4.30664 39.1914V39.1504Z" fill="#FB8F20"/>
<path d="M41.0156 66.4668L41.0566 66.4873L40.9131 66.6514L40.8105 66.7334L40.8311 66.6514L40.9541 66.5488L41.0156 66.4668Z" fill="#FD5A46"/>
<path d="M11.3408 43.8877L11.3818 43.9492L11.3613 44.0723L11.2793 44.1953L11.2588 44.1543L11.2998 44.0312H11.3408V43.8877Z" fill="#FDAD29"/>
<path d="M15.6475 41.9805L15.791 42.001L15.8936 42.0215V42.042H15.627L15.6475 41.9805Z" fill="#F84542"/>
</g>
<g clip-path="url(#clip3_1_993)">
<path d="M40.6725 16.158L40.7909 16.0896L40.9324 16.0417L41.0632 16.0339L41.1868 16.0527L41.2753 16.0693L41.3602 16.0992L41.4354 16.1122L41.4451 16.1291L41.4887 16.1265L41.4985 16.1434L41.5154 16.1336L41.5252 16.1505L41.5421 16.1408L41.627 16.1707L41.7022 16.1837L41.7871 16.2136L41.8623 16.2265L41.9472 16.2565L42.4808 16.3994L42.5559 16.4124L42.6409 16.4423L42.716 16.4553L42.7876 16.4816L42.8761 16.4982L42.9477 16.5245L43.0362 16.5411L43.1078 16.5674L43.1963 16.584L43.2679 16.6103L43.3564 16.6269L43.4279 16.6532L43.5164 16.6698L43.588 16.6961L43.6765 16.7127L43.7481 16.739L43.8366 16.7556L43.9082 16.7819L43.9967 16.7985L44.0683 16.8248L44.1034 16.8271L44.1132 16.844L44.1568 16.8414L44.1665 16.8583L44.2101 16.8557L44.2199 16.8726L44.2635 16.87L44.2732 16.8869L44.3168 16.8843L44.3266 16.9012L44.3702 16.8985L44.38 16.9155L44.4236 16.9128L44.4333 16.9298L44.4769 16.9271L44.4867 16.9441L44.5303 16.9414L44.54 16.9584L44.5836 16.9557L44.5934 16.9727L44.637 16.97L44.6468 16.987L44.6904 16.9843L44.7001 17.0013L44.7437 16.9986L44.7535 17.0155L44.7971 17.0129L44.8068 17.0298L44.8504 17.0272L44.922 17.0536L45.0105 17.0701L45.0954 17.1L45.1706 17.113L45.2555 17.1429L45.3307 17.1559L45.4156 17.1858L45.4908 17.1988L45.589 17.2323L45.8158 17.293L45.9603 17.3675L46.0478 17.441L46.1282 17.5412L46.1673 17.6088L46.2103 17.7419L46.2266 17.8678L46.2162 17.9865L46.1996 18.075L46.1336 18.2146L46.0481 18.3204L45.9564 18.3959L34.2938 25.1293L34.139 25.1736L34.0166 25.1766L33.893 25.1577L33.7632 25.1087L33.6538 25.0365L33.5845 24.975L33.5468 24.9291L33.4735 24.8023L33.4292 24.6474L33.4249 24.5033L33.4522 24.3748L33.4893 24.2632L33.5615 24.1538L33.6314 24.0796L33.7111 24.0224L43.1917 18.5487L43.9564 18.0959L40.8615 17.2667L40.7402 17.2127L40.6259 17.132L40.5371 17.0367L40.4736 16.9268L40.4257 16.7853L40.4153 16.6109L40.4533 16.4424L40.5121 16.3295L40.5603 16.2566L40.6097 16.2055L40.6725 16.158Z" fill="#FDB029"/>
<path d="M35.3133 26.9539L47.0521 20.1765L47.19 20.142L47.339 20.1462L47.4542 20.1699L47.5938 20.2359L47.6898 20.3045L47.7884 20.4167L47.8323 20.4928L47.8753 20.6259L47.8916 20.7518L47.8777 20.8839L47.8647 20.959L47.7987 21.0986L47.7131 21.2044L47.6468 21.2652L37.3507 27.221L40.4456 28.0502L40.5803 28.1078L40.6945 28.1884L40.7505 28.2463L40.8322 28.3683L40.885 28.5183L40.9013 28.6442L40.8873 28.7763L40.8552 28.8963L40.7758 29.0323L40.677 29.1345L40.555 29.2162L40.4268 29.2677L40.3009 29.284L40.1737 29.2785L35.518 28.031L35.41 27.9806L35.3006 27.9084L35.2118 27.8131L35.1434 27.6947L35.0991 27.5399L35.09 27.3873L35.128 27.2187L35.1784 27.1107L35.2555 27.0098L35.3133 26.9539Z" fill="#F33C3A"/>
</g>
</g>
<defs>
<clipPath id="clip0_1_993">
<rect width="90" height="67" fill="white"/>
</clipPath>
<clipPath id="clip1_1_993">
<rect width="42" height="42" fill="white" transform="translate(48)"/>
</clipPath>
<clipPath id="clip2_1_993">
<rect width="42" height="42" fill="white" transform="translate(0 25)"/>
</clipPath>
<clipPath id="clip3_1_993">
<rect width="20" height="20" fill="white" transform="translate(27 19) rotate(-30)"/>
</clipPath>
</defs>
</svg>
