<svg width="50" height="50" viewBox="0 0 50 50" fill="none" xmlns="http://www.w3.org/2000/svg">
<path d="M13.5938 19.1016C17.0117 19.1016 19.7852 16.3281 19.7852 12.9102C19.7852 9.49219 17.0117 6.71875 13.5938 6.71875C10.1758 6.71875 7.40234 9.49219 7.40234 12.9102C7.40234 16.3281 10.1758 19.1016 13.5938 19.1016ZM13.5938 8.20312C16.1914 8.20312 18.3008 10.3125 18.3008 12.9102C18.3008 15.5078 16.1914 17.6172 13.5938 17.6172C10.9961 17.6172 8.88672 15.5078 8.88672 12.9102C8.88672 10.3125 10.9961 8.20312 13.5938 8.20312Z" fill="#E7A847"/>
<path d="M29.9609 19.1016C33.3789 19.1016 36.1523 16.3281 36.1523 12.9102C36.1523 9.49219 33.3789 6.71875 29.9609 6.71875C26.543 6.71875 23.7695 9.49219 23.7695 12.9102C23.7695 16.3281 26.543 19.1016 29.9609 19.1016ZM29.9609 8.20312C32.5586 8.20312 34.668 10.3125 34.668 12.9102C34.668 15.5078 32.5586 17.6172 29.9609 17.6172C27.3633 17.6172 25.2539 15.5078 25.2539 12.9102C25.2539 10.3125 27.3633 8.20312 29.9609 8.20312Z" fill="#E7A847"/>
<path d="M38.0079 27.4219C38.1446 27.6172 38.379 27.7148 38.5938 27.7148C38.7501 27.7148 38.9063 27.6563 39.0431 27.5586C39.3751 27.3047 39.4337 26.8359 39.1798 26.5234C36.9532 23.6523 33.5938 21.9922 29.961 21.9922C27.6368 21.9922 25.3712 22.6758 23.4376 23.9844C23.1056 24.2188 23.0079 24.668 23.2423 25.0195C23.4766 25.3516 23.9259 25.4492 24.2774 25.2148C25.9571 24.082 27.9298 23.4766 29.961 23.4766C33.1251 23.457 36.0548 24.9023 38.0079 27.4219Z" fill="#E7A847"/>
<path d="M13.5937 21.9727C7.16797 21.9727 1.95312 27.207 1.95312 33.6328C1.95312 34.043 2.28516 34.375 2.69531 34.375C3.10547 34.375 3.4375 34.043 3.4375 33.6328C3.4375 28.0273 7.98828 23.4766 13.5937 23.4766C19.1992 23.4766 23.75 28.0273 23.75 33.6328C23.75 34.043 24.082 34.375 24.4922 34.375C24.9023 34.375 25.2344 34.043 25.2344 33.6328C25.2539 27.207 20.0195 21.9727 13.5937 21.9727Z" fill="#E7A847"/>
<path d="M40.8594 28.9062C36.8945 28.9062 33.6719 32.1289 33.6719 36.0938C33.6719 40.0586 36.8945 43.2813 40.8594 43.2813C44.8242 43.2813 48.0469 40.0586 48.0469 36.0938C48.0469 32.1289 44.8242 28.9062 40.8594 28.9062ZM40.8594 41.7969C37.7148 41.7969 35.1563 39.2383 35.1563 36.0938C35.1563 32.9492 37.7148 30.3906 40.8594 30.3906C44.0039 30.3906 46.5625 32.9492 46.5625 36.0938C46.5625 39.2383 44.0039 41.7969 40.8594 41.7969Z" fill="#E7A847"/>
<path d="M43.3398 35.3516H41.6016V33.6133C41.6016 33.2031 41.2695 32.8711 40.8594 32.8711C40.4492 32.8711 40.1172 33.2031 40.1172 33.6133V35.3516H38.3789C37.9688 35.3516 37.6367 35.6836 37.6367 36.0938C37.6367 36.5039 37.9688 36.8359 38.3789 36.8359H40.1172V38.5742C40.1172 38.9844 40.4492 39.3164 40.8594 39.3164C41.2695 39.3164 41.6016 38.9844 41.6016 38.5742V36.8359H43.3398C43.75 36.8359 44.082 36.5039 44.082 36.0938C44.082 35.6836 43.75 35.3516 43.3398 35.3516Z" fill="#E7A847"/>
</svg>
