<svg width="320" height="320" viewBox="0 0 320 320" fill="none" xmlns="http://www.w3.org/2000/svg">
<g clip-path="url(#clip0_1_171)">
<ellipse cx="160" cy="160.321" rx="160.643" ry="160.321" fill="#F1F1F3"/>
<ellipse cx="160" cy="160.321" rx="138.153" ry="137.876" fill="#E7E8EE"/>
<ellipse cx="160" cy="160.321" rx="112.45" ry="112.224" fill="#D9DBE7"/>
<path d="M50.0482 84.008C50.0482 86.7955 47.7828 89.0621 44.9799 89.0621C42.177 89.0621 39.9116 86.7955 39.9116 84.008C39.9116 81.2204 42.177 78.9539 44.9799 78.9539C47.7828 78.9539 50.0482 81.2204 50.0482 84.008Z" stroke="#E69534" stroke-width="4"/>
<path d="M193.563 9.09075L202.298 1.97266L202.791 13.2169L193.563 9.09075Z" stroke="#44875C" stroke-width="2"/>
<path d="M229.968 304.289C229.968 306.191 228.422 307.739 226.506 307.739C224.59 307.739 223.044 306.191 223.044 304.289C223.044 302.386 224.59 300.838 226.506 300.838C228.422 300.838 229.968 302.386 229.968 304.289Z" stroke="#8E7BA8" stroke-width="4"/>
<path d="M254.386 92.024C254.386 93.9261 252.839 95.4749 250.924 95.4749C249.008 95.4749 247.462 93.9261 247.462 92.024C247.462 90.1219 249.008 88.5731 250.924 88.5731C252.839 88.5731 254.386 90.1219 254.386 92.024Z" stroke="#B75DA5" stroke-width="4"/>
<path d="M248.37 235.151L246.945 236.008L248.37 236.865L250.016 237.855L251.531 238.766L251.531 236.998L251.531 235.019L251.531 233.251L250.016 234.162L248.37 235.151ZM252.744 240.905L244.6 236.008L252.744 231.112L252.744 240.905Z" stroke="#7DA7D9" stroke-width="2"/>
<path d="M26.5323 232.326L19.1809 234.204L21.0619 226.867L26.5323 232.326Z" stroke="#CEA8B4" stroke-width="2"/>
<path d="M79.6787 299.479C80.3149 299.691 80.951 299.902 81.6064 300.12C81.6064 302.025 81.6064 303.93 81.6064 305.892C80.7582 305.892 79.91 305.892 79.0361 305.892C79.0189 304.943 79.0064 303.995 78.996 303.046C78.9885 302.518 78.9811 301.99 78.9734 301.445C79.0361 300.12 79.0361 300.12 79.6787 299.479Z" fill="#1AFFA1"/>
<path d="M82.249 296.914C84.1575 296.914 86.0659 296.914 88.0322 296.914C88.0322 297.76 88.0322 298.607 88.0322 299.479C86.1237 299.479 84.2153 299.479 82.249 299.479C82.249 298.632 82.249 297.786 82.249 296.914Z" fill="#1EFBA2"/>
<path d="M72.6105 296.914C74.5189 296.914 76.4273 296.914 78.3936 296.914C78.3936 297.76 78.3936 298.607 78.3936 299.479C76.4852 299.479 74.5767 299.479 72.6105 299.479C72.6105 298.632 72.6105 297.786 72.6105 296.914Z" fill="#1AFEA1"/>
<path d="M79.0361 290.501C79.8843 290.501 80.7325 290.501 81.6064 290.501C81.6064 292.406 81.6064 294.31 81.6064 296.273C80.7582 296.273 79.91 296.273 79.0361 296.273C79.0361 294.368 79.0361 292.463 79.0361 290.501Z" fill="#1EFBA2"/>
<path d="M301.365 171.222C302.002 171.434 302.638 171.646 303.293 171.864C303.293 173.768 303.293 175.673 303.293 177.635C302.445 177.635 301.597 177.635 300.723 177.635C300.706 176.687 300.693 175.738 300.683 174.79C300.675 174.261 300.668 173.733 300.66 173.189C300.723 171.864 300.723 171.864 301.365 171.222Z" fill="#DB5D5F"/>
<path d="M294.297 168.657C296.206 168.657 298.114 168.657 300.08 168.657C300.08 169.504 300.08 170.35 300.08 171.222C298.172 171.222 296.263 171.222 294.297 171.222C294.297 170.376 294.297 169.529 294.297 168.657Z" fill="#D86164"/>
<path d="M303.936 168.657C305.844 168.657 307.753 168.657 309.719 168.657C309.719 169.504 309.719 170.35 309.719 171.222C307.81 171.222 305.902 171.222 303.936 171.222C303.936 170.376 303.936 169.529 303.936 168.657Z" fill="#DB5D5F"/>
<path d="M300.723 162.245C301.571 162.245 302.419 162.245 303.293 162.245C303.293 164.149 303.293 166.054 303.293 168.016C302.445 168.016 301.597 168.016 300.723 168.016C300.723 166.111 300.723 164.207 300.723 162.245Z" fill="#DB5E5F"/>
<path d="M98.3132 58.3567C100.01 58.3567 101.706 58.3567 103.454 58.3567C103.454 59.2032 103.454 60.0497 103.454 60.9218C101.757 60.9218 100.061 60.9218 98.3132 60.9218C98.3132 60.0753 98.3132 59.2288 98.3132 58.3567Z" fill="#27AFF9"/>
<path d="M104.096 52.5852C104.945 52.5852 105.793 52.5852 106.667 52.5852C106.667 54.2782 106.667 55.9712 106.667 57.7155C105.819 57.7155 104.97 57.7155 104.096 57.7155C104.096 56.0225 104.096 54.3295 104.096 52.5852Z" fill="#26AFF9"/>
<path d="M104.739 60.9219C105.375 61.1335 106.011 61.3451 106.667 61.5632C106.667 63.0445 106.667 64.5259 106.667 66.0521C105.818 66.0521 104.97 66.0521 104.096 66.0521C104.069 64.5561 104.07 63.0593 104.096 61.5632C104.308 61.3515 104.52 61.1399 104.739 60.9219Z" fill="#2BAFF7"/>
<path d="M107.309 58.3567C108.794 58.3567 110.278 58.3567 111.807 58.3567C111.807 59.2032 111.807 60.0497 111.807 60.9218C110.323 60.9218 108.839 60.9218 107.309 60.9218C107.309 60.0753 107.309 59.2288 107.309 58.3567Z" fill="#2BAFF7"/>
<path d="M123.221 98L125.189 98.9841L129.371 103.166L130.847 104.396L131.831 103.904L136.26 99.4761L137.982 98.246L139.704 98.492L142.656 101.198L145.854 104.396H146.592L152.251 98.738L153.235 98.246L154.711 98.492L156.679 100.214L159.877 103.412L161.107 104.396L162.091 103.904L166.765 99.2301L168.487 98L170.456 98.9841L173.654 101.936L176.114 104.396H176.852L177.59 103.412H178.082L178.328 102.674L180.296 100.952L182.756 98.492L184.232 98.246L185.708 98.9841L186.2 99.9681V112.761L189.399 112.023H195.303L198.747 112.761L201.945 113.991L205.39 116.205L207.604 117.927L209.326 119.895L211.54 123.339L212.77 126.046L213.754 129.49L214 130.72V136.378L213.016 140.56L211.048 144.497L209.326 147.203L207.604 149.171L204.405 151.631L200.715 153.599L196.779 154.829L195.549 155.075H189.645L186.2 154.337L186.446 164.178H193.089L203.175 164.424L203.913 164.916L204.159 165.654V210.674L203.667 213.38L201.945 216.825L200.715 218.301L197.517 220.269L195.057 221.007L192.351 221.253H117.317L114.118 220.761L110.674 219.039L108.706 217.317L107.23 215.103L106.246 212.15L106 209.69V100.706L106.492 99.2301L107.476 98.492L108.952 98.246L111.412 100.214L115.595 104.396H116.333L121.991 98.738L123.221 98Z" fill="#7F83A4"/>
<path d="M123.221 98L125.189 98.9841L129.371 103.166L130.847 104.396L131.831 103.904L136.26 99.4761L137.982 98.246L139.704 98.492L142.656 101.198L145.854 104.396H146.592L152.251 98.738L153.235 98.246L154.711 98.492L156.679 100.214L159.877 103.412L161.107 104.396L162.091 103.904L166.765 99.2301L168.487 98L170.456 98.9841L173.654 101.936L176.114 104.396H176.852L177.59 103.412H178.082L178.328 102.674L180.296 100.952L182.756 98.492L184.232 98.246L185.708 98.9841L186.2 99.9681V112.761L189.399 112.023H195.303L198.747 112.761L201.945 113.991L205.39 116.205L207.604 117.927L209.326 119.895L211.54 123.339L212.77 126.046L213.754 129.49L214 130.72V136.378L213.016 140.56L211.048 144.497L209.326 147.203L207.604 149.171L204.405 151.631L200.715 153.599L196.779 154.829L195.549 155.075H189.645L186.2 154.337L186.446 164.178H193.089L203.175 164.424L203.913 164.916L204.159 165.654V210.674L203.667 213.38L201.945 216.825L200.715 218.301L197.517 220.269L195.057 221.007L192.351 221.253H117.317L114.118 220.761L110.674 219.039L108.706 217.317L107.23 215.103L106.246 212.15L106 209.69V100.706L106.492 99.2301L107.476 98.492L108.952 98.246L111.412 100.214L115.595 104.396H116.333L121.991 98.738L123.221 98ZM123.221 103.658L118.547 108.333L116.333 110.055L115.349 109.809L113.134 108.087L110.674 105.626H110.428V210.428L110.92 212.888L112.396 214.856L114.364 216.333L115.841 216.825L118.793 217.071H157.909L183.74 216.825V216.087L182.756 213.872L182.264 211.658L182.018 208.706L181.772 152.369L178.574 149.909L176.114 147.449L173.9 144.251L172.178 140.314L171.194 136.132V130.966L172.178 126.538L174.146 122.601L175.622 120.387L178.328 117.435L181.772 114.975V105.626L180.05 107.103L177.836 109.317L176.852 110.055L175.622 109.809L173.162 107.595L169.226 103.658L168.241 103.904L162.829 109.317L161.599 110.055L160.615 109.809L157.909 107.595L154.465 104.15L154.219 103.658L153.235 103.904L151.267 105.626L150.036 107.103L148.068 108.825L146.346 110.055L145.116 109.563L142.164 106.856L138.966 103.658L137.982 103.904L132.815 109.071L131.339 110.055L130.355 109.809L127.649 107.595L123.713 103.658H123.221Z" fill="#F6F7F9"/>
<path d="M189.891 116.451H195.057L198.747 117.435L200.469 118.173V118.665L201.945 119.157L202.437 119.403V119.895L203.667 120.387L205.881 122.602L207.604 125.308L208.834 128.014L209.572 130.966V135.886L208.834 139.084L206.865 143.021L205.143 145.235L203.175 147.203H202.437V147.695L201.699 148.187H200.961V148.679L198.501 149.663L196.533 150.401L193.581 150.893H191.367L189.152 150.401L186.2 149.663L183.248 148.187L181.034 146.465L178.82 144.251L177.836 142.775V142.037H177.344L176.36 139.576L175.622 137.608L175.376 136.624V131.95L175.622 129.49L176.852 126.046L178.82 122.848L180.296 121.125L182.756 119.157L186.692 117.189L189.891 116.451Z" fill="#323233"/>
<path d="M186.201 168.606H199.485L199.731 168.852V211.166L198.993 213.381L197.025 215.595L195.057 216.579L194.073 216.825H191.613L189.399 215.841L187.431 214.119L186.447 212.397L185.955 208.952L186.201 168.606Z" fill="#7F83A4"/>
<path d="M136.752 127.03H155.449L155.695 128.506L155.203 129.244L152.743 129.49H149.791L151.267 132.442V133.18H155.203L155.449 133.426V135.394L151.267 135.886L150.283 138.1L148.807 140.069V140.807L150.037 142.037L151.267 144.497L151.513 146.219V151.877L150.775 152.615L149.299 152.369L148.807 152.123L148.56 145.727L148.068 144.005L147.576 143.021L146.346 142.529L145.608 142.037L138.474 141.791L136.752 141.299V139.33L136.998 139.084L145.116 138.838L146.592 138.1L147.822 136.87L148.56 135.64H137.982L136.752 135.394V133.18L148.068 132.934V132.196L147.084 130.72L145.608 129.736L137.49 129.49L136.752 129.244V127.03Z" fill="#F5F6F8"/>
<path d="M145.854 188.533H163.075L169.963 188.779L170.702 190.009V191.731L170.21 192.715L169.225 192.961H134.292L133.061 192.469L132.815 191.977V190.009L133.061 189.025L133.553 188.779L145.854 188.533Z" fill="#F5F5F8"/>
<path d="M137.49 160.488H168.979L170.21 160.98L170.702 161.964V163.686L169.963 164.67L156.925 164.916H149.298L133.799 164.67L132.815 163.686V161.472L133.553 160.734L137.49 160.488Z" fill="#F6F6F9"/>
<path d="M162.829 174.51L169.963 174.756L170.456 175.248V178.446L169.225 178.938H134.538L133.307 178.446L132.815 177.708V175.74L133.799 174.756L162.829 174.51Z" fill="#F6F6F9"/>
<path d="M191.121 125.554H193.581L193.827 125.8L194.073 131.95L200.469 132.196L200.715 132.442V134.902L194.073 135.148L193.827 141.545L192.105 141.791L191.367 141.545L191.121 139.576L190.875 134.902H184.724L184.232 134.656V132.442L184.478 132.196H190.875L191.121 125.554Z" fill="#F1F2F5"/>
<path d="M162.829 132.688H168.242L169.472 133.426L169.964 134.164L169.718 135.64L168.734 136.624L167.996 136.87H163.075L161.845 136.132L161.353 135.394V133.918L162.829 132.688Z" fill="#F5F5F8"/>
<path d="M124.205 132.688H129.617L130.847 133.918V135.64L129.863 136.624L128.879 136.87H124.451L122.975 136.132L122.729 135.64V133.672L123.467 132.934L124.205 132.688Z" fill="#F6F6F8"/>
<path d="M122.483 175.002H124.697L125.435 175.74V177.954L124.943 178.446L122.729 178.692L121.745 177.954L121.499 176.478L121.991 175.248L122.483 175.002Z" fill="#F5F5F8"/>
<path d="M122.729 189.025H124.697L125.435 190.009V192.223L124.451 192.715H122.729L121.745 191.977L121.499 190.501L122.237 189.271L122.729 189.025Z" fill="#F4F4F7"/>
<path d="M123.467 160.733L124.697 160.979L125.435 161.717V163.932L124.943 164.424H122.237L121.745 163.932V161.471L123.467 160.733Z" fill="#F5F5F8"/>
</g>
<defs>
<clipPath id="clip0_1_171">
<rect width="320" height="320" fill="white"/>
</clipPath>
</defs>
</svg>
