<svg width="70" height="70" viewBox="0 0 70 70" fill="none" xmlns="http://www.w3.org/2000/svg">
<path d="M56.7725 31.377H57.4902L59.2676 31.4453L60.7031 31.5479L61.9678 31.6846L63.4717 31.9238L64.292 32.0947L65.7617 32.4707L66.4453 32.71L67.6074 33.1885L68.2568 33.5303L68.7354 33.8721L69.1797 34.248L69.5557 34.6924L69.8291 35.1709L70 35.5811V64.7363L69.9316 64.7705L69.7266 65.2832L69.4873 65.625L69.248 65.8984L68.8721 66.2744L68.1543 66.7529L67.5049 67.0947L66.001 67.6758L65.0098 67.9492L64.0186 68.1885L63.0957 68.3594L61.7627 68.5645L60.4297 68.7012L58.9258 68.8037L58.0029 68.8379H56.1572L54.6533 68.7695L53.0811 68.6328L52.1924 68.5303L50.5518 68.2568L49.6631 68.0518L48.3643 67.71L47.0996 67.2314L46.4844 66.958L45.9375 66.6504L45.3906 66.2402L45.2881 66.1719V66.1035L45.1514 66.0352L44.9121 65.7959L44.5703 65.3174L44.3652 64.873L44.2627 64.3945L44.2285 63.7451V36.333L44.2969 35.6152L44.4678 35.1025L44.707 34.6924L44.9121 34.4189H44.9805L45.0488 34.2822H45.1172L45.1855 34.1455L45.5615 33.8379L46.0742 33.4961L46.6211 33.1885L48.0908 32.6074L48.6035 32.4365L50.2441 32.0264L51.8164 31.7529L53.1836 31.582L54.8926 31.4453L56.7725 31.377ZM56.1914 33.7695L54.5508 33.8379L52.7393 34.0088L51.4062 34.2139L50.2441 34.4531L49.2188 34.7266L48.2275 35.0684L47.4072 35.4443L47.0312 35.6836L46.7578 35.8887L46.6553 36.0254L46.6895 36.1963L46.9287 36.4355L47.373 36.709L48.1592 37.085L49.3896 37.4951L50.6885 37.8027L51.9873 38.042L53.3545 38.2129L54.4824 38.3154L56.0205 38.3838H58.3789L59.8145 38.3154L61.5234 38.1445L63.0615 37.9053L64.0186 37.7002L64.9414 37.4609L66.0693 37.085L66.8896 36.709L67.2998 36.4355L67.5732 36.1963L67.6074 36.0596L67.4707 35.8545L66.9922 35.5127L66.1377 35.1025L64.9072 34.6924L63.54 34.3506L62.6172 34.1797L61.4893 34.0088L59.6777 33.8379L58.0371 33.7695H56.1914ZM46.6211 38.9648V40.708L46.6895 40.8789L46.9971 41.1523L47.5098 41.46L48.2959 41.8018L49.4238 42.1777L50.6885 42.4854L52.2607 42.7588L53.3887 42.8955L54.6875 42.998L56.123 43.0664H58.1396L59.7461 42.998L61.4893 42.8271L62.8223 42.6221L63.6768 42.4512L65.0439 42.1094L66.1377 41.7334L66.9922 41.3232L67.4707 40.9814L67.6074 40.8105L67.6416 40.7422V38.9648L67.334 39.0674L66.4795 39.4092L65.5566 39.7168L64.0527 40.0928L62.8906 40.2979L60.9766 40.5371L59.9512 40.6396L57.5928 40.7422H56.6699L54.1748 40.6396L51.543 40.332L50.3809 40.127L49.3555 39.8877L48.3643 39.6143L47.5781 39.3408L46.792 38.999L46.6211 38.9648ZM46.6211 43.6133V45.4248L46.8262 45.6982L47.168 45.9375L47.8857 46.3135L48.6035 46.5869L49.4238 46.8604L50.7227 47.168L52.0898 47.4072L53.1152 47.5439L54.6875 47.6807L55.9863 47.749H58.1738L59.6436 47.6807L61.1475 47.5439L61.9678 47.4414L63.3691 47.2021L64.6338 46.8945L65.1123 46.7578L66.0352 46.4502L66.9238 46.04L67.4365 45.6982L67.6074 45.4932L67.6416 45.4248V43.6475L67.2998 43.75L66.582 44.0576L65.4199 44.4336L64.1895 44.7412L63.0957 44.9463L61.7969 45.1172L60.293 45.2881L59.1992 45.3564L57.4561 45.4248H56.7383L54.2773 45.3223L52.9785 45.1855L51.3379 44.9805L49.9023 44.707L48.501 44.3311L47.4072 43.9551L46.6211 43.6133ZM46.6211 48.2959V50.1074L46.8262 50.3809L47.3389 50.7227L48.125 51.0986L49.3213 51.5088L50.8936 51.8848L52.5684 52.1582L54.2432 52.3291L55.3027 52.3975L56.3965 52.4316H57.832L59.5752 52.3633L61.4209 52.1924L62.7539 51.9873L63.6426 51.8164L65.0098 51.4746L66.1035 51.0986L66.8555 50.7568L67.2314 50.5176L67.4707 50.3467V50.2783H67.5391L67.6416 50.1074V48.2959L66.8213 48.6377L66.0693 48.9111L64.873 49.2529L63.9844 49.458L62.8564 49.6631L60.6006 49.9365L59.7803 50.0049L58.3447 50.0732L56.9434 50.1074L55.0977 50.0391L53.9355 49.9707L51.3379 49.6631L49.9365 49.3896L48.7402 49.082L47.5098 48.6719L46.6553 48.2959H46.6211ZM46.6211 52.9785V54.7559L46.7236 54.9609L47.0654 55.2344L47.6123 55.542L48.4326 55.8838L49.4922 56.2256L50.9277 56.5674L52.6025 56.8408L54.3115 57.0117L55.5762 57.0801L56.6016 57.1143H57.6953L59.5752 57.0459L61.3867 56.875L62.5488 56.7041L63.7793 56.4648L65.0098 56.1572L66.1719 55.7471L66.958 55.3711L67.3682 55.0977L67.5391 54.9268L67.6416 54.79V52.9785L66.8213 53.3203L65.5908 53.7305L64.7021 53.9697L63.7793 54.1748L62.8564 54.3457L60.5664 54.6191L59.0625 54.7217L58.1055 54.7559H56.0205L54.4824 54.6875L53.0469 54.5508L51.167 54.3115L49.7998 54.0381L48.6377 53.7305L47.5098 53.3545L46.7236 53.0127L46.6211 52.9785ZM46.6211 57.6611V59.4385L46.7578 59.6777L47.1338 59.9512L47.8516 60.3271L48.3643 60.5322L49.3896 60.874L50.4834 61.1475L51.543 61.3525L52.6709 61.5234L54.0039 61.6602L55.0293 61.7285L55.8838 61.7627H58.584L59.917 61.6943L61.626 61.5234L63.3008 61.25L64.5996 60.9424L65.2832 60.7373L66.0693 60.4639L66.958 60.0537L67.3682 59.7803L67.6074 59.541L67.6416 59.4727V57.6611L66.8213 58.0029L65.5908 58.4131L64.4287 58.7207L63.0273 58.9941L60.8398 59.2676L59.6777 59.3701L57.9346 59.4385H56.2598L54.4482 59.3701L53.0811 59.2334L51.2012 58.9941L49.834 58.7207L48.6377 58.4131L47.4414 58.0029L46.6553 57.6611H46.6211ZM46.6211 62.3438V64.1211L46.7236 64.292L47.0312 64.5654L47.5098 64.8389L48.2617 65.1807L49.3896 65.5566L50.6543 65.8643L51.9873 66.1035L52.9785 66.2402L55.0293 66.4111L56.9092 66.4795L58.4473 66.4453L59.3701 66.4111L60.6348 66.3086L61.8311 66.1719L63.4375 65.8984L64.7363 65.5908L65.9668 65.1807L66.582 64.9072L67.1631 64.5996L67.4707 64.3604L67.6074 64.2236L67.6416 64.1211V62.3438L67.1973 62.5146L66.4453 62.8223L65.4541 63.1299L64.0869 63.4717L62.959 63.6768L60.7715 63.9502L60.1221 64.0186L58.7549 64.0869L57.8662 64.1211H56.3623L54.585 64.0527L53.7305 63.9844L51.4746 63.7109L50.3125 63.5059L49.1504 63.2324L48.2275 62.959L47.3047 62.6172L46.6895 62.3438H46.6211Z" fill="white"/>
<path d="M0.854492 23.3789H59.6094L59.9512 23.4814L60.293 23.7891L60.4297 24.0283L60.498 24.3359V27.8906L60.4297 28.2666L60.2246 28.5742L59.9854 28.7793L59.7119 28.8818L59.4043 28.916L59.0967 28.8477L58.8232 28.6768L58.584 28.4033L58.4814 28.1641L58.4473 27.9932V25.3955L2.0166 25.4297V51.4404H40.8447L41.2207 51.543L41.4941 51.748L41.6992 52.0557L41.7676 52.2607V52.6709L41.6309 52.9785L41.3574 53.2861L41.0498 53.4229L40.8447 53.457L39.4092 53.4912H2.63184L0.820312 53.457L0.546875 53.3545L0.273438 53.1494L0.102539 52.9443L0 52.7393V24.0967L0.205078 23.7549L0.478516 23.5156L0.683594 23.4131L0.854492 23.3789Z" fill="white"/>
<path d="M5.50293 8.16895L6.01562 8.20312L7.24609 8.47656L10.1514 9.12598L17.4658 10.7666L18.7988 11.0742L20.3369 11.416L22.9346 11.9971L24.2676 12.3047L28.2324 13.1934L44.8096 16.9189L46.1426 17.2266L52.3975 18.6279L52.9102 18.7988L53.1836 19.0039L53.3887 19.2773L53.457 19.4824V19.9609L53.252 20.3369L52.9443 20.6104L52.4658 20.7471L51.5771 20.5762L27.583 15.1758L18.3203 13.0908L7.82715 10.7324L6.63086 10.459L6.42578 10.4248L6.3916 10.7666L5.94727 12.749L5.63965 14.1162L5.33203 15.5518L4.95605 17.2266L4.68262 18.4229L4.40918 19.6875L4.27246 20.0977L4.10156 20.3711L3.82812 20.6104L3.52051 20.7129H3.14453L2.80273 20.5762L2.5293 20.3369L2.3584 19.9951L2.32422 19.8926V19.5508L2.49512 18.7305L3.04199 16.2695L3.34961 14.9023L3.65723 13.4668L3.96484 12.0996L4.61426 9.16016L4.78516 8.68164L5.09277 8.33984L5.36621 8.20312L5.50293 8.16895Z" fill="white"/>
<path d="M28.2666 28.1299H29.8047L30.9326 28.2666L31.8213 28.4717L32.7441 28.7793L33.5986 29.1553L34.248 29.4971L34.8975 29.9072L35.6152 30.4541L36.0254 30.8301L36.2988 31.0693L36.6406 31.4111L36.8799 31.6846L37.3242 32.2314L37.7686 32.8809L38.1445 33.5303L38.418 34.0771L38.6914 34.6924L38.999 35.6152L39.2041 36.4697L39.3408 37.4268L39.375 37.9736V38.7939L39.3066 39.6826L39.1699 40.5371L38.9307 41.46L38.623 42.3145L38.2471 43.1348L37.8711 43.8184L37.5977 44.2285L37.1191 44.8779L36.709 45.3564L35.9912 46.0742L35.7178 46.3135L35.2051 46.7236L34.5898 47.1338L33.9404 47.5098L33.1885 47.8857L32.3682 48.1934L31.6846 48.3984L30.8643 48.5693L29.8047 48.7061L29.2236 48.7402H28.8477L27.959 48.6719L27.0361 48.5352L26.0791 48.2959L25.1221 47.9541L24.2676 47.5439L23.6523 47.2021L23.1396 46.8604L22.5586 46.416L22.2168 46.1084L21.9434 45.8691L21.4648 45.3906L21.2256 45.1172L20.8154 44.6045L20.4053 44.0234L19.9609 43.2715L19.5508 42.417L19.209 41.4941L18.9355 40.4004L18.7988 39.4775L18.7646 39.0332V37.8369L18.833 37.085L19.0039 36.1279L19.209 35.376L19.4824 34.5898L19.79 33.9062L20.1318 33.2568L20.6104 32.5049L20.9521 32.0605L21.2256 31.7188L21.7725 31.1377L22.1484 30.7617L22.4219 30.5225L22.9004 30.1465L23.4814 29.7363L24.3018 29.2578L25.0195 28.916L25.6348 28.6768L26.4551 28.4375L27.207 28.2666L28.2666 28.1299ZM28.3008 30.0439L27.3779 30.1807L26.5576 30.3857L25.7373 30.6934L25.1562 30.9668L24.3701 31.4453L23.7207 31.9238L23.1396 32.4707L22.832 32.7783L22.5244 33.1543L22.0801 33.7354L21.6016 34.5557L21.2598 35.3076L21.0205 35.9912L20.8154 36.7773L20.7129 37.4609L20.6787 37.8369V39.1016L20.8154 40.0928L21.0205 40.8789L21.2598 41.5625L21.6357 42.3828L22.0459 43.0664L22.5244 43.7158L22.832 44.0576L23.0713 44.3311L23.3105 44.5703L23.584 44.8096L24.0967 45.2197L24.6777 45.5957L25.2246 45.9033L25.874 46.2109L26.6602 46.4844L27.3096 46.6553L28.2324 46.792L28.7451 46.8262H29.3262L29.9414 46.792L30.9326 46.6211L31.7871 46.3818L32.4707 46.1084L33.0176 45.835L33.5645 45.5273L34.1455 45.1172L34.4873 44.8438L34.8975 44.4678L35.4443 43.9209L35.8887 43.3398L36.1279 42.998L36.4355 42.4854L36.8799 41.5625L37.1875 40.6055L37.3584 39.8193L37.4268 39.3408L37.4609 38.8965V38.0078L37.3926 37.29L37.2559 36.5039L37.0166 35.6836L36.7773 35.0684L36.4355 34.3506L36.0596 33.7354L35.5811 33.0859L35.1025 32.5732L34.624 32.0947L34.1455 31.7188L33.667 31.377L32.9834 30.9668L32.1631 30.5908L31.3428 30.3174L30.5908 30.1465L29.873 30.0439H28.3008Z" fill="white"/>
<path d="M10.6982 28.0615H19.8926L20.166 28.1641L20.3711 28.3008L20.5762 28.54L20.7129 28.8477V29.292L20.5762 29.5996L20.3369 29.873L19.9951 30.0439L19.7559 30.0781L11.2793 30.1123L11.0742 30.3516L10.835 30.5566L9.46777 31.9238H9.39941V31.9922L9.12598 32.2314L8.13477 33.2227H8.06641L7.99805 33.3594H7.92969V33.4277H7.86133V33.4961L7.58789 33.7354L6.87012 34.4531H6.80176V34.5215H6.7334V42.2119L7.14355 42.6562L7.62207 43.1689L7.92969 43.5107L8.4082 44.0234L8.64746 44.2969L9.46777 45.1855L9.77539 45.5273L10.1855 45.9717V46.04H10.2539L10.4932 46.3135L10.8691 46.7236L19.79 46.7578L20.0635 46.8262L20.3711 46.9971L20.5762 47.2363L20.7129 47.5781V47.9883L20.6104 48.2617L20.3027 48.6035L20.0293 48.7402L19.8926 48.7744L19.0381 48.8086H10.6641L10.083 48.7402L9.70703 48.501L9.33105 48.125L9.0918 47.8516L8.75 47.4756L8.51074 47.2021L7.99805 46.6553L7.69043 46.3135L7.31445 45.9033L7.0752 45.6299L6.59668 45.1172L5.84473 44.2969L5.60547 44.0234L5.12695 43.5107L4.75098 43.0322L4.64844 42.6221V34.1797L4.75098 33.7695L4.99023 33.3936L6.01562 32.3682H6.08398V32.2998H6.15234V32.2314L6.42578 31.9922L7.17773 31.2402L7.45117 31.001L8.54492 29.9072H8.61328L8.68164 29.7705H8.75V29.7021H8.81836V29.6338L9.0918 29.3945L10.1172 28.3691L10.4932 28.1299L10.6982 28.0615Z" fill="white"/>
<path d="M18.4912 1.12793L19.0039 1.23047L21.5332 2.29004L22.5244 2.7002L23.7549 3.21289L28.6768 5.26367L33.5986 7.31445L38.5205 9.36523L43.4424 11.416L44.9121 12.0312L46.0742 12.5098L46.8604 12.8516L47.168 13.0225L47.4414 13.2617L47.5781 13.5352L47.6123 13.6377V14.082L47.5098 14.3555L47.2021 14.6973L46.9287 14.834L46.8262 14.8682H46.416L46.0742 14.7656L43.2031 13.5693L22.4561 4.92188L19.0039 3.48633L18.9355 3.69141L18.6621 4.27246L18.3545 4.85352L18.0127 5.57129L17.6709 6.2207L17.3633 6.87012L17.0557 7.41699L16.8164 7.69043L16.4746 7.86133L16.3379 7.89551H16.0645L15.6543 7.75879L15.5176 7.65625V7.58789H15.4492L15.2783 7.34863L15.1758 7.0752V6.69922L15.3467 6.2207L15.6201 5.70801L15.9277 5.05859L16.2695 4.40918L17.0898 2.76855L17.4316 2.05078L17.6709 1.64062L17.9443 1.33301L18.1836 1.19629L18.4912 1.12793Z" fill="white"/>
<path d="M38.2129 28.0615H47.8857L48.1592 28.1641L48.3643 28.3008L48.6035 28.5742L48.7061 28.8477V29.292L48.501 29.7021L48.2275 29.9414L47.9883 30.0439L47.7832 30.0781H38.3154L38.0078 30.0098L37.7344 29.8047L37.5293 29.5654L37.4268 29.292L37.3926 29.0186L37.4951 28.6426L37.6318 28.4033H37.7002L37.7344 28.3008L38.0078 28.1299L38.2129 28.0615Z" fill="white"/>
</svg>
