<svg width="50" height="50" viewBox="0 0 50 50" fill="none" xmlns="http://www.w3.org/2000/svg">
<g clip-path="url(#clip0_1_1117)">
<path d="M11.7676 0H12.6709V0.0488281L12.8906 0.0976562L13.2324 0.268555L13.5254 0.488281L13.7207 0.683594L13.8916 0.927734L14.0625 1.26953L14.1357 1.5625L14.1602 1.7334L14.1846 3.2959L14.1602 3.88184H22.9248V1.92871L22.9736 1.51367L23.0957 1.14746L23.291 0.805664L23.4375 0.610352H23.4863V0.561523H23.5352V0.512695L23.8281 0.292969L24.1943 0.0976562L24.4385 0.0244141L24.4629 0H25.3662V0.0488281L25.5859 0.0976562L25.9277 0.268555L26.2207 0.488281L26.416 0.683594L26.5869 0.927734L26.7578 1.26953L26.8311 1.5625L26.8555 1.7334L26.8799 3.14941V3.4668L26.8555 3.88184H35.7178V1.92871L35.7666 1.51367L35.8887 1.14746L36.084 0.805664L36.2305 0.610352H36.2793V0.561523H36.3281V0.512695L36.6211 0.292969L36.9873 0.0976562L37.2314 0.0244141L37.2559 0H38.1592V0.0488281L38.3789 0.0976562L38.7207 0.268555L39.0137 0.488281L39.209 0.683594L39.3799 0.927734L39.5508 1.26953L39.6484 1.70898L39.6729 2.83203V3.4668L39.6484 3.88184H42.1875L43.042 3.93066L43.7256 4.02832L44.4092 4.19922L45.0439 4.41895L45.4834 4.61426L45.874 4.80957L46.2646 5.0293L46.7041 5.32227L47.1191 5.63965L47.3633 5.85938L47.7539 6.20117L47.9248 6.39648L48.1934 6.68945L48.5107 7.10449L48.7305 7.42188L49.0967 8.03223L49.4385 8.74023L49.6338 9.30176L49.7803 9.81445L49.9023 10.3516L49.9512 10.6445L50 10.6934V23.3643L49.9512 23.3398L49.8535 23.6328L49.6582 23.9746L49.4873 24.1943L49.2188 24.4385L48.877 24.6338L48.5107 24.7559L48.2422 24.8047H47.8271L47.5342 24.7559L47.2168 24.6338L46.9482 24.4873L46.6797 24.2676L46.46 24.0234L46.2646 23.7061L46.1426 23.3643L46.0938 23.1201L46.0693 22.8271L46.0449 11.5967L45.9717 10.9375L45.8252 10.4248L45.7031 10.1074L45.4346 9.59473L45.1904 9.27734L44.8975 8.93555L44.5801 8.66699L44.2627 8.44727L43.7256 8.1543L43.1152 7.95898L42.9199 7.91016L42.4072 7.86133L41.8457 7.83691L39.6729 7.8125V8.37402L39.6484 9.98535L39.5752 10.3516L39.4531 10.6445L39.2578 10.9619L39.0381 11.2061L38.7939 11.4014L38.4033 11.5967L38.0615 11.6943L37.8906 11.7188H37.4756L37.1826 11.6699L36.8652 11.5479L36.5967 11.4014L36.3281 11.1816L36.1084 10.9375L35.9131 10.5957L35.8154 10.376L35.7422 10.0098L35.7178 9.66797L35.6934 7.83691L26.8799 7.8125V8.27637L26.8555 9.98535L26.7822 10.3516L26.6602 10.6445L26.4648 10.9619L26.2451 11.2061L26.001 11.4014L25.6104 11.5967L25.2686 11.6943L25.0977 11.7188H24.6826L24.3896 11.6699L24.0723 11.5479L23.8037 11.4014L23.5352 11.1816L23.3154 10.9375L23.1201 10.5957L23.0225 10.376L22.9492 10.0098L22.9248 9.66797L22.9004 7.83691L14.1846 7.8125V8.27637L14.1602 9.98535L14.0869 10.3516L13.9648 10.6445L13.7695 10.9619L13.5498 11.2061L13.3057 11.4014L12.915 11.5967L12.5732 11.6943L12.4023 11.7188H11.9873L11.6943 11.6699L11.377 11.5479L11.1084 11.4014L10.8398 11.1816L10.6201 10.9375L10.4248 10.5957L10.3271 10.376L10.2539 10.0342L10.2295 9.7168L10.2051 7.83691H8.00781L7.27539 7.88574L6.86035 7.95898L6.27441 8.1543L5.76172 8.42285L5.49316 8.61816L5.15137 8.91113L5.0293 9.00879L4.76074 9.35059L4.58984 9.57031L4.37012 9.96094L4.22363 10.2783L4.05273 10.791L4.00391 11.0352L3.95508 11.5234L3.93066 12.3291V41.8701L3.95508 42.4072L4.02832 43.0176L4.22363 43.6523L4.41895 44.043L4.63867 44.4092L4.8584 44.6777L5.07812 44.9219L5.39551 45.2148L5.71289 45.4346L6.15234 45.6787L6.44531 45.8008L6.90918 45.9473L7.44629 46.0205L7.71484 46.0449L22.7295 46.0693L23.1934 46.1182L23.5596 46.2402L23.9258 46.46L24.2188 46.7285L24.4385 47.0215L24.6094 47.3633L24.707 47.7539V48.3154L24.6094 48.7061L24.4141 49.0967L24.2188 49.3652L23.9258 49.6338L23.5352 49.8535L23.1689 49.9756L23.1445 50H6.83594L6.78711 49.9512L6.12793 49.8291L5.39551 49.6338L4.73633 49.3896L4.07715 49.0723L3.51562 48.7305L3.07617 48.4131L2.80762 48.1934L2.22168 47.6562L1.87988 47.29L1.58691 46.9238L1.26953 46.4844L0.90332 45.874L0.561523 45.166L0.341797 44.5557L0.146484 43.7988L0.0488281 43.2617V43.1396H0V10.8154L0.0488281 10.6445L0.195312 9.8877L0.366211 9.27734L0.634766 8.56934L0.878906 8.05664L1.2207 7.49512L1.41602 7.20215L1.7334 6.78711L2.02637 6.44531L2.39258 6.05469L2.63672 5.83496L2.90527 5.61523L3.41797 5.22461L4.10156 4.80957L4.80957 4.46777L5.49316 4.22363L6.27441 4.02832L6.90918 3.93066L7.78809 3.88184H10.2295V1.92871L10.2783 1.51367L10.4004 1.14746L10.5957 0.805664L10.7422 0.610352H10.791V0.561523H10.8398V0.512695L11.1328 0.292969L11.499 0.0976562L11.7432 0.0244141L11.7676 0Z" fill="white"/>
<circle cx="38" cy="38" r="10" stroke="white" stroke-width="2"/>
<path d="M37.3779 18.5547H37.9883L38.3789 18.6523L38.7695 18.8477L39.0381 19.0674L39.209 19.2383L39.3799 19.4824L39.5508 19.8242L39.6484 20.2148V20.8008L39.5508 21.167L39.3555 21.5576L39.1602 21.8262L38.9893 21.9971L38.7451 22.168L38.4033 22.3389L38.0615 22.4365L37.8906 22.4609H37.4512L37.1094 22.3877L36.8164 22.2656L36.5234 22.0947L36.2061 21.8018L35.9863 21.4844L35.8398 21.1914L35.7422 20.8252L35.7178 20.4102L35.791 19.9951L35.8887 19.7021L36.084 19.3604L36.2793 19.1162H36.3281V19.0674L36.6455 18.8232L37.0605 18.6279L37.3779 18.5547Z" fill="white"/>
<path d="M28.8818 18.5547H29.4922L29.7363 18.6035L30.0537 18.7256L30.3711 18.9209L30.6641 19.1895L30.8838 19.4824L31.0547 19.8242L31.1523 20.2148V20.7764L31.0547 21.167L30.8594 21.5576L30.6641 21.8262L30.4932 21.9971L30.249 22.168L29.9072 22.3389L29.5654 22.4365L29.3945 22.4609H28.9551L28.6133 22.3877L28.3203 22.2656L28.0273 22.0947L27.71 21.8018L27.4902 21.4844L27.3438 21.1914L27.2461 20.8252L27.2217 20.4102L27.2949 19.9951L27.3926 19.7021L27.5879 19.3604L27.7832 19.1162H27.832V19.0674L28.1494 18.8232L28.5645 18.6279L28.8818 18.5547Z" fill="white"/>
<path d="M20.3857 18.5547H20.9961L21.2402 18.6035L21.5576 18.7256L21.875 18.9209L22.168 19.1895L22.3877 19.4824L22.5586 19.8242L22.6562 20.2148V20.7764L22.5586 21.167L22.3633 21.5576L22.168 21.8262L21.9971 21.9971L21.7529 22.168L21.4111 22.3389L21.0693 22.4365L20.8984 22.4609H20.459L20.1172 22.3877L19.8242 22.2656L19.5312 22.0947L19.2139 21.8018L18.9941 21.4844L18.8477 21.1914L18.75 20.8252L18.7256 20.4102L18.7988 19.9951L18.8965 19.7021L19.0918 19.3604L19.2871 19.1162H19.3359V19.0674L19.6533 18.8232L20.0684 18.6279L20.3857 18.5547Z" fill="white"/>
<path d="M11.8896 18.5547H12.5L12.7441 18.6035L13.0615 18.7256L13.3789 18.9209L13.6719 19.1895L13.8916 19.4824L14.0625 19.8242L14.1602 20.2148V20.7764L14.0625 21.167L13.8672 21.5576L13.6719 21.8262L13.501 21.9971L13.2568 22.168L12.915 22.3389L12.5732 22.4365L12.4023 22.4609H11.9629L11.6211 22.3877L11.3281 22.2656L11.0352 22.0947L10.7178 21.8018L10.498 21.4844L10.3516 21.1914L10.2539 20.8252L10.2295 20.4102L10.3027 19.9951L10.4004 19.7021L10.5957 19.3604L10.791 19.1162H10.8398V19.0674L11.1572 18.8232L11.5723 18.6279L11.8896 18.5547Z" fill="white"/>
<path d="M20.3857 35.5469H20.9961L21.3379 35.6201L21.7285 35.8154L21.9971 36.0107L22.2168 36.2305L22.3877 36.4746L22.5586 36.8164L22.6562 37.207V37.7686L22.5586 38.1592L22.3633 38.5498L22.168 38.8184L21.9971 38.9893L21.7529 39.1602L21.4111 39.3311L21.0693 39.4287L20.8984 39.4531H20.459L20.1172 39.3799L19.8242 39.2578L19.5312 39.0869L19.2139 38.7939L18.9941 38.4766L18.8477 38.1836L18.75 37.8174L18.7256 37.4023L18.7988 36.9873L18.8965 36.6943L19.0918 36.3525L19.2871 36.1084H19.3359V36.0596L19.6289 35.8398L20.0195 35.6445L20.2393 35.5713L20.3857 35.5469Z" fill="white"/>
<path d="M11.8896 35.5469H12.5L12.8906 35.6445L13.2812 35.8398L13.5498 36.0596L13.7207 36.2305L13.8916 36.4746L14.0625 36.8164L14.1602 37.207V37.7686L14.0625 38.1592L13.8672 38.5498L13.6719 38.8184L13.501 38.9893L13.2568 39.1602L12.915 39.3311L12.5732 39.4287L12.4023 39.4531H11.9629L11.6211 39.3799L11.3281 39.2578L11.0352 39.0869L10.7178 38.7939L10.498 38.4766L10.3516 38.1836L10.2539 37.8174L10.2295 37.4023L10.3027 36.9873L10.4004 36.6943L10.5957 36.3525L10.791 36.1084H10.8398V36.0596L11.1328 35.8398L11.5234 35.6445L11.7432 35.5713L11.8896 35.5469Z" fill="white"/>
<path d="M20.2277 26H21.0467L21.5709 26.131L22.095 26.3931L22.4554 26.688L22.6847 26.9173L22.9141 27.2449L23.1434 27.7035L23.2744 28.2277V29.014L23.1434 29.5054L22.8813 30.0295L22.6192 30.3899L22.3899 30.6192L22.0623 30.8485L21.6036 31.0779L21.145 31.2089L20.9157 31.2417H20.326L19.8673 31.1434L19.4742 30.9796L19.0811 30.7502L18.6552 30.3571L18.3604 29.9312L18.1638 29.5381L18.0328 29.0467L18 28.4898L18.0983 27.9329L18.2293 27.5397L18.4914 27.0811L18.7535 26.7535H18.819V26.688L19.2121 26.3931L19.7363 26.131L20.0311 26.0328L20.2277 26Z" fill="white"/>
<path d="M11.8896 27.0508H12.5L12.8906 27.1484L13.2812 27.3438L13.5498 27.5635L13.7207 27.7344L13.8916 27.9785L14.0625 28.3203L14.1602 28.7109V29.2725L14.0625 29.6631L13.8672 30.0537L13.6719 30.3223L13.501 30.4932L13.2568 30.6641L12.915 30.835L12.5732 30.9326L12.4023 30.957H11.9629L11.6211 30.8838L11.3281 30.7617L11.0352 30.5908L10.7178 30.2979L10.498 29.9805L10.3516 29.6875L10.2539 29.3213L10.2295 28.9062L10.3027 28.4912L10.4004 28.1982L10.5957 27.8564L10.791 27.6123H10.8398V27.5635L11.1328 27.3438L11.5234 27.1484L11.7432 27.0752L11.8896 27.0508Z" fill="white"/>
<path d="M34.4384 33H40.5479L40.6986 33.0143L40.8356 33.0859L40.9315 33.2005L40.9863 33.3151L41 33.3581V33.5443L40.9452 33.6732L40.863 33.7878L40.7534 33.8737L40.6849 33.9023L40.4932 33.9167H38.6027L38.7534 34.1315L38.8767 34.332L39 34.5612L39.1096 34.819L40.6438 34.8333L40.7945 34.8906L40.9315 35.0195L41 35.1914V35.3919L40.9315 35.5352L40.8356 35.6497L40.726 35.7214L40.5616 35.75L39.274 35.7643L39.2329 36.0938L39.1644 36.4518L39.0548 36.7956L38.9315 37.0677L38.7945 37.2969L38.6575 37.4831L38.4932 37.6693L38.3562 37.8125L38.2055 37.9414L37.9178 38.1419L37.6027 38.2995L37.3288 38.3997L37.0959 38.457L36.8904 38.4857L36.6712 38.5H35.3836L35.4247 38.5716L35.589 38.7721L35.7123 38.9154L35.8219 39.0586L35.9863 39.2591L36.0959 39.4023L36.2466 39.5885L36.3699 39.7461L36.5205 39.9323L36.6438 40.0898L36.7945 40.276L36.9178 40.4336L37.0685 40.6198L37.1918 40.7773L37.3425 40.9635L37.5205 41.1927L37.6849 41.3932L37.7945 41.5365L37.9589 41.737L38.0685 41.8802L38.2329 42.0807L38.3425 42.224L38.5068 42.4245L38.6164 42.5677L38.7808 42.7682L38.9041 42.9258L39.0548 43.112L39.1918 43.3125L39.2466 43.4414V43.6276L39.1918 43.7565L39.0685 43.8997L38.9589 43.9714L38.8767 44H38.7534L38.6164 43.9427L38.4795 43.8138L38.3836 43.7135L38.2329 43.513L37.9315 43.1406L37.8219 42.9974L37.6575 42.7969L37.5479 42.6536L37.3836 42.4531L37.274 42.3099L37.1096 42.1094L37 41.9661L36.8356 41.7656L36.726 41.6224L36.5616 41.4219L36.4521 41.2786L36.2877 41.0781L36.1781 40.9349L36.0137 40.7344L35.9041 40.5911L35.7397 40.3906L35.6301 40.2474L35.4658 40.0469L35.3562 39.9036L35.1918 39.7031L35.0822 39.5599L34.9315 39.3737L34.8082 39.2161L34.6575 39.0299L34.5342 38.8724L34.3836 38.6862L34.2192 38.4857L34.0822 38.2995L34 38.1276V37.9701L34.0685 37.7982L34.1918 37.6693L34.3288 37.5977L34.411 37.5833H36.3014L36.8082 37.569L37.1507 37.4974L37.3836 37.3971L37.589 37.2826L37.7534 37.1536L37.9178 36.9961L38.0548 36.8099L38.1644 36.6237L38.2603 36.4089L38.3151 36.237L38.3699 35.9219L38.3836 35.75H34.3973L34.274 35.7214L34.1781 35.6641L34.0685 35.5352L34 35.3776V35.2487L34.0411 35.1055L34.1233 34.9766L34.274 34.862L34.3973 34.8333H37.4384L38.1233 34.819V34.7904L38.0137 34.6328L37.863 34.4609L37.7123 34.3177L37.4795 34.1602L37.2466 34.0456L37.0274 33.974L36.7671 33.931L34.3973 33.9167L34.2603 33.888L34.1507 33.8021L34.0685 33.7018L34.0137 33.6016L34 33.5443V33.4154L34.0548 33.2435L34.1507 33.1289L34.2603 33.043L34.3288 33.0143L34.4384 33Z" fill="white"/>
</g>
<defs>
<clipPath id="clip0_1_1117">
<rect width="50" height="50" fill="white"/>
</clipPath>
</defs>
</svg>
