<svg width="80" height="80" viewBox="0 0 80 80" fill="none" xmlns="http://www.w3.org/2000/svg">
<g clip-path="url(#clip0_1_327)">
<path d="M22.1154 13.3714C22.6581 14.9421 24.1208 15.9981 25.7556 15.9981H35.6639C37.2986 15.9981 38.7613 14.9421 39.304 13.3714C39.8214 11.87 41.4467 8.51121 42.7081 7.4445C43.8135 6.50714 44.3322 5.05509 44.0602 3.65504C43.7935 2.27766 42.8321 1.18963 41.4894 0.745613C37.488 -0.581098 33.9385 -0.134416 31.2251 2.03499C30.7384 2.42434 30.085 2.42434 29.5984 2.03499C26.8849 -0.133083 23.3381 -0.579764 19.334 0.746946C17.9913 1.19096 17.0286 2.27766 16.7619 3.65638C16.4899 5.05642 17.0086 6.50847 18.114 7.44584C19.542 8.65388 21.7288 12.2513 22.1154 13.3714ZM19.3807 4.16439C19.4287 3.91505 19.5967 3.4697 20.1727 3.27903C21.4128 2.86835 22.5688 2.66434 23.6382 2.66434C25.2835 2.66434 26.7209 3.14969 27.933 4.11906C29.393 5.28843 31.4331 5.28576 32.8905 4.11906C34.8919 2.51901 37.5013 2.23633 40.6507 3.27903C41.2267 3.4697 41.3934 3.91639 41.4414 4.16439C41.5308 4.62708 41.3601 5.09242 40.9841 5.4111C38.9467 7.13649 37.1253 11.5126 36.7839 12.5033C36.6133 12.9994 36.1626 13.3327 35.6652 13.3327H25.7569C25.2582 13.3327 24.8089 12.9994 24.6382 12.5033C24.0822 10.8926 21.6088 6.91115 19.8394 5.4111C19.462 5.09109 19.29 4.62574 19.3807 4.16439Z" fill="black"/>
<path d="M42.0441 18.6647C42.0441 17.9287 41.4468 17.3313 40.7107 17.3313C40.4627 17.3313 40.2427 17.418 40.0441 17.5353C39.8454 17.4166 39.6254 17.3313 39.3774 17.3313H23.3768C22.6408 17.3313 22.0435 17.9287 22.0435 18.6647C22.0435 19.4007 22.6408 19.9981 23.3768 19.9981H39.3774V21.3314H24.7102C23.9742 21.3314 23.3768 21.9288 23.3768 22.6648C23.3768 23.4008 23.9742 23.9982 24.7102 23.9982H40.6107C41.8054 24.9929 43.2775 25.5622 44.8496 25.5622C46.6296 25.5622 48.3043 24.8675 49.5644 23.6075C50.0857 23.0862 50.0857 22.2435 49.5644 21.7221C49.043 21.2008 48.2003 21.2008 47.679 21.7221C46.1723 23.2288 43.5615 23.2328 42.0441 21.7408V18.6647Z" fill="black"/>
<path d="M28.7103 34.6652C20.162 34.6652 10.043 45.5069 10.043 54.6658C10.043 55.4019 10.6403 55.9992 11.3763 55.9992C12.1124 55.9992 12.7097 55.4019 12.7097 54.6658C12.7097 47.0522 21.682 37.3319 28.7103 37.3319C29.4463 37.3319 30.0436 36.7346 30.0436 35.9985C30.0436 35.2625 29.4463 34.6652 28.7103 34.6652Z" fill="black"/>
<path d="M66.045 42.6655C64.6702 42.6655 63.0329 42.7455 61.3821 42.9335C59.5861 39.6454 57.218 36.8173 54.2286 34.5279L44.6256 28.001C43.0375 26.7823 40.5348 25.3315 37.6307 25.3315H27.261C24.6956 25.3315 22.1728 26.2049 20.1941 27.761L10.7564 34.6372C0.920116 42.3708 -2.19332 55.9232 3.35486 66.8623C5.3736 70.8424 8.74571 75.6519 13.3565 75.9639C13.7179 75.9879 14.0832 76.0012 14.4512 76.0012H40.3974C42.3548 78.436 45.3509 80.0014 48.711 80.0014C52.5752 80.0014 55.9566 77.928 57.8287 74.8425C60.2114 75.5826 63.1329 76.0012 66.045 76.0012C72.4572 76.0012 79.3787 73.9625 79.3787 70.6677V63.3341H79.2734C79.3374 63.1181 79.3787 62.8968 79.3787 62.6675V54.6672V47.3336C79.3787 43.6482 70.9971 42.6655 66.045 42.6655ZM76.6106 47.3203C76.5826 47.3483 76.56 47.3763 76.5213 47.4069C76.4693 47.4483 76.4066 47.4923 76.336 47.5376C76.248 47.5936 76.1413 47.6523 76.0253 47.711C75.9306 47.759 75.8319 47.8083 75.7186 47.8576C75.5786 47.9203 75.4133 47.983 75.2439 48.047C75.1079 48.0976 74.9706 48.1483 74.8159 48.2003C74.6212 48.2643 74.3972 48.3283 74.1719 48.391C73.9959 48.4403 73.8225 48.491 73.6279 48.539C73.3745 48.6017 73.0892 48.659 72.8052 48.7163C72.5905 48.7603 72.3865 48.8057 72.1545 48.847C71.8345 48.903 71.4771 48.951 71.1238 48.999C70.8824 49.0323 70.6571 49.0697 70.3998 49.099C69.9798 49.147 69.5171 49.1803 69.0557 49.2137C68.821 49.231 68.6077 49.255 68.3624 49.2697C67.6343 49.3097 66.8636 49.3337 66.0409 49.3337C65.2183 49.3337 64.4476 49.3097 63.7195 49.2697C63.4742 49.2563 63.2609 49.2323 63.0262 49.2137C62.5648 49.179 62.1021 49.1457 61.6821 49.099C61.4248 49.0697 61.1995 49.0323 60.9581 48.999C60.6048 48.951 60.2474 48.903 59.9274 48.847C59.6954 48.8057 59.4914 48.7603 59.2767 48.7163C58.9927 48.6577 58.7074 48.6003 58.454 48.539C58.2594 48.491 58.0874 48.4416 57.91 48.391C57.6847 48.3283 57.462 48.2643 57.266 48.2003C57.1113 48.1496 56.974 48.0976 56.838 48.047C56.6686 47.983 56.5033 47.9203 56.3633 47.8576C56.25 47.8083 56.1513 47.759 56.0566 47.711C55.9406 47.651 55.8339 47.5923 55.7459 47.5376C55.6753 47.4923 55.6126 47.4496 55.5606 47.4069C55.5246 47.3789 55.5046 47.3536 55.4779 47.3269C55.4939 47.3136 55.5046 47.3003 55.5233 47.2856C55.5726 47.2443 55.6433 47.1976 55.7126 47.1523C55.8206 47.0816 55.9553 47.0069 56.114 46.9269C56.2006 46.8829 56.286 46.8403 56.3873 46.7963C56.4926 46.7496 56.614 46.7029 56.7353 46.6549C56.8793 46.5989 57.0367 46.5429 57.2033 46.4869C57.3233 46.4469 57.4393 46.4056 57.5727 46.3656C57.8713 46.2749 58.198 46.1856 58.5567 46.0989C58.722 46.0589 58.914 46.0229 59.0941 45.9856C59.3114 45.9389 59.5341 45.8936 59.7701 45.8509C60.0301 45.8042 60.3061 45.7602 60.5914 45.7176C62.0942 45.4909 63.8929 45.3335 66.0383 45.3335C72.3398 45.3322 75.8639 46.6323 76.6106 47.3203ZM56.278 58.29C56.398 58.3406 56.522 58.3886 56.6473 58.438C56.8793 58.5286 57.1167 58.614 57.362 58.698C57.4913 58.742 57.618 58.7847 57.75 58.826C58.0314 58.914 58.3207 58.9953 58.6167 59.074C58.7207 59.102 58.8207 59.1327 58.926 59.158C59.3301 59.2593 59.7434 59.3527 60.1674 59.4353C60.2554 59.4527 60.3474 59.466 60.4368 59.4833C60.7768 59.5473 61.1208 59.606 61.4701 59.658C61.6195 59.6807 61.7701 59.6994 61.9208 59.7194C62.2208 59.7594 62.5222 59.7954 62.8275 59.8274C62.9875 59.8434 63.1475 59.8594 63.3075 59.874C63.6222 59.902 63.9382 59.9234 64.2556 59.942C64.3969 59.95 64.5382 59.9607 64.6796 59.9674C65.1356 59.9874 65.5903 60.0007 66.0436 60.0007C66.497 60.0007 66.9517 59.9874 67.4077 59.9674C67.5517 59.9607 67.6957 59.95 67.8397 59.942C68.153 59.9234 68.4664 59.902 68.7784 59.8754C68.9424 59.8607 69.1064 59.8447 69.2691 59.8274C69.5691 59.7967 69.8664 59.7607 70.1624 59.7207C70.3171 59.7007 70.4718 59.6807 70.6251 59.658C70.9691 59.6074 71.3078 59.5487 71.6425 59.486C71.7371 59.4687 71.8331 59.454 71.9278 59.4353C72.3492 59.3513 72.7612 59.2593 73.1625 59.1593C73.2745 59.1313 73.3812 59.0993 73.4919 59.07C73.7812 58.9927 74.0652 58.9127 74.3399 58.826C74.4746 58.7833 74.6039 58.7393 74.7346 58.6953C74.9786 58.6127 75.2159 58.526 75.4466 58.4366C75.5706 58.3886 75.6946 58.3393 75.8146 58.2886C76.0546 58.1873 76.2826 58.0806 76.5026 57.9713C76.572 57.9366 76.6506 57.9073 76.7173 57.8726L76.7253 62.5714C76.412 63.3301 72.9665 65.0209 67.5303 65.2915C67.0423 65.3089 66.5703 65.3329 66.0436 65.3329C63.1062 65.3329 60.2048 64.8822 57.9887 64.0902C57.9807 64.0768 57.9714 64.0635 57.9633 64.0502C57.806 63.7755 57.6393 63.5075 57.4593 63.2488C57.4327 63.2101 57.402 63.1741 57.374 63.1355C57.2073 62.9021 57.0353 62.6741 56.85 62.4554C56.794 62.3901 56.734 62.3301 56.6766 62.2648C56.5126 62.0794 56.3473 61.8968 56.1713 61.7234C56.0806 61.6341 55.9833 61.5541 55.8899 61.4674C55.7353 61.3261 55.5833 61.1847 55.4219 61.0527C55.4059 61.0394 55.3926 61.0247 55.3766 61.0127C55.3766 60.4914 55.3779 59.3327 55.3793 57.8753C55.4473 57.9113 55.5286 57.942 55.5979 57.9766C55.8179 58.0846 56.042 58.19 56.278 58.29ZM38.6627 73.3331H14.4512C14.1432 73.3331 13.8365 73.3225 13.5339 73.3025C10.9138 73.1251 8.14302 70.409 5.73228 65.6556C0.757443 55.8472 3.5642 43.6828 12.3645 36.7626L21.8021 29.8864C23.3515 28.669 25.2903 27.9983 27.2597 27.9983H37.6293C39.7854 27.9983 41.7401 29.1503 43.0642 30.1624L52.6672 36.6879C55.0526 38.5173 57.0407 40.7547 58.594 43.3561C56.906 43.7042 55.2739 44.2348 54.1526 45.0135C54.1219 45.0349 54.0912 45.0562 54.0606 45.0775C53.8912 45.2002 53.7365 45.3295 53.5952 45.4655C53.5352 45.5229 53.4819 45.5816 53.4272 45.6416C53.3219 45.7576 53.2205 45.8749 53.1379 46.0002C53.0685 46.1029 53.0179 46.2136 52.9645 46.3229C52.9178 46.4216 52.8618 46.5163 52.8285 46.6203C52.7552 46.8456 52.7098 47.0816 52.7098 47.3323V54.6659V59.4513C52.2605 59.2687 51.7951 59.122 51.3178 59.002C51.2551 58.986 51.1925 58.9687 51.1298 58.954C50.6631 58.8447 50.1871 58.762 49.7004 58.7167C49.6457 58.7113 49.5911 58.7127 49.5364 58.7087C49.2631 58.6873 48.9884 58.6673 48.7097 58.6673C48.563 58.6673 48.4217 58.6833 48.2764 58.6887C48.163 58.6927 48.0497 58.698 47.9363 58.706C47.4617 58.7407 46.9923 58.7953 46.5363 58.89C46.527 58.8913 46.519 58.8913 46.5096 58.894C46.4736 58.902 46.4403 58.9167 46.4043 58.9247C45.9869 59.0167 45.5803 59.138 45.1829 59.2793C45.0389 59.33 44.8949 59.3807 44.7536 59.4367C44.3576 59.5954 43.9709 59.7714 43.5989 59.9754C43.4589 60.0514 43.3282 60.1394 43.1922 60.222C42.9322 60.3807 42.6788 60.5474 42.4348 60.7274C42.2908 60.8327 42.1455 60.9354 42.0068 61.0474C41.6935 61.3007 41.3948 61.5714 41.1121 61.8594C40.9881 61.9848 40.8748 62.1181 40.7574 62.2501C40.5574 62.4741 40.3668 62.7075 40.1868 62.9475C40.0894 63.0781 39.9868 63.2021 39.8947 63.3368C39.6601 63.6795 39.4507 64.0395 39.2574 64.4088C39.1827 64.5528 39.1147 64.6995 39.0454 64.8475C38.8934 65.1742 38.7574 65.5075 38.6387 65.8516C38.604 65.9516 38.5614 66.0462 38.5307 66.1476C38.3934 66.5849 38.2934 67.0383 38.2134 67.4969C38.2027 67.5556 38.1814 67.6116 38.172 67.6703C38.1614 67.7423 38.1614 67.8196 38.152 67.8916C38.1094 68.205 38.0827 68.5223 38.068 68.8437C38.0627 68.9583 38.052 69.0717 38.0507 69.1877C38.0507 69.237 38.0427 69.285 38.0427 69.3343C38.0427 69.5463 38.0627 69.753 38.0747 69.961C38.1267 71.1131 38.3147 72.2704 38.6627 73.3331ZM48.711 77.3333C44.3309 77.3333 40.7668 73.7945 40.7161 69.4277C40.7161 69.3237 40.7188 69.221 40.7228 69.117C40.7268 68.9703 40.7334 68.825 40.7454 68.6797C40.7548 68.557 40.7694 68.4356 40.7841 68.3143C40.8001 68.1903 40.8188 68.0676 40.8401 67.9463C40.9001 67.5996 40.9775 67.2569 41.0828 66.9249C41.0935 66.8889 41.1095 66.8556 41.1215 66.8209C41.2335 66.4862 41.3681 66.1596 41.5241 65.8436C41.5388 65.8129 41.5535 65.7822 41.5681 65.7529C42.2868 64.3422 43.4215 63.1501 44.7962 62.3648C44.8016 62.3621 44.8056 62.3581 44.8109 62.3554C45.1229 62.1781 45.4509 62.0288 45.7843 61.8954C45.8709 61.8608 45.959 61.8301 46.0456 61.7994C46.3416 61.6941 46.643 61.6021 46.9537 61.5341C46.9963 61.5247 47.0363 61.5101 47.079 61.5021C47.4643 61.4234 47.851 61.3807 48.2364 61.3581C48.3097 61.3541 48.383 61.3487 48.4577 61.3474C48.851 61.3354 49.2431 61.3461 49.6297 61.3914C49.6524 61.3941 49.6737 61.3981 49.6951 61.4021C50.1031 61.4527 50.5071 61.5341 50.9044 61.6488C50.9098 61.6501 50.9164 61.6514 50.9218 61.6528C51.3311 61.7714 51.7325 61.9248 52.1245 62.1101C52.4845 62.2808 52.8352 62.4714 53.1632 62.6915L53.2165 62.7288C53.2632 62.7608 53.3059 62.7968 53.3512 62.8288C53.5725 62.9875 53.7845 63.1555 53.9886 63.3355C54.0379 63.3781 54.0859 63.4235 54.1339 63.4675C54.3379 63.6568 54.5326 63.8542 54.7152 64.0622C54.7339 64.0835 54.7526 64.1022 54.7712 64.1235C55.1953 64.6169 55.5606 65.1622 55.8539 65.7476C55.9219 65.8809 55.9899 66.0156 56.0499 66.1529C56.1513 66.3862 56.2393 66.6223 56.318 66.8609C56.3233 66.8783 56.3313 66.8956 56.3366 66.9129C56.414 67.1543 56.4766 67.3996 56.53 67.6463C56.534 67.6663 56.5406 67.685 56.5446 67.7036C56.5953 67.949 56.6326 68.197 56.6606 68.4463C56.6633 68.469 56.6686 68.489 56.6713 68.5117C56.6993 68.7837 56.714 69.057 56.714 69.333C56.714 69.6157 56.698 69.897 56.6686 70.177C56.6646 70.2184 56.6553 70.257 56.65 70.2984C56.6206 70.5397 56.5846 70.7797 56.5326 71.0157C56.5273 71.0424 56.518 71.0677 56.5126 71.0944C56.4553 71.3477 56.3873 71.5984 56.3046 71.8464C56.3006 71.8571 56.2966 71.8678 56.2926 71.8784C56.2046 72.1371 56.1033 72.3918 55.9886 72.6438C54.7232 75.4052 51.9405 77.3333 48.711 77.3333ZM66.045 73.3331C63.5142 73.3331 60.9955 72.9958 58.926 72.3918C58.9274 72.3891 58.9274 72.3864 58.9274 72.3838C59.0567 71.9518 59.1514 71.5064 59.2261 71.0531C59.2434 70.9451 59.2607 70.8384 59.2754 70.729C59.3354 70.2704 59.3781 69.8077 59.3781 69.333C59.3781 68.9877 59.3594 68.645 59.3261 68.305C59.3141 68.1823 59.2927 68.0636 59.2767 67.9423C59.2541 67.7703 59.2381 67.597 59.2074 67.4276C61.2301 67.801 63.5795 67.9996 66.045 67.9996C69.2317 67.9996 73.8385 67.5929 76.7173 66.3209L76.7253 70.5717C76.384 71.3971 72.3372 73.3331 66.045 73.3331ZM66.045 57.3326C59.7741 57.3326 55.7366 55.4112 55.3846 54.6739C55.3859 53.1538 55.3873 51.6111 55.3873 50.3257C55.4206 50.3404 55.4606 50.3524 55.4953 50.367C55.8139 50.503 56.1473 50.6311 56.502 50.7484C56.5206 50.7551 56.5393 50.7617 56.5593 50.7671C56.922 50.8844 57.3047 50.9897 57.6953 51.0871C57.8233 51.1191 57.9553 51.1484 58.086 51.1777C58.3714 51.2431 58.6594 51.3057 58.954 51.3617C59.0967 51.3897 59.2381 51.4164 59.3821 51.4417C59.7061 51.4991 60.0314 51.5497 60.3608 51.5977C60.4648 51.6124 60.5674 51.6298 60.6714 51.6444C61.1021 51.7018 61.5328 51.7524 61.9608 51.7938C62.0688 51.8044 62.1742 51.8124 62.2822 51.8218C62.6115 51.8511 62.9368 51.8778 63.2595 51.8991C63.3995 51.9084 63.5355 51.9164 63.6729 51.9244C63.9715 51.9418 64.2622 51.9551 64.5502 51.9658C64.6716 51.9698 64.7929 51.9751 64.9116 51.9791C65.3023 51.9898 65.6836 51.9964 66.0436 51.9964C66.4023 51.9964 66.7836 51.9898 67.1743 51.9791C67.2957 51.9751 67.4183 51.9698 67.541 51.9658C67.8263 51.9551 68.1157 51.9418 68.413 51.9244C68.553 51.9164 68.6904 51.9084 68.8317 51.8991C69.1544 51.8778 69.4811 51.8511 69.8104 51.8204C69.9171 51.8111 70.0211 51.8031 70.1278 51.7924C70.5571 51.7498 70.9878 51.7004 71.4185 51.6418C71.5238 51.6271 71.6278 51.6098 71.7331 51.5951C72.0611 51.5484 72.3865 51.4964 72.7092 51.4391C72.8545 51.4137 72.9958 51.3857 73.1385 51.3591C73.4332 51.3017 73.7225 51.2404 74.0092 51.1737C74.1399 51.1431 74.2706 51.1151 74.3986 51.0831C74.7972 50.9831 75.1866 50.8764 75.5559 50.7564C75.5746 50.7497 75.5906 50.7431 75.6093 50.7377C75.9573 50.6231 76.2866 50.4964 76.6 50.363C76.6373 50.347 76.6813 50.3337 76.7186 50.3177L76.7266 54.5685C76.384 55.3965 72.3372 57.3326 66.045 57.3326Z" fill="black"/>
</g>
<defs>
<clipPath id="clip0_1_327">
<rect width="80" height="80" fill="white"/>
</clipPath>
</defs>
</svg>
