<svg width="100" height="100" viewBox="0 0 100 100" fill="none" xmlns="http://www.w3.org/2000/svg">
<path d="M48.9375 12.9375H50.75L52.1875 13.25L53.6875 13.75L55.375 14.5L58.0625 15.8125L59.5 16.5L61.625 17.5L63.875 18.5625L65 19.0625L66.5625 19.8125L68.3125 20.625L70.4375 21.625L72.1875 22.4375L74.3125 23.4375L76.0625 24.25L78.1875 25.25L79.75 25.9375L80.75 26.4375L82.375 27.1875L84.125 28L85.8125 28.8125L87.5625 29.625L89.125 30.375L90.1875 30.875L91.0625 31.4375L91.625 31.875L92.125 32.375L92.5 33L92.75 33.75L92.8125 34.5625L92.625 35.3125L92.1875 36.125L91.625 36.8125L91.0625 37.3125L90.5 37.5625L90 37.6875L88.6875 37.8125L85.375 37.9375V41.625L85.3125 72.625L85.375 72.8125L87.8125 72.9375L88.875 73.125L89.625 73.4375L90.1875 73.875L90.75 74.5L91.3125 75.4375L92 76.875L92.75 78.625L93.625 80.875L93.875 81.8125L93.9375 82.375V83.125L93.8125 83.8125L93.3125 84.8125L92.6875 85.625L92.25 86.0625L91.5625 86.5L90.875 86.6875L89.3125 86.8125L87.625 86.875H11.3125L9.75 86.8125L8.75 86.6875L8.125 86.4375L7.625 86.0625L7.0625 85.4375L6.5 84.5625L6.125 83.75L6 83.25V82.4375L6.1875 81.375L6.5 80.25L7.4375 77.875L8.1875 76.1875L8.75 75.125L9.25 74.5L9.8125 73.875L10.5 73.375L11.1875 73.1875L13 73L13.875 72.9375L14.125 72.8125V37.875L13.75 37.9375H11.375L9.5 37.8125L8.875 37.6875L8.5 37.4375L7.8125 36.75L7.125 35.625L6.9375 34.75V33.6875L7.0625 33.125L7.375 32.5L7.8125 31.9375L8.625 31.375L9.75 30.75L11.25 30.0625L12.25 29.5625L13.8125 28.8125L15.1875 28.1875L16.1875 27.6875L20.4375 25.6875L21.9375 25L25.4375 23.375L27.5625 22.375L31.3125 20.625L33.0625 19.8125L35.4375 18.6875L37.0625 17.9375L40.375 16.375L41.8125 15.6875L43.4375 14.9375L44.6875 14.375L46.25 13.6875L47.75 13.1875L48.9375 12.9375ZM49.875 16.3125L48.4375 16.6875L46.875 17.3125L44.9375 18.1875L44.0625 18.625L42.8125 19.1875L41.625 19.75L39.875 20.5625L38.1875 21.375L36.9375 21.9375L35.375 22.6875L33.3125 23.625L31.625 24.4375L30.125 25.125L25.75 27.1875L22.25 28.8125L20.75 29.5L19.75 30L17.875 30.875L16.375 31.5625L14.1875 32.625L12.9375 33.1875L11.875 33.6875L11.25 33.9375L10.9375 34.25L21.9375 34.3125H29.875L53.375 34.25H72.0625L74.875 34.3125L75.5 34.4375L75.875 34.625L76.125 34.9375L76.3125 35.5V36.625L76.125 37.0625L75.625 37.4375L74.8125 37.75L74.6875 37.9375L74.625 52.875V72.8125L74.6875 72.875H80.5L81.5 72.8125L81.625 72.75L81.6875 42.25L81.75 37.6875L81.8125 35.875L81.9375 35.0625L82.125 34.75L82.75 34.5L83.5 34.375L85.5 34.25L88.75 34.1875L88.6875 34L87.125 33.3125L85.25 32.5L83.0625 31.4375L81.4375 30.6875L79.5625 29.8125L77.4375 28.8125L75.1875 27.75L73.375 26.875L71.625 26.0625L69.375 25L67.75 24.25L65.1875 23.0625L62.9375 22L59.6875 20.5L58.6875 20L56.4375 18.9375L52.8125 17.3125L51.8125 16.875L50.125 16.3125H49.875ZM18.1875 37.8125L17.75 37.9375L17.6875 49.125V72.875L17.75 72.9375H24.5625L24.75 72.75L24.8125 50.125L24.875 37.8125H18.1875ZM29.3125 37.8125L28.5625 37.875L28.5 37.9375L28.4375 39.9375V72.875L28.5 72.9375H35.25L35.375 72.875L35.4375 72.6875L35.5 59.5L35.5625 37.875L35.5 37.8125H29.3125ZM39.5625 37.8125L39.125 37.9375L39.0625 42.4375L39 69.375V72.8125L39.0625 72.875L42.375 72.9375L42.5625 72.875L42.625 43.25L42.6875 37.8125H39.5625ZM50.25 37.75L46.75 37.8125L46.3125 37.875L46.25 37.9375L46.1875 40.6875V72.875L46.25 72.9375L50.875 73H52.3125L53.25 72.9375V39.4375L53.1875 37.75H50.25ZM57.1875 37.8125L56.9375 37.9375L56.875 38.125L56.8125 50.125L56.75 72.4375L56.8125 72.875L57.5625 72.9375H60.375L60.4375 42V38.3125L60.375 37.875L60.3125 37.8125H57.1875ZM65.25 37.8125L64.0625 37.875L64 41.875L63.9375 67.9375V72.9375L65.6875 73H70.625L71.0625 72.9375V38.375L71 37.8125H65.25ZM58.8125 76.4375L17.625 76.5L12.1875 76.5625L11.9375 76.6875L11.25 78.25L10.5625 79.875L10.0625 81.1875L9.5 82.6875L9.4375 83.0625L9.5625 83.3125L9.9375 83.4375L10.625 83.5L12.25 83.5625H86.5625L89.4375 83.5L90.1875 83.375L90.3125 83.1875V82.75L90 81.5625L89.625 80.3125L88.8125 78.1875L88.25 76.9375L87.9375 76.625L87.75 76.5625L86.875 76.5L58.8125 76.4375Z" fill="#1A1A1A"/>
</svg>
