<svg width="100" height="100" viewBox="0 0 100 100" fill="none" xmlns="http://www.w3.org/2000/svg">
<path d="M50.6348 2.63672L51.416 2.73438L52.002 2.92969L53.2227 3.56445L54.2969 4.15039L55.5664 4.83398L56.6406 5.41992L57.9102 6.10352L58.9844 6.68945L59.5215 7.12891L59.8145 7.71484L59.8633 8.10547L59.7168 8.69141L59.375 9.17969L58.8867 9.47266L58.7402 9.52148H58.0078L57.373 9.27734L56.25 8.64258L55.127 8.05664L54.0527 7.4707L52.7832 6.78711L51.709 6.20117L50.9277 5.76172L50.5859 5.71289L49.5117 6.29883L47.8027 7.17773L46.8262 7.71484L46.0449 8.10547L44.8242 8.74023L43.8477 9.27734L43.0664 9.66797L41.8457 10.3027L40.918 10.791L39.9414 11.3281L39.1602 11.7188L37.8418 12.4023L36.8652 12.9395L36.084 13.3301L34.9609 13.916L33.9844 14.4531L33.2031 14.8438L31.9824 15.4785L29.3945 16.8457L28.0762 17.5293L27.002 18.1152L26.1719 18.5547L25.3906 18.9453L24.1699 19.5801L23.2422 20.0684L21.1914 21.1426L20.2148 21.6797L19.4336 22.0703L18.1152 22.7539L15.5273 24.1211L14.3066 24.7559L13.3789 25.2441L11.3281 26.3184L9.27734 27.3926L7.22656 28.4668L5.56641 29.3457L4.24805 30.0293L3.17383 30.6152L3.125 30.6641V32.0801L96.875 32.1289V30.6641L96.4844 30.4199L95.2148 29.7363L94.1406 29.1504L91.6016 27.7832L86.8164 25.1953L85.7422 24.6094L84.375 23.877L83.3008 23.291L82.0312 22.6074L79.5898 21.2891L78.5156 20.7031L77.1484 19.9707L76.0254 19.3359L74.707 18.6523L73.584 18.0176L72.3633 17.3828L71.2891 16.7969L70.0195 16.1133L68.9453 15.5273L67.6758 14.8438L65.2344 13.5254L64.1602 12.9395L63.5254 12.5488L63.1836 12.207L62.9395 11.7188L62.8906 11.2305L63.0371 10.7422L63.3301 10.3027L63.7207 10.0098L64.1602 9.86328H64.6484L65.2832 10.1074L66.4062 10.6934L67.5293 11.3281L68.75 11.9629L69.8242 12.5488L71.0938 13.2324L72.168 13.8184L73.5352 14.5508L74.707 15.1855L75.7812 15.7715L78.3203 17.1387L79.3945 17.7246L81.9336 19.0918L83.0078 19.6777L85.5469 21.0449L86.6211 21.6309L87.8906 22.3145L88.9648 22.9004L90.332 23.6328L91.5039 24.2676L92.5781 24.8535L93.8477 25.5371L94.9219 26.123L97.4609 27.4902L98.5352 28.0762L99.0723 28.4668L99.3164 28.7109L99.6094 29.0527L99.8535 29.6875L99.9512 29.9805H100V32.959H99.9023L99.7559 33.5938L99.5605 33.9844L99.2188 34.4238L98.877 34.7168L98.3887 34.9609L97.6562 35.1074H95.5078V38.0859L95.4102 38.8184L95.2637 39.209L95.0684 39.5996L94.6289 40.1367L94.0918 40.5273L93.5547 40.7715L93.0664 40.8691L92.5781 40.918H88.6719L88.623 44.4824L88.4277 45.166L88.1348 45.7031L87.5977 46.2891L87.0117 46.6309L86.4746 46.8262L85.9863 46.875V68.9941L85.9375 76.709L86.5723 76.8066L87.1582 77.0508L87.7441 77.4902L88.1348 77.9297L88.4277 78.4668L88.623 79.1016V82.7148H92.9199L93.6035 82.8125L94.0918 82.959L94.6777 83.252L95.2148 83.6914L95.5566 84.0332L95.8984 84.5215L96.1914 85.2051L96.2891 85.6445L96.3379 86.1816V88.5254L97.0703 88.5742L97.8027 88.7695L98.4375 89.1113L98.9746 89.5508L99.4141 90.0879L99.8047 90.8203L100 91.2598V95.8008L99.8535 95.9473L99.6094 96.3867L99.2188 96.8262L98.7305 97.1191L97.9492 97.3145H1.95312L1.31836 97.168L0.732422 96.7773L0.341797 96.3379L0.0976562 95.8984V95.8008L0 95.752V91.3086L0.195312 90.8203L0.537109 90.1367L0.927734 89.6484L1.26953 89.3066L1.95312 88.8672L2.49023 88.6719L2.92969 88.5742L3.61328 88.4766L3.66211 85.8887L3.80859 85.2051L4.05273 84.6191L4.49219 83.9844L4.78516 83.6426L5.46875 83.1543L6.00586 82.9102L6.54297 82.7637L7.03125 82.7148H11.3281V79.541L11.4258 78.8574L11.6211 78.3203L11.9629 77.7832L12.4512 77.2949L13.1348 76.9043L13.916 76.709H14.0137V73.1934L14.1602 72.6074L14.4531 72.168L14.8438 71.875L15.332 71.7285H15.6738L16.1621 71.875L16.4551 72.0703L16.7969 72.4609L16.9434 72.7539L16.9922 72.998V76.709H21.6309V46.9238H17.041L16.9922 66.5527L16.8457 66.9922L16.5527 67.3828L16.3086 67.5781L16.0156 67.7246L15.8203 67.7734H15.1855L14.6973 67.5781L14.3066 67.1875L14.1113 66.7969L14.0137 66.3086V46.875L13.4766 46.8262L12.8906 46.582L12.3535 46.2402L12.0117 45.8984L11.6211 45.3125L11.4258 44.7754L11.3281 43.9453V40.918H7.27539L6.5918 40.8203L5.95703 40.5762L5.37109 40.1367L4.93164 39.5996L4.63867 39.0137L4.49219 38.3789L4.44336 35.1562L2.24609 35.1074L1.46484 34.9121L0.927734 34.5703L0.488281 34.082L0.195312 33.4961L0.0976562 33.0078L0 32.8613V30.2246L0.244141 29.3457L0.585938 28.7598L1.07422 28.3203L2.09961 27.7344L3.90625 26.8066L4.98047 26.2207L6.78711 25.293L9.375 23.9258L10.6934 23.2422L11.6211 22.7539L12.9883 22.0215L14.5996 21.1914L15.5273 20.7031L17.5781 19.6289L19.6289 18.5547L21.2891 17.6758L22.7051 16.9434L24.0723 16.2109L25.5859 15.4297L26.5137 14.9414L27.6367 14.3555L29.0039 13.623L30.6152 12.793L31.543 12.3047L33.5938 11.2305L34.7168 10.6445L35.6934 10.1074L36.4746 9.7168L38.5254 8.64258L39.6484 8.05664L40.7227 7.4707L42.5293 6.54297L43.457 6.05469L45.5078 4.98047L47.5586 3.90625L48.6816 3.32031L49.4141 2.92969L50.1953 2.68555L50.6348 2.63672ZM7.4707 35.1074V37.9395H92.4805L92.5293 37.8418V35.1562L92.4805 35.1074H7.4707ZM14.3555 40.918V43.9453H24.2676L24.3164 43.8965V40.918H14.3555ZM27.3438 40.918L27.2949 41.4062L27.2461 44.4824L27.0996 45.0684L26.7578 45.7031L26.3184 46.1914L25.7812 46.5332L25.1465 46.7773L24.6582 46.875L24.6094 76.6113L24.7559 76.7578L25.5371 76.9531L26.123 77.2949L26.6113 77.7344L27.002 78.3203L27.1973 78.8574L27.2461 79.1016L27.2949 82.7148H31.7871L31.8359 79.3457L31.9336 78.8086L32.1777 78.2227L32.4707 77.7832L32.959 77.2949L33.7402 76.9043L34.4727 76.709V46.9238L34.1309 46.8262L33.3984 46.582L32.8613 46.2402L32.4219 45.8008L32.0312 45.1172L31.8848 44.5801L31.8359 44.1895L31.7871 40.918H27.3438ZM34.7656 40.918V43.9453H44.7266L44.7754 43.8965V40.918H34.7656ZM47.7539 40.918L47.7051 44.2871L47.5586 45.0195L47.2656 45.6055L46.9238 46.0449L46.3867 46.4355L45.9961 46.6309L45.1172 46.875L45.0684 47.1191V76.709L45.9473 76.9531L46.4844 77.2461L47.0215 77.6855L47.4609 78.3691L47.6562 78.9551L47.7051 79.2969L47.7539 82.7148H52.1973L52.2461 81.5918L52.2949 79.1992L52.4414 78.5645L52.7832 77.9297L53.2715 77.3926L53.8086 77.0508L54.2969 76.8555L54.834 76.7578L54.8828 76.709V46.875L54.1992 46.7285L53.5156 46.3867L53.0762 46.0449L52.6367 45.459L52.3438 44.7266L52.2949 44.3848L52.2461 40.918H47.7539ZM55.2246 40.918V43.9453H65.1855L65.2344 43.7988L65.1855 40.918H55.2246ZM68.2129 40.918L68.1641 43.5547L68.1152 44.5801L67.8711 45.3125L67.5781 45.8008L67.1387 46.2402L66.6504 46.5332L66.0156 46.7773L65.5762 46.875L65.5273 46.9238V76.709L66.4062 76.9531L66.9434 77.2461L67.4316 77.6855L67.7734 78.125L68.0176 78.6621L68.1152 79.0527L68.1641 80.2246L68.2129 82.7148H72.6562L72.7051 79.4434L72.8027 78.8574L73.0469 78.2227L73.3887 77.7344L73.5352 77.5879V77.4902L73.7305 77.3926L74.1699 77.0996L74.7559 76.8555L75.3418 76.709V46.875L74.6582 46.7285L74.1699 46.5332L73.6328 46.1426L73.1934 45.6543L72.8516 44.9707L72.7539 44.5801L72.7051 44.043L72.6562 40.918H68.2129ZM75.6836 40.918L75.6348 41.3574V43.7012L75.6836 43.9453H85.5957L85.6445 43.8965V40.918H75.6836ZM37.4512 46.9238V76.709H42.0898V46.9238H37.4512ZM57.9102 46.9238L57.8613 76.709H62.5488V46.9727L62.5 46.9238H57.9102ZM78.3203 46.9238V76.709H82.959V46.9238H78.3203ZM14.3555 79.6875V82.7148H24.3164V79.6875H14.3555ZM34.7656 79.6875V82.7148H44.7754V79.6875H34.7656ZM55.2246 79.6875V82.7148H65.1855V79.6875H55.2246ZM75.6836 79.6875L75.6348 82.7148H85.6445V79.6875H75.6836ZM7.17773 85.6934L6.83594 85.8398L6.64062 86.1816V88.5254H93.3105L93.3594 88.4766V86.4258L93.2617 85.9863L93.0176 85.7422L92.8711 85.6934H7.17773ZM3.56445 91.5039L3.22266 91.6016L3.02734 91.7969L2.97852 91.9434L2.92969 93.5547V94.3359L10.5469 94.3848H96.9238L97.0215 94.3359V91.9922L96.875 91.6992L96.6797 91.5527L96.3867 91.5039H3.56445Z" fill="black"/>
</svg>
