<svg width="80" height="80" viewBox="0 0 80 80" fill="none" xmlns="http://www.w3.org/2000/svg">
<path d="M36.8501 32.563H64.5367C65.3549 32.563 66.0258 31.8921 66.0258 31.0739C66.0258 30.2557 65.3549 29.5848 64.5367 29.5848H36.8501C36.0319 29.5848 35.361 30.2557 35.361 31.0739C35.361 31.8921 36.0319 32.563 36.8501 32.563Z" fill="white"/>
<path d="M36.8501 40.4664H56.9605C57.7787 40.4664 58.4496 39.7955 58.4496 38.9773C58.4496 38.1592 57.7787 37.4883 56.9605 37.4883H36.8501C36.0319 37.4883 35.361 38.1592 35.361 38.9773C35.361 39.8119 36.0319 40.4664 36.8501 40.4664Z" fill="white"/>
<path d="M36.8501 47.7153H64.5367C65.3549 47.7153 66.0258 47.0444 66.0258 46.2262C66.0258 45.4081 65.3549 44.7372 64.5367 44.7372H36.8501C36.0319 44.7372 35.361 45.4081 35.361 46.2262C35.361 47.0608 36.0319 47.7153 36.8501 47.7153Z" fill="white"/>
<path d="M39.4846 53.0006H36.8501C36.0319 53.0006 35.361 53.6715 35.361 54.4897C35.361 55.3078 36.0319 55.9787 36.8501 55.9787H39.4846C40.3027 55.9787 40.9736 55.3078 40.9736 54.4897C40.9736 53.6715 40.3027 53.0006 39.4846 53.0006Z" fill="white"/>
<path d="M39.4846 60.2495H36.8501C36.0319 60.2495 35.361 60.9204 35.361 61.7386C35.361 62.5567 36.0319 63.2276 36.8501 63.2276H39.4846C40.3027 63.2276 40.9736 62.5567 40.9736 61.7386C40.9573 60.904 40.3027 60.2495 39.4846 60.2495Z" fill="white"/>
<path d="M64.5367 53.0006H45.4081C44.5899 53.0006 43.919 53.6715 43.919 54.4897C43.919 55.3078 44.5899 55.9787 45.4081 55.9787H64.5367C65.3549 55.9787 66.0258 55.3078 66.0258 54.4897C66.0258 53.6715 65.3549 53.0006 64.5367 53.0006Z" fill="white"/>
<path d="M58.4332 61.7222C58.4332 60.904 57.7623 60.2332 56.9442 60.2332H45.4081C44.5899 60.2332 43.919 60.904 43.919 61.7222C43.919 62.5404 44.5899 63.2113 45.4081 63.2113H56.9442C57.7623 63.2113 58.4332 62.5404 58.4332 61.7222Z" fill="white"/>
<path d="M55.586 79.5582C56.1587 80.1309 57.1078 80.1309 57.6805 79.5582L62.7204 74.5183L67.7603 79.5582C68.0548 79.8527 68.4312 80 68.8075 80C69.1839 80 69.5602 79.8527 69.8548 79.5582L72.8983 76.5146C73.1765 76.2365 73.3402 75.8601 73.3402 75.4674V24.9213C73.3402 21.1904 70.3129 18.1632 66.5821 18.1632H55.2097V1.48906C55.2097 0.670894 54.5388 0 53.7206 0H8.14891C7.33074 0 6.65985 0.670894 6.65985 1.48906V52.0188C6.65985 55.7496 9.68706 58.7768 13.4179 58.7768H21.9922C22.8104 58.7768 23.4813 58.106 23.4813 57.2878C23.4813 56.4696 22.8104 55.7987 21.9922 55.7987H19.0141C19.7505 54.7188 20.1923 53.4097 20.1923 52.0025V24.9213C20.1923 22.8268 21.8941 21.125 23.9886 21.125C26.083 21.125 27.7848 22.8268 27.7848 24.9213V75.451C27.7848 75.5492 27.8012 75.6474 27.8176 75.7456C27.8339 75.811 27.8503 75.8601 27.8666 75.9255C27.883 75.9583 27.883 75.991 27.8994 76.0237C27.9321 76.0892 27.9648 76.1546 27.9975 76.2037C28.0139 76.2201 28.0139 76.2528 28.0303 76.2692C28.0794 76.351 28.1448 76.4328 28.2103 76.4983L31.2538 79.5418C31.8266 80.1145 32.7756 80.1145 33.3483 79.5418L38.3882 74.5019L43.4281 79.5418C44.0008 80.1145 44.9499 80.1145 45.5226 79.5418L50.5625 74.5019L55.586 79.5582ZM17.2305 24.9213V52.0188C17.2305 54.1133 15.5287 55.8151 13.4342 55.8151C11.3397 55.8151 9.63797 54.1133 9.63797 52.0188V2.96175H52.2479V18.1632H23.9886C20.2577 18.1632 17.2305 21.1904 17.2305 24.9213ZM44.4754 76.4001L39.4355 71.3602C39.1409 71.0657 38.7646 70.9184 38.3882 70.9184C38.0119 70.9184 37.6355 71.0657 37.341 71.3602L32.3011 76.4001L30.7466 74.8456V24.9213C30.7466 24.7085 30.7302 24.4958 30.7139 24.2994C30.7139 24.234 30.6975 24.1849 30.6975 24.1195C30.6811 23.9722 30.6648 23.8249 30.632 23.6776C30.6157 23.6122 30.6157 23.5631 30.5993 23.4976C30.5666 23.3177 30.5175 23.1213 30.452 22.9413C30.452 22.9249 30.452 22.9249 30.4357 22.9086C30.3702 22.7122 30.3048 22.5322 30.223 22.3522C30.2066 22.3031 30.1739 22.254 30.1575 22.1886C30.092 22.0577 30.043 21.9268 29.9611 21.7959C29.9284 21.7468 29.9121 21.6977 29.8793 21.6322C29.7975 21.485 29.6993 21.3213 29.6011 21.1741C29.5848 21.1577 29.5848 21.1413 29.5684 21.125C29.5684 21.125 29.5684 21.125 29.5684 21.1086H66.533C68.6275 21.1086 70.3293 22.8104 70.3293 24.9049V74.8456L68.7748 76.4001L63.7349 71.3602C63.1622 70.7875 62.2131 70.7875 61.6404 71.3602L56.6005 76.4001L51.6097 71.3766C51.037 70.8038 50.088 70.8038 49.5152 71.3766L44.4754 76.4001Z" fill="white"/>
</svg>
