<svg width="72" height="77" viewBox="0 0 72 77" fill="none" xmlns="http://www.w3.org/2000/svg">
<circle cx="24.5" cy="16.5" r="16.5" fill="#FFCCA9"/>
<path d="M0 59.5C0 45.969 10.969 35 24.5 35C38.031 35 49 45.969 49 59.5V65H0V59.5Z" fill="#33E1AE"/>
<circle cx="48.6274" cy="53.6274" r="16" transform="rotate(-45 48.6274 53.6274)" fill="#FF8585"/>
<path d="M56.7591 43.3744C54.6025 41.2177 51.5657 40.1179 48.3168 40.3168C45.0679 40.5157 41.873 41.9971 39.435 44.4351C36.9971 46.873 35.5157 50.0679 35.3168 53.3168C35.1178 56.5657 36.2177 59.6025 38.3744 61.7592L47.5668 52.5668L56.7591 43.3744Z" fill="#FF6666"/>
<path d="M40.4957 63.8805C42.6524 66.0372 45.6892 67.137 48.9381 66.9381C52.187 66.7392 55.3818 65.2578 57.8198 62.8198C60.2578 60.3819 61.7392 57.187 61.9381 53.9381C62.137 50.6892 61.0371 47.6524 58.8805 45.4957L49.6881 54.6881L40.4957 63.8805Z" fill="#FF6666"/>
</svg>
