<svg width="162" height="162" viewBox="0 0 162 162" fill="none" xmlns="http://www.w3.org/2000/svg">
<g clip-path="url(#clip0_1_341)">
<path d="M63.4917 17.1235L105.435 17.2197L107.359 17.5083L108.898 17.9893L110.437 18.6627L111.688 19.3361L112.842 20.2019L114.093 21.2601L114.862 22.0297L116.113 23.6651L116.786 24.8195L117.556 26.6473L118.037 28.4751L118.325 30.5915V31.6497H144.588L146.704 31.8421L148.917 32.3231L150.841 32.9965L152.38 33.7661L153.823 34.6318L155.074 35.5938L156.036 36.4596L157.863 38.2874L158.825 39.538L159.691 40.8848L160.461 42.3278L161.23 44.348L161.808 46.5606H162V129.388L161.808 129.581L161.423 131.216L160.749 133.236L159.691 135.449L158.825 136.796L157.96 137.95L157.094 138.912L156.42 139.682L155.17 140.836L153.823 141.798L152.38 142.664L151.033 143.337L149.494 143.915L147.185 144.492L144.588 144.78H17.5083L14.8147 144.492L12.8907 144.011L10.9667 143.241L9.42755 142.472L7.98456 141.606L6.73397 140.644L5.48337 139.489L4.13658 138.143L2.88599 136.507L2.02019 135.064L1.15439 133.236L0.673397 131.793L0.288599 130.35L0 129.1V47.3302L0.192399 46.753L0.769596 44.4442L1.53919 42.5202L2.50119 40.6924L3.17458 39.6342L4.04038 38.4798L4.90618 37.5178L5.48337 36.8444L6.25297 36.171L7.21496 35.3052L8.46556 34.4394L9.90855 33.5737L11.6401 32.8041L13.3717 32.2269L15.1995 31.8421L17.2197 31.6497H43.4822V30.6877L43.7708 28.5713L44.2518 26.7435L45.0214 24.9157L45.9834 23.3765L46.8492 22.2221L47.5226 21.4525H47.715L47.9074 21.0677L48.677 20.3943L50.0238 19.4323L51.3705 18.6627L52.9097 17.9893L54.1603 17.6045L55.6033 17.3159L56.3729 17.2197L63.4917 17.1235ZM57.3349 25.3005L55.8919 25.5891L54.5451 26.2625L53.3907 27.3207L52.7173 28.3789L52.2363 29.7257L52.1401 30.3991L52.0439 35.5938L51.8515 36.9406L51.1782 38.2874L50.5048 38.9608L49.7352 39.4418L48.7732 39.7304L48.0998 39.8266L17.2197 39.9228L15.8729 40.1152L14.1413 40.6924L12.8907 41.3658L11.8325 42.1354L11.3515 42.5202V42.7126H11.1591V42.905H10.9667L10.101 43.9632L9.33135 45.2138L8.65796 46.753L8.36936 47.8112L8.27316 48.4846L8.17696 50.2162V126.983L8.36936 128.619L8.65796 129.677L9.23516 131.12L10.1972 132.659L11.2553 133.814L12.4097 134.776L13.7565 135.545L15.1995 136.122L16.6425 136.411L17.3159 136.507H144.78L146.416 136.219L147.762 135.738L149.109 135.064L150.36 134.102L151.226 133.333L152.188 132.082L152.765 131.12L153.342 129.677L153.727 127.849L153.919 126.502V49.158L153.631 47.3302L153.15 45.8872L152.284 44.2518L151.514 43.2898L151.033 42.7126L149.686 41.6544L148.628 40.981L146.993 40.3076L145.742 40.019L144.973 39.9228L113.804 39.8266L112.65 39.538L111.784 39.057L111.303 38.6722L111.207 38.4798H111.014L110.822 37.9988L110.437 37.3254L110.148 36.3634L110.052 30.7839L109.86 29.6295L109.475 28.4751L108.898 27.5131L108.128 26.6473L107.07 25.9739L106.204 25.5891L104.857 25.3005H57.3349Z" fill="black"/>
<path d="M78.595 50.3124H83.2126L86.1948 50.601L88.9846 51.082L91.2934 51.6592L94.7566 52.8136L97.1616 53.8718L98.7007 54.6414L100.144 55.411L101.972 56.5653L103.607 57.7197L104.954 58.7779L106.204 59.8361L107.647 61.1829L108.994 62.5297L109.86 63.5879L110.629 64.4537L111.784 65.9929L113.131 68.0131L114.093 69.6485L115.247 71.8611L116.113 73.7851L117.075 76.3824L117.844 79.076L118.422 81.8658L118.806 84.7518L118.903 86.0986V90.3314L118.71 92.6402L118.325 95.2376L117.748 97.8349L117.075 100.144L116.113 102.741L115.247 104.665L114.285 106.589L113.419 108.032L112.553 109.379L111.591 110.726L110.629 111.976L109.475 113.323L108.802 114.093L106.397 116.498L104.28 118.229L102.549 119.48L100.913 120.538L98.8931 121.692L97.354 122.462L95.911 123.135L93.4098 124.097L90.5238 124.963L87.253 125.637L84.367 126.021L83.1164 126.118H78.4988L75.7091 125.829L72.9193 125.348L70.3219 124.675L67.1473 123.616L64.7423 122.558L62.6259 121.5L60.7019 120.346L59.1627 119.287L58.0083 118.422L56.6616 117.363L55.5072 116.305L54.7376 115.632L53.1984 114.093V113.9H53.006L52.3326 113.131L51.2744 111.88L49.9276 110.052L48.9656 108.609L48.0998 107.166L46.8492 104.858L45.6948 102.26L44.829 99.8551L44.0594 97.0653L43.5784 94.7566L43.1936 91.9668L43.0012 88.7922L43.0974 85.4252L43.4822 82.1544L44.0594 79.2684L44.7328 76.8634L45.5986 74.3623L46.753 71.7649L47.715 69.8409L49.0618 67.6283L50.4086 65.7043L51.7554 63.9727L52.6212 63.0107L53.2946 62.2411L55.6034 59.9323L56.6616 59.0665L57.8159 58.1045L59.4513 56.9501L61.3753 55.6996L63.7803 54.3528L65.8005 53.3908L68.4941 52.3326L71.3801 51.4668L73.9775 50.8896L76.4787 50.5048L78.595 50.3124ZM78.8836 58.8741L75.7091 59.2589L73.1117 59.8361L69.9371 60.8943L67.4359 62.0487L65.2233 63.2993L63.2993 64.6461L62.2411 65.5119L60.9905 66.5701L59.2589 68.3017L58.5855 69.0713L57.4311 70.5143L55.6996 73.1117L54.449 75.4205L53.487 77.633L52.9098 79.2684L52.3326 81.1924L51.9478 82.8278L51.563 85.6176L51.4668 87.0606V89.8504L51.6592 92.063L52.044 94.468L52.7174 97.0653L53.3908 99.0855L54.5452 101.683L55.411 103.318L56.6616 105.242L57.5273 106.397L58.2969 107.359L59.1627 108.321L59.8361 109.09L60.6057 109.86L61.3753 110.533L62.9145 111.784L64.5499 112.938L65.9929 113.804L67.7245 114.766L70.0333 115.824L73.2079 116.882L75.8053 117.46L77.8255 117.748L78.7874 117.844L81.0962 117.941L83.2126 117.844L86.1948 117.46L88.696 116.882L91.582 115.92L93.6022 115.055L95.5262 114.093L97.5464 112.842L98.8931 111.88L100.24 110.822L101.491 109.667L101.779 109.475V109.283L102.164 109.09L103.318 107.84V107.647H103.511L104.569 106.3L105.82 104.569L106.782 103.03L107.551 101.491L108.225 100.048L108.994 98.1235L109.667 95.8148L110.148 93.6022L110.437 91.2934L110.533 89.4656V88.0226L110.341 84.9442L109.956 82.5392L109.379 80.1342L108.417 77.2482L107.359 74.9395L106.493 73.3041L105.435 71.6687L104.473 70.3219L103.607 69.2637L102.549 68.1093L101.972 67.4359L101.202 66.7625L100.144 65.8005L98.8931 64.8385L97.2578 63.6841L94.949 62.3373L92.3516 61.0867L89.9466 60.2209L87.9264 59.6437L85.6176 59.1627L82.8278 58.8741H78.8836Z" fill="black"/>
<path d="M135.064 50.12H136.507L137.662 50.3124L139.008 50.7934L140.163 51.4668L141.413 52.525L142.279 53.6794L142.953 55.0262L143.337 56.373L143.434 56.9502V58.4894L143.049 60.2209L142.279 61.7601L141.51 62.8183L140.74 63.5879L139.393 64.4537L138.239 64.9347L136.796 65.3195H134.776L133.236 64.9347L131.697 64.1651L130.735 63.3955L129.869 62.5297L129.004 61.1829L128.426 59.7399L128.234 58.8742L128.138 57.6236L128.33 56.1806L128.811 54.6414L129.485 53.487L130.254 52.525L130.928 51.8516L131.89 51.1782L133.236 50.5048L134.391 50.2162L135.064 50.12Z" fill="black"/>
</g>
<defs>
<clipPath id="clip0_1_341">
<rect width="162" height="162" fill="white"/>
</clipPath>
</defs>
</svg>
