<svg width="100" height="100" viewBox="0 0 100 100" fill="none" xmlns="http://www.w3.org/2000/svg">
<g clip-path="url(#clip0_1_1265)">
<path d="M28.2713 21.7334C53.0862 -0.970123 83.0837 -6.83512 95.0492 8.67764C107.012 24.1853 96.5398 55.3555 71.7202 78.0547C46.9153 100.754 16.9152 106.616 4.94959 91.1088C-7.01342 75.594 3.46136 44.4306 28.2713 21.7334Z" fill="#F58220"/>
<path d="M44.6939 9.62704C42.0236 11.4765 39.1834 13.6386 36.5031 16.1105C14.7546 35.8739 5.72405 63.0487 16.4321 76.6339C27.4679 90.2258 54.2294 85.2841 76.3082 65.216C88.1864 54.5554 96.2173 42.0503 99.5594 30.4732C100.564 21.9819 99.2247 14.4117 95.0417 8.7019C85.5112 -3.34396 65.1026 -2.41883 44.6939 9.62704Z" fill="#B02A30"/>
<path d="M56.992 89.2559C45.3736 97.305 33.3765 101.296 21.6658 99.6244C26.5791 99.8597 30.5509 94.8291 33.8039 88.0676C37.1077 81.1428 39.0889 74.7201 40.6737 68.7098C42.9775 59.1945 43.1573 52.3927 41.9822 50.9361C39.9967 48.5136 35.4811 49.141 30.3711 51.8506C27.922 53.101 24.6712 52.2606 28.5141 47.969C32.4079 43.628 47.8644 33.2006 53.426 31.5715C59.5312 29.9468 66.4886 32.1587 64.1339 38.3303C62.4637 42.8349 41.0791 94.6334 56.992 89.2559ZM74.4901 8.91478C77.379 11.5838 75.6166 17.4286 70.6908 22.0136C65.7218 26.5629 59.2496 28.1899 56.4482 25.5608C53.4673 22.9324 55.2298 17.007 60.2013 12.3747C65.219 7.74731 71.6839 6.32369 74.4901 8.91478Z" fill="white"/>
</g>
<defs>
<clipPath id="clip0_1_1265">
<rect width="100" height="100" fill="white"/>
</clipPath>
</defs>
</svg>
