<svg width="100" height="100" viewBox="0 0 100 100" fill="none" xmlns="http://www.w3.org/2000/svg">
<path d="M47.2298 7.06079H52.7703L55.6082 7.26349L58.446 7.60133L60.8109 8.00674L63.3784 8.54728L65.946 9.22295L68.7163 10.1013L70.8784 10.9121L72.973 11.7905L75.4055 12.9392L76.892 13.75L78.1082 14.4257L79.6622 15.3716L81.0811 16.3175L82.2298 17.1284L83.6487 18.2094L84.7298 19.0878L85.6082 19.8311L86.419 20.5743L86.9595 21.0473L89.1893 23.277L89.6622 23.8175L90.2703 24.4932L90.8784 25.2365L91.6893 26.25L92.6352 27.5338L93.6487 29.0203L94.5271 30.4392L95.3379 31.8581L96.2839 33.6824L97.2298 35.8446L97.9055 37.6689L98.5136 39.5608L99.0541 41.6554L99.5271 44.0878L99.7974 46.1148L99.9325 47.7365V52.2635L99.7298 54.4932L99.392 56.723L98.919 58.9527L98.3784 60.9121L97.6352 63.1419L96.892 64.9662L96.0811 66.723L95.0676 68.6824L94.0541 70.3716L92.8379 72.1959L91.9595 73.4121L91.0811 74.4932L90.5406 75.1689L89.7298 76.1149L88.919 76.9932L87.8379 78.1419L87.3649 78.6149L86.8244 79.0878L86.3514 79.5608L85.8109 80.0338L84.8649 80.8446L83.7163 81.7905L82.9055 82.3986L81.6893 83.277L79.4595 84.7635L77.7703 85.777L76.5541 86.4527L75.0001 87.2635L73.1757 88.1419L70.946 89.0878L68.919 89.8311L66.6893 90.5743L64.2568 91.25L61.6217 91.8581L58.9865 92.3311L56.4865 92.6689L54.2568 92.8716L51.419 93.0067H48.5811L45.7433 92.8716L42.973 92.6013L40.2028 92.1959L37.7703 91.723L35.2028 91.1149L32.9055 90.4392L30.473 89.6284L28.5811 88.8851L26.5541 88.0067L24.3244 86.9257L22.4325 85.9121L21.0811 85.1013L19.5947 84.1554L18.5136 83.4121L17.5676 82.7365L16.419 81.8581L15.3379 80.9797L14.4595 80.2365L13.1082 79.0203L12.4325 78.3446L11.892 77.8716L11.419 77.3311L10.6757 76.5878L10.2028 76.0473L9.32438 75.0338L8.58114 74.0878L7.63519 72.8716L6.75682 71.5878L6.08114 70.5743L5.27033 69.223L4.59465 68.0067L3.78384 66.4527L2.90546 64.4932L2.16222 62.5338L1.48655 60.4392L0.81087 57.7365L0.473032 55.9121L0.202762 53.8176L0.067627 52.1284V47.8716L0.27033 45.5743L0.608168 43.3446L1.01357 41.3851L1.55411 39.3581L2.36492 36.9257L3.2433 34.7635L4.12168 32.8716L4.93249 31.3851L5.7433 29.9662L7.22979 27.7365L8.17574 26.4527L8.91898 25.5067L9.66222 24.6284L10.473 23.6824L11.4865 22.6013L13.3109 20.777L13.8514 20.304L14.5947 19.6284L15.3379 19.0203L16.419 18.1419L17.7703 17.1284L19.1217 16.1824L20.473 15.304L22.1622 14.2905L23.8514 13.3446L26.419 12.0608L28.446 11.1824L30.946 10.2365L33.3784 9.42566L36.3514 8.61485L39.1893 8.00674L42.0947 7.53376L44.392 7.26349L47.2298 7.06079Z" fill="#003874"/>
<path d="M29.3919 27.4662H30.7432L32.1622 27.6013L33.7838 27.9392L35.1351 28.3446L36.3513 28.8175L38.0405 29.6283L39.1892 30.304L40.2027 30.9797L41.0811 31.6554L41.8243 32.2635L43.1757 33.4797L43.9189 34.2905V42.8716L42.973 42.3311L41.4189 41.5878L39.8649 40.9797L37.8378 40.3716L35.9459 39.8986L34.054 39.5608L33.1081 39.4256L31.8919 39.3581H30.473L28.4459 39.4932L26.6892 39.7635L25 40.1689L23.6486 40.6419L22.2973 41.25L20.9459 42.0608L20.2027 42.6689L19.527 43.277L18.8513 44.0202L18.3784 44.6959L17.7703 45.777L17.3649 46.7905L17.027 48.0067L16.8919 48.8175L16.8243 49.5608V50.8446L16.9595 51.9256L17.2297 52.9392L17.5676 53.75L18.1081 54.7635L18.7162 55.5743L19.3243 56.25L19.8649 56.7905L20.8784 57.5338L21.8919 58.1419L23.2432 58.75L24.527 59.1554L25.8784 59.4256L26.4189 59.4932H28.7838L30.473 59.2229L32.2297 58.6824L33.7162 58.0067L34.8649 57.3311L36.0135 56.5202L36.6892 55.9797L37.3649 55.3716L37.9054 54.8986L39.3243 53.4797L39.7973 52.9392L40.6757 51.9256L41.4189 50.9797L42.0946 50.1013L43.1081 48.75L45 46.1824L46.0811 44.7635L46.8919 43.6824L47.973 42.2635L48.9189 40.9797L49.9324 39.6283L50.8108 38.4121L51.4865 37.5338L52.2973 36.5202L52.9054 35.777L53.8513 34.7635L54.3243 34.2229L55.6081 32.9392L56.1486 32.4662L57.027 31.7229L58.0405 30.9797L59.0541 30.304L60.7432 29.3581L62.3649 28.6824L64.1216 28.1419L65.8784 27.804L66.9595 27.6689L67.9054 27.6013H69.3919L71.2162 27.7365L72.7703 28.0067L74.4595 28.4797L76.1486 29.1554L77.5676 29.8986L78.9865 30.8446L79.9324 31.5878L80.8108 32.3986L81.5541 33.1419L82.027 33.6824L82.8378 34.6959L83.6486 35.8446L84.2568 36.8581L85.1351 38.4797L85.7432 39.8311L86.3513 41.4527L86.8919 43.277L87.2973 45.0338V45.2365H82.4324L81.6892 44.2905L80.8108 43.4121L79.9324 42.7365L78.9189 42.1283L77.8378 41.5878L76.5541 41.1148L75.0676 40.777L74.0541 40.6419H71.8919L70.4054 40.8446L68.9189 41.25L67.2297 41.9256L66.0811 42.5338L65.1351 43.1419L63.8513 44.0878L62.8378 44.9662L61.6892 46.0473L60.8784 46.9256L60.2703 47.6013L59.0541 49.0878L58.1081 50.304L57.1622 51.5878L56.1486 52.9392L53.3108 56.7905L52.6351 57.6689L51.7568 58.8175L50.9459 59.8311L50.3378 60.5743L49.5946 61.4527L48.9865 62.1959L48.1757 63.1419L47.5676 63.8175L46.9595 64.5608L46.2162 65.304L45.7432 65.8446L44.6622 66.8581L43.7162 67.7365L42.7703 68.4797L41.554 69.3581L40.3378 70.1013L39.3243 70.6419L37.6351 71.3175L36.3513 71.7229L34.7973 72.0608L32.973 72.2635H30.5405L28.7838 72.0608L26.9595 71.6554L25.1351 71.0473L23.3108 70.1689L22.2297 69.4932L21.4865 68.9527L20.5405 68.2094L19.527 67.2635L18.9865 66.7229L18.3784 65.9797L17.7027 65.1689L16.8243 63.8851L15.8784 62.2635L15.1351 60.777L14.3919 58.8851L13.8513 57.2635L13.3784 55.3716L13.0405 53.5473L12.8378 51.7905L12.7703 50.9121V47.7365L12.973 45.3716L13.3108 43.277L13.7838 41.25L14.5946 38.8175L15.2703 37.1959L16.1486 35.5067L16.7568 34.5608L17.4324 33.6148L18.0405 32.8716L18.6486 32.1959L19.054 31.7229L19.5946 31.25L20.6757 30.3716L21.6892 29.6959L23.1757 28.8851L24.9324 28.2094L26.2162 27.8716L27.7027 27.6013L29.3919 27.4662Z" fill="white"/>
<path d="M30.4729 39.2905H31.8918L33.1081 39.3581L35.2702 39.6959L37.0946 40.1013L39.1891 40.7094L40.2027 41.0473L42.027 41.7905L43.4459 42.5338L43.9189 42.8716V47.7365L43.1081 48.8176L42.1621 50.1013L41.4189 51.0473L40.5405 52.1284L39.7297 53.0743L38.7837 54.0878L37.5 55.3716L36.7567 55.9797L36.2162 56.4527L35.0675 57.2635L34.054 57.8716L32.9729 58.4121L32.027 58.8176L30.4729 59.2905L28.7837 59.5608H26.4189L25.1351 59.3581L23.581 58.9527L22.027 58.277L21.081 57.7365L20.1351 57.0608L19.3243 56.3176L18.7837 55.777L18.0405 54.7635L17.2973 53.3446L16.9594 52.2635L16.8243 51.5878L16.7567 50.8446V49.5608L16.8918 48.3446L17.1621 47.1959L17.6351 45.9121L18.1756 44.8986L18.6486 44.223L19.3918 43.3446L20 42.7365L21.1486 41.8581L22.5675 41.0473L24.1891 40.3716L25.4729 39.9662L27.4324 39.5608L29.2567 39.3581L30.4729 39.2905Z" fill="#003874"/>
<path d="M82.7027 54.3582H87.5676L87.5 55.169L87.2297 56.6555L86.8243 58.4798L86.2162 60.4392L85.5405 62.1284L84.7297 63.8176L83.9189 65.169L83.2432 66.1149L82.7027 66.7906L82.0946 67.4663L81.6216 68.0068L81.0811 68.5473L80.3378 69.1555L79.3243 69.8987L78.1757 70.5744L76.6216 71.3176L75 71.8582L73.4459 72.196L71.6892 72.3987H69.5946L67.8378 72.196L66.4865 71.8582L64.7973 71.25L63.1081 70.3717L61.6892 69.4257L60.8108 68.75L59.9324 67.9392L59.3919 67.4663L58.6486 66.723L58.1757 66.1825L57.3649 65.2365L56.3513 63.8852L55.5405 62.669V56.4527L55.9459 56.5879L57.8378 57.5338L59.3919 58.2771L61.0135 59.0203L62.9054 59.7636L64.6621 60.3041L66.1486 60.6419L67.6351 60.8446L68.6486 60.9122H69.7973L71.7567 60.7771L73.4459 60.5068L75.2703 60.0338L76.7567 59.4933L77.9054 58.9527L79.1216 58.2095L79.8649 57.669L80.7432 56.9257L81.2838 56.3852L81.9594 55.5068L82.7027 54.3582Z" fill="white"/>
<path d="M55.473 16.9933H55.5406V33.0744L53.9865 34.6284L53.5135 35.169L52.8379 35.9122L52.0946 36.8582L51.2162 37.9392L50.3379 39.1554L49.3919 40.4392L48.3108 41.8582L47.3649 43.1419L45.4054 45.7095L44.4595 46.9933L43.9865 47.669H43.9189V20.8446L44.5946 20.5744L48.7162 19.223L53.1757 17.7365L55.473 16.9933Z" fill="#EC1C24"/>
<path d="M55.5406 53.6824H55.6081V79.7635L52.8379 80.7094L49.4595 81.858L43.9865 83.6824H43.9189V67.4662L44.7973 66.6553L45.2703 66.1824L45.8108 65.7094L46.7568 64.6959L47.4325 63.9526L47.9054 63.4121L48.7162 62.4662L49.4595 61.5878L50.0676 60.8445L50.8108 59.9662L51.4865 59.0878L52.4325 57.8716L53.446 56.5202L55.3379 53.9526L55.5406 53.6824Z" fill="#EC1C24"/>
</svg>
