<svg width="100" height="100" viewBox="0 0 100 100" fill="none" xmlns="http://www.w3.org/2000/svg">
<g clip-path="url(#clip0_1_1278)">
<path fill-rule="evenodd" clip-rule="evenodd" d="M87.2946 0H12.7021C5.73121 0 0 5.79009 0 12.865V87.1367C0 94.2082 5.73121 100 12.7021 100H87.2946C94.3072 100 100 94.2082 100 87.1367V12.8667C100 5.79176 94.3072 0 87.2946 0Z" fill="#9E173B"/>
<path fill-rule="evenodd" clip-rule="evenodd" d="M68.7512 13.0603H86.9592V86.9565H68.7512V66.0321C52.7121 71.8973 37.7142 72.4146 23.9359 58.9138C18.2281 52.9735 15.0096 44.8808 16.3561 30.781C16.5863 28.6218 15.5769 18.6068 13.0425 13.0403H29.215C36.7915 25.071 26.8625 40.4256 38.47 50.227C54.2905 60.469 68.0838 48.2213 68.7512 37.1634V13.0603ZM50.6098 20.6859C59.2325 20.6859 66.1984 27.6623 66.1984 36.1189C66.1984 44.6538 59.2325 51.5619 50.6098 51.5619C41.9888 51.5619 34.9479 44.6538 34.9479 36.1189C34.9479 27.6623 41.9888 20.6859 50.6098 20.6859Z" fill="#FAB90C"/>
</g>
<defs>
<clipPath id="clip0_1_1278">
<rect width="100" height="100" fill="white"/>
</clipPath>
</defs>
</svg>
