<svg width="100" height="100" viewBox="0 0 100 100" fill="none" xmlns="http://www.w3.org/2000/svg">
<g clip-path="url(#clip0_1_1282)">
<path d="M46.8 99.8001C33.8961 98.9692 21.8213 93.1518 13.1294 83.5784C4.43753 74.0049 -0.189942 61.4261 0.225714 48.5022C0.641369 35.5782 6.06756 23.3227 15.3567 14.3276C24.6458 5.33241 37.0694 0.302979 50 0.302979C62.9306 0.302979 75.3542 5.33241 84.6433 14.3276C93.9324 23.3227 99.3586 35.5782 99.7742 48.5022C100.19 61.4261 95.5624 74.0049 86.8705 83.5784C78.1786 93.1518 66.1038 98.9692 53.2 99.8001V59.0001C55.1672 58.2517 56.8099 56.8375 57.8425 55.0035C58.8751 53.1694 59.2322 51.0315 58.8517 48.9614C58.4713 46.8913 57.3773 45.02 55.7601 43.6729C54.1429 42.3258 52.1047 41.5882 50 41.5882C47.8952 41.5882 45.857 42.3258 44.2398 43.6729C42.6226 45.02 41.5287 46.8913 41.1482 48.9614C40.7678 51.0315 41.1249 53.1694 42.1575 55.0035C43.19 56.8375 44.8328 58.2517 46.8 59.0001" fill="#1166DD"/>
</g>
<defs>
<clipPath id="clip0_1_1282">
<rect width="100" height="100" fill="white"/>
</clipPath>
</defs>
</svg>
