<svg width="512" height="512" viewBox="0 0 512 512" fill="none" xmlns="http://www.w3.org/2000/svg">
<path d="M389.408 335.584L304 311.864H256H208L122.592 335.592C87.96 345.208 64 376.736 64 412.672V496H256H448V412.672C448 376.736 424.04 345.208 389.408 335.584Z" fill="#80D6FB"/>
<path d="M128 448H144V496H128V448Z" fill="#46BEE8"/>
<path d="M304 311.864H256H208L192.216 316.248C194.416 349.552 222.144 376 256 376C289.856 376 317.584 349.552 319.784 316.248L304 311.864Z" fill="#46BEE8"/>
<path d="M304 255.864H208V311.864L208.008 311.872C208.008 311.912 208 311.952 208 312C208 338.512 229.488 360 256 360C282.512 360 304 338.512 304 312C304 311.952 303.992 311.912 303.992 311.864L304 255.864Z" fill="#FCB98B"/>
<path d="M352 111.864V192C352 245.016 309.016 288 256 288C202.984 288 160 245.016 160 192V111.864H352Z" fill="#FFD3B3"/>
<path d="M352 136H357.544C367.28 136 374.76 144.624 373.384 154.272L369.968 178.136C368.84 186.016 362.088 191.864 354.128 191.864H352V136Z" fill="#FFD3B3"/>
<path d="M160 136H154.456C144.72 136 137.24 144.624 138.616 154.272L142.032 178.136C143.16 186.016 149.912 191.864 157.872 191.864H160V136Z" fill="#FFD3B3"/>
<path d="M352 191.864L336 127.864H256H176L160 191.864V96C160 51.816 195.816 16 240 16H280C297.672 16 312 30.328 312 48C334.088 48 352 65.912 352 88V191.864Z" fill="#6E83B7"/>
<path d="M424 80H408V24H352V8H424V80Z" fill="#FFB0AA"/>
<path d="M104 80H88V8H160V24H104V80Z" fill="#FFB0AA"/>
<path d="M424 312H352V296H408V240H424V312Z" fill="#FFB0AA"/>
<path d="M160 312H88V240H104V296H160V312Z" fill="#FFB0AA"/>
<path d="M88 152H424V168H88V152Z" fill="#FFB0AA"/>
<path d="M416 496C460.183 496 496 460.183 496 416C496 371.817 460.183 336 416 336C371.817 336 336 371.817 336 416C336 460.183 371.817 496 416 496Z" fill="#98CA69"/>
<path d="M416 480C451.346 480 480 451.346 480 416C480 380.654 451.346 352 416 352C380.654 352 352 380.654 352 416C352 451.346 380.654 480 416 480Z" fill="#EDEFF1"/>
<path d="M408 447.312L378.344 417.656L389.656 406.344L408 424.688L448.344 384.344L459.656 395.656L408 447.312Z" fill="#98CA69"/>
</svg>
