<svg width="280" height="282" viewBox="0 0 280 282" fill="none" xmlns="http://www.w3.org/2000/svg">
<path d="M138.014 5H141.986L145.461 5.75L149.433 7.75L152.411 10.5L154.645 12.75L156.383 14.75L159.113 17.75L161.596 19.75L165.071 21.5L167.801 22.25L169.539 22.5H172.021L175.496 21.75L180.461 19.75L185.674 17.5L188.156 16.75L189.894 16.5H193.865L197.34 17.25L200.816 19L203.05 20.75L205.035 22.75L207.021 26L209.255 32.75L210.993 38.5L212.482 41.5L214.468 44L216.454 45.75L219.433 47.5L222.411 48.5L225.887 49L235.071 49.5L238.05 50L241.277 51.25L243.759 53L246.241 55.25L248.475 58.5L249.965 62.5L250.213 63.5V68.75L248.723 78.5V82.75L249.716 86.75L251.702 90.5L253.688 92.75L257.163 95.25L264.113 99L267.092 101L269.574 103.25L271.809 106.5L273.05 109.5L273.794 113.5L273.546 117.25L272.553 120.75L270.816 124L265.355 132L263.617 135.75L262.872 138.75V143.25L263.617 146.25L264.858 149L267.092 152.5L270.319 157L272.305 160.25L273.546 163.25L274.043 165.5V170L273.05 174L271.312 177.5L268.582 180.5L266.596 182L262.376 184.5L258.404 186.75L254.929 189.25L253.191 191L251.454 193.75L250.213 197L249.716 199.5V204L251.454 214V218.5L250.461 222.5L248.475 226.25L245.993 229L242.518 231.25L239.291 232.5L234.823 233.25L226.631 233.75L222.908 234.5L219.929 235.75L217.199 237.75L214.965 240L213.227 243L211.738 247.5L209.752 254.5L208.014 258.5L206.277 261L204.539 262.75L201.064 265L197.837 266.25L195.603 266.75H191.631L187.66 265.75L180.213 262.75L176.489 261.5L175.248 261.25H170.284L167.305 262L163.83 263.75L161.348 265.75L158.369 269L156.631 271L154.397 273.5L152.66 275.25L149.184 277.5L145.461 278.75L143.972 279H139.752L135.78 278L132.553 276.25L130.071 274L127.34 271.25L125.603 269.25L122.624 266L119.645 263.75L116.17 262.25L113.936 261.75H108.475L104.504 263L95.5674 266.75L92.8369 267.5L89.6099 267.75L86.1347 267.25L82.6596 266L79.9291 264.25L77.695 262.25L75.461 259L74.2198 256L72.234 249.5L70.7447 245L69.2553 242.25L67.2695 239.75L65.5319 238.25L63.0496 236.75L59.3262 235.5L55.3546 235L46.4184 234.5L42.9433 233.75L38.9716 231.75L36.4894 229.5L34.5035 227.25L32.5177 223.25L31.773 220.5V215L33.2624 206.25V200.75L32.2695 197.25L30.2837 193.5L28.2979 191.25L25.8156 189.5L21.3475 187L16.1347 184L13.9007 182.25L11.9149 180.25L9.92907 177L8.68793 173.5L8.43971 172V167L9.18439 164L11.1702 160L13.9007 156.25L16.6312 152.25L18.3688 148.75L19.1135 145.75V140.5L18.3688 137.5L16.6312 134L10.6737 125.5L8.68793 121.5L7.94325 118.5V114L8.93616 110L10.6737 106.75L13.156 103.75L16.6312 101.25L23.3333 97.5L26.312 95.5L28.5461 93.5L30.7801 90L31.773 87.5L32.2695 85.5L32.5177 82.75L32.0213 78.25L30.5319 69.5V66L31.2766 62.5L33.2624 58.5L35 56.25L37.4823 54L40.461 52.25L43.6879 51.25L48.6525 50.75L55.8511 50.25L59.3262 49.5L63.2979 47.5L65.5319 45.75L67.2695 43.75L69.2553 40L71.2411 33L72.7305 28L74.2198 25L76.2057 22.5L78.6879 20.25L81.1702 18.75L83.9007 17.75L86.6312 17.25H90.6028L94.3262 18.25L102.269 21.5L105.496 22.5L106.489 22.75H111.702L114.681 22L118.156 20.25L120.39 18.5L122.128 16.75L123.865 14.75L126.844 11.25L128.582 9.25L131.809 7L134.539 5.75L138.014 5ZM137.021 53.75L129.078 54.5L123.121 55.5L117.908 56.75L112.943 58.25L106.986 60.5L100.78 63.5L96.5603 65.75L92.3404 68.5L88.8652 71L85.3901 73.75L82.6596 76.25L80.6738 78L75.7092 83L73.9716 85L70.4964 89.5L67.7659 93.5L65.7801 96.75L63.7943 100.25L61.8085 104.25L59.8227 108.75L57.5886 115L55.8511 121L54.3617 128.75L53.617 135L53.3688 138.75V145.75L54.1135 153.75L55.1064 159.75L56.3475 165.25L58.3333 171.75L61.0638 178.5L63.0496 182.5L65.5319 187.25L70 194L72.4823 197.25L75.461 200.75L78.4397 204L81.6667 207.25L83.6525 209L87.6241 212.25L92.0922 215.5L97.305 218.75L104.007 222.25L109.22 224.5L114.184 226.25L120.142 228L127.837 229.5L134.043 230.25L138.014 230.5H143.972L150.674 230L157.128 229L163.83 227.5L168.546 226L173.511 224.25L178.475 222L182.447 220L186.915 217.5L189.894 215.5L193.369 213L196.844 210.25L199.326 208L201.312 206.25L206.028 201.5L207.766 199.5L210.993 195.5L214.468 190.5L216.702 186.75L219.681 181.25L222.66 174.5L224.645 168.75L226.383 162.5L227.624 156.25L228.369 150.25L228.617 146.5V137.5L227.872 129.75L226.631 122.75L224.894 116L222.908 110.25L220.426 104.5L217.695 99L214.468 93.75L211.738 89.75L209.255 86.5L206.028 82.75L202.305 78.75L199.078 75.75L195.851 73L191.135 69.5L186.915 66.75L181.702 63.75L175 60.5L168.298 58L162.34 56.25L156.135 55L151.418 54.25L145.213 53.75H137.021Z" fill="#24C56E"/>
<path d="M166.064 110.75H171.028L173.759 111.75L176.241 113.5L177.979 115.25L179.468 117.75L180.213 120L180.461 121.5V124L179.716 127L177.979 130L175.745 132.5L139.752 168.75L137.766 170.5L135.284 172.25L133.05 173.25L129.823 173.75L125.851 173L123.369 171.75L120.887 169.5L105 153.5L103.014 150.75L101.773 147.5L101.525 144.75L102.021 141.5L103.014 139L105 136.5L107.482 134.5L109.468 133.5L111.702 133H115.177L118.156 133.75L121.135 135.5L129.326 143.75L130.567 143.5L159.362 114.5L162.589 112L165.071 111L166.064 110.75Z" fill="#24C56E"/>
</svg>
