<svg width="108" height="108" viewBox="0 0 108 108" fill="none" xmlns="http://www.w3.org/2000/svg">
<path d="M48.7266 1.74023H50.4668L52.5234 1.8457L54.9492 2.05664L57.0059 2.32031L59.168 2.68945L61.2773 3.16406L63.0703 3.63867L64.6523 4.11328L66.6562 4.79883L68.2383 5.43164L69.3457 5.90625L71.1914 6.75L71.9824 7.17188L72.8262 7.59375L74.25 8.38477L75.5684 9.17578L76.4648 9.75586L77.4141 10.3887L78.3105 11.0215L79.3125 11.7598L80.2617 12.498L81.4219 13.4473L81.9492 13.9219L82.5293 14.3965L83.373 15.1875L83.8477 15.6621L84.2695 16.0312L85.1133 16.875V16.9805H85.2188L85.5879 17.4023L86.0625 17.877L86.4316 18.2988L87.0645 19.0371L87.5391 19.5645L88.1191 20.3027L88.752 21.0938L89.3848 21.9375L90.0176 22.834L90.7559 23.8887L91.2832 24.7324L91.916 25.7344L92.6543 27L93.2871 28.1602L94.0254 29.584L94.7637 31.166L95.291 32.3789L96.0293 34.2773L96.8203 36.5977L97.4531 38.8125L98.0332 41.3438L98.4551 43.7168L98.7188 45.668L98.9297 48.041L98.9824 49.043L99.0352 51.416L98.9297 54.5273L98.666 57.2695L98.2441 60.0117L97.8223 62.0684L97.6113 62.9648V63.2812L97.8223 63.4922L98.8242 64.2305L99.5625 64.8105L100.301 65.4434L101.145 66.2871L101.566 66.6562L102.146 67.2891L102.727 68.0273L103.307 68.7129L103.939 69.6094L104.572 70.6113L105.152 71.5605L106.207 73.7227L106.682 74.9883L107.262 76.834L107.578 78.3633L107.842 79.7871L107.895 80.209L108 80.2617V85.377H107.895L107.578 87.3809L107.156 89.1738L106.523 91.0723L106.102 92.127L105.258 93.8672L104.73 94.7637L104.256 95.5547L103.781 96.2402L102.938 97.3477L102.568 97.8223L101.936 98.5078L101.197 99.3516L100.775 99.7207L99.9316 100.512L99.2988 101.039L98.2969 101.777L97.5586 102.305L96.4512 102.99L95.6602 103.465L94.4473 104.045L93.3926 104.52L91.4414 105.205L89.332 105.732L87.75 105.996L86.2734 106.154L85.4297 106.207H83.7949L81.7383 106.049L79.5762 105.68L78.1523 105.311L76.623 104.836L74.6191 103.992L73.1953 103.254L72.1934 102.674L70.9805 101.83L70.1895 101.25L69.4512 100.617L68.9238 100.143L68.3438 99.668L67.5 98.7715L66.9199 98.1387L66.7617 97.9805V97.875L66.5508 97.8223L65.127 98.2441L63.0176 98.9297L60.6973 99.5098L58.4824 99.9844L56.7949 100.248L54.3691 100.564L52.1543 100.723L49.4121 100.828L46.5645 100.723L44.5605 100.564L41.7656 100.195L40.1836 99.9316L37.7051 99.4043L35.4375 98.7715L34.0664 98.3496L32.5898 97.8223L31.377 97.4004L30.0586 96.8203L28.582 96.1875L27.1055 95.4492L26.1035 94.9219L24.627 94.1309L22.3066 92.6543L20.8828 91.7051L19.9863 91.0195L17.9297 89.4375L17.0859 88.752L16.2949 88.0664L14.7656 86.5371L14.3438 86.168L13.9746 85.7988L13.6055 85.377L12.8145 84.5332L12.1816 83.8477L11.707 83.2676L11.0742 82.5293L10.3359 81.5801L9.65039 80.6836L8.96484 79.7344L8.2793 78.7324L7.75195 77.9414L7.01367 76.7285L6.53906 75.9375L5.69531 74.4082L5.0625 73.1953L4.32422 71.666L3.375 69.3984L2.63672 67.3945L2.05664 65.6016L1.5293 63.7031L1.00195 61.4883L0.580078 59.168L0.263672 56.8477L0.0527344 54.7383L0 54.5801V47.9883L0.105469 47.3027L0.421875 44.4551L0.791016 42.1875L1.21289 40.1836L1.74023 38.0742L2.37305 35.9648L3.05859 34.0137L3.63867 32.5371L4.32422 30.9551L5.2207 29.1094L5.74805 28.0547L6.43359 26.8418L6.85547 26.1035L7.59375 24.8906L8.12109 24.0996L8.5957 23.3613L9.12305 22.623L9.80859 21.6738L10.5469 20.7246L11.2324 19.8809L11.707 19.3008L12.3926 18.5098L13.5527 17.2441L13.9219 16.8223H14.0273L14.1328 16.6113L14.9766 15.7676H15.082V15.6621L15.5039 15.293L15.9258 14.8711L16.3477 14.502L16.9805 13.9219L17.5605 13.4473L18.2988 12.8145L18.9844 12.2871L19.7227 11.707L21.6211 10.3359L22.834 9.54492L24.0996 8.75391L25.5762 7.91016L27.0527 7.11914L28.4238 6.43359L30.0586 5.69531L31.6406 5.0625L33.0645 4.53516L35.4902 3.74414L37.4414 3.2168L39.8145 2.68945L42.293 2.26758L44.4551 2.00391L46.4062 1.8457L48.7266 1.74023ZM47.6191 5.43164L45.2988 5.58984L43.4004 5.80078L41.3438 6.11719L39.7617 6.43359L37.9688 6.85547L35.9648 7.43555L34.0664 8.06836L32.8008 8.54297L31.2715 9.17578L29.9531 9.75586L29.1094 10.1777L27.5801 10.9688L26.4727 11.6016L25.5762 12.1289L24.5215 12.8145L23.5723 13.4473L22.6758 14.0801L21.6738 14.8184L20.8301 15.5039L20.25 15.9785L19.7227 16.4531L19.5645 16.5586V16.6641L19.3535 16.7695L18.5098 17.5605L17.877 18.1406L17.0332 18.8789L16.6641 19.3008L15.9258 20.0918L14.9766 21.1465L14.3438 21.832L13.8691 22.4121L13.2363 23.2031L12.709 23.8887L11.6543 25.3652L11.2324 25.998L10.3887 27.3164L9.86133 28.2129L9.17578 29.4258L8.54297 30.6387L8.12109 31.4824L7.59375 32.5898L6.85547 34.3301L6.32812 35.7012L5.58984 37.9688L5.0625 39.8145L4.58789 41.8711L4.21875 43.7695L3.95508 45.668L3.79688 46.9863L3.63867 49.5176V52.998L3.79688 55.5293L4.06055 57.7969L4.37695 59.6953L4.69336 61.2773L5.27344 63.5977L5.95898 65.8125L6.64453 67.7109L7.22461 69.1348L7.80469 70.4531L8.80664 72.5098L9.49219 73.7754L10.3359 75.1992L11.0742 76.3594L11.8652 77.5195L12.5508 78.4688L13.1836 79.3125L13.8691 80.1562L14.291 80.6836L14.9766 81.4746L15.4512 82.002L15.8203 82.4238L16.4004 83.0039L16.7695 83.4258L17.6133 84.2695L18.0352 84.6387L18.5625 85.166L18.8262 85.377L19.0898 85.2715L20.25 84.5332L21.5156 83.8477L22.4648 83.3203L23.8359 82.582L24.7852 82.0547L26.1562 81.3164L27.1055 80.7891L28.4766 80.0508L29.4258 79.5234L30.7969 78.7852L31.7461 78.2578L33.2227 77.4668L34.4355 76.7812L35.1738 76.2539L35.543 75.8848L36.0176 75.1992L36.2812 74.6191L36.4395 73.8809L36.4922 73.459V68.0801L36.2812 67.7109L35.5957 66.7617L34.8047 65.4961L34.0137 64.125L33.3809 62.9648L32.748 61.6465L32.0625 60.0117L31.4824 58.377L31.0605 56.9004L30.9023 56.5312L30.375 56.0039L30.3223 55.8984H30.2168L30.1113 55.6875L29.8477 55.3711L29.2676 54.4219L28.9512 53.6836L28.6875 52.7344L28.582 51.8906V44.666L28.7402 43.6641L29.0039 42.8203L29.373 41.9766L29.7422 41.3965L30.1113 40.8691V30.6387L30.2695 29.1094L30.4805 28.002L30.8496 26.6309L31.4297 25.1543L32.2207 23.6777L32.748 22.9395L33.3809 22.0957L33.8555 21.5684L34.9629 20.4609L35.543 20.0391L36.5449 19.3008L37.9688 18.5098L38.7598 18.1406L40.0781 17.6133L41.2383 17.2441L42.4512 16.9277L44.3496 16.5586L46.1953 16.3477L47.7773 16.2422H51.1523L53.209 16.4004L54.8965 16.6113L56.7949 16.9805L58.7461 17.5605L60.2227 18.1406L61.1191 18.5625L62.332 19.248L63.2285 19.8809L63.9668 20.4609L64.4941 20.9355L65.4961 21.9375L66.2871 22.9922L66.6562 23.5195L67.1309 24.3633L67.6055 25.2598L68.0801 26.4727L68.502 27.9492L68.7656 29.4785L68.8711 30.6914V40.8691L69.5566 41.8711L69.9785 42.7676L70.1895 43.3477L70.3477 44.1387L70.4004 44.666V52.0488L70.2949 52.7871L70.084 53.5781L69.7676 54.3691L69.293 55.2129L68.8184 55.793V55.8984L68.6602 55.9512L68.3438 56.3203L67.5 56.9531L66.7617 57.375L66.498 57.9023L65.7598 59.8535L64.9688 61.541L64.4414 62.6484L63.8086 63.7559L63.334 64.5996L61.752 66.9727L61.2246 67.6582L60.9609 67.9746L60.9082 68.1328V73.7754L61.0137 74.4609L61.2773 75.1465L61.6992 75.832L62.0156 76.2012H62.1738L62.7539 74.4609L63.4395 72.8789L64.2305 71.2969L65.0215 70.0312L65.6016 69.1875L66.1289 68.502L66.6035 67.8691L67.1836 67.2363L67.6582 66.6562L68.502 65.8125L68.6602 65.707V65.6016L68.8711 65.4961L69.4512 64.9688L70.1895 64.3887L70.7168 63.9668L71.7715 63.2285L73.248 62.332L74.4609 61.6992L75.8848 61.0664L76.9922 60.6445L78.7852 60.1172L80.2617 59.8008L82.1074 59.5371L83.4785 59.4316H85.4824L87.0117 59.5371L88.8574 59.8008L90.2812 60.1172L91.7578 60.5391L92.918 60.9609L94.0781 61.4355H94.2363L94.6582 59.3789L95.0273 56.9531L95.2383 54.8438L95.3438 52.8926V49.7285L95.2383 47.7773L95.0801 46.0371L94.8164 44.0859L94.4473 42.0293L93.8672 39.5508L93.2344 37.3887L92.5488 35.3848L91.8105 33.5391L90.9141 31.5352L90.0176 29.7422L89.332 28.5293L88.4883 27.1055L87.9082 26.209L87.2754 25.2598L86.5898 24.3105L85.957 23.4668L85.2188 22.5176L84.6387 21.832L84.0586 21.1992L83.6895 20.7773L82.9512 19.9863L82.4766 19.459L81.8965 18.8262L81.0527 18.0352L79.7871 16.875L79.3652 16.5059L78.7852 15.9785L78.0469 15.3984L77.2559 14.7656L76.2539 14.0273L75.252 13.3418L74.4609 12.8145L73.3008 12.0762L72.0352 11.3379L70.875 10.7051L69.3457 9.91406L67.5 9.07031L65.918 8.4375L64.6523 7.96289L62.7012 7.33008L60.8027 6.80273L58.4824 6.27539L56.0039 5.85352L54.2637 5.64258L52.2598 5.48438L51.2051 5.43164H47.6191ZM48.0938 19.8281L46.4062 19.9336L44.7188 20.1445L43.1367 20.4609L41.6074 20.8828L40.2891 21.4102L39.3926 21.832L38.6543 22.2539L37.7578 22.8867L37.1777 23.3613L36.1758 24.3633L35.4375 25.3652L34.9102 26.2617L34.541 27.0527L34.0664 28.4766L33.8555 29.5312L33.75 30.4805L33.6973 42.3984L32.748 43.3477L32.4316 43.9277L32.2207 44.5078L32.168 44.9824V51.5742L32.2734 52.3125L32.5371 52.8926L32.8535 53.3672L33.1172 53.6309L33.5391 54L34.0664 54.3691L34.2246 54.7383L34.752 56.6895L35.332 58.4297L35.9121 59.8535L36.6504 61.4355L37.1777 62.4375L37.7578 63.4395L38.3379 64.3359L39.1816 65.6016L39.7617 66.3398L40.0781 66.7617L40.1309 66.9199V72.6152L40.0781 73.8809L39.9727 74.7246L39.709 75.7266L39.3398 76.623L38.8652 77.4668L38.4434 78.0469L37.9688 78.5742V78.6797L37.7578 78.7852L37.2305 79.2598L36.4395 79.7871L35.332 80.4199L33.8555 81.2109L32.3262 82.0547L30.9551 82.793L29.7422 83.4785L28.6348 84.0586L27.4219 84.7441L26.3145 85.3242L25.1016 86.0098L23.9941 86.5898L22.7812 87.2754L21.9902 87.6973L21.7793 87.8027L22.043 88.0137L22.8867 88.6465L23.8887 89.332L24.9961 90.0703L27.791 91.7051L28.6348 92.127L30.5859 93.0762L31.7988 93.6035L34.3828 94.6055L35.4902 94.9746L38.2324 95.7656L40.9219 96.3457L42.3984 96.6094L44.4551 96.873L46.1426 97.0312L48.1465 97.1367H50.8359L53.6309 96.9785L56.9531 96.5566L59.0098 96.1348L60.9082 95.7129L64.0723 94.7637L64.3887 94.6582L64.2832 94.3945L63.3867 92.6543L62.8066 91.2832L62.2793 89.8066L61.9102 88.4883L61.5938 87.0645L61.3301 85.2188L61.2246 84.0059V82.0547L61.3301 80.209L60.8027 79.8398L60.1172 79.3652L59.4316 78.7324L58.9043 78.1523L58.2715 77.2031L57.7969 76.2012L57.5332 75.4102L57.3223 74.3027L57.2695 73.6172V66.8145L57.4805 66.498L58.0078 65.918L58.6406 65.0742L59.3262 64.125L60.0117 63.0703L60.5918 62.1211L61.3301 60.75L61.752 59.9062L62.3848 58.5352L63.0176 56.9531L63.5449 55.4238L63.8086 54.6328L64.8105 54.2637L65.5488 53.8945L66.0762 53.4199L66.3926 52.998L66.6562 52.4707L66.8145 51.627V44.9824L66.709 44.2969L66.4453 43.6641L66.0762 43.1895L65.7598 42.8203L65.3379 42.4512L65.2852 42.3984L65.2324 30.6914L65.0742 29.2148L64.8105 28.1074L64.4414 27.0527L63.8613 25.8398L63.334 25.0488L62.8594 24.416L62.2793 23.7832L61.9102 23.4141L61.0137 22.7285L60.4863 22.3594L59.3789 21.7266L58.5879 21.3574L57.3223 20.8828L55.6348 20.4082L53.8418 20.0918L52.418 19.9336L50.6777 19.8281H48.0938ZM83.6895 63.0176L82.3711 63.123L80.9473 63.334L79.3652 63.7031L77.8359 64.1777L76.3066 64.8105L74.7773 65.6016L73.6172 66.3398L72.668 67.0254L71.8242 67.7109L71.1914 68.291L70.7695 68.6602L70.3477 69.082V69.1875H70.2422L69.873 69.6094L69.3984 70.1367L68.8184 70.875L68.291 71.6133L67.7109 72.5098L67.0254 73.7227L66.4453 74.9355L65.918 76.3066L65.6016 77.2559L65.1797 78.9961L64.916 80.8945L64.8105 82.3711V83.1621L64.9688 85.2715L65.2852 87.1172L65.707 88.6992L66.2344 90.1758L66.709 91.2305L67.2891 92.3906L67.7109 93.0762L68.1855 93.8145L68.7656 94.6055L69.2402 95.1855L69.8203 95.8711L70.1895 96.293L71.5078 97.6113L72.2461 98.1914L73.0371 98.8242L73.7227 99.2988L75.4102 100.301L76.623 100.881L77.9414 101.408L79.5762 101.936L81.7383 102.357L83.2676 102.516L84.0059 102.568H85.2715L86.6953 102.463L88.4355 102.199L90.334 101.725L91.9688 101.145L93.0234 100.67L94.1836 100.09L95.5547 99.2461L96.5039 98.5605L97.1895 98.0332L97.875 97.4004L98.2969 97.0312L99.1406 96.1875L99.5098 95.7656L99.668 95.6074V95.502H99.7734L100.564 94.4473L101.092 93.709L101.672 92.7598L102.146 91.916L102.779 90.5977L103.359 89.0684L103.729 87.8027L103.992 86.6953L104.256 84.9551L104.361 83.3203V82.4238L104.203 80.2617L103.939 78.7852L103.623 77.4141L102.938 75.4102L102.463 74.3555L101.672 72.8262L100.512 71.0859L100.037 70.4531L99.457 69.8203L99.0879 69.3984L98.6133 68.8711L98.1914 68.4492L97.7695 68.0801L97.0312 67.4473L96.293 66.8672L94.4473 65.6543L92.3379 64.5996L90.5977 63.9668L89.543 63.6504L87.75 63.2812L86.4844 63.123L85.0605 63.0176H83.6895Z" fill="black"/>
<path d="M84.3223 70.1895H84.8496L85.377 70.3477L85.8516 70.6641L86.168 71.0859L86.3789 71.5605L86.4316 71.9297V81L86.6426 80.9473H95.0801L95.9238 81.0527L96.4512 81.3164L96.7676 81.5801L97.0312 81.9492L97.1895 82.4238V83.1621L96.9785 83.6895L96.6621 84.1113L96.1875 84.4277L95.6602 84.5859L94.2891 84.6387H86.4316V93.6035L86.2734 94.3418L85.8516 94.9219L85.377 95.2383L84.7969 95.3965H84.2695L83.6895 95.1855L83.1621 94.7109L82.8984 94.2891L82.7402 93.5508V84.6387H74.1445L73.248 84.5332L72.7207 84.2695L72.2988 83.8477L72.0352 83.3203L71.9824 83.1094V82.5293L72.1934 81.8965L72.668 81.3691L73.0898 81.1055L73.459 81L73.9336 80.9473H82.7402V72.0352L82.9512 71.1914L83.2676 70.7695L83.6895 70.4004L84.0586 70.2422L84.3223 70.1895Z" fill="#010101"/>
</svg>
