<svg width="64" height="64" viewBox="0 0 64 64" fill="none" xmlns="http://www.w3.org/2000/svg">
<path d="M5.53125 11.0312H58.3438L59.0312 11.0625L59.7188 11.1562L60.1875 11.2812L60.6875 11.4688L61.2188 11.7188L61.6562 12L62.0625 12.3125L62.4688 12.6875L62.8125 13.0625L63.1875 13.5938L63.5 14.1562L63.6875 14.625L63.875 15.2188L63.9375 15.5L64 15.4688V48.4375L63.9375 48.4688L63.75 49.1875L63.5625 49.6875L63.3125 50.1875L63.0938 50.5312L62.8438 50.875L62.4688 51.3125L62.0625 51.6875L61.5938 52.0312L61 52.375L60.5 52.5938L59.875 52.7812L59.1875 52.9062L58.8438 52.9375H5.09375L4.34375 52.8438L3.75 52.6875L3.125 52.4375L2.59375 52.1562L2.0625 51.7812L1.6875 51.4375L1.25 51L0.9375 50.5938L0.5625 49.9688L0.28125 49.3125L0.09375 48.6562L0 48.25V15.6875L0.125 15.2188L0.28125 14.6875L0.5 14.1562L0.78125 13.625L1.03125 13.2812L1.25 13L1.53125 12.6875L1.875 12.3438L2.375 11.9688L2.84375 11.6875L3.4375 11.4062L3.90625 11.25L4.625 11.0938L4.90625 11.0625L5.53125 11.0312ZM5.6875 13.0625L5 13.0938L4.5 13.1875L4 13.375L3.5 13.6562L3.09375 14L2.78125 14.3125L2.46875 14.7812L2.25 15.2188L2.09375 15.7188L2.03125 16.125L2 16.7188V47.4688L2.0625 48.125L2.1875 48.625L2.375 49.0625L2.6875 49.5625L3.0625 49.9688L3.34375 50.2188L3.6875 50.4375L4.1875 50.6875L4.71875 50.8438L5.09375 50.9062H58.875L59.4062 50.8125L59.875 50.6562L60.4688 50.3438L60.7812 50.0938L61.125 49.7812L61.4062 49.4062L61.6562 48.9688L61.8438 48.5L61.9375 48.0625L61.9688 47.8125V16.1562L61.875 15.625L61.6875 15.0938L61.4375 14.625L61.1562 14.25L60.7812 13.875L60.3438 13.5625L59.8438 13.3125L59.3438 13.1562L59 13.0938L5.6875 13.0625Z" fill="black"/>
<path d="M10.5938 24.7812H18.7812L19.25 24.875L19.6875 25.0938L20.0312 25.375L20.3125 25.7188L20.5 26.0938L20.5938 26.4062L20.625 26.8125V32.6875L20.5938 33.25L20.4688 33.6875L20.2812 34.0312L20.125 34.25H20.0625L20 34.375L19.625 34.6562L19.1875 34.8438L18.9062 34.9062L18.5625 34.9375H10.7812L10.3438 34.875L9.9375 34.7188L9.59375 34.5L9.28125 34.1875L9 33.75L8.875 33.375L8.84375 33.2188L8.8125 32.5312V27.7812L8.84375 26.5L8.9375 26.125L9.1875 25.625L9.53125 25.25L9.84375 25.0312L10.1875 24.875L10.5938 24.7812ZM10.875 26.8125V32.9062H18.5625V26.8125H10.875Z" fill="black"/>
<path d="M9.84375 42.0312H31.0625L31.625 42.0625L31.9375 42.1875L32.2188 42.4375L32.4062 42.8125L32.4375 43.125L32.375 43.4375L32.1562 43.75L31.9375 43.9375L31.625 44.0625L30.2188 44.0938H9.75L9.34375 44.0312L9.0625 43.8438L8.90625 43.6875L8.75 43.4375L8.6875 43.25V42.9062L8.8125 42.5625L9.03125 42.2812L9.34375 42.0938L9.84375 42.0312Z" fill="black"/>
<path d="M52.25 19.9375H52.7188L53.0312 20.0625L53.25 20.25L53.5312 20.6875L53.9688 21.5312L54.4062 22.5L54.75 23.4062L55.0625 24.3438L55.3438 25.4062L55.5312 26.2812L55.6875 27.2188L55.8125 28.3438L55.8438 28.75V30.9688L55.7188 32.2812L55.5625 33.2812L55.375 34.1875L55.125 35.1562L54.75 36.3125L54.4062 37.1875L54.0312 38.0312L53.625 38.8438L53.375 39.2812L53.0938 39.5938L52.8438 39.7188L52.7188 39.75H52.25L51.9375 39.625L51.7188 39.4375L51.5312 39.125L51.4688 38.875L51.5 38.5L51.6562 38.125L51.9688 37.5312L52.2188 37.0312L52.5625 36.25L52.9062 35.3125L53.2188 34.2812L53.4688 33.2188L53.6562 32.0625L53.75 31.1562L53.7812 30.6562V29.0625L53.7188 28.2188L53.625 27.4062L53.4375 26.3438L53.1562 25.2188L52.9062 24.4062L52.625 23.625L52.25 22.75L51.9688 22.1562L51.6562 21.5625L51.5 21.2188L51.4688 21.0625V20.8438L51.5625 20.5L51.75 20.2188L52.0312 20.0312L52.25 19.9375Z" fill="black"/>
<path d="M48.4375 22.0312H48.875L49.25 22.1875L49.4688 22.4062L49.7812 22.9375L50.1875 23.75L50.5 24.5L50.7812 25.2812L51.0312 26.125L51.25 27.0625L51.4062 28.0312L51.5 29.0312V30.75L51.4062 31.6875L51.2812 32.5312L51.0938 33.4062L50.875 34.1875L50.5938 35.0312L50.3125 35.7188L49.9688 36.4688L49.5938 37.1562L49.375 37.4688L49.125 37.6562L48.8438 37.75H48.4062L48.0938 37.625L47.8125 37.375L47.6562 37.0625L47.625 36.9688V36.5625L47.7812 36.1562L48.2188 35.3438L48.5938 34.4688L48.8438 33.75L49.0625 33L49.25 32.125L49.375 31.2812L49.4375 30.5938V29.0938L49.3438 28.1875L49.1875 27.25L48.9688 26.375L48.625 25.3438L48.2812 24.5312L47.9688 23.9062L47.7188 23.4375L47.6562 23.25V22.8125L47.7812 22.5312L47.9688 22.2812L48.25 22.0938L48.4375 22.0312Z" fill="black"/>
<path d="M44.7188 23.875H45.0938L45.4375 24L45.6875 24.2188L45.9688 24.6562L46.3438 25.375L46.6562 26.125L46.9375 26.9688L47.1562 27.9062L47.25 28.5L47.3125 29.0938L47.3438 29.6875V30.0625L47.3125 30.6562L47.2188 31.4688L47 32.5312L46.75 33.3438L46.4375 34.125L46.0938 34.8438L45.75 35.4062L45.5625 35.625L45.1875 35.8125L45.0625 35.8438H44.75L44.4062 35.7188L44.1875 35.5625L44 35.2812L43.9062 35.0625L43.875 34.75L44 34.3438L44.3438 33.75L44.625 33.125L44.9062 32.3438L45.0938 31.625L45.2188 30.875L45.25 30.5312V29.125L45.125 28.25L44.9375 27.4688L44.7188 26.8125L44.4375 26.1875L43.9375 25.2188L43.875 24.9688L43.9062 24.625L44.0938 24.25L44.375 24L44.5625 23.9062L44.7188 23.875Z" fill="black"/>
<path d="M41.0312 25.75H41.5312L41.8125 25.875L42.0625 26.0938L42.3125 26.4375L42.5 26.75L42.7812 27.3438L43 27.9375L43.1875 28.6875L43.2812 29.5V30.2188L43.2188 30.875L43.0625 31.5938L42.8438 32.25L42.625 32.75L42.3438 33.25L42.0938 33.625L41.8125 33.875L41.5938 33.9688L41.4375 34H41.0625L40.75 33.875L40.4688 33.625L40.2812 33.25L40.25 33.125V32.875L40.375 32.5L40.7188 31.9375L40.9688 31.375L41.0938 30.9688L41.1875 30.4688L41.2188 30.1562V29.5938L41.125 28.9062L40.9375 28.2812L40.625 27.625L40.375 27.2188L40.25 26.875V26.625L40.375 26.2812L40.5 26.0938L40.6562 25.9375L40.9062 25.7812L41.0312 25.75Z" fill="black"/>
<path d="M35.9688 42.0312H41.8438L42.3438 42.0625L42.625 42.1562L42.9062 42.375L43.0938 42.6562L43.1562 42.8438V43.2812L43.0625 43.5312L42.875 43.7812L42.625 43.9688L42.3438 44.0625L41.5625 44.0938H35.875L35.5 44.0312L35.25 43.9062L35.0312 43.6875L34.8438 43.3125L34.8125 43L34.875 42.7188L35.0312 42.4375L35.25 42.2188L35.5938 42.0625L35.9688 42.0312Z" fill="black"/>
</svg>
