<svg width="143" height="120" viewBox="0 0 143 120" fill="none" xmlns="http://www.w3.org/2000/svg">
<path d="M45.125 10.1748H130.75L135 10.2273L136.188 10.3846L137.188 10.6993L138.188 11.1189L139.062 11.5909L139.688 12.0105L140.375 12.5874L140.875 13.1119L141.562 14.0559L141.938 14.7377L142.25 15.5769L142.375 16.1014L142.438 16.6783L142.5 19.1433V24.7028L142.438 60.8391L142.312 61.9405L142 63.0419L141.688 63.6189L141.188 64.3531L140.688 64.8776L140.125 65.4021L139.312 66.0839L138.5 66.6084L137.625 67.028L136.5 67.3426L135.562 67.5L133.812 67.6573L131.688 67.7098H109.875L110.312 69.6503L111.375 74.4755L111.938 77.0454L112.438 79.3007L113.188 82.7098L113.875 85.6468L114.25 87.5874L114.375 88.5314V89.4755L114.125 90.7867L113.812 91.5734L113.062 92.7797L112.438 93.514L112.188 93.7762H112.062L111.938 93.986L111.375 94.458L110.562 94.9825L109.125 95.5594L107.938 95.8741L104.562 96.5035L94.25 98.1293L89.5 98.8636L86.5625 99.3356L78.25 100.647L73.875 101.329L71.6875 101.696L68.9375 102.115L65 102.745L61.6875 103.269L57.9375 103.846L55.3125 104.266L52.25 104.738L49.3125 105.21L46 105.734L41.3125 106.469L39.375 106.783L30.625 108.147L28.8125 108.462L24.1875 109.196L21.0625 109.668L19.75 109.825L19 109.878H17.1875L16.0625 109.72L15.125 109.51L14.125 109.196L13.3125 108.829L12.5625 108.357L11.5625 107.57L11 106.993L10.375 106.154L9.9375 105.42L9.5 104.318L9.0625 102.745L8.125 98.4965L7 93.4091L6.125 89.5279L5.25 85.437L4.4375 81.8706L3.8125 79.0909L1.875 70.3321L1.25 67.5524L0.9375 66.1888L0.5625 64.5105L0.25 63.2517L0 62.5699V58.6363L0.4375 58.007L1 57.0105L1.875 55.9091L2.625 55.2272L3.125 54.8601L4.0625 54.2832L5.0625 53.8636L6.0625 53.5489L7.5625 53.2342L11.0625 52.6573L20.25 51.2412L24.6875 50.5594L28.9375 49.8776L32.75 49.3007L35.1875 48.9335L35.8125 48.7762V25.0175L35.875 17.6224L35.9375 16.3636L36.125 15.4196L36.375 14.7377L37.0625 13.5839L37.5625 12.9545H37.6875L37.8125 12.7447L38.4375 12.1154L39.6875 11.2762L40.6875 10.8042L41.4375 10.5419L42.4375 10.3321L43.5 10.2273L45.125 10.1748ZM44.625 14.528L43.4375 14.5804L42.875 14.6853L42.3125 15L41.8125 15.4196L41.375 16.0489L41 16.9405L40.75 18.3042L40.6875 19.1958V20.0349L40.75 20.4021L41.0625 20.507H136.812L137.312 20.4545L137.438 20.2447V19.2482L137.312 17.2552L137.125 16.4161L136.812 15.7867L136.438 15.3147L136.062 14.9475L135.688 14.7377L135.312 14.6328L134.875 14.5804L133.625 14.528H44.625ZM60.9375 38.2867L40.8125 38.3391L40.75 39.5979V59.1084L40.8125 60.1573L41 61.0489L41.3125 61.6783L42 62.465L42.625 62.937L43.1875 63.1468L44.1875 63.3042L84.1875 63.3566H104.688L134.125 63.3042L135.125 63.1993L135.688 62.9895L136.375 62.5699L136.812 62.2028L137.062 61.7832L137.25 61.1014L137.312 60.472L137.375 58.7412V38.3916L137.312 38.3391L82.625 38.2867H60.9375ZM35.75 53.0769L32.9375 53.4965L30.4375 53.9161L26.375 54.5454L22.1875 55.1748L19.875 55.5419L15.1875 56.2762L11.375 56.8531L8 57.43L7.0625 57.6923L6.5 57.9545L5.875 58.4266L5.4375 58.951L5 59.6853L4.9375 59.9475V61.1014L5.3125 62.9895L5.8125 65.3496L6.3125 67.6049L6.875 70.1224L7.25 71.8531L7.6875 73.7412L8.3125 76.5734L9.1875 80.3496L9.8125 83.1293L10.125 84.5454L10.5625 86.3811L11.125 89.0559L11.6875 91.4161L12.25 94.0384L12.75 96.1888L13.25 98.4965L13.6875 100.385L14.0625 102.115L14.375 103.164L14.875 104.161L15.25 104.633L15.8125 105.052L17.5 105.472L18.1875 105.577H18.75L28.8125 104.003L42 101.958L57.9375 99.493L62.375 98.8112L67.6875 97.972L83.9375 95.4545L87.75 94.8776L94.75 93.7762L100.938 92.8321L104.062 92.3601L105.812 92.0454L107.125 91.6783L107.812 91.3636L108.562 90.7867L108.938 90.3147L109.188 89.4755L109.25 89.0035V88.4266L109.062 87.1678L108.5 84.493L108.062 82.5524L107.25 78.986L106.312 74.6853L104.812 67.5524L104.75 67.5L43.4375 67.4475L42.5625 67.3951L41.5 67.1853L40.3125 66.7657L39.625 66.3986L38.9375 65.9266L38.3125 65.4545L37.6875 64.8776L37.0625 64.0909L36.5625 63.3042L36.1875 62.465L36 61.5734L35.9375 60.3671V53.0769H35.75Z" fill="white"/>
<path d="M26.4375 65.0874H28.0625L29.0625 65.3496L29.9375 65.6643L30.8125 66.1888L31.25 66.5559L31.75 67.1329L32.125 67.6573L32.625 68.9161L33.0625 70.7517L33.5625 73.007L33.875 74.528L33.9375 74.9475V76.4685L33.6875 77.2552L33.125 78.0944L32.5 78.7762L31.9375 79.3007L31.25 79.6678L30.5625 79.9301L29.25 80.2447L26.625 80.7168L21.9375 81.451L18.875 81.8706L17.9375 81.9755H16.1875L15.375 81.7133L14.6875 81.3986L14 80.9266L13.25 80.2972L12.8125 79.7727L12.375 78.9336L12 77.9895L11.1875 74.6853L10.8125 72.9021L10.625 71.9056V70.7517L10.875 69.9126L11.25 69.1783L12.0625 68.2867L12.5625 67.8671L13.25 67.4475L14.1875 67.0804L15.1875 66.8182L19 66.1364L22.8125 65.5594L25.375 65.1923L26.4375 65.0874ZM26.9375 69.2308L22.4375 69.965L19.8125 70.3846L16.6875 70.9091L15.875 71.1189L15.8125 71.1713L15.875 71.958L16.25 73.8986L16.75 76.1014L17.0625 77.5175L17.125 77.6748L17.25 77.7273H18.25L22.875 77.0454L26.9375 76.4161L28.25 76.1538L28.75 75.944L28.875 75.7343L28.8125 75.1049L27.9375 71.014L27.6875 69.965L27.375 69.2832L27.3125 69.2308H26.9375Z" fill="white"/>
<path d="M100.75 75.9441H101.5L102 76.1539L102.312 76.4161L102.562 76.6784L102.812 77.2028L102.938 77.7273V78.7763L102.75 79.2483L102.438 79.5105L102.125 79.7203L101.125 79.9826L96.9375 80.7168L92.5625 81.3986L89.375 81.8707L85.875 82.4476L84 82.6574L83.4375 82.6049L82.6875 81.9231L82.25 81.6084L82 81.0315L81.9375 80.7693V79.9301L82.125 79.2483L82.4375 78.986L82.75 78.7763L83.375 78.514L85.25 78.1469L88.5 77.6224L92.625 76.993L97.75 76.2588L99.5 76.049L100.75 75.9441Z" fill="white"/>
<path d="M79.0625 79.3531L79.625 79.5105L80.0625 79.8776L80.5 80.6119L80.6875 81.1364V81.8706L80.5 82.6573L80.3125 82.972L80 83.1818L79.375 83.3392L75.375 84.0734L71.75 84.6504L64.0625 85.8042L62.1875 86.014H61.25L60.8125 85.8566L60.5 85.6469L59.9375 84.965L59.75 84.4406V83.6014L59.8125 82.7098L60.0625 82.3951L60.6875 82.1329L62 81.8182L65.1875 81.2413L71.4375 80.2972L74.75 79.8252L77.0625 79.5105L79.0625 79.3531Z" fill="white"/>
<path d="M55.9375 82.7622H56.9375L57.5 83.0769L58 83.5489L58.5 84.3881V84.6503H58.625L58.5 85.2272L58.25 86.014L57.875 86.486L57.1875 86.6958L53.1875 87.43L48.625 88.1643L41.75 89.2133L39.3125 89.5279H38.5625L38.125 89.1084L37.75 88.5314L37.4375 88.1119L37.25 87.6398V87.0629L37.5625 86.1189L37.875 85.7517L38.3125 85.5419L41.125 85.0175L44.25 84.493L49.625 83.6538L52.75 83.1818L54.9375 82.8671L55.9375 82.7622Z" fill="white"/>
<path d="M33.625 86.3286H34.3125L34.875 86.5909L35.5 87.0629L35.875 87.5874L36 88.0594V89.0559L35.8125 89.6853L35.4375 90.1048L34.8125 90.3671L33.625 90.6293L29.8125 91.2062L26.875 91.6783L19.9375 92.6748L18.125 92.8846L17.4375 92.937H16.5L16.0625 92.7797L15.625 92.4125L15.125 91.6258L15 91.3111L14.9375 90.5769L15.0625 90.1048L15.375 89.5804L15.875 89.2132L16.6875 88.951L18.0625 88.6888L22.625 87.9545L26.25 87.43L28.625 87.0629L33.125 86.4335L33.625 86.3286Z" fill="white"/>
<path d="M142.937 16.2063H143V62.1504L142.812 62.0979L142.687 61.5734V60.4196L142.75 59.4231V40.2797H142.687L142.625 25.2273V22.8671L142.687 22.4476H142.75L142.812 16.3636L142.937 16.2063ZM142.75 25.4895V27.2727H142.812V25.4895H142.75Z" fill="white"/>
<path d="M59.75 9.65039H106.375V9.70284H59.75V9.65039Z" fill="white"/>
<path d="M17.5 110.245L17.6875 110.297V110.35H17.25L17.5 110.245Z" fill="white"/>
<path d="M142.562 34.6154H142.625V34.9825H142.562V34.6154Z" fill="white"/>
</svg>
