<svg width="68" height="45" viewBox="0 0 68 45" fill="none" xmlns="http://www.w3.org/2000/svg">
<g clip-path="url(#clip0_1_1287)">
<path d="M5.0127 0H53.9297L54.6499 0.0576172L55.2261 0.172852L55.9175 0.40332L56.6665 0.806641L57.041 1.09473L57.4155 1.41162L57.7036 1.69971L58.0205 2.10303L58.2222 2.39111L58.6255 3.16895L58.856 3.91797L58.9424 4.3501L59 4.75342V34.8296L58.856 35.665L58.5967 36.5005L58.1934 37.2495L57.8477 37.7104L57.502 38.1138L57.2139 38.373L56.9258 38.6035L56.5225 38.8628L55.8599 39.2085L55.1396 39.439L54.6787 39.5254L54.1313 39.583L53.5264 39.6118H5.67529L4.78223 39.583L4.0332 39.4966L3.19775 39.2373L2.73682 39.0068L2.21826 38.7188L1.84375 38.4019L1.52686 38.1426L1.20996 37.7969L0.835449 37.3071L0.489746 36.6733L0.345703 36.3564L0.115234 35.6074L0 34.8872V4.63818L0.144043 3.88916L0.345703 3.22656L0.576172 2.73682L0.864258 2.24707L1.06592 1.98779L1.38281 1.61328L1.58447 1.38281L1.87256 1.15234L2.24707 0.864258L2.73682 0.576172L3.22656 0.345703L3.86035 0.144043L4.3501 0.0576172L5.0127 0Z" fill="#DCF9FF"/>
<path d="M6.77002 8.75781H25.3228L25.3516 8.78662V30.105L25.3228 30.1338H6.79883L6.77002 30.105L6.74121 28.3188V13.4248L6.62598 13.0503L6.39551 12.791L6.16504 12.6758L5.90576 12.6182L5.87695 12.5894V10.8608L6.33789 10.7168L6.59717 10.4863L6.7124 10.1982L6.74121 10.0254L6.77002 8.75781Z" fill="#FEFEFB"/>
<path d="M5.0127 0H53.9297L54.6499 0.0576172L55.2261 0.172852L55.9175 0.40332L56.6665 0.806641L57.041 1.09473L57.4155 1.41162L57.7036 1.69971L58.0205 2.10303L58.2222 2.39111L58.6255 3.16895L58.856 3.91797L58.9424 4.3501L59 4.75342V34.8296L58.856 35.665L58.5967 36.5005L58.1934 37.2495L57.8477 37.7104L57.502 38.1138L57.2139 38.373L56.9258 38.6035L56.5225 38.8628L55.8599 39.2085L55.1396 39.439L54.6787 39.5254L54.1313 39.583L53.5264 39.6118H5.67529L4.78223 39.583L4.0332 39.4966L3.19775 39.2373L2.73682 39.0068L2.21826 38.7188L1.84375 38.4019L1.52686 38.1426L1.20996 37.7969L0.835449 37.3071L0.489746 36.6733L0.345703 36.3564L0.115234 35.6074L0 34.8872V4.63818L0.144043 3.88916L0.345703 3.22656L0.576172 2.73682L0.864258 2.24707L1.06592 1.98779L1.38281 1.61328L1.58447 1.38281L1.87256 1.15234L2.24707 0.864258L2.73682 0.576172L3.22656 0.345703L3.86035 0.144043L4.3501 0.0576172L5.0127 0ZM4.89746 1.75732L4.40771 1.81494L3.83154 1.98779L3.3418 2.24707L3.0249 2.47754L2.73682 2.73682L2.53516 2.93848L2.30469 3.25537L2.04541 3.71631L1.84375 4.32129L1.75732 4.86865V34.6855L1.81494 35.1465L1.98779 35.7515L2.30469 36.3564L2.53516 36.6445L2.79443 36.9326L3.16895 37.2495L3.62988 37.5088L3.86035 37.624L4.3501 37.7681L4.72461 37.8257L5.07031 37.8545H53.9297L54.4771 37.7969L55.0244 37.6528L55.3413 37.5088L55.7158 37.3071L56.0903 37.019L56.3208 36.8174L56.6377 36.4141L56.8105 36.126L57.041 35.6362L57.1851 35.1465L57.2427 34.6279V4.98389L57.1851 4.46533L57.041 3.94678L56.7529 3.3418L56.4648 2.96729L56.2056 2.6792L55.8311 2.3623L55.3413 2.07422L54.7939 1.87256L54.4194 1.78613L54.1602 1.75732H4.89746Z" fill="#479BB5"/>
<path d="M8.90186 7.32031H22.8452L26.3311 7.34912L26.6191 7.43555L26.8496 7.6084L27.0225 7.83887L27.1089 8.09814V31.4331L27.0225 31.75L26.8496 31.9805L26.6768 32.1245L26.3887 32.2397L20.4829 32.2686H11.8691L5.79053 32.2397L5.50244 32.1533L5.27197 31.9805L5.12793 31.8076L5.0415 31.606L5.0127 31.4331L4.98389 28.1777V17.9219L5.0127 13.7158L5.12793 13.3989L5.38721 13.1108L5.61768 12.9956L5.73291 12.9668H6.0498L6.33789 13.082L6.56836 13.2837L6.68359 13.4565L6.77002 13.7734V28.6675L6.79883 30.4536H25.3228V9.13525L6.77002 9.10645V10.374L6.68359 10.7197L6.56836 10.8926L6.33789 11.0942L5.96338 11.2095H5.76172L5.44482 11.0942L5.18555 10.8638L5.07031 10.6333L5.0127 10.374V8.15576L5.09912 7.83887L5.27197 7.6084L5.50244 7.43555L5.64648 7.37793L5.81934 7.34912L8.90186 7.32031Z" fill="#479BB5"/>
<path d="M31.4014 12.3203H52.5757L53.5264 12.3491L53.8145 12.4644L53.9585 12.5796L54.1313 12.8389L54.2178 13.0981V13.3286L54.1025 13.6455L53.9297 13.876L53.6416 14.0488L53.4111 14.1064H31.3726L31.0557 14.0488L30.7676 13.876L30.5947 13.6455L30.5083 13.4438V13.0117L30.6235 12.7236L30.7676 12.5796L30.998 12.4067L31.1709 12.3491L31.4014 12.3203Z" fill="#479BB5"/>
<path d="M33.0146 25.0249H49.8389L53.4688 25.0537L53.7856 25.1689L54.0161 25.3706L54.1602 25.6011L54.2178 25.8027V26.0332L54.1025 26.3501L53.9009 26.6094L53.6704 26.7534L53.4399 26.811H31.2861L31.0557 26.7534L30.7964 26.6094L30.6235 26.4077L30.5083 26.1484V25.7163L30.6235 25.4282L30.854 25.1978L31.0845 25.0825L31.1997 25.0537L33.0146 25.0249Z" fill="#479BB5"/>
<path d="M34.4263 18.6582H40.5049L44.9702 18.687L45.3159 18.7734L45.5752 18.9751L45.748 19.2632L45.8057 19.436V19.6953L45.6904 19.9834L45.5752 20.1562L45.3735 20.3291L45.1143 20.4443L44.855 20.4731H31.6318L31.1997 20.4443L30.854 20.3003L30.6523 20.0986L30.5371 19.8682L30.5083 19.7817V19.3784L30.5947 19.1479L30.71 18.9751L30.9692 18.7734L31.1133 18.7158L31.2861 18.687L34.4263 18.6582Z" fill="#479BB5"/>
<path d="M48.3696 18.687H53.2959L53.6416 18.7446L53.9297 18.9175L54.1025 19.1479L54.2178 19.436V19.6953L54.1313 19.9546L53.9585 20.1851L53.7856 20.3291L53.5264 20.4443L53.2671 20.4731H48.9746L48.2832 20.4443L47.9663 20.3291L47.7358 20.1274L47.563 19.7817V19.3784L47.6782 19.0903L47.8223 18.9175L48.0815 18.7446L48.3696 18.687Z" fill="#479BB5"/>
<path d="M56.6089 36.3276L56.6377 36.4141L56.3784 36.731L56.2056 36.9326L55.8022 37.2495L55.5142 37.4224L55.3989 37.3936L55.7158 37.1919L55.8599 37.1343V37.0479L56.0327 36.9902V36.9326L56.1768 36.8174L56.2056 36.7598H56.2632V36.7021L56.4072 36.5581H56.4648V36.4717L56.6089 36.3276Z" fill="#FDE065"/>
<path d="M26.043 6.94287H26.3599L26.5615 7.00049L26.5903 7.05811L26.3311 7.0293L26.043 6.97168V6.94287Z" fill="#FEE266"/>
<rect x="50" y="26.3203" width="17" height="18" fill="#FF6666"/>
<rect x="49" y="24.3203" width="19" height="2" fill="#FF6666"/>
<ellipse cx="58.5" cy="24.5" rx="3.5" ry="2.5" fill="#FF6666"/>
<path d="M55 28.3203L55 41.3203" stroke="#FF8A8A" stroke-linecap="round"/>
<path d="M58 28.3203L58 41.3203" stroke="#FF8A8A" stroke-linecap="round"/>
<path d="M61 28.3203L61 41.3203" stroke="#FF8A8A" stroke-linecap="round"/>
<path d="M17.9952 11L22.4302 19.9916L13.1077 29L17.9952 11Z" fill="#55B246"/>
<path d="M14.8875 11L19.3225 19.9916L10 29L14.8875 11Z" fill="#F37820"/>
</g>
<defs>
<clipPath id="clip0_1_1287">
<rect width="68" height="44.3203" fill="white"/>
</clipPath>
</defs>
</svg>
