<svg width="93" height="93" viewBox="0 0 93 93" fill="none" xmlns="http://www.w3.org/2000/svg">
<g clip-path="url(#clip0_1_428)">
<circle cx="46.5" cy="46.5" r="45" stroke="#515151" stroke-width="3"/>
<path d="M36.2525 48.1099H36.7175L37.1244 48.3424L37.415 48.6911L37.5312 48.9236L37.5894 49.6211L37.3569 50.2024L36.95 50.6674L36.3106 51.1324L34.7413 52.0042L33.8112 52.4692L32.1256 53.283L30.5563 53.9224L28.7544 54.5617L27.5919 55.0267L27.0106 55.3755L26.6037 55.7824L26.0806 56.7705L25.8481 57.6424L25.6737 58.6305L25.4994 60.7811V61.7111L25.5575 62.4667L25.79 63.1061L26.1969 63.5711L26.9525 64.0361L28.8125 64.8499L30.44 65.4311L32.4163 66.0124L34.0437 66.4192L36.1944 66.8261L38.345 67.1167L39.6819 67.233L42.2394 67.3492H43.8088L46.4244 67.233L48.9819 66.9424L49.8538 66.8261L49.1562 65.6636L48.5169 64.2105L48.11 62.9899L47.8775 61.9436L47.7612 61.0717V59.3861L47.9356 58.1074L48.3425 56.8286L48.6912 55.9567L49.1562 55.0267L49.505 54.4455L50.2606 53.4574L50.7838 52.8761L51.2488 52.353V52.1786L49.9119 51.423L49.3888 51.0161L48.9237 50.6674L48.575 50.3767L48.3425 50.028L48.2844 49.8536V49.2724L48.5169 48.6911L48.9819 48.2842L49.1562 48.2261H49.6213L50.3188 48.4586L51.4813 49.0399L52.7019 49.7374L53.3994 50.1442L53.7481 50.2605L54.3294 50.2024L56.0731 49.7955L57.2356 49.6211L58.9212 49.563L60.6069 49.6792L61.7113 49.9117L62.6994 50.2605L63.6294 50.7255L64.3269 51.1324L65.315 51.8299L65.8963 52.353L66.7681 53.2249L67.4656 54.1549L67.9888 55.0267L68.4538 55.9567L68.8025 56.8867L69.035 58.0492L69.0931 58.6886V60.8392L69.035 62.118L68.8025 63.6874L68.4538 64.7336L67.9888 65.6636L67.4656 66.5355L66.8263 67.3492L66.1869 68.0467L65.78 68.4536L65.0244 69.0349L64.4431 69.4417L63.455 69.9649L62.3506 70.3717L61.1881 70.6042L60.1419 70.7205L59.27 70.7786H57.1775L55.6663 70.6042L54.6781 70.3717L53.8062 70.023L52.9344 69.6161L52.2369 69.2674H51.6556L50.4931 69.4999L47.18 69.8486L44.7969 70.023L43.5181 70.0811H41.1931L39.3331 69.9649L36.4269 69.6161L34.9156 69.3836L33.4625 69.093L31.5444 68.628L29.8006 68.1049L27.3594 67.233L25.8481 66.5936L24.6275 65.9542L23.9881 65.4892L23.5231 65.0242L23.2906 64.443L23.1163 63.3967L23 61.653V59.7349L23.1744 57.6424L23.4069 56.1892L23.6975 55.3174L24.0462 54.678L24.6275 53.9224L25.2669 53.283L26.0225 52.7599L27.2431 52.1786L29.51 51.3649L31.5444 50.493L32.765 49.9117L33.7531 49.4467L35.09 48.6911L35.9619 48.2261L36.2525 48.1099ZM58.805 51.5974L57.3519 51.7136L56.1894 51.9461L55.2594 52.2949L54.4456 52.7017L53.6319 53.2249L52.7019 53.9224L52.0044 54.5617L51.4231 55.3755L50.8419 56.3636L50.2606 57.7586L50.0281 58.6886L49.9119 59.6186V61.188L50.0863 62.4667L50.3769 63.3967L50.8419 64.3267L51.365 65.2567L52.0625 66.0124L52.5275 66.4774L53.1669 67.0005L54.0387 67.6399L54.9106 68.163L56.015 68.6861L57.0612 68.9767L58.0494 69.093H59.2119L60.2581 68.9767L61.2463 68.7442L62.1181 68.3955L63.1644 67.8142L63.9781 67.233L64.7337 66.5936L65.1406 66.1867L65.6637 65.5474L66.1869 64.7917L66.5938 63.978L67.0006 62.7574L67.2331 61.5367L67.2913 61.188L67.3494 60.0255L67.2331 58.8049L66.9425 57.5842L66.5938 56.7124L66.0125 55.6661L65.4313 54.8524L64.6175 53.9805L63.8037 53.283L62.8156 52.6436L61.4788 52.0042L60.7231 51.7717L59.9675 51.6555L58.805 51.5974Z" fill="#494949"/>
<path d="M42.8787 23L44.448 23.0581L45.843 23.2325L46.9474 23.5231L47.9355 23.93L48.8655 24.5113L49.5049 24.9763L50.2024 25.6156L50.8418 26.3131L51.5393 27.3594L52.0043 28.2313L52.5274 29.6263L52.818 30.6725L52.9924 31.7188L53.1087 33.1138V36.1944L52.9924 37.7638L52.7599 39.4494L52.4693 40.7281L51.888 42.4719L51.2487 43.8088L50.6674 44.6225L50.028 45.3781L49.563 45.9013L49.098 46.3081L48.3424 46.8894L47.238 47.4706L45.843 47.9356L44.6224 48.1681L43.3437 48.2844H41.8905L40.4955 48.11L39.3912 47.8194L38.4612 47.4125L37.6474 46.9475L36.8918 46.4244L36.0199 45.6106L35.4387 44.9131L34.683 43.7506L34.218 42.8206L33.5787 41.1931L33.1718 39.7981L32.9393 38.6356L32.7649 37.1825L32.7068 36.2525V33.5206L32.823 32.1256L32.9974 30.905L33.2299 29.9169L33.6949 28.58L34.1599 27.5919L34.7412 26.6619L35.2643 26.0225L36.0199 25.2669L36.6012 24.7438L37.473 24.1625L38.2868 23.7556L39.333 23.4069L40.5537 23.1744L41.5999 23.0581L42.8787 23ZM42.2393 25.5575L40.9605 25.7319L40.0887 25.9644L39.2168 26.3131L38.403 26.8363L37.8218 27.3594L37.1243 28.0569L36.4849 29.1613L36.0199 30.3238L35.6712 31.6606L35.4387 33.23L35.3805 33.8694V36.4269L35.613 38.1706L35.9037 39.5656L36.3687 41.0769L37.1243 42.53L37.5893 43.1694L38.2287 43.8669L38.8099 44.39L39.5655 44.855L40.4955 45.2619L41.4837 45.4944L41.8905 45.5525H43.9249L45.1455 45.32L45.9593 45.0294L46.8893 44.5063L47.4705 44.0413L47.8774 43.6925L48.4005 43.0531L49.098 41.9488L49.3887 41.3675L49.8537 39.8563L50.2024 38.2288L50.3768 36.7175L50.4349 35.6713V34.3344L50.3187 32.5325L50.0862 31.0794L49.7374 29.9169L49.2724 28.9869L48.8074 28.1731L48.1099 27.4175L47.5287 26.8944L46.773 26.4294L45.843 26.0225L44.8549 25.7319L43.6924 25.5575H42.2393Z" fill="#494949"/>
<path d="M58.8481 57.9526H59.6038L59.8944 58.0689L60.0106 58.2433V58.9408L59.8363 60.3358L59.6038 61.4983L59.255 62.8933L59.0225 64.4045L59.255 64.5208L60.5919 64.6951L60.8825 64.8695L60.9988 65.0439V65.5089L60.7663 65.8576L60.4175 66.1483L59.0806 66.7876L58.3831 67.0783L58.1506 67.1364H57.3369L56.93 66.9039L56.8719 66.7876V65.9739L57.1044 64.4626L57.395 63.0676L57.6856 61.6145L57.7438 60.917L56.6975 60.7426L56.1744 60.5683L56 60.3939V59.9289L56.1744 59.6383L56.6394 59.2314L57.4531 58.7083L58.3831 58.127L58.8481 57.9526Z" fill="#494949"/>
<circle cx="59" cy="56" r="1" fill="#494949"/>
</g>
<defs>
<clipPath id="clip0_1_428">
<rect width="93" height="93" fill="white"/>
</clipPath>
</defs>
</svg>
