<svg width="93" height="93" viewBox="0 0 93 93" fill="none" xmlns="http://www.w3.org/2000/svg">
<g clip-path="url(#clip0_1_423)">
<circle cx="46.5" cy="46.5" r="46.5" fill="#464646"/>
<path d="M45.1558 19H47.5728V19.0269L48.5396 19.1611L49.6406 19.376L50.2046 19.5371L51.3057 19.9131L52.2456 20.3696L52.6753 20.5845L53.3198 20.9873L53.6958 21.2559L54.0449 21.5513L54.3135 21.7661L54.582 22.0078L55.0386 22.4644L55.2266 22.6792L55.4683 22.9478L55.8442 23.458L56.1934 23.9414L56.5156 24.4785L56.8379 25.0962L57.0527 25.5527L57.3481 26.3047L57.6167 27.1372L57.8315 27.9966L58.0195 29.0171L58.127 29.8765L58.2344 31.2461L58.2881 32.2935V33.7974L58.2344 34.9521L58.1001 36.4829L57.9658 37.4229L57.751 38.5508L57.4556 39.7324L57.1064 40.8335L56.811 41.5854L56.5425 42.2031L56.0859 43.1162L55.7905 43.5996L55.4414 44.1367L55.1997 44.459L54.9043 44.835L54.6089 45.1841L54.2866 45.5332L53.8569 45.9629L53.5615 46.2046L53.2124 46.5L52.7559 46.8223L52.165 47.1982L51.5474 47.5205L50.9834 47.7891L50.1777 48.0845L49.3989 48.2993L48.5664 48.4604L47.8145 48.5679L47.1699 48.6216L46.6865 48.6484H46.0688L45.1558 48.5947L44.3501 48.4873L43.625 48.353L42.7119 48.1113L41.8257 47.7891L41.1543 47.4668L40.5903 47.1714L39.7847 46.6343L39.5161 46.4194L39.167 46.124L38.8716 45.8823L38.4688 45.4795V45.4258H38.415L38.2271 45.2109L37.9048 44.835L37.6094 44.459L37.2603 43.9756L36.9648 43.4922L36.75 43.1431L36.3472 42.3643L36.1055 41.854L35.7563 40.9678L35.4341 40.001L35.1655 39.0073L34.9775 38.1211L34.8164 37.2349L34.6821 36.1875L34.5479 34.6299L34.521 34.0122V32.0786L34.6016 30.7358L34.709 29.5811L34.8433 28.6411L35.0581 27.6475L35.2729 26.8687L35.5952 25.9287L35.8906 25.2573L36.2666 24.5054L36.6426 23.8877L37.0723 23.3237L37.2871 23.0283L37.6094 22.6255H37.6631L37.7168 22.5181L38.4688 21.7661L38.8447 21.4707L39.2744 21.1216L40.1606 20.5576L40.8857 20.1816L41.3423 19.9668L42.0405 19.6982L42.7925 19.4565L43.437 19.2954L44.3501 19.1343L45.1021 19.0269L45.1558 19ZM46.0957 22.0884L45.2632 22.1421L44.377 22.2764L43.7324 22.4106L43.0342 22.6255L42.4971 22.8403L41.8794 23.1357L41.2617 23.5117L40.9126 23.7803L40.4829 24.1294L39.8921 24.7202L39.6235 25.0693L39.3013 25.499L39.0327 25.9556L38.791 26.3853L38.4688 27.1104L38.1733 27.9966L38.0122 28.6411L37.8242 29.6079L37.6899 30.9775L37.6094 32.186V34.0122L37.7168 35.5698L37.8779 36.7783L38.0391 37.7451L38.2271 38.5239L38.415 39.1953L38.6836 40.001L38.9521 40.6455L39.2744 41.3169L39.543 41.8003L39.9189 42.3911L40.2144 42.7671L40.5903 43.2236L41.1006 43.7339L41.4766 44.0293L41.8257 44.2979L42.2285 44.5396L42.7925 44.835L43.4907 45.1035L44.0547 45.2646L44.6455 45.3989L45.478 45.5063L45.8809 45.5332H46.8745L47.5459 45.4795L48.271 45.3721L48.9424 45.2109L49.748 44.9424L50.5269 44.5664L51.0371 44.2441L51.3594 44.0024L51.7085 43.707L51.9233 43.519L52.2456 43.1968V43.1431L52.3262 43.1162L52.6753 42.6597L52.9976 42.23L53.4541 41.478L53.8032 40.7798L54.0986 40.0547L54.3403 39.3833L54.6089 38.4165L54.7969 37.584L55.0386 35.9727L55.0923 35.543L55.1729 34.3613L55.1997 33.6094V32.5889L55.1191 31.1655L55.0117 29.957L54.9312 29.3931L54.7432 28.4263L54.4478 27.4326L54.1255 26.6538L53.9106 26.2241L53.6152 25.687L53.293 25.2305L52.9976 24.8545L52.6753 24.5054L52.3262 24.1562L52.0308 23.9146L51.7622 23.6997L51.2251 23.3506L50.7417 23.082L50.2314 22.8403L49.5869 22.5986L48.9424 22.4106L47.7876 22.1958L46.9282 22.1152L46.5254 22.0884H46.0957Z" fill="#E6A32E"/>
<path d="M38.4419 48.6484H38.8716L39.1938 48.729L39.543 48.917L39.8384 49.1855L40.0801 49.5615L40.1875 49.9106V50.4746L40.0801 50.8237L39.8384 51.1997L39.5967 51.4414L39.0596 51.7905L38.5493 52.1128L37.7974 52.5693L37.126 52.9453L36.3472 53.375L35.7026 53.6973L35.2461 53.939L34.4941 54.2881L33.5273 54.7178L33.0171 54.9326L31.9429 55.3354L31.2178 55.604L29.9824 55.98L29.2573 56.1948L28.8276 56.356L28.3174 56.6245L27.9951 56.8662L27.7266 57.1079L27.5386 57.2959L27.1895 57.7793L27.0015 58.0747L26.7061 58.7461L26.4912 59.4443L26.3569 60.062L26.2495 60.7871L26.1689 61.8345L26.1421 62.291V64.0098L26.1958 65.0303L26.2764 65.8359L26.3569 66.3999L26.5181 66.4536L27.1089 66.7759L27.7534 67.0713L28.1831 67.2861L28.7202 67.5278L29.9019 68.0112L30.7344 68.3335L32.48 68.9243L33.1514 69.1392L34.4673 69.4883L35.5684 69.7837L36.7769 70.0522L37.8779 70.2671L39.167 70.4819L40.7515 70.6968L42.0405 70.8311L43.4907 70.9385L45.0483 71.019H47.707L49.3452 70.9385L50.5269 70.8579L52.1382 70.6968L53.9106 70.4551L55.6025 70.1597L57.187 69.8105L59.7114 69.1392L61.0273 68.7095L62.2896 68.2798L63.6055 67.7427L64.25 67.4741L65.0557 67.0981L65.7271 66.7759L66.3984 66.4268L66.479 66.3999L66.5864 65.5405L66.6401 64.9497L66.667 64.4663L66.6938 63.5532V62.6133L66.6401 61.5122L66.5327 60.4648L66.3984 59.686L66.2104 59.0146L66.0225 58.5044L65.7539 57.9404L65.4316 57.4839L65.2168 57.2153L64.9751 56.9736L64.5723 56.6782L64.1426 56.4365L63.6323 56.2217L61.7524 55.6577L60.9199 55.3623L60.1411 55.0669L59.4697 54.7983L58.5029 54.3687L57.9658 54.127L56.2471 53.2676L55.7637 52.999L55.0923 52.623L54.3403 52.1665L53.8301 51.8442L53.2393 51.4414L52.9438 51.146L52.7827 50.8774L52.6753 50.6089L52.6216 50.2866L52.6484 49.9106L52.7827 49.5078L52.9438 49.2661L53.1855 48.9976L53.481 48.8096L53.7495 48.7021L54.0718 48.6484L54.5015 48.6753L54.8237 48.7827L55.1997 48.9976L55.6025 49.2661L55.9517 49.481L56.5156 49.8032L57.2139 50.2061L57.7778 50.5283L58.5029 50.9043L59.3086 51.3071L61.0273 52.0591L61.9673 52.4082L62.4507 52.5962L63.1489 52.811L64.3306 53.1602L65.002 53.4019L65.6196 53.6704L66.2642 54.0464L66.6401 54.3149L66.9893 54.5835L67.2041 54.7983L67.4189 54.9863L67.6875 55.2817L67.9829 55.6577L68.2515 56.0337L68.4932 56.4365L68.7886 57.0005L69.0571 57.6719L69.2451 58.2896L69.46 59.0684L69.6479 60.1694L69.7285 60.9214L69.8091 62.1836V64.3052L69.7554 65.2183L69.6479 66.2656L69.5405 66.9907L69.4062 67.5815L69.2451 68.0381L69.084 68.3066L68.8423 68.5752L68.5469 68.79L67.9292 69.1392L67.1772 69.542L66.7476 69.7568L66.0225 70.106L65.2705 70.4551L64.4648 70.7773L62.9341 71.3682L62.2627 71.6099L61.1348 71.9858L59.4697 72.4692L57.6167 72.9258L55.9248 73.2749L54.1523 73.5703L52.9976 73.7314L51.3325 73.9194L49.2915 74.0806L48.835 74.1074L48.6738 74.1343H43.7324V74.1074L42.8999 74.0269L41.2349 73.8926L39.8384 73.7314L38.5225 73.5435L37.2065 73.3286L35.2192 72.9258L33.4736 72.4961L31.728 71.9858L30.251 71.5024L28.8813 70.9653L28.0488 70.6431L27.4849 70.4014L26.5718 69.9717L25.8198 69.6226L25.0679 69.2197L24.4502 68.8706L24.1011 68.6289L23.8594 68.4141L23.6177 68.0381L23.4028 67.3936L23.2686 66.7759L23.1611 65.9702L23.0806 65.2451L23.0269 64.3857L23 63.7144V62.6133L23.0537 61.4585L23.1343 60.5186L23.2954 59.4443L23.4565 58.7192L23.7788 57.645L24.0742 56.9199L24.3965 56.3291L24.665 55.8994L24.9873 55.4697L25.3096 55.0938L25.8198 54.5835L26.1689 54.3149L26.6255 53.9927L27.2969 53.6167L28.1294 53.2676L29.3647 52.8916L30.251 52.623L31.6206 52.1128L32.3457 51.8174L33.1782 51.4414L33.7153 51.1997L34.7896 50.6626L35.2729 50.394L35.9175 50.0181L36.5889 49.6421L37.126 49.3198L37.7437 48.917L38.1733 48.7021L38.4419 48.6484Z" fill="#E6A32E"/>
</g>
<defs>
<clipPath id="clip0_1_423">
<rect width="93" height="93" fill="white"/>
</clipPath>
</defs>
</svg>
