<svg width="292" height="160" viewBox="0 0 292 160" fill="none" xmlns="http://www.w3.org/2000/svg">
<g clip-path="url(#clip0_1_435)">
<path d="M222.418 0L223.954 0.163099L225.336 1.14169L225.951 1.95719L226.258 2.77268L226.104 4.24057L225.183 5.54536L223.8 6.52396H222.264L221.342 6.03466L220.114 4.56677L219.806 3.75127L219.96 2.28338L220.882 0.978593L221.65 0.326198L222.418 0Z" fill="#DBC3AB"/>
<path d="M222.418 85.4638L223.954 85.6269L224.875 86.2793L225.951 87.5841L226.258 88.3996L226.104 89.7044L225.183 91.0092L223.954 91.9878L222.878 92.1509L221.65 91.6616L220.421 90.5199L219.806 89.2151L219.96 87.7472L220.882 86.4424L221.65 85.79L222.418 85.4638Z" fill="#DBC3AB"/>
<path d="M68.507 0L70.043 0.163099L71.5791 1.30479L72.1935 2.44648V3.91437L71.5791 5.21916L70.1966 6.36086L69.8894 6.52396H68.3534L67.1246 5.87156L66.203 4.56677L65.8958 4.07747V2.60958L66.5102 1.46789L67.8926 0.163099L68.507 0Z" fill="#DBC3AB"/>
<path d="M178.487 85.4638L180.023 85.6269L181.406 86.6055L182.174 87.7472L182.327 89.2151L181.713 90.5199L180.33 91.8247L179.716 92.1509L178.334 91.9878L176.951 91.0092L176.03 89.5413V87.9103L176.951 86.4424L177.719 85.79L178.487 85.4638Z" fill="#DBC3AB"/>
<path d="M156.522 85.4638L158.058 85.6269L158.98 86.2793L160.208 87.7472L160.362 89.2151L159.287 91.0092L157.904 91.9878L156.983 92.1509L155.6 91.6616L154.371 90.3568L153.911 89.2151L154.064 87.7472L154.986 86.4424L155.754 85.79L156.522 85.4638Z" fill="#DBC3AB"/>
<path d="M134.557 85.4638L135.939 85.6269L137.321 86.6055L138.089 87.7472L138.243 89.2151L137.475 90.683L136.4 91.6616L135.632 92.1509L134.249 91.9878L132.867 91.0092L131.945 89.5413L131.792 89.2151V88.2365L132.713 86.6055L133.635 85.79L134.557 85.4638Z" fill="#DBC3AB"/>
<path d="M68.3534 85.4638H69.4287L70.5039 85.9531L71.7327 87.0948L72.1935 88.0734V89.5413L71.2719 91.0092L70.0431 91.9878L68.8143 92.1509L67.4318 91.4985L66.3566 90.3568L65.8958 89.5413L65.7422 88.5627L66.5102 86.9317L67.5854 85.79L68.3534 85.4638Z" fill="#DBC3AB"/>
<path d="M24.5766 85.4638L26.1126 85.6269L27.4951 86.6055L28.1095 87.421L28.4167 88.8889L27.9559 90.1937L27.0342 91.3354L26.1126 91.9878L25.0374 92.1509L23.8086 91.6616L22.7333 90.683L21.9653 89.2151V88.0734L22.887 86.6055L23.8086 85.79L24.5766 85.4638Z" fill="#DBC3AB"/>
<path d="M222.725 68.3384L224.107 68.6646L225.029 69.317L225.951 70.4587L226.258 71.2742L226.104 72.579L225.183 73.8838L224.261 74.6993L223.954 74.8624H222.11L220.882 74.0469L219.96 72.7421L219.806 71.4373L220.267 70.1325L221.342 68.8277L222.725 68.3384Z" fill="#DBC3AB"/>
<path d="M68.6606 68.3384L70.1966 68.6646L71.4255 69.6432L72.0399 70.4587L72.1935 70.948V72.4159L71.4255 73.7207L70.043 74.8624L68.9678 75.0255L67.2782 74.3731L66.3566 73.2314L65.8958 72.4159V70.948L66.971 69.317L67.739 68.6646L68.6606 68.3384Z" fill="#DBC3AB"/>
<path d="M266.502 85.4638L267.884 85.6269L268.806 86.2793L269.881 87.5841L270.188 88.2365L270.035 89.5413L269.42 90.5199L268.806 91.3354L267.424 92.1509L266.041 91.9878L264.659 91.0092L263.891 89.7044V87.9103L264.505 86.7686L265.58 85.79L266.502 85.4638Z" fill="#DBC3AB"/>
<path d="M111.977 68.5015H113.82L114.895 69.1539L115.971 70.4587L116.124 70.7849V72.4159L115.203 73.8838L113.82 74.8624H112.13L111.055 74.21L110.134 73.0683L109.826 72.4159V70.948L110.748 69.4801L111.67 68.6646L111.977 68.5015Z" fill="#DBC3AB"/>
<path d="M24.1158 0.163086H26.1127L27.3415 0.97858L28.1095 1.95717L28.2631 2.44647V4.07746L27.4951 5.38225L26.1127 6.52394H24.5766L23.3478 5.87155L22.2726 4.56676L21.8118 3.09887L22.5798 1.46788L23.8086 0.326185L24.1158 0.163086Z" fill="#DBC3AB"/>
<path d="M90.7795 85.4638L92.1619 85.6269L93.3908 86.6055L94.3124 88.0734V89.3782L93.2372 91.0092L92.0083 91.9878L90.9331 92.1509L89.7043 91.6616L88.6291 90.683L88.0146 89.3782V87.9103L88.7827 86.6055L90.1651 85.6269L90.7795 85.4638Z" fill="#DBC3AB"/>
<path d="M178.18 68.5015H179.87L181.406 69.4801L182.174 70.6218L182.327 72.0897L181.713 73.3945L180.33 74.6993L179.716 75.0255L178.487 74.8624L177.258 74.21L176.183 72.9052L175.876 71.6004L176.337 70.1325L177.258 68.9908L178.18 68.5015Z" fill="#DBC3AB"/>
<path d="M24.1158 68.5015H25.959L27.1878 69.1539L27.9559 70.1325L28.4167 71.4373L28.1095 72.7421L27.4951 73.7207L26.4198 74.6993L25.6518 75.0255L24.1158 74.6993L23.1942 74.0469L22.2725 72.9052L21.9653 72.2528V70.948L23.0406 69.317L24.1158 68.5015Z" fill="#DBC3AB"/>
<path d="M112.438 85.4638L113.974 85.6269L115.203 86.6055L115.971 87.5841L116.124 88.0734V89.3782L115.356 90.683L114.127 91.8247L113.359 92.1509L111.823 91.8247L110.748 91.0092L109.826 89.5413V88.0734L110.748 86.6055L111.67 85.79L112.438 85.4638Z" fill="#DBC3AB"/>
<path d="M222.571 51.3762L223.954 51.5393L225.183 52.3548L225.951 53.3333L226.258 54.1488L226.104 55.4536L225.49 56.4322L224.261 57.5739L223.954 57.737H221.957L220.882 57.0846L219.96 55.6167L219.806 54.1488L220.574 52.5179L221.803 51.5393L222.571 51.3762Z" fill="#DBC3AB"/>
<path d="M178.794 0L180.33 0.326198L181.559 1.30479L182.174 2.28338L182.327 3.42508L181.867 4.72987L180.945 5.87156L180.023 6.52396H178.487L177.258 5.87156L176.337 4.72987L175.876 3.58818L176.03 2.44648L176.798 1.14169L178.026 0.163099L178.794 0Z" fill="#DBC3AB"/>
<path d="M133.942 0.163086H135.785L137.014 0.815481L137.936 1.95717L138.243 2.77267L138.089 4.07746L137.168 5.54535L135.939 6.52394H134.403L133.174 5.87155L132.099 4.56676L131.792 3.75126L131.945 2.28337L132.867 0.97858L133.942 0.163086Z" fill="#DBC3AB"/>
<path d="M46.5417 85.4638L48.0778 85.6269L49.3066 86.6055L50.0746 87.9103L50.2282 89.052L49.4602 90.683L48.2314 91.8247L47.4633 92.1509L46.2345 91.9878L44.8521 91.0092L43.9305 89.7044L43.7769 88.2365L44.5449 86.9317L45.7737 85.79L46.5417 85.4638Z" fill="#DBC3AB"/>
<path d="M156.215 68.5015H157.904L159.133 69.317L160.055 70.4587L160.362 70.948V72.0897L159.44 73.7207L158.212 74.6993L157.904 74.8624H156.215L154.832 73.8838L154.064 72.7421L153.911 71.2742L154.371 70.1325L155.293 68.9908L156.215 68.5015Z" fill="#DBC3AB"/>
<path d="M24.7302 102.589L26.1127 102.752L27.3415 103.568L28.1095 104.546L28.4167 106.014L27.9559 107.319L27.0343 108.461L25.9591 109.113H24.7302L23.1942 108.298L22.2726 106.993L21.8118 105.688L22.5798 104.057L23.655 102.915L24.7302 102.589Z" fill="#DBC3AB"/>
<path d="M222.571 17.1254L223.954 17.2885L225.336 18.2671L226.104 19.4088L226.258 20.5504L225.797 21.8552L225.029 22.8338L224.107 23.4862L223.646 23.6493H222.571L221.342 23.16L220.114 21.6921L219.806 20.8766L219.96 19.4088L220.882 18.104L221.65 17.4516L222.571 17.1254Z" fill="#DBC3AB"/>
<path d="M266.656 0L268.192 0.326198L269.42 1.30479L270.035 2.28338L270.188 3.42508L269.728 4.72987L268.806 5.87156L267.731 6.52396H266.195L264.966 5.70846L264.044 4.56677L263.737 3.09888L264.044 1.95719L265.273 0.489297L266.656 0Z" fill="#DBC3AB"/>
<path d="M266.041 68.5015H267.731L268.806 69.1539L269.881 70.4587L270.188 71.1111V72.0897L269.267 73.7207L268.345 74.5362L267.731 74.8624H266.041L264.659 73.8838L263.891 72.7421L263.737 71.4373L264.198 70.1325L265.119 68.9908L266.041 68.5015Z" fill="#DBC3AB"/>
<path d="M178.026 51.5392H180.023L180.945 52.0285L181.713 52.844L182.327 54.1488L182.174 55.4536L181.252 56.9215L180.177 57.737L179.255 57.9001L177.873 57.5739L176.951 56.9215L176.337 56.106L175.876 54.8012L176.183 53.3333L176.798 52.3547L178.026 51.5392Z" fill="#DBC3AB"/>
<path d="M68.507 51.3762L70.043 51.5393L71.4255 52.5179L72.0399 53.3333L72.1935 53.8226V55.2905L71.7327 56.2691L70.6575 57.4108L69.5822 57.9001L68.1998 57.737L67.2782 57.2477L66.203 55.9429L65.8958 55.2905V53.8226L66.971 52.1917L67.8926 51.5393L68.507 51.3762Z" fill="#DBC3AB"/>
<path d="M200.606 85.4638L201.835 85.6269L202.91 86.2793L203.832 87.421L204.292 88.3996L204.139 89.3782L203.217 91.0092L201.835 91.9878L200.76 92.1509L199.684 91.6616L198.455 90.5199L197.841 89.2151V88.0734L198.609 86.7686L199.684 85.79L200.606 85.4638Z" fill="#DBC3AB"/>
<path d="M222.418 102.589L223.954 102.752L225.336 103.731L225.951 104.546L226.258 105.525L226.104 106.667L225.49 107.645L224.722 108.461L224.107 108.95L223.646 109.113H222.571L221.189 108.461L220.114 107.156L219.806 106.177L219.96 104.873L220.882 103.568L221.65 102.915L222.418 102.589Z" fill="#DBC3AB"/>
<path d="M134.557 102.589L135.939 102.752L137.321 103.731L137.936 104.546L138.243 105.362V106.34L137.321 107.971L136.093 108.95L135.785 109.113H134.557L133.021 108.298L131.945 106.667L131.792 105.362L132.56 103.894L133.635 102.915L134.557 102.589Z" fill="#DBC3AB"/>
<path d="M134.096 68.5015H135.785L137.321 69.4801L138.243 71.1111L138.089 72.579L137.168 73.8838L135.939 74.8624L135.017 75.0255L133.328 74.3731L132.253 73.0683L131.792 72.0897L131.945 70.7849L132.867 69.317L133.635 68.6646L134.096 68.5015Z" fill="#DBC3AB"/>
<path d="M178.948 17.1254L180.33 17.4516L181.559 18.4302L182.174 19.4088L182.327 20.7135L181.559 22.3445L180.33 23.4862L179.87 23.6493H178.641L177.258 22.9969L176.337 21.8552L175.876 20.7135L176.03 19.4088L176.951 18.104L178.026 17.2885L178.948 17.1254Z" fill="#DBC3AB"/>
<path d="M156.829 0L158.212 0.326198L159.594 1.30479L160.208 2.28338L160.362 3.58818L159.748 4.89297L159.133 5.70846L157.904 6.52396H156.368L155.293 5.87156L154.218 4.56677L153.911 3.75127L154.064 2.28338L154.986 0.978593L156.061 0.163099L156.829 0Z" fill="#DBC3AB"/>
<path d="M200.145 68.5015H201.681L202.91 69.1539L203.832 70.2956L204.292 71.2742L204.139 72.4159L203.064 74.0469L201.835 74.8624L200.913 75.0255L199.531 74.5362L198.609 73.7207L197.841 72.0897V70.948L198.609 69.6432L199.684 68.6646L200.145 68.5015Z" fill="#DBC3AB"/>
<path d="M68.507 17.1254L70.043 17.2885L71.2719 18.2671L72.0399 19.2457L72.1935 19.5718V21.0397L71.7327 22.0183L70.6575 23.16L69.7358 23.6493H68.6606L67.4318 23.16L66.6638 22.3445L65.8958 21.0397V19.5718L66.8174 18.2671L67.739 17.4516L68.507 17.1254Z" fill="#DBC3AB"/>
<path d="M112.591 0L114.127 0.326198L115.356 1.14169L116.124 2.44648V3.91437L115.51 5.05607L114.435 6.19776L113.82 6.52396H112.284L111.362 6.03466L110.287 4.89297L109.826 4.07747V2.60958L110.594 1.30479L111.67 0.326198L112.591 0Z" fill="#DBC3AB"/>
<path d="M156.676 102.589L158.058 102.752L158.98 103.405L160.208 104.873L160.362 106.177L159.594 107.645L158.365 108.787L157.751 109.113H156.522L155.293 108.461L154.218 107.156L153.911 106.34L154.064 104.873L154.679 103.894L155.754 102.915L156.676 102.589Z" fill="#DBC3AB"/>
<path d="M112.591 51.3762L113.974 51.5393L115.356 52.5179L116.124 53.6595V55.2905L115.356 56.5953L114.281 57.5739L113.82 57.737H111.977L111.055 57.0846L110.134 55.9429L109.826 55.4536V53.8226L110.902 52.1917L111.823 51.5393L112.591 51.3762Z" fill="#DBC3AB"/>
<path d="M68.507 102.589L70.0431 102.752L71.5791 103.894L72.1935 105.199V106.504L71.7327 107.482L70.5039 108.787L69.7359 109.113H68.6607L67.2782 108.461L66.203 107.156L65.7422 105.688L66.5102 104.057L67.5854 102.915L68.507 102.589Z" fill="#DBC3AB"/>
<path d="M266.502 51.3762L267.884 51.5393L269.113 52.3548L269.881 53.3333L270.188 54.1488L270.035 55.2905L269.42 56.4322L268.192 57.5739L267.731 57.737H266.041L264.966 57.0846L264.044 55.9429L263.737 54.9643L263.891 53.6595L264.812 52.1917L265.734 51.5393L266.502 51.3762Z" fill="#DBC3AB"/>
<path d="M178.641 102.589L180.023 102.752L181.406 103.731L182.02 104.546L182.327 105.362L182.174 106.83L181.252 108.135L179.87 109.113H178.794L177.566 108.624L176.798 107.971L176.03 106.504V105.036L176.798 103.731L177.719 102.915L178.641 102.589Z" fill="#DBC3AB"/>
<path d="M2.61126 85.4638H3.68648L4.7617 86.1162L5.52972 86.7686L6.14413 87.7472L6.29774 89.2151L5.68332 90.5199L4.30089 91.8247L3.68648 92.1509L2.30405 91.9878L1.38243 91.3354L0.153603 89.8675L0 89.5413V88.0734L0.92162 86.6055L1.84324 85.79L2.61126 85.4638Z" fill="#DBC3AB"/>
<path d="M156.676 51.3762L158.365 51.7024L159.594 52.681L160.362 53.9857L160.208 55.4536L159.287 56.7584L158.519 57.4108L157.904 57.737H156.061L154.832 56.7584L154.064 55.6167L153.911 54.1488L154.525 52.844L155.293 52.0286L155.907 51.5393L156.676 51.3762Z" fill="#DBC3AB"/>
<path d="M24.1158 51.5392H26.1127L27.0343 52.0285L27.8023 52.844L28.2631 53.6595V55.2905L27.6487 56.5953L26.2663 57.737L25.191 57.9001L23.655 57.4108L22.887 56.7584L21.9654 55.1274L21.8118 54.475L22.2726 53.3333L22.887 52.3547L24.1158 51.5392Z" fill="#DBC3AB"/>
<path d="M133.942 17.2885H135.939L137.321 18.267L138.089 19.4087L138.243 20.7135L137.475 22.3445L136.093 23.4862L135.785 23.6493H134.557L133.021 22.8338L132.099 21.529L131.792 20.8766L131.945 19.4087L132.867 18.1039L133.942 17.2885Z" fill="#DBC3AB"/>
<path d="M90.7795 102.589L92.0083 102.752L92.93 103.242L94.0052 104.546L94.3124 105.362V106.34L93.3908 107.971L92.4691 108.787L91.8547 109.113H90.6259L89.0899 108.298L88.1683 106.993L88.0146 106.504V105.036L88.7827 103.731L90.1651 102.752L90.7795 102.589Z" fill="#DBC3AB"/>
<path d="M46.2345 68.5015H47.9241L49.3066 69.4801L50.0746 70.7849L50.2282 72.0897L49.4602 73.5576L48.385 74.5362L47.3097 75.0255L45.9273 74.6993L44.6985 73.7207L43.9305 72.579L43.7769 71.1111L44.5449 69.8063L45.7737 68.6646L46.2345 68.5015Z" fill="#DBC3AB"/>
<path d="M2.76486 68.3384L4.30089 68.6646L5.52972 69.6432L6.14413 70.6218L6.29774 72.0897L5.68332 73.3945L4.6081 74.5362L3.22567 75.0255L1.84324 74.6993L0.614413 73.5576L0 72.4159V70.948L0.92162 69.4801L1.84324 68.6646L2.76486 68.3384Z" fill="#DBC3AB"/>
<path d="M221.957 34.4139H223.954L225.336 35.3925L226.104 36.5342L226.258 37.6759L225.797 38.9806L225.183 39.7961L223.954 40.6116H222.11L221.189 40.1223L220.421 39.3068L219.806 38.0021L219.96 36.5342L220.728 35.2294L221.957 34.4139Z" fill="#DBC3AB"/>
<path d="M199.992 0.163086H201.835L203.371 1.14168L204.139 2.44647L204.292 3.26196L203.832 4.56676L202.756 5.87155L201.835 6.52394H200.299L199.07 5.70845L198.148 4.56676L197.841 3.75126L197.995 2.28337L198.916 0.815481L199.992 0.163086Z" fill="#DBC3AB"/>
<path d="M244.229 68.5015H245.765L246.994 69.1539L248.069 70.4587L248.377 71.9266L247.762 73.2314L246.994 74.21L245.919 74.8624L245.151 75.0255L243.615 74.5362L242.847 73.8838L242.232 72.9052L241.925 71.9266L242.079 70.6218L242.693 69.6432L243.769 68.6646L244.229 68.5015Z" fill="#DBC3AB"/>
<path d="M90.3187 68.5015H92.0083L93.3908 69.4801L94.3124 71.1111V72.2528L93.3908 73.7207L92.3155 74.6993L91.0867 75.0255L89.7043 74.5362L88.6291 73.5576L88.0146 72.4159V70.7849L88.7827 69.4801L89.8579 68.6646L90.3187 68.5015Z" fill="#DBC3AB"/>
<path d="M90.1651 0.163086H92.0084L93.2372 0.97858L94.0052 1.95717L94.3124 2.60957V3.75126L93.8516 4.72985L92.7764 6.03465L92.0084 6.52394H90.4723L89.2435 5.70845L88.1683 4.40366L87.8611 3.26196L88.3219 1.79407L89.0899 0.815481L90.1651 0.163086Z" fill="#DBC3AB"/>
<path d="M178.026 34.4139H180.023L181.252 35.2294L182.02 36.208L182.327 37.0235L182.174 38.3283L181.559 39.4699L180.33 40.4485L180.023 40.6116H178.487L177.258 40.1223L176.337 38.9806L175.876 37.839L176.03 36.5342L176.798 35.2294L178.026 34.4139Z" fill="#DBC3AB"/>
<path d="M24.1158 17.2885H26.1127L27.4951 18.267L28.2631 19.5718V21.2028L27.3415 22.6707L26.1127 23.6493H24.7302L23.5014 22.9969L22.7334 22.1814L21.9654 20.8766L21.8118 20.2242L22.5798 18.5932L23.8086 17.4516L24.1158 17.2885Z" fill="#DBC3AB"/>
<path d="M266.502 102.589L267.884 102.752L269.267 103.731L270.035 105.036L270.188 106.014L269.42 107.645L268.038 108.95L267.577 109.113H266.348L265.119 108.461L264.044 107.156L263.891 106.83V104.873L264.505 103.894L265.58 102.915L266.502 102.589Z" fill="#DBC3AB"/>
<path d="M46.6953 102.589L48.0778 102.752L49.3066 103.731L50.0746 105.036L50.2282 106.177L49.3066 107.971L48.0778 108.95L47.7705 109.113H46.5417L45.3129 108.461L44.5449 107.645L43.9305 106.667L43.7769 105.362L44.3913 104.057L45.7737 102.915L46.6953 102.589Z" fill="#DBC3AB"/>
<path d="M133.942 51.5392H135.939L137.014 52.1916L137.936 53.3333L138.243 54.1488L138.089 55.4536L137.475 56.4322L136.093 57.737L135.017 57.9001L133.481 57.4108L132.713 56.7584L131.945 55.4536L131.792 53.9857L132.713 52.3547L133.942 51.5392Z" fill="#DBC3AB"/>
<path d="M156.829 17.1254L158.212 17.4516L159.44 18.2671L160.362 19.7349L160.208 21.2028L159.594 22.1814L158.365 23.3231L157.751 23.6493H156.522L155.293 22.9969L154.218 21.6921L153.911 20.8766L154.064 19.4088L154.986 18.104L155.754 17.4516L156.829 17.1254Z" fill="#DBC3AB"/>
<path d="M112.591 17.1254L114.127 17.4516L115.049 18.104L115.971 19.2457L116.124 19.5718V21.0397L115.356 22.3445L114.127 23.4862L113.667 23.6493H112.438L111.209 22.9969L109.98 21.529L109.826 21.2028V19.7349L110.441 18.5933L111.67 17.4516L112.591 17.1254Z" fill="#DBC3AB"/>
<path d="M200.606 102.589L201.835 102.752L202.756 103.242L203.985 104.709L204.292 105.525L204.139 106.504L203.064 108.135L202.296 108.787L201.681 109.113H200.452L199.223 108.461L198.148 107.156L197.841 106.34V105.199L198.609 103.731L199.531 102.915L200.606 102.589Z" fill="#DBC3AB"/>
<path d="M112.591 102.589L113.82 102.752L114.895 103.405L115.971 104.709L116.124 105.199V106.504L115.356 107.808L114.281 108.787L113.667 109.113H112.438L111.209 108.461L109.98 106.993L109.826 106.504V105.199L110.441 104.057L111.67 102.915L112.591 102.589Z" fill="#DBC3AB"/>
<path d="M2.76486 0L4.30089 0.326198L5.52972 1.30479L6.29774 2.60958V3.75127L5.68332 5.05607L4.6081 6.19776L3.99369 6.52396H2.45765L1.53603 6.03466L0.46081 4.89297L0 4.07747V2.60958L0.768017 1.30479L1.84324 0.326198L2.76486 0Z" fill="#DBC3AB"/>
<path d="M199.838 51.5392H201.835L203.064 52.1916L203.985 53.4964L204.292 54.1488L204.139 55.2905L203.217 56.7584L201.835 57.737L200.913 57.9001L199.531 57.4108L198.455 56.4322L197.841 55.1274V53.8226L198.763 52.3547L199.838 51.5392Z" fill="#DBC3AB"/>
<path d="M68.0462 34.4139H70.043L71.4255 35.3925L72.1935 36.6973V38.1652L71.7327 39.1437L70.3502 40.4485L70.043 40.6116H68.3534L67.2782 40.1223L66.5102 39.3068L65.8958 38.1652V36.6973L66.8174 35.2294L68.0462 34.4139Z" fill="#DBC3AB"/>
<path d="M244.69 85.4638L245.919 85.6269L247.148 86.4424L248.069 87.5841L248.377 88.8889L247.609 90.5199L246.226 91.8247L245.458 92.1509L243.922 91.8247L242.54 90.5199L241.925 89.052L242.079 87.7472L242.693 86.7686L243.769 85.79L244.69 85.4638Z" fill="#DBC3AB"/>
<path d="M45.9273 51.5392H47.9241L48.8458 52.0285L49.6138 52.844L50.2282 54.1488L50.0746 55.4536L49.153 56.9215L47.9241 57.737L46.8489 57.9001L45.7737 57.5739L44.3913 56.2691L43.7769 55.1274V53.9857L44.6985 52.5178L45.9273 51.5392Z" fill="#DBC3AB"/>
<path d="M2.61126 51.3762L3.99369 51.5393L5.06891 52.1917L6.14413 53.4964L6.29774 53.9857V55.1274L5.68332 56.4322L4.4545 57.5739L4.14729 57.737H2.15045L1.22883 57.0846L0.153603 55.7798L0 55.4536V53.8226L1.07522 52.1917L2.15045 51.5393L2.61126 51.3762Z" fill="#DBC3AB"/>
<path d="M134.096 34.4139H135.939L137.168 35.2294L137.936 36.208L138.243 37.0235L138.089 38.3283L137.168 39.7961L135.939 40.6116H134.403L133.328 40.1223L132.406 39.3068L131.792 38.0021L131.945 36.5342L132.56 35.5556L133.635 34.577L134.096 34.4139Z" fill="#DBC3AB"/>
<path d="M266.502 17.1254L268.192 17.4516L269.42 18.4302L270.188 20.0611L269.881 21.529L268.499 23.16L267.577 23.6493H266.348L265.119 22.9969L264.044 21.6921L263.737 20.2242L264.351 18.5933L265.58 17.4516L266.502 17.1254Z" fill="#DBC3AB"/>
<path d="M243.922 51.5392H245.919L247.148 52.1916L248.069 53.3333L248.377 54.8012L247.609 56.4322L246.38 57.5739L245.151 57.9001L243.922 57.5739L243.001 56.9215L242.079 55.4536L241.925 53.9857L242.54 52.6809L243.615 51.7023L243.922 51.5392Z" fill="#DBC3AB"/>
<path d="M24.1158 34.4139H26.1127L27.3415 35.2294L28.1095 36.208L28.2631 36.6973V38.3283L27.4951 39.633L26.1127 40.6116H24.423L23.1942 39.9592L22.2726 38.6544L21.8118 37.6759L22.2726 36.208L23.3478 34.9032L24.1158 34.4139Z" fill="#DBC3AB"/>
<path d="M199.992 17.2885H201.835L203.371 18.267L204.139 19.5718L204.292 20.5504L203.524 22.1814L202.296 23.3231L201.835 23.6493H200.452L199.223 22.9969L198.148 21.6921L197.841 20.8766V19.7349L198.609 18.4301L199.684 17.4516L199.992 17.2885Z" fill="#DBC3AB"/>
<path d="M244.076 0.163086H245.919L247.455 1.14168L248.223 2.44647L248.377 3.26196L248.069 4.40366L246.841 5.87155L245.919 6.52394H244.537L243.308 5.87155L242.232 4.56676L241.925 3.75126L242.079 2.28337L242.693 1.30478L243.769 0.326185L244.076 0.163086Z" fill="#DBC3AB"/>
<path d="M46.0809 0.163086H47.9241L49.153 0.97858L49.7674 1.79407L50.2282 2.93577L49.921 4.40366L48.9994 5.70845L47.9241 6.52394H46.3881L45.1593 5.70845L44.0841 4.40366L43.7769 3.75126V2.77267L44.6985 1.14168L46.0809 0.163086Z" fill="#DBC3AB"/>
<path d="M244.844 102.589L246.38 102.915L247.609 104.057L248.069 104.709L248.223 105.199V106.504L247.301 107.971L246.38 108.787L245.765 109.113H244.69L243.461 108.624L242.386 107.319L241.925 106.014L242.079 104.873L243.001 103.405L244.076 102.752L244.844 102.589Z" fill="#DBC3AB"/>
<path d="M156.061 34.4139H157.904L159.287 35.2294L160.208 36.5342L160.362 36.8604L160.208 38.3283L159.594 39.3068L158.519 40.2854L157.904 40.6116H156.215L155.139 39.9592L154.218 38.8175L153.911 38.0021L154.064 36.5342L154.986 35.2294L155.754 34.577L156.061 34.4139Z" fill="#DBC3AB"/>
<path d="M265.888 34.4139H267.731L268.96 35.0663L269.881 36.208L270.188 37.0235L270.035 38.3283L269.42 39.3068L268.345 40.2854L267.731 40.6116H266.041L264.966 39.9592L264.044 38.8175L263.737 37.839L263.891 36.5342L264.505 35.5556L265.58 34.577L265.888 34.4139Z" fill="#DBC3AB"/>
<path d="M111.977 34.4139H113.82L115.356 35.3925L116.124 36.6973V38.1652L115.356 39.4699L114.281 40.4485L113.82 40.6116H112.13L111.209 40.1223L109.98 38.6544L109.826 38.3283V36.8604L110.441 35.7187L111.209 34.9032L111.977 34.4139Z" fill="#DBC3AB"/>
<path d="M2.76486 17.1254L4.30089 17.4516L5.52972 18.4302L6.29774 19.7349V20.8766L5.68332 22.1814L4.4545 23.3231L3.84008 23.6493H2.61126L1.38243 22.9969L0.153603 21.529L0 21.2028V19.7349L0.768017 18.4302L1.84324 17.4516L2.76486 17.1254Z" fill="#DBC3AB"/>
<path d="M288.621 0L290.157 0.326198L291.386 1.30479L292 2.60958V3.75127L291.539 5.05607L290.157 6.36086L289.85 6.52396H288.314L287.085 5.87156L286.01 4.40367L285.856 3.91437V2.60958L286.47 1.30479L287.853 0.163099L288.621 0Z" fill="#DBC3AB"/>
<path d="M2.61126 102.589L3.99369 102.752L5.37612 103.731L6.14413 104.873L6.29774 106.34L5.37612 107.971L4.14729 108.95L3.84008 109.113H2.61126L1.38243 108.461L0.307207 107.156L0 106.667V105.199L0.614413 104.057L1.84324 102.915L2.61126 102.589Z" fill="#DBC3AB"/>
<path d="M288.314 85.4638L289.85 85.6269L291.386 86.7686L291.846 87.5841L292 88.2365V89.3782L291.386 90.683L289.85 91.9878L289.542 92.1509L288.16 91.9878L286.778 91.0092L285.856 89.3782V88.0734L286.778 86.4424L287.853 85.6269L288.314 85.4638Z" fill="#DBC3AB"/>
<path d="M90.0115 51.5392H92.0084L92.93 52.0285L94.1588 53.4964L94.3124 53.9857V55.1274L93.3908 56.7584L92.0084 57.737L91.0868 57.9001L89.7043 57.4108L88.4755 56.2691L87.8611 54.6381L88.1683 53.4964L88.7827 52.5178L90.0115 51.5392Z" fill="#DBC3AB"/>
<path d="M90.1651 17.2885H92.0084L93.2372 18.1039L94.0052 19.0825L94.3124 19.7349V20.8766L93.698 22.0183L93.0836 22.8338L91.8548 23.6493H90.6259L89.3971 22.9969L88.3219 21.6921L87.8611 20.2242L88.3219 18.9194L89.0899 17.9408L90.1651 17.2885Z" fill="#DBC3AB"/>
<path d="M244.076 34.4139H245.919L247.301 35.2294L247.916 36.0449L248.377 37.1866L248.069 38.6544L246.994 39.9592L245.919 40.6116H244.383L243.154 39.9592L242.386 38.9806L241.925 37.839L242.079 36.3711L242.693 35.3925L244.076 34.4139Z" fill="#DBC3AB"/>
<path d="M199.992 34.4139H201.835L203.217 35.2294L204.139 36.6973L204.292 37.6759L203.524 39.3068L202.449 40.2854L201.835 40.6116H200.145L198.916 39.7961L198.148 38.8175L197.841 38.0021V36.8604L198.763 35.2294L199.992 34.4139Z" fill="#DBC3AB"/>
<path d="M46.0809 34.4139H47.9241L49.153 35.2294L49.921 36.208L50.2282 37.0235L50.0746 38.3283L49.153 39.7961L47.9241 40.6116H46.2345L45.0057 39.7961L44.0841 38.6544L43.7769 38.0021V36.8604L44.8521 35.2294L45.6201 34.577L46.0809 34.4139Z" fill="#DBC3AB"/>
<path d="M46.6953 17.1254L48.2314 17.4516L49.4602 18.4302L50.2282 20.0611L49.921 21.529L48.9994 22.8338L47.7705 23.6493H46.5417L45.3129 22.9969L44.0841 21.529L43.7769 20.8766V19.898L44.5449 18.5933L45.7737 17.4516L46.6953 17.1254Z" fill="#DBC3AB"/>
<path d="M24.7302 136.84L26.1127 137.003L27.1879 137.655L27.9559 138.634L28.2631 139.286V140.917L27.6487 141.896L26.5735 142.875L25.9591 143.201H24.5766L23.3478 142.548L22.2726 141.244L21.8118 139.939L22.5798 138.308L23.655 137.166L24.7302 136.84Z" fill="#DBC3AB"/>
<path d="M24.1158 119.878H26.1127L27.4951 120.856L28.1095 121.672L28.2631 122.161V123.629L27.3415 125.26L26.1127 126.075H24.423L23.5014 125.586L22.7334 124.771L21.9654 123.466L21.8118 122.65L22.7334 121.019L23.8086 120.041L24.1158 119.878Z" fill="#DBC3AB"/>
<path d="M90.1651 34.4139H92.0084L93.2372 35.2294L94.0052 36.208L94.3124 36.8604V38.0021L93.8516 38.9806L93.0836 39.9592L92.0084 40.6116H90.3187L89.0899 39.7961L88.1683 38.6544L87.8611 37.3497L88.4755 35.7187L89.5507 34.7401L90.1651 34.4139Z" fill="#DBC3AB"/>
<path d="M244.076 17.2885H245.919L247.148 18.1039L248.069 19.2456L248.377 20.0611L248.223 21.0397L247.301 22.5076L246.073 23.4862L245.765 23.6493H244.69L243.308 22.9969L242.386 21.8552L241.925 20.7135V19.7349L242.693 18.4301L243.769 17.4516L244.076 17.2885Z" fill="#DBC3AB"/>
<path d="M288.006 68.5015H289.696L290.925 69.317L291.846 70.4587L292 71.1111V72.2528L291.539 73.3945L290.157 74.6993L289.542 75.0255L288.314 74.8624L287.085 74.21L286.163 73.0683L285.856 72.2528V70.948L286.624 69.6432L287.546 68.6646L288.006 68.5015Z" fill="#DBC3AB"/>
<path d="M2.15045 34.4139H3.99369L5.22251 35.2294L6.14413 36.3711L6.29774 36.8604V38.0021L5.68332 39.3068L4.4545 40.4485L3.99369 40.6116H2.30405L1.38243 40.1223L0.153603 38.6544L0 38.3283V36.8604L0.614413 35.7187L1.38243 34.9032L2.15045 34.4139Z" fill="#DBC3AB"/>
<path d="M134.864 136.84L136.4 137.166L137.782 138.471L138.243 139.613V140.591L137.475 141.896L136.4 142.875L135.785 143.201H134.403L133.174 142.548L132.253 141.407L131.792 140.428L131.945 139.286L132.713 137.982L133.635 137.166L134.864 136.84Z" fill="#DBC3AB"/>
<path d="M222.725 119.715L224.261 120.041L225.49 121.019L226.104 122.161L226.258 123.14L225.797 124.281L224.722 125.586L223.8 126.075H222.418L221.342 125.586L220.574 124.934L219.96 123.955L219.806 122.487L220.421 121.182L221.65 120.041L222.725 119.715Z" fill="#DBC3AB"/>
<path d="M287.853 51.5392H289.85L290.925 52.1916L291.693 53.1702L292 53.9857V55.1274L291.539 56.2691L290.771 57.0846L290.003 57.737L288.774 57.9001L287.085 57.2477L286.317 56.2691L285.856 55.2905V53.8226L286.624 52.5178L287.546 51.7023L287.853 51.5392Z" fill="#DBC3AB"/>
<path d="M156.829 119.715L158.212 120.041L159.133 120.693L160.208 121.998L160.362 123.303L159.44 124.934L158.365 125.912L157.904 126.075H156.522L155.447 125.586L154.525 124.771L153.911 123.466L154.064 121.998L154.679 121.019L155.754 120.041L156.829 119.715Z" fill="#DBC3AB"/>
<path d="M133.942 119.878H135.785L137.014 120.53L137.936 121.672L138.243 122.487V123.466L137.475 124.771L136.246 125.912L135.939 126.075H134.403L133.328 125.586L132.253 124.281L131.792 123.303L131.945 121.998L132.867 120.693L133.635 120.041L133.942 119.878Z" fill="#DBC3AB"/>
<path d="M90.9332 119.715L92.3156 120.041L93.2372 120.693L94.1588 121.998L94.3124 123.466L93.2372 125.26L92.0084 126.075H90.4723L89.2435 125.423L88.1683 124.118L87.8611 122.65L88.6291 121.019L89.8579 120.041L90.9332 119.715Z" fill="#DBC3AB"/>
<path d="M200.913 119.715L202.142 120.041L203.064 120.693L203.985 121.835L204.292 122.65L204.139 123.629L203.064 125.26L202.296 125.912L201.835 126.075H200.145L198.916 125.26L198.148 124.281L197.841 123.466V122.324L198.302 121.346L199.377 120.204L199.992 119.878L200.913 119.715Z" fill="#DBC3AB"/>
<path d="M266.655 136.84L268.192 137.166L269.267 137.982L270.035 139.286L270.188 140.265L269.42 141.896L268.192 143.038L267.731 143.201H266.502L265.273 142.712L264.351 141.896L263.891 141.081V139.123L264.812 137.655L265.887 137.003L266.655 136.84Z" fill="#DBC3AB"/>
<path d="M222.725 136.84L224.261 137.166L225.643 138.308L226.104 139.286L226.258 140.265L225.797 141.407L224.722 142.712L223.8 143.201H222.418L221.189 142.548L220.114 141.244L219.806 140.428L219.96 139.123L220.574 138.145L221.65 137.166L222.725 136.84Z" fill="#DBC3AB"/>
<path d="M266.655 119.715L268.192 120.041L269.728 121.509L270.188 122.487L270.035 123.629L269.113 125.097L268.192 125.912L267.731 126.075H266.195L264.966 125.423L264.044 124.281L263.891 123.955V121.998L264.505 121.019L265.58 120.041L266.655 119.715Z" fill="#DBC3AB"/>
<path d="M68.0462 119.878H69.8895L71.1183 120.693L71.8863 121.509L72.1935 122.324V123.629L71.5791 124.771L70.3503 125.912L69.8895 126.075H68.507L67.4318 125.586L66.6638 124.771L65.8958 123.629L65.7422 122.65L66.5102 121.182L67.739 120.041L68.0462 119.878Z" fill="#DBC3AB"/>
<path d="M46.8489 119.715L48.2314 120.041L49.4602 121.019L50.2282 122.65L50.0746 123.629L49.153 125.26L47.9241 126.075H46.3881L45.1593 125.423L44.0841 124.118L43.7769 123.303V122.324L44.5449 121.019L45.7737 120.041L46.8489 119.715Z" fill="#DBC3AB"/>
<path d="M288.621 17.1254L290.157 17.4516L291.385 18.4302L291.846 19.2457L292 20.8766L291.539 22.0183L290.771 22.8338L290.003 23.4862L289.696 23.6493H288.467L287.392 23.16L286.624 22.5076L285.856 21.0397L285.702 20.3873L286.009 19.2457L286.931 17.9409L288.006 17.2885L288.621 17.1254Z" fill="#DBC3AB"/>
<path d="M200.76 136.84L202.296 137.166L203.524 138.308L204.292 139.939L203.985 141.081L202.91 142.548L201.681 143.201H200.452L198.916 142.385L198.148 141.407L197.841 140.591V139.45L198.763 137.819L199.531 137.166L200.76 136.84Z" fill="#DBC3AB"/>
<path d="M178.026 119.878H179.87L181.098 120.53L182.02 121.672L182.327 122.487V123.466L181.559 124.771L180.33 125.912L180.023 126.075H178.487L177.412 125.586L176.337 124.281L175.876 122.813L176.49 121.182L177.719 120.041L178.026 119.878Z" fill="#DBC3AB"/>
<path d="M90.7795 136.84L92.0084 137.003L92.93 137.492L93.8516 138.634L94.3124 139.613V140.591L93.2372 142.385L92.3156 143.038L91.8548 143.201H90.6259L89.0899 142.385L88.1683 141.244L87.8611 139.939L88.4755 138.308L89.7043 137.166L90.7795 136.84Z" fill="#DBC3AB"/>
<path d="M288.314 102.589L289.85 102.752L291.232 103.731L291.846 104.709L292 105.362V106.504L291.539 107.482L290.31 108.787L289.696 109.113H288.314L287.085 108.298L286.163 107.156L285.856 106.34V105.199L286.624 103.731L287.546 102.915L288.314 102.589Z" fill="#DBC3AB"/>
<path d="M68.1998 153.965H69.8895L71.1183 154.781L72.0399 155.923L72.1935 156.412V157.88L71.5791 159.021L70.8111 159.837L70.3503 160H68.0462L67.1246 159.511L66.203 158.369L65.7422 157.39L66.0494 156.086L67.2782 154.455L68.1998 153.965Z" fill="#DBC3AB"/>
<path d="M68.0462 137.003H70.0431L71.4255 137.982L72.0399 138.96L72.1935 139.45V140.754L71.2719 142.222L70.1967 143.038L69.7359 143.201H68.507L67.2782 142.548L66.0494 141.081L65.7422 140.428L65.8958 139.286L66.8174 137.982L67.739 137.166L68.0462 137.003Z" fill="#DBC3AB"/>
<path d="M112.745 119.715L114.127 120.041L115.049 120.693L115.971 121.835L116.124 122.324V123.629L115.203 125.097L114.435 125.749L113.82 126.075H112.438L111.362 125.586L110.441 124.771L109.826 123.629V122.161L110.748 120.856L111.67 120.041L112.745 119.715Z" fill="#DBC3AB"/>
<path d="M178.026 137.003H180.023L181.098 137.655L182.02 138.797L182.327 139.776L182.174 141.081L180.791 142.712L179.87 143.201H178.487L177.258 142.548L176.337 141.407L175.876 139.939L176.49 138.308L177.719 137.166L178.026 137.003Z" fill="#DBC3AB"/>
<path d="M46.6953 136.84L47.9241 137.003L48.9994 137.655L49.921 138.96L50.2282 140.265L49.4602 141.896L48.2314 143.038L47.7705 143.201H46.5417L45.0057 142.385L44.0841 141.244L43.7769 140.591L43.9305 139.123L44.8521 137.819L45.6201 137.166L46.6953 136.84Z" fill="#DBC3AB"/>
<path d="M288.006 34.4139H289.85L291.232 35.3925L291.846 36.3711L292 36.8604V38.0021L291.539 39.1437L290.771 39.9592L289.85 40.6116H288.16L286.931 39.9592L286.01 38.6544L285.856 38.1652V36.6973L286.624 35.3925L287.546 34.577L288.006 34.4139Z" fill="#DBC3AB"/>
<path d="M222.264 153.965H223.646L224.875 154.618L225.951 155.923L226.258 157.227L225.797 158.695L224.722 159.837L224.414 160H221.957L220.728 159.348L219.96 158.043L219.806 156.738L220.267 155.596L221.189 154.455L222.264 153.965Z" fill="#DBC3AB"/>
<path d="M178.334 153.965H179.87L181.406 154.944L182.174 156.086L182.327 157.554L181.867 158.695L181.098 159.511L180.33 160H178.18L177.105 159.511L176.337 158.532L175.876 157.227L176.337 155.596L176.951 154.781L177.873 154.128L178.334 153.965Z" fill="#DBC3AB"/>
<path d="M134.249 153.965H135.785L137.014 154.781L137.936 155.923L138.243 156.738V157.717L137.475 159.184L136.246 160H133.942L133.021 159.511L132.253 158.532L131.792 157.554L131.945 156.249L132.867 154.781L133.789 154.128L134.249 153.965Z" fill="#DBC3AB"/>
<path d="M156.829 136.84L158.365 137.166L159.901 138.634L160.362 139.613L160.208 140.754L159.287 142.222L158.519 142.875L157.904 143.201H156.676L155.447 142.712L154.218 141.407L153.911 140.428L154.064 139.123L154.679 138.145L155.754 137.166L156.829 136.84Z" fill="#DBC3AB"/>
<path d="M244.076 137.003H245.919L246.841 137.492L247.916 138.797L248.223 139.45V140.754L247.301 142.222L246.226 143.038L245.765 143.201H244.537L243.001 142.385L242.232 141.407L241.925 140.428L242.079 139.123L242.847 137.819L243.615 137.166L244.076 137.003Z" fill="#DBC3AB"/>
<path d="M156.368 153.965H157.751L158.672 154.455L159.594 155.27L160.362 156.738L160.208 157.88L159.44 159.184L158.826 159.837L158.365 160H156.061L154.832 159.348L154.064 158.043L153.911 156.901L154.218 155.759L155.293 154.455L156.368 153.965Z" fill="#DBC3AB"/>
<path d="M112.13 153.965H113.667L115.049 154.781L115.971 156.086L116.124 156.412V157.717L115.356 159.184L114.742 159.837L114.281 160H111.977L110.748 159.348L109.826 157.88V156.412L110.441 155.433L111.209 154.455L112.13 153.965Z" fill="#DBC3AB"/>
<path d="M24.423 153.965H25.9591L27.1879 154.781L28.1095 155.923L28.2631 156.412V158.043L27.4951 159.348L26.2663 160H24.1158L23.1942 159.511L22.2726 158.369L21.8118 157.064L22.5798 155.433L23.1942 154.618L24.423 153.965Z" fill="#DBC3AB"/>
<path d="M200.145 153.965H201.681L202.603 154.455L203.678 155.596L204.139 156.412V157.88L203.217 159.348L202.603 159.837L202.142 160H199.992L198.916 159.511L198.148 158.532L197.841 157.717V156.575L198.455 155.27L199.531 154.292L200.145 153.965Z" fill="#DBC3AB"/>
<path d="M90.3187 153.965H91.8548L92.7764 154.455L93.8516 155.596L94.3124 156.738V157.717L93.3908 159.348L92.7764 159.837L92.162 160H90.1651L89.0899 159.511L88.1683 158.369L87.8611 156.901L88.6291 155.27L89.7043 154.292L90.3187 153.965Z" fill="#DBC3AB"/>
<path d="M112.745 136.84L114.281 137.166L115.817 138.634L116.124 139.45V140.591L115.356 142.059L114.435 142.875L113.667 143.201H112.438L111.209 142.548L110.134 141.407L109.826 140.754V139.286L110.748 137.982L111.67 137.166L112.745 136.84Z" fill="#DBC3AB"/>
<path d="M244.076 119.878H245.919L247.148 120.693L248.069 121.835L248.223 122.324V123.629L247.148 125.26L246.38 125.912L245.919 126.075H244.383L243.154 125.423L242.386 124.444L241.925 123.14L242.079 121.998L242.693 121.019L243.769 120.041L244.076 119.878Z" fill="#DBC3AB"/>
<path d="M2.76486 119.715L3.99369 119.878L5.37612 120.856L6.14413 121.998L6.29774 123.303L5.68332 124.608L4.91531 125.586L3.99369 126.075H2.61126L1.53603 125.586L0.614413 124.771L0 123.629V122.161L0.92162 120.856L1.84324 120.041L2.76486 119.715Z" fill="#DBC3AB"/>
<path d="M266.195 153.965H267.731L269.113 154.944L270.035 156.412V157.88L269.267 159.184L268.652 159.837L268.038 160H265.887L264.659 159.348L264.044 158.532L263.891 158.043V156.249L264.505 155.107L265.427 154.292L266.195 153.965Z" fill="#DBC3AB"/>
<path d="M244.383 153.965H245.765L246.687 154.455L247.455 155.107L248.069 156.086L248.223 156.575V157.88L247.301 159.348L246.226 160H244.076L243.001 159.511L242.232 158.532L241.925 157.554L242.079 156.249L242.847 154.944L243.615 154.292L244.383 153.965Z" fill="#DBC3AB"/>
<path d="M46.2345 153.965H47.7705L48.8458 154.618L49.7674 155.759L50.0746 156.412V157.88L49.153 159.511L48.0778 160H46.0809L45.0057 159.511L44.0841 158.369L43.7769 157.717V156.575L44.5449 155.27L45.6201 154.292L46.2345 153.965Z" fill="#DBC3AB"/>
<path d="M2.76486 136.84L3.99369 137.003L5.37612 137.982L6.14413 139.123L6.29774 140.428L5.68332 141.733L4.6081 142.875L3.84008 143.201H2.61126L1.38243 142.548L0.307207 141.407L0 140.754V139.286L0.92162 137.982L1.84324 137.166L2.76486 136.84Z" fill="#DBC3AB"/>
<path d="M2.45765 153.965H3.84008L5.06891 154.781L5.99053 155.923L6.29774 156.738L6.14413 158.043L5.22251 159.511L4.4545 160H2.30405L1.07522 159.511L0.153603 158.206L0 157.88V156.412L0.92162 154.944L1.68964 154.292L2.45765 153.965Z" fill="#DBC3AB"/>
<path d="M287.853 137.003H289.85L291.078 137.819L291.693 138.634L292 139.613L291.846 141.244L290.771 142.548L289.696 143.201H288.314L287.085 142.548L286.163 141.244L285.856 140.591V139.45L286.47 138.145L287.546 137.166L287.853 137.003Z" fill="#DBC3AC"/>
<path d="M287.853 119.878H289.696L290.925 120.693L291.846 121.835L292 123.466L291.539 124.608L290.464 125.749L289.85 126.075H288.314L287.238 125.586L286.317 124.444L285.856 123.466V122.324L286.778 120.693L287.853 119.878Z" fill="#DBC3AB"/>
<path d="M288.16 153.965H289.542L290.771 154.618L291.539 155.433L292 156.575V157.717L291.539 158.858L290.618 159.837L290.157 160H288.006L286.778 159.348L285.856 157.717V156.575L286.47 155.27L287.699 154.128L288.16 153.965Z" fill="#DBC3AC"/>
<path d="M291.385 155.433L291.846 155.923L292 156.575V157.717L291.846 158.369H291.539L291.385 155.433Z" fill="#FFFEFE"/>
<path d="M291.539 1.79407L291.846 2.12027L292 2.60956V3.75125L291.693 4.72985H291.539V1.79407Z" fill="#FFFEFE"/>
</g>
<defs>
<clipPath id="clip0_1_435">
<rect width="292" height="160" fill="white"/>
</clipPath>
</defs>
</svg>
