<svg width="38" height="42" viewBox="0 0 38 42" fill="none" xmlns="http://www.w3.org/2000/svg">
<g clip-path="url(#clip0_1_1310)">
<rect y="7" width="38" height="3" fill="white"/>
<mask id="path-2-inside-1_1_1310" fill="white">
<path d="M4 9H34V42H4V9Z"/>
</mask>
<path d="M34 42V45H37V42H34ZM4 42H1V45H4V42ZM31 9V42H37V9H31ZM34 39H4V45H34V39ZM7 42V9H1V42H7Z" fill="white" mask="url(#path-2-inside-1_1_1310)"/>
<rect x="11" y="1" width="3" height="6" fill="white"/>
<rect x="11" width="16" height="3" fill="white"/>
<rect x="24" y="1" width="3" height="6" fill="white"/>
<rect x="13" y="14" width="3" height="22" fill="white"/>
<rect x="22" y="14" width="3" height="22" fill="white"/>
</g>
<defs>
<clipPath id="clip0_1_1310">
<rect width="38" height="42" fill="white"/>
</clipPath>
</defs>
</svg>
