<svg width="64" height="64" viewBox="0 0 64 64" fill="none" xmlns="http://www.w3.org/2000/svg">
<g clip-path="url(#clip0_1_1318)">
<path d="M4.53125 0H31.8438L31.9688 0.0625L32.75 0.28125L33.3125 0.53125L33.8125 0.8125L34.25 1.125L34.5625 1.40625L34.7812 1.59375L35 1.84375L35.4062 2.375L35.6875 2.875L35.9375 3.40625L36.125 4L36.2188 4.46875L36.2812 5.1875V12.7812L36.2188 12.8125H34.1562L34.125 12.7812L34.0625 4.90625L33.9375 4.34375L33.7812 3.9375L33.5 3.46875L33.2188 3.125L32.875 2.8125L32.3125 2.46875L31.8125 2.28125L31.5312 2.21875L31.25 2.1875L28.8125 2.15625V3.46875L28.7188 4.03125L28.5312 4.53125L28.3125 4.9375L28.0312 5.3125L27.6875 5.65625L27.3438 5.90625L26.8438 6.15625L26.5 6.28125L26.0938 6.375L25.8125 6.40625H10.4062L9.8125 6.3125L9.3125 6.125L8.8125 5.84375L8.375 5.46875L8.03125 5.0625L7.71875 4.53125L7.5625 4.09375L7.46875 3.65625L7.4375 3.34375V2.15625L4.9375 2.1875L4.4375 2.28125L3.96875 2.46875L3.625 2.65625L3.28125 2.90625L2.90625 3.28125L2.625 3.6875L2.40625 4.125L2.25 4.59375L2.1875 5.03125V59.0312L2.28125 59.5312L2.46875 60.0312L2.71875 60.4688L3 60.8125L3.28125 61.0938L3.59375 61.3125L3.90625 61.5L4.40625 61.6875L4.875 61.7812L5.125 61.8125H31.1562L31.75 61.7188L32.25 61.5312L32.6562 61.3125L33.0312 61.0312L33.375 60.6875L33.5938 60.375L33.8438 59.9062L34 59.4062L34.0625 59.0938L34.0938 57.375V34.3438L34.125 34.125H36.25L36.2812 34.1562V58.8125L36.2188 59.5312L36.0625 60.2188L35.8125 60.875L35.5 61.4688L35.1875 61.9062L34.9062 62.25L34.6875 62.5L34.4375 62.7188L34.0312 63.0312L33.5312 63.3438L32.9375 63.625L32.2812 63.8438L31.6562 64H4.625L3.65625 63.75L3.03125 63.5L2.5625 63.25L2.15625 62.9688L1.8125 62.6875L1.21875 62.0938L0.8125 61.5312L0.53125 61.0312L0.34375 60.625L0.1875 60.1562L0.0625 59.6562L0 59.4375V4.5625L0.25 3.625L0.4375 3.125L0.78125 2.5L1.0625 2.09375L1.34375 1.75L1.84375 1.25L2.34375 0.875L2.8125 0.59375L3.34375 0.34375L3.90625 0.15625L4.46875 0.03125L4.53125 0ZM9.625 2.15625V3.4375L9.84375 3.875L10.0938 4.09375L10.375 4.21875L10.5625 4.25H25.6562L25.9688 4.1875L26.2812 4L26.5 3.75L26.625 3.4375L26.6562 2.96875V2.15625H9.625Z" fill="#FCAA23"/>
<path d="M14.9688 14.9062H64V32H14.9375L14.9062 31.9688V14.9375L14.9688 14.9062ZM17.1562 17.0625L17.0938 17.0938V29.8438H61.8438V17.0625H17.1562Z" fill="#FCAA23"/>
<path d="M4.25 51.1875H31.9688L32.0312 51.4062V53.25L31.9688 53.3438H4.28125L4.25 53.3125V51.1875Z" fill="#FCAA23"/>
<path d="M33.0625 19.1875H35.1875L35.2188 19.2188V21.5625L35.7812 21.25L36.3125 20.9375L37.125 20.4688L37.2188 20.4062H37.3438L37.5 20.7188L38 21.5625L38.3125 22.125L38.375 22.25L38.0938 22.4375L37.2188 22.9375L36.6875 23.25L36.375 23.4062H36.3125L36.4062 23.5L37.9062 24.375L38.375 24.6562L38.3125 24.8125L38.0312 25.3125L37.7812 25.7188L37.4062 26.4062L37.2812 26.5312L36.4375 26.0625L35.6875 25.625L35.25 25.375L35.2188 27.6875L35.125 27.75H33.0938L33.0312 27.7188V25.375L32.3438 25.75L31.0625 26.5L30.9062 26.4688L30.5 25.75L30.0625 25L29.875 24.6562L30.625 24.2188L31.2812 23.8438L31.875 23.5L31.9062 23.4375L31.4062 23.1562L30.6562 22.7188L30 22.3438L29.875 22.25L30.3438 21.4375L30.8438 20.5625L30.9062 20.4375L31.0312 20.4062L31.8125 20.8438L32.2812 21.125L32.9375 21.5L33.0312 21.5625V19.2188L33.0625 19.1875Z" fill="#FCAA23"/>
<path d="M54.375 19.1875H56.5312L56.5625 19.2812V21.5625L57.375 21.0938L58.0312 20.7188L58.5 20.4375L58.625 20.375L58.7812 20.625L59.2188 21.375L59.5938 22.0312L59.6875 22.1875V22.2812L58.875 22.75L58.1875 23.1562L57.6562 23.4375L58.1562 23.75L59.0312 24.25L59.6562 24.625L59.6875 24.7188L59.2188 25.5625L58.7812 26.3125L58.625 26.5312L58.2812 26.3438L57.5 25.9062L56.5938 25.375L56.5625 25.4688V27.6562L56.4688 27.75H54.4062L54.375 27.7188V25.375L54.0312 25.5625L53.25 26L52.5 26.4375L52.3438 26.5312H52.2812L51.8125 25.7188L51.4375 25.0625L51.25 24.75L51.2812 24.5938L51.6562 24.4062L52.5 23.9062L53.25 23.4688L52.9688 23.2812L51.3438 22.3438L51.25 22.2812L51.2812 22.125L51.7812 21.25L52.1875 20.5625L52.25 20.4062L52.4062 20.4375L53.0312 20.7812L53.7812 21.2188L54.3438 21.5625L54.375 19.1875Z" fill="#FCAA23"/>
<path d="M22.375 19.1875H24.5312L24.5625 19.2812V21.5625L25.375 21.0938L26.0312 20.7188L26.5 20.4375L26.625 20.375L26.7812 20.625L27.2188 21.375L27.5938 22.0312L27.6875 22.1875L27.6562 22.3125L26.875 22.75L26.1875 23.1562L25.6562 23.4375L26.2188 23.7812L27.0312 24.25L27.6562 24.625L27.6875 24.7188L27.3438 25.3438L26.9062 26.0938L26.6562 26.5L26.5938 26.5312L26.0625 26.2188L25.3438 25.8125L24.5938 25.375L24.5625 25.4688V27.6562L24.4688 27.75H22.4062L22.375 27.7188V25.375L22 25.5625L20.5 26.4375L20.3438 26.5312H20.2812L19.8125 25.7188L19.4375 25.0625L19.25 24.75L19.2812 24.5938L19.6562 24.4062L20.5 23.9062L21.25 23.4688L20.9688 23.2812L20.1562 22.8125L19.5 22.4375L19.25 22.2812L19.2812 22.125L19.7812 21.25L20.1875 20.5312L20.25 20.4062L20.4062 20.4375L21.25 20.9062L22 21.3438L22.3438 21.5625L22.375 19.1875Z" fill="#FCAA23"/>
<path d="M43.7188 19.1875H45.875L45.9062 21.5625L47.4062 20.6875L47.875 20.4062L48.0312 20.4375L48.2188 20.8125L48.5312 21.3438L48.9688 22.0938L49.0312 22.25L48.9375 22.3438L48.375 22.6562L47.625 23.0938L47.1875 23.3438L47.0625 23.4062H46.9688V23.4688L47.125 23.5312L47.875 23.9688L48.6875 24.4375L49 24.625L49.0312 24.7188L48.625 25.4375L48.1875 26.1875L48 26.5H47.875L46.25 25.5625L45.875 25.3438V27.7188L45.8125 27.75H43.75L43.7188 27.7188L43.6875 25.375L42.8438 25.8438L41.7812 26.4688L41.6562 26.5312L41.5 26.3438L41.0938 25.625L40.7188 24.9688L40.5625 24.6875V24.625L41.1562 24.3125L41.5625 24.0625L42.375 23.5938L42.5938 23.4688L42.3438 23.3125L41.5938 22.875L40.7812 22.4062L40.5625 22.25L40.7188 21.9375L41.5938 20.4375L41.7188 20.4062L42.0312 20.5938L42.8438 21.0625L43.5938 21.5L43.6875 21.5625L43.7188 19.1875Z" fill="#FCAA23"/>
<path d="M17.875 54.375H18.375L18.9688 54.4688L19.4688 54.6562L19.9688 54.9375L20.375 55.2812L20.6875 55.625L20.9688 56.0625L21.1562 56.4688L21.2812 56.875L21.3438 57.2188V57.9688L21.2188 58.5312L21.0625 58.9375L20.8438 59.3438L20.5312 59.75L20.1875 60.0938L19.75 60.375L19.3125 60.5938L18.7812 60.75L18.4062 60.8125H17.8438L17.3125 60.7188L16.7812 60.5312L16.3438 60.2812L16.0312 60.0312L15.5938 59.5938L15.3125 59.1562L15.125 58.7812L14.9688 58.25L14.9062 57.875V57.3125L15.0312 56.6875L15.1875 56.2812L15.4375 55.8125L15.6875 55.4688H15.75L15.8125 55.3438L16.125 55.0625L16.5938 54.75L17.0938 54.5312L17.5938 54.4062L17.875 54.375ZM17.875 56.5625L17.5625 56.6875L17.3438 56.875L17.1562 57.1875L17.0938 57.4062V57.8125L17.2188 58.125L17.4062 58.375L17.6875 58.5625L18.125 58.6562L18.4688 58.5938L18.7188 58.4688L19 58.2188L19.125 57.9688L19.1875 57.6562L19.1562 57.3438L19.0312 57.0312L18.7812 56.75L18.5 56.5938L18.375 56.5625H17.875Z" fill="#FCAA23"/>
</g>
<defs>
<clipPath id="clip0_1_1318">
<rect width="64" height="64" fill="white"/>
</clipPath>
</defs>
</svg>
