<svg width="100" height="100" viewBox="0 0 100 100" fill="none" xmlns="http://www.w3.org/2000/svg">
<path d="M18.4819 0H65.2289L66.3133 0.120482L67.2771 0.421687L68.1807 0.903614L69.0241 1.62651L69.506 2.16867L70.0482 3.07229L70.3494 3.85542L70.5301 4.6988L70.5904 5.48193V18.9759L69.9277 19.0361H68.9036V24.1566L71.9157 23.1325L97.5783 14.5783L98.5422 14.2771L98.7229 14.3373L97.8795 16.8072L89.5663 41.747L88.7831 44.1566L87.9398 46.6265L83.6024 59.6386L82.6988 62.4096L81.9759 64.5783L81.253 66.6868L80.8313 66.3253L73.7831 59.2771L73.4217 58.9759L73.0602 58.5542L72.8795 58.4337V58.3133L72.6386 58.1928V58.0723L72.3976 57.9518V57.8313L72.1566 57.7108V57.5904L71.9157 57.4699L69.0843 54.6386V54.5181H68.9639L68.9036 61.4458H70.5301L70.5904 61.506V93.9157L70.5301 95.0602L70.2892 96.0843L69.8675 97.0482L69.4458 97.7108L68.9036 98.3735L68.1807 98.9759L67.3373 99.4578L66.4337 99.8193L65.5301 100H18.1807L17.0361 99.6988L16.012 99.2771L15.1687 98.6747L14.5663 98.1325L13.9036 97.2892L13.4217 96.3855L13.1205 95.4217L13 94.5181V5.12048L13.1205 4.27711L13.4819 3.25301L14.0241 2.3494L14.6867 1.62651L15.2289 1.14458L15.8916 0.722892L16.7952 0.301205L17.8193 0.060241L18.4819 0Z" fill="#73E3E4"/>
<path d="M18.4819 0H65.2289L66.3133 0.120482L67.2771 0.421687L68.1807 0.903614L69.0241 1.62651L69.506 2.16867L70.0482 3.07229L70.3494 3.85542L70.5301 4.6988L70.5904 5.48193V18.9759L69.9277 19.0361H16.6145L16.6747 80.9036H66.9157L66.9759 61.506L67.0361 61.4458H70.5301L70.5904 61.506V93.9157L70.5301 95.0602L70.2892 96.0843L69.8675 97.0482L69.4458 97.7108L68.9036 98.3735L68.1807 98.9759L67.3373 99.4578L66.4337 99.8193L65.5301 100H18.1807L17.0361 99.6988L16.012 99.2771L15.1687 98.6747L14.5663 98.1325L13.9036 97.2892L13.4217 96.3855L13.1205 95.4217L13 94.5181V5.12048L13.1205 4.27711L13.4819 3.25301L14.0241 2.3494L14.6867 1.62651L15.2289 1.14458L15.8916 0.722892L16.7952 0.301205L17.8193 0.060241L18.4819 0Z" fill="#010000"/>
<path d="M98.5421 14.2769L98.7229 14.3372L97.8795 16.807L89.5662 41.7468L88.7831 44.1564L87.9397 46.6263L83.6024 59.6384L82.6988 62.4094L81.9759 64.5781L81.253 66.6866L80.8313 66.3251L73.7831 59.2769L73.4217 58.9757L73.0602 58.554L72.8795 58.4335V58.3131L72.6385 58.1926V58.0721L72.3976 57.9516V57.8311L72.1566 57.7107V57.5902L71.9156 57.4697L69.0843 54.6384V54.5179H68.7229L68.6626 54.7588L68 55.6022L67.2771 56.5058L66.494 57.5299L65.7711 58.4335L64.4458 60.1203L63.6626 61.0841L62.9397 62.048L62.3976 62.7107L61.5542 63.795L60.7711 64.7588L60.1687 65.542L59.506 66.4456L59.265 66.5058L59.2048 44.8191L58.7831 44.3372L51.3132 36.8673V36.7468L51.0723 36.6263V36.5058L50.8313 36.3853V36.2649H50.7108V36.1444H50.5903V36.0239H50.4699V35.9034H50.3494V35.7829H50.2289L49.8072 35.301L46.3132 31.807V31.6866L62.5783 26.2649L64.9879 25.4817L67.1566 24.7588L68.8434 24.1564L97.5783 14.5781L98.5421 14.2769Z" fill="#010000"/>
<path d="M18.3615 3.6145H65.4699L66.0121 3.79522L66.6145 4.33739L66.9157 4.9398L66.9759 5.18077V15.3615L66.9157 15.4217H16.6747L16.6145 15.3615V5.24101L16.8555 4.6386L17.3374 4.09643L17.9398 3.73498L18.3615 3.6145Z" fill="#ADC4D8"/>
<path d="M66.7952 84.5182L66.9759 84.5785L67.0362 87.1086V91.7472L66.9759 94.5182L66.8555 95.0604L66.494 95.7231L65.8916 96.205L65.2892 96.3857H18.7229L18.0603 96.2652L17.3976 95.8436L16.9157 95.3014L16.6747 94.7592L16.6145 94.3978V84.5785L66.7952 84.5182Z" fill="#ADC4D8"/>
<path d="M16.6145 19.0361H68.7832V19.0963H20.7109V80.9035L20.5904 80.9638H16.6747L16.6145 80.9035V19.0361Z" fill="#00CAD6"/>
<path d="M90.7108 26.6264L90.7711 26.8674L89.3855 31.0842L80.1084 58.9156L79.747 59.9397H79.506L79.265 59.6385L78.7831 59.2168L71.3132 51.7469L71.3735 51.5059L73.0602 49.3372L73.6626 48.5541L74.3253 47.7107L75.1687 46.6264L75.7711 45.8433L76.6144 44.7589L77.2168 43.9758L77.8795 43.1324L78.4819 42.3493L79.3253 41.265L79.9277 40.4818L80.5903 39.6385L81.1928 38.8553L82.8795 36.6866L83.4819 35.9035L84.1446 35.0601L84.747 34.277L85.4096 33.4336L86.253 32.3493L86.9156 31.5059L88.6024 29.3372L89.2048 28.5541L89.9879 27.53L90.7108 26.6264Z" fill="#FBE79B"/>
<path d="M86.1928 22.1688H86.3133L86.1928 22.4097L85.4096 23.0121L84.5663 23.6748L82.3976 25.3615L81.3735 26.1447L80.4699 26.8676L79.6867 27.47L78.6024 28.3133L77.8193 28.9158L76.9759 29.5784L75.8916 30.4218L74.8675 31.2049L73.9639 31.9278L73.1807 32.5302L65.5904 38.4338L64.8072 39.0362L63.7229 39.8796L62.9398 40.482L62.0964 41.1447L61.3735 41.6868H61.253V41.5664H61.1325L60.7108 41.0844L53.3012 33.6748L53.1807 33.6145V33.4941L53 33.4338V33.2531L81.5542 23.735L83.8434 22.9519L86.0723 22.229L86.1928 22.1688Z" fill="#FCE89B"/>
<path d="M85.1084 27.5903L85.1687 27.7108L84.6867 28.3735L83.8434 29.3976L82.6386 30.9638L79.988 34.3373L79.1446 35.4217L78.4819 36.265L77.6386 37.3494L75.6506 39.8795L75.0482 40.6626L74.5663 41.265L73.7229 42.3494L73.1205 43.1325L72.3976 44.0361L71.6145 45.0602L70.8916 45.9638L70.1084 46.9879L69.3253 47.9518L68.7831 48.6747L68.0602 49.5783L67.2771 50.6024L66.5542 51.506L64.5663 54.0361L63.7831 55.0602L63.1807 55.8433L63 56.0843H62.8795V44.9397L63.4819 44.4578L64.506 43.6747L65.4699 42.8915L66.1928 42.3494L74.8675 35.6024L75.6506 35L76.494 34.3373L79.747 31.8072L81.4337 30.4819L82.4578 29.6988L83.3012 29.0361L84.3253 28.253L84.9277 27.7108L85.1084 27.5903Z" fill="#FCD22C"/>
<path d="M22.6384 23.1328H39.9878V26.687L39.9276 26.7472H22.6384V23.1328Z" fill="#010000"/>
<path d="M34.2048 88.6747H49.6265V92.2892H34.2048V88.6747Z" fill="#010000"/>
<path d="M16.6145 84.5784H66.7952V84.6387H20.5904L20.6506 85.0604L20.7109 92.5302V96.3254L65.229 96.2652L65.2892 96.1447L65.4699 96.0845L65.8314 96.0242L66.3133 95.6628L66.5543 95.3013L66.735 94.7592L66.8555 93.4339V84.5784H66.9759L67.0362 87.1086V91.7471L66.9759 94.5182L66.8555 95.0604L66.494 95.723L65.8916 96.2049L65.2892 96.3857H18.7229L18.0603 96.2652L17.3976 95.8435L16.9157 95.3013L16.6747 94.7592L16.6145 94.3977V84.5784Z" fill="#81A8B8"/>
<path d="M18.3615 3.6145H65.4699V3.67474H20.6506L20.7109 11.747V14.5181L20.6506 15.3615H66.9157V15.4217H16.6747L16.6145 15.3615V5.24101L16.8555 4.6386L17.3374 4.09643L17.9398 3.73498L18.3615 3.6145Z" fill="#81A8B8"/>
<path d="M28.2408 30.7833H30.4698L32.277 30.8435V34.3977L32.2167 34.458H22.6384V30.8435L28.2408 30.7833Z" fill="#010000"/>
<path d="M49.3252 73.0721H50.3493L51.3734 73.1323L51.5541 73.2528L51.6143 73.4335V76.6865L51.5541 76.7468L47.7589 76.807L47.6384 76.6865V73.6745L47.6987 73.1926L47.7589 73.1323L49.3252 73.0721Z" fill="#FDFDFD"/>
<path d="M41.6747 73.0721H42.5783L43.6627 73.1323L43.8434 73.2528L43.9036 75.06V76.6865L43.8434 76.7468L40.0482 76.807L39.9277 76.6865V73.6745L39.988 73.1926L40.0482 73.1323L41.6747 73.0721Z" fill="#FDFDFD"/>
<path d="M33.7229 73.0721H34.747L35.9519 73.1323L36.1326 73.2528L36.1928 74.9998V76.6865L36.1326 76.7468H32.2772L32.2169 76.6865V74.9396L32.2772 73.1926L32.3976 73.1323L33.7229 73.0721Z" fill="#FDFDFD"/>
<path d="M90.7109 26.6264L90.7711 26.8674L90.4097 28.0119H90.2892V27.5903L90.1085 27.6505L90.0482 27.771L89.9277 27.7107L90.1687 27.2891L90.7109 26.6264Z" fill="#D6C557"/>
<path d="M89.8676 29.2769L89.9278 29.4576L89.0845 31.9878H88.964L89.0242 31.6263L89.7471 29.4576L89.8676 29.2769Z" fill="#D4C45A"/>
<path d="M79.988 58.7349H80.1084L80.0482 59.0361L79.747 59.9397H79.506L79.2651 59.6385L78.7831 59.2169L78.6024 59.0361L78.6627 58.8554L79.506 59.6988L79.6265 59.759L79.988 58.7349Z" fill="#C8C067"/>
<path d="M86.1927 22.1688H86.3132L86.1927 22.4097L85.8312 22.6507L85.6505 22.5904L84.9878 22.7712H84.5662L84.7469 22.6507L86.1927 22.1688Z" fill="#D5C459"/>
<path d="M89.3857 30.7231L89.4459 30.9038L89.0845 31.9881H88.964L89.0242 31.6267L89.2652 30.9038L89.3857 30.7231Z" fill="#CAC164"/>
<path d="M78.6024 58.8554L79.0241 59.2169L79.506 59.6988L79.4458 59.8193L78.6627 59.0964L78.6024 58.8554Z" fill="#DBC751"/>
<path d="M16.6747 84.6387H17.1566L16.9759 84.6989L16.8554 85.0604H16.6747V84.6387Z" fill="#B0C6DA"/>
<path d="M86.1929 22.1688H86.3133L86.1929 22.4097L85.8314 22.6507V22.47L85.8917 22.2892L86.1929 22.1688Z" fill="#BFC494"/>
</svg>
