<svg width="83" height="61" viewBox="0 0 83 61" fill="none" xmlns="http://www.w3.org/2000/svg">
<g clip-path="url(#clip0_1_1328)">
<path d="M1.2257 58.5479C0.548935 58.5479 -8.39233e-05 59.0969 -8.39233e-05 59.7739C-8.39233e-05 60.4512 0.548935 61.0002 1.2257 61.0002H81.0244C81.7015 61.0002 82.2505 60.4512 82.2505 59.7739C82.2505 59.0969 81.7015 58.5479 81.0244 58.5479H1.2257Z" fill="#1B1B1B"/>
<path d="M46.2781 0H14.8212C14.1444 0 13.5954 0.549019 13.5954 1.22579V59.7735C13.5954 60.4508 14.1444 60.9998 14.8212 60.9998H46.2781C46.9549 60.9998 47.5039 60.4508 47.5039 59.7735V1.22579C47.5039 0.549019 46.9549 0 46.2781 0ZM16.0478 2.45237H45.0515V58.5474H16.0478V2.45237Z" fill="#1B1B1B"/>
<path d="M41.6311 6.83838H33.0453C32.368 6.83838 31.8189 7.3874 31.8189 8.06416V16.65C31.8189 17.3273 32.368 17.8758 33.0453 17.8758H41.6311C42.3079 17.8758 42.8572 17.3273 42.8572 16.65V8.06416C42.8572 7.3874 42.3079 6.83838 41.6311 6.83838ZM34.2713 9.29075H40.4045V15.4234H34.2713V9.29075Z" fill="#1B1B1B"/>
<path d="M41.6311 31.0288H33.0453C32.368 31.0288 31.8189 31.5778 31.8189 32.2546V40.8405C31.8189 41.5178 32.368 42.0662 33.0453 42.0662H41.6311C42.3079 42.0662 42.8572 41.5178 42.8572 40.8405V32.2546C42.8572 31.5778 42.3079 31.0288 41.6311 31.0288ZM34.2713 33.4812H40.4045V39.6139H34.2713V33.4812Z" fill="#1B1B1B"/>
<path d="M41.6311 18.9336H33.0453C32.368 18.9336 31.8189 19.4826 31.8189 20.1594V28.7452C31.8189 29.4225 32.368 29.971 33.0453 29.971H41.6311C42.3079 29.971 42.8572 29.4225 42.8572 28.7452V20.1594C42.8572 19.4826 42.3079 18.9336 41.6311 18.9336ZM34.2713 21.386H40.4045V27.5186H34.2713V21.386Z" fill="#1B1B1B"/>
<path d="M28.054 6.83838H19.4686C18.7913 6.83838 18.242 7.3874 18.242 8.06416V16.65C18.242 17.3273 18.7913 17.8758 19.4686 17.8758H28.054C28.7313 17.8758 29.2803 17.3273 29.2803 16.65V8.06416C29.2803 7.3874 28.7313 6.83838 28.054 6.83838ZM20.6947 9.29075H26.8279V15.4234H20.6947V9.29075Z" fill="#1B1B1B"/>
<path d="M28.054 31.0288H19.4686C18.7913 31.0288 18.242 31.5778 18.242 32.2546V40.8405C18.242 41.5178 18.7913 42.0662 19.4686 42.0662H28.054C28.7313 42.0662 29.2803 41.5178 29.2803 40.8405V32.2546C29.2803 31.5778 28.7313 31.0288 28.054 31.0288ZM20.6947 33.4812H26.8279V39.6139H20.6947V33.4812Z" fill="#1B1B1B"/>
<path d="M28.054 18.9336H19.4686C18.7913 18.9336 18.242 19.4826 18.242 20.1594V28.7452C18.242 29.4225 18.7913 29.971 19.4686 29.971H28.054C28.7313 29.971 29.2803 29.4225 29.2803 28.7452V20.1594C29.2803 19.4826 28.7313 18.9336 28.054 18.9336ZM20.6947 21.386H26.8279V27.5186H20.6947V21.386Z" fill="#1B1B1B"/>
<path d="M41.6306 43.1228H33.0453C32.368 43.1228 31.8189 43.6718 31.8189 44.3486V52.9344C31.8189 53.6115 32.368 54.1605 33.0453 54.1605H41.6306C42.3079 54.1605 42.8572 53.6115 42.8572 52.9344V44.3486C42.8572 43.6718 42.3079 43.1228 41.6306 43.1228ZM34.2713 45.5752H40.4045V51.7081H34.2713V45.5752Z" fill="#1B1B1B"/>
<path d="M28.054 43.1228H19.4686C18.7913 43.1228 18.242 43.6718 18.242 44.3486V52.9344C18.242 53.6115 18.7913 54.1605 19.4686 54.1605H28.054C28.7313 54.1605 29.2803 53.6115 29.2803 52.9344V44.3486C29.2803 43.6718 28.7313 43.1228 28.054 43.1228ZM20.6947 45.5752H26.8279V51.7081H20.6947V45.5752Z" fill="#1B1B1B"/>
<path d="M67.4285 12.0947H46.2779C45.6006 12.0947 45.0513 12.6437 45.0513 13.3205V59.7734C45.0513 60.4507 45.6006 60.9998 46.2779 60.9998H67.4285C68.1055 60.9998 68.6545 60.4507 68.6545 59.7734V13.3205C68.6545 12.6437 68.1055 12.0947 67.4285 12.0947ZM47.5036 14.5471H66.2022V58.5474H47.5036V14.5471Z" fill="#1B1B1B"/>
<path d="M61.146 18.9336H52.5601C51.8834 18.9336 51.3344 19.4821 51.3344 20.1594V28.7452C51.3344 29.4225 51.8834 29.971 52.5601 29.971H61.146C61.8233 29.971 62.3723 29.4225 62.3723 28.7452V20.1594C62.3723 19.4821 61.8233 18.9336 61.146 18.9336ZM53.7867 21.386H59.9199V27.5186H53.7867V21.386Z" fill="#1B1B1B"/>
<path d="M61.146 43.1228H52.5601C51.8834 43.1228 51.3344 43.6718 51.3344 44.3486V52.9344C51.3344 53.6115 51.8834 54.1605 52.5601 54.1605H61.146C61.8233 54.1605 62.3723 53.6115 62.3723 52.9344V44.3486C62.3723 43.6718 61.8233 43.1228 61.146 43.1228ZM53.7867 45.5752H59.9199V51.7081H53.7867V45.5752Z" fill="#1B1B1B"/>
<path d="M61.146 31.0288H52.5601C51.8834 31.0288 51.3344 31.5778 51.3344 32.2546V40.8405C51.3344 41.5178 51.8834 42.0662 52.5601 42.0662H61.146C61.8233 42.0662 62.3723 41.5178 62.3723 40.8405V32.2546C62.3723 31.5778 61.8233 31.0288 61.146 31.0288ZM53.7867 33.4812H59.9199V39.6139H53.7867V33.4812Z" fill="#1B1B1B"/>
</g>
<defs>
<clipPath id="clip0_1_1328">
<rect width="82.2506" height="61" fill="white" transform="matrix(-1 0 0 1 82.2505 0)"/>
</clipPath>
</defs>
</svg>
