<svg width="70" height="70" viewBox="0 0 70 70" fill="none" xmlns="http://www.w3.org/2000/svg">
<g clip-path="url(#clip0_1_1343)">
<path d="M12.4072 0H22.627V0.0683594L22.9688 0.307617L23.1738 0.546875L23.3105 0.854492L23.3447 0.991211V5.91309L23.2422 6.32324L22.9688 6.69922L22.6611 6.9043L22.4219 6.97266L22.1484 7.00684H21.0205L21.0547 9.29688H22.7295L23.5498 9.33105L23.9258 9.46777L24.2676 9.77539L24.4385 10.083L24.5068 10.3564V10.6641L24.4043 11.0059L24.2676 11.2109L24.0967 11.3818L23.9258 11.5186L23.6523 11.6211L23.3105 11.6895H19.8242L19.3799 11.5869L19.1064 11.416L18.9355 11.2793L18.7305 10.9375L18.6279 10.4932V5.81055L18.7305 5.36621L18.9355 5.05859L19.209 4.81934L19.5166 4.68262L19.6875 4.64844H20.9521V3.58887L20.9863 2.3584H14.0137V4.64844H15.2441L15.6543 4.75098L15.9619 4.95605L16.2012 5.26367L16.3379 5.63965V10.6299L16.2354 11.0059L16.0303 11.2793L15.7568 11.5186L15.4834 11.6211L15.0391 11.6895H2.3584L2.39258 36.7432L34.2139 4.92188L34.5557 4.7168L34.8633 4.64844H35.1367L35.4785 4.75098L35.7861 4.95605L36.1279 5.26367L67.6074 36.7432L67.6416 11.6895H46.6553L46.2109 11.5869L45.8691 11.3818L45.5957 11.0059L45.4932 10.6982V10.3223L45.5957 9.98047L45.8691 9.60449L46.2109 9.39941L46.416 9.33105L46.792 9.29688H49.6289L69.043 9.33105L69.4189 9.46777L69.7607 9.77539L70 10.1514V40.0928L69.8975 40.1953L69.6924 40.4688L69.4531 40.6738L69.1113 40.8105L68.9746 40.8447H68.667L68.291 40.708L67.915 40.4346L35.0342 7.55371L34.8975 7.62207L2.0166 40.5029L1.64062 40.7422L1.29883 40.8447H0.991211L0.649414 40.7422L0.375977 40.5371L0.170898 40.2979L0 39.9902V10.1855L0.205078 9.80957L0.375977 9.63867L0.581055 9.46777L0.922852 9.33105L1.8457 9.29688H13.9453L13.9795 7.00684H12.7148L12.3389 6.9043L12.1338 6.76758L11.9287 6.59668L11.7236 6.25488L11.6553 5.98145V0.991211L11.7578 0.649414L11.9629 0.375977L12.2363 0.136719L12.373 0.102539L12.4072 0Z" fill="#39A8EE"/>
<path d="M64.0869 40.8105L64.4287 40.8447L64.7705 40.9814L65.1123 41.2891L65.2832 41.5967L65.3516 41.9385V60.6689H65.7959L66.4453 60.7715L67.1631 61.0107L67.8125 61.3525L68.2227 61.6602L68.667 62.0361L69.0771 62.5146L69.3848 62.9932L69.6582 63.54L69.8975 64.2578L69.9658 64.4287H70V66.2402H69.9316L69.6924 67.0605L69.3164 67.8125L69.0088 68.2227L68.5986 68.7012L68.0176 69.1797L67.2656 69.5898L66.7188 69.7949L66.2744 69.9316L65.9668 70H28.916L28.4375 69.7607L28.1641 69.4531L28.0273 69.1455L27.9932 69.0088V68.667L28.0957 68.3252L28.3008 68.0176L28.5742 67.8125L28.916 67.6758L29.0527 67.6416H49.1846L49.0479 67.2314L48.9795 66.7529V66.1719L49.082 65.5908L49.2871 65.0439L49.5947 64.4971L49.9023 64.1211L50.2441 63.7793L50.6885 63.4717L51.3721 63.1299L51.6113 62.3096L51.8164 61.7969L52.0898 61.2158L52.5342 60.6006L52.7734 60.293L53.3887 59.6777L54.0039 59.2334L54.4824 58.96L55.0635 58.6865L55.8838 58.4473L56.5332 58.3447L56.9434 58.3105H57.4219L58.1055 58.3789L58.8574 58.5498L59.5068 58.7891L60.2246 59.165L60.7031 59.5068L61.0449 59.7803L61.6602 60.3955L62.1045 61.0107L62.3779 61.4893V61.5576L62.9248 61.25L62.959 61.2158V42.3828L62.9932 41.8018L63.1299 41.4258L63.335 41.1523L63.6084 40.9473L63.8818 40.8447L64.0869 40.8105ZM57.0459 60.6689L56.4648 60.7373L55.8838 60.9082L55.2344 61.25L54.79 61.626L54.6191 61.7969L54.3115 62.1387L54.0039 62.6855L53.7646 63.4033L53.6621 64.2236L53.5596 64.6338L53.3545 64.9414L53.0811 65.1465L52.8418 65.249L52.0898 65.4199L51.748 65.625L51.543 65.8643L51.4062 66.1377L51.3721 66.3086V66.7188L51.5088 67.0605L51.7139 67.334L52.0557 67.5391L52.4658 67.6416H65.5225L66.0352 67.5391L66.377 67.4023L66.7871 67.1289L67.0605 66.8896L67.2656 66.6162L67.5049 66.1719L67.6074 65.7959L67.6416 65.5225V65.1465L67.5732 64.7363L67.4365 64.3604L67.2314 63.9844L66.8555 63.5742L66.4795 63.3008L66.1035 63.1299L65.6592 63.0273H65.0439L64.4971 63.1299L63.8477 63.4375L63.4033 63.8477L63.2324 64.0527L62.7539 64.873L62.4463 65.1465L62.1387 65.2832H61.5576L61.2158 65.1465L60.9424 64.9072L60.7373 64.5312L60.6348 63.9502L60.5664 63.4375L60.3955 62.8564L60.1221 62.3096L59.8145 61.8994L59.6094 61.6602L59.1309 61.2842L58.6523 61.0107L58.2422 60.8398L57.8662 60.7373L57.251 60.6689H57.0459Z" fill="#39A8EE"/>
<path d="M29.0527 39.6484H40.9131L41.3232 39.751L41.665 39.9902L41.9043 40.332L42.0068 40.708V62.9932L43.2715 62.959L45.6641 62.9932L46.0059 63.0957L46.3477 63.335L46.5527 63.6426L46.6553 63.916L46.6895 64.1895L46.6211 64.5654L46.3818 64.9414L46.1426 65.1465L45.835 65.2832L45.3223 65.3516L25.7031 65.3857L25.6689 69.0088L25.5322 69.3848L25.3271 69.6582L25.0195 69.8975L24.7461 70H24.2334L23.8232 69.7949L23.6523 69.624L23.4814 69.4189L23.3447 69.1113L23.3105 68.9062V64.0527L23.4473 63.6084L23.6865 63.3008L23.9941 63.0957L24.3018 62.9932L25.3955 62.959H27.959V41.1523L27.9932 40.6396L28.1299 40.2637L28.335 39.9902L28.6084 39.7852L28.8477 39.6826L29.0527 39.6484ZM30.3516 42.0068V62.9932H39.6143L39.6484 62.959V53.7305L39.6143 53.6621H38.5547L38.042 53.5596L37.7344 53.3545L37.5293 53.1152L37.3584 52.7051V52.3291L37.4951 51.9189L37.7344 51.6113L38.0078 51.4404L38.3838 51.3379L39.6484 51.3037V42.0068H30.3516Z" fill="#39A8EE"/>
<path d="M5.74219 40.8105L6.11816 40.8447L6.42578 40.9814L6.69922 41.1865L6.9043 41.4941L7.00684 41.8359L7.04102 61.2158L7.55371 61.5234L7.65625 61.4209L7.99805 60.8398L8.44238 60.293L8.71582 59.9854L8.98926 59.7461L9.22852 59.541L9.77539 59.165L10.3906 58.8232L11.1084 58.5498L11.8945 58.3789L12.6123 58.3105H13.0225L13.7402 58.3789L14.2529 58.4814L14.9023 58.6865L15.5176 58.96L15.9961 59.2334L16.5771 59.6777L16.9189 59.9854L17.2266 60.293L17.5684 60.7373L17.9102 61.25L18.2861 62.0361L18.457 62.5488L18.5938 63.0957L18.7305 63.1982L19.1406 63.3691L19.6533 63.7109L20.0977 64.1211L20.4736 64.5996L20.7471 65.1465L20.918 65.625L21.0205 66.2744V66.6846L20.918 67.3682L20.7129 67.915L20.5078 68.3252L20.2344 68.7012L19.8584 69.1113L19.5166 69.3848L18.9697 69.6924L18.3887 69.8975L18.0811 70H3.75977V69.9316L2.87109 69.6582L2.32422 69.3848L1.91406 69.1113L1.46973 68.7354L1.12793 68.3936L0.751953 67.915L0.375977 67.2314L0.0683594 66.3086L0 66.1719V64.6338L0.239258 63.8135L0.410156 63.3691L0.683594 62.8564L0.922852 62.5146L1.29883 62.0703L1.57227 61.7969L2.11914 61.3867L2.73438 61.0449L3.21289 60.874L3.65723 60.7373L4.61426 60.6348L4.64844 41.8701L4.78516 41.4258L5.02441 41.1182L5.33203 40.9131L5.74219 40.8105ZM12.7148 60.6689L11.9971 60.7715L11.3818 60.9766L10.8008 61.3184L10.459 61.626L10.2881 61.7969L9.98047 62.1387L9.63867 62.7539L9.43359 63.335L9.33105 64.1895L9.22852 64.5996L9.02344 64.9414L8.81836 65.1123L8.54492 65.249L8.44238 65.2832H7.86133L7.45117 65.0781L7.17773 64.7705L6.83594 64.1553L6.63086 63.8818L6.28906 63.54L5.94727 63.335L5.46875 63.1299L4.8877 63.0273H4.30664L3.79395 63.1641L3.31543 63.4375L2.97363 63.7451L2.73438 64.0527L2.46094 64.5654L2.3584 65.0781V65.625L2.49512 66.1719L2.73438 66.6162L2.97363 66.9238L3.31543 67.2314L3.8623 67.5049L4.23828 67.6074L4.51172 67.6416H17.5684L17.9785 67.5391L18.3203 67.2998L18.5596 66.958L18.6279 66.6846V66.3086L18.5254 65.9668L18.3203 65.6934L18.0127 65.4541L17.0215 65.2148L16.7139 65.0098L16.5088 64.7363L16.4062 64.5312L16.3037 63.9502L16.2354 63.4033L16.0303 62.7881L15.7227 62.207L15.4492 61.8652L15.2783 61.6602L14.7998 61.2842L14.2529 60.9766L13.7744 60.8057L13.2959 60.7031L12.7148 60.6689Z" fill="#39A8EE"/>
<path d="M12.7148 39.6484H22.251L22.6611 39.751L22.9688 39.9561V40.0244H23.0371L23.2422 40.332L23.3447 40.708V53.6621L23.6182 53.6279H24.165L24.6436 53.6621L25.0195 53.7646L25.3271 54.0039L25.5664 54.3115L25.6689 54.6191V55.0293L25.5322 55.3711L25.3613 55.6445H25.293V55.7129L24.9512 55.918L24.6777 55.9863L24.2676 56.0205H10.459L10.0146 55.918L9.63867 55.6445L9.39941 55.2686L9.33105 55.0635V54.6191L9.46777 54.2432L9.70703 53.9355L10.0488 53.7305L10.2881 53.6621L10.5615 53.6279H11.3135L11.6211 53.6621L11.6553 40.6396L11.792 40.2637L11.9971 39.9902L12.2705 39.7852L12.5098 39.6826L12.7148 39.6484ZM14.0137 42.0068V46.6553H20.9521L20.9863 45.6641V42.041L20.9521 42.0068H14.0137ZM14.0137 49.0137V53.6279L16.6455 53.6621H20.918L20.9521 53.6279L20.9863 52.7393V49.0137H14.0137Z" fill="#39A8EE"/>
<path d="M47.7148 39.6484H57.251L57.6611 39.751L57.9688 39.9561V40.0244H58.0371L58.2422 40.332L58.3447 40.6738V53.6621L58.6182 53.6279H59.2334L59.8486 53.6963L60.1221 53.833L60.4639 54.1406L60.6348 54.4824L60.6689 54.6191V55.0293L60.5664 55.3369L60.293 55.7129L59.9512 55.918L59.4385 56.0205H45.4932L45.1172 55.9521L44.8438 55.8154L44.6387 55.6445L44.3994 55.2686L44.3311 55.0635V54.6191L44.4678 54.2432L44.707 53.9355L45.0488 53.7305L45.2881 53.6621L45.5957 53.6279H46.2793L46.6211 53.6621L46.6553 40.6396L46.792 40.2637L46.9971 39.9902L47.2705 39.7852L47.5098 39.6826L47.7148 39.6484ZM49.0137 42.0068V46.6553H55.9521L55.9863 45.6641V42.041L55.9521 42.0068H49.0137ZM49.0137 49.0137V53.6279L50.7227 53.6621H55.918L55.9521 53.6279L55.9863 52.7393V49.0137H49.0137Z" fill="#39A8EE"/>
<path d="M34.5898 18.6621H35.4102L35.957 18.7305L36.7432 18.9697L37.5293 19.3799L37.9736 19.7217L38.3838 20.0977L38.6572 20.4053L38.9307 20.7812L39.1699 21.1914L39.375 21.6699L39.5801 22.3193L39.6484 22.7637L39.6826 23.3789L39.6143 24.165L39.375 25.0195L39.1016 25.5664L38.9307 25.874L38.6572 26.25L38.1787 26.7627L37.7344 27.1387L37.1533 27.4805L36.709 27.6855L36.0254 27.8906L35.376 27.9932H34.5557L34.043 27.9248L33.1543 27.6514L32.4707 27.2754L32.0264 26.9336L31.582 26.5234L31.2061 26.0791L30.9668 25.7031L30.6592 25.1221L30.4541 24.5068L30.3516 23.96L30.3174 23.6523V23.0713L30.4199 22.2852L30.6934 21.4648L31.1035 20.7129L31.5479 20.166L31.7188 19.9609L32.0947 19.6533L32.4707 19.3799L33.0859 19.0381L33.5645 18.8672L34.043 18.7305L34.5898 18.6621ZM34.6924 21.0205L34.248 21.123L33.7012 21.3965L33.3594 21.6699L33.0859 22.0117L32.8125 22.5586L32.71 22.9688L32.6758 23.4814L32.7783 23.9941L32.915 24.3359L33.0859 24.6436L33.3936 25.0195L33.8037 25.3271L34.1797 25.498L34.5215 25.6006L34.7949 25.6348H35.1709L35.5811 25.5664L36.0596 25.3955L36.5039 25.0879L36.8799 24.7119L37.085 24.3359L37.2217 23.9941L37.29 23.6865V22.9688L37.1533 22.4561L36.9141 22.0117L36.6064 21.6357L36.1963 21.3281L35.752 21.123L35.3418 21.0205H34.6924Z" fill="#39A8EE"/>
</g>
<defs>
<clipPath id="clip0_1_1343">
<rect width="70" height="70" fill="white"/>
</clipPath>
</defs>
</svg>
