<svg width="762" height="192" viewBox="0 0 762 192" fill="none" xmlns="http://www.w3.org/2000/svg">
<g clip-path="url(#clip0_1_15)">
<path d="M724.662 0L762 75.7004L683.514 151.542L724.662 0Z" fill="#008B44"/>
<path d="M698.5 0L735.838 75.7004L657.352 151.542L698.5 0Z" fill="#F37820"/>
<path d="M182.499 146.467C186.182 143.507 188.595 139.982 189.738 135.753L202.184 90.3612C203.327 86.2731 202.819 82.7489 200.66 79.9295C198.501 77.1101 195.453 75.7004 191.262 75.7004C195.326 75.7004 199.263 74.2907 202.946 71.3304C206.629 68.511 209.042 64.9867 210.058 60.7577L222.504 15.3656C223.647 10.9956 223.266 7.3304 221.234 4.37005C219.202 1.4097 216.027 0 211.836 0H50.0381L8.89014 150.414H170.815C174.879 150.837 178.816 149.427 182.499 146.467ZM71.3741 29.7445H148.717H172.974H178.054C180.975 30.4493 183.388 32.4229 184.785 35.1013C185.293 36.9339 185.547 38.9075 185.547 40.881C185.547 42.0088 185.42 42.9956 185.293 43.9824L185.039 44.9691L184.023 48.7753C181.229 55.4008 175.26 60.1938 168.021 61.0396H163.068H62.8651L71.3741 29.7445ZM167.386 109.956C164.465 116.159 158.75 120.529 151.765 121.515H146.685H46.3551L54.8641 90.5022H132.207H156.083H161.29C165.227 91.4889 168.148 94.5902 169.037 98.5374C169.164 99.3832 169.291 100.37 169.291 101.216C169.291 101.639 169.291 102.203 169.164 102.626V103.189L167.386 109.956ZM421.259 0.563889L380.873 150.555H351.79L368.046 90.3612H251.206L234.95 150.555H205.994L246.38 0.563889H275.463L259.207 61.0396H376.047L392.303 0.563889H421.259ZM429.768 150.978H400.558L441.198 1.12776H470.408L429.768 150.978ZM673.735 0.845823L661.67 45.3921L633.349 150.273H604.266L623.443 78.6608L546.735 150.414L500.38 69.3568L478.536 150.273H449.453L480.695 34.8194L489.839 0.704845H490.347L509.905 33.8326L552.196 105.586L673.735 0.845823Z" fill="#6C6E70"/>
<path d="M0 191.154L5.207 169.022H11.049C12.7 169.022 13.97 169.022 14.605 169.304C15.367 169.445 16.002 169.727 16.383 170.15C17.018 170.714 17.399 171.278 17.526 172.123C17.78 172.969 17.78 173.815 17.526 174.802C17.272 175.93 16.764 176.916 16.002 177.762C15.24 178.608 14.351 179.172 13.208 179.454C14.478 179.595 15.367 180.3 16.002 181.286C16.51 182.273 16.637 183.542 16.256 184.952C16.002 185.797 15.748 186.643 15.113 187.489C14.605 188.335 13.97 189.04 13.208 189.604C12.446 190.167 11.557 190.59 10.541 190.872C9.525 191.154 8.001 191.295 5.715 191.295H0V191.154ZM4.31799 188.194H5.58799C6.85799 188.194 7.874 188.194 8.509 188.053C9.144 187.912 9.779 187.771 10.16 187.489C10.668 187.207 11.176 186.784 11.557 186.361C11.938 185.797 12.192 185.374 12.319 184.67C12.446 183.965 12.446 183.401 12.319 182.837C12.192 182.273 11.811 181.85 11.303 181.568C10.922 181.427 10.541 181.286 10.16 181.145C9.652 181.145 9.144 181.004 8.382 181.004H7.239H5.969L4.31799 188.194ZM6.604 178.326H8.001C9.779 178.326 11.049 178.044 11.938 177.621C12.827 177.198 13.335 176.352 13.589 175.225C13.843 173.956 13.716 173.11 13.208 172.687C12.573 172.264 11.43 171.982 9.525 171.982H8.12799L6.604 178.326ZM32.004 191.154L34.544 180.441H45.847L43.307 191.154H46.99L52.197 169.022H48.514L46.609 177.198H35.306L37.211 169.022H33.528L28.321 191.154H32.004ZM77.343 191.154L76.073 185.374H66.929L62.992 191.154H59.055L75.565 168.035L81.28 191.154H77.343ZM68.961 182.414H75.438L74.295 177.339C74.295 177.057 74.168 176.634 74.168 176.211C74.168 175.789 74.041 175.366 74.041 174.802C73.787 175.225 73.533 175.789 73.279 176.211C73.025 176.634 72.771 177.057 72.517 177.339L68.961 182.414ZM98.933 181.286L96.647 191.154H93.091L98.298 169.022H103.505C105.029 169.022 106.172 169.163 107.061 169.304C107.823 169.445 108.458 169.868 108.966 170.291C109.601 170.855 109.982 171.559 110.109 172.405C110.236 173.251 110.236 174.238 109.982 175.225C109.601 177.057 108.839 178.326 107.696 179.454C106.553 180.441 105.156 181.145 103.378 181.286L108.966 191.436H104.775L99.441 181.568H98.933V181.286ZM99.822 178.467H100.457C102.362 178.467 103.759 178.185 104.521 177.762C105.283 177.339 105.791 176.493 106.045 175.366C106.299 174.097 106.172 173.251 105.664 172.828C105.029 172.264 103.886 172.123 101.981 172.123H101.346L99.822 178.467ZM136.017 191.154L134.747 185.374H125.603L121.539 191.154H117.602L134.112 168.035L139.827 191.154H136.017ZM127.762 182.414H134.239L133.096 177.339C132.969 177.057 132.969 176.634 132.969 176.211C132.969 175.789 132.842 175.366 132.842 174.802C132.588 175.225 132.334 175.789 132.207 176.211C131.953 176.634 131.699 177.057 131.445 177.339L127.762 182.414ZM168.148 171.982L168.91 168.881H152.908L152.146 171.982H158.242L153.797 191.154H157.48L161.925 171.982H168.148ZM199.517 191.154L204.724 169.022H200.914L195.707 191.154H199.517ZM218.059 191.154L221.742 175.789C221.996 176.211 222.25 176.634 222.504 177.057C222.758 177.48 223.139 177.903 223.393 178.185L235.077 192L240.538 169.022H237.109L233.553 184.388C233.172 183.824 232.918 183.401 232.664 182.837C232.41 182.414 232.029 181.991 231.775 181.568L220.345 168.035L214.884 191.154H218.059ZM268.224 171.982L268.859 168.881H252.984L252.222 171.982H258.318L253.873 191.154H257.683L262.128 171.982H268.224ZM289.179 191.154L289.941 187.912H280.797L282.448 180.722H291.592L292.354 177.621H283.21L284.48 171.982H293.624L294.386 168.881H281.432L276.225 191.013H289.179V191.154ZM308.991 181.286L306.705 191.154H303.149L308.356 169.022H313.563C315.087 169.022 316.23 169.163 316.992 169.304C317.754 169.445 318.389 169.868 318.897 170.291C319.532 170.855 319.913 171.559 320.04 172.405C320.167 173.251 320.167 174.238 319.913 175.225C319.532 177.057 318.77 178.326 317.627 179.454C316.484 180.441 315.087 181.145 313.309 181.286L318.897 191.436H314.706L309.372 181.568H308.991V181.286ZM309.88 178.467H310.515C312.547 178.467 313.817 178.185 314.579 177.762C315.341 177.339 315.849 176.493 316.103 175.366C316.357 174.097 316.23 173.251 315.722 172.828C315.087 172.264 313.944 172.123 312.039 172.123H311.404L309.88 178.467ZM334.645 191.154L337.058 180.722H346.202L346.964 177.621H337.82L339.09 172.123H348.234L348.996 169.022H336.169L330.962 191.154H334.645ZM371.602 191.154L370.332 185.374H361.188L357.124 191.154H353.187L369.697 168.035L375.412 191.154H371.602ZM363.22 182.414H369.697L368.554 177.339C368.427 177.057 368.427 176.634 368.427 176.211C368.427 175.789 368.3 175.366 368.3 174.802C368.046 175.225 367.792 175.789 367.538 176.211C367.284 176.634 367.03 177.057 366.903 177.339L363.22 182.414ZM410.337 170.714C409.321 170.009 408.305 169.445 407.162 169.022C406.019 168.599 404.749 168.458 403.352 168.458C401.701 168.458 400.05 168.74 398.399 169.304C396.748 169.868 395.224 170.714 393.954 171.841C392.557 172.969 391.414 174.238 390.398 175.648C389.509 177.057 388.747 178.608 388.366 180.159C387.985 181.85 387.985 183.26 388.239 184.811C388.493 186.22 389.128 187.489 389.89 188.617C390.779 189.745 391.922 190.449 393.319 191.013C394.716 191.577 396.24 191.859 398.018 191.859C399.415 191.859 400.685 191.718 401.955 191.295C403.225 191.013 404.495 190.449 405.638 189.744L406.527 185.656C405.13 186.643 403.86 187.348 402.463 187.771C401.066 188.194 399.796 188.476 398.399 188.476C396.113 188.476 394.335 187.63 393.192 186.079C392.049 184.529 391.668 182.555 392.303 180.159C392.938 177.621 394.208 175.648 396.113 174.097C398.018 172.546 400.304 171.7 402.844 171.7C404.114 171.7 405.384 171.982 406.4 172.405C407.416 172.828 408.432 173.533 409.321 174.379L410.337 170.714ZM432.562 191.154L433.324 187.912H424.18L425.831 180.722H434.975L435.737 177.621H426.593L427.863 171.982H437.007L437.769 168.881H424.942L419.735 191.013H432.562V191.154ZM469.773 191.154L472.186 180.722H481.33L482.092 177.621H472.948L474.218 172.123H483.362L484.124 169.022H471.297L466.09 191.154H469.773ZM518.795 180.159C518.414 181.709 517.779 183.26 516.763 184.67C515.874 186.079 514.604 187.348 513.207 188.476C511.81 189.604 510.286 190.449 508.635 191.013C506.984 191.577 505.333 191.859 503.809 191.859C502.158 191.859 500.634 191.577 499.237 191.013C497.84 190.449 496.697 189.604 495.808 188.476C494.919 187.348 494.284 186.079 494.03 184.811C493.776 183.401 493.776 181.85 494.157 180.3C494.538 178.749 495.173 177.198 496.062 175.789C496.951 174.379 498.221 173.11 499.618 171.982C501.015 170.855 502.539 170.009 504.19 169.445C505.841 168.881 507.492 168.599 509.143 168.599C510.794 168.599 512.318 168.881 513.715 169.445C515.112 170.009 516.128 170.855 517.144 171.982C518.033 173.11 518.668 174.379 518.922 175.789C519.176 177.057 519.176 178.608 518.795 180.159ZM514.858 180.159C515.112 179.031 515.112 177.903 514.985 176.916C514.858 175.93 514.477 174.943 513.842 174.238C513.207 173.392 512.445 172.828 511.556 172.405C510.667 171.982 509.651 171.841 508.508 171.841C507.365 171.841 506.222 171.982 505.206 172.405C504.063 172.828 503.047 173.392 502.031 174.238C501.015 174.943 500.253 175.93 499.618 176.916C498.983 177.903 498.475 179.031 498.221 180.159C497.967 181.286 497.967 182.414 498.094 183.401C498.221 184.388 498.729 185.374 499.237 186.079C499.872 186.925 500.634 187.489 501.523 187.912C502.412 188.335 503.428 188.476 504.571 188.476C505.714 188.476 506.857 188.194 507.873 187.912C509.016 187.489 510.032 186.925 511.048 186.079C512.064 185.233 512.826 184.388 513.588 183.401C514.096 182.273 514.604 181.286 514.858 180.159ZM536.067 181.286L533.781 191.154H530.225L535.432 169.022H540.639C542.163 169.022 543.306 169.163 544.195 169.304C544.957 169.445 545.592 169.868 546.1 170.291C546.735 170.855 547.116 171.559 547.243 172.405C547.37 173.251 547.37 174.238 547.116 175.225C546.735 177.057 545.973 178.326 544.83 179.454C543.687 180.441 542.29 181.145 540.512 181.286L546.1 191.436H541.909L536.575 181.568H536.067V181.286ZM536.956 178.467H537.591C539.623 178.467 540.893 178.185 541.655 177.762C542.417 177.339 542.925 176.493 543.179 175.366C543.433 174.097 543.306 173.251 542.798 172.828C542.163 172.264 541.02 172.123 539.115 172.123H538.48L536.956 178.467ZM598.678 191.154H602.107L601.98 168.035L592.074 181.991L591.693 182.555C590.931 183.542 590.423 184.388 590.042 184.952C589.915 184.247 589.788 183.542 589.661 182.978C589.534 182.414 589.534 182.132 589.407 181.85L585.978 167.894L575.056 191.013H578.485L583.565 180.018C583.819 179.454 584.073 178.89 584.2 178.467C584.327 177.903 584.581 177.48 584.708 177.057C584.708 177.48 584.835 178.044 584.835 178.467C584.962 178.89 584.962 179.454 585.089 179.877L588.264 192L597.027 180.159C597.408 179.595 597.789 179.172 598.043 178.608C598.297 178.044 598.551 177.621 598.805 177.057C598.805 177.48 598.678 178.044 598.678 178.608C598.551 179.454 598.551 179.877 598.551 180.018V191.154H598.678ZM641.096 180.159C640.715 181.709 640.08 183.26 639.191 184.67C638.302 186.079 637.032 187.348 635.635 188.476C634.238 189.604 632.714 190.449 631.063 191.013C629.412 191.577 627.761 191.859 626.11 191.859C624.459 191.859 622.935 191.577 621.538 191.013C620.141 190.449 618.998 189.604 618.109 188.476C617.22 187.348 616.585 186.079 616.331 184.811C616.077 183.401 616.077 181.85 616.458 180.3C616.839 178.749 617.474 177.198 618.363 175.789C619.252 174.379 620.522 173.11 621.919 171.982C623.316 170.855 624.84 170.009 626.491 169.445C628.142 168.881 629.793 168.599 631.444 168.599C633.095 168.599 634.619 168.881 635.889 169.445C637.286 170.009 638.429 170.855 639.318 171.982C640.207 173.11 640.842 174.379 641.096 175.789C641.477 177.057 641.477 178.608 641.096 180.159ZM637.159 180.159C637.413 179.031 637.413 177.903 637.286 176.916C637.159 175.93 636.651 174.943 636.143 174.238C635.508 173.392 634.746 172.828 633.857 172.405C632.968 171.982 631.952 171.841 630.809 171.841C629.666 171.841 628.523 171.982 627.38 172.405C626.237 172.828 625.221 173.392 624.205 174.238C623.189 174.943 622.427 175.93 621.792 176.916C621.157 177.903 620.649 179.031 620.395 180.159C620.141 181.286 620.141 182.414 620.268 183.401C620.522 184.388 620.903 185.374 621.411 186.079C622.046 186.925 622.808 187.489 623.697 187.912C624.586 188.335 625.602 188.476 626.745 188.476C627.888 188.476 629.031 188.194 630.174 187.912C631.317 187.489 632.333 186.925 633.349 186.079C634.365 185.233 635.127 184.388 635.762 183.401C636.397 182.273 636.905 181.286 637.159 180.159ZM655.955 191.154L659.511 175.789C659.765 176.211 660.019 176.634 660.273 177.057C660.527 177.48 660.781 177.903 661.162 178.185L672.846 192L678.307 169.022H674.878L671.322 184.388C670.941 183.824 670.687 183.401 670.306 182.837C670.052 182.414 669.671 181.991 669.417 181.568L657.987 168.035L652.526 191.154H655.955ZM700.913 191.154L701.675 187.912H692.531L694.182 180.722H703.326L704.088 177.621H694.944L696.214 171.982H705.358L706.12 168.881H693.293L688.086 191.013H700.913V191.154ZM723.646 191.154L726.059 181.004L736.854 169.022H733.044L726.313 176.493C726.059 176.775 725.805 177.057 725.551 177.339C725.297 177.621 725.043 178.044 724.789 178.326C724.662 177.903 724.662 177.621 724.535 177.339C724.408 177.057 724.281 176.775 724.281 176.634L721.233 169.163H717.296L722.249 181.145L719.836 191.295H723.646V191.154Z" fill="#404042"/>
</g>
<defs>
<clipPath id="clip0_1_15">
<rect width="762" height="192" fill="white"/>
</clipPath>
</defs>
</svg>
