<svg width="100" height="100" viewBox="0 0 100 100" fill="none" xmlns="http://www.w3.org/2000/svg">
<path d="M56.3125 25.8125H57.9375L59.0625 26L60.0625 26.25L61.3125 26.8125L62 27.25L62.875 27.875L63.8125 28.8125L64.5625 29.875L65.0625 30.9375L65.5 32.1875L65.6875 33.375V35.6875L65.5625 36.8125L65.25 38L64.75 39.4375L64.0625 40.75L63.3125 42L62.5 43.125L61.9375 43.8125L61.5 44.375L60.9375 45L60.5 45.5L59.1875 46.8125L58.6875 47.25L58.1875 47.75L57.625 48.1875L56.75 48.9375L55.875 49.625L54.8125 50.4375L53.3125 51.5625L52.5 52.125L51.4375 52.875L50.1875 53.6875L49.0625 54.375L48.1875 54.9375L47 55.6875L46.0625 56.25L44.9375 56.9375L42.4375 58.4375L40.6875 59.4375L39.4375 60.125L38.125 60.875L35.25 62.4375L32.875 63.625L30.9375 64.5L29.625 64.9375H29.0625L28.75 64.75L28.3125 64.25L27.9375 63.625L27.75 63V62.1875L28.125 61.625L28.6875 61.1875L30 60.5L31.125 60L32.1875 59.4375L33.1875 58.9375L34.625 58.1875L35.8125 57.5L37.4375 56.625L38.3125 56.125L39.4375 55.5L40.5 54.875L42.6875 53.5625L44.4375 52.5L45.3125 51.9375L46.4375 51.25L47.5 50.5625L50.5 48.5625L52.625 47L53.375 46.375L54.1875 45.75L54.8125 45.1875L55.5 44.625L56.3125 43.875L56.8125 43.4375L57.25 42.9375L58 42.1875L58.4375 41.6875L59.0625 40.9375L59.5625 40.25L60.1875 39.375L60.75 38.375L61.0625 37.625L61.5 36.375L61.6875 35.25V33.6875L61.4375 32.6875L61 31.8125L60.5 31.1875L59.875 30.625L59.125 30.1875L58.375 29.9375L57.5 29.8125H56.75L55.875 29.9375L55.0625 30.25L54.3125 30.625L53.4375 31.125L52.4375 31.9375L51.75 32.5L48 36.25L47.5 36.6875L46.875 37.3125L46.375 37.75L45.5625 38.5L45 39L44.5 39.4375L43.8125 40L42.25 41.25L41.375 41.9375L40.125 42.875L39.5 43.3125L38.625 43.875L37.375 44.6875L36.1875 45.375L34.75 46.125L33.75 46.625L32.5 47.1875L31 47.8125L28.875 48.5625L27.4375 48.9375L26.5 49.125L26 49.0625L25.625 48.8125L25.25 48.25L25 47.5625L24.9375 46.6875L25.0625 46.0625L25.5625 45.625L26.4375 45.1875L28.5625 44.4375L29.625 44L31.5 43.1875L34 41.9375L35.5 41.0625L36.375 40.5L37.3125 39.875L38.1875 39.25L38.9375 38.6875L39.625 38.125L40.4375 37.5L41.25 36.8125L41.9375 36.25L42.6875 35.5625L43.375 35L43.8125 34.625L45 33.4375H45.125L45.25 33.1875L46.0625 32.4375L48.8125 29.6875L49.3125 29.25L50 28.625L50.875 27.9375L51.5625 27.5L52.625 26.875L53.625 26.4375L55.125 26L56.3125 25.8125Z" fill="#F3973C"/>
<path d="M50.5625 12.6875H51.8125L53.5 12.8125L55.125 13.0625L56.6875 13.4375L58.1875 13.9375L59.4375 14.5L60.6875 15.125L62 15.9375L63.125 16.75L63.8125 17.3125L64.625 18.0625L65.3125 18.6875L65.75 19.1875L66.4375 19.9375L67.6875 21.5625L68.3125 22.5L69.375 24.3125L70.125 25.75L70.6875 26.9375L71.5 28.9375L72.25 31.1875L72.8125 33.0625L73.25 34.6875L73.8125 36.5L74.25 37.6875L74.75 38.75L75 39.6875V40.3125L74.8125 40.625L74.125 41.0625L73.25 41.625H72.75L72.125 41.25L71.5 40.75L71.0625 40.25L70.5625 39.25L70 37.875L69.4375 36L68.625 33.0625L67.625 30.0625L66.875 28.25L66.375 27.25L65.6875 25.9375L64.875 24.625L64.125 23.5625L63.4375 22.6875L62.6875 21.8125L62.25 21.375V21.25L62 21.125L61.5625 20.6875L60.875 20.125L60.0625 19.5L59.0625 18.875L58.0625 18.3125L56.875 17.75L55.875 17.375L54.5 17L52.75 16.75H49.75L48 17L46.6875 17.375L44.75 18.0625L43.6875 18.5625L42.1875 19.4375L40.6875 20.4375L39.6875 21.25L39.0625 21.75L38.1875 22.5L37.25 23.375L36.0625 24.5625L35.5 25.25L35.0625 25.6875L34.5 26.375L34 27L33.3125 27.875L32.625 28.6875L32.0625 29.375L31.5625 30L30.8125 30.875L30.0625 31.6875L29.375 32.25L28.625 32.875L27.625 33.4375L26.8125 33.6875L26.375 33.625L25.75 33.125L25.3125 32.6875L25 32.125L24.9375 31.875V31.0625L25.3125 30.4375L26 29.8125L26.6875 29.3125L27.375 28.6875L27.625 28.4375H27.75L27.875 28.1875L28.5625 27.375L29.125 26.625L30.375 25.0625L31.0625 24.1875L31.875 23.25L32.625 22.375L33.1875 21.75L34.125 20.75L34.9375 19.9375L35.4375 19.5L35.875 19.0625L36.75 18.375L37.5 17.75L38.6875 16.875L39.8125 16.125L41.25 15.3125L42.6875 14.5625L44.375 13.875L45.5 13.5L47.375 13.0625L49.0625 12.8125L50.5625 12.6875Z" fill="#F3973C"/>
<path d="M53.4375 56.375H54.25L55.625 56.6875L57.1875 57.3125L58.4375 58L60.125 59.125L61.375 60L63.5 61.5L65.375 62.75L66.6875 63.5625L68.0625 64.3125L69.6875 65.1875L70.625 65.8125L70.9375 66.1875L71 66.5625L70.8125 67.375L70.4375 68.0625L70 68.6875L69.4375 69L68.875 68.9375L67.8125 68.625L66.5 68.0625L64.8125 67.125L63.625 66.375L62.1875 65.4375L61 64.625L58.8125 63.125L57.875 62.5L56.5625 61.6875L55.375 61L54.125 60.4375L53.875 60.375H53.4375L52 61.0625L51.1875 61.5625L49.9375 62.3125L48.5625 63.1875L47.375 63.9375L46.625 64.4375L44.6875 65.6875L43.0625 66.75L41.6875 67.625L40.8125 68.1875L39.875 68.75L38.5625 69.5625L37.25 70.3125L35.4375 71.25L34.0625 71.8125L33.0625 72.0625H32.5L32 71.6875L31.625 71.1875L31.1875 70.3125L31.0625 69.6875L31.125 69.25L31.375 68.9375L32 68.5L32.625 68.125L33.875 67.5625L35.375 66.75L36.8125 65.875L38.875 64.5625L40.375 63.625L41.3125 63L42.875 62L43.625 61.5L44.875 60.6875L45.9375 60L47.125 59.25L48.875 58.1875L51.4375 56.875L52.75 56.4375L53.4375 56.375Z" fill="#F3973C"/>
<path d="M56.25 33.0625H57.0625L57.5625 33.25L58.25 33.8125L58.5625 34.125L58.75 34.5V35.0625L58.4375 35.9375L57.625 37.125L57 37.9375L56.5 38.5625L55.6875 39.5L55.125 40.125L52.1875 43.0625L51.6875 43.5L51.125 44L50.625 44.4375L50.0625 44.9375L49.1875 45.625L47.3125 47.0625L46.3125 47.8125L45.3125 48.5L44.625 48.9375L43.6875 49.5625L42.625 50.25L41.75 50.75L40.25 51.625L36.3125 53.6875L34.5625 54.5L33.3125 55.0625L31.875 55.6875L29 56.75L27.75 57.0625L27 57.125L26.625 56.875L26.375 56.5625L26.125 56.0625L25.9375 55.5625L25.875 55.125V54.4375L26.0625 53.9375L26.625 53.5L27.6875 53L30.25 52L33.6875 50.4375L36.5625 49L37.9375 48.25L39.375 47.4375L40.9375 46.5L43.75 44.625L44.875 43.8125L46.5625 42.5L47.625 41.625L48.4375 40.9375L48.9375 40.5L49.375 40.0625L49.875 39.625L50.6875 38.8125L51.1875 38.375L51.625 37.875L51.9375 37.625L52.4375 37L53 36.4375L54.5 34.5625L55.125 33.75L55.5625 33.375L56.0625 33.125L56.25 33.0625Z" fill="#F3973C"/>
<path d="M53.5625 19.1875L54.3125 19.25L54.9375 19.5625L55.4375 20L55.6875 20.4375L55.75 20.75V21.875L55.4375 22.375L55 22.6875L54 23L52.125 23.5L50.5625 24L49.5625 24.5L48.375 25.125L47.6875 25.5625L47.0625 26L46.1875 26.6875L45.5 27.25L44.625 28L44.3125 28.3125H44.1875L44.125 28.5L43.8125 28.8125H43.6875V28.9375L43.25 29.3125L42.6875 30L42.125 30.5625L41.625 31.1875L41.25 31.625L40.6875 32.3125L39.75 33.3125L39.1875 33.9375L38.6875 34.375L38.3125 34.8125L37.8125 35.25L37.125 35.875L36.125 36.625L35.25 37.25L34.3125 37.875L33.1875 38.5625L31.6875 39.375L30.6875 39.875L29.25 40.5625L28.0625 40.9375L27.25 41.125H26.75L26.25 40.8125L25.875 40.25L25.5 39.5625L25.375 39.125V38.8125L25.5 38.625L25.625 38.1875L26.0625 37.6875L26.6875 37.3125L29.125 36.1875L30.5 35.4375L31.875 34.625L33.125 33.8125L34 33.125L34.8125 32.4375L35.5625 31.75L36.1875 31.1875L36.625 30.6875H36.75L36.875 30.4375L37.8125 29.4375L38.3125 28.8125L38.75 28.375L39.5 27.4375H39.625L39.75 27.1875L40.3125 26.625L40.75 26.125L41.1875 25.6875L41.5625 25.375L42.4375 24.5L42.9375 24.0625L43.625 23.5L44.4375 22.875L45.4375 22.1875L46.4375 21.5625L47.5625 20.9375L48.875 20.375L51.1875 19.625L52.5625 19.3125L53.5625 19.1875Z" fill="#F3973C"/>
<path d="M51.75 65.9375H53.3125L54.25 66.1875L56 66.875L57.1875 67.5L58.5 68.25L60 69.1875L61.8125 70.25L63.5625 71.3125L65.4375 72.3125L66.5 72.9375L67.0625 73.375L67.125 73.5V73.9375L66.875 74.9375L66.4375 75.75L66.0625 76.1875L65.6875 76.5L65.3125 76.4375L63.875 75.9375L62.4375 75.25L61.0625 74.5L58.875 73.1875L57.0625 72.125L55.375 71.1875L54.375 70.625L53.1875 70.0625L52.6875 69.875L52.25 69.9375L51.625 70.25L50.9375 70.6875L49.75 71.4375L49.125 71.875L47.8125 72.75L46.75 73.5L46.125 73.9375L44.9375 74.8125L43.75 75.625L42.625 76.4375L41.75 77.0625L40.0625 78.1875L39.25 78.6875L38.6875 78.9375L38.375 79L37.6875 78.625L37 77.8125L36.625 77.0625L36.5 76.625V76.25L37.25 75.375L38.0625 74.6875L38.9375 74.0625L40.0625 73.25L41.125 72.5L42.0625 71.8125L42.5625 71.4375L43.625 70.6875L44.625 70L46.0625 69L47 68.375L48.3125 67.5625L49.3125 67L50.25 66.5L51.5625 66L51.75 65.9375Z" fill="#F3973C"/>
<path d="M90.75 4.9375H92.0625L94.8125 5L94.9375 5.125V21.9375L94.6875 22.0625H91.4375L91.125 21.9375L91.0625 21.625V8.8125H78.125L77.9375 8.75L77.875 8.625V5.5625L77.9375 5.125L78.1875 5L90.75 4.9375Z" fill="#F3973C"/>
<path d="M5.0625 5H21.875L22.0625 5.0625L22.125 5.375L22.0625 7.8125L22 8.6875L21.875 8.75L8.9375 8.875L8.875 16.8125V21.9375L8.75 22H5.125L5 21.6875V5.375L5.0625 5Z" fill="#F3993F"/>
<path d="M91.0625 77.9375H94.8125L94.9375 78.0625V94.75L94.875 94.8125L90.5 94.875H78.5625L77.875 94.8125L77.8125 94.6875V91.5625L77.875 91.125L91 91.0625V83.75L91.0625 77.9375Z" fill="#F3973C"/>
<path d="M5.0625 77.875H7L8.75 77.9375L8.875 78.125V80.3125L8.8125 91.0625L21.875 91.125L22.0625 91.3125L22 94.6875L21.75 94.8125L10.25 94.9375H6.5L5.125 94.875L5 94.6875V79.6875L5.0625 77.875Z" fill="#F3973C"/>
<path d="M51.6875 75.3125H52.25L53.375 75.5625L54.4375 75.9375L55.5 76.4375L56.75 77.1875L57.375 77.625L58.1875 78.1875L59.75 79.25L60.8125 80.0625L61 80.1875V80.3125L61.25 80.4375L61.6875 80.875L61.8125 81.125V81.5625L61.3125 82.5625L60.6875 83.375L60.25 83.875L60.125 83.9375L59.375 83.625L58.4375 83.125L57.0625 82.25L55.625 81.3125L54.75 80.75L53.5625 80L52.4375 79.375L51.9375 79.3125L50.5 80.0625L49.375 80.9375L48.5625 81.625L47.9375 82.125L47 83L46.3125 83.5625L45.25 84.375L44.6875 84.6875L44.375 84.625L44.0625 84.375L43.4375 83.9375L43 83.5L42.5 82.5L42.5625 82.0625L43.1875 81.1875L43.75 80.5625L44.9375 79.375H45.0625L45.1875 79.125L46.0625 78.375L46.6875 77.8125L47.875 76.9375L49 76.25L50 75.75L50.8125 75.4375L51.6875 75.3125Z" fill="#F3973C"/>
<path d="M59.875 48.3125H60.3125L60.8125 48.625L61.25 49.0625L61.8125 50L62.5 51.125L63.0625 51.875L63.625 52.5L64.125 53L64.9375 53.625L65.875 54.25L67.125 54.9375L68.125 55.4375L69.4375 56.0625L69.9375 56.4375L70.125 56.6875L70.1875 56.9375V57.625L69.9375 58.4375L69.4375 59.125L69.0625 59.4375H68.8125V59.5625L68.4375 59.5L67.9375 59.3125L66.5 58.8125L65.0625 58.125L63.8125 57.375L62.625 56.5L61.75 55.75L61.3125 55.3125L60.875 54.9375L60.4375 54.4375L59.8125 53.625L59.0625 52.4375L58.5 51.375L58 50.1875V49.8125L58.375 49.1875L59 48.6875L59.625 48.375L59.875 48.3125Z" fill="#F3973C"/>
<path d="M64.875 42.5625H65.625L66.25 42.9375L66.625 43.4375L66.8125 43.875L67.125 45L67.5625 45.875L68.0625 46.5625L68.5 47L69.125 47.4375L70.25 48.0625L71 48.4375L71.875 49L72.4375 49.5L72.625 49.875V50.3125L72.1875 51.3125L71.8125 51.8125L71.4375 52.0625L71.0625 52.125L70.125 51.9375L68.625 51.375L67.4375 50.75L66.625 50.1875L65.75 49.4375L65.125 48.8125L64.4375 47.8125L63.9375 46.875L63.3125 44.9375L63.1875 44.3125L63.6875 43.4375L64.0625 42.9375L64.6875 42.625L64.875 42.5625Z" fill="#F3973C"/>
</svg>
