<svg width="100" height="100" viewBox="0 0 100 100" fill="none" xmlns="http://www.w3.org/2000/svg">
<path d="M34 24.1875H35.75L37 24.4375L38 24.875L38.75 25.4375L39.5 26.1875L40 27L40.5625 28.1875L40.875 29.375L41 30.5V34.375L40.75 36.0625L40.375 37.0625L40 37.8125L39.5625 38.4375L38.625 39.3125L38.5625 39.4375H38.6875V39.625L39 39.75L40.1875 40.375L41.0625 40.8125L42.375 41.6875L42.6875 41.875L42.625 41.25L42.5 41L42.375 40.0625V33.75L42.5 32.1875L42.75 31.3125L43.125 30.3125L43.75 29.1875L44.125 28.6875L45.125 27.6875L46.0625 27.0625L46.9375 26.625L48 26.3125L48.75 26.1875H50.75L52.0625 26.375L52.875 26.625L53.875 27.125L54.8125 27.75L56 28.9375L56.625 29.9375L56.9375 30.5625L57.25 31.5L57.4375 32.5625L57.5 33.4375V39.4375L57.375 40.875L57.25 41.625V42L58.25 41.375L59.1875 40.75L60.875 39.875L61.1875 39.625L61.25 39.375L60.625 38.625L59.9375 37.625L59.5 36.6875L59.25 35.5625L59.125 34.5625V30.3125L59.25 29L59.375 28.375L59.8125 27.25L60.375 26.375L60.9375 25.75L61.5625 25.1875L62.375 24.6875L63.375 24.3125L64.1875 24.1875H66L67.25 24.4375L68.25 24.875L68.875 25.3125L69.625 26L70.125 26.625L70.75 27.8125L71.0625 28.75L71.25 29.625L71.3125 30.625V32.875L71.25 34.5L71.125 35.75L70.75 37L70.1875 38L69.625 38.6875L69 39.25L68.9375 39.375H68.8125L69.0625 39.625L70.5 40.375L71.1875 40.75L72 41.25L72.5 41.625L72.875 41.75L72.8125 41.0625L72.6875 40.375L72.625 39.125V36.25L72.5625 34.6875V33.9375L72.8125 32.25L73.1875 30.9375L73.5625 30.0625L74.125 29.125L74.625 28.4375H74.75L74.875 28.1875L75.4375 27.6875L76.5625 26.9375L77.5625 26.5L78.5 26.25L78.9375 26.1875H81.0625L82.625 26.4375L83.75 26.875L84.8125 27.5L85.4375 28.0625L86 28.625L86.625 29.5L87.1875 30.5625L87.625 31.75L87.875 32.875L88 34.1875V38.75L87.875 40.125L87.625 41.4375L87.1875 42.625L86.75 43.5L86 44.5L85.375 45.0625L84.8125 45.5L85 45.6875L85.75 46.0625L87 46.625L87.9375 47.1875L88.8125 47.75L89.875 48.5625L90.5 49.0625V49.1875L90.75 49.3125L91.375 49.9375L92.5 51.3125L93.25 52.5L93.75 53.4375L94.375 55L94.6875 56.125L94.875 57.5625L94.9375 58.6875V64.3125L94.625 64.625L94 64.6875L75.3125 64.75L74.8125 64.6875L74.6875 64.5625L74.5 64V63.3125L74.75 62.75L75.25 62.6875H77.5625L93 62.625L93.0625 62.5625L93.125 62V59.625L93 58.125L92.6875 56.5625L92.25 55.25L91.6875 54L91.1875 53.0625L90.5625 52.1875L89.8125 51.3125L89.3125 50.8125L88.8125 50.375L88 49.75L87.0625 49.125L86.125 48.5625L84.625 47.875L83.625 47.5625L82.375 47.25L81.5 47.125L80.5625 47.0625H79.875L78.1875 47.25L76.1875 47.75L75.3125 48.0625L73.6875 48.875L72.9375 49.375L71.875 50.1875L71.4375 50.625H71.3125V50.75L71 51.0625L70.75 51.375L70.4375 51.6875L69.875 52.375L69.3125 53.1875L68.9375 53.875L68.375 54.9375L67.875 56.3125L67.5625 57.9375L67.5 58.6875L67.4375 61.1875V62.375L67.5 62.5625L67.8125 62.625L72.5 62.6875L73.3125 62.75L73.625 63L73.6875 63.25V64.0625L73.4375 64.5625L73.25 64.6875L66.5625 64.75L65.8125 64.6875L65.6875 64.5625L65.5 63.9375L65.375 59.625V58.75L65.625 57L66.0625 55.3125L66.5625 54L67.0625 53L67.6875 51.9375L68.1875 51.1875L68.8125 50.4375L69.1875 49.9375L70.1875 48.9375L71.0625 48.25L71.6875 47.8125L72.8125 47.125L73.875 46.5625L74.1875 46.3125L74 45.75L73.3125 44.8125L72.5625 43.9375L71.75 43.1875L70.8125 42.5L69.8125 41.9375L68.625 41.375L67.375 40.9375L66.4375 40.75H63.8125L62.5 41L61.6875 41.3125L60.6875 41.8125L59.75 42.375L58.875 43.0625L58.1875 43.625L57.125 44.6875L56.5625 45.375L56.1875 45.875L56.0625 46.125L56.25 46.1875V46.3125L56.5 46.4375L57.5 47.0625L58.3125 47.625L59.125 48.25L59.875 48.8125L61.375 50.3125V50.4375H61.5L62.3125 51.5625L62.875 52.5L63.5 53.625L63.8125 54.3125L64.5 56.4375L64.625 56.875L64.75 57.75L64.875 59.9375V63.3125L64.8125 64.3125L64.625 64.625L63.625 64.75H62L61.75 66.3125L61.25 67.9375L60.625 69.375L60 70.4375L59.375 71.25L58.25 72.5L57.75 72.9375L56.9375 73.625L55.875 74.3125L55 74.75L53.875 75.125L52.3125 75.5L51 75.6875H48.3125L46.8125 75.4375L45.5625 75.0625L44.375 74.5625L43.1875 73.875L42.1875 73.125L41.875 72.875V72.75L41.625 72.625L41.375 72.375V72.25L41.125 72.125L40.4375 71.25L39.875 70.5L38.9375 68.6875L38.4375 67.3125L38.125 66.125L37.875 64.875L37.8125 64.75H35.875L35.375 64.5625L35.125 64.25L35 62.125V59.5625L35.1875 57.6875L35.5 56.125L36.0625 54.5L36.625 53.25L37.125 52.3125L37.9375 51.125L38.6875 50.25L39.375 49.5L39.625 49.375V49.25L40.125 48.8125L40.75 48.25L41.625 47.625L42.4375 47.125L43.6875 46.5L43.875 46.3125L43.75 45.9375L43 44.875L42.3125 44L41.75 43.4375L40.875 42.75L40 42.1875L38.875 41.5625L37.5625 41.0625L36.75 40.875L35.625 40.75H33.625L32.4375 40.9375L31.5625 41.25L30.5625 41.6875L29.5625 42.25L28.6875 42.875L27.8125 43.5625L27.375 44L26.6875 44.875L26.3125 45.375L25.875 46.0625L26.0625 46.375L26.4375 46.6875L27.5625 47.375L28.5 48L29.3125 48.6875L29.8125 49.125L30.625 49.9375L31.3125 50.6875L31.9375 51.5L32.5625 52.4375L33.25 53.6875L33.75 55L34.0625 56.1875L34.25 57.375L34.3125 58.4375L34.375 62.25V64.5L34.25 64.625L34 64.6875L31.4375 64.75H14.1875L13.9375 64.625L13.875 64.25V63.25L14 62.75L20 62.6875H32.5L32.4375 61.875L32.375 58.125L32.1875 56.9375L31.8125 55.625L31.125 54.125L30.5625 53.125L29.9375 52.25L29.375 51.5625L28.6875 50.8125L28 50.25L27.25 49.625L26.5625 49.1875L25.6875 48.625L24.8125 48.1875L23.5 47.6875L22.3125 47.375L21.125 47.1875L20.3125 47.125H19.125L17.6875 47.25L16.25 47.5625L14.75 48.0625L13.6875 48.5625L12.25 49.4375L11.4375 50.0625L10.5625 50.8125L9.8125 51.625L9.0625 52.625L8.3125 53.875L7.625 55.375L7.0625 57.0625L6.875 58.0625L6.75 59.3125V62.25L6.8125 62.5625L6.9375 62.625L12.75 62.6875L12.875 62.8125L13 63.4375V64.1875L12.875 64.5625L12.5 64.6875H5.3125L5.125 64.5L4.9375 63.5L4.875 60.5625V59.5L4.9375 57.6875L5.125 56.375L5.4375 55.1875L5.9375 53.875L6.6875 52.4375L7.1875 51.6875L7.9375 50.6875L8.6875 49.8125L9.125 49.3125L9.875 48.625L10.5 48.125L11.5 47.4375L12.375 46.9375L14.25 46.0625L15 45.75V45.625L14.5 45.1875L13.875 44.5L13.3125 43.625L12.8125 42.625L12.4375 41.6875L12.0625 40L11.875 38.125L11.8125 35.625L11.875 34.1875L12.0625 32.625L12.375 31.4375L12.75 30.4375L13.125 29.75L13.6875 28.875L14.4375 28.0625L15.1875 27.4375L16 26.9375L16.8125 26.5625L17.75 26.3125L18.5625 26.1875H20.4375L21.75 26.375L22.75 26.6875L23.5 27.0625L24.5625 27.8125L25 28.1875L25.4375 28.6875L26.0625 29.5625L26.5 30.3125L26.875 31.25L27.125 32.4375L27.1875 33.0625L27.25 35.1875V39.875L27.125 41.75L27.0625 41.9375L28.0625 41.3125L28.6875 40.875L29.8125 40.25L30.9375 39.6875L30.8125 39.375L29.9375 38.1875L29.4375 37.1875L29.0625 35.9375L28.875 34.5V30.8125L29 29.1875L29.125 28.4375L29.5625 27.25L30.125 26.3125L30.8125 25.5625L31.375 25.125L32 24.75L32.8125 24.375L34 24.1875ZM34.375 25.625L33.4375 25.8125L32.4375 26.3125L31.8125 26.8125L31.375 27.3125L31 27.9375L30.75 28.5625L30.4375 29.9375V30.6875L30.625 31.3125L30.6875 31.4375H31.5625L32.5625 31L33.375 30.5625L34.1875 29.9375L34.375 29.8125V29.6875L34.5625 29.625L35 29.125L35.4375 28.5625L35.8125 28.625L36.4375 29.125L36.875 29.625L37.25 30.125L38.0625 30.875L38.8125 31.1875L39 31.3125H39.25L39.3125 31.125V29.9375L39.0625 29L38.625 27.9375L38.125 27.25L37.6875 26.75L37 26.25L36.25 25.875L35.5625 25.6875L35 25.625H34.375ZM64.9375 25.625L64 25.75L63.3125 26L62.5625 26.5L62.125 26.875V27H62L61.4375 27.75L60.9375 28.75L60.75 29.5625L60.6875 29.9375V30.9375L60.8125 31.4375L61.1875 31.5625L61.8125 31.4375L63.3125 30.75L64.1875 30.1875L64.8125 29.6875L65.375 29.125L65.625 28.75L65.875 28.625L66.4375 28.6875L66.75 29L67.1875 29.5625L67.6875 30.1875L68.125 30.6875L69 31.3125L69.4375 31.5L69.625 31.4375L69.75 31.1875L69.6875 30.375L69.375 29.0625L68.9375 28.0625L68.5 27.3125L67.8125 26.5625L66.9375 26L66.25 25.75L64.9375 25.625ZM19 28L18.125 28.1875L17.1875 28.5625L16.4375 29L15.8125 29.5L15.375 29.9375L14.8125 30.8125L14.375 31.6875L14.0625 32.875L13.9375 33.625V35L14.125 35.4375L14.5625 35.5625H15L15.875 35.25L16.6875 34.875L17.625 34.375L18.75 33.625L19.5 32.9375L20.125 32.1875L20.5 31.6875L21 31.75L21.5625 32.0625L21.9375 32.625L22.5 33.4375L23.4375 34.4375L24.3125 35.0625L25.0625 35.4375H25.1875L25.25 35V33.875L25.1875 32.8125L25 31.9375L24.6875 31.125L24.25 30.4375L23.375 29.5L22.5 28.875L21.5 28.375L20.6875 28.125L19.875 28H19ZM49.75 28L48.9375 28.0625L48.0625 28.3125L47.0625 28.75L46.5 29.1875L45.8125 29.8125L45.1875 30.75L44.75 31.625L44.375 32.625L44.1875 33.5L44.125 34.25L44.25 35.125L44.5 35.5L44.75 35.625L45.3125 35.5625L47.125 34.8125L48.0625 34.3125L48.75 33.875L49.5625 33.1875L50.125 32.5625L50.625 31.875L50.75 31.75H51.3125L51.8125 32.0625L52.5625 33.0625L53.0625 33.75L53.5 34.25L54.0625 34.6875L55.0625 35.25L55.3125 35.375L55.625 35.3125L55.75 35.0625V34.125L55.625 33.0625L55.375 32.125L54.8125 30.8125L54.25 30L53.75 29.5L52.875 28.875L51.875 28.375L51 28.125L49.75 28ZM79.5 28.0625L78.4375 28.3125L77.4375 28.75L76.875 29.125L76.3125 29.625L75.6875 30.4375L75.1875 31.25L74.875 31.9375L74.75 32.5625L74.6875 33.25V34.5L74.8125 35.375L74.9375 35.5625H75.625L76.875 35.0625L77.625 34.75L78.6875 34.125L79.5 33.5L80.375 32.625L80.8125 32.0625L81.375 31.6875L81.75 31.75L82.25 32.1875L82.8125 32.9375L83.25 33.6875L84.25 34.6875L85.4375 35.4375L85.6875 35.5L85.8125 35.4375L85.9375 35V33.9375L85.8125 32.625L85.4375 31.375L85.0625 30.6875L84.5 29.9375L83.8125 29.3125L82.9375 28.75L82.1875 28.375L81.25 28.125L80.8125 28.0625H79.5ZM35.5 31.0625L35 31.25L34.0625 31.875L33.1875 32.375L32.4375 32.625L31.125 32.9375L30.8125 33.125L30.5 33.5625L30.4375 33.8125V35.125L30.6875 36.125L31.125 37L31.6875 37.6875L32.125 38.125L33 38.6875L33.9375 38.9375L34.5625 39H35.25L36.25 38.875L36.8125 38.625L37.6875 38L38.125 37.5625L38.5625 37L39 36.125L39.25 35.125L39.3125 34.6875L39.25 33.6875L39.0625 33.375L38 32.6875L37.1875 32.125L36.375 31.5L35.5 31.0625ZM65.75 31.1875L64.875 31.625L63.6875 32.3125L62.5 32.6875L61.3125 32.9375L60.8125 33.25L60.625 33.875L60.6875 34.8125L60.875 35.8125L61.1875 36.5625L61.8125 37.4375L62.3125 38L63.1875 38.625L64.125 38.875L64.625 38.9375H66.3125L67 38.75L67.8125 38.1875L68.125 37.9375L68.5625 37.4375L68.9375 36.9375L69.3125 36.125L69.75 34.5625V33.5625L69.4375 33.1875L68.375 32.75L67.5 32.25L66.75 31.6875L66.3125 31.3125L66.0625 31.1875H65.75ZM50.875 34.75L50.5 35L49.5625 35.6875L48.9375 36.0625L47.9375 36.5625L46.9375 36.875L44.9375 37.4375L44.25 37.6875L44.125 37.875V39.125L44.375 40.625L44.75 41.6875L45.1875 42.5L45.9375 43.375L46.5625 43.875L47.375 44.4375L47.875 44.6875L48.75 44.9375L49.3125 45H50.5L51.5625 44.8125L52.375 44.5L53.375 43.9375L54.0625 43.375L54.5625 42.8125L55 42.0625L55.375 40.9375L55.75 39.3125V38.125L55.4375 37.625L53.3125 36.5625L52.625 36.125L52.0625 35.6875L51.9375 35.5H51.8125L51.6875 35.25L51.125 34.75H50.875ZM81.125 34.6875L80.8125 34.875L80.1875 35.4375L79.5625 35.875L78.5625 36.4375L77.375 36.8125L75.4375 37.375L74.9375 37.625L74.75 37.8125L74.625 38.3125V39.6875L74.8125 40.8125L75.1875 41.875L75.5625 42.5625L76.0625 43.1875L76.375 43.5L77.0625 44.0625L77.875 44.5625L78.625 44.8125L79.75 45L80.75 45.0625L81.9375 44.8125L82.9375 44.3125L83.8125 43.75L84.4375 43.1875L85 42.5625L85.4375 41.6875L85.8125 40.5625L85.9375 39.875V38.1875L85.75 37.6875L85.375 37.375L84.625 37.0625L83.625 36.5625L82.8125 36.0625L82.1875 35.5L81.5625 34.875L81.125 34.6875ZM20.4375 34.8125L19.875 35.125L19.4375 35.5L18.1875 36.25L17.25 36.6875L16 37.0625L14.4375 37.4375L14.0625 37.625L13.875 37.9375L13.8125 38.375V39.0625L14 40.375L14.375 41.375L14.8125 42.25L15.375 43L16.0625 43.75L17.25 44.5625L18.0625 44.875L18.8125 45H20.125L21.375 44.75L22.125 44.4375L23.125 43.875L23.875 43.1875L24.375 42.5625L24.75 42L25 41.375L25.1875 40.4375L25.25 39.875V38.4375L25.125 37.875L24.6875 37.4375L23.625 36.875L22.9375 36.5L22.375 36.125L21.75 35.5625L21.125 35.0625L20.6875 34.8125H20.4375ZM49.0625 47.0625L47.5625 47.25L45.875 47.6875L44.75 48.125L43.75 48.625L42.9375 49.125L42.0625 49.75L41.375 50.3125L40.625 51L40.0625 51.5625L39.5625 52.25L38.6875 53.625L38.125 54.6875L37.75 55.625L37.25 57.25L37 58.5625L36.875 60L36.8125 62.5625L37.0625 62.8125L37.875 62.875L38.0625 62.3125L38.375 60.75L38.9375 59.25L39.4375 58.1875L40.1875 56.875L41.0625 55.75L41.625 55.125L42.3125 54.5L43.25 53.8125L44.25 53.25L45.0625 52.875L46.25 52.4375L47.5625 52.125L48.8125 52H51L52.625 52.1875L54.0625 52.5625L55.0625 52.9375L56.6875 53.8125L57.5625 54.5L58.1875 55L58.375 55.1875H58.5V55.3125H58.625V55.4375H58.75L58.875 55.6875L59.6875 56.6875L60.5 58.125L60.9375 59.125L61.375 60.4375L61.6875 62L61.9375 62.9375L62.625 62.875L62.8125 62.8125L62.9375 62.3125L63 60.4375L62.9375 59.25L62.6875 57.4375L62.375 56.25L61.875 54.9375L61.375 53.875L60.625 52.625L59.9375 51.8125L59.25 51.0625L58.625 50.4375L57.75 49.75L57.0625 49.25L56.25 48.75L55.25 48.25L54.1875 47.8125L53 47.4375L51.375 47.125L50.8125 47.0625H49.0625ZM48.875 53.9375L47.6875 54.125L46.6875 54.4375L45.5 54.9375L44.5 55.5625L43.875 56.0625L43.1875 56.6875L42.8125 57L42.125 57.875L41.625 58.5625L40.9375 59.875L40.375 61.4375L40.1875 62.4375L40.125 62.875V64.9375L40.375 66.1875L40.75 67.4375L41.25 68.4375L42.25 69.9375L42.625 70.375H42.75L42.875 70.625L43.375 71.1875L44.0625 71.75L44.75 72.1875L46.1875 72.9375L47.25 73.3125L48.4375 73.5625L49.8125 73.6875L51.0625 73.625L52.25 73.4375L53.5 73.0625L54.625 72.5625L55.3125 72.125L56.0625 71.5625L57 70.6875L57.625 70.0625V69.9375H57.75L58.5625 68.625L59 67.75L59.4375 66.5625L59.625 65.75L59.75 64.75V63.25L59.5625 61.75L59.1875 60.5L58.6875 59.3125L57.9375 58.0625L57.125 57.0625L56.625 56.5625L55.9375 56L55.25 55.5L54.125 54.875L53.1875 54.5L51.8125 54.125L50.5 53.9375H48.875Z" fill="#FEFEFE"/>
<path d="M49.875 56.5L50.625 56.625L51.375 57L51.8125 57.5L52.5 59.0625L52.9375 60.0625L53.375 60.3125L54.25 60.375H55.6875L56.75 60.8125L57.25 61.375L57.5625 62L57.6875 62.4375V62.875L57.4375 63.5L56.9375 64.125L56.1875 64.8125L55.6875 65.25L55.25 65.625L55 66.0625L54.9375 66.5L55.125 67.25L55.4375 68.3125V68.8125L55.25 69.875L55 70.25L54.5625 70.75L54 71L53.625 71.125H53.125L51.5625 70.5625L50.875 70.1875L50.25 69.8125L50.125 69.75H49.625L49 69.9375L48.625 70.1875L47.8125 70.75L47.125 70.9375L46.5 71L45.5 70.8125L45.0625 70.5L44.625 69.8125L44.4375 69.0625L44.5 68.25L44.875 66.9375L44.9375 66.5V66L44.5 65.5L43.625 64.8125L43 64.1875L42.625 63.5625L42.4375 63.0625V62.125L42.6875 61.4375L43.1875 60.875L43.6875 60.625L44.625 60.375L46.75 60.4375L46.875 60.125L47.3125 59.25L47.9375 57.75L48.3125 57.1875L48.6875 56.875L49.375 56.5625L49.875 56.5ZM49.8125 59.25L49.4375 59.6875L49.125 60.75L48.8125 61.5625L48.5625 61.9375V62.0625L48.25 62.1875L47.8125 62.375L47.75 62.4375H46.8125L46.1875 62.3125H45.4375L44.9375 62.5L45.0625 62.875L45.3125 63.25H45.4375L45.5 63.4375L46.3125 64.0625L47.0625 64.75L47.3125 65.1875L47.375 65.6875L47 66.9375L46.875 67.625V68.5625L47.125 68.625L47.6875 68.375L48.375 67.8125L49 67.375L49.5 67.125H50L50.625 67.3125L51.25 67.6875L51.875 68.1875H52L52.0625 68.375L52.3125 68.5625H52.75L52.9375 68.4375L53 68.125L52.6875 66.5625L52.5 65.8125V64.9375H52.625L52.875 64.625L53.6875 64.0625L54.375 63.6875L54.75 63.25L54.875 62.6875L54.75 62.4375H54.0625L53.3125 62.5H52.375L51.75 62.3125L51.375 62L50.9375 61.125L50.5625 59.9375L50.125 59.3125L49.8125 59.25Z" fill="#FEFEFE"/>
<path d="M73.8125 63.9375H73.9375L73.875 64.0625L73.8125 63.9375Z" fill="white"/>
</svg>
