<svg width="93" height="93" viewBox="0 0 93 93" fill="none" xmlns="http://www.w3.org/2000/svg">
<g clip-path="url(#clip0_1_796)">
<circle cx="46.5" cy="46.5" r="46" fill="white" stroke="#AEAEAE"/>
<line x1="22.7943" y1="71.25" x2="71.7943" y2="71.25" stroke="#FF8A18" stroke-width="1.5"/>
<line x1="45.7943" y1="66.25" x2="71.7943" y2="66.25" stroke="#FF8A18" stroke-width="1.5"/>
<line x1="48.7943" y1="60.25" x2="71.7943" y2="60.25" stroke="#FF8A18" stroke-width="1.5"/>
<mask id="path-5-inside-1_1_796" fill="white">
<path d="M57.307 27.73L64.3781 34.801L35.729 63.4501L28.658 56.379L57.307 27.73Z"/>
</mask>
<path d="M57.307 27.73L58.3677 26.6693L57.307 25.6087L56.2463 26.6693L57.307 27.73ZM64.3781 34.801L65.4387 35.8617L66.4994 34.801L65.4387 33.7404L64.3781 34.801ZM35.729 63.4501L35.0219 64.1572L36.0826 65.2179L36.7897 64.5108L35.729 63.4501ZM28.658 56.379L27.5973 55.3184L26.8902 56.0255L27.9509 57.0861L28.658 56.379ZM56.2463 28.7906L63.3174 35.8617L65.4387 33.7404L58.3677 26.6693L56.2463 28.7906ZM63.3174 33.7404L34.6684 62.3894L36.7897 64.5108L65.4387 35.8617L63.3174 33.7404ZM36.4361 62.743L29.3651 55.6719L27.9509 57.0861L35.0219 64.1572L36.4361 62.743ZM29.7186 57.4397L58.3677 28.7906L56.2463 26.6693L27.5973 55.3184L29.7186 57.4397Z" fill="#FF8A18" mask="url(#path-5-inside-1_1_796)"/>
<path d="M62.1531 23.9445C62.6413 23.4564 63.4327 23.4564 63.9209 23.9445L68.1635 28.1872C68.6517 28.6753 68.6517 29.4668 68.1635 29.955L63.6039 34.5146L57.5935 28.5042L62.1531 23.9445Z" stroke="#FF8A18" stroke-width="1.5"/>
<line x1="43.4408" y1="48.6464" x2="60.4408" y2="31.6464" stroke="#FF8A18"/>
<path d="M34.984 62.9927L25.8712 66.2099L29.0883 57.0971L34.984 62.9927Z" stroke="#FF8A18"/>
</g>
<defs>
<clipPath id="clip0_1_796">
<rect width="93" height="93" fill="white"/>
</clipPath>
</defs>
</svg>
