<svg width="100" height="100" viewBox="0 0 100 100" fill="none" xmlns="http://www.w3.org/2000/svg">
<path d="M4.6875 20.3125H95.5078L96.0938 20.459L96.7773 20.8008L97.3633 21.2402L97.7539 21.6309L98.1934 22.3145L98.4375 22.8516L98.584 23.3887L98.6328 23.8281V75.1465L98.584 76.4648L98.4375 77.1973L98.1445 77.832L97.8516 78.3203L97.3145 78.9062L96.9238 79.1992L96.0938 79.6387L95.459 79.834H94.6289L94.5312 79.7363L5.32227 79.6875L4.63867 79.6387L3.85742 79.3945L3.36914 79.1504L2.92969 78.8086L2.53906 78.4668L2.09961 77.8809L1.75781 77.1973L1.61133 76.6602L1.5625 76.3184V23.3398L1.85547 22.4609L2.29492 21.7773L2.83203 21.1914L3.36914 20.8008L3.95508 20.5078L4.39453 20.3613L4.6875 20.3125Z" fill="#F44E37"/>
<path d="M98.0957 31.2012L98.3887 31.2988V49.9023L98.3398 50H46.9238L1.66016 50.0488L1.5625 50.0977V31.25L98.0957 31.2012Z" fill="#033A5E"/>
<path d="M4.6875 20.3125H95.5078L96.0938 20.459L96.7773 20.8008L97.3633 21.2402L97.7539 21.6309L98.1934 22.3145L98.4375 22.8516L98.584 23.3887L98.6328 23.8281V75.1465L98.584 76.4648L98.4375 77.1973L98.1445 77.832L97.8516 78.3203L97.3145 78.9062L96.9238 79.1992L96.0938 79.6387L95.459 79.834H94.6289L94.5801 79.6387H94.4336V79.541L94.1895 79.4434L93.7988 79.1992L93.6035 79.1504V79.0527L93.4082 79.0039L93.2129 78.9062V78.8086L92.9199 78.7109L92.2363 78.3203L91.5527 77.8809L89.6484 76.7578L89.0137 76.3672L87.8418 75.6836L85.8887 74.5117L84.8145 73.877L84.1797 73.4863L84.082 73.3887L85.2051 72.998L86.377 72.4609L87.1582 71.9727L87.9395 71.3379L88.0859 71.2891V71.1914L88.4766 70.8496L88.8184 70.459L89.3555 69.7754L89.8438 68.9941L90.2344 68.2617L90.625 67.2363L90.8691 66.3574L91.0645 65.0879V63.7695L90.8691 62.4023L90.5273 61.2305L90.1367 60.3027L89.7461 59.5703L89.3066 58.9355L88.9648 58.4961L88.5254 58.0078L87.9395 57.4219L87.5 57.0801L86.8164 56.5918L86.0352 56.1523L85.1074 55.7617L83.6426 55.3223L82.5195 55.127H81.6895L80.3223 55.3223L79.1504 55.6152L78.2227 55.957L77.4414 56.3477L76.5625 56.8848L76.1719 57.1289H76.0254V57.0312L75.7812 56.9336L75.2441 56.543L74.707 56.25L74.0723 55.957L73.4375 55.7129L72.6562 55.4688L71.8262 55.2734L71.1426 55.127H70.3613L68.7012 55.3223L67.6758 55.5664L66.6504 55.9082L65.4297 56.543L64.7461 57.0312L64.1113 57.5684L63.8184 57.8613H63.7207L63.623 58.0566L63.2324 58.4473L62.5488 59.375L62.0605 60.2539H61.9629L61.9141 60.0586L61.4746 59.9121L61.0352 59.6191L60.498 59.3262L59.5215 58.7402L58.5938 58.2031L55.9082 56.5918L55.0781 56.1035L52.6367 54.6387L51.5625 54.0039L48.6328 52.2461L47.6074 51.6113L46.2891 50.8301L45.5566 50.3418L45.3125 50.1465L45.2148 50.0977L42.334 50.0488V50L47.0703 49.9512H95.0195L98.3398 50V31.2988L98.0957 31.25H1.5625V23.3398L1.85547 22.4609L2.29492 21.7773L2.83203 21.1914L3.36914 20.8008L3.95508 20.5078L4.39453 20.3613L4.6875 20.3125Z" fill="#A41506"/>
<path d="M98.0957 31.2012L98.3887 31.2988V49.9023L97.9004 49.8047L97.168 49.7559L96.3867 49.6094L95.0195 49.3652L92.6758 48.9258L91.4062 48.6816L90.0879 48.3887L88.2812 48.0469L85.6445 47.5098L83.5938 47.1191L80.4199 46.4844L77.7832 45.9961L71.2891 44.7266L69.4824 44.3848L59.6191 42.4805L56.1523 41.7969L53.5645 41.3086L48.291 40.2832L46.7285 39.9902L43.7988 39.4043L39.9414 38.6719L37.207 38.1348L34.6191 37.6465L30.6641 36.8652L29.1016 36.5723L26.3184 36.0352L24.6582 35.6934L23.2422 35.4492L22.0703 35.2051L18.6035 34.5215L13.4277 33.4961L11.4746 33.1055L7.17773 32.2754L5.0293 31.8848L3.90625 31.6895L3.32031 31.5918L3.22266 31.4453L1.95312 31.3477L1.66016 31.2988L1.61133 50.0977H1.5625V31.25L98.0957 31.2012Z" fill="#02253E"/>
<path d="M98.2422 22.5098L98.3887 22.7051L98.584 23.3887L98.6328 23.8281V75.1465L98.584 76.4648L98.4375 77.1973L98.1445 77.832L97.8516 78.3203L97.3145 78.9062L96.9238 79.1992L96.0938 79.6387L95.459 79.834H94.6289L94.5801 79.6387H94.4336V79.541L94.1895 79.4434L93.7988 79.1992L93.6035 79.1504V79.0527L93.4082 79.0039L93.2129 78.9062V78.8086L92.9199 78.7109L92.2363 78.3203L91.5527 77.8809L89.6484 76.7578L89.0137 76.3672L87.8418 75.6836L85.8887 74.5117L84.8145 73.877L84.1797 73.4863L84.082 73.3887L85.2051 72.998L86.377 72.4609L87.1582 71.9727L87.9395 71.3379L88.0859 71.2891V71.1914L88.4766 70.8496L88.8184 70.459L89.3555 69.7754L89.8438 68.9941L90.2344 68.2617L90.625 67.2363L90.8691 66.3574L91.0645 65.0879V63.7695L90.8691 62.4023L90.5273 61.2305L90.1367 60.3027L89.7461 59.5703L89.3066 58.9355L88.9648 58.4961L88.5254 58.0078L87.9395 57.4219L87.5 57.0801L86.8164 56.5918L86.0352 56.1523L85.1074 55.7617L83.6426 55.3223L82.5195 55.127H81.6895L80.3223 55.3223L79.1504 55.6152L78.2227 55.957L77.4414 56.3477L76.5625 56.8848L76.1719 57.1289H76.0254V57.0312L75.7812 56.9336L75.2441 56.543L74.707 56.25L74.0723 55.957L73.4375 55.7129L72.6562 55.4688L71.8262 55.2734L71.1426 55.127H70.3613L68.7012 55.3223L67.6758 55.5664L66.6504 55.9082L65.4297 56.543L64.7461 57.0312L64.1113 57.5684L63.8184 57.8613H63.7207L63.623 58.0566L63.2324 58.4473L62.5488 59.375L62.0605 60.2539H61.9629L61.9141 60.0586L61.4746 59.9121L61.0352 59.6191L60.498 59.3262L59.5215 58.7402L58.5938 58.2031L55.9082 56.5918L55.0781 56.1035L52.6367 54.6387L51.5625 54.0039L48.6328 52.2461L47.6074 51.6113L46.2891 50.8301L45.5566 50.3418L45.3125 50.1465L45.2148 50.0977L42.334 50.0488V50L47.0703 49.9512H98.3398L98.4375 49.707L98.4863 31.4941H98.5352V26.2207L98.4863 23.9258L98.3887 23.1934L98.2422 22.7539V22.5098Z" fill="#A51506"/>
<path d="M70.3613 55.0781H71.1426L72.5098 55.3711L73.291 55.6152L73.877 55.8105L74.6094 56.1523L75.0977 56.4453L75.5371 56.6895L76.0254 57.0312V57.1289L76.5137 56.8848L77.3438 56.3477L78.125 55.957L79.0039 55.6152L80.0781 55.3223L81.2988 55.127L81.6895 55.0781H82.5195L83.6426 55.2734L85.1074 55.7129L86.1328 56.1523L86.8164 56.543L87.5 57.0312L88.1348 57.5684L88.916 58.3496L89.4043 58.9844L89.9902 59.9121L90.4297 60.8398L90.7227 61.6699L90.9668 62.6953L91.1133 63.7695V65.0879L90.8691 66.5527L90.5273 67.6758L90.0879 68.6523L89.6973 69.3359L89.209 70.0195L88.7695 70.5566L88.1836 71.1914H88.0859V71.2891L87.4023 71.8262L86.7188 72.3145L85.8887 72.7539L84.9609 73.1445L84.2285 73.3887L82.5684 73.6328H81.9336L80.8105 73.5352L79.7363 73.3398L78.7109 73.0469L78.0762 72.8027L77.1484 72.3145L76.3672 71.8262L76.123 71.6797L75.5859 71.9727L74.9512 72.3633L73.9258 72.9004L72.998 73.2422L71.9727 73.4863L71.2891 73.584H70.0195L68.9453 73.4863L67.7734 73.2422L66.9922 72.998L66.2598 72.7051L65.2344 72.1191L64.502 71.582L64.0137 71.1426L63.623 70.8008L63.2324 70.3613L62.6465 69.5801L62.207 68.8477L61.8652 68.1641L61.5723 67.3828L61.2793 66.3086L61.084 65.0879V63.7207L61.2793 62.3535L61.5723 61.3281L61.9629 60.3516L62.3535 59.6191L62.8906 58.8379L63.3301 58.3008L64.3066 57.3242L64.9902 56.7871L65.625 56.3965L66.6504 55.8594L67.8223 55.4688L68.7012 55.2734L70.3613 55.0781Z" fill="#DA8628"/>
<path d="M4.6875 20.3125L5.81055 20.3613L37.6953 20.4102L37.9883 20.8008L38.4766 21.2891L38.8184 21.6797L38.8672 21.8262L39.0137 21.875L39.3555 22.2656L40.4297 23.3398V23.4375H40.5273L40.8691 23.8281L41.5527 24.5117V24.6094L41.748 24.707L42.0898 25.0977L42.6758 25.6836L43.0176 26.0742L43.6035 26.6602L43.9453 27.0508L44.9219 28.0273V28.125H45.0195L45.3613 28.5156L46.2402 29.3945L46.582 29.7852L46.7773 29.9805V30.0781H46.875L47.2168 30.4688L47.6562 30.9082L47.9004 31.1035V31.2012L14.0625 31.25H1.5625V23.3398L1.85547 22.4609L2.29492 21.7773L2.83203 21.1914L3.36914 20.8008L3.95508 20.5078L4.39453 20.3613L4.6875 20.3125Z" fill="#D62E0E"/>
<path d="M70.3613 55.0781H71.1426L72.5098 55.3711L73.291 55.6152L73.877 55.8105L74.6094 56.1523L75.0977 56.4453L75.5371 56.6895L76.0254 57.0312L76.0742 57.1777L75.9277 57.4219L75.5371 57.7637L75.0977 58.2031L74.6582 58.7402L74.1211 59.5215L73.7305 60.2051L73.291 61.1328L73.0469 61.8652L72.8516 62.6953L72.7051 63.7695V64.7949L72.8516 65.918L73.0469 66.8945L73.3398 67.7734L73.6328 68.457L74.0234 69.1406L74.4141 69.7266L74.8535 70.2637L75.1953 70.6543L76.0742 71.5332L75.9766 71.7285L75.0488 72.3145L73.9258 72.9004L72.998 73.2422L71.9727 73.4863L71.2891 73.584H70.0195L68.9453 73.4863L67.7734 73.2422L66.9922 72.998L66.2598 72.7051L65.2344 72.1191L64.502 71.582L64.0137 71.1426L63.623 70.8008L63.2324 70.3613L62.6465 69.5801L62.207 68.8477L61.8652 68.1641L61.5723 67.3828L61.2793 66.3086L61.084 65.0879V63.7207L61.2793 62.3535L61.5723 61.3281L61.9629 60.3516L62.3535 59.6191L62.8906 58.8379L63.3301 58.3008L64.3066 57.3242L64.9902 56.7871L65.625 56.3965L66.6504 55.8594L67.8223 55.4688L68.7012 55.2734L70.3613 55.0781Z" fill="#22BE84"/>
<path d="M80.957 55.1758L81.7871 55.2246L81.8359 55.2734V73.584H81.25L79.9316 73.3887L78.8574 73.0957L78.0762 72.8027L77.1484 72.3145L76.3672 71.8262L76.123 71.6797H75.9766L76.0254 71.5332L74.8535 70.3613L74.4141 69.7754L74.0723 69.2871L73.6816 68.6523L73.291 67.7734L72.998 66.8945L72.8027 65.918L72.6562 64.7949V63.7695L72.8516 62.4512L73.0957 61.5234L73.3887 60.791L73.877 59.8145L74.3652 59.082L74.8535 58.4473L75.4395 57.8125L75.8301 57.4219H75.9277L76.0254 57.1777L76.9531 56.5918L77.6855 56.1523L78.4668 55.8105L79.4922 55.4688L80.5664 55.2246L80.957 55.1758Z" fill="#F5AD39"/>
<path d="M45.2148 50.0488H65.7715L66.1621 50.0977L66.5039 50.4883L66.748 50.6836L67.0898 51.0742L67.627 51.6602L67.9688 52.0508L68.75 52.832V52.9297H68.8477L69.1895 53.3203L69.6289 53.7598L69.9219 54.1016L70.0684 54.1992V54.2969L70.2637 54.3945V54.4922L70.459 54.5898L70.752 54.9316L70.8496 55.0781L68.7012 55.3223L67.6758 55.5664L66.6504 55.9082L65.4297 56.543L64.7461 57.0312L64.1113 57.5684L63.8184 57.8613H63.7207L63.623 58.0566L63.2324 58.4473L62.5488 59.375L62.0605 60.2539H61.9629L61.9141 60.0586L61.4746 59.9121L61.0352 59.6191L60.498 59.3262L59.5215 58.7402L58.5938 58.2031L55.9082 56.5918L55.0781 56.1035L52.6367 54.6387L51.5625 54.0039L48.6328 52.2461L47.6074 51.6113L46.2891 50.8301L45.5566 50.3418L45.3125 50.1465L45.2148 50.0488Z" fill="#D62F0D"/>
<path d="M12.0117 56.25H38.1836L38.623 56.3965L39.0137 56.7383L39.209 57.1777L39.2578 57.666L39.1602 58.1055L38.916 58.7402L38.5254 59.1797L38.1348 59.3262L37.7441 59.375H12.6953L11.6699 59.3262L11.3281 59.1797L11.0352 58.7891L10.8887 58.252V57.2266L11.0352 56.8359L11.1816 56.5918L11.5234 56.3477L12.0117 56.25Z" fill="#023A5E"/>
<path d="M11.9629 62.5H38.1836L38.623 62.6465L39.0137 62.9883L39.209 63.4277L39.2578 63.916L39.1602 64.3555L38.916 64.9902L38.5254 65.4297L38.1348 65.5762L37.793 65.625H12.5L11.6699 65.5762L11.377 65.4297L11.084 65.1367L10.8887 64.502V63.5254L11.0352 63.0859L11.4258 62.6465L11.6699 62.5488L11.9629 62.5Z" fill="#023A5E"/>
<path d="M12.0117 68.75H38.1836L38.623 68.8965L39.0137 69.2383L39.209 69.6777L39.2578 70.2148L39.1602 70.6055L38.916 71.2402L38.5254 71.6797L38.1348 71.8262L37.6953 71.875H12.5488L11.6699 71.8262L11.377 71.6797L11.084 71.3379L10.9375 70.9961L10.8887 70.752V69.7754L11.0352 69.3359L11.4258 68.8965L11.6699 68.7988L12.0117 68.75Z" fill="#023A5E"/>
<path d="M70.3613 55.0781H71.1426L72.5098 55.3711L73.291 55.6152L73.877 55.8105L74.6094 56.1523L75.0977 56.4453L75.5371 56.6895L76.0254 57.0312L76.0742 57.1777L75.9277 57.4219L75.5371 57.7637L75.0977 58.2031L74.6582 58.7402L74.1211 59.5215L73.7305 60.2051L73.291 61.1328L73.0469 61.8652L72.8516 62.6953L72.7051 63.7695V64.7949L72.8516 65.918L73.0469 66.8945L73.3398 67.7734L73.6328 68.457L74.0234 69.1406L74.4141 69.7266L74.8535 70.2637L75.1953 70.6543L76.0742 71.5332L75.9766 71.7285L75.0488 72.3145L73.9258 72.9004L72.998 73.2422L71.9727 73.4863L71.2891 73.584H70.6055L69.7754 73.4863V73.3887L69.2383 73.291L69.0918 73.0957L69.5801 72.9492L69.6289 72.9004H70.2148L70.2637 71.9727L70.3125 70.4102V67.334L70.2637 55.4199L70.2148 55.2246L70.0684 55.1758L70.3613 55.0781Z" fill="#06A67D"/>
<path d="M76.0254 57.1777L76.2207 57.2754L76.9043 57.8613L77.4902 58.4961L78.125 59.375L78.6133 60.2051L78.9551 60.9863L79.1992 61.7188L79.4434 62.9395L79.541 63.7207V64.6484L79.4434 65.6738L79.1992 66.8457L78.8086 67.9199L78.3691 68.8477L78.0273 69.3848L77.7832 69.6289L76.4648 68.8965L75.4395 68.2617L74.1211 67.4805L73.6328 67.1387L73.2422 66.9922L72.998 66.748L72.9004 66.5039L72.7051 65.2832L72.6562 64.7949V63.7695L72.8516 62.4512L73.0957 61.5234L73.3887 60.791L73.877 59.8145L74.3652 59.082L74.8535 58.4473L75.4395 57.8125L75.8301 57.4219H75.9277L76.0254 57.1777Z" fill="#D62E0D"/>
<path d="M1.61133 24.1211L1.85547 24.2188L3.02734 24.9023L4.39453 25.7324L5.81055 26.5625L6.44531 26.9531L8.1543 27.9785L8.93555 28.4668L9.47266 28.7598L10.1074 29.1504L11.4746 29.9805L12.6465 30.6641L13.3789 31.1035L13.4277 31.25H10.9375L1.61133 31.2012V24.1211Z" fill="#F44F37"/>
<path d="M87.0605 72.1191L87.2559 72.168L87.6465 72.5098L88.3789 73.291L88.623 73.5352V73.6328H88.7207V73.7305H88.8184L89.1602 74.1211L89.5996 74.5605V74.6582L89.7461 74.707L90.0879 75.0977L90.4297 75.4395V75.5371L90.5762 75.5859L90.918 75.9766L91.4551 76.5137V76.6113H91.5527L91.8945 77.002L92.3828 77.4902V77.5879L92.5293 77.6367L92.7734 77.9297L92.9199 78.0273V78.125L93.1152 78.2227L93.1641 78.3691L93.3105 78.418V78.5156L93.5059 78.6133L93.6523 78.7598V78.9062L93.8477 79.0039V79.1016L94.043 79.1992L94.1895 79.3945L93.9453 79.2969L93.6035 79.1504V79.0527L93.4082 79.0039L93.2129 78.9062V78.8086L92.9199 78.7109L92.2363 78.3203L91.5527 77.8809L89.6484 76.7578L89.0137 76.3672L87.8418 75.6836L85.8887 74.5117L84.8145 73.877L84.1797 73.4863L84.082 73.3887L85.2051 72.998L86.377 72.4609L86.8164 72.2168L87.0605 72.1191Z" fill="#D62E0D"/>
<path d="M76.0254 57.1777L76.2207 57.2754L76.9043 57.8613L77.4902 58.4961L78.125 59.375L78.6133 60.2051L78.9551 60.9863L79.1992 61.7188L79.4434 62.9395L79.4922 63.2324V64.0137L79.1992 63.916L78.9062 63.4766L78.4668 62.9883L78.2715 62.8418V62.7441L78.125 62.6953L77.832 62.3535L77.5879 62.1094L77.3438 61.9141L77.0508 61.5723L76.7578 61.3281L76.4648 60.9863L76.3184 60.8398L75.9766 60.4492L75.6348 60.1074L75.293 59.7168L75.2441 59.5703L75.0488 59.4727L74.707 59.082L74.6094 58.9844L74.4141 59.1309L74.5117 58.8867L74.9023 58.3984L75.4395 57.8125L75.8301 57.4219H75.9277L76.0254 57.1777Z" fill="#A51506"/>
<path d="M12.5977 43.6035H13.3301L13.8184 43.7988L14.2578 44.1406L14.5508 44.6289L14.6973 45.166L14.6484 45.752L14.3555 46.3379L14.0137 46.6797L13.5742 46.9238L13.3301 47.0215H12.5488L11.9629 46.7285L11.5234 46.2891L11.2793 45.752L11.2305 45.5078V45.0684L11.4258 44.5312L11.6699 44.1406L12.207 43.75L12.5977 43.6035Z" fill="#FCF2EE"/>
<path d="M29.4922 43.6035H30.1758L30.6641 43.7988L31.0547 44.0918L31.3477 44.4824L31.543 44.9219V45.6543L31.3477 46.1426L31.0547 46.5332L30.6641 46.8262L30.2246 47.0215H29.4434L28.8574 46.7285L28.5156 46.4355L28.2227 45.9473L28.125 45.6055V44.9707L28.3691 44.3848L28.7109 43.9941L29.1992 43.7012L29.4922 43.6035Z" fill="#FDF2EE"/>
<path d="M21.0449 43.6035H21.7773L22.2656 43.7988L22.7539 44.2383L23.0469 44.7266L23.0957 44.873V45.7031L22.9004 46.1914L22.5098 46.6309L22.0215 46.9238L21.7773 47.0215H20.9961L20.3125 46.6797V46.582L20.1172 46.4844L19.7754 45.8984L19.6777 45.5078V45.0684L19.873 44.4824L20.166 44.0918L20.6543 43.75L21.0449 43.6035Z" fill="#FCF2EE"/>
<path d="M72.998 66.748L73.2422 66.8945V66.9922L73.4863 67.041L73.8281 67.2363L74.707 67.7734L75.4395 68.2129L76.8066 69.043L77.7832 69.5801L77.832 69.6777L77.3438 70.3125L76.7578 70.9961L76.2695 71.4355L76.0742 71.4844L75.6836 71.1914L74.8535 70.3613L74.4141 69.7754L74.0723 69.2871L73.6816 68.6523L73.291 67.7734L72.998 66.8945V66.748Z" fill="#F45037"/>
<path d="M98.2422 22.5098L98.3887 22.7051L98.584 23.3887L98.6328 23.8281V75.1465H98.584L98.5352 26.3184L98.4863 24.0234L98.3887 23.291L98.2422 22.8516V22.5098Z" fill="#DA8728"/>
<path d="M98.4863 31.4941L98.584 31.5918V52.4902H98.5352L98.4863 50.0977L98.4375 49.707L98.4863 31.4941Z" fill="#D72F0E"/>
<path d="M66.8457 55.7129L66.8945 55.8105L65.7715 56.3477L64.9902 56.8359L64.4531 57.2754L63.9648 57.7148L63.8184 57.8613H63.7207L63.623 58.0566L63.2324 58.4473L62.5488 59.375L62.207 59.9609L62.1094 59.9121L62.3047 59.5215H62.4023V59.3262H62.5L62.5977 59.082L62.8418 58.7891L63.0371 58.4473L64.209 57.2754L65.1367 56.5918L65.6738 56.25L66.6016 55.8105L66.8457 55.7129Z" fill="#AD280B"/>
<path d="M61.3281 62.9395H61.377L61.4746 63.5254L61.3281 64.2578L61.377 64.5996H61.2793L61.377 64.9414L61.2793 65.1855H61.1816L61.1328 64.9414V64.0137L61.1816 63.3301L61.3281 62.9395Z" fill="#06A67D"/>
<path d="M61.6211 61.4746L61.7676 61.5234V62.0117H61.6699L61.6211 62.5L61.4258 62.8906H61.3281V62.4023L61.6211 61.4746Z" fill="#06A67D"/>
<path d="M66.8457 55.7129L66.8945 55.8105L65.7715 56.3477L64.9902 56.8359L64.4531 57.2754L63.9648 57.7148L63.8672 57.7637L63.9648 57.5684L64.4531 57.0801L65.2344 56.543L65.6738 56.25L66.6016 55.8105L66.8457 55.7129Z" fill="#A51506"/>
<path d="M98.2422 22.5098L98.3887 22.7051L98.584 23.3887V26.2207H98.5352L98.4863 23.9258L98.3887 23.1934L98.2422 22.7539V22.5098Z" fill="#D72F0E"/>
<path d="M95.752 20.4102L96.0938 20.459L96.7773 20.8008L97.3633 21.2402L97.2656 21.2891L96.582 20.8496L95.8496 20.5078L95.752 20.4102Z" fill="#DA4014"/>
<path d="M61.5723 61.4746L61.6211 61.5723L61.377 62.4512V62.9395L61.2305 63.3301H61.1816V62.9395L61.377 61.9629L61.5234 61.5234L61.5723 61.4746Z" fill="#23BF85"/>
<path d="M62.8906 58.7402V58.8867L62.4023 59.6191L62.207 59.9609L62.1094 59.9121L62.3047 59.5215H62.4023V59.3262H62.5L62.5977 59.082L62.8906 58.7402Z" fill="#A71907"/>
<path d="M11.9141 46.7285L12.1094 46.7773L12.5488 46.9727L13.1348 47.0215L13.2324 47.1191L12.9395 47.168L12.4512 47.0703L11.9629 46.8262L11.9141 46.7285Z" fill="#25373F"/>
<path d="M97.6562 21.3867L97.9492 21.6309L98.3887 22.3145L98.4375 22.5098H98.3398L97.9004 21.7773L97.6562 21.4844V21.3867Z" fill="#E44721"/>
<path d="M61.4258 65.7715L61.5723 65.8691L61.6211 66.3086L61.4258 66.3574L61.3281 65.8691L61.4258 65.7715Z" fill="#06A67D"/>
<path d="M69.4336 55.0781H70.0684L69.873 55.1758L69.5801 55.2246H69.043L68.9941 55.127L69.4336 55.0781Z" fill="#AE220A"/>
<path d="M98.2422 22.5098L98.3887 22.7051L98.584 23.3887V23.5352H98.4863L98.2422 22.7539V22.5098Z" fill="#E34620"/>
<path d="M72.9492 62.0605H73.0469L72.998 62.5488L72.8516 63.0371H72.8027V62.6953L72.9492 62.0605Z" fill="#B22E0D"/>
<path d="M64.5508 57.0312V57.1777L63.916 57.7637V57.6172L64.4531 57.0801L64.5508 57.0312Z" fill="#A81B08"/>
<path d="M75.8301 57.3242V57.4707L75.1953 58.1055V57.959L75.3906 57.7148L75.7812 57.373L75.8301 57.3242Z" fill="#22BE84"/>
<path d="M63.4277 58.1055V58.252L63.0859 58.6426L62.9395 58.7891V58.5938L63.1836 58.3496L63.4277 58.1055Z" fill="#AB230A"/>
<path d="M11.2305 45.7031L11.3281 45.752L11.6211 46.3379V46.4844L11.377 46.2402L11.2305 45.8496V45.7031Z" fill="#022945"/>
<path d="M84.5215 73.2422L84.7168 73.291L84.4727 73.4375L84.4238 73.5352L84.1797 73.4863L84.082 73.3887L84.5215 73.2422Z" fill="#B31C08"/>
<path d="M96.6797 20.8008L96.9238 20.8984L97.3633 21.2402L97.2656 21.2891L96.6797 20.8984V20.8008Z" fill="#DE4118"/>
<path d="M14.4043 44.5312H14.502L14.6484 44.9219L14.5996 45.0684H14.502L14.4043 44.5312Z" fill="#FDFBFB"/>
</svg>
