<svg width="50" height="50" viewBox="0 0 50 50" fill="none" xmlns="http://www.w3.org/2000/svg">
<path d="M7.8125 12.5H4.6875C4.2731 12.5 3.87567 12.3354 3.58265 12.0424C3.28962 11.7493 3.125 11.3519 3.125 10.9375C3.125 10.5231 3.28962 10.1257 3.58265 9.83266C3.87567 9.53963 4.2731 9.37501 4.6875 9.37501H17.1875V4.68439C17.1875 4.26999 17.3521 3.87256 17.6451 3.57953C17.9382 3.28651 18.3356 3.12189 18.75 3.12189H31.25C31.6644 3.12189 32.0618 3.28651 32.3549 3.57953C32.6479 3.87256 32.8125 4.26999 32.8125 4.68439V9.37501H45.3125C45.7269 9.37501 46.1243 9.53963 46.4174 9.83266C46.7104 10.1257 46.875 10.5231 46.875 10.9375C46.875 11.3519 46.7104 11.7493 46.4174 12.0424C46.1243 12.3354 45.7269 12.5 45.3125 12.5H42.1875V45.3125C42.1875 45.7269 42.0229 46.1243 41.7299 46.4174C41.4368 46.7104 41.0394 46.875 40.625 46.875H9.375C8.9606 46.875 8.56317 46.7104 8.27015 46.4174C7.97712 46.1243 7.8125 45.7269 7.8125 45.3125V12.5ZM29.6875 9.37501V6.25001H20.3125V9.37501H29.6875ZM10.9375 43.75H39.0625V12.5H10.9375V43.75ZM20.3125 37.5C19.8981 37.5 19.5007 37.3354 19.2076 37.0424C18.9146 36.7493 18.75 36.3519 18.75 35.9375V20.3125C18.75 19.8981 18.9146 19.5007 19.2076 19.2077C19.5007 18.9146 19.8981 18.75 20.3125 18.75C20.7269 18.75 21.1243 18.9146 21.4174 19.2077C21.7104 19.5007 21.875 19.8981 21.875 20.3125V35.9375C21.875 36.3519 21.7104 36.7493 21.4174 37.0424C21.1243 37.3354 20.7269 37.5 20.3125 37.5ZM29.6875 37.5C29.2731 37.5 28.8757 37.3354 28.5826 37.0424C28.2896 36.7493 28.125 36.3519 28.125 35.9375V20.3125C28.125 19.8981 28.2896 19.5007 28.5826 19.2077C28.8757 18.9146 29.2731 18.75 29.6875 18.75C30.1019 18.75 30.4993 18.9146 30.7924 19.2077C31.0854 19.5007 31.25 19.8981 31.25 20.3125V35.9375C31.25 36.3519 31.0854 36.7493 30.7924 37.0424C30.4993 37.3354 30.1019 37.5 29.6875 37.5Z" fill="black"/>
</svg>
