<svg width="100" height="100" viewBox="0 0 100 100" fill="none" xmlns="http://www.w3.org/2000/svg">
<g clip-path="url(#clip0_1_722)">
<path d="M19.7754 0H22.0703L23.3887 0.244141L24.4629 0.537109L25.4883 0.927734L26.3184 1.31836L27.1973 1.85547L27.9785 2.44141L28.6621 3.02734L29.1992 3.56445L29.541 3.85742V3.95508L29.7363 4.05273L29.9805 4.3457L30.2734 4.58984L30.6152 4.98047L43.3594 17.7246L43.7988 18.2617L44.2871 18.8965L44.9219 19.9219L45.4102 20.9473L45.752 21.9238L46.0449 22.998L46.2402 24.3652V26.123L46.0938 27.2461L45.8008 28.4668L45.459 29.4434L45.0195 30.4199L44.3848 31.4941L43.75 32.3242L43.2129 32.9102L42.8711 33.3008L36.1816 39.9902L36.2793 40.1855L59.8633 63.7695H60.0098L60.2539 63.5254L60.4492 63.2812L60.8398 62.9395L67.1875 56.5918L67.7246 56.1523L68.3594 55.6641L69.3848 55.0293L70.5078 54.4922L71.6797 54.1016L72.8027 53.8574L73.4375 53.7598L74.1211 53.7109H75.293L76.3184 53.8086L77.5391 54.0527L78.5156 54.3457L79.541 54.7852L80.3711 55.2246L80.9082 55.5664L81.6895 56.1523L82.373 56.7383L82.9102 57.2754L83.0566 57.373V57.4707L83.252 57.5684V57.666L83.4473 57.7637V57.8613L83.6426 57.959L83.8867 58.252L97.0703 71.4355L97.5098 71.9727L97.9004 72.4609L98.3887 73.1934L98.7793 73.877L99.2188 74.8535L99.5605 75.8789L99.8047 76.8555L100 78.0273V79.9316L99.7559 81.2988L99.4141 82.5684L99.1211 83.3496L98.6816 84.2773L98.0957 85.2539L97.6074 85.8887L97.0215 86.5723L96.2891 87.3535L93.0664 90.5762L92.6758 90.918L91.8945 91.6504L91.5039 91.9922L90.918 92.5293L90.2344 93.0664L89.4531 93.6523L88.5254 94.3359L87.793 94.8242L86.5723 95.5566L85.498 96.1914L84.2285 96.8262L82.8613 97.4609L81.4453 97.998L79.7852 98.584L77.9297 99.0723L76.6602 99.3652L74.5117 99.707L72.9492 99.9023L71.6797 100H69.1406L67.334 99.8535L65.1367 99.5605L63.6719 99.3164L60.9863 98.6328L59.2773 98.0469L57.8613 97.5098L56.0059 96.6309L55.2246 96.2402L54.4434 95.8008L53.4668 95.2148L52.5879 94.6777L51.709 94.043L50.6836 93.2617L50.1465 92.8711L49.6582 92.4316L49.2676 92.0898L48.7793 91.6504L47.6074 90.5762L33.6426 76.6113L33.3008 76.0742L33.1543 75.5371V75.0977L33.3008 74.5117L33.4961 74.2188L33.6426 74.0234L33.5938 73.8281L31.5918 71.8262V71.7285L31.25 71.875L30.8594 72.1191L30.1758 72.2656L29.4434 72.168L28.8574 71.8262L28.4668 71.3379L28.2715 70.9473L28.1738 70.5566V70.1172L28.3203 69.5312L28.6621 69.043L28.6133 68.8477L25.8789 66.1133L25.5371 66.3086L25.0488 66.5527L24.4629 66.6504L23.7305 66.5039L23.1445 66.1133L9.08203 52.0508L8.74023 51.6602L8.05664 50.9277L7.71484 50.5371L7.12891 49.8535L6.64062 49.2188L6.00586 48.3398L5.32227 47.4121L4.15039 45.459L3.61328 44.5312L2.34375 41.7969L1.66016 39.8438L1.26953 38.6719L0.732422 36.5234L0.488281 35.2539L0.146484 32.8613L0 31.0547V28.125L0.195312 26.0742L0.488281 24.0723L0.732422 22.8516L1.31836 20.5078L1.9043 18.75L2.44141 17.334L3.17383 15.7715L3.51562 14.9902L4.15039 13.8672L4.88281 12.6465L5.37109 11.8652L6.00586 10.9863L6.68945 10.0586L7.32422 9.22852L7.91016 8.59375L8.44727 8.00781L8.88672 7.51953L9.22852 7.12891L9.47266 6.83594L9.81445 6.54297L9.91211 6.39648H10.0098L10.1074 6.20117H10.2051L10.3027 6.00586H10.4004L10.498 5.81055H10.5957L10.6934 5.61523H10.791L10.8887 5.41992H10.9863L11.084 5.22461H11.1816L11.2793 5.0293H11.377L11.4746 4.83398H11.5723L11.6699 4.63867H11.7676L11.8652 4.44336H11.9629L12.0605 4.24805H12.1582L12.2559 4.05273H12.3535L12.4512 3.85742H12.5488L12.6465 3.66211H12.7441L12.793 3.51562L13.1836 3.17383L13.5742 2.7832L14.2578 2.24609L14.9414 1.75781L15.8691 1.2207L16.6992 0.830078L18.1641 0.341797L19.7754 0Z" fill="#52BBFD"/>
<path d="M59.8145 0H91.3574L92.9199 0.390625L94.0918 0.78125L95.459 1.51367L95.9961 1.9043L96.8262 2.58789L97.2656 2.97852L97.7051 3.51562L98.291 4.24805L98.877 5.27344L99.3164 6.20117L99.8047 7.8125L100 8.83789V32.8613L99.7559 34.1309L99.3164 35.5469L98.9746 36.3281L98.3398 37.4512L97.8027 38.1348L97.2656 38.7695L96.7773 39.2578L96.0938 39.7949L95.5078 40.2344L94.2383 40.918L93.3105 41.2598L92.0898 41.6016L91.0645 41.748L89.9414 41.7969H82.7637L82.666 42.041L82.2754 42.5293L81.7871 43.1641L81.2012 43.9453L80.7129 44.5801L79.9316 45.6055L79.4434 46.2402L79.0039 46.8262L78.5156 47.4609L77.9297 48.2422L77.2461 49.1211L76.9043 49.5117L76.4648 49.8047L76.0254 49.9512H75.0977L74.6582 49.7559L74.3652 49.5605L73.9746 49.1699L73.3398 48.3398L72.6562 47.4609L71.9238 46.4844L71.2402 45.6055L70.752 44.9707L70.0684 44.0918L69.4824 43.3105L68.7988 42.4316L68.3594 41.8457L61.3281 41.7969L59.9609 41.748L58.9844 41.6016L57.666 41.2109L57.0312 40.9668L56.25 40.5762L55.4199 40.0879L54.3457 39.209L54.0039 38.916L53.6621 38.5254L53.2227 37.9883L52.7344 37.3535L51.9531 35.8887L51.4648 34.4238L51.2695 33.5449L51.1719 32.666V8.98438L51.3184 7.91016L51.6113 6.88477L51.9043 6.00586L52.3926 5.0293L52.832 4.29688L53.3691 3.61328L53.9551 2.92969L54.3457 2.53906L55.0293 2.00195L55.6152 1.5625L56.7871 0.927734L57.1777 0.732422L58.5449 0.292969L59.8145 0Z" fill="#FE6962"/>
<path d="M19.7754 0H22.0703L23.3887 0.244141L24.4629 0.537109L25.4883 0.927734L26.3184 1.31836L27.1973 1.85547L27.9785 2.44141L28.6621 3.02734L29.1992 3.56445L29.541 3.85742V3.95508L29.7363 4.05273L29.9805 4.3457L30.2734 4.58984L30.6152 4.98047L43.3594 17.7246L43.7988 18.2617L44.2871 18.8965L44.9219 19.9219L45.4102 20.9473L45.752 21.9238L46.0449 22.998L46.2402 24.3652V26.123L46.0938 27.2461L45.8008 28.4668L45.459 29.4434L45.0195 30.4199L44.3848 31.4941L43.75 32.3242L43.2129 32.9102L42.8711 33.3008L36.1816 39.9902L36.2793 40.1855L59.8633 63.7695H60.0098L60.2539 63.5254L60.4492 63.2812L60.8398 62.9395L67.1875 56.5918L67.7246 56.1523L68.3594 55.6641L69.3848 55.0293L70.5078 54.4922L71.6797 54.1016L72.8027 53.8574L73.4375 53.7598L74.1211 53.7109H75.293L76.3184 53.8086L77.5391 54.0527L78.5156 54.3457L79.541 54.7852L80.3711 55.2246L80.9082 55.5664L81.6895 56.1523L82.373 56.7383L82.9102 57.2754L83.0566 57.373V57.4707L83.252 57.5684V57.666L83.4473 57.7637V57.8613L83.6426 57.959L83.8867 58.252L97.0703 71.4355L97.5098 71.9727L97.9004 72.4609L98.3887 73.1934L98.7793 73.877L99.2188 74.8535L99.5605 75.8789L99.8047 76.8555L100 78.0273V79.9316L99.7559 81.2988L99.4141 82.5684L99.1211 83.3496L98.6816 84.2773L98.0957 85.2539L97.6074 85.8887L97.0215 86.5723L96.2891 87.3535L93.0664 90.5762L92.6758 90.918L91.8945 91.6504L91.5039 91.9922L90.918 92.5293L90.2344 93.0664L89.4531 93.6523L88.5254 94.3359L87.793 94.8242L86.5723 95.5566L85.498 96.1914L84.2285 96.8262L82.8613 97.4609L81.4453 97.998L79.7852 98.584L77.9297 99.0723L76.6602 99.3652L74.5117 99.707L72.9492 99.9023L71.6797 100H69.1406L67.334 99.8535L65.1367 99.5605L63.6719 99.3164L60.9863 98.6328L59.2773 98.0469L57.8613 97.5098L56.0059 96.6309L55.2246 96.2402L54.4434 95.8008L53.4668 95.2148L52.5879 94.6777L51.709 94.043L50.6836 93.2617L50.1465 92.8711L49.6582 92.4316L49.2676 92.0898L48.7793 91.6504L47.6074 90.5762L33.6426 76.6113L33.3008 76.0742L33.1543 75.5371V75.0977L33.3008 74.5117L33.4961 74.2188L33.7891 73.8281L34.4727 73.4375L34.9609 73.3398H35.3027L35.9375 73.5352L36.4258 73.877L37.0117 74.4141L50.6836 88.0859L51.0742 88.4277L51.709 89.0137L52.0996 89.3555L52.7344 89.8926L54.5898 91.2598L55.7617 91.9922L57.0312 92.7246L57.8125 93.1152L59.4727 93.8965L60.9375 94.4336L62.4023 94.9219L64.5996 95.459L65.3809 95.6055L67.3828 95.8984L68.8965 95.9961H71.8262L73.1445 95.8984L75 95.6543L76.5137 95.3613L77.5391 95.1172L79.4922 94.5312L81.2988 93.8477L82.5684 93.2617L83.3984 92.8711L84.5703 92.1875L85.5469 91.6016L86.3281 91.0645L87.207 90.4297L87.4023 90.2344L87.0605 89.8438L63.3301 66.1133L63.1348 66.2109L61.3281 68.0176L60.8398 68.3594L60.4492 68.5059L60.1562 68.5547H59.6191L59.1309 68.4082L58.6914 68.1152L58.2031 67.6758L31.9336 41.4062L31.543 40.8203L31.3965 40.2832V39.8926L31.543 39.3066L31.8848 38.7207L40.3809 30.2246L40.7715 29.7363L41.2598 29.0527L41.748 28.125L42.041 27.2461L42.2363 26.416L42.2852 25.9766V24.5605L42.1387 23.6328L41.7969 22.5098L41.2109 21.3867L40.7227 20.752L40.1855 20.1172L40.0391 19.9707V19.873L39.8438 19.7754V19.6777L39.6484 19.5801V19.4824L39.4531 19.3848V19.2871L39.2578 19.1895L39.0137 18.8965L38.6719 18.6035L38.4277 18.3105L38.0859 18.0176L37.8418 17.7246L37.5 17.4316L37.2559 17.1387L36.9141 16.8457L36.6699 16.5527L36.3281 16.2598L36.084 15.9668L35.7422 15.6738L35.498 15.3809L35.1562 15.0879L34.9121 14.7949L34.5703 14.502L34.3262 14.209L33.9844 13.916L33.7402 13.623L33.3984 13.3301L33.1543 13.0371L32.8125 12.7441L32.5684 12.4512L32.2266 12.1582L31.9824 11.8652L31.6406 11.5723L31.3965 11.2793L31.0547 10.9863L30.8105 10.6934L30.4688 10.4004L30.2246 10.1074L29.8828 9.81445L29.6387 9.52148L29.2969 9.22852L29.0527 8.93555L28.7109 8.64258L28.4668 8.34961L28.125 8.05664L27.8809 7.76367L27.5391 7.4707L27.2949 7.17773L26.9531 6.88477L26.6602 6.54297L26.3672 6.29883L26.123 6.05469L25.6836 5.66406L24.9023 5.07812L23.8281 4.49219L22.7539 4.15039L22.0215 4.00391L21.3867 3.95508H20.6055L19.6289 4.05273L18.4082 4.39453L17.5781 4.78516L16.8457 5.22461L15.8203 6.10352H15.7227V6.20117L15.3809 6.49414L15.1367 6.78711L14.7949 7.08008L14.5508 7.37305L14.209 7.66602L13.9648 7.95898L13.623 8.25195L13.3789 8.54492H13.2812V8.64258H13.1836V8.74023H13.0859L12.9883 8.93555L12.4023 9.47266L12.4512 9.66797L27.2949 24.5117L27.7344 25.1953L27.8809 25.7812L27.832 26.3672L27.6367 26.9043L27.2461 27.3926L26.8066 27.6855L26.416 27.832L26.123 27.8809H25.7324L25.1465 27.7344L24.6582 27.3926L24.1699 26.9531L9.81445 12.5977H9.66797L9.32617 13.1348L8.78906 13.8672L8.25195 14.6484L7.95898 15.1855L7.27539 16.3574L6.88477 17.0898L6.44531 18.0664L5.9082 19.2871L5.12695 21.5332L4.54102 23.877L4.15039 26.3184L4.00391 28.0273L3.95508 29.4434L4.00391 31.3477L4.19922 33.3984L4.44336 34.8633L4.73633 36.2793L5.27344 38.2324L5.71289 39.502L6.29883 40.9668L6.88477 42.1875L7.4707 43.3594L8.30078 44.7266L8.88672 45.6543L9.375 46.2891L10.1074 47.2656L10.5469 47.8027L11.2305 48.5352L11.5723 48.9258L12.3535 49.7559L25.8789 63.2812L26.2695 63.916L26.416 64.3555V64.9902L26.2695 65.4785L26.0742 65.7715L25.9277 66.0645L25.293 66.4551L25.0488 66.5527L24.4629 66.6504L23.7305 66.5039L23.1445 66.1133L9.08203 52.0508L8.74023 51.6602L8.05664 50.9277L7.71484 50.5371L7.12891 49.8535L6.64062 49.2188L6.00586 48.3398L5.32227 47.4121L4.15039 45.459L3.61328 44.5312L2.34375 41.7969L1.66016 39.8438L1.26953 38.6719L0.732422 36.5234L0.488281 35.2539L0.146484 32.8613L0 31.0547V28.125L0.195312 26.0742L0.488281 24.0723L0.732422 22.8516L1.31836 20.5078L1.9043 18.75L2.44141 17.334L3.17383 15.7715L3.51562 14.9902L4.15039 13.8672L4.88281 12.6465L5.37109 11.8652L6.00586 10.9863L6.68945 10.0586L7.32422 9.22852L7.91016 8.59375L8.44727 8.00781L8.88672 7.51953L9.22852 7.12891L9.47266 6.83594L9.81445 6.54297L9.91211 6.39648H10.0098L10.1074 6.20117H10.2051L10.3027 6.00586H10.4004L10.498 5.81055H10.5957L10.6934 5.61523H10.791L10.8887 5.41992H10.9863L11.084 5.22461H11.1816L11.2793 5.0293H11.377L11.4746 4.83398H11.5723L11.6699 4.63867H11.7676L11.8652 4.44336H11.9629L12.0605 4.24805H12.1582L12.2559 4.05273H12.3535L12.4512 3.85742H12.5488L12.6465 3.66211H12.7441L12.793 3.51562L13.1836 3.17383L13.5742 2.7832L14.2578 2.24609L14.9414 1.75781L15.8691 1.2207L16.6992 0.830078L18.1641 0.341797L19.7754 0Z" fill="#010101"/>
<path d="M59.8145 0H91.3574L92.9199 0.390625L94.0918 0.78125L95.459 1.51367L95.9961 1.9043L96.8262 2.58789L97.2656 2.97852L97.7051 3.51562L98.291 4.24805L98.877 5.27344L99.3164 6.20117L99.8047 7.8125L100 8.83789V32.8613L99.7559 34.1309L99.3164 35.5469L98.9746 36.3281L98.3398 37.4512L97.8027 38.1348L97.2656 38.7695L96.7773 39.2578L96.0938 39.7949L95.5078 40.2344L94.2383 40.918L93.3105 41.2598L92.0898 41.6016L91.0645 41.748L89.9414 41.7969H82.7637L82.666 42.041L82.2754 42.5293L81.7871 43.1641L81.2012 43.9453L80.7129 44.5801L79.9316 45.6055L79.4434 46.2402L79.0039 46.8262L78.5156 47.4609L77.9297 48.2422L77.2461 49.1211L76.9043 49.5117L76.4648 49.8047L76.0254 49.9512H75.0977L74.6582 49.7559L74.3652 49.5605L73.9746 49.1699L73.3398 48.3398L72.6562 47.4609L71.9238 46.4844L71.2402 45.6055L70.752 44.9707L70.0684 44.0918L69.4824 43.3105L68.7988 42.4316L68.3594 41.8457L61.3281 41.7969L59.9609 41.748L58.9844 41.6016L57.666 41.2109L57.0312 40.9668L56.25 40.5762L55.4199 40.0879L54.3457 39.209L54.0039 38.916L53.6621 38.5254L53.2227 37.9883L52.7344 37.3535L51.9531 35.8887L51.4648 34.4238L51.2695 33.5449L51.1719 32.666V8.98438L51.3184 7.91016L51.6113 6.88477L51.9043 6.00586L52.3926 5.0293L52.832 4.29688L53.3691 3.61328L53.9551 2.92969L54.3457 2.53906L55.0293 2.00195L55.6152 1.5625L56.7871 0.927734L57.1777 0.732422L58.5449 0.292969L59.8145 0ZM60.7422 3.90625L59.7168 4.00391L58.5938 4.3457L57.7637 4.78516L57.1289 5.27344L56.6406 5.71289L56.1035 6.39648L55.6152 7.22656L55.2734 8.1543L55.127 8.83789L55.0781 9.32617L55.0293 18.9941V31.4941L55.127 32.8613L55.2734 33.5449L55.5664 34.4238L56.0547 35.3027L56.6895 36.084L57.0312 36.4258L57.666 36.9141L58.5449 37.4023L59.5215 37.7441L60.1074 37.8418L60.791 37.8906L69.5312 37.9395L70.166 38.1348L70.6055 38.4277L71.0449 38.916L71.7285 39.8438L72.4121 40.7227L73.1445 41.6992L73.7305 42.4316L74.3164 43.2129L74.9512 44.043L75.4883 44.7266L75.6836 44.7754L77.0996 42.9199L77.3926 42.5293L78.0273 41.6992L78.5156 41.0645L79.2969 40.0391L79.9316 39.209L80.2734 38.7695L80.6152 38.3789L80.957 38.1348L81.3477 37.9883L81.6895 37.9395L90.5273 37.8906L91.5527 37.7441L92.5781 37.4023L93.4082 36.9629L94.043 36.4746L94.5312 36.0352L95.166 35.2051L95.5566 34.4727L95.8008 33.7891L95.9961 33.0566L96.0938 32.1777V9.86328L95.9961 8.74023L95.752 7.8125L95.5078 7.22656L95.0684 6.44531L94.5312 5.81055L94.3359 5.56641L93.7988 5.12695L93.3105 4.78516L92.3828 4.29688L91.4062 4.00391L90.5273 3.90625H60.7422Z" fill="#010101"/>
<path d="M20.6055 3.90625H21.3867L22.3145 4.00391L23.2422 4.24805L24.0234 4.54102L25 5.07812L25.8301 5.76172L26.3672 6.20117L26.5625 6.39648V6.49414L26.7578 6.5918V6.68945L26.9531 6.78711V6.88477L27.1484 6.98242L27.3926 7.27539L27.7344 7.56836L27.9785 7.86133L28.3203 8.1543L28.5645 8.44727L28.9062 8.74023L29.1504 9.0332L29.4922 9.32617L29.7363 9.61914L30.0781 9.91211L30.3223 10.2051L30.6641 10.498L30.9082 10.791L31.25 11.084L31.4941 11.377L31.8359 11.6699L32.0801 11.9629L32.4219 12.2559L32.666 12.5488L33.0078 12.8418L33.252 13.1348L33.5938 13.4277L33.8379 13.7207L34.1797 14.0137L34.4238 14.3066L34.7656 14.5996L35.0098 14.8926L35.3516 15.1855L35.5957 15.4785L35.9375 15.7715L36.1816 16.0645L36.5234 16.3574L36.7676 16.6504L37.1094 16.9434L37.3535 17.2363L37.6953 17.5293L37.9395 17.8223L38.2812 18.1152L38.5254 18.4082L38.8672 18.7012L39.1113 18.9941L39.4531 19.2871L39.7461 19.6289L40.0391 19.873L40.3809 20.2637L41.0645 21.0938L41.5039 21.8262L41.8945 22.6562L42.2363 23.8281L42.334 24.5605V25.9766L42.2363 26.709L41.8945 27.8809L41.5039 28.6621L41.1621 29.2969L40.2832 30.3711L35.4004 35.2539L35.2051 35.2051L34.7168 34.7168L34.3262 34.375L32.0801 32.1289L32.1289 31.9336L32.373 31.5918L32.5195 31.1035L32.5684 30.8594V30.4688L32.4219 29.9316L32.1289 29.4434L31.7383 29.1016L31.2012 28.8574L30.9082 28.8086H30.4688L29.8828 28.9551L29.4434 29.248L29.1992 29.1992L28.8574 28.8574L28.4668 28.5156L27.3438 27.3926L27.3926 27.1484L27.6855 26.709L27.832 26.0254L27.7832 25.4883L27.5879 25L27.1484 24.4141L12.3535 9.61914L12.4023 9.42383L13.0371 8.83789L13.0859 8.74023H13.1836V8.64258H13.2812V8.54492H13.3789L13.4766 8.34961H13.5742L13.6719 8.1543H13.7695L13.8672 7.95898H13.9648L14.0625 7.76367H14.1602L14.2578 7.56836H14.3555L14.4531 7.37305H14.5508L14.6484 7.17773H14.7461L14.8438 6.98242H14.9414L15.0391 6.78711H15.1367L15.2344 6.5918H15.332L15.4297 6.39648H15.5273L15.625 6.20117H15.7227V6.10352L16.2598 5.66406L16.9922 5.07812L18.0664 4.49219L18.7012 4.24805L19.6289 4.00391L20.6055 3.90625Z" fill="#FDFDFD"/>
<path d="M74.3164 57.6172H75.1465L76.0742 57.7148L77.0996 58.0078L77.7344 58.252L78.7109 58.7891L79.7852 59.668L92.0898 71.9727L92.3828 72.2168L92.6758 72.5586L92.9688 72.8027L93.2617 73.1445L93.5547 73.3887L93.8965 73.7793L94.4336 74.3652L94.9219 75L95.5078 76.0742L95.8496 77.0996L95.9961 77.7344L96.0938 78.6621V79.2969L95.9473 80.5176L95.6055 81.6406L95.2148 82.4219L94.873 83.0566L94.3359 83.6914L93.8965 84.2285L90.5273 87.5977L90.3809 87.6465L66.0645 63.3301L66.1621 63.1348L69.7266 59.5703L70.2637 59.1309L70.8496 58.6914L71.875 58.1543L73.1445 57.7637L73.7305 57.666L74.3164 57.6172Z" fill="#FCFDFD"/>
<path d="M75.3418 7.8125H76.123L77.1973 8.00781L78.2227 8.34961L79.248 8.88672L79.6387 9.17969L80.127 9.57031L80.6641 10.1074L81.1523 10.7422L81.6406 11.5723L81.9336 12.3047L82.1289 12.8906L82.3242 13.916V15.2832L82.1289 16.3086L81.8359 17.1875L81.2988 18.2129L80.8594 18.7988L80.3711 19.3848L79.834 19.8242L79.248 20.2637L78.3691 20.752L77.6367 21.0449H77.5391V24.2188L77.2949 25L76.9531 25.4395L76.4648 25.8301L76.123 25.9766L75.8789 26.0254H75.2441L74.7559 25.8789L74.3164 25.5859L73.9258 25.1465L73.7305 24.707L73.6328 24.3164V20.3125L73.7305 19.7266L73.9746 19.1406L74.2676 18.6523L74.5605 18.3105L75.0977 17.8711L75.5859 17.5781L76.8555 17.0898L77.3438 16.7969L77.832 16.3086L78.2227 15.5273L78.3203 15.2344L78.3691 14.8438V14.1602L78.125 13.3789L77.6855 12.6953L77.2461 12.3047L76.7578 12.0117L75.9277 11.7676H75.1465L74.5605 11.9141L73.9746 12.207L73.6816 12.4512H73.584L73.4863 12.6465L73.1445 13.0859L72.9004 13.623L72.7539 14.1602L72.6562 14.9414L72.4609 15.4785L72.1191 15.9668L71.5332 16.3574L70.9961 16.5039H70.5078L69.873 16.3086L69.5801 16.1133L69.2871 15.8691L68.9453 15.2832L68.7988 14.7461V14.209L68.9941 12.9883L69.3848 11.8164L69.9219 10.8398L70.3125 10.3516L70.9473 9.61914L71.6309 9.08203L72.3145 8.64258L73.2422 8.20312L74.1699 7.95898L74.6582 7.86133L75.3418 7.8125Z" fill="#010101"/>
<path d="M30.0293 68.3594L30.4688 68.4082L30.957 68.5547L31.4453 68.8965L31.7383 69.2383L31.9824 69.7266L32.0801 70.3613L31.9336 71.0449L31.6406 71.5332L31.3965 71.7773L30.8594 72.1191L30.1758 72.2656L29.4434 72.168L28.8574 71.8262L28.4668 71.3379L28.2715 70.9473L28.1738 70.5566V70.1172L28.3203 69.5312L28.6621 69.043L28.7109 68.8965L29.3945 68.5059L30.0293 68.3594Z" fill="#010101"/>
<path d="M75.4395 29.1016L75.9277 29.1504L76.416 29.2969L76.9531 29.6875L77.2949 30.1758L77.4902 30.7129L77.5391 31.1035L77.4414 31.5918L77.1484 32.1777L76.9043 32.4707L76.3672 32.8125L75.7324 33.0078H75.3418L74.8047 32.8613L74.3164 32.5195L73.9258 32.0801L73.7305 31.6895L73.6328 31.2988V30.8105L73.8281 30.1758L74.1699 29.7363L74.5605 29.3945L75 29.1992L75.4395 29.1016Z" fill="#010101"/>
<path d="M30.4688 28.7598H30.9082L31.3477 28.8574L31.8848 29.1504L32.2266 29.4922L32.5195 30.0293L32.6172 30.4688V30.8594L32.4707 31.4453L32.2266 31.8848L31.8848 32.2266L31.4941 32.4707L30.9082 32.6172H30.4199L29.7852 32.4219L29.3457 32.0801L29.0527 31.7383L28.8574 31.3477L28.7598 30.9082V30.4688L28.9062 29.9316L29.1504 29.4922L29.6387 29.0527L30.0293 28.8574L30.4688 28.7598Z" fill="#010101"/>
</g>
<defs>
<clipPath id="clip0_1_722">
<rect width="100" height="100" fill="white"/>
</clipPath>
</defs>
</svg>
