<svg width="100" height="100" viewBox="0 0 100 100" fill="none" xmlns="http://www.w3.org/2000/svg">
<path d="M50.1875 10.3125H51.625L54.3125 10.4375L57.0625 10.75L58.875 11.0625L61.125 11.5625L63.125 12.125L65.3125 12.875L67.5 13.75L69.25 14.5625L71 15.5L72.4375 16.375L74.125 17.5L75.1875 18.25L76 18.875L76.6875 19.4375L77.5 20.125L78.1875 20.6875L79.1875 21.625L80 22.375L81 23.4375L81.75 24.25L82.4375 25.125L83.25 26.125L84.1875 27.375L84.75 28.1875L85.5625 29.4375L86.3125 30.6875L86.875 31.6875L87.75 33.375L88.625 35.3125L89.5 37.625L90.125 39.5625L90.75 41.9375L91.1875 44.1875L91.5 46.4375L91.625 47.875L91.6875 49.1875V52.875L91.5625 55L91.375 56.8125L90.875 59.5L90.375 61.625L89.9375 63.125L89.375 64.8125L88.5 67.0625L87.5625 69.125L86.8125 70.5L85.8125 72.25L85.625 72.5625L85.75 73.1875L86.375 75.25L87.375 79.0625L88.1875 82.125L89.1875 85.9375L89.8125 88.0625L90.25 89.5625L90.5625 90.375V90.5L90.1875 90.4375L87.6875 89.625L85.9375 89.1875L77.75 87L74.5625 86.1875L73.3125 85.75L72.6875 85.5625L71.6875 86.125L70.5625 86.75L69.125 87.5L67.0625 88.4375L64.5 89.4375L62.6875 90L60.3125 90.625L57.75 91.125L55.4375 91.4375L53.0625 91.625L51.625 91.6875H49.75L47.4375 91.5625L45.375 91.375L43.5 91.0625L40.75 90.4375L39.1875 90L36.625 89.125L34.8125 88.375L33.5625 87.8125L32.5 87.3125L31.125 86.5625L29.5625 85.625L27.6875 84.375L26.75 83.6875L25.75 82.875L25.125 82.375L24.25 81.625L23.5625 81L23.0625 80.5625L21.1875 78.6875L20.75 78.1875L20.1875 77.5625L19.5 76.75L18.6875 75.6875L18.0625 74.875L17.375 73.875L16.875 73.125L16.1875 72.0625L15.3125 70.5625L14.5625 69.125L13.9375 67.8125L13 65.5625L12.125 63L11.5 60.6875L11.0625 58.8125L10.75 57.125L10.5 55.125L10.3125 52.6875L10.25 50.375L10.375 48.1875L10.6875 45.5L11.0625 43.3125L11.625 40.8125L12.125 39.0625L12.875 36.875L13.6875 34.875L14.25 33.625L14.75 32.625L15.5 31.1875L16 30.375L16.625 29.375L17.4375 28.125L18.1875 27.0625L18.8125 26.1875L19.6875 25.0625L20.3125 24.375L20.75 23.875L21.25 23.375L21.6875 22.875L23.375 21.1875L23.875 20.75L24.125 20.625V20.5L24.625 20.0625L25.5 19.3125L26.4375 18.5625L27.5 17.8125L29.5625 16.4375L30.5625 15.8125L32.125 14.9375L33.1875 14.375L34.6875 13.6875L37.0625 12.75L39.5625 11.9375L41.6875 11.375L44.1875 10.875L46.5 10.5625L48.625 10.375L50.1875 10.3125ZM50.4375 29.3125L49.5625 29.5L48.5625 29.9375L47.8125 30.5L47.4375 30.8125L46.8125 31.625L46.3125 32.5625L45.9375 33.6875L45.875 34.1875V34.75L46.0625 35.625L46.5 36.625L46.9375 37.375L47.5625 38.125L48.25 38.6875L49.1875 39.1875L50.1875 39.5L50.875 39.625L51.75 39.5625L52.75 39.25L53.8125 38.75L54.375 38.3125L55.0625 37.625L55.625 36.75L55.9375 36.125L56.1875 35.0625V33.8125L55.9375 32.875L55.4375 31.875L54.875 31.125L54.375 30.5625L53.625 30L52.5625 29.5L51.6875 29.3125H50.4375ZM55.125 42L48.3125 42.0625H45L42.125 42.125L42.0625 42.3125V49.75H45.875V64.875L45.8125 64.9375L45.3125 65L43.1875 65.0625L42.1875 65.125L42.125 65.1875V67.375L42.0625 71.3125V72.6875L42.125 72.75H59.8125L59.9375 72.6875L60 68.5V65.25L59.9375 65.125L56.4375 65.0625L56.125 65V42.0625L56.0625 42H55.125Z" fill="#FEC827"/>
<path d="M50.1875 10.3125H51.625L54.3125 10.4375L57.0625 10.75L58.875 11.0625L61.125 11.5625L63.125 12.125L65.3125 12.875L67.5 13.75L69.25 14.5625L71 15.5L72.4375 16.375L74.125 17.5L75.1875 18.25L76 18.875L76.6875 19.4375L77.5 20.125L78.1875 20.6875L79.1875 21.625L80 22.375L81 23.4375L81.75 24.25L82.4375 25.125L83.25 26.125L84.1875 27.375L84.75 28.1875L85.5625 29.4375L86.3125 30.6875L86.875 31.6875L87.75 33.375L88.625 35.3125L89.5 37.625L90.125 39.5625L90.75 41.9375L91.1875 44.1875L91.5 46.4375L91.625 47.875L91.6875 49.1875V52.875L91.5625 55L91.375 56.8125L90.875 59.5L90.375 61.625L89.9375 63.125L89.375 64.8125L88.5 67.0625L87.5625 69.125L86.8125 70.5L85.8125 72.25L85.625 72.5625L85.75 73.1875L86.375 75.25L87.375 79.0625L88.1875 82.125L89.1875 85.9375L89.8125 88.0625L90.25 89.5625L90.5625 90.375V90.5L90.1875 90.4375L87.6875 89.625L85.9375 89.1875L77.75 87L74.5625 86.1875L73.3125 85.75L72.6875 85.5625L71.6875 86.125L70.5625 86.75L69.125 87.5L67.0625 88.4375L64.5 89.4375L62.6875 90L60.3125 90.625L57.75 91.125L55.4375 91.4375L53.0625 91.625L51.625 91.6875H49.75L47.4375 91.5625L45.375 91.375L43.5 91.0625L40.75 90.4375L39.1875 90L36.625 89.125L34.8125 88.375L33.5625 87.8125L32.5 87.3125L31.125 86.5625L29.5625 85.625L27.6875 84.375L26.75 83.6875L25.75 82.875L25.125 82.375L24.25 81.625L23.5625 81L23.0625 80.5625L21.1875 78.6875L20.75 78.1875L20.1875 77.5625L19.5 76.75L18.6875 75.6875L18.0625 74.875L17.375 73.875L16.875 73.125L16.1875 72.0625L15.3125 70.5625L14.5625 69.125L13.9375 67.8125L13 65.5625L12.125 63L11.5 60.6875L11.0625 58.8125L10.75 57.125L10.5 55.125L10.3125 52.6875L10.25 50.375L10.375 48.1875L10.6875 45.5L11.0625 43.3125L11.625 40.8125L12.125 39.0625L12.875 36.875L13.6875 34.875L14.25 33.625L14.75 32.625L15.5 31.1875L16 30.375L16.625 29.375L17.4375 28.125L18.1875 27.0625L18.8125 26.1875L19.6875 25.0625L20.3125 24.375L20.75 23.875L21.25 23.375L21.6875 22.875L23.375 21.1875L23.875 20.75L24.125 20.625V20.5L24.625 20.0625L25.5 19.3125L26.4375 18.5625L27.5 17.8125L29.5625 16.4375L30.5625 15.8125L32.125 14.9375L33.1875 14.375L34.6875 13.6875L37.0625 12.75L39.5625 11.9375L41.6875 11.375L44.1875 10.875L46.5 10.5625L48.625 10.375L50.1875 10.3125ZM50.6875 11.6875L48 11.8125L45.75 12.0625L43.375 12.4375L41.75 12.8125L39.75 13.375L37.1875 14.25L35.5625 14.9375L34.0625 15.625L31.8125 16.8125L30.875 17.375L29.75 18.0625L28.5 18.9375L27.4375 19.6875L26.6875 20.25L25.3125 21.375L24.5 22.125L23.75 22.8125L21.9375 24.625L21.5 25.125L20.8125 25.9375L20.25 26.625L19.625 27.5L19.0625 28.25L18.25 29.4375L17.375 30.8125L16.5 32.375L15.8125 33.6875L15.3125 34.6875L14.625 36.3125L14.3125 37L13.5625 39.25L12.625 42.5625L12.3125 44L12 46.125L11.75 48.4375L11.625 51.125V52.3125L11.8125 55.1875L12.25 58L12.6875 60.0625L13.5 62.8125L13.9375 64.0625L14.625 65.8125L15.5625 67.875L16.3125 69.375L17.0625 70.75L18.5625 73.125L19.3125 74.125L20.5625 75.75L21.4375 76.8125L22.1875 77.6875L22.6875 78.1875L23.125 78.6875L23.75 79.3125L24.25 79.75L25.3125 80.75L26.375 81.625L27.5 82.5L28.6875 83.375L30.1875 84.375L31.4375 85.125L32.4375 85.6875L34.25 86.625L36.125 87.4375L38.625 88.375L40.875 89.0625L42.75 89.5L46.4375 90.25L48.1875 90.4375L49.5 90.5H52.75L54.4375 90.375L56 90.1875L58.6875 89.6875L61.6875 88.9375L64.4375 88L66.625 87.125L68.5 86.25L69.8125 85.5625L71.0625 84.875L71.9375 84.3125L72.125 84.25H72.6875L75.875 85.0625L80.3125 86.25L83.9375 87.25L86.625 88L87.6875 88.3125H88.25L88.1875 87.6875L87.6875 85.875L87.25 84.125L86.8125 82.625L86.25 80.5L85.625 78.375L85.125 76.5L84.25 73.0625L84.1875 72.875V72.3125L84.4375 71.625L85.1875 70.3125L85.8125 69.25L86.4375 68.0625L87.125 66.625L88.0625 64.375L89 61.625L89.5 59.8125L90 57.4375L90.4375 54.625L90.5625 53.375L90.625 51.8125L90.5625 48.9375L90.4375 47.5L90.1875 45.9375L89.75 43.75L89.25 41.5L88.5 39.0625L87.875 37.25L87 35.25L86 33.1875L85.25 31.75L84.75 30.9375L84.0625 29.8125L83.625 29.125L82.875 28.125L82.0625 27L81.5625 26.375L80.4375 25L80.1875 24.6875L79.875 24.375L79.25 23.6875L78.9375 23.375L77.9375 22.4375L77.1875 21.75L75.8125 20.625L75.25 20.125L74.5625 19.625L74.0625 19.25L72.375 18.125L71.5625 17.625L70.375 16.9375L69.75 16.5625L68.6875 16L66.8125 15.0625L65.5 14.5L64 13.9375L61.875 13.25L60.8125 12.9375L58.5625 12.4375L56.625 12.0625L54.75 11.8125L52.4375 11.6875H50.6875Z" fill="#351906"/>
<path d="M50.4375 28.0625H51.4375L52.5 28.1875L53.8125 28.5625L54.5 28.9375L55.25 29.5L56.125 30.375L56.9375 31.625L57.3125 32.4375L57.5625 33.25L57.6875 33.875V35.25L57.5 36.1875L56.6875 37.8125L56.3125 38.3125L55.625 39.0625L54.375 40L53.8125 40.4375V40.75L53.9375 40.8125H55L56.25 40.75L56.8125 40.8125L57.3125 41.125L57.5 41.4375L57.625 42.125L57.6875 48.125L57.75 63.25L57.9375 63.625H59.625L60.8125 63.9375L61.125 64.25L61.3125 64.75L61.375 65.3125L61.4375 66.6875V72.0625L61.375 72.9375L61.1875 73.5625L60.9375 73.875L60.4375 74L58.375 74.125L52.25 74.1875H44.1875L42.5625 74.125L41.5 74L41 73.8125L40.75 73.0625L40.6875 72.6875L40.625 71.6875L40.6875 65.0625L40.9375 64.3125L41.1875 64L42.125 63.75L42.75 63.625L44.125 63.5L44.3125 63.25L44.4375 59.9375V55.125L44.375 51.9375L44.3125 51.4375L43.9375 51.3125L42.125 51.125L41.125 50.9375L40.875 50.625L40.625 49.75V47L40.6875 42.875L40.8125 41.75L41 41.1875L41.1875 41L41.75 40.8125L43.25 40.625H45.75L47.5 40.75H48.375L48.1875 40.375L47.5625 40L47.0625 39.5625L46.375 39L45.875 38.5L45.25 37.5625L44.8125 36.5625L44.5625 35.625L44.4375 34.875V34L44.625 32.9375L45.0625 31.75L45.375 31.125L45.9375 30.375L46.375 29.875L47.4375 29.0625L48.4375 28.5L49.375 28.1875L50.4375 28.0625ZM50.4375 29.3125L49.5625 29.5L48.5625 29.9375L47.8125 30.5L47.4375 30.8125L46.8125 31.625L46.3125 32.5625L45.9375 33.6875L45.875 34.1875V34.75L46.0625 35.625L46.5 36.625L46.9375 37.375L47.5625 38.125L48.25 38.6875L49.1875 39.1875L50.1875 39.5L50.875 39.625L51.75 39.5625L52.75 39.25L53.8125 38.75L54.375 38.3125L55.0625 37.625L55.625 36.75L55.9375 36.125L56.1875 35.0625V33.8125L55.9375 32.875L55.4375 31.875L54.875 31.125L54.375 30.5625L53.625 30L52.5625 29.5L51.6875 29.3125H50.4375ZM55.125 42L48.3125 42.0625H45L42.125 42.125L42.0625 42.3125V49.75H45.875V64.875L45.8125 64.9375L45.3125 65L43.1875 65.0625L42.1875 65.125L42.125 65.1875V67.375L42.0625 71.3125V72.6875L42.125 72.75H59.8125L59.9375 72.6875L60 68.5V65.25L59.9375 65.125L56.4375 65.0625L56.125 65V42.0625L56.0625 42H55.125Z" fill="#351A06"/>
<path d="M50.1875 10.3125H51.625L54.3125 10.4375L57.0625 10.75L58.875 11.0625L61.125 11.5625L63.125 12.125L65.3125 12.875L67.5 13.75L69.25 14.5625L71 15.5L72.4375 16.375L74.125 17.5L75.1875 18.25L76 18.875L76.6875 19.4375L77.5 20.125L78.1875 20.6875L79.1875 21.625L80 22.375L81 23.4375L81.75 24.25L82.4375 25.125L83.25 26.125L84.1875 27.375L84.75 28.1875L85.5625 29.4375L86.3125 30.6875L86.875 31.6875L87.75 33.375L88.625 35.3125L89.5 37.625L90.125 39.5625L90.75 41.9375L91.1875 44.1875L91.375 45.4375V45.75L91.3125 45.625L90.875 45.6875L90.75 45.8125L90.625 46.125V47.0625L90.75 48.5625V52.625L90.5 55.0625L90 58L89.4375 60.375L89.25 61L89.1875 60.75L89.625 59L90.0625 56.6875L90.4375 54.125L90.5 53.375L90.5625 51.8125L90.5 48.9375L90.375 47.5L90.125 45.9375L89.6875 43.75L89.1875 41.5L88.4375 39.0625L87.8125 37.25L86.9375 35.25L85.9375 33.1875L85.1875 31.75L84.6875 30.9375L84 29.8125L83.5625 29.125L82.8125 28.125L82 27L81.5 26.375L80.375 25L80.0625 24.6875L79.3125 23.8125L78.9375 23.5L78.625 23.125L78.125 22.6875L77.1875 21.8125L75.8125 20.6875L75.25 20.1875L74.5625 19.6875L74.0625 19.3125L72.375 18.1875L71.5625 17.6875L70.375 17L69.75 16.625L68.6875 16.0625L66.8125 15.125L65.5 14.5625L64 14L61.875 13.3125L60.8125 13L58.5625 12.5L56.625 12.125L54.75 11.875L52.4375 11.75H50.6875L48 11.875L45.75 12.125L43.375 12.5L41.75 12.875L39.75 13.4375L37.1875 14.3125L35.5625 15L34.0625 15.6875L31.8125 16.875L30.875 17.4375L29.75 18.125L28.5 19L27.625 19.625L27.5 19.5625L28 19.125L29.625 18L30.3125 17.5625L31.375 16.9375L31.625 16.625L32.5625 16.0625L33.5625 15.5L34.0625 15.1875L35.125 14.625H35.3125V14.5L35.875 14.375V14.25L36.875 13.75L38 13.125L38.8125 12.75L39.3125 12.625V12.5H39.5L39.5625 12.25L39.625 12.1875L39.3125 12.125L39.375 12L41.1875 11.5L43.8125 10.9375L46 10.625L47.75 10.4375L50.1875 10.3125Z" fill="#351906"/>
<path d="M41.375 13.0625H42L42.1875 13.25V13.3125H43.625L44.25 13.5625L44.1875 13.6875L43.3125 13.9375L43.125 14.0625L42.6875 14.1875L42.125 14.375L41.75 14.6875L41.375 14.5V14.375L41.0625 14.625L41 14.75L40.3125 14.9375L40 15.1875L39.3125 15.125L39.1875 15.5L39 15.75L38.5 15.875L37.8125 16.25L37.5 16.3125L37.4375 16.125L37.25 16.375L36.9375 16.4375V16.5625L36.75 16.6875L36.1875 16.875L35.875 17.125L35.5 17.25L35.3125 17.4375L34.9375 17.5V17.625L34.625 17.8125L34.4375 17.75L34.75 17.625V17.5L35.25 17.125L34.625 17.375V17.5L34.25 17.6875L34 18L33.4375 18.1875V18.3125H33.3125L33.25 18.5L32.875 18.625L32.3125 18.9375L31.625 19.375H31.5L31.4375 19.5625L30.9375 19.8125L30.0625 20.3125L29.5 20.6875L29.1875 20.875L29.125 21L28.5 21.3125L27.875 21.8125L27.5 22.25L26.8125 22.75L26.625 23H26.5L26.375 23.25H26.25V23.375L25.875 23.5625L25.5 24L25.375 24.1875L25.1875 24.3125H25L24.875 24.5625L24.6875 24.8125H24.5625L24.4375 25.125L24.25 25.375L23.875 25.5625L23.6875 25.9375H23.5625V26.0625L23.0625 26.5625L22.875 26.625L22.8125 26.8125H22.6875L22.625 27H22.5L22.375 27.375L22.25 27.5625H22.0625V27.6875H21.9375V28L21.625 28.25L21.25 28.8125L20.9375 29.1875H20.8125V29.3125H20.6875L20.5625 29.625L20.3125 29.9375L20 30.5L19.6875 30.875L19.3125 31.8125L18.875 32.4375L18.25 33.625L17.8125 34.5625L17.875 34.8125L17.5 35.75L17.25 36.125H17.125L17.0625 36.5L16.6875 37.375L16.625 37.6875H16.5V38.1875L16.1875 38.8125L15.6875 40.0625L15.5 40.625L15.375 40.8125L15.1875 41.375L14.875 42.25L14.625 43.0625L14.5625 43.1875H14.4375L14.25 43.75L13.9375 43.875L13.6875 44.125L13.5625 44.0625L13.4375 44.375H13.25L13 45.25L12.875 46.5625L12.6875 47.4375L12.625 47.9375L12.5 48L12.375 48.1875L12.3125 48.0625L12.1875 48.4375L12 48.375V48.25H12.125L12 47.875L12.125 46.25L12.4375 43.875L12.75 42.4375L12.875 41.625L13.8125 38.4375L14.4375 36.6875L15.125 35.125L15.6875 33.9375L16.1875 32.9375L16.9375 31.5625L17.5625 30.5L18.25 29.4375L18.9375 28.4375L19.4375 27.75L20.375 26.5L21.1875 25.5L21.75 24.875L22.4375 24.125L24.25 22.3125L24.75 21.875L25.5 21.1875L27.0625 19.9375L28.25 19.125L29.375 18.3125L30.375 17.6875L31.625 16.9375L32.75 16.3125L35 15.1875L36.4375 14.5625L36.9375 14.4375L38.25 14L38.625 14.0625L38.6875 13.875L39.0625 13.8125L39.375 13.6875L39.875 13.5L40.5 13.3125L41 13.1875L41.375 13.0625Z" fill="#FED823"/>
<path d="M12.8125 59.5L13 59.5625L13.25 60.0625L13.625 61.1875L13.75 61.3125L13.875 61.8125L14.1875 62.6875L14.625 63.625L15.25 65L15.625 65.625L15.875 66.1875L16.1875 66.6875L16.3125 67.0625L16.8125 68L17.1875 68.5625L17.5 69.125L17.75 69.5L17.9375 69.875L18.375 70.375L18.5625 70.6875L19.3125 71.5L19.5 71.875V72L19.75 72.125L20.4375 72.8125L20.5625 73.125L20.8125 73.25L21.0625 73.5L21.5 73.875L22.1875 74.625L22.4375 75.125L22.5625 75.3125L22.6875 75.1875L22.875 75.5V75.625L23 75.75H23.1875L23.3125 75.9375V76.0625L23.5625 76.375L23.75 76.4375L24 76.75L24.375 77.0625L24.625 77.375L25 77.6875L25.3125 78L25.9375 78.5V78.625L26.1875 78.75L26.8125 79.25L27.375 79.8125L28 80.25L28.25 80.5625L28.9375 81.125L29.125 81.25V81.375H29.25V81.5L29.5 81.625L30.125 82H30.375L30.5625 82.125L30.5 82.375L30.8125 82.5L30.875 82.5625L31 82.4375L31.5 82.875L31.8125 82.9375L32.0625 83.375L32.5 83.75L33.375 84.1875L34 84.625L34.75 85.0625L35.25 85.4375L35.75 85.625L36.8125 86.1875L37.3125 86.4375V86.625L37.875 86.6875L38.125 86.875V87L38.6875 87.1875L39.1875 87.4375L39.75 87.5625L40.9375 88L41.1875 88.0625L41.5 88L41.8125 88.125L42.5625 88.3125L42.875 88.4375L43.6875 88.625L43.5 88.75L43.5625 88.875L43.8125 88.9375L45.1875 89.25L45.875 89.3125L46.4375 89.4375H46.75V89.5L47.5 89.625L47.75 89.6875L48.375 89.75L48.75 89.8125L48.8125 89.75H49.25L49.5 89.8125H51.5625L52.1875 89.75L52.3125 89.8125V89.6875L52.8125 89.5625L54.25 89.5L55.375 89.25L57.25 89L57.5625 88.875L58.375 88.75L59.0625 88.5625L59.6875 88.4375L60.875 88.125L61.1875 88L61.6875 87.875L62.25 87.6875L62.5625 87.625L63.6875 87.25L64.3125 87L64.5 86.8125L64.9375 86.625V86.5L65.9375 86L68 85.0625L69.5625 84.4375L70.4375 84.0625L72.0625 83.5H72.625L73.4375 83.75L73.375 83.875H73.25L73.4375 84.125L73.6875 84.1875V84.3125L73.875 84.375L73.75 84.4375L72.9375 84.3125L72.6875 84.25H72.125L71.4375 84.625L70.5 85.1875L69.4375 85.75L68.25 86.375L66.5 87.1875L64.25 88.0625L61.6875 88.9375L58.6875 89.6875L56 90.1875L53.8125 90.4375L52.75 90.5H49.5L47.5 90.375L46.125 90.1875L41.875 89.3125L40 88.8125L37.75 88.0625L35.8125 87.3125L33.75 86.375L31.9375 85.4375L30.1875 84.375L29.25 83.75L28.1875 83L26.875 82L26.3125 81.5625L25.5 80.875L25 80.4375L24.0625 79.5625L23.25 78.8125L22.75 78.3125L22.3125 77.8125L21.5625 77L20.875 76.125L20.25 75.375L19.5 74.375L18.6875 73.3125L17.8125 71.9375L17.0625 70.75L15.9375 68.625L15.0625 66.8125L14.25 64.875L13.625 63.1875L13.25 62L13.125 61.25L12.75 59.9375V59.5625L12.8125 59.5Z" fill="#FED823"/>
<path d="M53.25 11.875L54.5 11.9375L55.625 12.0625L56.4375 12.1875L57.75 12.4375L59.0625 12.625L61.0625 13.125L62.25 13.5L63.75 14L64.5625 14.25L65.625 14.6875L66.25 14.9375L67.25 15.375L68.4375 16L69.4375 16.5L70.875 17.3125L71.5 17.6875L71.9375 17.875L72.6875 18.3125L73.375 18.8125L74.25 19.375L75.125 20.0625L75.6875 20.5L76.1875 20.9375L76.875 21.5L77.625 22.1875L78.125 22.625L78.9375 23.375L79.25 23.6875L80 24.5L80.4375 25L81 25.6875L81.6875 26.5L82.0625 27L82.875 28.125L83.5 28.9375L84.25 30.125L85.5625 32.3125L86.75 34.6875L87.5 36.375L88 37.625L88.75 39.875L88.9375 40.75L89.25 42L89.3125 42.6875L89.4375 42.9375L89.5 43.75L89.625 43.875L89.75 44.875L89.6875 45.25H89.5625V45.5625L89.4375 45.4375L89.125 44.1875L88.875 43.3125L88.8125 42.6875H88.6875L88.625 42.9375V42.8125L88.375 42.6875L88.25 42.0625L88.0625 41.5L87.75 40.9375L87.375 40.375L87.25 40.3125L87.125 39.625L87.0625 39.5L86.9375 39.5625V39.375L86.6875 39.25L86.5625 38.9375V38.6875L86.25 38L85.75 37.1875L85.3125 36.25L84.9375 35.5625L84.3125 34.375L84.0625 33.8125L83.8125 33.3125L83.375 32.5L83.25 32.4375V32.25H83.125L82.875 31.8125L82.75 31.4375L82.5625 31.125L82.3125 30.875L81.75 30.0625L81.375 29.625L80.9375 28.9375L80.875 28.75L80.625 28.625L80.25 28.0625L79.6875 27.375L79.5 27.0625L79 26.625L78.875 26.3125H78.75L78.5 26L78.1875 25.6875L78.125 25.5H78L77.6875 25.1875L77.25 24.8125L76.9375 24.4375L76.5 24.0625L76.125 23.8125L75.9375 23.5625V23.4375L75.6875 23.3125L75.1875 23L74.875 22.625L74.375 22.25L74.125 22.125L73.8125 21.75L73.3125 21.3125L73.125 21.125V21L72.8125 20.875L71.875 20.1875L71.1875 19.75L70.625 19.375L69.5 18.5625L68.6875 18.125L68 17.75L67.6875 17.5L67.125 17.25L66.6875 17.0625L65.5625 16.5L64 15.875L63.75 15.625L63.8125 15.5625L63.4375 15.3125L63.625 15.1875L62.9375 14.875L62.375 14.75L61.8125 14.5L61.5 14.4375L61.5625 14.5625L61.25 14.5L61.1875 14.3125L61.25 14.125L60.875 14.0625L60.125 13.75L59.4375 13.625L58.75 13.375L58.4375 13.1875L57.9375 13L57.6875 12.8125V12.6875L57 12.5L56.1875 12.375L55.75 12.3125L55.0625 12.25L53.8125 12.0625H53.1875L53.125 11.9375L53.25 11.875Z" fill="#FED823"/>
<path d="M49.3125 27.8125L49.625 28V28.125L48.9375 28.375L48.0625 28.75L47.1875 29.3125L46.1875 30.125L45.5625 30.9375L45.25 31.4375L44.75 32.75L44.5625 33.5L44.5 34V34.875L44.75 36.125L45.0625 37.0625L45.5 37.875L46.0625 38.625L46.5 39.0625L47.0625 39.5L47.5625 39.9375L48.25 40.375L48.375 40.5625V40.75L48.0625 40.8125L46.75 40.75L45.75 40.6875H43.25L41.75 40.875L41.125 41.125L40.9375 41.5L40.8125 42.0625L40.75 42.875L40.6875 47V49.75L40.9375 50.625L41.125 50.875L42.5625 51.125L43.9375 51.25L44.375 51.4375L44.4375 51.9375L44.5 55.125V59.9375L44.375 63.25L44.125 63.5625L42.375 63.75L41.3125 64L41 64.3125L40.75 65.0625H40.625V72.375L40.875 73.75L41 74L41.5 74.0625L41.75 74.375L42.1875 74.5625L43.75 74.6875H47.8125L48.125 74.8125L49 74.875V74.75L49.5 74.8125L49.1875 75.125L48.875 75.25V75.375L48.1875 75.4375V75.5625L47.9375 75.6875L47.1875 75.8125H46.4375L46.125 75.9375H45.6875L45.625 75.875H45.1875L45.0625 76L44.5625 75.9375V75.75L43.875 75.6875L43.625 75.5625L43.5 75.25L43.1875 75.1875L42.9375 75.0625L42.5 75.125L41.9375 75H41.625L41.125 74.6875L40.8125 74.5625L40.3125 73.9375L40.125 73.0625L39.875 72L39.9375 71.4375H39.8125L39.875 71L39.8125 70.25H39.75L39.625 69.5V68.1875L39.75 66.875L39.8125 65.5625L40.0625 64.5L40.375 63.9375L40.8125 63.625L41.1875 63.5V63.375L41.75 63.125L42.625 62.875L43.1875 62.75L43.4375 62.5625H43.5625V62.375H43.6875L43.625 60.6875V60.25L43.6875 59.9375L43.75 58.5625V57.5625L43.6875 56.3125L43.625 56.125L43.6875 55.8125L43.5 55.75L43.375 54.9375L43.125 54.625V54.5L42.8125 54.5625L42.375 54.0625V53.9375L42.125 53.8125L41.6875 53.125L41.5 52.8125L40.875 52.3125L40.375 51.4375L39.9375 49.75L39.8125 48.375L39.75 46.375L39.6875 45.6875L39.75 44.4375L39.8125 43.625L40.0625 42.125L40.3125 41.3125L40.5625 40.9375H40.6875L40.75 40.75L41.125 40.5625L41.4375 40.375L42.125 40.0625L42.6875 39.875V39.75L43.0625 39.5L43.375 39.0625L43.5625 38.5625L43.6875 37.9375L43.5 38L43.5625 38.125L43.25 38.4375L43 38.75L42.9375 38.875L42.625 39L42.5 39.125L42.3125 38.5625L42.4375 38.1875L42.5625 37.875V37.4375L42.75 37.25H42.9375V37.0625H43.3125L43.625 37.1875V37.0625H43.875L43.8125 36.5625L43.875 36.3125L43.75 35.1875L43.5625 35.125L43.5 34.8125V34.375L43.75 33.1875L44.0625 32L44.5625 31.0625L44.75 30.75L45.4375 30L46.25 29.25L46.875 28.75L47.8125 28.1875L48.625 27.9375L48.6875 27.875L49.3125 27.8125Z" fill="#FED823"/>
<path d="M89.625 57.3125L89.8125 57.5V58.375L89.375 60.3125L88.8125 62.1875L88.0625 64.375L87.4375 65.875L86.9375 67L86.1875 68.5625L84.5625 71.4375L84.25 72.0625L84.1875 72.3125V72.875L84.6875 74.75L85.25 77L85.75 78.8125L86.5 81.4375L87.5 85.0625L87.9375 86.8125L88.25 87.9375V88.3125H87.6875L85.0625 87.5625L81.1875 86.5L78.9375 85.875L74.1875 84.625L74 84.4375V84.1875L74.125 84.0625H74.5L74.8125 84.1875L75.5625 84.3125L77.75 84.875L78.75 85.125L79.875 85.4375L80.875 85.6875H81.1875H81.375H82.1875L82.9375 85.875L83.0625 86L83.6875 86.0625V86.1875H84.4375V86.0625L84.875 85.9375V85.625L85.0625 85.5L85.125 85.0625L85.3125 85V84.5H85.375L85.4375 84.0625H85.5L85.5625 83.5625L85.375 83.4375L85.1875 82.875L85 82.375L84.8125 81.5625L84.6875 80.9375L84.75 80.875L84.625 80.125L84.4375 79.4375L84.3125 79.0625H84.4375L84.25 78.375L84 78L83.6875 77L83.25 75.625L83.125 74.625L83.1875 74.0625V72.5L83.5 71.5L83.625 71.0625L84.375 69.875L84.9375 68.875L85.6875 67.375L86.0625 66.75L86.625 65.5625L87.125 64.5625L87.4375 63.6875L87.6875 63.125L88 62L88.5625 60.3125L88.75 59.875L89 59.0625L89.25 57.9375L89.375 57.625H89.5L89.625 57.3125Z" fill="#FED823"/>
<path d="M91 45.5625L91.3125 45.625L91.4375 45.9375L91.625 47.875L91.6875 49.1875V52.875L91.5625 55L91.375 56.8125L91.25 57.0625L90.8125 57.25L90.625 57.625L90.4375 58.5625L90.1875 59.5625L89.625 61.5L88.8125 63.9375L88.5625 64.4375L88 65.75L87.625 66.6875L87.25 67.25L87.0625 67.6875L87 67.5L87.25 66.5625L87.9375 64.875L88.9375 61.875L89.0625 61.1875L89.125 61H89.25L89.375 60.375L89.9375 58L90.4375 55.0625L90.6875 52.625V48.5625L90.5625 47.0625V46.125L90.75 45.75L91 45.5625Z" fill="#1E0D07"/>
<path d="M45.5 10.6875L46.8125 10.75L48.3125 10.875L49.1875 11L50.4375 11.1875L51.1875 11.25L53.375 11.3125L53.5 11.375L54.6875 11.5L55.875 11.6875V11.75H55.25L53.8125 11.625L52.5625 11.5625H50.4375L47.9375 11.6875L45.625 11.9375L43.5625 12.3125L42.5 12.5L40.5 13L39 13.4375L37.9375 13.8125L36.6875 14.3125L35.8125 14.6875L34.875 15.125L33.875 15.625L32.1875 16.5L31.5625 16.875L31.4375 16.8125L32 16.375L33 15.8125L33.625 15.4375L34.8125 14.8125L35.125 14.625H35.3125V14.5L35.875 14.375V14.25L36.875 13.75L38 13.125L38.8125 12.75L39.3125 12.625V12.5H39.5L39.5625 12.25L39.625 12.1875L39.3125 12.125L39.375 12L41.1875 11.5L43.8125 10.9375L45.5 10.6875Z" fill="#491704"/>
<path d="M56.375 30L56.8125 30.375L57.4375 31.125L57.875 32L58.25 33.125L58.4375 33.625L58.375 34.0625H58.5L58.5625 34.3125L58.6875 34.5625V35.5L58.625 35.5625L58.5 37.3125L58.3125 37.9375L58.1875 38.5625L57.5 39.5625H57.25L57.125 39.8125L57.375 40.0625V40.1875H57.5L57.6875 40.5L57.75 40.75L57.875 41.0625L57.5625 41.1875L56.9375 40.75L56.375 40.5H55.75L55.625 40.375L55.6875 40.1875H55.8125L55.875 39.8125L55.625 39.875L55.5 40.125L55.3125 40.1875L55.1875 40.4375L55.125 40.75L54.0625 40.8125L53.875 40.625V40.3125L54.875 39.5625L55.75 38.875L56.4375 38.125L57.0625 37L57.375 36.3125L57.4375 36.1875H57.5625L57.75 35.0625V34.0625L57.625 33.3125L57.4375 32.375L57.3125 32.1875L57.1875 31.8125L57 31.5625V31.3125L56.75 31.1875L56.4375 30.75V30.625L56.6875 30.75L56.875 31L56.9375 30.8125L56.875 30.5625H56.75V30.4375L56.4375 30.3125L56.3125 30.25L56.375 30Z" fill="#FED823"/>
<path d="M10.5 47.4375L10.625 47.5L10.9375 48.8125V49H11.0625L11.1875 49.9375L11.3125 52.4375L11.5625 55.8125L11.75 56.5L11.8125 56.625L11.875 57.4375V58.0625L11.8125 58.5L11.6875 58.25L11.5625 58.125L11.3125 57.3125L11.25 57.25H10.8125L10.6875 56.6875L10.4375 54.5L10.3125 52.6875L10.25 50.375L10.375 48.1875L10.4375 47.5625L10.5 47.4375Z" fill="#1E0D07"/>
<path d="M18 72.4375L18.3125 72.625L18.8125 73.375L19.5625 74.375L20.4375 75.5L21.125 76.375L21.875 77.25L22.5625 78L23.3125 78.8125L23.75 79.25L24.25 79.6875L25.3125 80.6875L26.375 81.5625L27.5 82.4375L28.6875 83.3125L30.1875 84.3125L31.4375 85.0625L32.4375 85.625L34.25 86.5625L36.125 87.375L36.4375 87.5V87.625L36.125 87.6875L35.1875 87.1875L34.375 86.875L33.1875 86.3125L32.8125 86.0625L32.375 85.875L31.1875 85.1875L30.0625 84.5625L29.5 84.1875L28.875 83.75L27.875 83.125V83L27.625 82.9375L27.1875 82.625V82.5L26.875 82.375L26.0625 81.6875L25.9375 81.625V81.5L25.75 81.4375L25.4375 81.125L24.8125 80.5625L24.75 80.375H24.5625L24.4375 80.1875L24.25 80.125V80H24.125V79.875H24L23.6875 79.5625V79.4375L23.4375 79.3125L22.125 78V77.875H22L21.6875 77.4375L21.25 77V76.8125L21.0625 76.75L20.8125 76.3125L20.4375 76V75.8125L20.25 75.75V75.5625L20.0625 75.5L19.875 75.25V75.0625H19.75V74.875L19.5 74.75L19.125 74.3125L18.875 73.875L18.75 73.5625L18.4375 73.3125L18 72.5625V72.4375Z" fill="#3A1906"/>
<path d="M25.3125 81.25L25.625 81.3125L25.9375 81.5V81.625L26.1875 81.75L26.875 82.3125L27.1875 82.5V82.625L27.5 82.75L27.6875 82.9375L27.875 83V83.125L28.1875 83.25L29.0625 83.8125L29.6875 84.25L30.0625 84.5L30.6875 84.875L31.1875 85.125L32.5625 85.9375L33.0625 86.125L33.375 86.3125L34.375 86.8125L35.1875 87.125L36.1875 87.625V87.8125L36.0625 87.875L35.25 87.5625L34.375 87.1875L33.5625 86.8125L32.375 86.25L32.3125 86.0625L31.875 86L30.75 85.375L29.6875 84.8125L29.1875 84.4375L28.75 84.1875L28.4375 83.9375L28.125 83.625L27.625 83.25L27.5625 83.125L27 82.8125L26.8125 82.625L26.5 82.4375V82.3125L26.25 82.25L25.9375 81.9375L25.4375 81.5625L25.3125 81.25Z" fill="#1E0D08"/>
<path d="M71.9375 84.25H72.4375L72.5625 84.5625L71.5625 85.0625L71.125 85.375L70.75 85.5625L69.625 86.1875L68.375 86.8125L67.8125 87L67.3125 87.1875L67 87.25L66.6875 87.1875L66.9375 87.0625V86.9375L69.375 85.75L70.375 85.1875L71.25 84.6875L71.9375 84.25Z" fill="#210E07"/>
<path d="M61.9375 70.5L62.0625 70.6875V72.875L61.9375 73.1875L61.875 73.875L61.625 74.125H61.5V74.3125L60.9375 74.5625H60.0625L59.625 74.4375L59.5625 74.3125L59.875 74.125L60.9375 73.9375L61.0625 73.625L61.25 73.25H61.375L61.5625 71.75L61.6875 71.5625L61.8125 71.125L61.9375 70.5Z" fill="#FED823"/>
<path d="M61.9375 13L62.4375 13.0625L63.4375 13.3125L64.5 13.6875L65.1875 13.9375L65.9375 14.1875L66.4375 14.3125V14.4375L66.75 14.5L67.375 14.8125L67.6875 14.9375V15.0625L68.0625 15.125L68.4375 15.25L68.875 15.5V15.625L69.1875 15.75L69.625 15.9375L70.3125 16.3125L71 16.8125L71.5 17.0625L72.1875 17.5L73.25 18.1875L74.125 18.8125L74.5 19.0625V19.1875L74.8125 19.3125L75.75 20.0625L76.125 20.3125V20.4375L76.375 20.5625L76.6875 20.875L76.8125 20.9375V21.0625L77.1875 21.1875V21.3125L77.375 21.375V21.5L77.125 21.375L76.125 20.625L75.875 20.3125L75.1875 19.875L74.4375 19.25V19.125L74.1875 19.0625L73.5625 18.6875L73.0625 18.25L72.0625 17.6875L71.75 17.4375L70.875 16.9375L69.75 16.1875L68.9375 15.875L68.125 15.375L67.4375 15.0625L66.5 14.6875L66 14.4375L64.3125 13.8125L62.75 13.3125L61.9375 13.0625V13Z" fill="#4A1704"/>
<path d="M43.9375 51.3125L44.3125 51.375L44.375 51.4375L44.4375 51.9375L44.5 55.125V59.9375L44.375 63.25L44.125 63.5625H43.625V63.5L44.0625 63.4375L44.125 63.3125L44.25 60.1875L44.1875 59.1875L44.25 58.875V58.375L44.1875 57.625L44.25 56.875V51.5L43.9375 51.375V51.3125Z" fill="#FEC828"/>
<path d="M57.8125 61.1875L57.875 61.3125H58L58.125 61.6875L58.1875 62.3125L58.5 62.9375V63.0625L59 63.125H59.4375L59.8125 63.25V63.375H60.1875L60.75 63.6875L60.6875 63.8125L59.625 63.6875H57.9375L57.75 63.4375V63L57.875 62.5L57.8125 62V61.1875Z" fill="#FED723"/>
<path d="M59 63.75H59.8125L60.625 63.875V64L60.875 64.125L61.0625 64.4375V64.8125L60.9375 65.25L60.8125 65.875L60.5625 65.6875L60.4375 64.9375L60.0625 64.625L58.9375 64.1875L58.8125 64L59 63.75Z" fill="#1E0D07"/>
<path d="M55 74.25H58.5V74.5625L58.25 74.625L55.75 74.75H54.625L53.5625 74.625V74.4375H54.375L55 74.25Z" fill="#FED923"/>
<path d="M54.3125 29.1875L54.9375 29.5V29.625L55.1875 29.75L56 30.5625L56.4375 31.375L56.625 31.6875L56.875 32.125L56.9375 32.5625L56.8125 32.75L56.625 32.6875L56.4375 32.25L56.3125 31.9375L55.9375 31.4375L55.75 31.125L55.0625 30.3125V30.1875H54.9375L54.75 29.875L54.3125 29.4375V29.1875Z" fill="#1E0D08"/>
<path d="M48.375 28.625L48.5 28.875L48.3125 29.125L48.0625 29.25L47.8125 29.5L47.1875 30L46.9375 30.0625L46.8125 30.3125L46.3125 30.9375L46 31.0625V31.1875L45.8125 31.25L45.75 31.1875L45.8125 30.6875L46.5 29.9375L47 29.375L47.875 28.8125L48.375 28.625Z" fill="#1F0D07"/>
<path d="M40.75 41.75H40.8125L40.75 42.875L40.6875 47V49.75L40.9375 50.625L41.125 50.875L42.5625 51.125L43.5 51.1875V51.25L43.0625 51.3125H42.4375L41.4375 51.0625L41 50.9375L40.75 50.625L40.5625 49.8125L40.5 48.75V44.875L40.625 42.375L40.75 41.75Z" fill="#FEC828"/>
<path d="M90.6875 50.125H90.75V52.625L90.5 55.0625L90 58L89.4375 60.375L89.25 61L89.1875 60.75L89.625 59L90.0625 56.6875L90.4375 54.125L90.5 53.375L90.5625 51.8125L90.625 51.5625L90.6875 50.125Z" fill="#391906"/>
<path d="M61.5625 65.3125H61.6875L61.8125 65.5625L62 66.5625L62.0625 67.0625V68.125L62 68.625H62.125V68.9375L61.875 69V68.125L61.6875 67.4375L61.5625 67.125L61.5 65.4375L61.5625 65.3125Z" fill="#FED923"/>
<path d="M49.5625 91.375H51.5625L52.6875 91.5V91.5625L51.625 91.6875H49.75L48.3125 91.625L48.25 91.5L48.8125 91.4375L49.5625 91.375Z" fill="#210E07"/>
<path d="M86.0625 79.5L86.1875 79.6875L86.4375 80.5625L86.5625 80.8125L86.6875 81.5L86.875 81.8125L86.9375 82.25L87.125 82.375L87.1875 83.1875L87.375 83.8125L87.5 84.3125L87.875 85.625L88.125 86.375V86.8125L88 86.625L87.625 85.4375L87.125 83.5L86.5625 81.625L86.125 80L86.0625 79.5Z" fill="#4A1704"/>
<path d="M57.9375 41.625L58.1875 41.6875V42.4375L58.25 42.8125V43.6875L58.125 43.875L57.9375 43.8125L57.8125 43.5625V41.6875L57.9375 41.625Z" fill="#FED923"/>
<path d="M37.75 88.25L38.125 88.3125L38.6875 88.5L39.6875 88.8125L39.875 89.125H39.3125L38.4375 88.8125L38.125 88.625L37.5625 88.375L37.75 88.25Z" fill="#1E0D08"/>
<path d="M84.6875 74.5L84.8125 74.625L85.0625 75.4375L85.125 75.75L85.3125 76.25L85.4375 76.9375L85.625 77.375L85.6875 77.9375L85.875 78.25L85.9375 78.8125L86.0625 79.1875V79.5L85.9375 79.3125L85.5625 78.0625L85.3125 77.0625L84.6875 74.75V74.5Z" fill="#4A1704"/>
<path d="M88.9375 61.625L89 61.875L88.25 64.1875L87.625 65.8125L87.3125 66.5625H87.1875L87.25 66.1875L88.1875 63.875L88.9375 61.625Z" fill="#381906"/>
<path d="M77.375 21.5L77.8125 21.875L78.1875 22.125L78.625 22.5625L79 23L79.375 23.3125L79.625 23.6875L79.5625 23.875V23.75H79.4375L79 23.25L78.6875 23L78.1875 22.375L77.5625 21.875V21.75H77.4375L77.375 21.5Z" fill="#4A1704"/>
<path d="M14.9375 40.875L15.125 41.125L15.0625 41.4375L14.8125 42.1875L14.5 42.5H14.3125L14.6875 41.6875L14.75 41L14.9375 40.875Z" fill="#FEC828"/>
<path d="M47.0625 39.5625L47.3125 39.6875L47.8125 40.125L48.25 40.375L48.375 40.5625V40.75L48.0625 40.8125H47.5V40.75L48.0625 40.6875L48.125 40.4375L47.6875 40.375L47.375 40.125L47.1875 39.75L47.0625 39.5625Z" fill="#FEC828"/>
<path d="M46.75 12.1875L47.625 12.25L47.75 12.375L47.3125 12.5625H46.8125L46.4375 12.5L46.5 12.25L46.75 12.1875Z" fill="#FED923"/>
<path d="M41.25 64.0625L41.6875 64.125L41.625 64.375L41.25 64.6875L41.1875 64.8125H41V64.375L41.25 64.0625Z" fill="#1E0D08"/>
<path d="M58.5 12.125L59.3125 12.1875L59.625 12.25L60.1875 12.3125L60.875 12.625L61.0625 12.75L60.625 12.6875L59.25 12.375L59.1875 12.3125L58.5 12.1875V12.125Z" fill="#4A1704"/>
<path d="M38 88.125L38.625 88.3125L39.25 88.5625V88.625L38.6875 88.5625L37.9375 88.3125L38 88.125Z" fill="#381906"/>
<path d="M28.3125 83.0625L29 83.5L29.5 83.875V84L29.1875 83.875L28.4375 83.375V83.25L28.1875 83.1875L28.3125 83.0625Z" fill="#3F1805"/>
<path d="M84.5625 82.75L84.75 82.9375V83.5625L84.4375 83.375V82.875L84.5625 82.75Z" fill="#FED923"/>
<path d="M73.375 18.875L73.6875 19L74.5 19.5625L74.6875 19.8125L74.4375 19.6875L73.6875 19.1875L73.375 18.875Z" fill="#FEC828"/>
<path d="M46.6875 29.625L46.8125 29.6875L46.0625 30.4375L45.9375 30.625H45.8125L45.9375 30.375L46.375 29.875L46.6875 29.625Z" fill="#391906"/>
<path d="M86.6875 68.0625H86.8125L86.75 68.4375L86.5625 68.5L86.5 68.75L86.375 68.875L86.3125 68.5625L86.5625 68.3125V68.1875H86.6875V68.0625Z" fill="#1E0D08"/>
<path d="M88 87.25L88.125 87.4375L88.25 87.9375V88.3125H87.6875V88.25L88.0625 88.1875L88 87.25Z" fill="#FEC828"/>
<path d="M13.6875 44.25L13.875 44.4375V44.625L13.625 44.75H13.4375L13.5 44.375L13.6875 44.25Z" fill="#FED923"/>
<path d="M29.9375 84.375L30.25 84.5L30.3125 84.375L30.6875 84.625L30.625 84.8125L30.25 84.6875L29.9375 84.375Z" fill="#361906"/>
<path d="M79.625 23.875L79.875 24L80.25 24.3125L80.4375 24.625L80.375 24.75L80.25 24.5L80 24.375V24.25H79.875L79.625 23.875Z" fill="#4A1704"/>
<path d="M48.5625 91.4375L49.0625 91.5V91.625H48.3125L48.25 91.5L48.5625 91.4375Z" fill="#271207"/>
<path d="M30.5 17.375L30.625 17.4375L29.8125 17.9375L29.6875 17.875L30.0625 17.5625L30.5 17.375Z" fill="#4A1704"/>
</svg>
