<svg width="70" height="70" viewBox="0 0 70 70" fill="none" xmlns="http://www.w3.org/2000/svg">
<path d="M18.8125 2.58124H19.6L20.3 2.66874L20.475 2.75624L20.5625 2.97499V7.39374H50.2249V4.28749L50.2687 3.10624L50.3125 2.75624L50.4437 2.66874L51.0562 2.58124H51.5374L52.5437 2.66874L52.8499 2.79999V5.59999L52.8062 6.95624L52.7625 7.34999H53.2874L55.4312 7.48124L56.6124 7.61249L58.1437 7.91874L58.9312 8.18124L60.1562 8.74999L60.9874 9.23124L61.775 9.79999L62.3437 10.325L62.6937 10.6312L63.1749 11.1562L63.6562 11.8125L64.1812 12.7312L64.575 13.6062L64.9249 14.6562L65.1437 15.7062L65.2312 16.275L65.3187 17.4562L65.3624 18.4625L65.4062 20.1687L65.45 24.675V53.6812L65.4062 56.35L65.3187 57.8375L65.1875 59.15L64.9687 60.3312L64.75 61.0312L64.4874 61.6875L64.1375 62.3875L63.7 63.0875L63.3062 63.6125L62.7812 64.1812L62.3875 64.6187L61.9937 65.0125L61.5125 65.4062L61.1187 65.7562L60.375 66.2375L59.6749 66.5875L59.0187 66.85L58.0999 67.1125L57.0062 67.3312L55.8687 67.4625L54.3375 67.55L51.3187 67.5937H35.0875L16.275 67.55L14.5687 67.4625L13.4312 67.2875L12.425 67.025L11.4625 66.675L10.7625 66.325L10.15 65.975L9.44995 65.4937L9.01245 65.1437L8.4437 64.6187L8.04995 64.225L7.4812 63.4812L6.99995 62.6937L6.64995 61.9937L6.2562 61.075L5.94995 60.1125L5.7312 58.9312L5.59995 57.4875L5.51245 55.3V18.8562L5.5562 17.325L5.6437 16.1875L5.86245 15.05L6.1687 14.0437L6.6062 13.0375L6.9562 12.3812L7.2187 11.9L7.61245 11.375L8.0937 10.7625L9.01245 9.84374L9.5812 9.40624L10.325 8.92499L11.55 8.31249L12.7312 7.91874L13.825 7.65624L14.7 7.52499L16.0562 7.43749L17.85 7.34999L17.9812 7.30624V5.64374L18.025 3.32499L18.0687 2.79999L18.2437 2.66874L18.8125 2.58124ZM17.4562 9.97499L15.6625 10.1062L14 10.3687L13.125 10.5875L12.2937 10.8937L11.2 11.4187L10.6312 11.8562L10.1062 12.3375L9.5812 12.95L9.09995 13.6937L8.7062 14.4375L8.3562 15.3125L8.13745 16.1875L8.0062 17.15L7.9187 19.075L7.87495 21.0437V24.3687H55.125L61.9062 24.4125L62.7374 24.3687L62.9124 24.2812V19.25L62.8687 17.7187L62.7812 16.5812L62.6062 15.7062L62.2125 14.525L61.9062 13.8687L61.5999 13.2562L61.1624 12.6437L60.5499 12.0312L59.8062 11.5062L58.9749 11.0687L58.1875 10.7625L57.1375 10.4562L56 10.2375L54.9937 10.1062L53.7687 10.0187H52.9375L52.8499 10.325L52.7625 11.55V12.425L52.8062 12.9062L52.9812 13.3437L53.7687 14.2187L54.1187 14.7875L54.3375 15.3562L54.3812 15.5312V16.1L54.25 16.7125L53.9874 17.3687L53.6812 17.85L53.2874 18.2875L52.8062 18.5937L52.1937 18.7687H51.0999L50.4 18.5937L50.0062 18.375L49.525 17.8937L49.2187 17.4125L49 16.8437L48.8687 16.275V15.575L49.0437 14.9187L49.3062 14.4812L49.6124 14.1312L49.9625 13.825L50.1375 13.6062L50.2249 13.3L50.2687 12.425V10.1062L50.2249 10.0625L47.25 10.0187L40.9062 9.97499H34.0375L20.65 10.0187L20.6062 10.0625L20.5625 10.9812V11.8125L20.6062 12.6L20.7812 13.3875L21 13.7375L21.3062 14.0437L21.7437 14.6562L21.9187 15.0937L22.0062 15.6625L21.9625 16.4062L21.7875 17.15L21.4812 17.7625L21.0875 18.2L20.6937 18.55L20.2562 18.725L19.7312 18.8125H19.25L18.5937 18.725L17.9812 18.55L17.5 18.2437L17.15 17.8937L16.8875 17.4562L16.6687 16.7562L16.5375 16.0125V15.575L16.7562 14.7437L17.0625 14.3062L17.3687 14L17.7187 13.6937L17.9375 13.3437L18.025 12.8187L18.0687 11.725L18.025 10.4562L17.9812 9.97499H17.4562ZM7.87495 26.8625L7.8312 35.6562V54.8625L7.87495 56.2625L8.0062 58.0125L8.22495 59.325L8.48745 60.1562L8.7937 60.9L9.2312 61.7312L9.6687 62.3L10.0187 62.6937L10.5 63.0875L11.1125 63.525L11.8125 63.9187L12.6437 64.2687L13.5187 64.5312L14.2625 64.7062L15.3125 64.8375L15.8375 64.8812L17.4125 64.925L25.9875 64.9687H28.3062L53.3312 64.925L54.95 64.8812L56.0437 64.75L57.0937 64.5312L58.4937 64.0937L59.5875 63.5687L60.2 63.175L60.7687 62.6937L61.1624 62.2562L61.5562 61.6437L61.95 60.725L62.3437 59.5437L62.6062 58.275L62.7374 56.9187L62.7812 55.9562L62.825 53.55L62.8687 49.9625L62.9124 29.575L62.9562 27.125L62.8687 26.8625H7.87495Z" fill="#C65F5F"/>
<path d="M25.3312 32.5062H27.3875L28.3062 32.6375L29.1375 32.8562L29.8812 33.1625L30.7562 33.6437L31.5437 34.2125L32.0687 34.6937L32.5937 35.2187L33.0312 35.875L33.3812 36.6187L33.6437 37.4937L33.775 38.2375L33.8187 38.7625V39.5937L33.6875 40.6437L33.4687 41.3875L33.1187 42.0875L32.5937 43.05L32.2 43.575L31.7187 44.1437L31.325 44.5375L31.0187 44.8875L30.6687 45.1937L30.4062 45.5L30.0562 45.8062L29.6187 46.2L29.05 46.725L28.35 47.2937L27.7812 47.8187L27.3 48.2125L26.8625 48.6062L26.3812 49L25.8125 49.4812L25.375 49.875L24.6312 50.6187H24.5437V50.7062L24.1937 51.0125L23.7562 51.45L23.4937 51.7562L24.4125 51.8437H25.6375L31.0187 51.9312L32.375 51.975L33.0312 52.0187L33.5125 52.15L33.8187 52.4125L34.0375 53.0687L34.0812 53.2875L34.0375 54.425L33.9062 54.8625L33.6437 55.2125L33.425 55.3875L32.9437 55.5187L32.5062 55.5625L22.925 55.6062L20.6062 55.5625L19.6875 55.475L19.25 55.3L18.9 54.9937L18.55 54.3375L18.3312 53.6375L18.2875 53.3312V52.9812L18.4625 52.4125L18.9 51.5812L19.425 50.8812L19.9062 50.3125L20.2125 49.9625L20.6062 49.525L21.0875 49L21.7875 48.2562L22.2687 47.7312L23.275 46.725L23.625 46.4187L24.7625 45.4562L25.375 44.9312L25.9875 44.45L26.5562 43.9687L27.0375 43.575L27.825 42.7875L28.2187 42.3062L28.7 41.6937L29.05 40.9937L29.2687 40.4687L29.4437 39.6812V38.5875L29.2687 37.9312L28.875 37.1875L28.3937 36.6187L28.0437 36.3125L27.5625 36.0062L27.0812 35.8312L26.6437 35.7437H25.375L24.675 35.9187L23.9312 36.3125L23.4937 36.7062L23.1875 37.0125L22.75 37.6687L22.4 38.2812L22.0937 38.9812L21.3937 40.425L21.0875 40.775L20.65 40.9937H19.95L19.4687 40.8625L19.075 40.5562L18.7687 40.25L18.4187 39.6375L18.3312 39.4187V38.5437L18.4625 37.9312L18.725 37.1437L18.9875 36.5312L19.425 35.7437L19.8187 35.2187L20.3 34.6937L20.65 34.3437L21.2625 33.8625L21.875 33.4687L22.7062 33.075L23.4937 32.8125L24.5437 32.5937L25.3312 32.5062Z" fill="#C65F5F"/>
<path d="M46.375 32.4625H46.725L47.5563 32.7688L47.9938 32.9875L48.3 33.3375L48.475 33.8188L48.5188 34.1688L48.5625 35.175L48.6063 41.2563V48.0813L48.5625 53.025L48.475 54.3375L48.3438 54.8188L48.0375 55.4313L47.8188 55.6063L47.3813 55.7813L47.0313 55.825H45.7188L45.2813 55.7375L44.9313 55.5188L44.6688 55.0813L44.45 54.3375L44.3625 53.5063L44.3188 52.4125V42.6563L44.3625 40.5563L44.4063 39.4625V39.3313L43.8375 39.6813L43.1813 40.075L41.3438 41.3L40.8188 41.6063L40.1625 41.8688L39.4625 42.0875L38.7188 42.175L38.4563 42.1313L38.1063 41.9125L37.8438 41.6063L37.5375 40.9938L37.275 40.2938L37.3188 39.9875L37.625 39.6813L38.2813 39.2438L39.2438 38.7188L40.1188 38.1938L41.0813 37.625L41.6063 37.275L42.175 36.8375L42.7 36.3563L43.05 36.05L43.7938 35.35L44.1875 34.9563L44.5813 34.475L45.1938 33.6438L45.7625 32.9L46.1125 32.5938L46.375 32.4625Z" fill="#C65F5F"/>
</svg>
