<svg width="310" height="300" viewBox="0 0 310 300" fill="none" xmlns="http://www.w3.org/2000/svg">
<g clip-path="url(#clip0_1_123)">
<ellipse cx="155" cy="150.301" rx="155.622" ry="150.301" fill="#F1F1F3"/>
<ellipse cx="155" cy="150.301" rx="133.835" ry="129.259" fill="#E7E8EE"/>
<ellipse cx="155" cy="150.301" rx="108.936" ry="105.21" fill="#D9DBE7"/>
<path d="M48.4217 78.7575C48.4217 81.2403 46.3176 83.3707 43.5743 83.3707C40.831 83.3707 38.7269 81.2403 38.7269 78.7575C38.7269 76.2747 40.831 74.1443 43.5743 74.1443C46.3176 74.1443 48.4217 76.2747 48.4217 78.7575Z" stroke="#E69534" stroke-width="4"/>
<path d="M187.607 8.50056L195.939 1.93023L196.409 12.3092L187.607 8.50056Z" stroke="#44875C" stroke-width="2"/>
<path d="M222.719 285.27C222.719 286.923 221.312 288.381 219.428 288.381C217.544 288.381 216.137 286.923 216.137 285.27C216.137 283.618 217.544 282.16 219.428 282.16C221.312 282.16 222.719 283.618 222.719 285.27Z" stroke="#8E7BA8" stroke-width="4"/>
<path d="M246.373 86.2726C246.373 87.9253 244.966 89.3828 243.082 89.3828C241.198 89.3828 239.791 87.9253 239.791 86.2726C239.791 84.6199 241.198 83.1624 243.082 83.1624C244.966 83.1624 246.373 84.6199 246.373 86.2726Z" stroke="#B75DA5" stroke-width="4"/>
<path d="M240.605 220.394L239.119 221.258L240.605 222.122L242.199 223.05L243.702 223.924L243.702 222.185L243.702 220.33L243.702 218.592L242.199 219.466L240.605 220.394ZM244.814 225.767L237.065 221.258L244.814 216.749L244.814 225.767Z" stroke="#7DA7D9" stroke-width="2"/>
<path d="M25.6105 217.782L18.6473 219.502L20.4291 212.777L25.6105 217.782Z" stroke="#CEA8B4" stroke-width="2"/>
<path d="M77.1888 280.762C77.805 280.96 78.4213 281.158 79.0562 281.363C79.0562 283.148 79.0562 284.934 79.0562 286.774C78.2346 286.774 77.4129 286.774 76.5663 286.774C76.5495 285.884 76.5374 284.995 76.5274 284.106C76.5202 283.611 76.5129 283.115 76.5055 282.605C76.5663 281.363 76.5663 281.363 77.1888 280.762Z" fill="#1AFFA1"/>
<path d="M79.6787 278.357C81.5275 278.357 83.3763 278.357 85.2811 278.357C85.2811 279.15 85.2811 279.944 85.2811 280.761C83.4323 280.761 81.5835 280.761 79.6787 280.761C79.6787 279.968 79.6787 279.174 79.6787 278.357Z" fill="#1EFBA2"/>
<path d="M70.3414 278.357C72.1902 278.357 74.039 278.357 75.9438 278.357C75.9438 279.15 75.9438 279.944 75.9438 280.761C74.095 280.761 72.2462 280.761 70.3414 280.761C70.3414 279.968 70.3414 279.174 70.3414 278.357Z" fill="#1AFEA1"/>
<path d="M76.5663 272.345C77.388 272.345 78.2097 272.345 79.0562 272.345C79.0562 274.13 79.0562 275.916 79.0562 277.756C78.2346 277.756 77.4129 277.756 76.5663 277.756C76.5663 275.97 76.5663 274.184 76.5663 272.345Z" fill="#1EFBA2"/>
<path d="M291.948 160.521C292.564 160.719 293.18 160.918 293.815 161.122C293.815 162.908 293.815 164.693 293.815 166.533C292.994 166.533 292.172 166.533 291.325 166.533C291.309 165.644 291.296 164.755 291.286 163.865C291.279 163.37 291.272 162.875 291.265 162.365C291.325 161.122 291.325 161.122 291.948 160.521Z" fill="#DB5D5F"/>
<path d="M285.1 158.116C286.949 158.116 288.798 158.116 290.703 158.116C290.703 158.91 290.703 159.703 290.703 160.521C288.854 160.521 287.005 160.521 285.1 160.521C285.1 159.727 285.1 158.934 285.1 158.116Z" fill="#D86164"/>
<path d="M294.438 158.116C296.287 158.116 298.135 158.116 300.04 158.116C300.04 158.91 300.04 159.703 300.04 160.521C298.191 160.521 296.343 160.521 294.438 160.521C294.438 159.727 294.438 158.934 294.438 158.116Z" fill="#DB5D5F"/>
<path d="M291.325 152.104C292.147 152.104 292.969 152.104 293.815 152.104C293.815 153.89 293.815 155.675 293.815 157.515C292.994 157.515 292.172 157.515 291.325 157.515C291.325 155.729 291.325 153.944 291.325 152.104Z" fill="#DB5E5F"/>
<path d="M95.241 54.7094C96.8843 54.7094 98.5277 54.7094 100.221 54.7094C100.221 55.503 100.221 56.2966 100.221 57.1142C98.5775 57.1142 96.9341 57.1142 95.241 57.1142C95.241 56.3206 95.241 55.527 95.241 54.7094Z" fill="#27AFF9"/>
<path d="M100.843 49.2986C101.665 49.2986 102.487 49.2986 103.333 49.2986C103.333 50.8858 103.333 52.4729 103.333 54.1082C102.512 54.1082 101.69 54.1082 100.843 54.1082C100.843 52.521 100.843 50.9339 100.843 49.2986Z" fill="#26AFF9"/>
<path d="M101.466 57.1143C102.082 57.3127 102.698 57.5111 103.333 57.7155C103.333 59.1042 103.333 60.493 103.333 61.9239C102.512 61.9239 101.69 61.9239 100.843 61.9239C100.817 60.5213 100.818 59.1181 100.843 57.7155C101.049 57.5171 101.254 57.3187 101.466 57.1143Z" fill="#2BAFF7"/>
<path d="M103.956 54.7094C105.394 54.7094 106.832 54.7094 108.313 54.7094C108.313 55.503 108.313 56.2966 108.313 57.1142C106.875 57.1142 105.437 57.1142 103.956 57.1142C103.956 56.3206 103.956 55.527 103.956 54.7094Z" fill="#2BAFF7"/>
<path d="M121.349 113.156H122.674L123.505 113.201L124.471 113.291L125.571 113.448L126.492 113.628L127.256 113.808L128.042 114.032L129.075 114.369L130.108 114.773L130.895 115.133L131.456 115.402L131.883 115.627L132.444 115.941L132.894 116.211L133.388 116.525L133.882 116.862L134.286 117.154L134.601 117.379L134.96 117.671L135.274 117.918L135.611 118.21L135.836 118.412L136.016 118.569L136.24 118.771L136.42 118.951L136.6 119.108L137.004 119.513L137.161 119.692L137.386 119.917L137.543 120.097L137.812 120.411L138.104 120.748L138.352 121.062L138.666 121.467L138.958 121.871L139.183 122.186L139.407 122.522L139.767 123.084L139.991 123.466L140.261 123.938L140.598 124.566L140.845 125.061L141.137 125.712L141.451 126.476L141.743 127.284L141.945 127.913L142.215 128.879L142.462 129.979L142.597 130.766L142.731 131.799L142.799 132.54L142.821 132.922L142.844 133.708V134.27L142.821 135.078L142.776 135.729L142.709 136.426L142.574 137.369L142.439 138.133L142.237 139.009L142.08 139.615L141.878 140.289L141.608 141.098L141.339 141.794L141.114 142.333L140.755 143.119L140.53 143.568L140.261 144.062L139.969 144.579L139.722 144.983L139.407 145.478L139.115 145.904L138.846 146.286L138.486 146.758L138.239 147.072L137.992 147.364L137.79 147.611L137.543 147.881L137.386 148.061L137.116 148.353L136.869 148.6L136.712 148.779L136.442 149.026L136.195 149.273L136.016 149.431L135.769 149.655L135.521 149.857L135.274 150.082L134.646 150.576L134.219 150.891L133.837 151.16L133.298 151.52L132.871 151.789L132.332 152.104L131.928 152.328L131.411 152.598L131.052 152.777L130.535 153.024L129.906 153.294L129.143 153.586L128.154 153.923L127.188 154.192L126.312 154.395L125.481 154.552L124.538 154.687L123.662 154.776L122.988 154.821L122.314 154.844H121.618L120.922 154.821L120.023 154.754L118.9 154.619L117.867 154.439L116.812 154.192L116.003 153.968L115.419 153.788L114.543 153.474L113.712 153.137L112.836 152.732L112.05 152.328L111.084 151.767L110.522 151.407L110.096 151.115L109.691 150.823L109.444 150.644L109.13 150.396L108.771 150.104L108.523 149.902L108.299 149.7L108.052 149.498L107.805 149.251L107.625 149.094L107.355 148.824L107.198 148.689L107.041 148.51L106.771 148.24L106.614 148.061L106.457 147.903L106.255 147.656L106.053 147.432L105.851 147.185L105.559 146.825L105.222 146.376L104.93 145.972L104.615 145.522L104.278 144.983L104.099 144.691L103.784 144.152L103.47 143.568L103.11 142.85L102.818 142.198L102.571 141.592L102.347 140.985L102.077 140.177L101.853 139.413L101.605 138.38L101.426 137.414L101.291 136.471L101.201 135.572L101.156 134.741V133.191L101.224 132.136L101.336 131.17L101.471 130.316L101.605 129.62L101.83 128.677L102.055 127.891L102.324 127.06L102.639 126.229L102.886 125.645L103.155 125.061L103.357 124.634L103.582 124.207L103.852 123.713L104.009 123.466L104.144 123.219L104.413 122.792L104.862 122.118L105.132 121.736L105.334 121.467L105.559 121.175L105.806 120.86L106.075 120.546L106.277 120.299L106.547 120.007L106.704 119.827L106.884 119.647L107.041 119.468L107.535 118.974H107.58L107.603 118.906L107.782 118.749L107.984 118.547L108.164 118.39L108.793 117.851L109.085 117.626L109.399 117.379L109.826 117.064L110.275 116.75L110.545 116.57L111.039 116.256L111.331 116.076L111.96 115.717L112.499 115.425L112.858 115.245L113.532 114.931L114.229 114.639L114.992 114.347L116.025 114.01L116.834 113.785L117.935 113.538L118.99 113.358L119.934 113.246L120.81 113.179L121.349 113.156Z" fill="#FFC82E"/>
<path d="M116.969 125.375H126.986L127.233 125.397L127.458 125.51L127.615 125.689L127.705 125.869L127.728 125.937V126.229L127.638 126.431L127.503 126.61L127.323 126.745L127.211 126.79L126.896 126.812H123.797L124.044 127.149L124.246 127.464L124.448 127.823L124.628 128.228L127.144 128.25L127.391 128.34L127.615 128.542L127.728 128.812V129.126L127.615 129.351L127.458 129.53L127.278 129.643L127.009 129.688L124.897 129.71L124.83 130.227L124.718 130.788L124.538 131.327L124.336 131.754L124.111 132.113L123.887 132.405L123.617 132.697L123.393 132.922L123.146 133.124L122.674 133.438L122.157 133.686L121.708 133.843L121.326 133.933L120.989 133.978L120.63 134H118.519L118.586 134.112L118.855 134.427L119.058 134.651L119.237 134.876L119.507 135.19L119.687 135.415L119.934 135.707L120.136 135.954L120.383 136.246L120.585 136.493L120.832 136.785L121.034 137.032L121.281 137.324L121.483 137.571L121.73 137.863L122.022 138.223L122.292 138.537L122.472 138.762L122.741 139.076L122.921 139.301L123.19 139.615L123.37 139.84L123.64 140.154L123.819 140.379L124.089 140.693L124.291 140.94L124.538 141.232L124.763 141.547L124.853 141.749V142.041L124.763 142.243L124.561 142.468L124.381 142.58L124.246 142.625H124.044L123.819 142.535L123.595 142.333L123.438 142.176L123.19 141.861L122.696 141.277L122.517 141.053L122.247 140.738L122.067 140.514L121.798 140.199L121.618 139.975L121.349 139.66L121.169 139.436L120.899 139.121L120.72 138.896L120.45 138.582L120.271 138.357L120.001 138.043L119.821 137.818L119.552 137.504L119.372 137.279L119.103 136.965L118.923 136.74L118.653 136.426L118.474 136.201L118.204 135.887L118.024 135.662L117.777 135.37L117.575 135.123L117.328 134.831L117.126 134.584L116.879 134.292L116.609 133.978L116.385 133.686L116.25 133.416V133.169L116.362 132.899L116.564 132.697L116.789 132.585L116.924 132.562H120.023L120.854 132.54L121.416 132.428L121.798 132.271L122.135 132.091L122.404 131.889L122.674 131.642L122.898 131.35L123.078 131.058L123.235 130.721L123.325 130.451L123.415 129.957L123.438 129.688H116.901L116.699 129.643L116.542 129.553L116.362 129.351L116.25 129.104V128.901L116.317 128.677L116.452 128.475L116.699 128.295L116.901 128.25H121.888L123.011 128.228V128.183L122.831 127.936L122.584 127.666L122.337 127.441L121.955 127.194L121.573 127.015L121.214 126.902L120.787 126.835L116.901 126.812L116.677 126.768L116.497 126.633L116.362 126.476L116.272 126.318L116.25 126.229V126.026L116.34 125.757L116.497 125.577L116.677 125.442L116.789 125.397L116.969 125.375Z" fill="white"/>
<path d="M116.587 133.865L116.654 133.888L116.812 134.067L117.059 134.359L117.148 134.449V134.494L117.238 134.539L117.485 134.854L117.688 135.078L117.912 135.37L117.979 135.438V135.482L118.047 135.505L118.249 135.752L118.271 135.819H118.316L118.361 135.909L118.429 135.977V136.021L118.496 136.044L118.743 136.358L118.878 136.516V136.561L118.945 136.583L119.192 136.897L119.305 137.01L119.372 137.122L119.574 137.347L119.709 137.526L119.754 137.549L119.799 137.639L119.911 137.751L120.203 138.11L120.36 138.29L120.652 138.649L120.81 138.829L121.102 139.188L121.259 139.368L121.506 139.683L121.573 139.75V139.795L121.641 139.817L121.888 140.132L122.022 140.289V140.334L122.09 140.356L122.314 140.648L122.359 140.671L122.404 140.761L122.472 140.828V140.873L122.539 140.896L122.764 141.188L122.809 141.21L122.876 141.322L123.078 141.547L123.28 141.816V141.861L123.348 141.884L123.482 142.063L123.572 142.153V142.221L123.482 142.176L123.325 142.041L123.168 141.839L122.966 141.592L122.696 141.277L122.517 141.053L122.247 140.738L122.067 140.514L121.798 140.199L121.618 139.975L121.349 139.66L121.169 139.436L120.899 139.121L120.72 138.896L120.45 138.582L120.271 138.357L120.001 138.043L119.821 137.818L119.552 137.504L119.372 137.279L119.103 136.965L118.923 136.74L118.653 136.426L118.474 136.201L118.204 135.887L118.024 135.662L117.777 135.37L117.575 135.123L117.328 134.831L117.126 134.584L116.879 134.292L116.609 133.978L116.587 133.865Z" fill="#FEE59B"/>
<circle cx="122" cy="134" r="18.4091" stroke="#FDD75D" stroke-width="5"/>
<rect x="99" y="168" width="44" height="10" rx="1" fill="#FFD345"/>
<rect x="99" y="188" width="44" height="10" rx="1" fill="#FFD345"/>
<rect x="110" y="168" width="33" height="10" rx="1" fill="#FFC82E"/>
<rect x="110" y="168" width="33" height="10" rx="1" fill="#FFC82E"/>
<rect x="110" y="188" width="33" height="10" rx="1" fill="#FFC82E"/>
<rect x="110" y="188" width="33" height="10" rx="1" fill="#FFC82E"/>
<rect x="103" y="158" width="44" height="10" rx="1" fill="#FFD345"/>
<rect x="103" y="178" width="44" height="10" rx="1" fill="#FFD345"/>
<rect x="161" y="126" width="26" height="49" rx="1" fill="#7FEA68"/>
<path d="M173.225 96.9483C173.626 96.4584 174.374 96.4584 174.775 96.9483L197.781 125.117C198.315 125.771 197.85 126.75 197.007 126.75H150.993C150.15 126.75 149.685 125.771 150.219 125.117L173.225 96.9483Z" fill="#7FEA68"/>
<rect x="161" y="178" width="26" height="4" rx="2" fill="#7FEA68"/>
<rect x="161" y="186" width="26" height="4" rx="2" fill="#7FEA68"/>
<rect x="161" y="194" width="26" height="4" rx="2" fill="#7FEA68"/>
<circle cx="190.5" cy="183.5" r="20.5" fill="white"/>
<path d="M183.1 192.355L190.5 184.955L197.9 192.355L199.355 190.9L191.955 183.5L199.355 176.1L197.9 174.645L190.5 182.045L183.1 174.645L181.645 176.1L189.045 183.5L181.645 190.9L183.1 192.355ZM190.506 202C187.949 202 185.544 201.515 183.291 200.545C181.04 199.573 179.081 198.255 177.414 196.59C175.748 194.925 174.429 192.968 173.457 190.719C172.486 188.47 172 186.066 172 183.506C172 180.946 172.486 178.541 173.457 176.291C174.428 174.04 175.744 172.081 177.406 170.414C179.068 168.748 181.026 167.429 183.279 166.457C185.532 165.486 187.937 165 190.494 165C193.051 165 195.456 165.486 197.709 166.457C199.96 167.428 201.919 168.745 203.586 170.408C205.252 172.072 206.571 174.029 207.543 176.281C208.514 178.532 209 180.937 209 183.494C209 186.051 208.515 188.456 207.545 190.709C206.574 192.962 205.256 194.921 203.59 196.586C201.923 198.251 199.967 199.57 197.719 200.543C195.472 201.516 193.067 202.001 190.506 202Z" fill="#FB4444"/>
</g>
<defs>
<clipPath id="clip0_1_123">
<rect width="310" height="300" fill="white"/>
</clipPath>
</defs>
</svg>
