<svg width="96" height="96" viewBox="0 0 96 96" fill="none" xmlns="http://www.w3.org/2000/svg">
<g clip-path="url(#clip0_1_760)">
<path d="M45.9844 0H50.4375L50.8125 0.140625L51.9844 0.609375L52.6875 0.984375L53.25 1.35938L53.8594 1.82812L54.3281 2.25L54.6562 2.57812L54.9375 2.8125L55.2188 3.14062L55.5 3.375L55.8281 3.75L93.9844 41.9062L94.5 42.5625L94.9688 43.2656L95.4375 44.1562L95.9062 45.4219L96 45.6094V50.1094L95.9062 50.1562L95.625 51L95.25 51.8438L94.9688 52.3594L94.5938 52.9219L94.125 53.5312L93.6094 54.0938L93.2812 54.4219L92.625 54.9375L91.9219 55.4062L90.8438 55.9688L89.5781 56.3906L88.6406 56.5781L87.6094 56.6719H85.9219V85.6875L85.8281 86.9531L85.5938 88.0781L85.3125 89.0156L84.7969 90.1875L84.2812 91.0781L83.8125 91.7344L83.4375 92.2031L82.875 92.8125L82.5938 93.0938H82.5V93.1875L81.9844 93.6094L81.1875 94.1719L80.2969 94.6875L79.5 95.0625L78.5625 95.3906L77.6719 95.625L76.7812 95.7656L76.2188 95.8125H60L59.4375 95.7188L58.9219 95.5312L58.4531 95.2031L57.9844 94.7344L57.6094 94.125L57.4219 93.5625L57.375 93.1406L57.3281 69.9375L57.1875 69.1406L56.9062 68.3906L56.5781 67.7812L56.2031 67.3125L55.9219 66.9844L55.3125 66.5156L54.4219 66.0469L53.8125 65.8594L53.25 65.7656H43.1719L42.375 65.9062L41.625 66.1875L41.0625 66.5156L40.6406 66.8438L40.2188 67.2188L39.7969 67.7812L39.4219 68.4375L39.1875 69.0938L39.0469 69.7031L39 70.2656L38.9531 93.375L38.7656 94.0781L38.4844 94.5938L37.9688 95.1562L37.5 95.4844L36.9375 95.7188L36.4219 95.8125H20.3438L19.2656 95.7188L18.0938 95.4844L17.1094 95.1562L16.2656 94.7812L15.4688 94.3594L14.7656 93.8906L14.1094 93.375L13.7812 93.0469L13.4062 92.7188L12.7969 92.0625L12.1406 91.1719L11.7188 90.4688L11.1562 89.2969L10.7812 88.1719L10.5469 87.0469L10.4531 86.2969L10.4062 85.4062V56.7656L10.4531 56.6719H8.67188L7.40625 56.5312L6.42188 56.2969L5.53125 55.9688L4.78125 55.5938L4.125 55.2188L3.32812 54.6094L2.71875 54.0469L2.10938 53.3906L1.54688 52.5938L1.07812 51.7969L0.65625 50.8125L0.375 49.8281L0.1875 48.75L0.140625 48.1406V47.4844L0.28125 46.2188L0.5625 45.0938L0.84375 44.3438L1.21875 43.5469L1.73438 42.75L2.10938 42.2344L2.625 41.6719L2.95312 41.2969L42 2.25L42.375 1.92188L43.0312 1.40625L43.6875 0.984375L44.5781 0.515625L45.7031 0.09375L45.9844 0ZM48.0938 5.4375L47.3906 5.53125L46.8281 5.71875L46.1719 6.14062L6.5625 45.75L6.23438 46.2188L6 46.7344L5.85938 47.3438V48.2812L6 48.8906L6.375 49.6406L6.9375 50.25L7.59375 50.6719L8.0625 50.8594L8.48438 50.9531L8.95312 51L13.6406 51.0469L14.25 51.1875L14.8594 51.5156L15.3281 51.9375L15.6094 52.2656L15.9375 52.9219L16.0312 53.25L16.0781 53.625L16.125 85.9688L16.3125 86.9062L16.6406 87.6562L16.9219 88.125L17.25 88.5469L17.8125 89.1094L18.2812 89.4375L19.0312 89.8125L19.5469 90L20.2969 90.1406L30 90.1875H33.1406L33.2812 90.1406V72.2344L33.3281 69.9375L33.4219 68.9531L33.6562 67.7812L33.8906 67.0312L34.1719 66.2812L34.5469 65.5312L34.8281 65.0156L35.2031 64.4531L35.7656 63.7031L36.1875 63.2812L36.5156 62.9062L36.9844 62.4844L37.5938 62.0156L38.2969 61.5469L39.5625 60.8906L40.7344 60.4688L41.7656 60.2344L42.8438 60.0938H53.4375L54.6094 60.2344L55.5938 60.4688L56.4375 60.75L57.2812 61.125L58.125 61.5938L58.6875 61.9688L59.3438 62.4844L59.9062 63L60.5156 63.6094L61.125 64.4062L61.5469 65.0625L61.9688 65.8125L62.3906 66.7969L62.6719 67.6875L62.8594 68.4844L63 69.7031L63.0469 90.1406H76.0312L76.7812 90L77.3438 89.8125L78.1406 89.3906L78.5625 89.0625L79.0312 88.6406L79.4062 88.1719L79.7812 87.5156L80.0156 86.9531L80.2031 86.1562L80.25 85.6406L80.2969 53.3906L80.5312 52.6406L80.8594 52.125L81.2812 51.6562L81.7969 51.3281L82.4062 51.0938L82.6406 51.0469L87.375 51L88.125 50.9062L88.6875 50.7188L89.3438 50.2969L89.7188 49.9688L90.1406 49.3594L90.375 48.8438L90.5156 48.1875V47.4375L90.375 46.7812L90 46.0312L89.6719 45.6094L89.2969 45.1875H89.2031L89.1094 45L88.7344 44.625L88.4531 44.3906L88.1719 44.0625L87.8438 43.7812L87.6094 43.5L87.2812 43.2188L87.0469 42.9375L86.7188 42.6562L86.4844 42.375L86.1562 42.0938L85.9219 41.8125L85.5938 41.5312L85.3594 41.25L85.0781 41.0156L84.7969 40.6875L84.5156 40.4531L84.2344 40.125L83.9531 39.8906L83.6719 39.5625L83.3906 39.3281L83.1094 39L82.8281 38.7656L82.5469 38.4375L82.2656 38.2031L81.9844 37.875L81.7031 37.6406L81.4219 37.3125L81.1406 37.0781L80.8594 36.75L80.5781 36.5156L80.2969 36.1875L80.0156 35.9531L79.7344 35.625L79.4531 35.3906L79.1719 35.0625L78.8906 34.8281L78.6094 34.5L78.3281 34.2656L78.0469 33.9375L77.7656 33.7031L77.4844 33.375L77.2031 33.1406L76.9219 32.8125L76.6406 32.5781L76.3594 32.25L76.0781 32.0156L75.7969 31.6875L75.5156 31.4531L75.2344 31.125L74.9531 30.8906L74.6719 30.5625L74.3906 30.3281L74.1094 30L73.8281 29.7656L73.5469 29.4375L73.2656 29.2031L72.9844 28.875L72.7031 28.6406L72.4219 28.3125L72.1406 28.0781L71.8594 27.75L71.5781 27.5156L71.2969 27.1875L71.0156 26.9531L70.7344 26.625L70.4531 26.3906L70.1719 26.0625L69.8906 25.8281L69.6094 25.5L69.3281 25.2656L69.0469 24.9375L68.7656 24.7031L68.4844 24.375L68.2031 24.1406L67.9219 23.8125L67.6406 23.5781L67.3594 23.25L67.0781 23.0156L66.7969 22.6875L66.5156 22.4531L66.2344 22.125L65.9531 21.8906L65.6719 21.5625L65.3906 21.3281L65.1094 21L64.8281 20.7656L64.5469 20.4375L64.2656 20.2031L63.9844 19.875L63.7031 19.6406L63.4219 19.3125L63.1406 19.0781L62.8594 18.75L62.5781 18.5156L62.2969 18.1875L62.0156 17.9531L61.7344 17.625L61.4531 17.3906L61.1719 17.0625L60.8906 16.8281L60.6094 16.5L60.3281 16.2656L60.0469 15.9375L59.7656 15.7031L59.4844 15.375L59.2031 15.1406L58.9219 14.8125L58.6406 14.5781L58.3594 14.25L58.0781 14.0156L57.7969 13.6875L57.5156 13.4531L57.2344 13.125L56.9531 12.8906L56.6719 12.5625L56.3906 12.3281L56.1094 12L55.8281 11.7656L55.5469 11.4375L55.2656 11.2031L54.9844 10.875L54.7031 10.6406L54.4219 10.3125L54.1406 10.0781L53.8594 9.75L53.5781 9.51562L53.2969 9.1875L53.0156 8.95312L52.7344 8.625L52.4531 8.39062L52.1719 8.0625L51.8906 7.82812L51.6094 7.5L51.4219 7.3125H51.3281L51.2344 7.125L50.6719 6.5625L50.2969 6.23438L49.6875 5.8125L49.125 5.57812L48.7031 5.48438L48.0938 5.4375Z" fill="black"/>
</g>
<defs>
<clipPath id="clip0_1_760">
<rect width="96" height="96" fill="white"/>
</clipPath>
</defs>
</svg>
