<svg width="100" height="100" viewBox="0 0 100 100" fill="none" xmlns="http://www.w3.org/2000/svg">
<path d="M51.8125 5.625H52.5625L53.4375 5.8125L54.6875 6.3125L56.125 7.0625L57.1875 7.6875L58.5625 8.5L61.4375 10.125L62.375 10.75L63.125 11.3125L63.75 11.875L64.25 12.5L64.625 13.25L64.8125 13.875V14.8125L64.625 15.5625L64.1875 16.625L63.6875 17.625L62.8125 19.3125L62.25 20.25L61.4375 21.6875L61 22.3125L60.875 22.5V22.6875L61.875 23.1875L62.9375 23.75L64.0625 24.5L64.875 25.125L65.6875 25.875L66.375 26.6875L66.9375 27.5L67.6875 28.6875L68.375 29.4375L69.5 30.25L70.5625 31.0625L71.4375 31.8125L72.125 32.375L72.875 33.0625L73.375 33.5L74.125 34.1875L74.875 34.9375L75.3125 35.4375L76.125 36.3125L76.6875 37L77.375 37.8125L78.25 39L79.0625 40.125L79.9375 41.5L80.8125 43.0625L81.75 44.9375L82.5625 46.875L83.5 49.625L83.875 51.125L84.375 53.75L84.625 55.5625L84.75 57.3125V60.6875L84.625 62.5L84.375 64.4375L83.875 66.9375L83.4375 68.6875L82.75 70.875L81.625 73.75L80.9375 75.25L80.0625 77.0625L79.3125 78.4375L78.6875 79.5625L77.5625 81.25L77.5 81.375L77.75 81.5L78.75 82.1875L79.5625 82.9375L80.125 83.5625L80.5625 84.1875L81.0625 85.125L81.375 86.0625L81.5 86.75V88.25L81.3125 89.25L81 90.125L80.4375 91.1875L79.8125 92L79.625 92.25H79.5L79.375 92.5L78.6875 93.0625L77.6875 93.625L76.875 93.875L75.625 94.0625L74.75 94.125L72.6875 94.1875H22.875L21.0625 94.125L19.75 93.9375L18.8125 93.625L18.1875 93.25L17.3125 92.5L16.625 91.6875L16 90.75L15.625 89.9375L15.3125 89L15.1875 88.4375V86.8125L15.4375 85.6875L15.75 84.8125L16.1875 84L16.8125 83.125L17.25 82.6875L18.25 81.9375L19.1875 81.4375L20.0625 81.1875L21.5 81L22.5 80.9375L26.375 80.875H48.875L50.1875 80.75L51.6875 80.3125L53 79.9375L55.0625 79.1875L56.25 78.625L57.75 77.75L59.0625 76.875L59.875 76.25L60.8125 75.375L61.125 74.9375L61.0625 74.6875L60.5 74.1875L59.5 73.6875L59.3125 73.625L58.5625 73.5625L54.4375 73.5L27.875 73.4375L26.8125 73.3125L26.0625 73L25.5 72.625L25.0625 72.1875L24.375 71.25L23.9375 70.375L23.6875 69.5L23.625 68.8125L23.8125 67.9375L24.125 67L24.6875 66.0625L25.125 65.5625L26 64.9375L26.75 64.625L27.3125 64.5L28 64.4375H58.6875L59.1875 64.3125L59.8125 64L60.8125 63.375L61.5625 63.0625L62.3125 62.9375H64.1875L65.6875 63.0625L65.875 62.875L65.9375 62.125L65.875 60.25L65.625 58.1875L65.25 56L64.625 53.5L64.0625 51.8125L63.5625 50.5L62.625 48.4375L61.875 47.0625L60.8125 45.3125L60.3125 44.5625L59.875 43.9375L59.625 43.6875V43.5625L59.375 43.5H57.4375L56.375 43.375L54.75 43L53.25 42.4375L52.625 43.8125L52 45L51.6875 45.6875L50.6875 47.875L50.25 48.875L49.8125 49.625L49.3125 50.625L48.5625 51.875L47.875 52.6875L47.3125 53.1875L46.4375 53.6875L45.1875 54.0625L44.6875 54.1875H43.8125L43.5 54.125L43.125 54.4375L42.5625 55.5L42 56.3125L41.375 56.9375L40.375 57.4375L39.5625 57.6875L38.875 57.8125H38.4375L37.5 57.5625L36.1875 56.9375L34.6875 56.0625L33.4375 55.3125L30.6875 53.6875L29.6875 53.125L28.625 52.5L27.75 51.875L27.0625 51.3125L26.625 50.875L26.1875 50.1875L25.9375 49.625L25.75 48.6875V48.0625L26 46.9375L26.6875 45.6875L26.8125 45.375V44.9375L26.375 43.75L26.125 42.625V40.75L26.3125 40.0625L26.8125 39L27.3125 38.1875L28 37.0625L28.4375 36.4375L29.8125 34.375L30.5 33.3125L30.9375 32.625L32.25 30.625L32.6875 29.9375L33.25 29.0625L33.875 28.125L34.5625 27L35 26.375L35.625 25.375L36.5625 24L37.1875 23.1875L37.25 23.0625H37.375V22.9375H37.5V22.8125L38.25 22.25L39 21.875L40.5 21.4375L40.9375 21.0625L41.875 19.625L43.875 16.25L44.75 14.75L45.5625 13.3125L46.5 11.6875L47.125 10.625L47.875 9.3125L48.5 8.1875L48.9375 7.5625L49.4375 6.875L50.0625 6.3125L50.5625 6L51.5 5.6875L51.8125 5.625ZM52.1875 9.1875L51.8125 9.75L51.5 10.375L51.0625 11.0625L50.3125 12.375L49.8125 13.3125L49.25 14.25L48.375 15.8125L47.75 16.875L47.0625 18.0625L46.25 19.4375L45.8125 20.125L45.4375 20.8125L44.75 21.9375L44.8125 22.1875L45.3125 22.625L46.0625 23.0625L47.8125 24.125L49.1875 24.9375L50.3125 25.6875L50.5625 25.625L51.25 25L52.375 24.3125L53.25 23.8125L53.9375 23.5L55.4375 23L56.375 22.75L56.8125 22.375L57.4375 21.25L58 20.375L58.4375 19.5L59.1875 18.125L59.8125 17L60.6875 15.5L61.0625 14.75L61.125 14.4375L60.875 14.0625L60.0625 13.5625L59.375 13.1875L58.0625 12.4375L57.125 11.875L55.625 11.0625L54.125 10.1875L52.4375 9.25L52.1875 9.1875ZM40.75 24.875L40.375 25.125L39.6875 26L39.25 26.5L38.75 27.3125L38.25 28.0625L37.8125 28.6875L37.125 29.8125L36.375 30.9375L35.8125 31.8125L34.8125 33.375L34.1875 34.25L33.4375 35.4375L32.875 36.3125L32.375 37.0625L31.4375 38.5625L30.8125 39.5L30.25 40.4375L29.75 41.4375L29.625 41.75V42.25L29.875 42.8125L30.3125 43.3125L30.9375 43.8125L32 44.4375L33.5625 45.3125L34.625 45.9375L35.8125 46.625L37.1875 47.375L38.1875 47.9375L39.3125 48.5625L40.6875 49.3125L41.6875 49.8125L42.8125 50.4375L43.25 50.6875L43.875 50.8125L44.5 50.75L44.875 50.5L45.5 49.8125L46 49.125L46.9375 47.25L47.875 45.1875L48.875 43.1875L50 40.75L50.125 40.1875L49.875 39.5625L49.0625 38.25L48.5625 37.25L48.125 36.25L47.8125 35.0625L47.6875 34.3125V31.9375L47.875 30.9375L48.3125 29.375L48.4375 29L48.375 28.6875L47.25 27.9375L45.8125 27.125L45.1875 26.75L44.0625 26.125L42.6875 25.375L41.4375 24.9375L40.75 24.875ZM57.5 26.1875L56.5625 26.3125L55.5625 26.5625L54.5 27.0625L53.6875 27.625V27.75L53.4375 27.875L53 28.25L52.3125 29.1875L51.75 30.25L51.3125 31.4375L51.1875 32.1875L51.125 32.875V33.5L51.25 34.375L51.5625 35.375L52.0625 36.375L52.5 37L53.25 37.8125L54 38.5L54.625 38.9375L55.6875 39.4375L56.5625 39.75L57.5625 39.9375H58.25L59.3125 39.75L60.3125 39.4375L61.75 38.75L62.625 38.0625L63.125 37.5625L63.8125 36.6875L64.3125 35.6875L64.5625 35L64.75 34.4375L64.875 33.5625V32.375L64.6875 31.3125L64.3125 30.25L63.8125 29.3125L63.25 28.5625L62.375 27.6875L61.375 27L60.4375 26.5625L59.4375 26.3125L58.0625 26.1875H57.5ZM68.5 34.125L68.375 34.1875L68.125 35.6875L67.6875 36.9375L67.125 38.125L66.125 39.625L65.4375 40.4375L65.1875 40.75L64.5 41.3125L63.625 41.875L63.0625 42.25L63.125 42.5L63.6875 43.125L64.75 44.75L65.5625 46.1875L66.5 48.125L67.4375 50.5L67.9375 52L68.5625 54.1875L68.9375 56L69.1875 57.75L69.375 59.625L69.4375 61.125V64.125L69.3125 65.875L68.9375 67.9375L68.625 69.1875L68.125 70.75L67.4375 72.3125L66.9375 73.3125L66.4375 74.1875L65.875 75.0625L65.25 75.9375L64.4375 76.875V77H64.3125L63.875 77.5L62.375 79L61.375 79.6875L60.125 80.4375L60.0625 80.625L59.9375 80.6875L61 80.875L68.0625 80.9375H72.5L73.3125 80.8125L73.75 80.4375L74.25 79.5625L74.875 78.6875L75.8125 77.0625L76.375 76.0625L77 74.9375L77.9375 73.0625L78.8125 71.0625L79.6875 68.625L80.3125 66.25L80.75 64.25L81 62.625L81.125 61.25L81.1875 59.8125V56.9375L81 55.125L80.6875 53.375L80.25 51.4375L79.6875 49.5625L79 47.6875L78.4375 46.375L77.875 45.1875L77.0625 43.75L76.375 42.625L75.6875 41.625L74.9375 40.625L74.0625 39.5625L73.3125 38.6875L72.8125 38.1875L72.375 37.6875L71.9375 37.25H71.8125L71.75 37.0625L71.25 36.625L69.75 35.125L68.75 34.25H68.625V34.125H68.5ZM29.4375 47.5625L29.3125 47.8125L29.375 48.25L29.75 48.75L30.1875 49.125L31.125 49.75L32.625 50.625L33.875 51.3125L34.6875 51.8125L36.375 52.75L37.9375 53.6875L38.75 54.0625H39.125L39.4375 53.6875L39.5625 53.0625L39.4375 52.75L38.3125 52.125L37.0625 51.375L36.375 51L34.8125 50.1875L33.8125 49.625L32.6875 49L31.625 48.375L30.625 47.875L30 47.625L29.4375 47.5625ZM62.6875 66.5L62.125 66.6875L61.75 67L61.1875 67.875L60.9375 68.4375L60.875 68.75L61 69.5625L61.25 70.1875L61.8125 70.8125L62.375 71.25L63.125 71.625L63.5 71.5625V71.4375L63.75 71.3125L64.5625 69.9375L64.875 69.3125L65.25 67.75V67.1875L64.9375 66.875L64.375 66.625L63.6875 66.5H62.6875ZM27.625 67.875L27.5 67.9375L27.4375 68.125V69.125L27.5625 69.8125L28.3125 69.9375H51.25L57.125 69.875L57.4375 69.8125L57.5 69.6875L57.5625 69V68.125L57.25 68L56.125 67.9375L27.625 67.875ZM22.625 84.4375L21 84.5625L20.375 84.75L20 85L19.4375 85.625L18.9375 86.4375L18.75 87L18.6875 87.875L18.9375 88.8125L19.3125 89.4375L19.875 90.0625L20.5 90.4375L20.8125 90.5625L21.75 90.6875H72.125L74.875 90.625L75.625 90.5L76.4375 90.1875L77 89.75L77.5 89.125L77.875 88.3125V87L77.5625 86.1875L77.1875 85.5625L76.5625 84.9375L75.8125 84.625L75 84.5L68.4375 84.4375H22.625Z" fill="#FEFEFE"/>
<path d="M71.625 44.125H72.25L72.75 44.375L73.25 44.8125L73.8125 45.625L74.3125 46.625L74.9375 48L75.75 50.125L76.5 52.75L76.875 54.4375L77.1875 56.625L77.25 57.8125V61.875L77.125 63.3125L76.875 65L76.4375 67.125L75.875 69.0625L75.25 70.875L74.4375 72.6875L73.9375 73.6875L73.375 74.5625L73.125 74.8125L72.8125 74.875L72.1875 74.75L71.375 74.4375L70.75 74.0625L70.375 73.6875V73L70.75 72L71.625 69.9375L72.5 67.5L72.875 66.25L73.3125 64L73.5625 62.0625L73.625 60.3125V59.4375L73.5625 57.6875L73.375 55.6875L73.0625 54.125L72.5625 52.25L72.1875 51.125L71.5 49.375L70.5625 47.125L70.0625 45.9375L70 45.3125L70.25 44.9375L71.25 44.3125L71.625 44.125Z" fill="white"/>
<path d="M57.8125 27.9375L58.875 28L59.9375 28.25L61 28.8125L61.6875 29.375L62.25 30.0625L62.6875 30.9375L62.9375 31.9375L63 33.0625L62.9375 34.1875L62.75 34.9375L62.5 35.5625L61.6875 36.625L61.25 37L60.4375 37.5L59.5625 37.8125L58.9375 37.9375L58.3125 38H57.4375L56.6875 37.875L55.875 37.625L55.125 37.25L54.5 36.6875L53.875 35.875L53.4375 35.125L53.125 34.25L53 33.5625V32.1875L53.25 31.3125L53.625 30.5625L54.25 29.6875L55.0625 28.9375L55.75 28.5L56.625 28.125L57.125 28L57.8125 27.9375ZM57.4375 31.5625L57.0625 31.75L56.75 32.125L56.625 32.5625V33.25L56.875 33.875L57.375 34.4375L57.625 34.5625H58.3125L58.875 34.3125L59.3125 33.8125L59.4375 33.5625V32.625L59.125 32.125L58.75 31.8125L58.125 31.5625H57.4375Z" fill="white"/>
</svg>
