<svg width="80" height="80" viewBox="0 0 80 80" fill="none" xmlns="http://www.w3.org/2000/svg">
<path d="M39.6094 0H40.3906L40.9766 0.3125L41.7969 0.9375L42.4219 1.44531L42.9688 1.875L43.5156 2.34375L43.9062 2.65625L44.7656 3.35938L45.3906 3.86719L45.7422 4.14062L46.2891 4.57031L46.9531 5.07812L48.0469 5.89844L48.75 6.40625L49.4141 6.875L49.8828 7.1875L50.5469 7.65625L50.8594 7.96875L51.0938 8.4375L51.1328 8.59375V9.17969L50.9766 9.64844L51.0156 9.80469L51.5625 10.1172L52.0703 10.4297L53.0859 11.0156L53.9844 11.5234L54.1797 11.6016L54.6094 11.1328L55.0391 10.8984L55.3906 10.8203H55.7031L56.1719 10.9375L56.5625 11.1719L56.875 11.5234L57.0703 11.9141L57.1484 12.2266L57.1094 12.7344L57.0312 13.0859L58.1641 13.6328L59.1406 14.0625L60.3125 14.5703L60.5469 14.6484L60.5859 14.4922L60.8594 14.1406L61.2109 13.8672L61.6406 13.7109L61.9922 13.6719L62.6562 13.8281L64.3359 14.4531L66.1328 15.0781L67.8516 15.625L70.1562 16.2891L71.7578 16.7188L74.4141 17.3438L75.3906 17.5781L75.7422 17.7344L76.0547 17.9688L76.2891 18.2422L76.4844 18.6719L76.5234 18.8672V39.9609L76.4453 41.0547L76.2891 42.1875L76.0938 43.1641L75.8203 44.2969L75.4688 45.4688L75 46.7969L74.4922 48.0469L73.9844 49.1797L73.2031 50.7812L72.5391 52.0312L71.9922 52.9688L71.3672 53.9844L70.5078 55.2734L70.1562 55.8203L69.5312 56.7578L69.1016 57.3828L68.5156 58.2422L68.0859 58.8672L67.5781 59.5703L67.1484 60.1172L66.7578 60.625L66.2891 61.2109L65.8594 61.7578L65.3906 62.3047L65.0391 62.7344L64.5703 63.2812L64.0625 63.8672L63.6719 64.2969L63.3984 64.6094L62.9688 65.0781L62.6953 65.3906L62.4219 65.6641L62.1484 65.9766L61.875 66.25L61.6016 66.5625L59.1406 69.0234L58.8281 69.2969L58.4766 69.6484L58.1641 69.9219L57.5391 70.5078L57.2266 70.7812L56.8359 71.1328L56.4062 71.4844L55.9766 71.875L55.1172 72.5781L54.4531 73.125L53.7891 73.6328L53.0859 74.1797L51.6797 75.1953L50.1562 76.2109L49.3359 76.7188L48.4766 77.2266L47.3828 77.8125L46.4844 78.2812L45.1562 78.8672L43.8281 79.3359L42.5781 79.6875L41.1719 79.9609L40.9375 80H39.0625L37.2656 79.6484L36.2891 79.375L35.0391 78.9453L33.8672 78.4375L32.8906 77.9688L31.9922 77.5L31.0547 76.9531L30.1953 76.4453L28.9453 75.625L28.2031 75.1172L27.5 74.6094L26.7578 74.0625L25.6641 73.2031L25.0391 72.6953L24.6094 72.3438L24.1016 71.9141L23.6719 71.5625L23.2031 71.1328L22.7734 70.7812L22.1484 70.1953L21.6797 69.7656L21.0547 69.1797L20.3906 68.5547L18.2031 66.3672L17.9297 66.0547L17.6562 65.7812L17.3828 65.4688L17.0703 65.1562L16.7969 64.8438L16.4453 64.4531L16.1719 64.1406L15.8203 63.75L15.3516 63.2031L14.9219 62.6953L14.4531 62.1484L14.1406 61.7578L13.6328 61.1328L12.7734 60.0391L12.3047 59.4141L11.9141 58.9062L11.4062 58.2031L10.9375 57.5391L10.5469 56.9922L9.53125 55.4688L8.98438 54.6094L8.39844 53.6719L7.8125 52.6562L7.42188 51.9531L6.83594 50.8594L6.44531 50.1172L5.9375 49.0234L5.50781 48.0859L4.96094 46.7188L4.49219 45.3906L4.10156 44.0625L3.78906 42.6953L3.59375 41.5234L3.51562 40.8203L3.47656 40.2344V18.7891L3.67188 18.2812L4.02344 17.8906L4.21875 17.7344L4.57031 17.5781L7.26562 16.9531L9.41406 16.4062L11.4844 15.8203L13.3594 15.2344L14.7656 14.7656L16.3281 14.2188L18.2422 13.4766L19.375 13.0078L20.5469 12.5L21.5625 12.0312L23.5156 11.0938L25.5078 10.0391L26.4453 9.49219L27.4609 8.90625L28.3203 8.35938L29.2578 7.77344L30.4688 6.95312L31.0156 6.5625L31.6797 6.09375L32.4219 5.54688L33.2422 4.92188L33.75 4.53125L34.1406 4.21875L34.6875 3.78906L35.3516 3.24219L35.9766 2.73438L36.4062 2.38281L37.0312 1.875L37.4609 1.52344L38.0859 1.01562L38.8672 0.429688L39.3359 0.117188L39.6094 0Z" fill="#F77A13"/>
<path d="M39.9219 3.55469L40.1172 3.59375L40.5078 3.90625L41.1328 4.41406L41.5625 4.76562L42.2266 5.3125L43.0859 6.01562L43.6719 6.48438L44.2188 6.91406L44.9219 7.46094L45.6641 8.00781L46.4844 8.63281L47.2266 9.14062L47.9297 9.64844L48.8281 10.2344L49.2188 10.3906L49.6875 10.4297L50.1953 10.3125L50.625 10.0391L50.8594 9.76562L50.9375 9.6875L51.0938 9.84375L51.875 10.3125L52.8125 10.8594L53.6328 11.3281L54.1016 11.6016L54.2578 11.5234L54.5312 11.2109L54.8828 10.9766L55.1953 10.8594L55.3906 10.8203H55.7031L56.1719 10.9375L56.5625 11.1719L56.875 11.5234L57.0703 11.9141L57.1484 12.2266L57.1094 12.7344L57.0312 13.0859L58.1641 13.6328L59.1406 14.0625L60.3125 14.5703L60.5078 14.6484L60.4688 14.8828V15.625L60.6641 16.0938L60.9375 16.4062L61.2891 16.6406L63.125 17.3438L64.2578 17.7344L66.3672 18.4375L68.2031 18.9844L70.625 19.6484L72.0312 20L73.3203 20.3125L73.3984 20.3516V40.0391L73.3203 40.9766L73.0859 42.3828L72.7734 43.6328L72.3828 44.8828L71.9141 46.1328L71.5234 47.0703L71.1328 47.9688L70.1953 49.8438L69.6875 50.7422L69.1406 51.7188L68.2031 53.2422L68.0469 53.4766H68.0078L67.9688 50.4688L67.9297 49.4922L67.8125 48.3984L67.5781 47.2656L67.3438 46.4453L67.0703 45.7031L66.5625 44.6484L66.0547 43.8281L65.5469 43.1641L65.0391 42.5781L64.4531 41.9922L64.0234 41.6406L63.4766 41.2109L62.8125 40.7422L62.0703 40.3125L61.7578 40.1172L61.8359 39.9219L62.1484 39.3359L62.5 38.5156L62.8125 37.5781L63.0078 36.7578L63.125 35.9766L63.1641 35.5078V34.375L63.0469 33.3594L62.8516 32.4219L62.6172 31.6406L62.3047 30.8594L61.875 30L61.4062 29.2578L60.8984 28.5938L60.4297 28.0469L59.9219 27.5391L59.4922 27.1875L58.8281 26.6797L58.0469 26.2109L57.4609 25.8984L56.4844 25.5078L55.7422 25.2734L54.7656 25.0781L54.1406 25H52.3047L51.25 25.1562L50.4297 25.3516L49.6094 25.625L48.8281 25.9766L48.125 26.3672L47.4219 26.8359L46.9141 27.2266L46.4844 27.6172L46.1719 27.8906L45.625 28.4766L45.1172 29.1406L44.7266 29.7266L44.375 30.3516L44.0234 31.0938L43.7109 31.9531L43.4375 33.0469L43.2812 34.3359V35.5469L43.3984 36.5625L43.6328 37.6172L43.9453 38.5547L44.2578 39.2578L44.6484 40L44.6094 40.1562L43.9453 40.5469L43.0078 41.1719L42.5 41.5625L41.9922 41.9922L41.0156 42.9688L40.5078 43.6328L40.0391 44.3359H39.9609L39.5703 43.75L39.1016 43.125L38.6719 42.6562L38.3984 42.3438L37.8125 41.7969L37.2656 41.3672L36.5625 40.8594L35.8594 40.4297L35.3125 40.1172L35.3906 39.9219L35.8594 39.0234L36.2109 38.125L36.4844 37.1484L36.6406 36.3281L36.7188 35.6641V34.2578L36.6016 33.2812L36.3672 32.2266L36.0547 31.2891L35.625 30.3516L35.1562 29.5312L34.6875 28.8672L34.2578 28.3594L33.8281 27.8906L33.3594 27.4219L32.8125 26.9922L32.2656 26.6016L31.6797 26.25L31.0156 25.8984L30.2734 25.5859L29.2969 25.2734L28.3203 25.0781L27.7344 25H25.8594L24.8047 25.1562L23.8672 25.3906L23.0859 25.6641L22.3828 25.9766L21.6797 26.3672L21.2109 26.6797L20.625 27.1094L20.1172 27.5391L19.6094 28.0078L19.2188 28.4375L18.7109 29.1016L18.3203 29.6875L17.8516 30.5078L17.4609 31.4062L17.1094 32.5391L16.9141 33.5938L16.8359 34.4922V35.3516L16.9141 36.25L17.0703 37.1094L17.2656 37.8516L17.5391 38.6328L17.9688 39.5703L18.2422 40.0391L18.2031 40.1562L17.5781 40.5078L16.6406 41.1328L16.1328 41.5234L15.625 41.9531L15 42.5391L14.5703 43.0078L14.0625 43.6719L13.6719 44.2578L13.2812 44.9609L12.9297 45.7031L12.5781 46.6797L12.3047 47.7734L12.1484 48.75L12.0703 49.6484L12.0312 51.3281V53.4375H11.9141L11.3281 52.5L10.8594 51.7188L10.3906 50.8984L9.92188 50.0391L9.45312 49.1406L9.14062 48.5156L8.67188 47.5391L8.125 46.25L7.73438 45.2344L7.34375 44.0234L7.03125 42.8906L6.75781 41.5625L6.64062 40.6641L6.60156 40.1172V20.3516L7.30469 20.1562L10.3906 19.375L12.1484 18.8672L13.8281 18.3594L16.2891 17.5391L17.8906 16.9531L19.375 16.3672L20.9766 15.7031L22.4609 15.0391L23.3984 14.6094L25.6641 13.4766L26.5234 13.0078L27.4609 12.5L28.3984 11.9531L29.2578 11.4453L30.1953 10.8594L31.0547 10.3125L32.3828 9.41406L33.7109 8.47656L35.1172 7.42188L35.8203 6.875L36.3672 6.44531L37.0312 5.89844L37.5781 5.46875L38.0859 5.03906L38.6328 4.60938L39.1406 4.17969L39.6875 3.75L39.9219 3.55469Z" fill="#F8A412"/>
<path d="M46.6797 42.5391L46.875 42.5781L47.3047 42.9297L47.8906 43.3203L48.5547 43.7109L49.375 44.1016L50.2344 44.4141L50.9766 44.6094L51.7969 44.7656L52.4219 44.8438H53.9844L55.0781 44.6875L56.0547 44.4531L56.9531 44.1406L57.5781 43.8672L58.3594 43.4375L59.0625 42.9688L59.6094 42.5391L59.8047 42.5781L60.625 43.0078L61.3672 43.4766L61.8359 43.8281L62.2656 44.1797L62.8125 44.6875L63.0859 45L63.5938 45.6641L64.0234 46.4062L64.3359 47.1484L64.5703 47.8516L64.7656 48.7891L64.8828 50V57.8125L64.8047 58.0859L64.4141 58.5547L63.9844 59.1016L62.9688 60.3516L62.0312 61.4453L61.7578 61.7578L61.4062 62.1484L61.1328 62.4609L60.7812 62.8516L60.5078 63.1641L59.2578 64.4922L58.75 65L58.4766 65.3125L57.7344 66.0547L57.4219 66.3281L56.7578 66.9922L56.4453 67.2656L56.0938 67.6172L55.7812 67.8906L55.2734 68.3594L54.7266 68.8281L54.3359 69.1797L53.9062 69.5312L53.3594 70L52.8125 70.4297L52.3828 70.7812L51.875 71.1719L51.4844 71.4844L51.4062 71.3281L51.3672 64.6094L51.25 63.5938L51.0547 62.6953L50.8203 61.9531L50.4688 61.1328L50.0781 60.4297L49.6875 59.8828L49.3359 59.4531L48.8672 58.9453L48.4375 58.5547L47.9297 58.1641L47.3438 57.7734L46.9141 57.5L46.9531 57.3438L47.2266 56.7578L47.5391 55.8203L47.7344 54.8828L47.8125 54.1016V53.4766L47.7344 52.6172L47.5391 51.6797L47.2656 50.8594L46.7578 49.8047L46.2891 49.1016L45.8594 48.5938L45.5859 48.2812L45.2344 47.9297L44.8047 47.5781L44.2578 47.1875L43.6719 46.8359L42.8125 46.4453L42.5391 46.3281L42.5 46.25L42.8906 45.625L43.3594 45L43.9453 44.375L44.3359 44.0234L45.1172 43.4375L45.8984 42.9688L46.6797 42.5391Z" fill="#DDEBFD"/>
<path d="M20.2734 42.5391L20.4297 42.5781L20.9766 43.0078L21.7578 43.5156L22.7344 44.0234L23.5547 44.3359L24.3359 44.5703L25.3125 44.7656L25.8984 44.8438H27.5781L28.6328 44.6875L29.6094 44.4531L30.5078 44.1406L31.2109 43.8281L32.0312 43.3594L32.6172 42.9688L33.0469 42.6562L33.1641 42.5391L33.3594 42.5781L34.1016 42.9688L34.7266 43.3594L35.2734 43.75L35.6641 44.0625L36.0547 44.4141L36.6406 45L37.1094 45.625L37.5 46.25L37.4219 46.3672L36.5625 46.7188L35.8594 47.1094L35.1562 47.6172L34.6875 48.0469L34.4141 48.2812L34.1406 48.5938L33.7891 48.9844L33.3203 49.6875L32.9688 50.3125L32.6562 51.0547L32.4219 51.7969L32.2656 52.5781L32.1875 53.3203V54.2969L32.3047 55.1953L32.5 55.9766L32.7734 56.7578L33.0859 57.3828L33.0078 57.5391L32.0703 58.1641L31.6406 58.5156L31.25 58.8672L30.9766 59.1016L30.7031 59.4141L30.3516 59.8047L30 60.3125L29.6875 60.8203L29.375 61.4453L29.1016 62.1484L28.8672 62.9688L28.7109 63.7891L28.6328 64.5312L28.5938 65.625V71.4062H28.4375L27.7344 70.8594L27.1875 70.4297L26.7188 70.0391L26.2891 69.6875L25.1953 68.75L24.6875 68.2812L24.2578 67.9297L23.9062 67.5781L23.5938 67.3047L23.125 66.8359L22.8125 66.5625L21.875 65.625L21.6016 65.3906L21.3281 65.0781L20.4688 64.2188L20.1953 63.9062L19.6875 63.3984L19.4141 63.0859L19.0625 62.6953V62.6172L18.9453 62.5781L18.5938 62.1484L18.2812 61.8359L17.9297 61.4062L17.5781 61.0156L17.2266 60.5859L16.7578 60.0391L16.4453 59.6484L15.9375 59.0234L15.5469 58.5156L15.1953 58.0469L15.1172 57.9297V50.0781L15.1953 49.0625L15.3906 48.0078L15.6641 47.1094L16.0156 46.3281L16.3281 45.7812L16.7188 45.2344L17.1875 44.6875L17.6953 44.1797L18.2422 43.75L18.7891 43.3594L19.375 43.0078L20.2734 42.5391Z" fill="#B12828"/>
<path d="M35.0391 59.9219L35.2344 59.9609L35.7812 60.3516L36.4844 60.7422L37.0703 61.0156L37.8906 61.2891L38.8281 61.4844L39.6094 61.5625H40.4297L41.2109 61.4844L42.1094 61.2891L42.8125 61.0547L43.4375 60.7812L44.1406 60.3906L44.6094 60.0781L44.8047 59.9219L45 59.9609L45.7422 60.3906L46.3672 60.8594L46.875 61.3281L47.3828 61.9531L47.7344 62.5781L48.0469 63.3594L48.2422 64.2578L48.3203 65.0781V73.6328L47.9297 73.9062L47.3828 74.2188L46.6406 74.6484L45.625 75.1953L44.6484 75.6641L43.3984 76.1719L42.3047 76.5234L41.4844 76.7188L40.8203 76.8359L40.3906 76.875H39.5703L38.8672 76.7969L37.9688 76.6016L37.0312 76.3281L36.0547 75.9766L35 75.5078L34.0234 75.0391L32.5 74.1797L31.875 73.7891L31.6797 73.6328V64.8828L31.7578 64.1797L31.9531 63.3594L32.1875 62.7344L32.5391 62.0703L33.0078 61.4453L33.5547 60.8984L34.2578 60.3906L34.9219 60L35.0391 59.9219Z" fill="#FFCD69"/>
<path d="M52.9297 28.0469H53.4766L54.2578 28.125L54.8828 28.2422L55.8203 28.5547L56.6406 28.9453L57.1094 29.2578L57.6172 29.6484L58.0859 30.0781L58.3594 30.3516L58.7891 30.8984L59.1797 31.4844L59.4922 32.1094L59.7266 32.6953L59.9219 33.3594L60.0391 33.9844L60.0781 34.3359V35.5859L59.9219 36.4844L59.6875 37.2656L59.3359 38.0859L58.8672 38.8672L58.5156 39.2969L58.1641 39.6875L57.6953 40.1562L57.0703 40.625L56.4062 41.0156L55.8203 41.2891L55 41.5625L54.5312 41.6797L53.5938 41.7969H52.7734L51.9141 41.6797L51.0156 41.4453L50.2734 41.1328L49.7266 40.8594L49.1016 40.4297L48.5938 40L47.9688 39.375L47.5781 38.8672L47.1484 38.1641L46.7969 37.4219L46.5625 36.6797L46.4062 35.9375L46.3281 35.1953V34.6875L46.4062 33.8672L46.6016 33.0078L46.875 32.2266L47.3438 31.3281L47.7344 30.7812L48.0469 30.3906L48.4375 29.9609L48.75 29.6875L49.2969 29.2578L49.8828 28.9062L50.5078 28.5938L51.25 28.3203L52.1484 28.125L52.9297 28.0469Z" fill="#FDDBD1"/>
<path d="M26.5234 28.0469H27.0703L27.8125 28.125L28.5938 28.2812L29.375 28.5547L30.1172 28.9062L30.7422 29.2969L31.1719 29.6484L31.6406 30.0781L31.9922 30.4297L32.3828 30.9375L32.7344 31.4844L33.0859 32.1484L33.3594 32.8906L33.5547 33.6719L33.6328 34.2578L33.6719 35L33.5938 35.8984L33.4375 36.6797L33.1641 37.5L32.8125 38.2422L32.4219 38.8672L32.1094 39.2578L31.7578 39.6484L31.6016 39.8438L31.2891 40.1172L30.7422 40.5469L30.1172 40.9375L29.2969 41.3281L28.5547 41.5625L27.8516 41.7188L27.1875 41.7969H26.3672L25.4688 41.6797L24.5703 41.4453L23.8281 41.1328L23.1641 40.7812L22.6172 40.3906L22.1094 39.9609L21.5625 39.4141L21.1719 38.9062L20.7812 38.2812L20.4688 37.6562L20.1953 36.9531L20 36.1328L19.9219 35.625L19.8828 35.1172V34.7266L19.9609 33.9453L20.1562 33.0469L20.4297 32.2656L20.7422 31.6406L21.0156 31.1719L21.3281 30.7422L21.6406 30.3516L21.875 30.0781H21.9531V30L22.2656 29.7266L22.8125 29.2969L23.5156 28.8672L24.2578 28.5156L24.9609 28.2812L25.7031 28.125L26.5234 28.0469Z" fill="#FDDBD1"/>
<path d="M39.5312 49.0234H40.4688L41.1328 49.1406L41.7578 49.3359L42.3828 49.6484L42.8516 49.9609L43.2422 50.3125L43.7109 50.7812L44.1016 51.3672L44.4141 51.9922L44.6484 52.7734L44.7266 53.2422V54.2578L44.6094 54.9219L44.4141 55.5078L44.1016 56.1719L43.75 56.6797L43.2812 57.1875L42.8906 57.5391L42.3438 57.8906L41.6797 58.2031L41.0547 58.3984L40.2734 58.5156H39.7266L38.9453 58.3984L38.3203 58.2031L37.8516 58.0078L37.4609 57.7734L37.0312 57.4609L36.5625 57.0312L36.1328 56.5234L35.8203 56.0156L35.5469 55.4297L35.3516 54.8047L35.2734 54.3359L35.2344 53.6328L35.3125 52.8906L35.5469 52.0703L35.8594 51.4062L36.1719 50.9375L36.5234 50.5078L36.875 50.1562L37.5391 49.6875L38.125 49.375L38.8281 49.1406L39.5312 49.0234Z" fill="#FDDAD0"/>
<path d="M55.3906 10.8203H55.7031L56.1719 10.9375L56.5625 11.1719L56.875 11.5234L57.0703 11.9141L57.1484 12.2266L57.1094 12.7344L56.9922 13.125L56.6797 13.5156L56.2891 13.7891L55.8594 13.9453H55.3516L54.8438 13.7891L54.5312 13.5547L54.2188 13.2031L54.0234 12.6953V12.1484L54.1406 11.7578L54.2969 11.4453L54.6094 11.1328L55.0391 10.8984L55.3906 10.8203Z" fill="#F77A13"/>
<path d="M31.7188 64.4531H31.7578L31.7969 68.1641V69.9609L31.7578 72.3047L31.7188 73.6328H31.6797V64.8828L31.7188 64.4531Z" fill="#FD7D79"/>
<path d="M20.0391 33.5156H20.0781L20.0391 34.0234L20 34.8828L20.0391 35.7422L20.0781 36.3281H20.0391L19.9219 35.625L19.8828 35.1172V34.7266L19.9609 33.9453L20.0391 33.5156Z" fill="#FD7D79"/>
<path d="M60.1562 63.3984L60.2344 63.4766L59.6484 64.0625L59.375 64.375L59.1016 64.6484L58.9844 64.6094L59.2969 64.2969L59.5703 63.9844L60.1562 63.3984Z" fill="#F6DFE2"/>
<path d="M62.3828 60.8984L62.4219 61.0156L62.0312 61.4453L61.8359 61.6797H61.7578L61.8359 61.5234L62.3438 60.9375L62.3828 60.8984Z" fill="#F1D8DE"/>
<path d="M60.9766 62.5H61.0547L60.9766 62.6562L60.4688 63.2031L60.3906 63.125L60.9766 62.5Z" fill="#F6D5D8"/>
<path d="M59.5312 64.0625H59.6094L59.5312 64.2188L59.1016 64.6484L58.9844 64.6094L59.4922 64.1016L59.5312 64.0625Z" fill="#F3D8DC"/>
<path d="M56.5234 67.0312L56.6406 67.0703L56.0938 67.6172L56.0156 67.5391L56.5234 67.0312Z" fill="#F9D5D6"/>
</svg>
