<svg width="512" height="512" viewBox="0 0 512 512" fill="none" xmlns="http://www.w3.org/2000/svg">
<g clip-path="url(#clip0_1_762)">
<path d="M56.8889 512C41.2444 512 27.8566 506.434 16.7253 495.303C5.59407 484.172 0.018963 470.774 0 455.111V56.8889C0 41.2444 5.57511 27.8566 16.7253 16.7253C27.8756 5.59407 41.2634 0.018963 56.8889 0H455.111C470.755 0 484.153 5.57511 495.303 16.7253C506.453 27.8756 512.019 41.2634 512 56.8889V455.111C512 470.755 506.434 484.153 495.303 495.303C484.172 506.453 470.774 512.019 455.111 512H56.8889ZM85.3333 398.222H426.667L320 256L234.667 369.778L170.667 284.444L85.3333 398.222Z" fill="black"/>
</g>
<defs>
<clipPath id="clip0_1_762">
<rect width="512" height="512" fill="white"/>
</clipPath>
</defs>
</svg>
