<svg width="30" height="30" viewBox="0 0 30 30" fill="none" xmlns="http://www.w3.org/2000/svg">
<line x1="4.5" y1="2" x2="4.5" y2="25" stroke="#FCA243"/>
<line x1="4.5" y1="2" x2="4.5" y2="25" stroke="#FCA243"/>
<line x1="28" y1="25.5" x2="5" y2="25.5" stroke="#FCA243"/>
<rect x="3" y="5" width="1" height="1" fill="#FCA243"/>
<rect x="2" y="5" width="1" height="1" fill="#FCA243"/>
<rect x="3" y="9" width="1" height="1" fill="#FCA243"/>
<rect x="2" y="9" width="1" height="1" fill="#FCA243"/>
<rect x="3" y="13" width="1" height="1" fill="#FCA243"/>
<rect x="2" y="13" width="1" height="1" fill="#FCA243"/>
<rect x="3" y="17" width="1" height="1" fill="#FCA243"/>
<rect x="2" y="17" width="1" height="1" fill="#FCA243"/>
<rect x="3" y="21" width="1" height="1" fill="#FCA243"/>
<rect x="2" y="21" width="1" height="1" fill="#FCA243"/>
<rect x="10" y="26" width="1" height="1" fill="#FCA243"/>
<rect x="11" y="26" width="1" height="1" fill="#FCA243"/>
<rect x="21" y="26" width="1" height="1" fill="#FCA243"/>
<mask id="path-17-inside-1_1_45" fill="white">
<path d="M6 13H11V25H6V13Z"/>
</mask>
<path d="M6 13V12H5V13H6ZM11 13H12V12H11V13ZM6 14H11V12H6V14ZM10 13V25H12V13H10ZM7 25V13H5V25H7Z" fill="#FCA243" mask="url(#path-17-inside-1_1_45)"/>
<mask id="path-19-inside-2_1_45" fill="white">
<path d="M10 17H15V25H10V17Z"/>
</mask>
<path d="M10 17V16H9V17H10ZM15 17H16V16H15V17ZM10 18H15V16H10V18ZM14 17V25H16V17H14ZM11 25V17H9V25H11Z" fill="#FCA243" mask="url(#path-19-inside-2_1_45)"/>
<mask id="path-21-inside-3_1_45" fill="white">
<path d="M17 5H22V25H17V5Z"/>
</mask>
<path d="M17 5V4H16V5H17ZM22 5H23V4H22V5ZM17 6H22V4H17V6ZM21 5V25H23V5H21ZM18 25V5H16V25H18Z" fill="#FCA243" mask="url(#path-21-inside-3_1_45)"/>
<mask id="path-23-inside-4_1_45" fill="white">
<path d="M21 9H26V25H21V9Z"/>
</mask>
<path d="M21 9V8H20V9H21ZM26 9H27V8H26V9ZM21 10H26V8H21V10ZM25 9V25H27V9H25ZM22 25V9H20V25H22Z" fill="#FCA243" mask="url(#path-23-inside-4_1_45)"/>
</svg>
