<svg width="100" height="100" viewBox="0 0 100 100" fill="none" xmlns="http://www.w3.org/2000/svg">
<mask id="path-1-inside-1_1_284" fill="white">
<path d="M18 83H71V89.9057C71 93.8238 67.8238 97 63.9057 97H25.0943C21.1762 97 18 93.8238 18 89.9057V83Z"/>
</mask>
<path d="M18 83V81H16V83H18ZM71 83H73V81H71V83ZM18 85H71V81H18V85ZM69 83V89.9057H73V83H69ZM63.9057 95H25.0943V99H63.9057V95ZM20 89.9057V83H16V89.9057H20ZM25.0943 95C22.2808 95 20 92.7192 20 89.9057H16C16 94.9283 20.0717 99 25.0943 99V95ZM69 89.9057C69 92.7192 66.7192 95 63.9057 95V99C68.9283 99 73 94.9283 73 89.9057H69Z" fill="#EF9439" mask="url(#path-1-inside-1_1_284)"/>
<mask id="path-3-inside-2_1_284" fill="white">
<path d="M18 10.0943C18 6.17624 21.1762 3 25.0943 3H63.91C67.8257 3 71 6.1743 71 10.09V15H18V10.0943Z"/>
</mask>
<path d="M71 15V17H73V15H71ZM18 15H16V17H18V15ZM25.0943 5H63.91V1H25.0943V5ZM69 10.09V15H73V10.09H69ZM71 13H18V17H71V13ZM20 15V10.0943H16V15H20ZM63.91 5C66.7211 5 69 7.27887 69 10.09H73C73 5.06973 68.9303 1 63.91 1V5ZM25.0943 1C20.0717 1 16 5.07167 16 10.0943H20C20 7.28081 22.2808 5 25.0943 5V1Z" fill="#EF9439" mask="url(#path-3-inside-2_1_284)"/>
<rect x="39.283" y="88.1322" width="10.6415" height="3.54717" fill="#EF9439"/>
<circle cx="69" cy="45" r="20.5" stroke="#EF9439" stroke-width="3"/>
<line x1="19" y1="14" x2="19" y2="83" stroke="#EF9439" stroke-width="2"/>
<line x1="70" y1="70" x2="70" y2="83" stroke="#EF9439" stroke-width="2"/>
<path d="M70 14V21" stroke="#EF9439" stroke-width="2"/>
<path d="M76.4729 39.9088L75.689 42.8015H61.0378L61.8328 39.9088H76.4729ZM69.1087 57L61.3801 47.7036L61.3691 45.2526H65.1892C66.1019 45.2526 66.8637 45.1017 67.4746 44.7999C68.0929 44.4908 68.5603 44.0602 68.8768 43.5081C69.2007 42.9487 69.3626 42.2936 69.3626 41.5429C69.3626 40.4167 69.0314 39.5114 68.3689 38.8268C67.7065 38.1423 66.6466 37.8 65.1892 37.8H61.0378L61.899 34.3884H65.1892C67.044 34.3884 68.5787 34.6755 69.7932 35.2496C71.015 35.8164 71.9278 36.6187 72.5313 37.6565C73.1422 38.6943 73.4477 39.9088 73.4477 41.3C73.4477 42.5292 73.2232 43.6259 72.7742 44.5901C72.3252 45.5544 71.6186 46.3456 70.6544 46.9639C69.6901 47.5822 68.4278 47.9944 66.8674 48.2005L66.7349 48.2446L73.7127 56.8013V57H69.1087ZM76.495 34.3884L75.689 37.3253L63.8091 37.2811L64.6151 34.3884H76.495Z" fill="#EF9439"/>
<rect x="54" y="43" width="3" height="3" fill="#EF9439"/>
<rect x="81" y="43" width="3" height="3" fill="#EF9439"/>
</svg>
