<svg width="498" height="499" viewBox="0 0 498 499" fill="none" xmlns="http://www.w3.org/2000/svg">
<g clip-path="url(#clip0_1_67)">
<circle cx="249" cy="250" r="250" fill="#F1F1F3"/>
<circle cx="249" cy="250" r="215" fill="#E7E8EE"/>
<circle cx="249" cy="250" r="175" fill="#D9DBE7"/>
<circle cx="70" cy="131" r="9" stroke="#E69534" stroke-width="4"/>
<path d="M303.01 13.9413L313.967 4.99529L314.585 19.1269L303.01 13.9413Z" stroke="#44875C" stroke-width="5"/>
<circle cx="352.5" cy="474.5" r="6.5" stroke="#8E7BA8" stroke-width="4"/>
<circle cx="390.5" cy="143.5" r="6.5" stroke="#B75DA5" stroke-width="4"/>
<path fill-rule="evenodd" clip-rule="evenodd" d="M368 351.392L385.25 361.785L385.25 341L368 351.392ZM377.689 351.392L380.25 352.935L380.25 349.85L377.689 351.392Z" fill="#7DA7D9"/>
<path d="M55.8613 344.018L44.2279 346.995L47.2047 335.362L55.8613 344.018Z" stroke="#CEA8B4" stroke-width="3"/>
<path d="M124 467C124.99 467.33 125.98 467.66 127 468C127 470.97 127 473.94 127 477C125.68 477 124.36 477 123 477C122.973 475.521 122.954 474.042 122.938 472.562C122.926 471.739 122.914 470.915 122.902 470.066C123 468 123 468 124 467Z" fill="#1AFFA1"/>
<path d="M128 463C130.97 463 133.94 463 137 463C137 464.32 137 465.64 137 467C134.03 467 131.06 467 128 467C128 465.68 128 464.36 128 463Z" fill="#1EFBA2"/>
<path d="M113 463C115.97 463 118.94 463 122 463C122 464.32 122 465.64 122 467C119.03 467 116.06 467 113 467C113 465.68 113 464.36 113 463Z" fill="#1AFEA1"/>
<path d="M123 453C124.32 453 125.64 453 127 453C127 455.97 127 458.94 127 462C125.68 462 124.36 462 123 462C123 459.03 123 456.06 123 453Z" fill="#1EFBA2"/>
<path d="M469 267C469.99 267.33 470.98 267.66 472 268C472 270.97 472 273.94 472 277C470.68 277 469.36 277 468 277C467.973 275.521 467.954 274.042 467.938 272.562C467.926 271.739 467.914 270.915 467.902 270.066C468 268 468 268 469 267Z" fill="#DB5D5F"/>
<path d="M458 263C460.97 263 463.94 263 467 263C467 264.32 467 265.64 467 267C464.03 267 461.06 267 458 267C458 265.68 458 264.36 458 263Z" fill="#D86164"/>
<path d="M473 263C475.97 263 478.94 263 482 263C482 264.32 482 265.64 482 267C479.03 267 476.06 267 473 267C473 265.68 473 264.36 473 263Z" fill="#DB5D5F"/>
<path d="M468 253C469.32 253 470.64 253 472 253C472 255.97 472 258.94 472 262C470.68 262 469.36 262 468 262C468 259.03 468 256.06 468 253Z" fill="#DB5E5F"/>
<path d="M153 91C155.64 91 158.28 91 161 91C161 92.32 161 93.64 161 95C158.36 95 155.72 95 153 95C153 93.68 153 92.36 153 91Z" fill="#27AFF9"/>
<path d="M162 82C163.32 82 164.64 82 166 82C166 84.64 166 87.28 166 90C164.68 90 163.36 90 162 90C162 87.36 162 84.72 162 82Z" fill="#26AFF9"/>
<path d="M163 95C163.99 95.33 164.98 95.66 166 96C166 98.31 166 100.62 166 103C164.68 103 163.36 103 162 103C161.958 100.667 161.959 98.333 162 96C162.33 95.67 162.66 95.34 163 95Z" fill="#2BAFF7"/>
<path d="M167 91C169.31 91 171.62 91 174 91C174 92.32 174 93.64 174 95C171.69 95 169.38 95 167 95C167 93.68 167 92.36 167 91Z" fill="#2BAFF7"/>
<rect x="146" y="170" width="171" height="158" rx="15" fill="white"/>
<path d="M155 205H308V314C308 316.761 305.761 319 303 319H160C157.239 319 155 316.761 155 314V205Z" fill="#989898"/>
<rect x="161" y="211" width="27" height="27" rx="7" fill="#3C3C3C"/>
<rect x="199" y="211" width="27" height="27" rx="7" fill="#3C3C3C"/>
<rect x="237" y="211" width="27" height="27" rx="7" fill="#3C3C3C"/>
<rect x="275" y="211" width="27" height="27" rx="7" fill="#3C3C3C"/>
<rect x="161" y="249" width="27" height="27" rx="7" fill="#3C3C3C"/>
<rect x="199" y="249" width="27" height="27" rx="7" fill="white"/>
<rect x="237" y="249" width="27" height="27" rx="7" fill="#3C3C3C"/>
<rect x="275" y="249" width="27" height="27" rx="7" fill="#3C3C3C"/>
<rect x="161" y="287" width="27" height="27" rx="7" fill="#3C3C3C"/>
<rect x="199" y="287" width="27" height="27" rx="7" fill="#3C3C3C"/>
<rect x="237" y="287" width="27" height="27" rx="7" fill="#3C3C3C"/>
<rect x="275" y="287" width="27" height="27" rx="7" fill="#3C3C3C"/>
<path d="M155 183C155 180.239 157.239 178 160 178H303C305.761 178 308 180.239 308 183V195H155V183Z" fill="#3C3C3C"/>
<rect x="162" y="156" width="22" height="35" rx="11" fill="white"/>
<rect x="170" y="165" width="5" height="17" rx="2.5" fill="#989898"/>
<rect x="280" y="156" width="22" height="35" rx="11" fill="white"/>
<rect x="288" y="165" width="5" height="17" rx="2.5" fill="#989898"/>
<circle cx="300" cy="293" r="51" fill="white"/>
<path d="M281.3 315.279L299.5 297.079L317.7 315.279L321.279 311.7L303.079 293.5L321.279 275.3L317.7 271.721L299.5 289.921L281.3 271.721L277.721 275.3L295.921 293.5L277.721 311.7L281.3 315.279ZM299.515 339C293.226 339 287.311 337.807 281.77 335.421C276.233 333.031 271.415 329.789 267.316 325.694C263.218 321.599 259.974 316.786 257.584 311.255C255.195 305.724 254 299.811 254 293.515C254 287.219 255.195 281.304 257.584 275.77C259.971 270.233 263.208 265.415 267.296 261.316C271.384 257.218 276.199 253.974 281.74 251.584C287.281 249.195 293.196 248 299.485 248C305.774 248 311.689 249.195 317.23 251.584C322.767 253.971 327.585 257.21 331.684 261.301C335.782 265.393 339.026 270.207 341.416 275.745C343.805 281.282 345 287.196 345 293.485C345 299.774 343.807 305.689 341.421 311.23C339.034 316.771 335.792 321.589 331.694 325.684C327.595 329.779 322.783 333.023 317.255 335.416C311.728 337.809 305.814 339.003 299.515 339Z" fill="#FB4444"/>
<rect x="184" y="169" width="11" height="9" fill="#D9DBE7"/>
<path d="M188 174.5C188 172.015 190.015 170 192.5 170H280V179H192.5C190.015 179 188 176.985 188 174.5Z" fill="white"/>
</g>
<defs>
<clipPath id="clip0_1_67">
<rect width="498" height="499" fill="white"/>
</clipPath>
</defs>
</svg>
