<svg width="300" height="300" viewBox="0 0 300 300" fill="none" xmlns="http://www.w3.org/2000/svg">
<path d="M58.0078 79.9805L59.3262 80.127L61.6699 81.2988L65.1855 83.2031L68.5547 85.1074L72.3633 87.1582L78.9551 90.8203L82.4707 92.7246L85.8398 94.6289L89.6484 96.6797L93.0176 98.584L97.1191 100.781L100.488 102.686L103.711 104.443L107.08 106.348L108.545 107.373L109.131 108.105V109.277L108.105 110.449L107.373 110.742L105.176 110.889V116.895L104.736 117.92L103.271 118.652L102.832 118.799L102.686 124.365L102.393 125.537L101.66 126.123L100.342 126.709V152.783L102.1 153.809L102.539 154.541L102.686 155.859V160.547L103.271 160.986L105.029 161.865L105.176 163.184V168.604L108.105 169.189L108.984 169.629L109.131 170.508V179.004L108.838 180.029L108.252 180.469L107.812 180.615L97.998 180.762H11.4258L8.93555 180.615L8.20312 180.029L8.05664 179.59L7.91016 176.807V172.119L8.05664 169.922L8.78906 169.189L11.4258 168.75L11.7188 168.604L11.8652 162.891L12.3047 161.865L13.916 160.84L14.3555 160.107V154.834L14.7949 153.955L16.4062 152.93L16.5527 152.783V126.562L14.7949 125.83L14.3555 124.805V118.945L13.623 118.652L12.3047 117.92L11.8652 117.041V110.742H9.375L8.49609 110.156L7.91016 109.131V108.252L8.49609 107.373L9.96094 106.348L13.1836 104.59L19.7754 100.928L23.1445 99.0234L27.5391 96.6797L29.8828 95.3613L33.8379 93.1641L37.3535 91.2598L40.7227 89.3555L44.5312 87.3047L47.9004 85.4004L51.709 83.3496L54.3457 81.8848L57.2754 80.2734L58.0078 79.9805Z" fill="#4B59AF"/>
<path d="M267.041 121.143L268.359 121.436L269.531 122.314L270.557 123.34L271.875 124.951L273.486 126.855L275.098 128.906L276.709 130.811L278.027 132.422L280.078 134.912L281.689 136.816L285.645 141.65L287.256 143.555L288.867 145.605L290.771 147.803L291.797 149.268L292.09 150.732L291.65 151.904L290.771 152.93L289.893 153.369L281.25 153.516L281.104 197.021L280.957 198.193L279.346 199.805H256.348L254.883 199.512L253.857 198.34L253.564 197.607V153.369L252.539 153.516H245.947L244.629 153.369L243.457 152.637L242.871 151.758L242.578 150.293L243.164 148.975L244.482 147.217L246.24 145.166L247.559 143.555L249.463 141.211L251.074 139.307L252.393 137.695L254.297 135.352L256.055 133.301L257.666 131.25L259.424 129.199L260.742 127.588L262.646 125.244L263.965 123.633L265.576 121.875L267.041 121.143Z" fill="#FEFDFD"/>
<path d="M227.783 182.959L243.164 183.105L244.189 183.545L245.215 184.717L245.508 185.889V192.627L245.068 193.799L244.336 194.531L243.457 194.971L242.285 195.264L242.432 195.557L242.578 201.416L244.336 202.148L245.068 203.027L245.361 203.76L245.508 205.078V211.23L245.215 212.109L244.482 212.988L243.164 213.574L242.432 213.867V220.166L242.139 221.191L241.26 222.363L240.82 222.656L239.795 222.803H201.123L200.391 222.363L199.658 221.484L199.365 220.752L199.219 219.873V213.721L199.512 212.549L200.244 211.67L202.148 210.645L202.295 210.352V204.785L200.391 203.76L199.365 202.588L199.219 202.002V195.117L199.658 193.799L200.391 192.92L201.855 192.334H202.148L202.295 185.889L202.734 184.57L203.76 183.398L204.346 183.105L227.783 182.959Z" fill="#4B59AF"/>
<path d="M219.434 138.135H222.363L225 138.428L227.783 139.16L230.273 140.186L232.617 141.504L234.229 142.676L236.279 144.434L237.891 146.191L239.502 148.535L240.967 151.318L241.846 153.955L242.432 156.738L242.578 157.91V161.719L242.139 164.355L241.553 166.553L240.674 168.75L239.648 170.801L238.184 172.998L236.279 175.195L234.814 176.514L232.471 178.125L229.395 179.736L225.879 180.908L223.535 181.348L220.166 181.494L217.09 181.201L214.307 180.469L211.963 179.59L209.18 178.125L206.836 176.367L204.932 174.609L203.467 172.852L202.002 170.654L200.83 168.311L199.805 165.527L199.219 162.598L199.072 161.279V158.35L199.512 155.273L200.391 152.197L202.002 148.828L203.76 146.338L205.664 144.141L207.568 142.529L209.766 141.064L212.256 139.746L215.332 138.721L217.676 138.281L219.434 138.135Z" fill="#FEFDFD"/>
<path d="M58.4473 84.2285L60.791 85.4004L63.8672 87.1582L67.9688 89.3555L70.6055 90.8203L73.8281 92.5781L78.0762 94.9219L91.5527 102.393L95.3613 104.443L98.584 106.348L98.877 106.494V106.787H87.5977L66.6504 106.934L65.918 107.52L65.4785 108.545L65.625 109.424L66.5039 110.449L67.6758 110.742L100.928 110.889L101.074 111.035V113.965L100.781 114.551L44.5312 114.697L16.2598 114.551L15.9668 114.258L15.8203 113.232V112.061L16.1133 110.889L48.9258 110.742L50.3906 110.596L51.5625 109.57V108.398L50.9766 107.227L50.5371 106.934L18.0176 106.787L18.75 106.201L22.2656 104.15L26.0742 102.1L31.3477 99.1699L35.5957 96.8262L39.1113 94.9219L41.748 93.457L50.2441 88.7695L54.3457 86.5723L56.6895 85.2539L58.4473 84.2285Z" fill="#FEFDFD"/>
<path d="M267.041 121.143L268.359 121.436L269.531 122.314L270.557 123.34L271.875 124.951L273.486 126.855L275.098 128.906L276.709 130.811L278.027 132.422L280.078 134.912L281.689 136.816L285.645 141.65L287.256 143.555L288.867 145.605L290.771 147.803L291.797 149.268L292.09 150.732L291.65 151.904L290.771 152.93L289.893 153.369L281.25 153.516L281.104 197.021L280.957 198.193L279.346 199.805H256.348L254.883 199.512L253.857 198.34L253.564 197.607V153.369L252.539 153.516H245.947L244.629 153.369L243.457 152.637L242.871 151.758L242.578 150.293L243.164 148.975L244.482 147.217L246.24 145.166L247.559 143.555L249.463 141.211L251.074 139.307L252.393 137.695L254.297 135.352L256.055 133.301L257.666 131.25L259.424 129.199L260.742 127.588L262.646 125.244L263.965 123.633L265.576 121.875L267.041 121.143ZM267.334 123.926L265.576 125.977L264.258 127.588L262.646 129.492L260.01 132.715L258.398 134.619L257.08 136.23L255.176 138.574L253.125 141.064L251.514 142.969L249.902 145.02L247.852 147.51L245.947 149.707L245.361 150.439V150.732H253.564L256.201 150.879L256.348 196.875L256.934 197.168H264.697L278.32 197.021L278.467 196.436V150.879L289.307 150.732L289.014 150.146L287.549 148.242L285.938 146.338L284.619 144.727L283.301 143.262L281.689 141.211L280.078 139.307L278.76 137.695L277.148 135.791L275.537 133.74L273.633 131.543L270.996 128.32L269.238 126.27L267.48 123.926H267.334Z" fill="#4B59AF"/>
<path d="M219.434 138.135H222.363L225 138.428L227.783 139.16L230.273 140.186L232.617 141.504L234.229 142.676L236.279 144.434L237.891 146.191L239.502 148.535L240.967 151.318L241.846 153.955L242.432 156.738L242.578 157.91V161.719L242.139 164.355L241.553 166.553L240.674 168.75L239.648 170.801L238.184 172.998L236.279 175.195L234.814 176.514L232.471 178.125L229.395 179.736L225.879 180.908L223.535 181.348L220.166 181.494L217.09 181.201L214.307 180.469L211.963 179.59L209.18 178.125L206.836 176.367L204.932 174.609L203.467 172.852L202.002 170.654L200.83 168.311L199.805 165.527L199.219 162.598L199.072 161.279V158.35L199.512 155.273L200.391 152.197L202.002 148.828L203.76 146.338L205.664 144.141L207.568 142.529L209.766 141.064L212.256 139.746L215.332 138.721L217.676 138.281L219.434 138.135ZM220.02 142.822L217.236 143.115L215.039 143.701L212.695 144.727L210.645 146.045L208.887 147.656L207.275 149.268L206.25 150.732L204.932 153.223L204.199 155.42L203.76 158.35V161.133L204.199 163.623L205.225 166.699L206.25 168.75L207.422 170.361L209.18 172.266L210.938 173.73L212.988 174.902L215.039 175.781L217.09 176.367L220.312 176.807H221.777L223.975 176.514L226.172 175.928L228.076 175.195L230.273 174.023L232.178 172.559L233.789 170.947L235.254 169.043L236.572 166.699L237.451 164.209L237.891 161.572V158.203L237.451 155.713L236.719 153.369L235.547 151.025L234.229 149.121L232.91 147.656L231.299 146.191L229.248 144.873L227.344 143.994L225 143.262L223.242 142.969L221.631 142.822H220.02Z" fill="#4B59AF"/>
<path d="M31.3477 118.652H33.5449L37.9395 118.799L38.2324 119.092L38.3789 124.805L38.8184 125.684L40.4297 126.709L40.5762 126.855V152.93L39.9902 153.369L38.5254 154.102L38.3789 154.98L38.2324 160.693L37.9395 160.986H31.2012L31.0547 160.254L30.9082 155.273L30.6152 153.809L28.8574 153.076L28.7109 152.197V126.855L30.6152 125.83L30.9082 125.098L31.0547 118.945L31.3477 118.652Z" fill="#FEFDFD"/>
<path d="M78.8086 118.799H85.8398L85.9863 119.092L86.1328 125.244L86.2793 125.684L88.0371 126.562L88.1836 126.709L88.3301 129.492V151.904L88.1836 153.223L86.2793 153.955L86.1328 154.834L85.9863 160.4L85.8398 160.986L83.9355 161.133H79.248L78.9551 160.986L78.8086 160.4L78.6621 155.713L78.5156 154.102L77.6367 153.516L76.4648 152.93V126.855L77.0508 126.416L78.2227 125.83L78.6621 125.098L78.8086 118.799Z" fill="#FEFDFD"/>
<path d="M55.0781 118.799H61.8164L62.1094 119.092L62.2559 124.951L62.5488 125.684L64.3066 126.709L64.4531 127.002V152.637L64.1602 153.223L62.4023 153.955L62.2559 154.102L62.1094 160.693L61.8164 160.986L57.7148 161.133H55.3711L55.0781 160.986L54.9316 160.4L54.6387 154.395L54.3457 153.809L52.7344 153.076L52.5879 152.051V132.568L52.7344 126.709L54.4922 125.83L54.7852 125.244L54.9316 118.945L55.0781 118.799Z" fill="#FEFDFD"/>
<path d="M155.566 145.02L156.445 145.166L160.547 146.777L165.088 148.535L165.82 148.242L168.164 147.07L169.922 146.484L171.826 146.338L174.17 146.777L177.246 147.803L181.201 149.414L185.303 151.025L187.646 152.197L188.965 153.076L189.99 153.955L191.309 155.859L192.041 157.471L192.48 158.936L192.627 160.107V161.426L192.188 163.916L191.309 165.967L189.844 167.871L188.525 169.043L187.061 169.922L185.156 170.654L183.252 170.947H181.201L179.004 170.508L175.488 169.189L171.094 167.432L167.139 165.82L164.648 164.502L163.477 163.477V163.184H163.184L162.012 161.572L161.133 159.375L160.84 157.471V157.178L159.961 157.031L155.859 155.42L152.49 153.955L152.051 153.516L152.197 152.49L152.637 151.758L153.809 151.904L159.814 154.248L164.648 156.152L167.285 157.031H168.457L169.336 156.445L169.775 155.713L169.922 154.248L169.336 153.223L166.992 152.051L157.324 148.242L155.273 147.363L154.98 147.07L155.127 145.752L155.566 145.02ZM170.361 148.828L168.896 149.121L168.457 149.414V149.854L169.482 150.146L172.119 150.439L174.463 151.172L180.615 153.516L184.424 155.127L185.889 156.152L187.061 157.471L187.646 158.936V162.158L187.061 163.623L185.889 165.234L184.277 166.26L182.666 166.699L180.322 166.553L178.271 165.967L170.215 162.744L168.457 162.012L166.992 160.986L165.674 159.521L165.088 158.936L163.623 158.35H163.33L163.77 159.814L164.941 161.426L166.26 162.598L168.604 163.77L176.514 166.992L179.59 168.164L181.494 168.604H183.691L185.596 168.018L187.061 167.139L188.379 165.967L189.551 164.062L189.99 162.744L190.137 161.865V159.668L189.697 158.057L188.965 156.592L187.646 155.127L186.035 154.102L184.57 153.369L178.564 151.025L175.195 149.707L172.705 148.975L171.826 148.828H170.361ZM172.119 152.93L172.266 153.955V155.273L171.68 156.885L170.947 158.057L170.361 158.643L169.043 159.082V159.521L169.775 159.961L174.316 161.865L180.029 164.062L181.201 164.355H182.812L184.131 163.623L185.01 162.598L185.449 161.133V159.961L184.863 158.35L183.691 157.324L179.004 155.42L174.023 153.516L172.412 152.93H172.119Z" fill="#4B59AF"/>
<path d="M120.557 126.562H123.633L126.123 127.148L130.371 128.76L134.766 130.518L138.135 131.982L139.746 132.861L141.211 134.033L142.236 135.205L143.262 137.256L143.701 138.574L143.994 140.039L145.166 140.625L150.586 142.822L152.344 143.701L152.637 143.994L152.49 145.02L152.051 145.898L151.172 145.752L145.459 143.555L140.332 141.504L137.988 140.625L136.523 140.479L135.791 140.771L135.352 140.918L135.059 141.504L134.766 142.236V143.262L135.352 144.141L136.523 145.02L140.479 146.631L146.484 148.975L149.268 150.146L149.707 150.586L149.561 151.904L149.268 152.344L147.949 152.197L145.02 151.025L139.893 149.121H139.014L137.549 150L135.645 150.732L133.887 151.025H132.129L129.492 150.439L125.977 149.121L118.652 146.191L116.455 145.02L114.99 143.701L113.818 142.383L112.646 140.186L112.207 138.574L112.061 137.549V135.645L112.5 133.447L113.672 131.104L114.697 129.785L116.016 128.467L118.066 127.295L119.824 126.709L120.557 126.562ZM120.85 128.906L119.385 129.346L117.92 130.078L116.455 131.396L115.43 132.715L114.697 134.473L114.551 135.352V137.988L114.99 139.746L116.162 141.504L117.627 142.822L119.385 143.848L127.441 147.07L130.518 148.242L132.715 148.682H134.033L135.498 148.242L136.377 147.656L136.523 147.217L136.23 147.07H132.715L130.371 146.484L123.34 143.701L121.143 142.822L119.678 142.09L118.213 140.771L117.334 139.307L117.041 138.428V135.498L117.627 133.887L118.506 132.715L119.678 131.689L120.85 131.104L122.168 130.811H123.486L125.83 131.396L130.078 133.008L135.352 135.205L137.256 136.23L138.721 137.549L139.893 138.721L141.211 139.307L141.064 138.135L140.332 136.816L139.014 135.352L137.109 134.18L133.154 132.568L128.027 130.518L124.951 129.346L123.34 128.906H120.85ZM121.875 133.154L120.264 134.033L119.385 135.352L119.092 136.23V137.402L119.678 138.867L120.41 139.746L121.875 140.625L127.441 142.822L131.104 144.287L132.129 144.727H132.568L132.422 143.701V142.09L132.861 140.771L133.74 139.453L135.352 138.428V137.842L133.594 136.963L129.492 135.352L124.951 133.594L123.486 133.154H121.875Z" fill="#4B59AF"/>
<path d="M12.1582 172.852H104.883L105.029 172.998L105.176 174.609V176.074L104.883 176.66H12.0117L11.8652 176.367V173.438L12.1582 172.852Z" fill="#FEFDFD"/>
<path d="M16.2598 164.941H100.195L100.928 165.088L101.074 165.381V168.75L99.7559 168.896H16.1133L15.8203 168.457V166.26L15.9668 165.234L16.2598 164.941Z" fill="#FEFDFD"/>
<path d="M221.045 204.346H241.26L242.725 204.492V210.791L242.578 210.938L237.158 211.084H205.225L205.078 210.645V204.492L221.045 204.346Z" fill="#FEFDFD"/>
<path d="M202.002 213.721H237.012L239.502 213.867L239.648 214.16V220.02L239.502 220.166H202.002L201.855 218.408V214.014L202.002 213.721Z" fill="#FEFDFD"/>
<path d="M205.225 185.889H242.432L242.725 186.035V191.895L242.578 192.188L241.699 192.334H215.625L205.225 192.188L205.078 191.016V186.182L205.225 185.889Z" fill="#FEFDFD"/>
<path d="M202.002 195.117H206.982L238.623 195.264L239.502 195.41L239.648 197.9V200.977L239.502 201.27L238.623 201.416L207.129 201.562H202.148L202.002 201.27V195.117Z" fill="#FEFDFD"/>
<path d="M57.7148 90.9668L60.0586 91.1133L62.1094 92.1387L63.2812 93.457L64.1602 95.2148L64.4531 96.2402V97.8516L63.7207 99.7559L62.4023 101.221L61.5234 101.953L59.9121 102.686L59.3262 102.832H57.2754L55.5176 102.1L53.7598 100.488L52.8809 99.0234L52.5879 98.1445V95.6543L53.3203 93.8965L54.3457 92.5781L55.3711 91.6992L56.6895 91.1133L57.7148 90.9668Z" fill="#4B59AF"/>
<path d="M20.9473 126.562H23.7305L24.6094 126.709L24.7559 152.93L24.6094 153.076L21.2402 153.223L20.9473 153.076L20.8008 152.197V126.709L20.9473 126.562Z" fill="#FEFDFD"/>
<path d="M92.4316 126.709H95.9473L96.0938 126.855L96.2402 128.467V152.783L96.0938 153.076L94.6289 153.223H93.1641L92.4316 152.93V126.709Z" fill="#FEFDFD"/>
<path d="M68.5547 126.709H72.0703L72.3633 127.002V152.783L72.0703 153.076H68.8477L68.5547 152.051V126.709Z" fill="#FEFDFD"/>
<path d="M44.8242 126.709H48.1934L48.4863 127.148V152.783L48.1934 153.076H44.9707L44.6777 152.051V126.855L44.8242 126.709Z" fill="#FEFDFD"/>
<path d="M214.014 148.242H228.369L229.102 148.535V149.268L228.955 149.414L223.682 149.707L225 152.49L225.439 153.369L228.076 153.516L228.955 153.662V154.541L228.662 154.834L225.732 154.98L225.439 155.127L224.707 157.617L223.389 159.082L221.924 159.961L220.166 160.547L217.676 160.986H216.504L217.09 162.012L218.262 163.477L219.434 164.648L220.459 165.82L222.217 167.725L223.828 169.629L224.854 171.24L224.707 171.826L223.975 171.973L222.803 170.947L221.045 168.896L219.727 167.285L218.555 166.113L217.236 164.502L215.625 162.744L214.307 160.986L213.721 160.254L213.867 159.668L218.994 159.229L221.338 158.643L222.656 157.764L223.535 156.445L223.828 154.98L213.574 154.834L213.428 154.688V153.662L213.574 153.516H223.682L222.949 151.611L222.07 150.439L221.045 149.854L218.555 149.707L213.574 149.561V148.389L214.014 148.242Z" fill="#FBE276"/>
<path d="M256.201 218.408H278.613L279.346 218.701L279.639 218.994V221.045L278.76 221.484L268.945 221.631H258.252L255.762 221.484L255.029 220.752V219.287L255.322 218.701L256.201 218.408Z" fill="#4B59AF"/>
<path d="M256.055 203.027H279.053L279.492 203.174L279.639 204.492L279.492 205.664L279.199 205.957L278.174 206.104H256.348L255.322 205.811L255.029 205.078V203.76L255.469 203.174L256.055 203.027Z" fill="#4B59AF"/>
<path d="M262.793 210.645H270.703L279.053 210.791L279.492 211.084L279.639 211.963L279.492 213.428L279.199 213.721L262.354 213.867H257.959L255.615 213.721L255.176 213.281L255.029 212.842V211.523L255.322 210.938L255.615 210.791L262.793 210.645Z" fill="#4B59AF"/>
<path d="M66.2109 157.178H74.707V160.986L74.5605 161.133H66.7969L66.2109 160.986L66.0645 160.4V158.496L66.2109 157.178Z" fill="#FEFDFD"/>
<path d="M18.6035 157.178H26.9531L27.0996 157.324V160.547L26.9531 160.986L25.9277 161.133H19.6289L18.6035 160.986L18.457 160.693V157.324L18.6035 157.178Z" fill="#FEFDFD"/>
<path d="M42.334 157.178H50.8301V160.986L50.6836 161.133H42.9199L42.334 160.84V157.178Z" fill="#FEFDFD"/>
<path d="M90.0879 157.178H98.291L98.4375 157.324L98.584 158.789V160.84L98.4375 160.986L95.5078 161.133H90.6738L89.9414 160.986V157.617L90.0879 157.178Z" fill="#FEFDFD"/>
<path d="M18.75 118.652H26.8066L26.9531 118.799V122.314L26.2207 122.461H18.8965L18.6035 122.314V118.799L18.75 118.652Z" fill="#FEFDFD"/>
<path d="M42.334 118.799H50.8301L50.9766 119.238L50.8301 122.314L50.5371 122.461H42.7734L42.334 122.314L42.1875 122.021V119.531L42.334 118.799Z" fill="#FEFDFD"/>
<path d="M90.0879 118.799H98.4375L98.584 118.945V122.168L98.291 122.461H90.3809L90.0879 122.314L89.9414 121.875V118.945L90.0879 118.799Z" fill="#FEFDFD"/>
<path d="M66.2109 118.799H74.707V122.314L74.4141 122.461H66.5039L66.2109 122.314L66.0645 121.875V119.531L66.2109 118.799Z" fill="#FEFDFD"/>
<path d="M151.904 131.836L153.369 132.129L153.662 133.008L153.369 137.988L153.223 139.307L152.93 139.893L152.051 139.746L151.465 139.16V135.938L151.611 132.715L151.904 131.836Z" fill="#4B59AF"/>
<path d="M157.471 135.352L158.496 135.498L158.789 135.645L158.643 136.67L157.031 140.771L156.006 142.822L155.127 142.969L154.688 142.676V141.65L156.006 137.988L157.178 135.645L157.471 135.352Z" fill="#4B59AF"/>
<path d="M164.502 136.23L165.088 136.523L165.234 137.109L164.648 138.281L163.33 139.746L162.305 140.918L161.426 141.943L160.4 142.676L159.375 142.529L159.229 141.943L159.961 140.625L161.572 138.867L162.598 137.695L164.062 136.377L164.502 136.23Z" fill="#4B59AF"/>
<path d="M145.605 155.127L146.338 155.273L146.631 155.713L146.484 156.445L145.459 157.764L143.262 160.107L142.09 161.279L141.211 161.572L140.479 160.84L140.918 159.814L143.262 157.324L145.312 155.273L145.605 155.127Z" fill="#4B59AF"/>
<path d="M150.146 154.98L150.879 155.127L151.172 155.42L151.025 156.445L150 159.375L148.828 162.012L148.242 162.744L147.51 162.451L147.07 162.012L147.217 161.133L148.682 157.471L149.414 155.713L150.146 154.98Z" fill="#4B59AF"/>
<path d="M152.93 158.057L153.662 158.203L154.248 158.789V161.279L154.102 164.502L153.955 165.82L153.809 165.967H152.783L152.197 165.381L152.344 160.84L152.49 158.936L152.783 158.203L152.93 158.057Z" fill="#4B59AF"/>
<path d="M57.8613 106.787H59.1797L60.0586 107.52L60.498 108.398V109.424L59.7656 110.303L58.7402 110.742L57.5684 110.596L56.8359 109.863L56.3965 108.984L56.6895 107.812L57.2754 107.08L57.8613 106.787Z" fill="#4B59AF"/>
<path d="M57.8613 94.9219H59.0332L60.0586 95.5078L60.3516 96.0938V97.5586L59.9121 98.291L58.5938 99.0234L57.8613 98.877L56.8359 97.998L56.543 97.2656L56.6895 96.0938L57.5684 95.0684L57.8613 94.9219Z" fill="#FEFDFD"/>
</svg>
