<svg width="100" height="100" viewBox="0 0 100 100" fill="none" xmlns="http://www.w3.org/2000/svg">
<path d="M47.6074 0H52.6855V0.0488281L55.6152 0.488281L56.9336 0.78125L58.9844 1.31836L61.1328 2.09961L62.1582 2.53906L63.5742 3.22266L64.3555 3.61328L65.7715 4.44336L66.8457 5.12695L67.4316 5.56641L68.3594 6.25L69.043 6.78711L69.7266 7.37305L70.5078 8.10547L70.8984 8.44727L71.9238 9.47266L72.2656 9.86328L72.8027 10.4492L73.3398 11.084L74.6582 12.8418L75.3418 13.8672L75.9766 14.9414L76.416 15.6738L77.3438 17.5293L77.7832 18.5059L78.6621 20.8984L79.0527 22.3145L79.4922 24.1211L79.834 26.3184L79.9805 27.8809L80.0781 29.7363V56.5918L79.9805 57.0801L79.7852 57.4707L79.4922 57.8125L79.0527 58.0566L78.6621 58.1543L77.7344 58.2031H70.5566L69.5801 58.252L68.0664 59.7656L67.3828 60.3027L66.8457 60.7422L66.1621 61.2305H66.0645V61.377L66.3574 61.4746L67.1875 61.9141L67.9688 62.3047L68.9453 62.9883L69.873 63.6719L70.5078 64.2578L70.9961 64.7461L71.0938 64.7949V64.8926L71.2891 64.9902L71.582 65.2832V65.3809H71.6797L72.168 66.0156L72.8516 66.8945L73.3398 67.6758L74.1211 69.043L74.5117 69.9707L75 71.2402L75.3906 72.8027L75.5859 73.9258L75.7324 75.7324V98.4863L75.5859 99.0723L75.293 99.5117L74.9023 99.8047L74.4629 100H25.6348L25.0977 99.707L24.7559 99.4141L24.4629 98.8281L24.4141 98.6328V75.0977L24.5117 74.0723L24.7559 72.6562L25.1465 71.1914L25.5371 70.1172L25.9277 69.2383L26.416 68.2617L27.1973 66.9922L28.1738 65.7227L28.9062 64.9414L29.541 64.3066L30.0781 63.8184L30.6152 63.3789L31.2012 62.9395L32.1777 62.3047L32.8613 61.9141L33.9355 61.377H34.082V61.2793H33.9844V61.1816L33.7402 61.084L32.9102 60.4004L32.4219 60.0098L31.8848 59.5703L30.5664 58.252L21.9727 58.2031L21.1426 58.1055L20.6543 57.8125L20.3125 57.4219L20.1172 56.9824L20.0684 56.6895V29.3457L20.2148 26.9531L20.3613 25.8301L20.752 23.584L21.1426 22.0703L21.7285 20.1172L22.2656 18.7988L22.8516 17.3828L23.0957 16.8945L23.3887 16.5039L23.877 16.2109L24.2188 16.1133H24.7559L25.293 16.3086L25.6348 16.5527L25.9277 16.9922L26.0742 17.3828V18.0176L25.8301 18.75L25.1953 20.2637L24.8047 21.2402L24.2188 23.2422L24.0234 23.9258L23.6328 26.0742L23.4375 27.7832L23.3398 29.9316L23.291 54.9316H27.9297L28.2227 54.9805L27.4902 53.418L27.002 52.1484L26.6113 50.8301L26.3672 49.707L26.1719 48.291L26.123 47.7539V45.2148L26.3672 42.5293L26.7578 38.5254L27.3438 32.4707L27.6367 29.4922L27.7832 28.8086L27.9297 28.5156L28.3203 28.0762L28.7598 27.832L29.4922 27.7344H37.7441L38.7695 27.7832L39.3066 27.9785L39.7949 28.418L40.0391 28.9062L40.0879 29.1016V29.6387L39.9414 30.0781L39.5996 30.5176L39.209 30.8105L38.7207 30.957L38.2324 31.0059H30.7617L30.7129 31.7383L30.4199 34.7168L29.9316 39.7949L29.541 43.7988L29.3945 45.6055V47.5586L29.541 48.8281L29.7852 50L30.127 51.1719L30.6152 52.3926L31.1035 53.418L31.7383 54.4434L32.2266 55.127L32.6172 55.6152L33.0566 56.1035L33.5938 56.6895L34.0332 57.1289L34.5703 57.5684L35.1562 58.0566L36.084 58.7402L37.8418 60.0098L38.7695 60.6934L39.4531 61.1816L41.2109 62.4512L42.1387 63.1348L43.8965 64.4043L44.8242 64.9902L45.4102 65.332L46.8262 65.918L48.1934 66.2598L49.3164 66.4062L50.293 66.4551L51.8066 66.3086L53.2715 65.9668L54.4922 65.4785L55.2734 65.0879L56.4453 64.3555L58.2031 63.0859L59.1309 62.4023L60.0098 61.7676L60.9375 61.084L61.6211 60.5957L63.3789 59.3262L65.2344 57.959L65.918 57.373L66.4551 56.9336L66.8945 56.4941L67.2363 56.1035L67.7734 55.5176L68.457 54.5898L69.1406 53.4668L69.5312 52.6855L69.9707 51.709L70.3613 50.5371L70.6543 49.3164L70.8496 47.998L70.8984 47.3145V45.6543L70.752 43.8477L69.5312 31.3477L69.4824 31.0059H59.8633L59.0332 30.9082L58.4961 30.5664L58.2031 30.1758L58.0078 29.7363L57.5195 27.8809L56.7383 24.7559L56.4941 23.7305L56.1035 24.9512L55.3711 27.3438L54.7363 29.3945L54.4922 30.0781L54.1992 30.4688L53.8574 30.7617L53.3203 30.957L52.6855 31.0059H43.8965L43.2617 30.9082L42.8711 30.7129L42.4316 30.2734L42.2363 29.8828L42.1875 29.6875V29.0527L42.3828 28.5645L42.627 28.2227L43.1641 27.8809L43.457 27.7832L43.8477 27.7344H51.8555L52.002 27.1484L52.7344 24.8047L53.4668 22.4121L53.9062 20.9473L54.3457 19.5312L55.0293 17.334L55.3711 16.6504L55.8105 16.2598L56.2988 16.0645H56.9336L57.5195 16.3086L57.8125 16.5527L58.0566 16.8945L58.3496 17.7734L59.4727 22.2656L60.4004 25.8789L60.8398 27.5879V27.7344H65.3809L71.2402 27.7832L71.7285 27.9297L72.168 28.2715L72.4609 28.7109L72.6074 29.248L72.8516 31.6406L74.1211 44.7754L74.1699 45.5078V47.5586L74.0723 48.6816L73.8281 50.1465L73.4863 51.5137L73.0957 52.6855L72.5586 53.9551L72.0703 54.9805L72.168 54.9316H73.8281L76.9531 54.9805V29.9316L76.8066 27.2461L76.416 24.6582L75.8789 22.5586L75.5859 21.582L74.9512 19.873L74.5117 18.8965L73.7305 17.2852L73.2422 16.4551L72.4121 15.0879L71.9727 14.502L71.2891 13.5742L70.752 12.8906L70.3125 12.4023L69.9707 12.0117L69.2871 11.2793L68.5059 10.498L68.1152 10.1562L67.5293 9.61914L66.8457 9.08203L66.2109 8.59375L65.2832 7.91016L64.3555 7.32422L63.3789 6.73828L62.5977 6.29883L60.791 5.41992L58.8379 4.6875L57.666 4.29688L55.4688 3.75977L53.6133 3.4668L52.8809 3.36914L51.3184 3.27148H48.9746L46.9238 3.41797L44.8242 3.75977L43.7012 4.00391L41.8457 4.54102L40.6738 4.93164L38.9648 5.66406L37.9883 6.10352L36.8164 6.78711L35.6934 7.42188L35.2051 7.76367L33.3496 9.13086L32.8613 9.52148L31.25 11.0352L30.8105 11.4258L30.3711 11.9629L29.8828 12.5L29.4434 13.0371L28.8574 13.7207L28.6621 13.9648L28.1738 14.3555L27.6367 14.5508H27.1973L26.709 14.4043L26.2695 14.1113L25.9766 13.7207L25.7812 13.2324V12.6953L26.0254 12.0605L26.5137 11.4258L27.002 10.8398L27.4414 10.3027L27.5879 10.1074H27.6855L27.7832 9.91211L28.125 9.52148L28.5645 9.08203H28.6621L28.7109 8.93555L29.1016 8.59375L29.541 8.1543H29.6387V8.05664L30.0293 7.71484L30.4199 7.32422H30.5176V7.22656L31.2012 6.68945L31.8359 6.20117L32.6172 5.61523L33.5449 4.93164L34.7168 4.19922L35.7422 3.61328L37.0605 2.92969L38.0859 2.44141L39.7949 1.75781L41.748 1.12305L43.2129 0.732422L44.9707 0.390625L46.2402 0.195312L47.6074 0ZM36.9629 63.6719L35.498 64.1602L34.2285 64.7461L32.959 65.5273L32.1289 66.2109L31.8359 66.4062V66.5527L32.5195 67.0898L33.3496 67.9199L33.8867 68.6035L34.2773 69.1406L34.7168 69.873L35.1074 70.6543L35.6934 71.9727L36.2793 73.9746L36.5723 75.5371L36.7188 76.7578L36.7676 77.3926L36.8164 96.7773L36.8652 96.8262H43.5059L48.3887 96.7773L48.4375 95.2637L48.584 94.7754L48.877 94.3359L49.3652 93.9941L49.7559 93.8965H50.1953L50.6836 94.043L51.123 94.3359L51.416 94.7754L51.5137 95.0684L51.5625 95.4102L51.6113 96.7773L55.9082 96.8262H63.0371L63.1348 96.7773L63.1836 77.9785L63.4277 75.4883L63.7695 73.7305L64.209 72.2656L64.7461 70.9473L65.1367 70.166L65.7715 69.0918L66.0645 68.75L66.3574 68.5547L66.8457 68.4082H67.2852L67.7734 68.5547L68.0664 68.75L68.4082 69.1406L68.6035 69.5312L68.6523 70.0684L68.5547 70.5078L68.1641 71.2891L67.6758 72.168L67.1875 73.3887L66.7969 74.8047L66.5527 76.0742L66.4062 77.5391L66.3574 86.4258H72.5098V75.9277L72.3633 74.2188L72.2168 73.3887L71.7773 71.7773L71.1914 70.4102L70.752 69.5801L69.873 68.2617L69.4336 67.7734L69.0918 67.3828L68.4082 66.6504L67.8223 66.1621L66.9922 65.5273L66.3086 65.0879L65.0391 64.4043L64.4531 64.1602L62.9883 63.6719H62.7441L62.207 64.0625L61.6211 64.502L61.2305 66.4551L60.6934 67.9688L60.4492 68.5059L60.0098 69.2871L59.4238 70.2148L58.9844 70.752L58.5938 71.1914V71.2891H58.4961L58.1543 71.6797L57.6172 72.168L56.9336 72.7051L56.3965 73.0957L55.6152 73.5352L54.7852 73.9746L53.6133 74.4141L52.5391 74.707L51.6602 74.9023L51.6113 74.9512L51.5625 90.2344L51.5137 90.7715L51.2695 91.2598L50.9766 91.6016L50.4883 91.8457L50.293 91.8945H49.6582L49.1699 91.6992L48.8281 91.4062L48.5352 90.918L48.4375 90.5273L48.3887 88.7695V74.9512L47.7051 74.7559L46.4844 74.4629L44.9707 73.877L44.0918 73.3887L43.3105 72.9004L42.5293 72.2656L41.9922 71.8262L41.6504 71.4844L41.3086 71.0938L40.7227 70.4102L40.2344 69.6777L39.7949 68.9453L39.4043 68.2129L38.8672 66.7969L38.6719 66.0156L38.4277 64.6973L38.3301 64.4531L37.4023 63.7695L37.2559 63.6719H36.9629ZM57.2266 67.627L56.0059 68.2617L55.4199 68.5547L54.1016 69.043L52.8809 69.3359L51.9043 69.5312L50.9277 69.6289L49.7559 69.6777L48.3398 69.5801L47.5098 69.4336L46.1914 69.1406L44.6777 68.6035L43.6523 68.1152L42.9688 67.7246L42.7734 67.6758L42.8223 67.8711L43.2129 68.457L43.75 69.0918L43.8477 69.2383H43.9453V69.3359L44.3359 69.6777L44.9219 70.166L45.6543 70.6543L46.3867 71.0449L47.5586 71.4844L48.6816 71.7285L49.8047 71.8262L50.8301 71.7773L51.5625 71.6797L52.3926 71.4844L53.3691 71.1426L54.3457 70.6543L55.3223 69.9707L56.1035 69.2383L56.6895 68.6035L57.1777 67.8711L57.2754 67.627H57.2266ZM29.6387 68.9453L29.0527 69.9707L28.6621 70.7031L28.125 72.0703L27.832 73.1445L27.6367 74.1211L27.4902 75.6348V86.4258H33.5938V77.7344L33.4961 76.5625L33.3008 75.293L32.959 73.9258L32.666 73.0469L32.1289 71.8262L31.7383 71.0938L31.25 70.4102L30.7129 69.8242L30.2246 69.3359L29.7363 68.9453H29.6387ZM27.4902 89.6484V96.8262H33.5449L33.5938 96.7773V89.6484H27.4902ZM66.4062 89.6484L66.3574 90.1855V96.7773L66.4062 96.8262H72.3633L72.5098 96.7773V89.6484H66.4062Z" fill="white"/>
<path d="M51.416 40.6738L51.9531 40.7227L52.4414 40.918L52.832 41.2598L53.0762 41.6992L53.1738 41.9922L53.2227 42.6758V46.7773L53.1738 48.877L53.0273 49.3164L52.7344 49.7559L52.3438 50.0488L51.9531 50.1953L51.6113 50.2441H48.2422L47.7051 50.0977L47.2656 49.7559L46.9727 49.3652L46.8262 48.9746V48.291L47.0703 47.7051L47.4121 47.3633L47.998 47.0703L48.2422 47.0215H49.9512V42.334L50.0488 41.7969L50.293 41.3086L50.7324 40.918L51.1719 40.7227L51.416 40.6738Z" fill="white"/>
<path d="M45.6055 54.3945H46.1426L46.582 54.541L47.2656 55.0293L47.7051 55.3711L48.4863 55.7617L49.1211 55.957L49.5117 56.0059H50.4883L51.2207 55.8594L51.8066 55.6152L52.3438 55.3223L53.0762 54.7363L53.5156 54.4922L53.8574 54.3945H54.3945L54.9316 54.5898L55.3711 54.9805L55.6152 55.4199L55.7129 55.7617V56.25L55.5664 56.6895L55.1758 57.2266L54.6387 57.666L54.0039 58.1543L53.0762 58.6426L52.2949 58.9355L51.3184 59.1797L50.0977 59.3262L49.3652 59.2773L48.3398 59.1309L47.1191 58.7402L45.9961 58.1543L45.3125 57.6172L44.7754 57.1777L44.4336 56.6895L44.2871 56.2988V55.7617L44.4336 55.2734L44.7266 54.8828L45.0684 54.5898L45.3613 54.4434L45.6055 54.3945Z" fill="white"/>
<path d="M59.2773 32.8125L60.1562 32.8613L61.0352 33.0078L62.0605 33.3496L62.9883 33.8379L63.5254 34.2285L64.209 34.8145L64.5508 35.3516L64.6484 35.6934V36.2305L64.4531 36.7188L64.1113 37.1582L63.7207 37.4023L63.4277 37.5H62.6953L62.3047 37.3535L61.8164 37.0117L61.2793 36.6211L60.5957 36.2793L60.1074 36.1328L59.3262 36.084L58.5449 36.1816L57.9102 36.4258L57.3242 36.7676L56.7871 37.207L56.3477 37.4512L55.6641 37.5488L55.2246 37.4512L54.7363 37.1582L54.4434 36.8164L54.248 36.4258L54.1992 36.2305V35.6445L54.3945 35.1074L54.834 34.6191L55.4688 34.082L56.1035 33.6914L56.8848 33.3008L57.6172 33.0566L58.252 32.9102L59.2773 32.8125Z" fill="white"/>
<path d="M40.4297 32.8125L41.3574 32.8613L42.1875 33.0078L43.2129 33.3496L44.1406 33.8379L44.6777 34.2285L45.3125 34.7656L45.6055 35.1562L45.8008 35.6445V36.2305L45.5566 36.8164L45.2637 37.1582L44.7754 37.4512L44.5801 37.5H43.7988L43.3594 37.3047L42.5781 36.7188L42.0898 36.4258L41.5527 36.2305L41.2109 36.1328L40.4785 36.084L39.7461 36.1816L39.0625 36.4258L38.4766 36.7676L37.9395 37.207L37.5 37.4512L37.3047 37.5H36.5723L36.084 37.3047L35.6934 36.9629L35.4004 36.377L35.3516 36.2305V35.6445L35.5957 35.0586L36.0352 34.5703L36.8164 33.9355L38.1348 33.252L39.1602 32.959L40.4297 32.8125Z" fill="white"/>
<path d="M40.332 40.4785H40.8203L41.2598 40.625L41.6992 40.918L41.9922 41.3086L42.1387 41.6992L42.1875 41.9434V44.7754L41.9922 45.4102L41.5527 45.8984L41.0645 46.1426L40.6738 46.2402L40.2344 46.1914L39.7461 45.9961L39.3066 45.6055L39.0137 45.0195L38.9648 44.7754V41.8945L39.1113 41.4062L39.4043 40.9668L39.7461 40.6738L40.1367 40.5273L40.332 40.4785Z" fill="white"/>
<path d="M59.1309 40.4785H59.668L60.2051 40.6738L60.6445 41.0156L60.8887 41.4062L61.0352 41.9434V44.7266L60.8887 45.2637L60.5957 45.7031L60.2539 45.9961L59.7168 46.1914L59.2773 46.2402L58.7402 46.0938L58.3496 45.8008L58.0078 45.4102L57.8613 45.0195L57.8125 44.7754V41.8945L57.959 41.4062L58.252 40.9668L58.5938 40.6738L59.1309 40.4785Z" fill="white"/>
<path d="M54.3945 75.6348H54.834L55.3223 75.7812L55.7129 76.0742L56.0059 76.416L56.2012 76.8555L56.25 77.3438L56.1523 77.7832L55.8594 78.2715L55.4688 78.6133L54.9805 78.8086L54.4922 78.8574L53.9551 78.7109L53.6621 78.5156L53.3203 78.1738L53.0762 77.6855L53.0273 77.4902V76.9531L53.2227 76.4648L53.418 76.1719L53.7598 75.8789L54.1992 75.6836L54.3945 75.6348Z" fill="white"/>
</svg>
