<svg width="100" height="100" viewBox="0 0 100 100" fill="none" xmlns="http://www.w3.org/2000/svg">
<path d="M43.3594 0H44.5801L45.752 0.292969L46.4355 0.537109L47.6074 1.07422L48.4375 1.66016L48.9258 2.05078L49.8535 2.97852L50.0977 2.7832L50.4395 2.39258L50.9766 1.9043L51.416 1.5625L51.9043 1.2207L52.7344 0.830078L53.3691 0.537109L54.8828 0.146484L55.127 0.0976562H55.5176V0H57.7148L57.9102 0.195312L58.3008 0.488281L58.5938 0.878906L58.7891 1.36719V2.00195L58.5938 2.53906L58.252 2.97852L57.9102 3.22266L57.1777 3.41797L55.6641 3.56445L54.6387 3.80859L53.7598 4.19922L53.1738 4.63867L52.832 4.93164L52.3926 5.56641L52.1484 6.00586H52.5879L54.3945 6.25L56.1035 6.5918L57.2266 6.88477L58.7891 7.37305L60.6445 8.10547L62.3535 8.93555L63.4766 9.57031L64.3555 10.1074L65.4785 10.8887L66.2598 11.4746L66.7969 11.9141L67.627 12.5977L68.4082 13.3301L69.3848 14.3066L69.7266 14.6973L70.3125 15.3809L70.8496 16.0156L71.2402 16.5527L71.875 17.4316L72.5586 18.5059L73.1445 19.4824L73.877 20.8984L74.2188 21.6309L74.8535 23.1934L75.293 24.5117L75.6836 25.8789L76.0742 27.5879L77.2949 27.7344L78.2227 27.9785L78.9551 28.2715L79.834 28.7598L80.5176 29.2969L81.0059 29.7363L81.4453 30.2246L81.9336 30.9082L82.4219 31.7871L82.8125 32.959L82.959 33.7402L83.0078 34.2773V35.0586L82.9102 35.9375L82.6172 37.0117L82.2266 37.8906L81.8359 38.5742L81.3477 39.209L81.0547 39.5508H80.957V39.6484H80.8594L80.7617 39.8438L80.127 40.332L79.5898 40.6738L78.7598 41.1133L77.7344 41.4551L77.6855 41.5039V44.1406L77.4414 46.2891L77.2461 47.3633L76.8555 48.9258L76.3672 50.3906L75.6836 52.0508L75.1465 53.0762L74.5117 54.1992L73.9746 54.9805L73.4863 55.6641L72.998 56.2988L72.6562 56.7383H72.5586L72.4609 56.9336L72.0703 57.3242L72.0215 57.4219H71.9238L71.8262 57.6172L71.0938 58.3496L70.5566 58.8379L70.0195 59.2773L69.1895 59.9609L68.3594 60.5957L67.6758 61.084L67.041 61.5234L66.8457 61.6699L68.7012 62.5977L69.9707 63.3789L70.8984 64.0625L71.6797 64.6973L72.168 65.1367L73.1934 66.1621L73.5352 66.748L73.6328 67.1875L73.584 67.6758L73.3887 68.1641L73.0469 68.6035L72.5586 68.8965L72.0215 69.043L71.5332 68.9941L71.0938 68.8477L70.6055 68.457L69.9707 67.8223L69.8242 67.7246V67.627L69.6289 67.5293L68.9453 66.9434L68.2129 66.4062L67.2852 65.8203L66.0645 65.1855L65.918 65.8203L65.6738 66.8945L65.2832 68.2129L64.7461 69.5312L64.1602 70.7031L63.623 71.582L63.0371 72.4121L62.4023 73.2422L61.7676 73.9258L61.5234 74.2188L61.1328 74.5605L60.6445 75.0488L60.1562 75.4395L59.5215 75.9277L58.4961 76.6113L57.7148 77.0508L56.7871 77.5391L55.8594 77.9297L54.3945 78.418L53.125 78.7109L51.9043 78.9062L50.8789 79.0039H49.3652L47.7051 78.8574L46.4844 78.6133L45.2637 78.3203L43.457 77.6367L42.6758 77.2461L41.5039 76.6113L40.7715 76.123L39.8926 75.4395L39.209 74.9023L37.9395 73.6328L37.5 73.0957L37.0117 72.4609L36.377 71.582L35.8887 70.752L35.1562 69.3359L35.0098 68.8477V68.3105L35.2051 67.7734L35.498 67.334L35.9863 66.9922L36.4746 66.8457H36.9629L37.4512 66.9922L37.8906 67.2852L38.2812 67.7734L38.916 68.9941L39.3066 69.6777L39.9414 70.5566L40.4785 71.2402L41.6504 72.4121L42.2852 72.9004L43.0176 73.4375L44.043 74.0234L44.8242 74.4141L46.0938 74.9023L47.0215 75.1465L48.2422 75.3906L49.4141 75.4883H50.9277L52.0996 75.3418L53.418 75.0488L54.5898 74.6582L55.7617 74.1211L56.6406 73.6328L57.5195 72.998L58.3008 72.4121L59.7656 70.9473L60.2539 70.3125L60.7422 69.5801L61.084 69.043L61.4746 68.2617L62.0117 66.9434L62.3535 65.7227L62.5488 64.8438L62.0117 65.1855L61.084 65.8691L59.3262 67.1387L58.4473 67.7246L57.6172 68.2129L56.8359 68.6035L56.1035 68.9453L54.8828 69.3848L52.9297 69.873L52.002 70.0195L50.7324 70.1172H49.1699L47.5098 69.9707L45.2637 69.4336L44.1406 69.043L43.2617 68.6523L42.4805 68.2617L41.6016 67.7734L40.5273 67.041L39.5996 66.3574L38.7207 65.7227L37.793 65.0391L36.9141 64.4043L36.7676 64.3066L36.377 64.3555L35.1562 64.6973L33.9355 65.1855L33.1543 65.5762L32.2754 66.0645L31.4941 66.6016L30.8105 67.1387L30.3223 67.5781L29.9316 67.9688L29.5898 68.3594L29.0039 68.9453L28.418 69.7754L27.7344 70.8008L27.2461 71.6797L26.8066 72.7051L26.3184 74.1699L26.0254 75.5371L25.8789 77.0508L25.8301 96.5332H27.9785L32.373 96.582V81.1523L32.4707 80.5176L32.7148 80.0293L32.959 79.7363L33.3984 79.4434L33.6914 79.3457L34.2285 79.2969L34.7168 79.3945L35.1562 79.6387L35.4004 79.834L35.7422 80.3711L35.8398 80.7129L35.8887 81.3477V96.582L64.0625 96.5332L64.1113 81.0547L64.2578 80.3711L64.5508 79.8828L64.9414 79.541L65.3809 79.3457L65.9668 79.2969L66.4551 79.3945L66.8945 79.6387L67.2852 80.0293L67.4805 80.3711L67.5781 80.8105V96.5332H74.1211V77.2461L74.0234 75.9766L73.8281 74.8047L73.5352 73.6816L73.291 72.8516L73.2422 72.6074V72.0215L73.4863 71.4355L73.9258 70.9473L74.4141 70.7031L74.6094 70.6543H75.293L75.8301 70.8496L76.2695 71.2402L76.6113 71.8262L76.9531 72.8516L77.2461 74.0234L77.4902 75.4395L77.5879 76.4648L77.6367 77.3438V98.3398L77.4902 98.9258L77.1973 99.4141L76.8066 99.7559L76.2695 100H23.7305L23.0469 99.6582L22.6074 99.1699L22.4121 98.6816L22.3633 98.4375L22.3145 97.2168V81.3965L22.3633 76.8555L22.4609 75.6836L22.7051 74.2188L22.9492 73.1934L23.1934 72.4121L23.6816 71.1426L24.1699 70.0195L24.9023 68.75L25.4395 67.8711L26.123 67.041L26.4648 66.6016L26.9531 65.9668H27.0508V65.8691H27.1484V65.7715L27.5391 65.4297L28.3203 64.6973L28.5156 64.5996V64.502L29.1992 63.9648L30.3711 63.1836L30.8594 62.8418L31.6406 62.4023L32.4219 62.0117L33.1055 61.7188L32.8613 61.4746L32.0801 60.8887L31.25 60.3027L30.4199 59.6191L29.8828 59.1797L29.248 58.6426L28.8574 58.3008L28.125 57.5684L27.7832 57.1777L27.4414 56.8359L27.002 56.2988L26.5137 55.6641L25.8301 54.6875L25.3418 53.9551L24.5605 52.4902L24.1699 51.709L23.6328 50.3906L23.291 49.4629L22.9004 47.9492L22.6074 46.6309L22.3633 44.6777L22.3145 44.1895V42.4805L22.3633 41.4551L21.9238 41.3574L21.1426 41.0645L20.2148 40.5762L19.6289 40.1367L19.1406 39.6973L18.6035 39.1602L17.9688 38.2812L17.5781 37.5L17.334 36.9141L17.041 35.6934L16.9922 35.2051V34.1309L17.1387 33.1055L17.4805 32.0312L17.8711 31.25L18.2129 30.6641L18.75 29.9805L19.043 29.6387L19.5801 29.1992L20.0684 28.8086L21.0938 28.2227L21.7285 27.9785L22.6562 27.7344L23.877 27.5879L24.0234 27.1484L24.4141 25.4883L25 23.584L25.3906 22.5586L26.0254 21.0938L26.6113 19.9219L27.1484 18.9453L27.5879 18.2617L28.125 17.4316L28.5156 16.8945L29.2969 15.8691L29.6387 15.4297L30.127 14.8926L30.1758 14.7949H30.2734L30.3711 14.5996L30.8105 14.1602L31.1523 13.7695L31.6895 13.2324L32.0801 12.8906L32.5195 12.4512L33.1543 12.0117L33.5449 11.8652H34.3262L34.8145 12.0605L35.3027 12.5L35.5957 13.0859L35.6445 13.2812V13.8672L35.498 14.3066L35.1074 14.8438L34.7168 15.2344L34.3262 15.5762L33.9844 15.918H33.8867V16.0156L33.4961 16.3574L32.9102 16.9922L32.4707 17.5293L32.0801 17.9688L31.4941 18.75L30.9082 19.5801L30.3223 20.5078L29.541 21.875L29.1016 22.8516L28.7598 23.584L28.2227 25.0488L27.9297 25.9766L27.4902 27.7344L27.1973 29.4922L26.9531 31.5918L26.0742 39.502L25.9277 40.9668L25.8301 42.3828V43.9941L26.0254 45.8496L26.416 47.6562L27.002 49.4141L27.4414 50.4395L28.2715 52.0508L28.7598 52.7832L29.3457 53.6133L29.834 54.248L30.3711 54.834L30.957 55.4688L31.4453 55.957L31.9824 56.3965L32.666 56.9824L33.6426 57.7148L34.375 58.252L35.0586 58.7402L35.9375 59.375L36.8652 60.0586L38.623 61.3281L39.5508 62.0117L40.2344 62.5L41.1621 63.1836L42.041 63.8184L42.8711 64.4043L43.6035 64.8438L44.4336 65.332L45.9473 65.9668L46.7773 66.2109L48.0957 66.5039L49.8047 66.6504L50.8301 66.6016L51.8555 66.5039L53.3691 66.1621L54.1504 65.918L55.5664 65.332L56.7871 64.5996L57.666 64.0137L58.5449 63.3789L59.4727 62.6953L60.1562 62.207L61.084 61.5234L62.8418 60.2539L63.7695 59.5703L64.4531 59.082L65.332 58.4473L66.2598 57.7637L66.9922 57.2266L67.5293 56.7871L68.1641 56.25L68.7012 55.8105L69.1895 55.3223L69.2383 55.2246H69.3359L69.4336 55.0293L69.873 54.5898L70.2148 54.1992L70.7031 53.5645L71.4355 52.4902L71.8262 51.8555L72.5586 50.4395L72.9492 49.5117L73.3887 48.2422L73.584 47.5586L73.9258 46.0449L74.1211 44.3359L74.1699 43.7012V42.9199L74.0723 41.0156L73.4863 35.5957L72.8516 29.8828L72.5098 27.7832L72.168 26.3672L71.8262 25.1953L71.2402 23.584L70.7031 22.4121L70.3125 21.582L69.6289 20.4102L69.1895 19.6777L68.6523 18.9453L68.1641 18.2617L67.627 17.627L67.041 16.9434L66.5039 16.3574L65.8203 15.6738L65.4297 15.332L64.9414 14.8926L64.4043 14.4531L63.7207 13.916L62.9395 13.3789L62.207 12.8906L61.1816 12.3047L60.1074 11.7188L58.5449 11.0352L57.3242 10.5957L56.0547 10.2051L54.1504 9.76562L52.3438 9.52148L50.8301 9.42383H49.2188L47.1191 9.57031L45.1172 9.91211L44.2871 10.1074L42.1875 10.7422L39.8926 11.7188L39.209 11.9141L38.5254 11.8652L38.0371 11.6211L37.793 11.4258L37.4512 10.8887L37.3047 10.4492V9.91211L37.5 9.375L37.793 8.98438L38.3301 8.59375L39.6973 7.95898L40.8203 7.51953L42.5781 6.93359L43.7012 6.64062L45.2637 6.29883L47.4609 6.00586H47.6562L47.4609 5.66406L47.1191 5.17578L46.9238 4.93164L46.5332 4.58984L46.0449 4.24805L45.2148 3.80859L44.4336 3.56445L43.457 3.36914L43.0176 3.17383L42.6758 2.92969L42.334 2.44141L42.1875 2.00195V1.41602L42.4316 0.78125L42.8223 0.341797L43.3594 0ZM23.4375 31.1035L22.7051 31.2988L22.1191 31.5918L21.6309 31.9824L21.2402 32.373L20.8984 32.8613L20.6543 33.3984L20.459 34.1797V34.9609L20.6055 35.7422L20.9961 36.5723L21.3379 37.0117L21.7773 37.4512L22.6074 37.9395H22.7051L22.8027 37.5488L23.4375 31.7871L23.4863 31.1035H23.4375ZM76.5137 31.1523L76.5625 31.9336L77.0996 36.7676L77.2461 37.9395L77.5391 37.8418L78.2227 37.4512L78.418 37.2559V37.1582H78.5156L78.8574 36.7676L79.248 36.084L79.4434 35.5469L79.541 34.8633V34.1797L79.3457 33.3984L78.9551 32.6172L78.418 32.0312L78.0273 31.6895L77.2461 31.2988L76.7578 31.1523H76.5137Z" fill="white"/>
<path d="M45.2148 52.7344H45.9473L46.4355 52.9297L47.6074 53.8086L48.3887 54.1992L49.0723 54.3945L49.4141 54.4434H50.5859L51.416 54.248L52.1973 53.9062L52.7832 53.5156L53.3203 53.0762L53.7109 52.832L54.0527 52.7344H54.7852L55.2734 52.9297L55.6641 53.2227L55.957 53.6133L56.1035 54.0527L56.1523 54.541L56.0059 55.127L55.6641 55.6152L55.3223 55.957L54.834 56.3477L54.1992 56.7871L53.0762 57.373L51.8066 57.7637L51.0254 57.9102L50.5859 57.959H49.3652L48.3398 57.8125L47.168 57.4707L46.7285 57.2754L45.7031 56.7383L45.0684 56.25L44.5312 55.8105L44.1406 55.3711L43.8965 54.8828L43.8477 54.6387V54.248L43.9941 53.7109L44.3359 53.2227L44.7266 52.9297L45.2148 52.7344Z" fill="white"/>
<path d="M39.209 37.1582H40.5762L41.5039 37.3047L42.4805 37.5977L43.4082 38.0371L43.9453 38.3789L44.6289 38.916L45.0195 39.2578L45.3125 39.6973L45.5078 40.2344V40.6738L45.3613 41.1621L45.0684 41.6016L44.6777 41.9434L44.1895 42.1387L43.9453 42.1875L43.3105 42.1387L42.8223 41.8945L42.2363 41.4551L41.748 41.1133L41.1133 40.8203L40.5762 40.6738L40.2344 40.625H39.5996L38.9648 40.7227L38.3789 40.918L37.6953 41.3086L37.0117 41.8457L36.4258 42.1387L35.791 42.1875L35.2539 42.041L34.7656 41.6992L34.4238 41.2109L34.2773 40.8203V40.1855L34.4238 39.6973L34.7656 39.2578L35.4004 38.6719L36.084 38.1836L36.9141 37.7441L37.6953 37.4512L38.4277 37.2559L39.209 37.1582Z" fill="white"/>
<path d="M59.4238 37.1582H60.8398L61.7188 37.3047L62.8418 37.6465L63.9648 38.2324L64.5508 38.6719L65.1855 39.209L65.5273 39.6484L65.7227 40.1855V40.7715L65.5273 41.3086L65.1367 41.7969L64.4531 42.1387L63.8184 42.1875L63.3789 42.0898L62.8418 41.748L62.207 41.2598L61.4746 40.8691L60.8398 40.6738L60.4492 40.625H59.7656L59.0332 40.7715L58.5449 40.9668L58.0078 41.2598L57.1777 41.8945L56.7871 42.0898L56.3965 42.1875L55.7617 42.1387L55.3223 41.9434L54.9316 41.6016L54.6387 41.1621L54.4922 40.7227V40.2344L54.6387 39.7949L54.8828 39.3555L55.2734 38.9648L55.9082 38.4766L56.3965 38.1348L57.1777 37.7441L57.8125 37.5L58.6914 37.2559L59.4238 37.1582Z" fill="white"/>
<path d="M48.3887 44.043H51.5625L52.1484 44.1895L52.5879 44.4824L52.8809 44.8242L53.0762 45.2148L53.125 45.4102V46.1914L52.832 46.7773L52.5879 47.0703L52.0996 47.3633L51.709 47.4609L51.2695 47.5098H48.584L47.9004 47.3633L47.5586 47.168L47.2656 46.9238L46.9727 46.4844L46.8262 45.9473L46.875 45.3613L47.0703 44.873L47.3633 44.4824L47.9492 44.1406L48.3887 44.043Z" fill="white"/>
</svg>
