<svg width="100" height="100" viewBox="0 0 100 100" fill="none" xmlns="http://www.w3.org/2000/svg">
<path d="M83.7402 2.09961H84.082L84.5215 2.24609L84.9609 2.63672L85.4492 3.32031L86.084 4.44336L86.7676 5.61523L87.4023 6.73828L88.1348 8.00781L88.916 9.375L89.6484 10.6445L90.2832 11.7676L90.9668 12.9395L91.4551 13.8184L92.1387 14.9902L92.8223 16.2109L93.5059 17.3828L93.9453 18.1641L94.3359 18.7988L94.6289 19.3359L96.582 22.7539L98.0469 25.293L98.6816 26.416L99.3652 27.5879L99.8047 28.3691L100 28.7598V29.9316L99.8535 30.0781L99.5117 30.4688L99.2676 30.6641L98.8281 30.8105L98.2422 30.8594H93.1152V95.6543L93.0176 96.4355L92.7734 97.168L92.4316 97.6074L92.2852 97.7051L92.041 97.7539H75.9277L75.4883 97.6074L75 97.2168L74.5605 96.6797L74.2676 96.0938L74.1699 95.7031L74.1211 95.2148V30.957L74.1699 30.8594H69.5312L68.8965 30.7617L68.4082 30.4688L68.0664 29.9805L67.9688 29.6875V29.0527L68.2129 28.3691L68.9453 27.0508L69.6289 25.8789L70.3125 24.6582L71.0449 23.3887L71.7285 22.168L72.3145 21.1426L73.0469 19.873L73.6816 18.75L74.3652 17.5781L75.0977 16.2598L75.7812 15.0879L76.2695 14.209L77.2461 12.5L77.8809 11.377L80.6152 6.5918L81.25 5.46875L81.9336 4.29688L82.6172 3.07617L83.0566 2.49023L83.4473 2.19727L83.7402 2.09961Z" fill="white"/>
<path d="M7.27539 43.8965H11.2793L11.5723 44.3359L12.2559 45.5566L13.4277 47.6074L14.1113 48.7793L14.7949 50L15.4785 51.1719L16.1621 52.3926L16.8457 53.5645L17.041 53.9551H17.1387L17.4316 53.3691L18.1152 52.1973L18.7988 50.9766L19.2871 50.1465L22.4121 44.6777L22.8516 43.9453L22.9004 43.8965H26.8066L27.8809 43.9941L29.1016 44.2871L29.9316 44.5801L30.957 45.0684L31.8848 45.7031L32.373 46.0938L33.252 46.9727L33.7402 47.6562L34.2773 48.584L34.668 49.6582L34.8145 50.3418L34.9121 51.2207V68.9941L34.7656 69.6289L34.375 70.4102L33.8379 71.0449L33.3496 71.4844L32.7148 71.875L31.9336 72.2168L31.2012 72.4121L30.8105 72.4609H30.2246L29.5898 72.3633L28.9062 72.168L28.125 71.7773L27.5879 71.4355L26.9531 70.8496L26.5137 70.2148L26.2695 69.6777L26.2207 92.334L26.1719 93.5547L26.0254 94.2871L25.7812 95.0195L25.3418 95.8496L24.9512 96.3379L24.5117 96.8262L23.7305 97.3633L23.0469 97.6562L22.168 97.8516H20.9961L20.2148 97.7051L19.4824 97.4121L18.8965 97.0703L18.2617 96.4844L17.9688 96.1426L17.5781 95.5078L17.2852 94.7266L17.1387 93.9453L17.0898 93.457L16.9434 93.4082L16.9922 93.5547L16.8945 94.4824L16.6504 95.3125L16.3574 95.9473L16.0156 96.4844L15.4297 97.0703L14.8926 97.4121L14.1602 97.7051L13.4277 97.8516H12.2559L11.5723 97.7051L10.8887 97.4121L10.3027 96.9727L9.86328 96.5332L9.52148 96.0449L9.13086 95.3125L8.88672 94.5312L8.74023 93.75L8.69141 93.3105L8.64258 91.6992V69.7266L8.30078 70.3613L7.91016 70.8496L7.8125 70.9961H7.71484V71.0938L7.08008 71.582L6.39648 71.9727L5.66406 72.2656L5.0293 72.4121L4.58984 72.4609H4.05273L3.41797 72.3633L2.63672 72.1191L1.9043 71.7285L1.2207 71.1914L0.878906 70.8496L0.390625 70.166L0 69.3359V50.3418L0.195312 49.6094L0.537109 48.4863L1.02539 47.5098L1.36719 46.9727L1.95312 46.2891L2.29492 45.8984L2.7832 45.5078L3.32031 45.1172L4.19922 44.6289L4.73633 44.3848L6.00586 44.043L6.68945 43.9453L7.27539 43.8965Z" fill="white"/>
<path d="M42.1875 48.2422H60.8887L61.4258 48.291L61.8652 48.4863L62.2559 48.8281L62.5 49.2676L62.5488 49.5117V96.4355L62.4512 96.8262L62.1094 97.3633L61.6211 97.6562L60.9863 97.7539H42.0898L41.5039 97.6074L41.0156 97.168L40.8203 96.875L40.6738 96.2402V49.707L40.8203 49.1211L41.1133 48.7305L41.4551 48.4375L41.7969 48.291L42.1875 48.2422Z" fill="white"/>
<path d="M15.8691 19.2383H17.3828L18.5547 19.3848L19.7266 19.6777L20.6543 20.0195L21.582 20.459L22.3633 20.9473L23.0469 21.4844L23.584 21.9238L24.1699 22.4609L24.707 23.0957L25.1953 23.7305L25.6348 24.4141L26.1719 25.4395L26.4648 26.1719L26.7578 27.1973L26.9531 28.2715L27.0508 29.4434L27.002 30.5176L26.8555 31.6406L26.5625 32.8125L26.0742 34.0332L25.7324 34.7168L25.2441 35.498L25.0488 35.7422L24.6094 36.2793L24.0234 36.9629L23.6816 37.3047L22.4609 38.2812L21.3867 38.916L20.4102 39.3555L19.3359 39.6973L18.1641 39.9414L17.334 40.0391H15.8203L14.6973 39.8926L13.8672 39.6973L12.6953 39.3066L11.5723 38.7695L10.791 38.2812L10.1562 37.7441L9.66797 37.3535L9.08203 36.8164L8.64258 36.2793L8.10547 35.6445L7.61719 34.9121L7.12891 33.9844L6.73828 33.0078L6.44531 31.9824L6.25 30.8105L6.20117 30.3223V28.9551L6.34766 27.832L6.5918 26.7578L6.93359 25.7812L7.37305 24.8047L7.95898 23.8281L8.59375 23.0469L9.0332 22.5098L9.27734 22.2656L9.86328 21.7285L10.5469 21.1914L10.9375 20.8984L11.6699 20.459L12.4512 20.0684L13.1836 19.7754L14.209 19.4824L15.332 19.2871L15.8691 19.2383Z" fill="white"/>
</svg>
