<svg width="100" height="100" viewBox="0 0 100 100" fill="none" xmlns="http://www.w3.org/2000/svg">
<g clip-path="url(#clip0_112_1986)">
<path d="M0.292969 51.8555H22.3633L23.5352 51.9043L24.7559 52.0996L25.8301 52.3926L26.709 52.7832L27.4414 53.2227L28.125 53.7109L29.0039 54.3945L29.6875 55.0293L30.0781 55.3711L40.5762 65.8691L40.9668 66.2109L47.1191 72.3633L47.5586 72.9492L47.9492 73.7305L48.1445 74.3164L48.2422 75.1465L48.1934 75.9766L47.998 76.8066L47.7539 77.4414L47.3145 78.125L46.7285 78.7598L46.1914 79.1504L45.459 79.541L44.9219 79.7363L44.4336 79.834L43.9453 79.8828H43.4082L42.6758 79.7852L41.9434 79.541L41.3574 79.248L40.8203 78.8574L40.332 78.418L39.3555 77.4414L39.2578 77.3926V77.2949L39.0625 77.1973L36.9629 75.0977L36.8652 75.0488V74.9512L36.6699 74.8535L34.375 72.5586L33.9844 72.2168L32.1777 70.4102L31.7871 70.0684L30.8105 69.0918L30.5664 69.3359L29.9805 70.0195L29.4434 70.7031L29.1504 71.0449L29.1992 71.2402L29.5898 71.582L31.4941 73.4863L31.8848 73.8281L33.9844 75.9277L34.1309 76.0254V76.123L34.3262 76.2207L36.1328 78.0273L36.5234 78.3691L38.5742 80.4199L38.9648 80.7617L39.502 81.2012L40.2832 81.6406L41.1621 81.9824L42.2363 82.2266L43.3105 82.3242H43.9941L45.0195 82.2266L46.1426 81.9824L47.0215 81.6895L48.0469 81.1523L48.5352 80.7617L49.0234 80.3223L49.5605 79.6387L50.0488 78.9062L50.6348 77.832L51.0254 76.9043L51.123 76.6113H73.1445L73.9258 76.709L74.707 76.9531L75.6348 77.4414L76.123 77.832L76.6113 78.2715L77.0508 78.7598L77.4414 79.3945L77.7344 79.9805L77.9297 80.6152L78.0273 81.2012V81.8848L77.8809 82.8125L77.6855 83.4961L77.4414 84.1309L77.1484 84.7168L76.6602 85.4004L76.123 85.9863L75.4395 86.4746L74.7559 86.8164L73.9258 87.0605L73.1445 87.1582H36.7188L35.5957 86.9629L34.668 86.6699L33.8379 86.3281L33.0078 85.8887L32.4219 85.498L30.5176 84.0332L29.4922 83.252L28.7109 82.666L28.0762 82.1777L27.0508 81.3965L26.416 80.9082L25.3906 80.127L24.6094 79.541L23.7305 78.8574L22.9492 78.2715L22.0703 77.5879L21.2891 77.002L19.6289 75.7324L18.9941 75.2441L18.2129 74.6582L15.918 72.9004L15.1367 72.3145L14.2578 71.6309L13.4766 71.0449L12.5977 70.3613L11.8164 69.7754L11.377 69.4824H9.13086L0 69.5312V51.9531L0.292969 51.8555Z" fill="white"/>
<path fill-rule="evenodd" clip-rule="evenodd" d="M70.2969 11L70.4922 11.0488L71.2734 11.7812L71.6641 12.123L72.2988 12.709L72.7871 13.1484L73.5195 13.832L73.9102 14.1738L74.5449 14.7598L75.1309 15.2969L75.6191 15.7363L76.2539 16.3223L76.7422 16.7617L77.3281 17.2988L77.9629 17.8848L78.3535 18.2266L79.0859 18.9102L80.0625 19.7891L80.7461 20.4238L81.1367 20.7656L81.8691 21.4492L82.4551 21.9863L82.9434 22.4258L84.1152 23.5L84.6035 23.9395L85.7754 25.0137L86.2637 25.4531L86.8984 26.0391L87.3867 26.4785L87.9727 27.0156L88.6074 27.6016L88.998 27.9434L89.6816 28.5781L90.0723 28.9199L90.8047 29.6035L91.3906 30.1406L91.7812 30.4824L92.416 31.0684L93.002 31.6055L93.4902 32.0449L94.2227 32.7285L94.6133 33.0703L95.8828 34.2422L96.3711 34.6816L97.543 35.7559L98.0312 36.1953L98.7637 36.8789L99.1543 37.2207L99.3984 37.416L99.5449 37.5625L99.252 37.8066L98.9102 38.1973L98.5684 38.5391L98.2266 38.9297L97.4941 39.7109L97.1523 40.1016L96.7129 40.5898L95.541 41.8594L95.1016 42.3477L95.0039 42.4941L94.7598 42.3965L94.2715 41.9082L93.8809 41.5664L93.2461 40.9805L92.8555 40.6387L91.5859 39.4668L91 38.9297L90.5117 38.4902L90.1211 38.1484L89.877 37.9531L89.9258 38.2461L89.877 65.9805V70.2773L89.8281 70.3262H67.3672L67.3184 70.1309V53.5781L59.1641 53.5293V70.3262H50.5703L50.5215 70.2773L50.4727 37.8555L49.7402 38.5391L49.252 38.9785L48.8613 39.3203L48.373 39.7598L47.8359 40.248L47.2988 40.6875L46.4688 41.4688L45.9805 41.9082L45.5898 42.25L45.3945 42.2012L44.8574 41.6152L44.5156 41.2246L43.9785 40.6387L43.5391 40.1504L43.0996 39.6133L42.709 39.2227L42.3672 38.832L41.8789 38.2949L41.5371 37.9043L41.0977 37.416L41 37.2207L41.5371 36.7812L42.3184 36.0488L42.8555 35.6094L43.6855 34.8281L44.0762 34.4863L44.5645 34.0469L44.9551 33.7051L45.4434 33.2656L46.0293 32.7285L46.4199 32.3867L46.9082 31.9473L47.2988 31.6055L47.8848 31.0684L48.5684 30.4824L49.3496 29.75L49.7402 29.4082L50.2285 28.9688L50.4727 28.7246L50.5215 16.2246H57.4551L57.5039 22.4746L58.1875 21.8398L58.5781 21.498L59.1152 21.0098L59.5059 20.668L60.043 20.1797L60.4336 19.8379L61.0684 19.252L61.6055 18.8125L61.9473 18.4707L62.3379 18.1289L62.875 17.6406L63.2656 17.2988L63.7539 16.8594L64.1445 16.5176L64.7793 15.9316L65.1699 15.5898L65.6582 15.1504L66.0488 14.8086L66.6348 14.2715L67.3184 13.6855L67.9531 13.0996L68.4902 12.6113L68.8809 12.2695L69.3691 11.8301L69.7598 11.4883L70.2969 11ZM59.1641 37.3672H67.3184L67.3672 37.416V45.8145H59.1641L59.1152 45.7656V37.416L59.1641 37.3672ZM81.5762 37.3672H73.373V45.8145H81.5762V37.3672Z" fill="white"/>
</g>
<defs>
<clipPath id="clip0_112_1986">
<rect width="100" height="100" fill="white"/>
</clipPath>
</defs>
</svg>
