<svg width="98" height="100" viewBox="0 0 98 100" fill="none" xmlns="http://www.w3.org/2000/svg">
<g clip-path="url(#clip0_112_1232)">
<path d="M15.2481 97.137L13.8911 83.473C13.8911 82.216 15.4931 83.329 17.5141 83.329C19.5191 83.329 21.1401 82.216 21.1401 83.473L20.0041 96.799C20.0041 99.709 15.2481 98.524 15.2481 97.137Z" fill="white"/>
<path d="M9.43109 52.654C-0.522913 48.155 0.287088 41.072 0.287088 41.072C-0.968912 43.572 1.70309 65.381 12.0771 65.381C16.7191 65.381 20.6191 57.679 9.43109 52.654Z" fill="white"/>
<path d="M9.43109 37.244C-0.522913 32.759 0.287088 25.676 0.287088 25.676C-0.968912 28.17 1.70309 49.985 12.0771 49.985C16.7191 49.985 20.6191 42.283 9.43109 37.244Z" fill="white"/>
<path d="M9.43109 22.297C-0.522913 17.831 0.287088 10.735 0.287088 10.735C-0.968912 13.235 1.70309 35.031 12.0771 35.031C16.7191 35.031 20.6191 27.349 9.43109 22.297Z" fill="white"/>
<path d="M23.2331 65.381C33.6071 65.381 36.2661 43.572 35.0231 41.072C35.0231 41.072 35.8271 48.155 25.8671 52.654C14.6911 57.679 18.5781 65.381 23.2331 65.381Z" fill="white"/>
<path d="M9.43109 68.434C-0.522913 63.936 0.287088 56.853 0.287088 56.853C-0.968912 59.353 1.70309 81.162 12.0771 81.162C16.7191 81.162 20.6191 73.46 9.43109 68.434Z" fill="white"/>
<path d="M23.2331 81.162C33.6071 81.162 36.2661 59.353 35.0231 56.853C35.0231 56.853 35.8271 63.936 25.8671 68.434C14.6911 73.46 18.5781 81.162 23.2331 81.162Z" fill="white"/>
<path d="M23.2331 49.985C33.6071 49.985 36.2661 28.17 35.0231 25.676C35.0231 25.676 35.8271 32.759 25.8671 37.244C14.6911 42.283 18.5781 49.985 23.2331 49.985Z" fill="white"/>
<path d="M23.2331 35.031C33.6071 35.031 36.2661 13.235 35.0231 10.735C35.0231 10.735 35.8271 17.831 25.8671 22.297C14.6911 27.349 18.5781 35.031 23.2331 35.031Z" fill="white"/>
<path d="M18.376 23.462C29.381 23.462 17.771 0 17.771 0C16.371 2.207 7.37397 23.462 18.376 23.462Z" fill="white"/>
<path d="M48.1311 98.967L54.7721 87.346C55.2991 86.227 53.3661 86.533 51.5521 85.7C49.7101 84.846 48.7271 83.161 48.2021 84.3L43.6751 97.255C43.0921 98.524 46.8971 101.597 48.1311 98.967Z" fill="white"/>
<path d="M57.1341 54.47C50.0161 46.196 53.7231 40.115 53.7231 40.115C51.5331 41.853 44.7751 62.764 54.1721 67.132C58.3841 69.092 65.1681 63.753 57.1341 54.47Z" fill="white"/>
<path d="M63.6321 40.486C56.5101 32.231 60.2141 26.151 60.2141 26.151C58.0201 27.883 51.2521 48.787 60.6561 53.169C64.8821 55.122 71.6521 49.796 63.6321 40.486Z" fill="white"/>
<path d="M69.9271 26.945C62.7851 18.703 66.5091 12.597 66.5091 12.597C64.3211 14.335 57.5581 35.233 66.9651 39.614C71.1771 41.561 77.9541 36.242 69.9271 26.945Z" fill="white"/>
<path d="M64.2959 71.845C73.7019 76.2 85.3109 57.562 85.2189 54.756C85.2189 54.756 82.9729 61.521 72.0419 61.397C59.7899 61.267 60.0769 69.874 64.2959 71.845Z" fill="white"/>
<path d="M50.494 68.78C43.362 60.511 47.07 54.438 47.07 54.438C44.882 56.169 38.122 77.074 47.526 81.428C51.75 83.388 58.515 78.063 50.494 68.78Z" fill="white"/>
<path d="M57.6479 86.142C67.0479 90.517 78.6569 71.859 78.5789 69.066C78.5789 69.066 76.3259 75.83 65.4019 75.707C53.1439 75.576 53.4369 84.189 57.6479 86.142Z" fill="white"/>
<path d="M70.793 57.869C80.193 62.237 91.794 43.573 91.716 40.786C91.716 40.786 89.464 47.544 78.54 47.427C66.274 47.296 66.574 55.922 70.793 57.869Z" fill="white"/>
<path d="M77.0881 44.3011C86.4951 48.6821 98.0831 30.0311 98.0051 27.2321C98.0051 27.2321 95.7461 34.0151 84.8351 33.8721C72.5761 33.7421 72.8761 42.3551 77.0881 44.3011Z" fill="white"/>
<path d="M77.5499 31.7631C87.5239 36.3981 86.8859 10.2271 86.8859 10.2271C84.6859 11.6601 67.5759 27.1271 77.5499 31.7631Z" fill="white"/>
</g>
<defs>
<clipPath id="clip0_112_1232">
<rect width="98.005" height="100" fill="white"/>
</clipPath>
</defs>
</svg>
