<svg width="100" height="100" viewBox="0 0 100 100" fill="none" xmlns="http://www.w3.org/2000/svg">
<path d="M47.6562 6.17213C43.7891 6.64088 40.5078 8.08619 36.0156 11.3674L32.9297 13.594L41.2109 13.6331C45.7812 13.6331 53.2422 13.6331 57.8906 13.6331L66.2891 13.594L64.0234 11.6018C61.5234 9.45338 59.8047 8.32057 57.5391 7.46119C54.5703 6.28932 50.6641 5.78151 47.6562 6.17213Z" fill="white"/>
<path d="M37.2266 32.6565C36.0547 32.969 34.8828 33.5549 34.5313 33.9456C34.3359 34.219 34.3359 34.2971 34.6094 34.6096C34.9219 34.9221 36.4453 35.5471 37.7734 35.8206L38.2812 35.9377V34.1799C38.2812 33.2034 38.2813 32.3831 38.2422 32.4221C38.2422 32.3831 37.7734 32.5393 37.2266 32.6565Z" fill="white"/>
<path d="M51.9922 39.8049C51.9922 41.1331 52.0312 41.4846 52.2656 41.4846C52.9297 41.4846 55.0391 40.6643 55.5859 40.2346L56.1719 39.7268L55.6641 39.2971C55.1562 38.8674 53.0469 38.1252 52.3437 38.1252C52.0312 38.1252 51.9922 38.2815 51.9922 39.8049Z" fill="white"/>
<path d="M9.45314 30.6645C6.87501 32.5786 5.93751 33.5552 5.1172 35.1177C3.78907 37.6958 3.90626 35.8208 3.90626 61.9146V85.4302L4.33595 86.7583C5.50782 90.5083 8.5547 93.2427 12.1875 93.8286C13.125 93.9458 24.9219 94.0239 50.8594 93.9849L88.2031 93.9458L89.4141 93.5161C92.2656 92.5395 94.5313 90.2349 95.625 87.2661L96.0938 86.0552V61.9927V37.852L95.6641 36.602C95.0391 34.7661 93.6719 32.9302 92.0313 31.7192C89.2578 29.6489 88.5156 29.1411 88.3203 29.1411C88.2031 29.1411 88.125 31.6021 88.125 36.8364C88.125 43.5942 88.0859 44.5317 87.8125 44.9614C87.3047 45.6645 60.625 63.3599 58.6328 64.2974C53.1641 66.8755 46.7969 66.8755 41.1328 64.1411C39.4922 63.3599 12.6563 45.4692 12.3047 44.9224C12.0703 44.5708 11.9922 43.1645 11.9141 36.7583L11.8359 29.0239L9.45314 30.6645Z" fill="white"/>
<path d="M40.3125 58.9065C42.3828 60.2737 43.3594 60.7424 45.0781 61.3284C49.0234 62.6174 53.4375 62.3049 57.1484 60.469C58.2422 59.9612 61.2109 58.0862 61.2109 57.9299C61.2109 57.8909 56.1328 57.8518 49.9609 57.8518H38.7109L40.3125 58.9065Z" fill="white"/>
<path fill-rule="evenodd" clip-rule="evenodd" d="M16.4063 18.4769C16.6797 18.2035 17.0703 17.891 17.2656 17.8129C17.4609 17.6957 32.1875 17.6176 49.9609 17.6176C81.4978 17.5822 83.1149 17.5469 83.6591 18.2935C83.7161 18.3718 83.7614 18.4587 83.8281 18.5551C84.1016 18.9457 84.1406 20.1957 84.1406 30.8598V42.7348L80.8203 44.8051C79.0234 45.9379 75 48.4379 71.9531 50.3129L66.3672 53.7504H50.2734H34.1797L32.3047 52.5004C30.5859 51.3676 23.7891 47.266 18.1641 43.9848L15.8594 42.6176L15.8984 30.7816L15.9375 18.9848L16.4063 18.4769ZM56.5262 32.5546L57.2634 30.1L54.2568 30.08C54.1335 29.3841 53.9103 28.7359 53.5873 28.1355C53.4452 27.8661 53.2817 27.6121 53.0968 27.3736L56.5603 27.4238L57.2976 24.9692L46.9104 24.9002C46.9098 24.9002 46.9093 24.9002 46.9088 24.9002L46.4847 24.8973L43.5589 24.8779L42.8223 27.2477L45.7481 27.2671L47.3999 27.2911C48.7566 27.3715 49.7795 27.745 50.4686 28.4116C50.9366 28.86 51.2613 29.4099 51.4426 30.0613L43.5248 30.0087L42.7876 32.4632L51.501 32.5212C51.4061 32.9425 51.2518 33.316 51.0381 33.6419C50.6598 34.2118 50.1163 34.6393 49.4076 34.9244C48.699 35.2024 47.8429 35.338 46.8394 35.3313L42.9807 35.3057L43.0113 37.0869L50.7079 46.6368L54.0153 46.6588L54.0165 46.4892L46.9087 37.6641L46.9723 37.6645C48.7391 37.6762 50.1615 37.3995 51.2395 36.8342C52.3246 36.2689 53.1141 35.5179 53.608 34.5813C53.9473 33.942 54.1735 33.2615 54.2864 32.5397L56.5262 32.5546Z" fill="white"/>
</svg>
