<svg width="100" height="100" viewBox="0 0 100 100" fill="none" xmlns="http://www.w3.org/2000/svg">
<path d="M54.0625 39.375H62.75L62.6875 39.75L62 40.8125L61.5 41.8125L60.8125 43.125L60.625 43.5625L60.0625 44.5625L60 45.125L60.25 46.125L61.0625 49.75L61.6875 52.25L62.0625 54.375L62.1875 54.5625L62.5 54.5L62.8125 54.25L63.875 52.1875L64.5625 50.75L65.5625 48.8125L66.0625 47.8125L66.6875 46.625L67.375 45.1875L68.9375 42.0625L69.5625 40.75L70.0625 39.8125L70.5 39.4375L70.6875 39.375L76.0625 39.4375L77.375 39.625L78.3125 39.875L79.8125 40.5L80.875 41.0625L81.625 41.5625L82.25 42.0625L83.125 42.8125L84 43.75L84.75 44.75L85.375 45.75L85.9375 46.9375L86.4375 48.4375L86.6875 49.625L86.8125 51.0625L86.875 52.6875V59.6875L90.125 59.625H94.4375L95.8125 59.6875L96.5625 59.875L97.0625 60.125L97.625 60.625L97.75 60.6875V60.8125L98 60.9375L98.625 61.8125L98.9375 62.5625L100 62.625V84.875L99.6875 85L99.1875 85.0625L99 85.125L99.0625 85.3125L98.75 85.625L98.1875 86.3125L97.625 86.9375L96.75 87.75L95.8125 88.0625L94.625 88.125H69.5625L68.9375 88L68.3125 87.625L67.5 86.875L67.1875 86.5625L66.6875 86L66.4375 85.5L66.25 84.625L66.1875 84.0625L66.125 82.4375V80.125H42.375L42 80L41.9375 79.5625V47.8125H13.9375L12.625 47.6875L11.8125 47.375L11.125 46.9375L10.5625 46.375L10.125 45.75L9.6875 44.75L9.5 43.875V43.3125L9.8125 42.0625L10.25 41.1875L10.625 40.6875H10.75L10.875 40.4375L11.4375 39.9375L12.25 39.5625L13.125 39.4375H46.125L46.625 39.875L48.0625 42.8125L48.75 44.1875L49.4375 45.625L51.3125 49.375L51.9375 50.5L52.4375 51.5L53.0625 52.8125L53.8125 54.1875L54 54.4375V54.5625H54.125V54.6875H54.25L54.5 54.9375L54.8125 52.6875L55.0625 51.625L55.75 49L56.25 47L56.625 45.8125L56.6875 45.1875L56.5 44.4375L55.6875 42.6875L54.9375 41.3125L54.0625 39.5625V39.375ZM76.0625 51.8125L75.4375 52L75 52.5L74.8125 52.9375L74.75 53.3125L74.6875 56.5625V59.625H78.25L78.3125 55.8125V53.625L78.1875 52.875L77.9375 52.375L77.5 52L77.1875 51.875L76.75 51.8125H76.0625ZM73.4375 63.6875L70.5 63.75L70.5625 83.6875H87.625L92.125 83.75H94.4375L94.5625 83.6875L94.625 63.6875H87.0625L86.875 63.75L86.8125 74.375L86.75 76.0625L86.625 77.125L86.1875 78L85.4375 78.875L84.9375 79.375L84.375 79.6875L83.4375 79.875L82.75 79.9375H82.125L81.125 79.75L80.25 79.3125L79.4375 78.5625L78.875 77.75L78.5 76.9375L78.375 76.375L78.3125 75.8125V63.75L78.25 63.6875H73.4375Z" fill="white"/>
<path d="M57.75 10.9375H58.75L60.4375 11.125L61.5625 11.375L62.875 11.875L64.1875 12.5625L65.375 13.3125L66.1875 13.9375L66.9375 14.625L67.625 15.3125L68.4375 16.375L69.0625 17.3125L69.5625 18.3125L70.0625 19.5L70.4375 20.9375L70.625 22.125L70.6875 22.8125V24.0625L70.5625 25.0625L70.25 26.625L69.6875 28.25L69.125 29.3125L68.5 30.3125L67.625 31.5L67.1875 32H67.0625L66.9375 32.25L66.125 33L65.0625 33.75L63.9375 34.375L62.75 34.875L61.1875 35.3125L59.75 35.5625L59.25 35.625H57.125L55.6875 35.4375L54.5 35.1875L53.25 34.6875L52.25 34.1875L51.3125 33.5625L50.6875 33.0625L50 32.4375L49.875 32.375V32.25L49.625 32.125V32H49.5L49.0625 31.5L48.4375 30.75L47.8125 29.8125L47.25 28.8125L46.75 27.75L46.1875 26L46 25V22.1875L46.25 20.625L46.625 19.4375L47.25 17.875L47.8125 16.875L48.5625 15.8125L49.5625 14.75L50.375 13.9375L51.4375 13.125L52.375 12.5L53.3125 12L54.5625 11.5L55.75 11.1875L56.9375 11L57.75 10.9375Z" fill="white"/>
<path d="M19.125 51.5625H20.25L21 51.75L21.5 52.125L21.8125 52.5L21.9375 52.875L22.125 55.625L23.0625 55.8125L27.625 56.9375L29.125 57.375H29.5625L30.0625 56.5625L30.5 56.0625L30.8125 55.8125L31.3125 55.5625L31.5 55.5H32.4375L33.0625 55.75L33.5625 56.1875L34 56.875L34.1875 57.4375L34.375 58.5V60.25L34.875 60.875L35.375 61.6875L36.125 63.25L36.8125 64.6875L37.8125 66.75L38.1875 67.5625L38.25 67.8125V68.6875L37.9375 69.4375L37.5625 70.0625L36.8125 70.9375L36.125 71.4375L35.4375 71.75L34.5 71.9375L33.4375 72.0625L32.5 72.125H30.8125L29.4375 72L28.4375 71.75L27.75 71.4375L27.375 71.1875L26.75 70.625L26.3125 70L25.875 69.125L25.6875 68.375L25.8125 67.625L26.3125 66.5L28.75 61.625L29.25 60.875L29.6875 60.25L29.875 59.9375H22.0625L22.125 60.625V75.5L23 75.5625H23.875L25.8125 75.625L26.8125 75.75L27.75 76L28.5 76.4375L29.1875 77.125L29.6875 78L30.1875 79.1875L30.3125 79.75L30.125 79.9375L29.8125 80H13.1875L10.5 79.9375L9.6875 79.875L9.375 79.75L9.4375 79.1875L9.875 78.1875L10.25 77.5625L10.6875 77L11.375 76.3125L12 75.9375L12.3125 75.8125L12.9375 75.6875L17.4375 75.5625L17.5625 75.5L17.625 60.25L17.6875 59.875L10.125 59.9375H6.125L5.8125 60L5.625 61.0625L4.9375 63.625L4.5 65.1875L3.9375 66.875L3.875 67.3125L4.3125 67.5L5.5625 67.5625H10.9375L11.3125 67.4375V66.9375L10.5 63.75L10 62.1875L9.5625 60.6875L9.5 60.3125L9.875 60.375L10.375 60.8125L10.75 61.375L12.5625 64.875L13.3125 66.25L13.75 67.1875L13.875 67.5625L13.9375 68.4375L13.75 69.1875L13.25 70.125L12.6875 70.8125L12.125 71.3125L11.375 71.6875L10.3125 71.9375L9.0625 72.0625H6.1875L4.75 71.875L3.8125 71.5625L3.1875 71.1875L2.5625 70.6875L1.9375 70.125L1.375 69.5L1 68.8125V68L1.25 67.3125L1.5625 66.75L2.1875 65.8125L2.8125 64.75L4.0625 62.25L4.4375 61.4375L4.875 60.625L5.3125 60L5.4375 59.5625L5.375 58.75V58L5.5 57.25L6.0625 56.25L6.5625 55.8125L7.25 55.5L7.5 55.4375H8.0625L8.625 55.6875L9 55.9375L9.5 56.75L9.9375 57.4375L10.4375 57.375L12.4375 56.8125L17.4375 55.5625L17.5 55.5L17.75 53.0625L18.0625 52.125L18.3125 51.875L18.9375 51.625L19.125 51.5625ZM30.5 59.875L30.25 60.3125L29.5 62.8125L28.75 65.125L28.1875 67L28.125 67.375L28.3125 67.5L28.6875 67.5625L31.5 67.625H34.9375L35.5 67.5L35.625 67.3125V66.8125L35.125 64.875L34.1875 61.6875L33.875 60.5L33.8125 60L33.9375 59.9375L33.6875 59.875H30.5Z" fill="white"/>
</svg>
