<svg width="100" height="100" viewBox="0 0 100 100" fill="none" xmlns="http://www.w3.org/2000/svg">
<g clip-path="url(#clip0_1_209)">
<path d="M67.0881 13.8358C67.3421 13.8344 67.3421 13.8344 67.6013 13.8329C68.1622 13.83 68.7231 13.8287 69.2841 13.8276C69.6741 13.8265 70.064 13.8254 70.454 13.8243C71.2724 13.8222 72.0907 13.8211 72.909 13.8204C73.9561 13.8193 75.0031 13.8146 76.0502 13.8091C76.8561 13.8054 77.6621 13.8044 78.468 13.8041C78.8539 13.8035 79.2399 13.802 79.6258 13.7994C80.1666 13.796 80.7074 13.7964 81.2483 13.7977C81.4068 13.7959 81.5654 13.7941 81.7287 13.7922C83.3416 13.804 84.4154 14.3747 85.5995 15.4626C86.5354 16.4534 86.7408 17.6162 86.7475 18.9333C86.7496 19.217 86.7496 19.217 86.7517 19.5065C86.7523 19.7117 86.7528 19.917 86.7533 20.1285C86.7546 20.3465 86.7559 20.5645 86.7572 20.7891C86.7611 21.5099 86.7633 22.2308 86.7653 22.9516C86.7661 23.1983 86.7669 23.4449 86.7677 23.699C86.7714 24.8699 86.7742 26.0408 86.7758 27.2117C86.7777 28.5589 86.7829 29.906 86.7908 31.2532C86.7974 32.4236 86.7997 33.5939 86.8005 34.7643C86.8014 35.2604 86.8037 35.7565 86.8073 36.2526C86.8121 36.9482 86.8119 37.6436 86.8105 38.3391C86.8143 38.6441 86.8143 38.6441 86.8181 38.9552C86.8062 40.6449 86.4454 42.0749 85.2905 43.3473C84.1765 44.4452 82.9298 44.6185 81.4412 44.6103C81.2701 44.6116 81.0991 44.613 80.9229 44.6143C80.3607 44.6179 79.7987 44.6172 79.2366 44.6161C78.8438 44.6169 78.451 44.618 78.0582 44.6192C77.2362 44.6209 76.4142 44.6204 75.5922 44.6185C74.5412 44.6162 73.4903 44.6202 72.4393 44.6259C71.6285 44.6295 70.8177 44.6294 70.0068 44.6283C69.6194 44.6283 69.2321 44.6295 68.8447 44.6319C68.302 44.6348 67.7596 44.6327 67.2169 44.6294C66.9793 44.6322 66.9793 44.6322 66.7368 44.6351C65.3508 44.6173 64.352 44.181 63.3179 43.2618C62.6415 42.4888 62.2904 42.0349 62.1094 41.0157C61.991 41.0744 61.8727 41.1331 61.7508 41.1935C60.5079 41.7576 59.5378 41.9602 58.2031 41.6017C56.4546 40.7109 55.5391 38.8847 54.5288 37.2804C54.2633 36.8606 53.9975 36.441 53.7315 36.0215C53.601 35.8153 53.4704 35.609 53.3359 35.3965C52.7899 34.5487 52.2233 33.7159 51.6528 32.8844C51.3672 32.422 51.3672 32.422 51.3672 32.0314C50.7871 31.9025 50.207 31.7736 49.6094 31.6407C49.5221 35.5874 49.4685 39.5341 49.4385 43.4816C49.4373 43.6331 49.4361 43.7847 49.4349 43.9409C49.3362 56.9025 50.2295 69.7221 51.3711 82.6269C51.387 82.8065 51.4029 82.9861 51.4192 83.1711C51.5702 84.8752 51.7225 86.5792 51.8826 88.2824C51.9399 88.8941 51.9964 89.5059 52.0528 90.1176C52.091 90.5265 52.1305 90.9353 52.1702 91.344C52.666 96.7208 52.666 96.7208 51.5625 98.2423C50.6617 99.2183 49.7881 99.9049 48.4413 100.073C46.9243 100.104 45.7676 99.9469 44.5313 99.0236C43.2126 97.7378 42.9603 96.208 42.818 94.4279C42.8065 94.2886 42.795 94.1493 42.7831 94.0057C42.7453 93.5437 42.7093 93.0816 42.6734 92.6194C42.6465 92.2863 42.6195 91.9532 42.5924 91.6201C42.5194 90.7192 42.4481 89.8182 42.377 88.9171C42.3023 87.9742 42.2262 87.0314 42.1502 86.0886C42.0067 84.3048 41.8645 82.5209 41.7228 80.737C41.5613 78.7054 41.3984 76.6739 41.2353 74.6424C40.9 70.4649 40.5666 66.2872 40.2344 62.1095C40.0297 62.1118 39.825 62.114 39.6141 62.1164C39.3448 62.1182 39.0755 62.12 38.8062 62.1217C38.6713 62.1233 38.5365 62.125 38.3976 62.1267C37.7835 62.1296 37.3058 62.1099 36.7188 61.9142C36.7214 62.0471 36.724 62.18 36.7267 62.3169C36.7451 64.0154 36.6301 65.6945 36.4919 67.3858C36.4674 67.6934 36.443 68.001 36.4187 68.3086C36.353 69.1371 36.2861 69.9655 36.2189 70.7938C36.1627 71.4874 36.1071 72.1811 36.0515 72.8747C35.9204 74.5112 35.7882 76.1475 35.6554 77.7838C35.5187 79.4687 35.3836 81.1538 35.2494 82.8389C35.1337 84.2899 35.017 85.7409 34.8995 87.1917C34.8295 88.0565 34.7599 88.9213 34.6912 89.7861C34.6267 90.5987 34.5608 91.4112 34.494 92.2236C34.4698 92.5208 34.446 92.8181 34.4227 93.1154C34.0847 97.4187 34.0847 97.4187 32.6172 99.0236C31.4239 99.9514 30.207 100.148 28.7201 100.08C27.2393 99.8809 26.4296 99.1797 25.4776 98.0661C24.83 97.1262 24.7458 96.2681 24.7646 95.1496C24.766 95.0033 24.7673 94.8569 24.7687 94.7061C24.7891 93.3679 24.8864 92.0396 25.0163 90.7076C25.0577 90.282 25.0973 89.8563 25.1365 89.4305C25.194 88.8066 25.2523 88.1829 25.311 87.5592C25.4727 85.8358 25.6247 84.1116 25.7773 82.3874C25.7934 82.2061 25.8095 82.0248 25.826 81.838C26.961 69.0083 27.8117 56.269 27.71 43.3839C27.7088 43.2325 27.7076 43.0811 27.7064 42.9251C27.6771 39.1632 27.624 35.4019 27.5391 31.6407C27.2168 31.7052 26.8945 31.7697 26.5625 31.8361C26.5405 32.0777 26.5184 32.3194 26.4957 32.5685C26.3681 33.7099 26.1234 34.818 25.8733 35.938C25.8231 36.1663 25.7729 36.3946 25.7212 36.6297C25.5843 37.2509 25.4465 37.8719 25.3083 38.4928C25.2217 38.8817 25.1354 39.2706 25.0492 39.6596C24.7479 41.0192 24.4456 42.3785 24.1423 43.7377C23.8606 45.0006 23.5811 46.264 23.3026 47.5277C23.0626 48.6165 22.8209 49.705 22.578 50.7932C22.4334 51.4414 22.2894 52.0898 22.147 52.7385C21.9878 53.462 21.8259 54.185 21.6634 54.9078C21.6172 55.1204 21.571 55.333 21.5234 55.552C21.1271 57.2939 20.6681 58.7271 19.1406 59.7657C18.0137 60.2693 16.9647 60.3111 15.7959 59.9244C14.6111 59.4304 14.0095 58.5883 13.4178 57.4914C12.9613 55.9536 13.4842 54.3252 13.8216 52.8124C13.8798 52.546 13.9378 52.2795 13.9958 52.013C14.1528 51.2928 14.312 50.573 14.4717 49.8533C14.6053 49.2506 14.7378 48.6478 14.8704 48.0449C15.1836 46.6215 15.4985 45.1985 15.8144 43.7758C16.1394 42.3123 16.4613 40.8482 16.7816 39.3837C17.0576 38.1226 17.3356 36.862 17.6151 35.6017C17.7817 34.8507 17.9475 34.0995 18.1114 33.3478C18.2657 32.6403 18.4225 31.9334 18.5813 31.2269C18.666 30.847 18.7481 30.4665 18.8302 30.086C19.1895 28.5021 19.6092 26.9143 20.752 25.7081C22.2949 24.7964 23.9504 24.3086 25.6714 23.8405C26.0427 23.7392 26.0427 23.7392 26.4216 23.6359C30.0047 22.6736 33.5855 21.928 37.3047 21.8751C38.3192 23.6187 38.1466 25.0776 37.8274 27.0239C37.771 27.3837 37.7146 27.7435 37.6585 28.1033C37.6287 28.2917 37.599 28.4801 37.5683 28.6743C37.3779 29.8995 37.2041 31.1273 37.0275 32.3546C36.8724 33.4264 36.7114 34.4967 36.5373 35.5656C35.3567 41.6682 35.3567 41.6682 37.4528 47.2528C37.78 47.6651 38.1137 48.0567 38.4766 48.4376C39.1768 47.5835 39.7366 46.7086 40.2832 45.7521C40.3728 45.6035 40.4625 45.455 40.5548 45.3019C40.6394 45.1534 40.724 45.0049 40.8112 44.8518C40.888 44.7199 40.9649 44.5881 41.044 44.4522C41.4712 43.1552 41.1744 41.6655 40.9896 40.3393C40.9661 40.1637 40.9426 39.9882 40.9184 39.8073C40.8677 39.4294 40.8166 39.0515 40.7649 38.6737C40.6834 38.0753 40.6035 37.4767 40.5241 36.878C40.2982 35.177 40.0701 33.4763 39.8391 31.7759C39.6975 30.7332 39.5585 29.6902 39.4212 28.6469C39.3684 28.2504 39.3147 27.8539 39.2599 27.4576C39.1835 26.9041 39.1104 26.3502 39.038 25.7961C39.0147 25.6332 38.9914 25.4704 38.9673 25.3026C38.7947 23.936 39.0921 23.0367 39.8438 21.8751C43.5752 21.9753 47.1443 22.6787 50.7446 23.6329C50.9902 23.6978 51.2357 23.7626 51.4886 23.8294C54.4311 24.6312 56.4361 25.4034 58.139 28.0313C58.2687 28.2308 58.3984 28.4303 58.532 28.6359C58.7317 28.945 58.7317 28.945 58.9356 29.2604C59.1399 29.5752 59.1399 29.5752 59.3483 29.8963C59.6832 30.4124 60.0176 30.9288 60.3516 31.4454C60.9294 31.137 61.3338 30.8065 61.7188 30.2736C61.9183 29.3345 61.8864 28.399 61.8675 27.4438C61.8674 27.1651 61.8679 26.8863 61.8692 26.6076C61.8711 25.8751 61.8655 25.1429 61.8576 24.4105C61.8456 23.2406 61.8418 22.0708 61.8439 20.9009C61.8431 20.4948 61.8372 20.089 61.8308 19.6829C61.8269 17.9249 62.0075 16.6349 63.1592 15.2711C64.4822 14.1686 65.3898 13.8382 67.0881 13.8358ZM64.8438 18.1642C64.3009 19.1574 64.3885 20.1865 64.3921 21.2892C64.3889 21.4815 64.3858 21.6739 64.3826 21.8721C64.3769 23.2412 64.3769 23.2412 65.0391 24.4142C65.797 25.1721 66.7514 25.0301 67.7691 25.0316C68.0037 25.033 68.0037 25.033 68.2429 25.0345C68.7593 25.0374 69.2758 25.0387 69.7922 25.0398C70.1517 25.0409 70.5112 25.042 70.8708 25.0432C71.6244 25.0452 72.378 25.0464 73.1316 25.047C74.0961 25.0481 75.0606 25.0528 76.0252 25.0584C76.7678 25.062 77.5104 25.063 78.253 25.0633C78.6086 25.0639 78.9641 25.0655 79.3196 25.068C79.8175 25.0714 80.3153 25.071 80.8131 25.0697C80.9593 25.0715 81.1054 25.0733 81.256 25.0752C82.3751 25.0663 83.1859 24.822 83.9844 24.0236C84.2754 23.1477 84.2232 22.2387 84.2285 21.3258C84.2325 21.1545 84.2366 20.9831 84.2407 20.8066C84.2473 19.7117 84.1481 18.924 83.5938 17.9689C82.8728 17.4371 82.0366 17.5219 81.1795 17.5246C81.0152 17.5236 80.8509 17.5226 80.6817 17.5216C80.1389 17.5189 79.5962 17.519 79.0535 17.5195C78.676 17.5187 78.2985 17.5179 77.921 17.517C77.1298 17.5155 76.3386 17.5156 75.5474 17.5166C74.5337 17.5177 73.5202 17.5144 72.5066 17.5099C71.7269 17.507 70.9473 17.5068 70.1677 17.5074C69.794 17.5073 69.4203 17.5063 69.0466 17.5044C68.5239 17.5019 68.0013 17.5033 67.4786 17.5055C67.3245 17.504 67.1703 17.5025 67.0115 17.501C66.1255 17.5095 65.545 17.6085 64.8438 18.1642ZM65.8203 29.297C65.8012 29.5895 65.795 29.8828 65.7959 30.1759C65.7954 30.335 65.7949 30.4941 65.7944 30.6581C65.7765 31.0539 65.7765 31.0539 66.0156 31.2501C66.5348 31.2748 67.0467 31.2863 67.5659 31.2867C67.7108 31.2891 67.8557 31.2915 68.005 31.294C68.3838 31.295 68.7626 31.2739 69.1406 31.2501C69.6055 30.8706 69.6055 30.8706 69.5801 30.1759C69.6055 29.4812 69.6055 29.4812 69.1406 29.1017C68.608 29.0681 68.0978 29.0563 67.5659 29.0651C67.3474 29.0653 67.3474 29.0653 67.1246 29.0654C66.414 29.0063 66.414 29.0063 65.8203 29.297ZM72.4609 29.297C72.4418 29.5895 72.4356 29.8828 72.4365 30.1759C72.436 30.335 72.4355 30.4941 72.435 30.6581C72.4171 31.0539 72.4171 31.0539 72.6563 31.2501C73.2116 31.2696 73.7611 31.2772 74.3164 31.2745C74.4723 31.2753 74.6281 31.276 74.7887 31.2768C75.5407 31.3495 75.5407 31.3495 76.1719 31.0548C76.1859 30.7581 76.1883 30.4607 76.1841 30.1637C76.1823 30.0023 76.1806 29.8409 76.1787 29.6747C76.1765 29.55 76.1742 29.4254 76.1719 29.297C75.552 28.987 74.8864 29.0737 74.2065 29.0773C73.9881 29.0761 73.9881 29.0761 73.7652 29.075C73.0549 29.0095 73.0549 29.0095 72.4609 29.297ZM79.1016 29.297C79.0824 29.5895 79.0762 29.8828 79.0771 30.1759C79.0766 30.335 79.0761 30.4941 79.0756 30.6581C79.0577 31.0539 79.0577 31.0539 79.2969 31.2501C79.8522 31.2696 80.4018 31.2772 80.957 31.2745C81.1129 31.2753 81.2687 31.276 81.4293 31.2768C82.1813 31.3495 82.1813 31.3495 82.8125 31.0548C82.8316 30.7624 82.8378 30.469 82.8369 30.1759C82.8374 30.0168 82.8379 29.8577 82.8384 29.6937C82.8564 29.2979 82.8564 29.2979 82.6172 29.1017C82.0619 29.0822 81.5123 29.0746 80.957 29.0773C80.8012 29.0765 80.6453 29.0758 80.4848 29.075C79.7327 29.0023 79.7327 29.0023 79.1016 29.297ZM65.8203 33.5939C65.8203 34.1739 65.8203 34.754 65.8203 35.3517C66.5781 35.7306 66.8648 35.7956 67.6758 35.7911C67.9507 35.7926 67.9507 35.7926 68.2312 35.7942C68.7579 35.7415 69.08 35.6199 69.5313 35.3517C69.5494 34.977 69.5494 34.977 69.5679 34.5948C69.5747 34.4544 69.5815 34.3139 69.5885 34.1691C69.5696 34.0437 69.5507 33.9184 69.5313 33.7892C68.8081 33.3071 68.426 33.3522 67.5659 33.3619C67.322 33.3632 67.078 33.3645 66.8266 33.3658C66.2302 33.3565 66.2302 33.3565 65.8203 33.5939ZM72.4609 33.5939C72.4609 34.1739 72.4609 34.754 72.4609 35.3517C73.2187 35.7306 73.5054 35.7956 74.3164 35.7911C74.5913 35.7926 74.5913 35.7926 74.8718 35.7942C75.3985 35.7415 75.7206 35.6199 76.1719 35.3517C76.19 34.977 76.19 34.977 76.2085 34.5948C76.2153 34.4544 76.2221 34.3139 76.2291 34.1691C76.2102 34.0437 76.1913 33.9184 76.1719 33.7892C75.4487 33.3071 75.0666 33.3522 74.2065 33.3619C73.9626 33.3632 73.7186 33.3645 73.4673 33.3658C72.8708 33.3565 72.8708 33.3565 72.4609 33.5939ZM79.1016 33.7892C79.0307 34.1754 79.0307 34.1754 79.0649 34.5948C79.077 34.8446 79.0891 35.0944 79.1016 35.3517C79.7383 35.7301 80.2204 35.7952 80.957 35.7911C81.232 35.7926 81.232 35.7926 81.5125 35.7942C82.0984 35.7667 82.0984 35.7667 82.8125 35.3517C82.8125 34.7716 82.8125 34.1915 82.8125 33.5939C82.2352 33.3052 81.709 33.3652 81.0669 33.3619C80.7017 33.3578 80.7017 33.3578 80.3291 33.3535C79.6596 33.3473 79.6596 33.3473 79.1016 33.7892ZM65.8203 36.7189C65.8045 37.0035 65.7931 37.2884 65.7837 37.5734C65.7769 37.732 65.7701 37.8906 65.7631 38.054C65.782 38.1935 65.8009 38.333 65.8203 38.4767C66.4943 38.926 66.7718 38.9201 67.5659 38.9161C67.7691 38.9171 67.9723 38.9181 68.1816 38.9192C68.7365 38.8685 69.06 38.7629 69.5313 38.4767C69.5494 38.102 69.5494 38.102 69.5679 37.7198C69.5747 37.5794 69.5815 37.4389 69.5885 37.2941C69.5696 37.1687 69.5507 37.0434 69.5313 36.9142C68.8311 36.4474 68.5052 36.4767 67.6758 36.4869C67.3404 36.4888 67.3404 36.4888 66.9983 36.4908C66.3972 36.498 66.3972 36.498 65.8203 36.7189ZM72.4609 36.7189C72.4609 37.2989 72.4609 37.879 72.4609 38.4767C73.2187 38.8556 73.5054 38.9206 74.3164 38.9161C74.5913 38.9176 74.5913 38.9176 74.8718 38.9192C75.3985 38.8665 75.7206 38.7449 76.1719 38.4767C76.19 38.102 76.19 38.102 76.2085 37.7198C76.2153 37.5794 76.2221 37.4389 76.2291 37.2941C76.2102 37.1687 76.1913 37.0434 76.1719 36.9142C75.4717 36.4474 75.1458 36.4767 74.3164 36.4869C73.9811 36.4888 73.9811 36.4888 73.6389 36.4908C73.0378 36.498 73.0378 36.498 72.4609 36.7189ZM79.1016 36.9142C79.0307 37.3004 79.0307 37.3004 79.0649 37.7198C79.077 37.9696 79.0891 38.2194 79.1016 38.4767C79.7383 38.8551 80.2204 38.9202 80.957 38.9161C81.232 38.9176 81.232 38.9176 81.5125 38.9192C82.0392 38.8665 82.3612 38.7449 82.8125 38.4767C82.8306 38.102 82.8306 38.102 82.8491 37.7198C82.8559 37.5794 82.8627 37.4389 82.8697 37.2941C82.8508 37.1687 82.832 37.0434 82.8125 36.9142C82.115 36.4492 81.7838 36.471 80.957 36.4747C80.7335 36.4737 80.5099 36.4727 80.2795 36.4717C79.653 36.4789 79.653 36.4789 79.1016 36.9142ZM65.8203 39.8439C65.8203 40.4884 65.8203 41.1329 65.8203 41.797C66.4437 42.0048 66.9111 42.0249 67.5659 42.0289C67.8707 42.0331 67.8707 42.0331 68.1816 42.0373C68.7403 41.9931 69.058 41.8902 69.5313 41.6017C69.5494 41.227 69.5494 41.227 69.5679 40.8448C69.5747 40.7044 69.5815 40.5639 69.5885 40.4191C69.5696 40.2937 69.5507 40.1684 69.5313 40.0392C68.8311 39.5724 68.5052 39.6017 67.6758 39.6119C67.3404 39.6138 67.3404 39.6138 66.9983 39.6158C66.3972 39.623 66.3972 39.623 65.8203 39.8439ZM72.4609 40.0392C72.3681 40.4107 72.3681 40.4107 72.3877 40.8204C72.3862 40.9574 72.3847 41.0944 72.3831 41.2355C72.4334 41.6819 72.4334 41.6819 73.0469 41.9923C73.6524 42.0545 73.6524 42.0545 74.3164 42.0411C74.54 42.0421 74.7636 42.0431 74.9939 42.0442C75.6204 42.037 75.6204 42.037 76.1719 41.6017C76.2648 41.2302 76.2648 41.2302 76.2451 40.8204C76.2466 40.6835 76.2481 40.5465 76.2497 40.4054C76.1994 39.959 76.1994 39.959 75.5859 39.6486C74.9805 39.5864 74.9805 39.5864 74.3164 39.5997C74.0928 39.5987 73.8693 39.5977 73.6389 39.5967C73.0124 39.6039 73.0124 39.6039 72.4609 40.0392ZM79.1016 40.0392C79.0087 40.4107 79.0087 40.4107 79.0283 40.8204C79.0268 40.9574 79.0253 41.0944 79.0237 41.2355C79.074 41.6819 79.074 41.6819 79.6875 41.9923C80.293 42.0545 80.293 42.0545 80.957 42.0411C81.1806 42.0421 81.4042 42.0431 81.6345 42.0442C82.2611 42.037 82.2611 42.037 82.8125 41.6017C82.9054 41.2302 82.9054 41.2302 82.8857 40.8204C82.8873 40.6835 82.8888 40.5465 82.8903 40.4054C82.84 39.959 82.84 39.959 82.2266 39.6486C81.6211 39.5864 81.6211 39.5864 80.957 39.5997C80.7335 39.5987 80.5099 39.5977 80.2795 39.5967C79.653 39.6039 79.653 39.6039 79.1016 40.0392Z" fill="white"/>
<path d="M44.1162 1.53819C46.1185 2.98512 47.5937 4.95976 48.1567 7.40214C48.6395 10.8243 47.9106 14.0151 45.958 16.8946C45.6273 17.3335 45.284 17.751 44.9219 18.1642C44.8156 18.2865 44.7094 18.4089 44.5999 18.535C42.978 20.2787 41.0396 21.1248 38.6887 21.2815C36.26 21.3123 34.3853 20.2429 32.6645 18.5998C32.4477 18.3842 32.4477 18.3842 32.2266 18.1642C32.1183 18.0627 32.01 17.9612 31.8985 17.8567C29.7069 15.5999 28.8053 12.2376 28.8238 9.19142C28.9052 6.51254 30.0432 4.14315 31.9939 2.30723C32.7369 1.69268 33.5169 1.21814 34.375 0.781352C34.6016 0.659747 34.6016 0.659747 34.8328 0.535686C37.8541 -0.83154 41.4067 -0.147338 44.1162 1.53819Z" fill="white"/>
</g>
<defs>
<clipPath id="clip0_1_209">
<rect width="100" height="100" fill="white"/>
</clipPath>
</defs>
</svg>
