<svg width="100" height="100" viewBox="0 0 100 100" fill="none" xmlns="http://www.w3.org/2000/svg">
<path d="M85.4375 3H86.4375L87.125 3.25L87.75 3.75L88.375 4.6875L88.625 5.125V5.75L88.375 6.375L87.9375 7.0625L87.4375 7.6875L86.6875 8.5625L86.125 9.1875L85.1875 10.1875L84.5 11L83.875 11.75L83.1875 12.625L82.5625 13.4375L81.6875 14.5625L81.1875 15.25L80.5 16.0625L80.25 16.4375L80.375 16.6875L80.75 17.1875L81.5 18.625L82.125 19.9375L82.8125 21.625L83.4375 23.6875L83.6875 24.875L83.75 25.5V27.6875L83.625 28.5625L83.375 29.5L82.9375 30.5625L82.5625 31.3125L82.125 32L81.4375 32.875L80.875 33.4375L80.125 34L79.25 34.5625L78.25 35.0625L77.125 35.5L75.125 36.0625H75L75.1875 37.0625L75.75 39.375L76.375 41.6875L77.1875 44.4375L78.6875 49.1875L79.5625 52L80.0625 53.625L80.75 56.0625L81.375 58.75L81.6875 60.375L81.9375 62.375L82 63.375V65.875L81.875 67.1875L81.625 68.375L81.1875 69.625L80.6875 70.6875L79.9375 71.8125L79.4375 72.4375L78.875 73.0625L78.25 73.625L77.0625 74.3125L76.1875 74.6875L75 74.9375L74.4375 75H72.875L71.8125 74.75L71 74.4375L70.125 73.9375L69.3125 73.3125L68.625 72.625L67.9375 71.6875L67.125 70.125L66.6875 68.875L66.4375 67.875L66.25 66.4375L66.1875 65.6875L66.125 62.9375L66 60.9375L65.6875 59L65.25 57.375L64.625 55.8125L64 54.8125L63.4375 54.125L62.875 53.625L62.3125 53.25L62.25 57.4375V87.0625L65.375 87.125L67.8125 87.25L68.6875 87.375L69.3125 87.625L69.75 88L70 88.6875L70.125 89.5L70.1875 90.5625V94.1875L70.0625 95.625L69.875 96.375L69.5625 97L69 97.625L68.6875 97.8125L68.5625 97.875L61.125 97.9375H15.5L14.375 97.875L13.6875 97.75L13.25 97.375L12.8125 96.6875L12.5 96L12.3125 95.1875V89.125L12.625 88.375L13.0625 87.8125L13.8125 87.375L14.25 87.25L14.8125 87.1875L18.0625 87.125H20.1875L20.25 21.125L20.5 20.3125L20.875 19.8125L21.375 19.4375L21.875 19.1875L22.3125 19.0625L24.5 18.875L25.4375 18.75L25.5 18.6875L25.625 16.1875L25.875 15.375L26.1875 14.875L26.5 14.5625L26.9375 14.1875L27.4375 14L28.3125 13.9375L31.375 13.875H51.875L54.375 13.9375L55.125 14L55.5 14.1875L55.8125 14.5L56.125 15L56.375 15.75L56.4375 16.125L56.5 18.8125L59.5625 19L60.5625 19.125L61.1875 19.3125L61.75 19.6875L62 20.1875L62.125 20.6875L62.1875 21.3125L62.25 47.9375L62.875 48.25L64.625 48.875L65.8125 49.5L66.5 50L67.125 50.5625L67.875 51.3125L68.75 52.5L69.375 53.625L69.8125 54.625L70.4375 56.375L70.8125 58L71.125 60.0625L71.3125 61.875L71.375 62.875L71.4375 65.1875L71.5 66.4375L71.875 68.0625L72.1875 68.8125L72.75 69.4375L73.1875 69.75L73.75 69.875H74.4375L75.0625 69.5625L75.5625 69.125L75.6875 68.9375H75.8125L76.25 68.0625L76.625 66.9375L76.8125 65.875L76.875 65.1875V64.1875L76.75 62.5625L76.375 60.125L76 58.4375L75.5625 56.6875L74.75 54L74.125 51.9375L73.625 50.375L72.75 47.625L71.8125 44.5625L71 41.625L70.1875 38.375L69.75 36.1875L69.4375 34.125L69.3125 32.5625L69.25 31V30L69.4375 27.8125L69.8125 26.0625L70.1875 24.6875L70.75 23.0625L71.5625 21.1875L72.125 20L72.8125 18.75L73.375 17.75L74.375 16.0625L75.5 14.375L76.3125 13.1875L77 12.25L77.75 11.25L78.625 10.125L79.125 9.5L79.8125 8.625L80.6875 7.5625L81.1875 6.9375L81.375 6.6875H81.5L81.625 6.4375L82.125 5.9375L82.5625 5.4375L83.25 4.6875L84.1875 3.75L85.0625 3.125L85.4375 3ZM77.25 21.75L76.9375 22.0625L76.1875 23.4375L75.75 24.375L75.375 25.375L74.875 27.0625L74.5 28.875L74.375 29.75V30.5625L74.5625 30.75L75.125 30.8125L75.9375 30.5L76.9375 29.9375L77.75 29.3125L78.25 28.625L78.5 28L78.625 27.4375V26.5L78.375 24.875L77.875 22.9375L77.625 22L77.4375 21.8125L77.25 21.75ZM30.875 24.6875L27.8125 24.75L26.875 24.875L26.375 25.125L26 25.6875L25.875 26.125L25.8125 26.875L25.75 28.75L25.6875 39.25V42.3125L25.75 45.375L25.9375 46.375L26.1875 46.875L26.625 47.25L27.375 47.625L28.1875 47.75L33.25 47.8125H52.4375L54.4375 47.75L55.0625 47.5625L55.75 47.125L56.125 46.5625L56.3125 45.8125L56.375 45.375L56.4375 41V28.1875L56.375 26.625L56.0625 25.8125L55.625 25.125L55.25 24.875L54.875 24.75L53.9375 24.6875H30.875Z" fill="white"/>
</svg>
