<svg width="100" height="100" viewBox="0 0 100 100" fill="none" xmlns="http://www.w3.org/2000/svg">
<path d="M46 26.0625H46.375L46.625 26.3125L46.875 26.8125L47.5625 28.625L48.25 30.5L49 32.625L49.4375 33.875L49.75 34.625L49.9375 34.875L50.125 34.9375L50.1875 34.6875L50.5625 33.6875L51 32.4375L51.6875 30.5L52.5625 28.25L52.9375 27.3125L53.3125 26.4375L53.5 26.25H53.9375L54.75 26.5L56.4375 27.375L57.875 28.1875L59.4375 29.0625L60.4375 29.625L62.0625 30.5625L63.375 31.3125L64.5 31.9375L65.4375 32.5L66.5 33.0625L67.4375 33.75L67.75 33.8125L68.0625 33.5L68.5625 32.75L69.3125 31.6875L69.6875 31L70.125 30.375L70.75 29.4375L71.25 28.5L71.4375 28.375H75.6875L79.875 28.4375L80 28.5L79.9375 28.75L79.25 29.625L78.5625 30.6875L78.0625 31.5L77.4375 32.4375L76.5 33.9375L76 34.625L75.4375 35.5625L74.4375 37.125L74 37.75L73.1875 39L72.125 40.5625L71.4375 41.375L70.875 41.8125L69.6875 42.375L69.1875 42.4375L68.9375 42.375L68.875 42.4375L68.375 42.375L67.625 42.0625L66.0625 41.3125L65.0625 40.75L63.625 39.9375L61.875 38.875L61 38.375L60.8125 38.3125L60.875 38.4375V46.1875L60.75 46.25L58.625 46.3125H50.5625L39.375 46.25L39.0625 46.0625L39 45.8125V43.3125L39.0625 40V37.8125L38.75 37.875L37.3125 38.5625L35.625 39.4375L34.4375 40.0625L32.8125 40.9375L31.9375 41.375L31.5625 41.625L31.5 42L31.75 43.25L32.3125 46.75L32.6875 48.9375L32.75 49.625V50.6875L32.5625 51.375L32.1875 52.0625L31.6875 52.6875L31.1875 53.125L30.5625 53.5L30 53.6875L29.5 53.75H28.4375L27.625 53.5L26.9375 53L26.5625 52.6875L26 51.9375L25.625 50.9375L25.375 49.8125L24.4375 43.8125L24 40.375L23.9375 39.625V38.8125L24.125 38.1875L24.5625 37.5L25.1875 36.875L26.4375 36.0625L28.1875 35.125L29.5625 34.375L31.375 33.4375L32.75 32.6875L34 32.0625L35.375 31.3125L38.1875 29.875L39.375 29.25L40.9375 28.4375L41.9375 27.9375L43.75 27.0625L45.3125 26.3125L46 26.0625Z" fill="white"/>
<path d="M61.375 51.4375L61.5625 51.5L61.8125 52L62.3125 52.8125L62.75 53.8125L63.625 56.1875L64.5625 58.9375L65.375 61.25L66.125 63.375L67 65.875L67.625 67.6875L69 71.5625L69.25 72.4375L69.375 73.4375V73.8125L69.0625 74.1875L68.4375 74.4375L67.9375 74.5L65.6875 74.5625H60.875L60.8125 90.0625L60.75 92.75L60.625 93.5625L60.375 94.125L59.9375 94.8125L59.4375 95.4375L58.8125 96.0625L57.8125 96.5625L56.8125 96.8125L56.3125 96.875H55.375L54.375 96.6875L53.625 96.375L52.875 95.8125L52.25 95.25L51.75 94.625L51.25 93.625L51.0625 92.625L51 90.75V74.875L50.9375 74.625L50.625 74.5625H48.9375L48.875 85.625L48.8125 92.4375L48.6875 93.4375L48.4375 94L48 94.75L47.5625 95.3125L47.1875 95.75L46.5 96.25L45.6875 96.625L44.9375 96.8125L44.5 96.875H43.1875L42.1875 96.625L41.3125 96.1875L40.5 95.5L39.875 94.75L39.375 93.6875L39.1875 93L39.0625 91.75L39 74.5625L38.1875 74.625H33.4375L31.8125 74.5625L31.25 74.375L30.625 73.8125L30.5 73.5V73.0625L30.75 72.125L31.5625 69.8125L32.625 66.8125L33.5625 64.0625L34 62.8125L34.625 61.0625L35.5 58.5625L36.125 56.75L37.0625 53.9375L37.5625 52.8125L38 52.0625L38.1875 51.625H38.3125L38.25 53.4375L37.6875 58.8125L37.375 61.75L37 65.1875L36.9375 66V67.875L37.125 68.5L37.375 68.875V69H37.5V69.125L37.75 69.25L38.25 69.625L38.875 69.8125L39.3125 69.875L42.8125 69.9375H50.125L58.4375 69.875L60.3125 69.8125L61.1875 69.6875L61.9375 69.3125L62.25 69.0625L62.6875 68.375L62.8125 67.8125V66.5625L62.5625 63.6875L62.125 59.1875L61.875 56.1875L61.625 53.625L61.375 51.625V51.4375Z" fill="white"/>
<path d="M40.1875 48.125H60.6875L60.9375 48.375L61.25 49.5L61.375 50.0625L61.3125 50.375L59.625 50.4375L60.0625 55.375L60.5625 60L60.875 63.5625L61.125 66.375V67.75L60.875 68L60.1875 68.125H39.0625L38.6875 67.9375L38.625 67.75V66.1875L38.9375 62.9375L39.375 59L40.25 51L40.3125 50.5625L39.9375 50.4375L38.9375 50.375L38.875 50.5L38.625 50.5625V49.8125L38.8125 48.8125L39.0625 48.3125L39.25 48.1875L40.1875 48.125Z" fill="white"/>
<path d="M48.5625 2H50.9375L52.5625 2.1875L53.625 2.4375L54.5625 2.8125L55.375 3.25L56.25 3.875L57.1875 4.8125L57.8125 5.6875L58.375 6.625L58.6875 7.3125L59.125 8.625L59.5 10.1875L59.6875 11.375L59.8125 12.75L59.875 14.3125V16.5L60 18.0625L60.1875 18.875L60.5625 19.625L61.25 20.4375L62.3125 21.25L62.625 21.5V21.625H62.75L62.9375 22.0625V22.5625L62.5 23.3125L61.875 24L60.9375 24.5625L60.4375 24.75L60 24.8125H58.5L57.4375 24.625L56.5 24.375L55.875 24.125L54.5 23.8125L54.375 23.75V23.625H54.25L54.375 23.25L54.875 22.5625L55.5 21.6875L55.75 21.125L55.875 20.4375L55.5625 20.75L54.875 21.5L54.375 21.9375L53.5 22.5L52.625 22.875L50.6875 23.375H49.1875L47.9375 23.125L46.875 22.75L45.8125 22.0625L45.375 21.75V21.625L45.125 21.5L44.8125 21.25V21.125L44.5625 21L44.125 20.5L43.75 20.25L44.0625 21L44.6875 22L45.25 22.8125L45.6875 23.4375L45.75 23.6875L45.25 23.875L43.8125 24.1875L42.375 24.5625L41.3125 24.75L40.75 24.8125H39.875L39 24.5625L38.5 24.3125L37.75 23.625L37.1875 23L36.9375 22.625V22.1875L37.1875 21.75L37.875 21.0625L38.6875 20.4375L39.25 19.8125L39.625 19.1875L39.875 18.4375L40 17.5625L40.0625 16.5V12.8125L40.3125 10.75L40.5625 9.4375L41.0625 7.75L41.5625 6.625L42.0625 5.6875L42.625 4.9375L43.1875 4.375L43.5625 3.9375L44.5 3.25L45.6875 2.625L46.625 2.3125L47.9375 2.0625L48.5625 2Z" fill="white"/>
<path d="M78.4375 11H79.125L79.625 11.25L80.125 11.8125L80.5625 12.3125L81.3125 12.625L82.4375 13L83.5 13.4375L84.625 14.0625L85.5 14.6875L86.125 15.1875L86.9375 15.9375L87.5 16.5625L88.125 17.4375L88.75 18.5625L89.1875 19.5625L89.625 20.875L89.9375 22.375L90.0625 23.125V23.4375L90.9375 23.375H92.25L92.5625 23.5L92.8125 23.75L93 24.5V25.25L92.875 26L92.5 26.3125L91.9375 26.4375L91.25 26.5L87.5625 26.5625L76.5 26.625L74.8125 26.6875L69.3125 26.75L66.75 26.6875L65.5625 26.625L65.25 26.4375L64.9375 26.0625L64.875 25.875V24.1875L65.0625 23.6875L65.4375 23.3125H66.0625L67.25 23.5H67.625L67.75 23.4375L68.0625 21.8125L68.5625 19.875L69.0625 18.625L69.5625 17.6875L70.1875 16.75L70.75 16.0625L71.8125 15L73.0625 14.125L74.0625 13.5625L75.1875 13.0625L75.8125 12.8125L76.5 12.625L77.1875 12.3125L77.5 12L78.0625 11.3125L78.4375 11Z" fill="white"/>
<path d="M54.875 21.8125V22L54.5625 22.25V22.0625H54.6875L54.75 21.875L54.875 21.8125Z" fill="white"/>
</svg>
