<svg width="100" height="100" viewBox="0 0 100 100" fill="none" xmlns="http://www.w3.org/2000/svg">
<path d="M73.6328 2.58789H74.9023L76.3184 2.73438L77.3926 2.97852L78.3691 3.27148L79.6875 3.85742L80.4688 4.3457L81.25 4.88281L81.8359 5.41992L82.7148 6.29883L83.4473 7.42188L83.8867 8.25195L84.2285 9.27734L84.375 10.0586L84.4238 10.6445V11.1816L84.375 12.1582L85.1562 12.6465L85.8887 13.1348L86.6699 13.6719L87.4023 14.3066L88.0859 14.8926L88.5742 15.332L89.1602 15.918V16.0156H89.2578L89.5996 16.4062L90.0879 16.9434L90.625 17.627L91.3086 18.6035L92.041 19.7266L92.5293 20.7031L93.0176 21.6309L93.4082 22.6074L93.9453 24.1211L94.1895 25.0488L94.6289 27.1973L94.7754 28.5645L94.8242 29.4434V33.5938L94.7266 34.082L94.3848 34.5703L94.1406 34.7656L93.7012 34.9609H92.9199L92.4316 34.7168L92.0898 34.375L91.8945 33.9355L91.8457 33.7402L91.7969 29.8828L91.6992 28.1738L91.4551 26.6113L91.1621 25.3906L90.8691 24.4141L90.4297 23.2422L89.7461 21.8262L89.2578 20.9473L88.7207 20.1172L88.0371 19.1895L87.5977 18.6523L86.9141 17.9199L86.7188 17.7246V17.627L86.5234 17.5293L85.9863 16.9922L85.4492 16.5527L84.7168 15.9668L83.8867 15.3809L82.8125 14.7461L81.6895 14.1602L80.9082 13.8184L79.4434 13.2812L77.6367 12.8418L76.3672 12.6465L75.1465 12.5488H73.2422L72.1191 12.6465L70.6055 12.8906L69.0918 13.2812L68.1152 13.623L66.9434 14.1113L65.7715 14.6973L64.6484 15.3809L63.8184 15.9668L63.0371 16.6016L62.6465 16.9434L62.1582 17.3828L61.377 18.1641L61.3281 18.2617H61.2305L61.1328 18.457L60.8887 18.75H60.791L60.6934 18.9453L60.4004 19.3359L59.9121 19.9707L59.4727 20.6543L59.0332 21.3867L58.6914 21.9727L58.0566 23.3398L57.4707 25L57.0801 26.5137L56.8359 28.0762L56.7383 29.6875L56.6895 32.4219L57.4219 32.1777L58.3984 32.0312L59.5703 31.8848L60.3027 31.6895L61.2305 31.25L61.8164 30.8594L62.5 30.3223L62.9883 29.8828L63.8672 29.0039L64.4043 28.3203L64.8926 27.6855L65.4297 26.8555L66.0645 25.7812L66.5039 25.3418L66.9434 25.1465H67.7246L68.3105 25.4395L69.1895 26.0742L69.8242 26.4648L70.7031 26.9531L71.7285 27.4414L73.1445 27.9785L74.2676 28.3203L76.123 28.8086L78.3691 29.2969L81.25 29.8828L83.3984 30.4199L84.8633 30.9082L86.084 31.3965L87.0117 31.8848L87.5488 32.2266L88.3301 32.8125L89.1113 33.5449L89.6484 34.2285L90.0879 34.9121L90.4785 35.6934L90.8691 36.7188L91.1133 37.6953L91.3086 39.1113L91.3574 39.7949V41.0156L91.2598 42.334L91.0645 43.6035L90.918 44.3848L90.5762 45.6055L90.1367 46.8262L89.8438 47.5586L89.4531 48.3398L89.1602 48.877L88.623 49.7559L88.2324 50.3418L87.7441 50.9766L87.3047 51.5137L86.8164 52.0508L86.4746 52.4414L85.9863 52.9297L85.5957 53.2715L84.9609 53.8086L84.0332 54.4922L83.3008 54.9805L82.8125 55.2734H82.7148V58.7891L82.8125 59.4727L82.959 59.8633L83.3008 60.3027L83.5449 60.498L84.3262 60.8887L88.623 62.5977L94.4824 64.9414L95.8008 65.4785L96.582 65.8691L97.3633 66.3574L97.9004 66.8457L98.291 67.1875L98.8281 67.8711L99.2676 68.6035L99.6094 69.3848L99.9512 70.4102H100V80.7617L99.6582 81.2988L99.3164 81.5918L98.7305 81.7871L98.291 81.8359V95.8496L98.1934 96.4355L97.9004 96.9238L97.5586 97.2168L96.9238 97.4121L96.3867 97.3633L95.8984 97.1191L95.5078 96.6797L95.3613 96.3379L95.3125 96.0938L95.2637 81.8359H91.3574V95.9961L91.2109 96.582L90.8691 97.0215L90.5273 97.2656L90.0391 97.4121H89.6973L89.209 97.2656L88.8184 96.9727L88.5742 96.6797L88.4277 96.2891L88.3789 96.0938L88.3301 91.0645V83.4473L88.3789 76.6602L88.5742 76.123L88.8672 75.7324L89.2578 75.4883L89.5996 75.3906H90.0879L90.5273 75.5371L90.8203 75.7324L91.1621 76.123L91.3574 76.7578V78.8574H97.0215L96.9727 71.4844L96.8262 70.6543L96.582 70.0195L96.2891 69.5312L95.8496 69.043L95.5078 68.75L94.6289 68.2617L85.5957 64.6484H85.4492L84.9609 65.4297L84.4727 66.1621L83.9355 66.9434L83.4473 67.5781L83.0078 68.1641H82.9102L82.8125 68.3594L82.373 68.8477L81.9336 69.3848L80.3711 70.9473L79.834 71.3867L79.2969 71.875L78.6133 72.4121L77.7344 73.0469L77.0996 73.4863L75.6836 74.3164L74.8535 74.7559L74.2676 74.9023L73.6816 74.7559L72.9004 74.3652L71.7285 73.6816L71.1426 73.291L70.2637 72.6562L69.6777 72.2168L69.043 71.6797L68.5059 71.2402L67.6758 70.459L66.6992 69.4824L66.3574 69.0918L65.8691 68.5547L65.4297 68.0176L64.8438 67.2852L64.209 66.4062L63.6719 65.5762L63.0859 64.6973V64.5996L61.5723 65.1855L56.3477 67.2852L53.9062 68.2617L53.0273 68.75L52.5391 69.1895L52.4414 69.3359H52.3438L52.2461 69.5312L51.8555 70.2148L51.6113 70.9961L51.5625 71.3379L51.5137 78.8086H57.1289L57.1777 76.6602L57.373 76.123L57.6172 75.7812L58.0566 75.4883L58.3984 75.3906H58.8379L59.2285 75.4883L59.6191 75.7324L59.9609 76.123L60.1074 76.5137L60.1562 76.7578V95.9473L60.0586 96.4355L59.7656 96.9238L59.3262 97.2656L58.8379 97.4121H58.4961L58.0078 97.2656L57.6172 96.9727L57.3242 96.5332L57.1777 96.0938L57.1289 94.4336V81.8359H53.2227V95.9961L53.125 96.4355L52.832 96.9238L52.4902 97.2168L51.8555 97.4121L51.3184 97.3633L50.8301 97.1191L50.4395 96.6797L50.293 96.3379L50.2441 96.0938V81.8359L49.707 81.7871L49.2188 81.5918L48.8281 81.25L48.584 80.8594L48.4863 80.3223V71.5332L48.584 70.5566L48.8281 69.5801L49.2188 68.6523L49.707 67.8711L50.1953 67.2363L50.8301 66.6016L51.5137 66.1133L52.002 65.8203L53.0273 65.332L64.4043 60.791L65.1367 60.4004L65.5762 59.8633L65.7227 59.4727L65.7715 59.1797V55.3223L64.8438 54.7363L64.1602 54.248L63.5254 53.7598L62.8418 53.1738L62.207 52.5879L61.8652 52.2461L61.5234 51.8555L60.9375 51.1719L60.4492 50.5371L59.668 49.3652L59.082 48.3398L58.5449 47.2168L58.0566 45.9473L57.666 44.6289L57.4707 43.6523L57.2266 41.9922L57.1289 41.6992L56.4941 41.4551L55.8105 41.0645L55.1758 40.5273V40.4297H55.0781L54.6387 39.8926L54.248 39.2578L53.9551 38.623L53.7598 37.8418L53.7109 37.4512V28.9062L53.8574 27.3926L54.1992 25.6348L54.4922 24.3652L55.127 22.5586L55.5176 21.6309L56.25 20.166L56.6895 19.3848L57.4707 18.2617L58.1055 17.334L58.7402 16.6504L59.082 16.2109H59.1797L59.2773 16.0156L59.6191 15.6738L59.668 15.5762H59.7656L59.8633 15.3809L60.4492 14.8438L60.9863 14.4043L61.7188 13.7695L62.5488 13.1836L63.6719 12.4512L64.1602 12.1094L64.1113 11.5234V10.3516L64.2578 9.47266L64.5508 8.44727L64.9414 7.61719L65.7227 6.44531L66.1621 5.95703L66.4551 5.61523L66.8457 5.27344L67.1875 4.93164L67.9688 4.39453L68.6523 3.95508L69.6777 3.4668L70.4102 3.17383L72.168 2.73438L73.6328 2.58789ZM73.6328 5.56641L72.7051 5.66406L71.4844 5.95703L70.5078 6.34766L69.9219 6.64062L69.1406 7.17773L68.4082 7.86133L68.0664 8.25195L67.627 8.93555L67.334 9.61914L67.0898 10.6934L67.2852 10.7422L68.7988 10.2539L70.5566 9.86328L72.3633 9.61914L73.0469 9.57031H75.3906L76.6113 9.66797L78.1738 9.91211L79.6875 10.2539L81.3965 10.791L81.3477 10.2539L81.1523 9.47266L80.7617 8.69141L80.2734 8.00781L79.6387 7.37305L79.0527 6.93359L78.2227 6.44531L77.1973 6.00586L76.2695 5.76172L75.4883 5.61523L74.707 5.56641H73.6328ZM67.7734 28.7598L67.3828 29.248L66.8945 29.9316L66.5039 30.4688L66.0645 31.0059L65.332 31.7871L64.9414 32.1777L64.5508 32.5195L64.0137 32.959L63.1836 33.5449L62.3047 34.0332L61.5723 34.375L60.5469 34.7168L59.8145 34.8633L58.3008 35.0586L57.8125 35.2051L57.3242 35.5469L57.0312 35.8887L56.8359 36.2305L56.6895 36.9629L56.7871 37.5977L57.0801 38.1836L57.4707 38.5742L57.8613 38.8184L59.1797 39.1113L59.668 39.4043L59.9609 39.8438L60.0586 40.0879L60.1562 41.0645L60.3027 42.5781L60.5469 43.8477L60.8887 45.0195L61.2305 45.8984L61.7676 47.0703L62.2559 47.9004L62.8906 48.7793L63.6719 49.8047L64.2578 50.4395L64.6484 50.8301L65.1855 51.2695L65.7715 51.7578L66.5527 52.2949L67.1875 52.6855L68.3105 53.2715L69.1895 53.6621L70.5566 54.1016L71.9727 54.3945L73.1445 54.541H75.4395L76.8555 54.3457L78.125 54.0527L79.2969 53.6621L80.3223 53.2227L81.3477 52.6855L82.3242 52.0508L82.9102 51.6113L83.4473 51.1719L83.9355 50.7324L84.2285 50.4883L84.5703 50.0977L84.9121 49.7559L85.3027 49.2188L85.7422 48.6328L86.2305 47.9492L86.7188 47.1191L87.2559 46.0449L87.7441 44.6777L88.0859 43.3594L88.2812 42.1875L88.3789 40.7227L88.3301 39.6484L88.1836 38.2812L87.9395 37.3535L87.5488 36.4746L87.1582 35.8887L86.7188 35.4004L86.3281 35.0098L85.6445 34.5703L84.5703 33.9844L83.1055 33.4473L81.25 32.959L79.4922 32.5684L76.416 31.9336L73.6816 31.25L72.9004 31.0059L71.2402 30.4199L70.0195 29.9316L69.1895 29.541L68.0176 28.8574L67.7734 28.7598ZM68.7988 56.6895V58.7891L68.7012 59.8633L68.457 60.6934L68.0664 61.4746L67.6758 62.0605L67.041 62.6953L66.3086 63.1836L65.8691 63.4277L65.9668 63.6719L66.5527 64.502L67.0898 65.2832L67.627 65.918L68.5059 66.9922L68.9941 67.5293L69.043 67.627H69.1406L69.2383 67.8223L70.0195 68.6035L70.4102 68.9453L70.8984 69.3848L71.4355 69.8242L72.2168 70.4102L72.9004 70.8984L73.877 71.4844L74.1699 71.6797L74.4141 71.6309L75.6836 70.8496L76.5625 70.2148L77.4414 69.5312L78.0762 68.9453L78.4668 68.6035L79.7852 67.2852L80.2246 66.748L80.7617 66.1133L81.2012 65.5762L81.6895 64.9414L82.5195 63.7207L82.666 63.4277L82.0312 63.0859L81.3965 62.5977L80.8594 62.0605L80.5176 61.5723L80.2246 61.084L79.9316 60.3027L79.7852 59.668L79.7363 59.1797V56.6895L79.3457 56.7383L78.0273 57.0801L76.709 57.3242L75.4395 57.4707H72.9492L71.3867 57.2754L70.0195 56.9824L68.9941 56.6895H68.7988Z" fill="white"/>
<path d="M21.4355 2.58789H36.5723L37.4512 2.68555L38.4766 2.97852L39.502 3.4668L40.2832 4.00391L41.0156 4.6875L41.5039 5.27344L41.9922 6.05469L42.3828 6.88477L42.627 7.51953L43.1641 7.95898L43.5547 8.30078L43.8477 8.54492V8.64258H43.9453L44.2871 9.0332L44.7754 9.66797L45.2637 10.4492L45.7031 11.377L46.0449 12.4023L46.2402 13.4766L46.2891 14.1113L46.3379 24.6094L46.582 24.9023L46.8262 25.1465L47.168 25.5859L47.5586 26.2695L47.8516 27.0508L47.998 27.832V29.0039L47.8027 29.834L47.4609 30.6152L47.1191 31.2012L46.582 31.8359L46.1426 32.2266L45.459 32.666L44.5801 33.0566L44.4824 33.5449L44.2383 35.1562L43.8477 36.7188L43.457 37.8418L42.9688 39.0137L42.5781 39.7949L42.1875 40.4785L41.5039 41.5527L40.9668 42.2363L40.5762 42.7246L40.0391 43.3594L38.8184 44.5801L38.3301 44.9707L37.793 45.4102H37.6953L37.6465 47.3145L37.5977 47.6562H38.1348L38.7207 47.9004L39.1113 48.291L40.3809 50.1953L40.7227 50.6348L41.1621 50.7812L42.9688 51.3184L44.3848 51.7578L47.0215 52.5391L49.1211 53.1738L50.3906 53.5645L51.123 53.8574L52.0508 54.3945L52.7344 54.9316L53.3691 55.5664L53.9062 56.2988L54.3457 57.0801L54.6875 58.0078L54.8828 58.8867L54.9316 59.2773V60.2051L54.834 60.498L54.5898 60.8887L54.3457 61.1328L54.0039 61.3281L53.5645 61.4258L53.125 61.377L52.6367 61.1816L52.3438 60.9375L52.0996 60.5469L51.9531 59.9609L51.8066 58.9355L51.4648 58.1543L51.1719 57.666L50.4395 56.9336L49.707 56.543L48.5352 56.1523L43.1152 54.541L42.8711 54.4434L42.6758 54.9805L42.3828 55.4199L41.7969 56.1523L41.2598 56.8359L40.8203 57.373L40.2344 58.1055L39.7949 58.6426L39.2578 59.3262L38.623 60.1074L38.2324 60.5957L37.6953 61.2793L37.0605 62.0605L36.6699 62.5488L36.2305 63.0371L35.5469 63.4766L34.9121 63.7207L34.4727 63.8184H33.8379L32.959 63.623L32.1289 63.1836L31.4941 62.6953L30.5664 62.0117L29.9316 61.5234L29.0039 60.8398L28.9551 95.8496L28.8574 96.4355L28.5645 96.9238L28.2227 97.2168L27.5879 97.4121H27.2461L26.709 97.2168L26.3184 96.875L26.0742 96.4844L25.9766 96.0938L25.9277 60.8398L25.3418 61.2793L24.4141 61.9629L23.7793 62.4512L22.8516 63.1348L21.9238 63.623L21.0938 63.8184H20.5078L19.8242 63.6719L19.3359 63.4766L18.8477 63.1348L18.1641 62.4512L17.627 61.7676L16.9922 60.9863L16.4551 60.3027L16.0156 59.7656L15.4297 59.0332L14.8926 58.3496L14.4531 57.8125L13.8672 57.0801L13.3301 56.3965L12.6465 55.5664L12.3047 55.0781L12.1094 54.6387V54.4434L6.73828 56.0547L5.32227 56.4941L4.73633 56.7871L4.29688 57.1289L3.71094 57.7148L3.17383 58.7402L3.02734 59.5215L2.97852 60.6445V87.207L2.92969 96.1426L2.7832 96.582L2.49023 97.0215L2.00195 97.3145L1.61133 97.4121H1.26953L0.78125 97.2656L0.390625 96.9727L0 96.3867V58.7891L0.146484 58.3496L0.390625 57.5195L0.830078 56.5918L1.36719 55.8105L1.95312 55.127L2.63672 54.541L3.51562 54.0039L4.39453 53.6133L5.41992 53.2715L8.05664 52.4902L10.6445 51.709L13.4277 50.8789L14.209 50.6348L14.5508 50.1953L15.2832 49.0723L15.7715 48.3398L16.2598 47.8516L16.748 47.6562L17.2363 47.6074L17.2852 45.5566L16.748 45.0684L16.2109 44.6289L15.7227 44.1895L14.6973 43.1641L14.1602 42.4805L13.6719 41.8945L13.1836 41.1621L12.5977 40.2344L12.0605 39.209L11.6211 38.2324L11.1328 36.9141L10.7422 35.4004L10.5469 34.3262L10.4004 33.1055L9.52148 32.7148L8.93555 32.3242L8.44727 31.8848L7.95898 31.3965L7.4707 30.6641L7.17773 29.9805L6.93359 29.0527L6.88477 28.1738L7.03125 27.1973L7.32422 26.3184L7.71484 25.6348L8.05664 25.1953L8.54492 24.6582L8.59375 24.5117L8.64258 15.4785L8.78906 14.0625L9.0332 12.8906L9.375 11.7188L9.86328 10.498L10.4492 9.375L11.0352 8.44727L11.7188 7.56836L12.1582 7.03125L13.1836 6.00586L13.7207 5.56641L14.5508 4.93164L15.6738 4.24805L16.4551 3.85742L17.1875 3.51562L18.6523 3.02734L19.7266 2.7832L20.8008 2.63672L21.4355 2.58789ZM21.3867 5.56641L20.5566 5.66406L19.4336 5.9082L18.2617 6.29883L17.041 6.88477L16.3574 7.32422L15.5762 7.91016L15.0879 8.34961L14.6973 8.69141L14.1113 9.32617L13.623 9.96094L13.1348 10.6934L12.5 11.9141L12.1094 12.9395L11.8164 14.1113L11.6699 14.9902L11.6211 15.8203V23.3887H13.7207L14.0625 23.3398L14.2578 22.7051L15.2344 17.8711L15.4785 17.1387L15.7715 16.6016L16.3086 16.0156L16.9434 15.625L17.4316 15.4297L17.8223 15.332H18.8477L20.3613 15.6738L21.4844 15.918L23.0469 16.1621L25 16.3574L25.7812 16.4062H28.7598L30.4688 16.3086L32.5684 16.0645L34.3262 15.7227L35.498 15.4297L37.3047 14.8438L37.7441 14.7461L38.2324 14.7949L38.5742 14.9414L38.8672 15.1367L39.1602 15.5762L39.3066 16.0156V16.3574L39.1602 16.8457L38.8672 17.2363L38.5254 17.4805L37.5977 17.8223L36.084 18.3105L34.6191 18.6523L33.3496 18.8965L31.9336 19.0918L30.6152 19.2383L28.8574 19.3359L27.1973 19.3848L25.6836 19.3359L23.6328 19.1895L21.7773 18.9453L20.2148 18.6523L18.5547 18.2617H18.2129L18.0664 18.7012L17.0898 23.5352L16.8945 24.2188L16.5527 24.9023L16.0156 25.4883L15.625 25.7812L14.9902 26.123L14.4043 26.2695L13.6719 26.3184H12.3535L11.4746 26.3672L10.9375 26.5625L10.498 26.9043L10.2051 27.2461L9.96094 27.7344L9.91211 27.9785V28.6133L10.0586 29.1016L10.3516 29.5898L10.791 29.9805L11.1816 30.1758L12.4512 30.4688L12.8906 30.7617L13.1836 31.2012L13.3301 31.8848L13.4277 33.3496L13.623 34.6191L13.9648 35.9863L14.4531 37.3047L15.0391 38.5254L15.625 39.502L16.1133 40.1855L16.6504 40.8691L17.2363 41.5039L17.4805 41.7969H17.5781V41.8945L17.9688 42.2363L18.457 42.6758L19.4336 43.4082L20.3613 43.9941L21.4844 44.5801L22.3633 44.9707L23.5352 45.3613L24.7559 45.6543L26.123 45.8496L27.002 45.8984H27.9297L28.8086 45.8496L30.3711 45.6055L31.6895 45.2637L33.0078 44.7754L34.2285 44.1895L35.4004 43.457L36.1816 42.8711L36.7188 42.4316L37.3535 41.8457L37.9395 41.2598L38.3789 40.7227L38.9648 39.9902L39.4531 39.2578L39.9414 38.4277L40.5762 37.0605L41.0645 35.5957L41.3574 34.2773L41.5039 33.252L41.6016 31.8359L41.6992 31.2988L41.8945 30.9082L42.2852 30.5664L42.7734 30.3711L43.7012 30.1758L44.1895 29.9316L44.5801 29.5898L44.873 29.1016L45.0195 28.5156V27.9785L44.8242 27.3926L44.4824 26.9531L43.7012 26.2695L43.5547 26.123L43.3594 25.5859L43.3105 23.7305V14.3066L43.2129 13.4277L43.0664 12.8906L42.627 11.8652L42.2852 11.3281L41.8457 10.791L41.6016 10.5469L41.0645 10.1074L40.4297 9.61914L40.1367 9.375L39.9414 9.0332L39.6484 8.1543L39.4043 7.51953L39.1113 7.03125L38.6719 6.54297L38.3301 6.25L37.8418 5.95703L37.2559 5.71289L36.6211 5.56641H21.3867ZM20.3125 47.3145L20.2637 47.998V49.707L20.3125 49.9512L20.9961 50.4883L21.6797 51.0742L22.2168 51.5137L22.8516 52.0508L23.3887 52.4902L24.0723 53.0762L24.5605 53.4668L25.2441 54.0527L25.7324 54.4434L26.416 55.0293L27.3926 55.8105L27.5879 55.7617L28.2227 55.2246L28.7598 54.7852L29.3945 54.248L29.9316 53.8086L30.5664 53.2715L31.1035 52.832L31.7383 52.2949L32.2754 51.8555L32.9102 51.3184L33.4473 50.8789L34.082 50.3418L34.5703 49.9512L34.6191 49.9023L34.668 47.3145L34.1797 47.4609L33.0566 47.9004L31.5918 48.3398L30.3711 48.584L29.4434 48.7305L27.9785 48.8281H26.9043L25.4395 48.7305L23.7305 48.4375L22.3145 48.0469L21.3379 47.7051L20.4102 47.3145H20.3125ZM17.334 51.3672L15.4785 54.1504L15.5273 54.3945L16.0156 54.9805L16.5527 55.6641L17.1387 56.3965L17.6758 57.0801L18.3105 57.8613L18.8477 58.5449L19.4824 59.3262L20.0195 60.0098L20.459 60.5469L20.752 60.8398L20.9961 60.791L23.9258 58.5938L24.8535 57.9102L25.0488 57.7148L24.5117 57.2266L23.8281 56.6895L23.3398 56.25L22.8027 55.8105L22.168 55.2734L21.6309 54.834L20.9961 54.2969L20.459 53.8574L19.8242 53.3203L19.2871 52.8809L18.6523 52.3438L18.1152 51.9043L17.4805 51.3672H17.334ZM37.4512 51.3672L37.0117 51.7578L36.4746 52.1973L35.8398 52.7344L35.3027 53.1738L34.668 53.7109L34.1309 54.1504L33.4961 54.6875L32.959 55.127L32.2754 55.7129L31.7383 56.1523L31.1035 56.6895L30.5664 57.1289L29.8828 57.666L29.9316 57.8125L30.5176 58.252L31.543 59.0332L32.4219 59.668L33.3008 60.3516L34.0332 60.8398L34.2285 60.791L34.5703 60.4492L34.9121 60.0098L35.5469 59.2285L36.084 58.5449L36.7188 57.7637L37.2559 57.0801L37.8906 56.2988L38.9648 54.9316V54.834H39.0625L39.4531 54.3457L39.4043 54.1016L39.0625 53.5645L37.5977 51.3672H37.4512Z" fill="white"/>
<path d="M8.25195 59.7656L8.78906 59.8145L9.27734 60.0586L9.7168 60.5469L10.1562 61.377L10.6934 62.5L12.4512 66.0156L12.8906 66.8457L13.2324 67.627L13.3301 67.9688L13.3789 69.7266V91.8945L13.3301 96.1426L13.1836 96.582L12.9883 96.875L12.5977 97.2168L12.207 97.3633L11.7188 97.4121L11.1816 97.2656L10.791 96.9727L10.498 96.5332L10.4004 96.2402L10.3516 95.8496L10.3027 68.5059L9.76562 67.3828L7.03125 61.9141L6.88477 61.377L6.93359 60.9375L7.08008 60.5469L7.37305 60.1562L7.86133 59.8633L8.25195 59.7656Z" fill="white"/>
<path d="M46.3867 59.7656L46.9238 59.8145L47.4121 60.0586L47.7539 60.4004L47.9492 60.7422L47.998 60.9375V61.5723L47.7539 62.207L44.6289 68.457L44.5801 69.2871L44.5312 96.1426L44.3848 96.582L44.0918 97.0215L43.6035 97.3145L43.2129 97.4121H42.8711L42.3828 97.2656L42.0898 97.0703L41.7969 96.6797L41.6016 96.1914L41.5527 95.8008V68.3105L41.6992 67.5781L42.2852 66.3574L45.1172 60.6934L45.5078 60.1562L45.8496 59.9121L46.0938 59.8145L46.3867 59.7656Z" fill="white"/>
<path d="M23.9258 35.498L24.3652 35.5469L24.8535 35.791L25.3418 36.2305L25.7812 36.6211L26.2695 36.9141L26.7578 37.1094L27.0508 37.1582H27.8809L28.5645 36.9629L29.1504 36.6211L29.3945 36.377H29.4922V36.2793H29.5898V36.1816L30.127 35.7422L30.3711 35.5957L30.957 35.498L31.4453 35.5957L31.9336 35.8887L32.2754 36.3281L32.4219 36.7676V37.2559L32.2266 37.7441L31.9824 38.0859H31.8848L31.7871 38.2812L31.4941 38.5742H31.3965V38.6719L30.9082 39.0625L30.1758 39.502L29.6875 39.7461L28.8086 40.0391L27.9785 40.1855H26.9043L26.0254 40.0391L25 39.6484L24.3164 39.2578L23.7793 38.8672L23.5352 38.6719V38.5742L23.3398 38.4766L22.9492 38.0859L22.5586 37.4512L22.5098 37.2559V36.7188L22.7051 36.2305L23.0957 35.791L23.584 35.5469L23.9258 35.498Z" fill="white"/>
<path d="M70.459 44.1895H71.0938L71.582 44.3848L72.168 44.9219L72.6074 45.3125L73.0957 45.6055L73.6816 45.8008L74.0234 45.8496L74.8047 45.8008L75.3906 45.6055L75.9766 45.2637L76.1719 45.0684H76.2695V44.9707H76.3672V44.873H76.4648V44.7754L76.9531 44.3848L77.4414 44.1895H78.0762L78.6621 44.4824L79.0039 44.873L79.1992 45.3125V45.9961L78.9062 46.582L78.3691 47.168L77.832 47.6562L76.8555 48.2422L76.2695 48.4863L75.5371 48.7305L74.4629 48.877H73.9746L72.9004 48.7305L71.7285 48.291L70.8008 47.7051L70.3125 47.2656L69.6289 46.582L69.3359 45.9961V45.3125L69.6289 44.7266L70.0195 44.3848L70.459 44.1895Z" fill="white"/>
<path d="M80.8105 35.5469H81.543L81.9336 35.6934L82.2266 35.8887L82.5195 36.2793L82.666 36.7188L82.7148 37.0605V38.6719L82.5684 39.3066L82.2754 39.7461L81.9336 40.0391L81.4941 40.1855H80.9082L80.4688 40.0391L80.0293 39.6484L79.7852 39.209L79.6875 38.7695V36.9629L79.834 36.377L80.127 35.9375L80.5664 35.6445L80.8105 35.5469Z" fill="white"/>
<path d="M66.9434 35.5469H67.6758L68.0664 35.6934L68.5547 36.1328L68.75 36.5234L68.8477 37.1582V38.623L68.75 39.209L68.457 39.6973L68.0664 40.0391L67.627 40.1855H66.9922L66.5527 39.9902L66.1621 39.6484L65.918 39.209L65.8203 38.7695V36.9629L65.9668 36.377L66.2598 35.9375L66.6992 35.6445L66.9434 35.5469Z" fill="white"/>
<path d="M34.1309 26.8555H34.668L35.1562 27.0508L35.5469 27.3926L35.7422 27.6855L35.8887 28.1738V30.2246L35.7422 30.7129L35.4492 31.1035L35.0586 31.3965L34.5215 31.543L33.9844 31.4941L33.4961 31.25L33.1055 30.8105L32.9102 30.2734V28.125L33.1055 27.5879L33.3984 27.1973L33.7891 26.9531L34.1309 26.8555Z" fill="white"/>
<path d="M20.2637 26.8555H20.752L21.1914 27.002L21.4844 27.1973L21.8262 27.5879L21.9727 27.9297L22.0215 28.1738V30.2246L21.875 30.7129L21.582 31.1035L21.1914 31.3965L20.6543 31.543L20.1172 31.4941L19.6289 31.25L19.2871 30.8594L19.0918 30.4688L19.043 30.2734V28.125L19.2383 27.5879L19.5312 27.1973L19.9219 26.9531L20.2637 26.8555Z" fill="white"/>
<path d="M21.9727 71.9238H22.5586L23.1445 72.168L23.4863 72.5098L23.7305 72.998L23.7793 73.4375L23.6816 73.877L23.4863 74.2676L23.1445 74.6094L22.7539 74.8047L22.5586 74.8535H21.9727L21.4844 74.6582L21.0938 74.3164L20.8496 73.877L20.8008 73.6816V73.0957L20.9961 72.6074L21.3379 72.2168L21.8262 71.9727L21.9727 71.9238Z" fill="white"/>
<path d="M21.9727 85.791H22.5586L23.1445 86.0352L23.4863 86.377L23.6816 86.7188L23.7793 87.1094L23.7305 87.6465L23.4863 88.1348L23.1445 88.4766L22.7539 88.6719L22.5098 88.7207H21.9727L21.4844 88.5254L21.0938 88.1836L20.8496 87.7441L20.8008 87.5488V86.9629L20.9961 86.4746L21.3379 86.084L21.8262 85.8398L21.9727 85.791Z" fill="white"/>
<path d="M21.9727 78.8574H22.5586L23.0469 79.0527L23.4863 79.4434L23.7305 79.9316L23.7793 80.4199L23.6816 80.8594L23.3887 81.2988L22.998 81.6406L22.6074 81.7871H21.9727L21.582 81.6406L21.2891 81.4453L21.0449 81.1523L20.8496 80.7617L20.8008 80.6152V80.0293L20.9961 79.541L21.3379 79.1504L21.8262 78.9062L21.9727 78.8574Z" fill="white"/>
</svg>
