<svg width="100" height="100" viewBox="0 0 100 100" fill="none" xmlns="http://www.w3.org/2000/svg">
<path d="M52.5879 0H54.541V0.0976562L54.9316 0.146484L55.7129 0.390625L56.4941 0.78125L56.9824 1.12305L57.6172 1.70898L58.0078 2.14844L58.5449 3.02734L58.9355 3.80859L61.6699 9.96094L61.9629 10.6445H63.3301L64.1602 10.7422L65.0879 10.9863L66.2109 11.5234L67.0898 12.1582L67.8223 12.8906L68.4082 13.7207L68.7988 14.502L69.043 15.1367L69.2383 15.918L69.2871 15.9668L71.7285 16.2598L72.2656 16.4551L72.7051 16.7969L72.9492 17.0898L73.1445 17.627V18.2617L72.998 18.7012L72.6562 19.1406L72.2656 19.4336L71.8262 19.5801L71.6309 19.6289H71.0449L68.8477 19.3848L68.75 19.6777L68.4082 20.3613L67.9688 20.9961L67.4316 21.582L67.041 21.9238L67.0898 22.168L67.7246 23.6328L68.3594 25.0488L69.2383 27.0508L70.1172 29.0039L70.459 29.6875L70.8008 30.127L71.2402 30.4199L71.7773 30.6152L72.4121 30.6641L72.998 30.5176L73.5352 30.2246L74.0234 29.7363L74.5117 29.0527L75.1953 28.125L75.6836 27.4414L76.3184 26.5625L77.002 25.6348L77.6367 24.7559L78.3203 23.8281L78.6621 23.2422L78.8086 22.8027V21.9238L78.6133 21.3867L78.3203 20.9473L77.9297 20.6055L77.5391 20.4102L76.5137 20.1172L76.123 19.873L75.7324 19.4824L75.5371 19.0918L75.4395 18.457L75.5371 18.0664L75.7324 17.627L76.0742 17.2363L76.5625 16.9434L77.0996 16.8457L77.5391 16.8945L78.5645 17.1387L79.0527 17.334L79.9805 17.8711L80.4688 18.3105L80.6641 18.457V18.5547H80.7617V18.6523H80.8594L81.2988 19.2383L81.7383 19.9707L82.0312 20.752L82.2266 21.582L82.2754 22.5586L82.1777 23.4375L81.9336 24.3164L81.543 25.0977L81.0059 25.9766L80.7129 26.3672L80.0293 27.2949L79.3945 28.1738L78.7109 29.1016L78.3203 29.6387V29.7363L79.1504 30.1758L79.7852 30.6641L80.2734 31.1035L80.7129 31.543L81.25 32.2754L81.6895 33.0566L82.0312 33.9355L82.2266 34.7168L82.3242 35.498V36.4258L82.1777 37.5L81.8848 38.4766L81.4453 39.4043L81.1035 39.9414L80.7617 40.3809L80.3223 40.8691L79.9805 41.2109L79.1016 41.8457L78.1738 42.334L77.1484 42.6758L77.0996 42.8223V45.5078L76.8555 47.5586L76.6113 48.7305L76.2695 50.0977L75.8789 51.2695L75.293 52.7344L74.8047 53.7109L74.2188 54.7852L73.7305 55.5664L73.0957 56.4453L72.4121 57.373L71.6309 58.2031L71.0938 58.7891L70.459 59.4238L69.9707 59.8145L69.3359 60.3516L68.6523 60.8887L68.0176 61.377L66.6504 62.3535L66.5039 62.5L68.6035 63.5254L69.9707 64.4531L70.6543 64.9414L71.1914 65.4297L71.582 65.7715L71.9238 66.1133L72.3145 66.4551L72.6562 66.7969L73.1934 67.4805L73.8281 68.2617L74.2676 68.8965L75.0977 70.3125L75.4883 71.0449L76.2207 72.9004L76.5625 74.1699L76.9043 75.8301L77.0508 77.3926V98.4863L76.9043 99.0234L76.5625 99.5117L76.1719 99.8047L75.7324 100H24.2188L23.584 99.6582L23.1934 99.2188L22.998 98.7793L22.9004 98.1934V89.1113L22.998 88.4766L23.1934 88.0371L23.5352 87.6465L23.9746 87.3535L24.3164 87.2559H24.9512L25.4395 87.4512L25.8301 87.7441L26.123 88.1348L26.2695 88.4766L26.3184 88.7695V96.6309H32.7637V81.25L32.959 80.6152L33.3008 80.1758L33.7402 79.8828L34.1797 79.7363H34.7168L35.2051 79.8828L35.5957 80.1758L35.9375 80.5664L36.084 80.957L36.1328 81.2012L36.1816 82.7637V85.5957L36.1328 96.6309H63.8184V81.4941L63.916 80.9082L64.1602 80.4199L64.4043 80.1758L64.7949 79.8828L65.2832 79.7363H65.8203L66.3574 79.9316L66.7969 80.2734L67.0898 80.7129L67.1875 81.0547L67.2363 81.4941V96.6309L73.6328 96.582V78.5156L73.584 77.0508L73.4375 75.8789L73.1445 74.5605L72.8027 73.5352L72.3633 72.5586L71.8262 71.4355L71.2402 70.5566L70.6543 69.7266L70.2148 69.2383L70.0195 69.043V68.9453H69.9219L69.5801 68.5547L69.0918 68.0664L67.2363 66.6992L66.1621 66.1133L65.1855 65.6738L63.8672 65.2344L63.1348 65.0391L62.8906 65.0879L62.1094 65.6738L61.4258 66.1621L60.498 66.8457L59.8145 67.334L59.2773 67.7246L58.3984 68.3105L57.3242 68.9453L56.4941 69.3359L54.9316 69.9707L53.6621 70.3125L52.2949 70.6055L50.4883 70.752H49.4141L47.6074 70.6055L45.5566 70.1172L44.9219 69.9219L43.0664 69.1406L42.1387 68.6523L41.2109 68.0664L40.5273 67.5781L38.7695 66.3086L37.9883 65.7227L37.7441 65.5762L37.9883 66.748L38.3301 67.8711L38.7695 68.8965L39.1602 69.6777L39.5508 70.2637L40.2832 71.3379L40.7227 71.8262L41.1133 72.2168V72.3145H41.2109L41.5527 72.7051L42.041 73.1445L42.7246 73.6328L43.6035 74.2676L44.5801 74.8047L45.8984 75.3418L47.0703 75.6836L48.0957 75.8789L48.877 75.9766L49.6582 76.0254H50.1953L51.8555 75.8789L53.2227 75.5859L54.0039 75.3418L55.3711 74.8047L56.6895 74.0723L57.373 73.584L58.0566 73.0469L58.5449 72.6074L59.2285 71.9238L59.5703 71.5332L60.1562 70.752L60.6445 70.0195L61.377 68.6035L61.6699 68.1152L61.9141 67.8223L62.4023 67.5293L62.793 67.4316H63.2812L63.7695 67.5781L64.2578 67.9199L64.5508 68.3594L64.6973 68.75L64.7461 69.1406L64.5996 69.8242L64.1113 70.752L63.7207 71.5332L63.2812 72.2656L62.6953 73.0469L62.207 73.7305L61.5234 74.4629L60.8887 75.0977L60.8398 75.1953H60.7422V75.293L60.2051 75.7324L59.5215 76.2695L58.9355 76.709L58.3008 77.0996L57.0801 77.7832L56.3477 78.125L54.6387 78.7598L52.7344 79.1992L51.6602 79.3457L50.3906 79.4434H49.2188L48.0957 79.3457L46.875 79.1504L45.6543 78.8574L44.1895 78.3691L42.9688 77.832L41.8457 77.1973L41.3086 76.8555L40.5273 76.3184L39.6973 75.6348L38.9648 74.9512L38.2324 74.2188L37.3535 73.1445L36.7188 72.2656L36.1328 71.2891L35.7422 70.5566L35.2539 69.4336L34.8633 68.3594L34.5703 67.2852L34.3262 66.0156V65.8691L33.5449 66.3086L32.8613 66.6504L32.2754 67.041L31.3965 67.6758L31.0059 68.0176H30.9082L30.8594 68.1641L30.4688 68.5059L29.7363 69.2383L29.248 69.873L28.5645 70.8008L27.9785 71.8262L27.5879 72.5586L27.1973 73.5352L26.9043 74.4141L26.5625 75.9277L26.416 77.1973L26.3672 78.0273L26.3184 82.8125L26.1719 83.3984L25.8301 83.8867L25.3418 84.2285L24.7559 84.375L24.1699 84.3262L23.584 84.0332L23.1934 83.5938L22.998 83.1543L22.9004 82.5684V78.1738L22.998 76.5137L23.1934 75.1953L23.7305 73.0469L24.2188 71.7773L24.6582 70.752L25.1953 69.7754L25.6348 69.043L25.9766 68.5059L26.416 67.9688L26.9531 67.2852L27.5391 66.6016L28.125 66.0156L28.5156 65.6738L29.248 64.9902L30.2246 64.3066L31.3965 63.5254L32.666 62.8906L33.3984 62.5488H33.4961L33.252 62.3047L32.4707 61.7188L31.5918 61.084L30.8105 60.4492L29.9805 59.7656L29.2969 59.1797L28.9062 58.7891L28.5645 58.3984L28.0762 57.9102L27.7344 57.5195L27.2461 56.9336L26.6113 56.0059L26.0742 55.2734L25.6348 54.4922L24.9512 53.2227L24.5605 52.3926L23.877 50.5859L23.584 49.5605L23.2422 48.0957L23.0469 46.7773L22.9004 45.5078V42.7734L22.8516 42.6758L21.6797 42.2852L20.8008 41.7969L20.166 41.3086L19.6777 40.8691L19.3359 40.5273L18.7988 39.7949L18.3594 39.0625L17.9688 38.0859L17.7246 37.0605L17.6758 36.6211V35.5469L17.8223 34.5215L18.1641 33.3984L18.75 32.2754L19.2383 31.6406L19.6777 31.1523L20.0195 30.8105L20.8496 30.1758L21.875 29.6387L22.7539 29.3457L23.0957 29.248L24.3652 29.1016L24.4629 29.0527L24.9512 27.002L25.293 25.8301L25.8789 24.2188L26.5625 22.6562L27.0508 21.6797L27.6855 20.5566L28.0273 20.0195L28.4668 19.3848L29.1504 18.4082L29.7852 17.5293L30.4199 16.8457L30.7617 16.4551L31.2012 15.9668L31.3477 15.7715H31.4453L31.543 15.5762L32.5195 14.5996H32.6172V14.502L33.0078 14.1602L33.8379 13.4766L34.4727 12.9883L35.3027 12.4023L36.0352 11.9141L37.0605 11.2793L38.623 10.4492L39.7949 9.91211L40.3809 9.76562H40.7715L41.2598 9.91211L41.6992 10.2051L41.9922 10.5469L42.1875 10.9863L42.2363 11.2305V11.7676L42.0898 12.207L41.7969 12.6465L41.3086 12.9883L38.8672 14.209L37.793 14.8926L37.1094 15.332L36.3281 15.918L35.498 16.6016L35.0098 16.9922L34.6191 17.3828H34.5215L34.4238 17.5781L33.1055 18.8965L32.7148 19.3848L32.1777 20.0684L31.6895 20.7031L31.2012 21.4355L30.4199 22.7051L29.9316 23.6328L29.3945 24.7559L29.0039 25.7324L28.4668 27.2461L28.3691 27.4414L31.2988 27.9785L33.1055 28.2227L34.9121 28.3691L35.6445 28.418H38.1348L40.5273 28.2227L42.4805 27.9297L44.3848 27.4902L46.1914 26.9531L47.7539 26.3672L49.6094 25.5371L51.1719 24.707L52.3438 23.9746L52.9785 23.5352L54.834 22.168L55.4688 21.6309L56.1523 20.9961L56.543 20.6543L57.1777 20.0684L57.1289 19.7754L56.8359 19.043L56.543 18.0664L52.7344 17.6758L49.0723 17.2852L48.1445 17.1387L47.168 16.8945L46.3867 16.5039L45.752 16.1133L44.9707 15.3809L44.6289 14.9414L44.043 13.9648L43.7012 12.9395L43.6035 12.5488L43.5547 11.2305L43.7012 10.498L43.9453 9.66797L44.5312 8.54492L45.8008 6.78711L46.4844 5.85938L46.9727 5.17578L47.6562 4.24805L48.1934 3.51562L48.6816 2.83203L49.2188 2.09961H49.3164L49.4141 1.9043L50.1953 1.12305L51.2207 0.488281L51.8555 0.244141L52.3926 0.0976562H52.5879V0ZM53.2715 3.36914L52.7832 3.51562L52.2949 3.80859L51.7578 4.3457L50.7812 5.71289L50.3906 6.25L49.707 7.17773L49.0723 8.05664L48.6816 8.59375L47.998 9.52148L47.5098 10.2051L47.2168 10.6934L47.0215 11.1328L46.9727 11.3281V12.1094L47.168 12.6465L47.4609 13.0859L47.7051 13.3301L48.0957 13.623L48.7793 13.8184L51.3184 14.1113L56.7871 14.6973L56.9824 14.6484L57.4707 13.7207L57.959 13.0371L58.4961 12.4512L58.8379 12.1094L58.7891 11.8652L57.9102 9.86328L55.5664 4.58984L55.127 3.95508L54.7363 3.66211L54.3457 3.4668L53.9551 3.36914H53.2715ZM62.6953 14.0137L62.1094 14.1113L61.5234 14.3555L60.9863 14.6973L60.5469 15.1367L60.1562 15.8203L59.9609 16.4062L59.9121 16.748V17.3828L60.0586 17.9688L60.3027 18.5547L60.6445 18.9941L60.8887 19.2871L61.377 19.6289L61.8652 19.873L62.5 20.0195H63.3301L63.916 19.873L64.6973 19.4824L65.2344 18.9941L65.625 18.4082L65.8203 17.9199L65.918 17.4316V16.6504L65.7715 16.0156L65.4297 15.332L65.0391 14.8438L64.502 14.4531L64.0137 14.209L63.5742 14.0625L63.2324 14.0137H62.6953ZM59.5703 22.5098L58.7402 23.291L58.252 23.7305L58.3008 23.9258L58.6914 24.4141H58.7891L58.8867 24.6094L59.4727 25.2441L59.8633 25.6348L60.2539 25.9766L60.6445 26.3672L61.4746 27.002L62.4512 27.7344L62.9883 28.0762L63.916 28.6133L65.1855 29.248L65.6738 29.5898L66.0156 30.127L66.1133 30.4199V31.0547L65.9668 31.543L65.625 31.9824L65.2832 32.2266L64.8438 32.373H64.209L63.6719 32.2266L62.6465 31.7383L61.7676 31.25L60.791 30.6641L59.4238 29.6875L58.6426 29.0527L57.9102 28.3691L57.0801 27.5879L56.6406 27.1484L56.2012 26.6113L55.6152 25.9766L55.3711 26.0254L54.541 26.6113L53.7109 27.1484L52.4414 27.8809L51.5625 28.3691L50.6348 28.8086L49.8535 29.1992L48.2422 29.834L47.168 30.2246L45.3613 30.7617L43.457 31.2012L41.6992 31.4941L40.0879 31.6895L38.623 31.7871L37.4023 31.8359H36.2305L34.1309 31.7383L32.1777 31.543L29.9805 31.2012L27.7832 30.7617H27.6855L27.5879 31.2012L27.1484 35.0586L26.8066 38.2324L26.5137 40.8203L26.3672 42.1875L26.2695 44.1406V44.873L26.416 46.5332L26.6113 47.6562L26.9531 49.0723L27.4414 50.4883L27.8809 51.5137L28.7109 53.125L29.248 53.9062L29.834 54.7363L30.2246 55.2246L30.9082 55.957L31.25 56.3477L31.8848 56.9824L32.373 57.373L33.0566 57.959L33.8379 58.5449L35.5957 59.8145L36.5234 60.498L37.3535 61.084L38.2812 61.7676L40.0391 63.0371L40.9668 63.7207L41.6504 64.209L42.5781 64.8926L43.6523 65.5762L44.3848 66.0156L45.3613 66.4551L46.3867 66.8457L47.6074 67.1387L48.0957 67.2363L49.9023 67.3828L51.3672 67.2852L52.1484 67.1875L53.7109 66.7969L55.0781 66.2598L56.0059 65.7715L57.1777 65.0391L57.8613 64.5508L58.7402 63.916L59.668 63.2324L62.3047 61.3281L63.2324 60.6445L65.8691 58.7402L66.6504 58.1543L67.1875 57.7148L68.457 56.6406L68.9453 56.1523L69.2871 55.7617L69.7266 55.2734L70.3125 54.541L71.0449 53.4668L71.4355 52.832L72.2168 51.3184L72.7051 50.0488L73.0469 49.0234L73.3887 47.6074L73.584 46.4355L73.7305 44.7266L73.6328 42.4805L73.3887 40.0391L72.7539 34.375L72.7051 34.082L71.6309 34.0332L70.2637 33.6914L69.4824 33.3008L68.9941 33.0078L68.3594 32.4219L67.9199 31.9824L67.2363 30.8594L66.7969 29.9316L65.918 27.9297L64.9414 25.7324L64.2578 24.1699L63.916 23.4375L63.7207 23.3398L63.2812 23.3887H62.5488L61.7676 23.291L60.9863 23.0957L60.2539 22.8027L59.668 22.5098H59.5703ZM23.7793 32.5684L23.0957 32.8125L22.5586 33.1055L21.9727 33.6426L21.582 34.1309L21.2891 34.7168L21.0938 35.4004L21.0449 36.084L21.1914 36.9629L21.4355 37.5488L21.7285 38.0859L22.1191 38.4766L22.168 38.5742H22.2656V38.6719L22.9004 39.0625L23.1445 39.209H23.291L23.4375 38.1836L24.0234 32.9102V32.5684H23.7793ZM75.9766 32.5684V33.0078L76.6602 39.209L76.9043 39.1602L77.5879 38.7695L78.2227 38.1348L78.5156 37.6465L78.7598 37.1094L78.9062 36.377V35.4492L78.7109 34.7168L78.3691 34.0332L77.832 33.4473L77.4414 33.1055L76.6602 32.7148L76.1719 32.5684H75.9766Z" fill="white"/>
<path d="M45.3125 53.7109H45.9961L46.4844 53.9062L46.9727 54.248L47.6074 54.7363L48.3887 55.127L49.0723 55.3223L49.8047 55.4199L50.6836 55.3711L51.4648 55.1758L52.2949 54.7852L52.9297 54.2969L53.5645 53.8574L54.0039 53.7109H54.6875L55.1758 53.9062L55.6641 54.3457L55.9082 54.7852L56.0059 55.0781V55.6641L55.8105 56.1523L55.6152 56.4453L55.3711 56.7383L54.834 57.1777L54.248 57.6172L53.0273 58.252L52.1484 58.5449L51.3672 58.7402L50.3906 58.8379H49.5605L48.5352 58.7402L47.5098 58.4473L46.7285 58.1543L45.6543 57.5684L44.8242 56.8848L44.4824 56.5918L44.1406 56.1035L43.9941 55.6641V55.0781L44.1895 54.541L44.4336 54.1992H44.5312V54.1016L45.0195 53.8086L45.3125 53.7109Z" fill="white"/>
<path d="M59.668 38.4277H60.1562L61.377 38.5742L62.2559 38.8184L63.0371 39.1602L63.8184 39.5996L64.5996 40.2344L64.9902 40.5762L65.2344 40.918L65.3809 41.3086L65.4297 41.7969L65.2832 42.3828L64.9414 42.8711L64.502 43.2129L64.0625 43.3594H63.3789L62.9395 43.2129L62.1582 42.627L61.6211 42.2852L61.084 42.041L60.4492 41.8945H59.3262L58.6914 42.041L57.9102 42.4316L57.4707 42.7734L56.8359 43.2129L56.4453 43.3594H55.7617L55.2246 43.1641L54.7363 42.7246L54.4434 42.1387L54.3945 41.8945V41.5039L54.541 41.0156L54.834 40.5762L55.2246 40.1855L55.9082 39.6484L56.7383 39.1602L57.2754 38.916L58.2031 38.623L58.6426 38.5254L59.668 38.4277Z" fill="white"/>
<path d="M39.8926 38.4277H40.3809L41.3574 38.5254L42.0898 38.7207L42.6758 38.916L43.5059 39.3066L44.1895 39.7461L44.6777 40.1367L45.2148 40.625L45.5078 41.1133L45.6055 41.5039V41.8945L45.459 42.3828L45.2148 42.7734L44.7754 43.1641L44.2383 43.3594H43.6035L43.1641 43.2129L42.5293 42.7734L41.9922 42.3828L41.4062 42.0898L40.6738 41.8945H39.502L38.7695 42.0898L38.0859 42.4316L37.207 43.1152L36.8164 43.3105L36.6211 43.3594H35.9375L35.498 43.2129L35.1074 42.9199L34.7656 42.4805L34.6191 42.0898L34.5703 41.8945V41.5527L34.7656 40.918L35.1074 40.4785L35.5957 40.0391L36.1816 39.5996L36.9629 39.1602L37.5977 38.8672L38.623 38.5742L39.2578 38.4766L39.8926 38.4277Z" fill="white"/>
<path d="M48.3398 45.2148H51.6113L52.002 45.3125L52.4414 45.5566L52.7832 45.8984L53.0273 46.3867L53.0762 46.5332V47.2656L52.8809 47.7051L52.6855 47.998L52.2949 48.3398L51.7578 48.5352L51.5625 48.584H48.3887L47.8516 48.4375L47.4121 48.0957L47.0703 47.6562L46.9238 47.2656L46.875 46.875L46.9727 46.3379L47.2656 45.8496L47.4609 45.6055L47.9492 45.3125L48.3398 45.2148Z" fill="white"/>
</svg>
