<svg width="100" height="100" viewBox="0 0 100 100" fill="none" xmlns="http://www.w3.org/2000/svg">
<path d="M61.75 50.6875L62.25 50.75L65.75 51.4375L68 51.9375L70.75 52.6875L73.25 53.5L75 54.1875L76.625 54.9375L78.0625 55.6875L79.25 56.4375L80.125 57.0625L81 57.75L81.9375 58.625L82.375 59.0625L82.8125 59.5625L83.6875 60.6875L84.375 61.75L85.125 63.1875L85.6875 64.4375L86.4375 66.6875L86.8125 68.0625L87.25 70.375L87.5625 72.625L87.8125 75.375L87.9375 78.1875V88.1875L87.75 88.6875L87.25 89.3125L85.8125 90.75L84.625 91.625L83.6875 92.25L82.375 93L80.9375 93.75L79.125 94.5625L76.625 95.5L74.1875 96.25L71.4375 96.9375L68.375 97.5625L65.4375 98L62.875 98.3125L59.3125 98.625L56.25 98.8125L54.6875 98.875H48.125L44.9375 98.75L41.875 98.5625L38.9375 98.3125L35.4375 97.875L32.75 97.4375L30.125 96.875L28.3125 96.4375L26.625 95.9375L24.375 95.1875L22.625 94.5L20.8125 93.6875L19.625 93.0625L18.5625 92.4375L17.375 91.625L16.375 90.875L15.4375 90.0625L14.5 89.125L14.0625 88.4375L13.9375 87.9375L13.875 87.125V79.1875L14 76.1875L14.25 73.4375L14.5625 71L15 68.625L15.5 66.625L16.25 64.4375L17.0625 62.6875L17.625 61.6875L18.25 60.6875L18.75 60L19.5 59.125L20.875 57.75L21.5 57.25L22.1875 56.75L23.125 56.125L24.1875 55.5L26 54.5625L27.625 53.875L29.375 53.25L31.375 52.625L33.6875 52L36.5 51.375L39.4375 50.8125H40.0625L40.6875 51.0625L41.25 51.6875L42.0625 52.25L42.75 52.6875L43.8125 53.25L45 53.75L46.5 54.1875L47.875 54.5L49.1875 54.6875L49.9375 54.75H52.375L54.125 54.5L55.6875 54.125L57.5625 53.5L59.0625 52.75L60.1875 52.0625L60.75 51.625L61.0625 51.375L61.375 51L61.75 50.6875Z" fill="#222022"/>
<path d="M50.1875 0.9375H51.75L53.875 1.0625L55.5625 1.25L57 1.5L58.625 1.875L60 2.3125L61.5 2.9375L62.625 3.5625L63.75 4.3125L64.75 5.125L65.5 5.8125L66.0625 6.4375L66.875 7.5L67.5625 8.5625L68 9.3125L68.6875 10.8125L69.3125 12.5625L69.6875 13.875L70 15.375L70.375 17.75L70.625 20.25L70.6875 21.5V27.0625L70.5625 28.4375L70.3125 30L69.9375 31.75L69.5 33.3125L68.9375 35L68.4375 36.1875L67.6875 37.75L67.125 38.8125L66.3125 40.125L64.8125 42.125L64.125 42.875L64.0625 43H63.9375L63.8125 43.25L63.125 43.9375L62.625 44.375L61.875 45L60.8125 45.75L59.75 46.4375L58.875 46.9375L57.25 47.6875L55.3125 48.3125L53.9375 48.625L52.625 48.8125L51.875 48.875H49.5L48 48.6875L46.3125 48.3125L44.9375 47.8125L43.375 47.125L41.9375 46.3125L40.9375 45.625L39.9375 44.8125L39.0625 44.0625L37.625 42.625L37.0625 41.9375L36.375 41.125L35.625 40.0625L34.875 38.875L34.25 37.75L33.75 36.75L33 35L32.375 33.125L31.9375 31.5625L31.5 29.3125L31.25 27.25L31.125 25.25V23.25L31.3125 19.9375L31.5625 17.5625L31.9375 15.3125L32.375 13.4375L32.75 12.1875L33.375 10.5L34.25 8.75L34.875 7.75L35.6875 6.6875L36.4375 5.8125L37.0625 5.1875L37.75 4.625L38.5625 4L39.5625 3.375L40.75 2.75L42.375 2.125L43.9375 1.6875L45.375 1.375L47.375 1.125L48.9375 1L50.1875 0.9375Z" fill="#222022"/>
</svg>
