<svg width="54" height="92" viewBox="0 0 54 92" fill="none" xmlns="http://www.w3.org/2000/svg">
<g clip-path="url(#clip0_112_1493)">
<rect y="92" width="92" height="54" rx="2" transform="rotate(-90 0 92)" fill="black"/>
<rect x="0.5" y="91.5" width="91" height="53" rx="0.5" transform="rotate(-90 0.5 91.5)" stroke="black"/>
<rect x="6" y="86" width="80" height="41" transform="rotate(-90 6 86)" fill="#F5F5F5"/>
<ellipse cx="9.5" cy="83" rx="15" ry="14.5" transform="rotate(-90 9.5 83)" fill="black"/>
<ellipse cx="9.5" cy="9" rx="15" ry="14.5" transform="rotate(-90 9.5 9)" fill="black"/>
<ellipse cx="45.5" cy="83" rx="15" ry="14.5" transform="rotate(-90 45.5 83)" fill="black"/>
<ellipse cx="45.5" cy="9" rx="15" ry="14.5" transform="rotate(-90 45.5 9)" fill="black"/>
<circle cx="27" cy="46" r="18" transform="rotate(-90 27 46)" fill="black"/>
<path d="M19 50.3738L19 41.6458L19.0195 41.4305L19.1172 41.2348L19.2734 41.0978L19.4297 41.0196L19.4883 41L19.7422 41L19.918 41.0783L20.0742 41.1957L20.1914 41.3523L20.2305 41.4501L20.25 41.7241L20.25 44.4247L20.543 44.2094L20.8164 44.0333L21.1289 43.8571L21.4805 43.7006L21.5 41.5088L21.5781 41.2935L21.7539 41.0978L21.9883 41L22.2617 41L22.457 41.0978L22.6133 41.2348L22.7109 41.3914L22.75 41.6262L22.7695 43.4658L23.2187 43.5245L23.707 43.6223L24.1758 43.7789L24.5469 43.955L24.8594 44.1507L25.1133 44.3464L25.3672 44.5812L25.5625 44.7769L25.7383 44.9922L26.0117 45.4031L26.2266 45.8532L26.3633 46.2446L26.4414 46.5773L26.4805 46.8708L26.5 47.184L26.5 49.0235L26.5977 48.9648L26.8711 48.7299L27.0664 48.5538L27.2617 48.3973L27.5352 48.1624L27.7305 48.0059L27.9844 47.7906L28.1992 47.6145L28.4531 47.3992L28.668 47.2231L28.9219 47.0078L29.1367 46.8317L29.3906 46.6164L29.6055 46.4403L29.8594 46.225L30.1719 45.9706L30.4453 45.7358L30.6406 45.5793L30.9141 45.3444L31.1094 45.1879L31.3828 44.953L31.5781 44.7965L31.8516 44.5616L32.0469 44.4051L32.3203 44.1703L32.5352 43.9941L32.7891 43.7789L33.0625 43.5832L33.2383 43.5049L33.4922 43.5049L33.668 43.5832L33.8633 43.7593L33.9609 43.9159L34 44.0333L34 44.2094L33.9219 44.4051L33.7461 44.6008L33.6094 44.7378L33.3359 44.953L32.8281 45.3836L32.6328 45.5401L32.3594 45.775L32.1641 45.9315L31.8906 46.1663L31.6953 46.3229L31.4219 46.5577L31.2266 46.7143L30.9531 46.9491L30.7578 47.1057L30.4844 47.3405L30.2891 47.4971L30.0156 47.7319L29.8203 47.8885L29.5469 48.1233L29.3516 48.2798L29.0781 48.5147L28.8828 48.6712L28.6094 48.9061L28.4141 49.0626L28.1406 49.2975L27.9453 49.454L27.6914 49.6693L27.4766 49.8454L27.2227 50.0607L27.0078 50.2368L26.7539 50.4521L26.4805 50.6869L26.2266 50.8826L25.9922 51L25.7773 51L25.543 50.9022L25.3672 50.726L25.2695 50.5303L25.25 50.4129L25.25 47.7123L25.2305 46.9883L25.1328 46.499L24.9961 46.1663L24.8398 45.8728L24.6641 45.638L24.4492 45.4031L24.1953 45.2074L23.9414 45.0509L23.6484 44.9139L23.4141 44.8356L22.9844 44.7573L22.75 44.7378L22.75 50.4325L22.7109 50.6086L22.6328 50.7456L22.457 50.9022L22.2422 51L22.0664 51L21.8711 50.9413L21.6953 50.8239L21.5391 50.6086L21.5 50.4325L21.5 46.0881L21.4805 45.1096L21.4414 45.1096L21.2266 45.2661L20.9922 45.4814L20.7969 45.6967L20.582 46.0294L20.4258 46.362L20.3281 46.6751L20.2695 47.047L20.25 50.4325L20.2109 50.6282L20.0937 50.7847L19.957 50.9022L19.8203 50.9804L19.7422 51L19.5664 51L19.332 50.9217L19.1758 50.7847L19.0586 50.6282L19.0195 50.5303L19 50.3738Z" fill="#F5F5F5"/>
</g>
<defs>
<clipPath id="clip0_112_1493">
<rect y="92" width="92" height="54" rx="2" transform="rotate(-90 0 92)" fill="white"/>
</clipPath>
</defs>
</svg>
