<svg width="120" height="120" viewBox="0 0 120 120" fill="none" xmlns="http://www.w3.org/2000/svg">
<g clip-path="url(#clip0_112_1994)">
<path d="M60.2344 32.2852H62.2266L63.5156 32.5195L64.6875 32.9297L65.625 33.3984L66.5625 33.9844L67.5586 34.6875L68.3203 35.2734L68.9062 35.7422L69.668 36.3867L70.3711 37.0312L71.3086 37.9102L71.7188 38.3789L72.4805 39.1992L73.125 40.0195L73.7109 40.7812L74.7656 42.3633L75.3516 43.3594L76.0547 44.707L76.6406 45.9375L77.2852 47.5781L77.9297 49.5117L78.5156 51.7383L78.9844 54.082L79.3359 56.4258L79.5703 58.5938L79.7461 60.8789L79.8633 63.2812L79.9219 65.2734V81.3281L79.9805 84.668L80.0977 87.7734L80.2734 90.6445L80.5664 93.8672L80.918 96.6797L81.3281 99.3164L81.4453 99.9023V101.25L81.2109 102.129L80.8008 102.949L80.3906 103.477L80.1562 103.77L79.5703 104.238L78.9844 104.59L77.9297 104.941L77.5195 105H76.5234L75.7031 104.824L75 104.531L74.3555 104.121L73.7695 103.594L73.3008 103.008L72.832 102.07L72.6562 101.367L70.8984 89.7656L69.375 79.7461L68.9062 81.7969L67.3242 89.0625L65.8594 95.7422L64.6875 100.078L64.1602 102.012L63.8672 102.656L63.457 103.301L62.9297 103.887L62.2852 104.355L61.4648 104.766L60.4688 105H59.4141L58.418 104.766L57.4805 104.297L56.8359 103.77L56.3672 103.242L55.8984 102.422L55.6641 101.836L55.4883 100.84V100.312L55.6055 99.5508L56.8945 94.6875L57.832 91.3477L58.4766 88.7695L59.1797 85.4297L59.7656 82.1484L60.293 78.6328L60.7031 75.1758L60.9961 71.7773L61.1133 69.7266L61.1719 68.1445V64.1602L61.0547 61.8164L60.8203 59.4141L60.7031 58.5352V58.125L62.0508 57.2461L62.7539 56.7188L63.3984 56.1914L64.1016 55.5469L64.9219 54.7266L65.4492 54.082L66.0352 53.3203L66.6211 52.4414L67.3242 51.2109L67.9688 49.8633L68.6133 48.1055L69.082 46.3477L69.4922 44.1797L69.5508 43.8281V42.2461L69.3164 41.1914L69.0234 40.4297L68.5547 39.5508L68.0859 38.9648L67.5586 38.3789L66.7969 37.793L65.8008 37.2656L64.9219 36.9727L63.8672 36.7969H62.8125L61.7578 36.9727L60.8789 37.2656L59.8828 37.793L59.0625 38.4375L58.5938 38.9062L58.0078 39.7266L57.5391 40.6641L57.2461 41.543L56.8945 42.7148L56.4258 43.8281L56.0156 44.6484L55.5469 45.3516L55.0195 45.9961L54.2578 46.7578L54.0234 46.6406L53.3203 45.5273L52.8516 44.5312L52.5 43.418L52.3242 42.5391L52.2656 42.0703V40.3711L52.4414 39.2578L52.7344 38.2617L53.0859 37.3828L53.5547 36.5039L54.1406 35.6836L54.668 35.0977L55.0195 34.6875L55.6641 34.1602L56.3086 33.6914L57.1289 33.2227L57.8906 32.8711L58.9453 32.5195L59.7656 32.3438L60.2344 32.2852Z" fill="white"/>
<path d="M62.8711 38.6133H63.8086L64.6289 38.7891L65.3906 39.082L66.0938 39.5508L66.5625 39.9609L67.0898 40.6641L67.5 41.4844L67.7344 42.3633V43.7109L67.3828 45.4688L66.9727 46.875L66.3867 48.2812L65.625 49.7461L64.6875 51.1523L64.1016 51.9141L63.457 52.6758L62.7539 53.4375L62.1094 54.082L61.6406 54.4922L60.6445 55.3125L59.4727 56.1328L58.5938 56.6602L57.3047 57.3633L55.7812 58.0078L54.3164 58.4766L53.0273 58.7695L51.7383 58.9453L50.2734 59.0039L49.7461 58.9453L49.6875 59.5898L47.8125 70.5469L45.8789 81.7969L43.8867 93.3984L42.6562 100.547L42.4805 101.191L42.1289 101.66L41.6602 101.895H40.6641L39.8438 101.719L39.2578 101.367L38.8477 100.898L38.5547 100.195V99.2578L40.7812 86.25L45 61.6406L45.8789 56.543L46.0547 55.8398L45.8789 54.9609V54.1406L46.0547 53.2617L46.3477 52.5L46.8164 51.7969L47.2266 51.3281L47.9883 50.7422L48.75 50.3906L49.6289 50.1562L51.2109 50.0391L52.3242 49.8047L53.4375 49.3945L54.4336 48.8672L55.2539 48.2812L56.0742 47.5781L56.6016 46.9922L57.2461 46.1133L57.8906 45L58.418 43.8281L58.9453 42.2461L59.2383 41.3086L59.6484 40.5469L60.1758 39.9023L60.8789 39.3164L61.8164 38.8477L62.4609 38.6719L62.8711 38.6133Z" fill="white"/>
<path d="M49.7461 15H51.2695L52.5 15.1758L53.7305 15.5273L54.668 15.9375L55.5469 16.4062L56.3672 16.9922L57.0703 17.6367L57.7734 18.3398L58.418 19.2188L59.0039 20.2148L59.5312 21.5039L59.8242 22.6758L59.9414 23.4961V25.3711L59.7656 26.4844L59.4727 27.5391L58.9453 28.7695L58.418 29.6484L57.8906 30.3516L57.3633 30.9375L56.6016 31.6992L55.7227 32.3438L54.9023 32.8125L53.9062 33.2812L52.793 33.6328L51.8555 33.8086L51.3281 33.8672H49.6875L48.5156 33.6914L47.2852 33.3398L46.2305 32.8711L45.4102 32.4023L44.5898 31.8164L43.8281 31.1133L43.418 30.7031L42.6562 29.707L42.0703 28.7109L41.6016 27.5977L41.25 26.3672L41.0742 25.0781V23.8477L41.1914 22.8516L41.4844 21.6211L41.8359 20.6836L42.3047 19.7461L42.832 18.9258L43.3008 18.3398L43.8281 17.7539L44.2383 17.3438L45.2344 16.582L46.2305 15.9961L47.168 15.5859L48.0469 15.293L49.2188 15.0586L49.7461 15Z" fill="white"/>
</g>
<defs>
<clipPath id="clip0_112_1994">
<rect width="120" height="120" fill="white"/>
</clipPath>
</defs>
</svg>
