<svg width="100" height="100" viewBox="0 0 100 100" fill="none" xmlns="http://www.w3.org/2000/svg">
<g clip-path="url(#clip0_1_212)">
<path d="M50.2319 -0.0733109C50.3957 -0.0748628 50.5594 -0.0764148 50.7282 -0.0780137C53.8829 -0.100968 56.9459 0.237003 59.9731 1.1596C60.1357 1.2063 60.2982 1.25301 60.4656 1.30112C63.958 2.32956 63.958 2.32956 64.6484 3.32024C64.9135 3.99182 64.8662 4.23953 64.5996 4.91936C64.2578 5.46868 64.2578 5.46868 63.6719 5.85931C62.4452 5.99247 61.472 5.62251 60.3394 5.21233C52.5029 2.50623 43.2305 2.9457 35.7033 6.5223C34.0052 7.36938 32.4733 8.29936 31.0547 9.57024C30.9366 9.66088 30.8185 9.75152 30.6969 9.8449C28.7336 11.3694 27.0613 13.8623 26.6182 16.3314C26.2841 19.1229 26.9598 21.7965 28.1151 24.3324C28.2971 24.7513 28.4211 25.1403 28.5156 25.5859C31.8575 24.8304 35.6798 23.9159 38.0859 21.289C38.1826 20.999 38.1826 20.999 38.2812 20.7031C38.1282 20.5862 37.9751 20.4694 37.8174 20.3491C37.1164 19.7649 36.9283 19.4851 36.8408 18.5668C36.8588 17.9914 36.899 17.7969 37.2192 17.2973C37.8533 16.8908 38.311 16.81 39.0625 16.7968C39.5817 17.0098 39.9356 17.2822 40.3366 17.6719C42.5873 19.8194 45.4067 20.7881 48.4712 20.7743C51.3758 20.6923 54.1053 19.7061 56.8343 18.7839C58.912 18.0894 60.8441 17.6986 63.0371 17.7123C63.2241 17.7134 63.4111 17.7145 63.6037 17.7157C68.5103 17.7989 72.6486 19.8641 76.5625 22.6562C75.4439 19.0004 74.2643 15.5848 71.6797 12.6952C71.5435 12.5336 71.4073 12.372 71.2669 12.2054C69.822 10.5269 68.1064 9.21926 66.3437 7.89254C66.0156 7.61712 66.0156 7.61712 65.8203 7.22649C65.8128 6.43221 65.8324 5.70119 66.333 5.06585C67.0362 4.78828 67.4032 4.76197 68.1641 4.88274C70.1358 5.85348 71.7236 7.42579 73.2422 8.98431C73.4087 9.13763 73.4087 9.13763 73.5786 9.29406C77.9772 13.439 80.1877 19.6939 80.5222 25.6255C80.5298 25.889 80.5364 26.1525 80.542 26.4159C80.5493 26.5489 80.5566 26.6818 80.5641 26.8188C80.5774 27.5806 80.4935 27.8982 80.0163 28.5033C79.4922 28.9062 79.4922 28.9062 78.8452 29.0527C77.8063 28.8414 77.3016 28.2701 76.5625 27.539C72.6317 23.7615 67.9003 21.3357 62.3862 21.3928C60.7608 21.4443 59.3497 21.7246 57.8125 22.2656C52.8695 23.9877 48.1435 25.304 42.9688 23.6327C42.5765 23.4407 42.1854 23.2463 41.7969 23.0468C41.1651 23.1808 40.9827 23.4789 40.5792 23.9867C38.2753 26.7815 33.6131 28.5142 30.0781 28.9062C29.7526 28.9079 29.4271 28.9081 29.1016 28.9062C29.106 29.0703 29.106 29.0703 29.1106 29.2377C29.1322 30.6994 28.9976 32.1297 28.8452 33.5822C28.8188 33.843 28.7925 34.1037 28.7664 34.3645C28.6563 35.4605 28.5439 36.5562 28.4304 37.6518C27.7809 43.9355 27.4613 49.1126 31.427 54.4029C32.4956 55.682 33.8148 56.6461 35.1562 57.6171C35.2635 57.6949 35.3708 57.7726 35.4814 57.8527C36.034 58.2516 36.5889 58.647 37.1452 59.0408C37.8454 59.5367 38.5409 60.039 39.2358 60.5423C39.6898 60.871 40.1444 61.1988 40.5991 61.5264C41.0617 61.8598 41.5225 62.195 41.9815 62.5335C44.83 64.6034 47.5039 65.3274 50.9766 65.039C53.9452 64.516 56.2543 62.637 58.6037 60.8772C59.3774 60.2976 60.1589 59.73 60.9452 59.1676C65.3645 56.0066 69.136 52.9903 70.2423 47.3342C70.8335 43.4671 70.0774 39.299 69.6673 35.4378C69.5328 34.1711 69.4005 32.9042 69.2716 31.637C69.2264 31.1997 69.1791 30.7628 69.1316 30.3258C68.7944 27.1164 68.7944 27.1164 69.4458 26.0742C70.1087 25.6662 70.7244 25.6164 71.4844 25.7812C71.9974 26.0718 72.2208 26.2462 72.4274 26.8035C72.5911 27.78 72.6993 28.6971 72.6562 29.6874C72.8738 29.6995 73.0913 29.7116 73.3154 29.7241C75.055 29.9546 76.3042 30.8262 77.404 32.1594C78.7332 34.0012 78.9011 35.8684 78.7109 38.0859C78.3916 39.6998 77.3922 40.9265 76.1719 41.9921C75.5423 42.3818 74.9065 42.6959 74.2187 42.9687C74.2114 43.2003 74.2041 43.4319 74.1966 43.6706C73.9829 49.3188 72.413 54.1367 68.3594 58.2031C67.6768 58.8314 66.9551 59.4072 66.2109 59.9609C66.357 60.0505 66.503 60.1401 66.6534 60.2325C66.942 60.4122 66.942 60.4122 67.2363 60.5956C67.5218 60.7724 67.5218 60.7724 67.8131 60.9527C69.0675 61.8147 69.0675 61.8147 69.2375 62.4999C69.2199 63.1021 69.1752 63.5819 68.9575 64.1479C68.2902 64.6534 67.6214 64.7312 66.7969 64.6484C66.2942 64.4364 65.8576 64.1885 65.3999 63.8923C65.054 63.6379 65.054 63.6379 64.6484 63.6718C64.6079 63.8516 64.5674 64.0313 64.5256 64.2165C63.8936 66.8135 62.8999 69.0494 61.1328 71.0937C61.0193 71.2374 60.9057 71.3812 60.7887 71.5293C58.5074 74.308 54.9052 76.0861 51.3672 76.5624C46.9664 76.9497 42.8302 76.0533 39.3135 73.2864C38.8396 72.834 38.8621 72.5771 38.8184 71.8993C38.8294 71.3919 38.8673 71.0933 39.0625 70.6176C39.529 70.2531 39.9381 70.0829 40.5304 70.0332C41.3087 70.1678 41.887 70.6069 42.5349 71.042C45.2666 72.8479 48.6104 73.2765 51.8107 72.7831C54.7639 72.1249 57.4664 70.1993 59.1187 67.7001C59.8736 66.4651 60.469 65.2916 60.7422 63.8671C60.6469 63.9379 60.5517 64.0087 60.4536 64.0816C56.209 67.2239 52.2538 69.3621 46.832 68.6967C43.2312 68.0979 40.3419 66.0342 37.5 63.8671C37.6584 64.3148 37.8171 64.7624 37.9761 65.2099C38.021 65.337 38.066 65.4642 38.1123 65.5952C38.3636 66.3055 38.3636 66.3055 38.6719 66.9921C38.7559 67.7484 38.7337 68.0712 38.3057 68.7133C37.8161 69.2173 37.6456 69.3197 36.9507 69.3969C36.1621 69.3196 35.9206 69.0987 35.3516 68.5546C35.0204 67.9626 35.0204 67.9626 34.7412 67.2851C34.6921 67.1662 34.643 67.0474 34.5923 66.9249C34.1439 65.8046 33.8403 64.6572 33.5937 63.4765C29.9743 65.4786 27.629 68.1643 26.4732 72.1778C26.1353 73.7022 26.1301 75.2062 26.1101 76.7631C26.1061 77.0283 26.102 77.2934 26.0978 77.5586C26.0871 78.2524 26.0774 78.9463 26.0679 79.6402C26.0581 80.3498 26.0472 81.0595 26.0365 81.7691C26.0154 83.1585 25.996 84.548 25.9766 85.9374C28.0391 85.9374 30.1016 85.9374 32.2266 85.9374C32.2152 85.3566 32.2039 84.7758 32.1922 84.1773C32.1846 83.6137 32.1787 83.05 32.1729 82.4863C32.168 82.0951 32.1614 81.7039 32.1529 81.3127C32.141 80.7498 32.1355 80.1871 32.1312 79.6241C32.1262 79.4497 32.1211 79.2753 32.1159 79.0956C32.1155 78.224 32.1381 77.8516 32.6781 77.1355C33.2031 76.7577 33.2031 76.7577 33.8867 76.6357C34.7703 76.7935 35.0062 77.0218 35.5469 77.7343C35.6845 78.3521 35.6705 78.9536 35.6577 79.5843C35.6579 79.7722 35.658 79.9601 35.6581 80.1537C35.6574 80.7606 35.6499 81.3671 35.6422 81.974C35.6408 82.3492 35.6398 82.7244 35.6393 83.0996C35.6341 84.4891 35.6205 85.8785 35.6079 87.268C35.5878 90.3738 35.5676 93.4797 35.5469 96.6796C44.5059 96.6796 53.4648 96.6796 62.6953 96.6796C62.6798 90.5442 62.6798 90.5442 62.6601 84.4087C62.6584 83.222 62.6584 83.222 62.658 82.6665C62.6574 82.2785 62.6561 81.8905 62.6541 81.5025C62.6512 80.9149 62.6508 80.3272 62.651 79.7395C62.6496 79.5667 62.6482 79.3938 62.6467 79.2157C62.6472 79.0572 62.6478 78.8987 62.6483 78.7354C62.648 78.5978 62.6476 78.4603 62.6472 78.3186C62.7052 77.8498 62.835 77.5479 63.0859 77.1484C63.8159 76.6617 64.1745 76.6683 65.0391 76.7577C65.7011 77.1751 65.9621 77.3783 66.2109 78.1249C66.2276 78.3857 66.2339 78.6473 66.2331 78.9086C66.2331 79.065 66.2331 79.2214 66.2331 79.3825C66.2321 79.5503 66.231 79.7182 66.23 79.8911C66.2296 80.15 66.2296 80.15 66.2292 80.4141C66.2281 80.9653 66.2256 81.5166 66.2231 82.0678C66.2222 82.4415 66.2213 82.8152 66.2205 83.1889C66.2185 84.1051 66.2147 85.0213 66.2109 85.9374C68.209 85.9374 70.207 85.9374 72.2656 85.9374C72.2478 83.7335 72.2478 83.7335 72.2248 81.5295C72.2142 80.6291 72.2043 79.7287 72.198 78.8282C72.1928 78.1013 72.1849 77.3744 72.1752 76.6475C72.1719 76.3718 72.1697 76.0961 72.1684 75.8204C72.1556 73.1945 71.6843 70.6743 70.2637 68.4203C69.8632 67.6624 69.7811 67.2508 69.9219 66.4062C70.3109 65.8348 70.5956 65.5102 71.2769 65.3289C72.0205 65.2669 72.0205 65.2669 72.4609 65.4296C75.1387 68.2232 75.8056 72.2122 75.8189 75.9259C75.8205 76.174 75.8221 76.4222 75.8238 76.6779C75.8288 77.4965 75.8319 78.315 75.8347 79.1335C75.8357 79.4162 75.8368 79.6988 75.8378 79.9814C75.842 81.1567 75.8457 82.3319 75.8479 83.5071C75.8511 85.1883 75.8576 86.8694 75.8687 88.5506C75.8762 89.7349 75.88 90.9193 75.8811 92.1036C75.8818 92.8103 75.8841 93.5169 75.8905 94.2235C75.8974 95.0109 75.8967 95.7981 75.8952 96.5855C75.8984 96.8191 75.9016 97.0527 75.9049 97.2933C75.9025 97.6153 75.9025 97.6153 75.9 97.9438C75.901 98.2228 75.901 98.2228 75.902 98.5074C75.7209 99.2814 75.4549 99.543 74.8047 99.9999C74.117 100.142 73.4425 100.131 72.7424 100.123C72.4273 100.125 72.4273 100.125 72.1059 100.127C71.4008 100.13 70.6959 100.127 69.9909 100.123C69.4859 100.124 68.981 100.126 68.476 100.127C67.2462 100.131 66.0164 100.129 64.7866 100.126C63.7873 100.123 62.7879 100.122 61.7886 100.123C61.6464 100.123 61.5042 100.123 61.3577 100.123C61.0688 100.123 60.7799 100.124 60.491 100.124C57.9365 100.126 55.382 100.122 52.8275 100.117C50.3481 100.111 47.8687 100.11 45.3892 100.113C42.6897 100.116 39.9903 100.117 37.2908 100.113C37.003 100.113 36.7152 100.112 36.4275 100.112C36.2859 100.112 36.1443 100.112 35.9984 100.112C35 100.11 34.0016 100.111 33.0032 100.112C31.66 100.114 30.3168 100.112 28.9735 100.106C28.4797 100.105 27.9859 100.105 27.492 100.106C26.8196 100.108 26.1474 100.105 25.475 100.1C25.278 100.102 25.0811 100.104 24.8782 100.105C23.5633 100.09 23.5633 100.09 22.9317 99.6396C22.4942 98.9711 22.4363 98.4405 22.4348 97.6612C22.434 97.4606 22.4332 97.26 22.4323 97.0533C22.4324 96.8332 22.4325 96.6131 22.4326 96.3864C22.4316 96.0385 22.4316 96.0386 22.4306 95.6837C22.429 95.0467 22.4284 94.4098 22.4283 93.7729C22.4281 93.374 22.4277 92.975 22.4272 92.5761C22.4254 91.1812 22.4246 89.7863 22.4247 88.3914C22.4249 87.0968 22.4228 85.8022 22.4197 84.5077C22.4171 83.3928 22.4161 82.2779 22.4162 81.1631C22.4163 80.4989 22.4158 79.8346 22.4137 79.1704C22.4117 78.4264 22.4123 77.6824 22.4135 76.9383C22.4124 76.7226 22.4113 76.5069 22.4102 76.2847C22.4286 71.6394 23.7779 67.3075 26.9531 63.8671C27.0727 63.7297 27.1923 63.5922 27.3155 63.4506C28.69 61.9559 30.4991 60.9922 32.2266 59.9609C32.1082 59.8707 31.9899 59.7806 31.868 59.6877C27.7647 56.4935 25.1983 52.4846 24.3233 47.3151C23.9709 44.2982 23.9709 44.2982 24.4141 42.9687C24.2247 42.9324 24.0354 42.8962 23.8403 42.8588C22.302 42.4104 21.167 41.2427 20.3552 39.9032C19.4582 38.207 19.2307 36.4587 19.6663 34.571C20.3267 32.5788 21.399 31.2745 23.2422 30.2734C24.0378 29.9015 24.6938 29.6874 25.5859 29.6874C25.8096 28.2495 25.5093 27.2367 24.8657 25.9765C23.1392 22.5545 22.1405 18.2294 23.2422 14.4531C24.9229 9.43432 28.9758 5.7862 33.606 3.45452C34.1192 3.20627 34.6363 2.96811 35.1562 2.73431C35.3906 2.62806 35.625 2.52181 35.8665 2.41235C37.8515 1.56684 39.883 1.0229 41.9922 0.585869C42.1466 0.553328 42.301 0.520786 42.4602 0.487259C45.0323 -0.0255729 47.619 -0.0603472 50.2319 -0.0733109ZM23.9189 34.0865C23.2341 34.7768 23.0118 35.4769 22.9736 36.4257C23.0049 37.2355 23.1728 37.7944 23.6328 38.4765C24.1311 38.9342 24.1311 38.9342 24.6094 39.2577C24.9148 38.9523 24.8688 38.625 24.9092 38.2011C24.9262 38.0237 24.9432 37.8463 24.9607 37.6636C24.9777 37.4766 24.9947 37.2897 25.0122 37.0971C25.03 36.9154 25.0477 36.7338 25.066 36.5466C25.1646 35.492 25.214 34.4575 25.1953 33.3984C24.6213 33.3984 24.3348 33.7225 23.9189 34.0865ZM73.0469 33.3984C73.1011 34.2286 73.1591 35.0586 73.2178 35.8886C73.2331 36.1243 73.2485 36.3599 73.2643 36.6027C73.2807 36.8293 73.297 37.0559 73.3139 37.2894C73.3282 37.498 73.3425 37.7067 73.3573 37.9216C73.434 38.4524 73.5568 38.8001 73.8281 39.2577C74.7468 38.488 75.1947 37.7168 75.3906 36.5234C75.3619 35.4133 74.8582 34.6742 74.147 33.8569C73.7822 33.5558 73.5031 33.4983 73.0469 33.3984ZM25.9766 89.4531C25.9766 91.8378 25.9766 94.2226 25.9766 96.6796C28.0391 96.6796 30.1016 96.6796 32.2266 96.6796C32.2266 94.2949 32.2266 91.9101 32.2266 89.4531C30.1641 89.4531 28.1016 89.4531 25.9766 89.4531ZM66.2109 89.4531C66.2109 91.8378 66.2109 94.2226 66.2109 96.6796C68.209 96.6796 70.207 96.6796 72.2656 96.6796C72.2656 94.2949 72.2656 91.9101 72.2656 89.4531C70.2676 89.4531 68.2695 89.4531 66.2109 89.4531Z" fill="white"/>
<path d="M51.3672 38.6719C51.8945 39.0235 52.2543 39.2742 52.5391 39.8438C52.5608 40.4043 52.5711 40.96 52.5719 41.5207C52.5728 41.7707 52.5728 41.7707 52.5738 42.0258C52.5748 42.3788 52.5753 42.7318 52.5753 43.0847C52.5757 43.6244 52.5792 44.164 52.5829 44.7037C52.5835 45.0465 52.5839 45.3893 52.5841 45.7321C52.5855 45.8935 52.5869 46.0549 52.5883 46.2211C52.5826 47.6605 52.5826 47.6605 52.1484 48.2422C51.2186 48.8621 50.2267 48.7049 49.1333 48.7061C48.9096 48.7109 48.6859 48.7156 48.4554 48.7206C48.2403 48.7213 48.0252 48.7221 47.8035 48.7229C47.6068 48.7245 47.41 48.7261 47.2073 48.7277C46.5405 48.6078 46.3156 48.3742 45.8984 47.8516C45.6867 47.2617 45.6771 46.9662 45.8496 46.3623C46.0992 45.8882 46.2538 45.6335 46.6797 45.3125C47.2496 45.2553 47.2496 45.2553 47.8882 45.2759C48.1004 45.2812 48.3127 45.2865 48.5313 45.2919C48.7749 45.3021 48.7749 45.3021 49.0234 45.3125C49.0204 45.1579 49.0173 45.0033 49.0141 44.8439C49.0019 44.1416 48.9943 43.4393 48.9868 42.7368C48.9819 42.4935 48.977 42.2502 48.9719 41.9995C48.9701 41.7647 48.9682 41.5299 48.9662 41.288C48.9631 41.0722 48.9601 40.8564 48.9569 40.634C49.0325 39.9579 49.2034 39.6038 49.6094 39.0625C50.2954 38.6052 50.5595 38.575 51.3672 38.6719Z" fill="white"/>
<path d="M46.0938 53.125C46.4253 53.3776 46.7514 53.6377 47.0703 53.9062C48.1993 54.4432 49.4599 54.5449 50.6546 54.142C51.212 53.8696 51.6939 53.5649 52.1851 53.186C52.6378 52.8582 52.9589 52.7751 53.5156 52.7344C54.1711 52.9217 54.7075 53.1257 55.0781 53.7109C55.1735 54.5554 55.2032 55.0346 54.8096 55.7861C52.9162 57.4992 50.9034 58.1303 48.3849 58.0772C46.5688 57.9042 45.1781 57.1378 43.7866 55.9937C43.2535 55.3387 43.1641 54.9417 43.1641 54.1016C43.415 53.4741 43.6215 53.2071 44.1895 52.8442C44.9365 52.6914 45.3885 52.8479 46.0938 53.125Z" fill="white"/>
<path d="M44.1284 32.2389C44.5474 32.6324 44.7643 32.847 44.9219 33.3985C44.8955 34.1384 44.8227 34.6157 44.4214 35.2418C43.879 35.5895 43.4572 35.6789 42.8131 35.6515C42.1252 35.4844 41.6386 35.0622 41.0728 34.6513C40.3596 34.2114 39.696 34.1129 38.8672 34.1798C38.1034 34.4258 37.5614 34.721 36.9141 35.193C36.1863 35.6327 35.7977 35.6839 34.9609 35.547C34.2545 35.051 34.0229 34.7595 33.8501 33.9112C34.0332 32.9458 34.4094 32.4606 35.1562 31.836C38.14 29.8625 41.302 30.2544 44.1284 32.2389Z" fill="white"/>
<path d="M63.6719 32.3121C64.1107 32.8744 64.3216 33.2828 64.4531 33.9845C64.3164 34.5724 64.1425 34.8752 63.7329 35.315C63.058 35.6616 62.6684 35.6583 61.9141 35.547C61.4967 35.2906 61.4967 35.2906 61.0596 34.9732C60.1842 34.346 59.4793 34.0953 58.3984 34.1798C57.5743 34.3639 56.9787 34.6439 56.3354 35.193C55.6812 35.6794 55.2896 35.6609 54.4922 35.547C53.8931 35.1954 53.5965 34.9528 53.3203 34.3141C53.3203 33.5711 53.4772 33.02 53.9062 32.422C56.779 29.9222 60.7274 29.9197 63.6719 32.3121Z" fill="white"/>
<path d="M40.0391 38.4765C40.7011 38.8939 40.9621 39.0971 41.2109 39.8437C41.2399 40.3916 41.2561 40.9314 41.2598 41.4794C41.2638 41.627 41.2678 41.7745 41.272 41.9265C41.2783 42.8274 41.21 43.4107 40.625 44.1406C39.9437 44.5947 39.6677 44.5965 38.8672 44.5312C38.3566 44.361 38.1521 44.2497 37.8725 43.7885C37.6807 43.3239 37.6449 42.9992 37.6434 42.4987C37.6429 42.3373 37.6424 42.176 37.6419 42.0097C37.6434 41.8428 37.6449 41.6758 37.6465 41.5039C37.645 41.3369 37.6435 41.17 37.6419 40.998C37.6424 40.8366 37.6429 40.6753 37.6434 40.509C37.6439 40.3626 37.6443 40.2162 37.6448 40.0653C37.7033 39.5824 37.826 39.2777 38.0859 38.8671C38.8159 38.3805 39.1745 38.3871 40.0391 38.4765Z" fill="white"/>
<path d="M58.8867 38.3545C59.7769 38.5134 60.0077 38.7288 60.5469 39.4531C60.6901 40.1399 60.6834 40.8047 60.6689 41.5039C60.6746 41.7785 60.6746 41.7785 60.6804 42.0586C60.6739 42.9679 60.6489 43.4177 60.0937 44.1635C59.5703 44.5312 59.5703 44.5312 58.8867 44.6533C57.9966 44.4944 57.7657 44.279 57.2266 43.5547C57.0833 42.868 57.0901 42.2031 57.1045 41.5039C57.1007 41.3209 57.0969 41.1378 57.093 40.9492C57.0995 40.0399 57.1246 39.5901 57.6797 38.8443C58.2031 38.4766 58.2031 38.4766 58.8867 38.3545Z" fill="white"/>
</g>
<defs>
<clipPath id="clip0_1_212">
<rect width="100" height="100" fill="white"/>
</clipPath>
</defs>
</svg>
