<svg width="100" height="100" viewBox="0 0 100 100" fill="none" xmlns="http://www.w3.org/2000/svg">
<path d="M20.875 25L21.0625 25.0625L21.625 26.5625L22.0625 27.375L22.625 28L23 28.375V28.5L23.25 28.625L24.5 29.4375L25.625 29.875L26.3125 30.0625L26.75 30.125H27.5625L28.0625 30H28.8125L29.0625 30.25L29.25 31.125L29.5 32.1875L29.875 33.125L30.3125 33.875L30.875 34.5625L31.4375 35.125L32.4375 35.8125L33.625 36.375L34.625 36.625L35.125 36.6875H36.5L37.625 36.4375L38.625 36L39.25 35.75L39.5 35.8125L40 36.8125L40.4375 37.625L40.75 37.875L41.1875 38.375L41.8125 38.8125L42.5 39.25L43.375 39.625L44.375 39.875L44.875 39.9375H46L47.1875 39.8125L47.75 39.5625L48.4375 39.125L48.75 39.1875L48.9375 39.5625V41.75L48.4375 42.25L48.25 42.3125L48.125 42.4375L47.75 42.625L46.9375 43.3125L46.4375 44L46 44.875L45.6875 46.0625L45.625 46.875L45.5625 49.4375L45.4375 49.8125L44.75 49.9375L41.5 50.0625L41.375 50.3125L41 50.8125L40.4375 51.4375L39.9375 52.0625L38.3125 54.0625L37.625 54.875L37.0625 55.5625L36.25 56.5L35.625 57.3125L34.8125 58.4375L34.3125 59.25L34.1875 59.5625V60.1875L34.375 60.5625L35.1875 61.5L35.625 62L36.3125 62.75L37.25 63.6875V63.8125L37.5 63.9375L37.9375 64.4375L39.25 65.75L39.6875 66.25L40.3125 66.875L40.75 67.375L42 68.625L42.4375 69.125L43.5 70.1875L43.9375 70.6875L44.9375 71.75L45.8125 72.6875L46.5 73.375V73.5L46.75 73.625L47.1875 74.125L48.5625 75.5L49.3125 75.875L50.4375 76.125L51.5625 75.875L52.3125 75.4375L53 74.875L53.75 74.125L54.1875 73.625L55.0625 72.6875L56.0625 71.625L57.0625 70.625L57.5 70.125L59.0625 68.5625L59.125 68.4375H59.25L59.375 68.1875L61.4375 66.125L61.625 65.875H61.75V65.75L62.0625 65.4375L62.25 65.375L62.375 65.125L63.3125 64.1875L63.375 64.0625H63.5L63.625 63.8125H63.75V63.6875L64.0625 63.375L64.25 63.125H64.375L64.5 62.875L64.8125 62.625L65.25 62.125L65.75 61.625L66.3125 60.9375L66.75 60.375L66.875 59.9375L66.6875 59.375L66.1875 58.5L65.375 57.375L64.5625 56.375L63.875 55.5L63.4375 55L62.875 54.3125L62.0625 53.3125L60.9375 51.9375L60.1875 51.0625L59.75 50.5625L59.3125 50.1875L58.375 50H55.875L55.5 49.875L55.3125 49.6875V46.6875L55.25 45.875L54.875 44.5625L54.5 43.8125L53.8125 43.0625L53 42.5L52.0625 41.875L52 41.8125V39.8125L52.125 39.25H52.4375L53.3125 39.6875L54.0625 39.875L55 40H55.6875L56.9375 39.8125L58.0625 39.4375L59 38.9375L59.5625 38.5L60.1875 37.9375L60.6875 37.25L61 36.6875L61.4375 35.8125L61.5625 35.75L62.375 36.0625L63.5625 36.5L64.0625 36.625L64.625 36.6875H65.5L66.875 36.5L68.0625 36.0625L68.9375 35.5625L69.5625 35.0625L70.0625 34.625L70.625 33.9375L71 33.375L71.4375 32.4375L71.6875 31.5625L71.75 30.3125L71.9375 30L72.5 30.0625L72.8125 30.125H74.5625L76.125 29.5625L77.125 29L77.9375 28.4375L78.4375 27.9375L78.9375 27.25L79.5 26.0625L79.8125 25.1875L80 25.125L82.4375 26.375L84.6875 27.3125L86.5625 28L88.6875 28.625L90.875 29.1875L94.25 29.875L95.5625 30.25L96.0625 30.5L96.5 30.9375V31.5L96.1875 33.0625L95.5 35.9375L94.375 39.9375L93.25 43.6875L92.4375 46.25L91.5625 48.8125L90.8125 50.875L90.3125 52.3125L89.375 54.75L88.25 57.625L87.625 59.125L86.875 60.875L85.625 63.6875L84.8125 65.375L84.125 66.8125L83.125 68.8125L82.375 70.1875L81.5 71.8125L80.9375 72.75L79.9375 74.4375L79 75.9375L78.4375 76.8125L77.9375 77.5625L77.125 78.75L76.5 79.625L75.6875 80.75L74.875 81.75L74.1875 82.625L72.8125 84.25L72.375 84.75L71.5 85.6875L70.8125 86.375L70.5 86.75L70 87.1875L69.125 88L68.625 88.4375L68 89L67.125 89.6875L65.9375 90.5625L64.9375 91.25L63.875 91.9375L62.5625 92.6875L61.25 93.375L59.8125 94L58.3125 94.5625L56.875 95L55 95.4375L53.5625 95.6875L51.5 95.875H49.125L47.125 95.6875L45.5625 95.4375L44.0625 95.0625L41.8125 94.3125L39.875 93.5L38.625 92.875L36.9375 91.875L35.1875 90.6875L34.125 89.875L33.125 89.0625L32.25 88.3125L31.3125 87.4375L30.5625 86.75L29.4375 85.625L29 85.125L28.75 84.875V84.75H28.625L28.0625 84.0625L27.4375 83.375L26.875 82.6875L26.1875 81.875L25.5625 81.0625L24.6875 79.9375L22.9375 77.4375L22.125 76.1875L21.375 75L20.8125 74.0625L19.875 72.4375L18.875 70.6875L17.9375 68.9375L16.125 65.3125L15.3125 63.5625L14.375 61.5L13.5625 59.625L12.8125 57.8125L12.125 56.125L11.125 53.5625L10.25 51.1875L9.625 49.4375L8.4375 45.9375L7.625 43.375L6.625 40.125L5.75 37L4.875 33.625L4.375 31.375L4.5625 30.8125L5.0625 30.375L5.75 30.125L9.4375 29.375L10.9375 29L13.5625 28.25L15.6875 27.5L18 26.5625L19.5 25.875L20.0625 25.5625L20.75 25.0625L20.875 25ZM9.875 32.75L9.375 32.9375L8.875 33.375L8.625 33.9375L8.5625 34.5625L8.875 36L9.1875 36.875L9.75 37.9375L10.125 38.375L10.4375 38.4375L11.25 38.25L11.875 37.875L12.375 37.4375L12.5 37.25V36.625L11.8125 34.1875L11.5 33.4375L11.25 33.0625L11.0625 32.875L10.625 32.75H9.875ZM12.8125 41.6875L11.9375 41.9375L11.3125 42.25L11.375 42.5625L11.125 42.625L11.25 43.5625L11.875 45.75L12.625 48L13.25 49.75L13.875 51.4375L14.625 53.375L15.3125 55.125L15.9375 56.6875L16.8125 58.6875L17.3125 59.875L17.875 61.0625L18.3125 62.0625L18.9375 63.375L19.5 64.5625L19.9375 65.4375L20.5 66.625L21.25 68L21.6875 68.5625L22 68.875L22.375 69L23.4375 68.6875L24 68.25L24.4375 67.6875L24.5 67.5L24.0625 66.5625L23.5 65.25L22.4375 63.0625L21.5 61.125L20.5625 59.0625L19.3125 56.25L18.1875 53.5625L17.1875 51L15.9375 47.5L15 44.75L14.5 43.25L14 42.0625L13.6875 41.75L13.5 41.6875H12.8125Z" fill="white"/>
<path d="M48.625 4H52.3125L55.0625 4.25L56.6875 4.5L58.25 4.875L59.9375 5.4375L61.125 5.9375L62.5 6.6875L63.375 7.3125L64.1875 8.0625L64.8125 8.875L65.125 9.5625L65.3125 10.25V11L65.0625 11.75L64.5 12.6875L64.0625 13.125L63.6875 13.5625L62.75 14.25L61.625 14.875L60.5 15.375L59.25 15.8125L57.4375 16.3125L55.5625 16.6875L53.75 16.9375L51.5 17.125H48.875L46.625 16.9375L44.375 16.5625L43 16.25L41.625 15.875L40.5 15.4375L39.25 14.9375L38.125 14.3125L37.5625 13.875L36.9375 13.3125L36.25 12.4375L35.75 11.4375L35.5625 10.8125V10.1875L35.875 9.4375L36.125 8.875L36.625 8.1875L37.125 7.625L37.8125 7.0625L39.0625 6.3125L40 5.8125L41.25 5.3125L42.875 4.8125L44.625 4.4375L46.375 4.1875L48.625 4Z" fill="white"/>
<path d="M33.25 13.75L33.5625 13.875L34.25 14.75L34.75 15.375L35.25 15.875L36.0625 16.5L36.6875 16.9375L38 17.6875L39.1875 18.25L41.0625 18.9375L42.875 19.4375L44.375 19.75L46.125 20L47.3125 20.125L48.4375 20.1875H53L54.375 20.0625L56.1875 19.8125L57.8125 19.5L59.1875 19.125L60.4375 18.6875L61.75 18.1875L62.9375 17.625L64.4375 16.75L65.1875 16.25L65.9375 15.6875L66.75 14.8125L67.125 14.1875L67.375 13.8125L67.625 13.75L67.9375 14.0625L68.3125 14.8125L68.625 15.5L69.125 16.375L69.9375 17.125L70.25 17.625V17.8125L69.3125 18.75L68.875 19.0625L68.375 19.6875L67.9375 20.375L67.4375 21.375L67.0625 22.5625L67 23.4375L66.875 23.75L66.6875 23.875L66.125 23.8125L65.1875 23.6875L64.4375 23.75L63.125 24.0625L61.9375 24.625L61.25 25.0625L60.625 25.625L60.125 26.1875L59.625 27.0625L59 28.0625H58.875V27.9375L58.4375 27.875L57.875 27.5L56.75 27.125L55.8125 27L54.625 27.0625L53.5 27.3125L52.5625 27.6875L51.6875 28.125L51 28.875L50.5625 29.25L50.3125 29L49.75 28.625L49.3125 28.1875L48.4375 27.6875L47.25 27.25L46.25 27.0625H44.625L43.6875 27.25L42.75 27.75L42.3125 27.9375H41.9375L41.4375 27.375L40.75 26.125L40.0625 25.375L39.375 24.875L38.0625 24.1875L37.125 23.875L36.1875 23.6875L35.1875 23.8125L34.75 23.9375H34.375L34.0625 23.5625L33.8125 22.3125L33.5 21.375L32.875 20.1875L32.375 19.4375L32 19L31.5 18.5625L30.8125 18L30.75 17.6875L31.0625 17.125L31.5625 16.625L32 16L32.5 15.1875L32.875 14.4375L33.125 13.875H33.25V13.75Z" fill="white"/>
<path d="M43.1875 53.125L55.3125 53.1875L57.5 53.25L57.9375 53.375L58.5625 53.9375L59.25 54.75L60.0625 55.8125L60.5625 56.4375L61.375 57.4375L62.1875 58.5L62.8125 59.3125L62.9375 59.625L62.875 60L62.0625 60.9375L61.125 61.875L61.0625 62H60.9375L60.8125 62.25L58.9375 64.125L58.5 64.625L58.0625 65.0625L57.625 65.5625L56.9375 66.25L56.5 66.75L54.875 68.375L54.4375 68.875L53.6875 69.625L53.3125 70.0625L51.875 71.5L51.4375 72L50.9375 72.625L50.75 72.9375L50.5 73L50.125 72.625V72.5L49.875 72.375L49.625 72.125V72H49.5L49.0625 71.5L48 70.4375L47.5625 69.9375L46.3125 68.6875L45.875 68.1875L45.0625 67.375V67.25L44.875 67.1875L44.4375 66.6875L43.5 65.75L43.0625 65.25L42.3125 64.5L41.875 64L40.9375 63L40.375 62.4375L39.5 61.4375L39.5625 61.1875H40.5L42.1875 61.25H57.0625L57.75 61.125L58.125 60.9375L58.4375 60.4375L58.5 59.625L58.375 59.0625L58.0625 58.5L57.6875 58.3125L55.25 58.25L39.1875 58.1875L39.125 58.0625L39.5625 57.5L40.1875 56.6875L40.8125 56L41.4375 55.1875L41.625 54.9375H41.75L41.875 54.6875L42.4375 53.9375L42.875 53.4375L43.1875 53.125Z" fill="white"/>
<path d="M35.3125 26.9375H36L36.875 27.125L37.5625 27.5L38 27.875L38.5 28.5L38.875 29.25L38.9375 29.5625V30.8125L38.75 31.625L38.3125 32.25L38.125 32.5H38L37.875 32.75L37.3125 33.125L36.25 33.5625L35.5625 33.6875L34.5 33.4375L33.625 33L33.125 32.5L32.6875 31.8125L32.375 30.9375L32.3125 30.5625V29.75L32.5 29.125L33.1875 28L33.75 27.5L34.375 27.125L34.8125 27L35.3125 26.9375Z" fill="white"/>
<path d="M44.8125 30.25H46L46.625 30.375L47.375 30.75L48 31.3125L48.5625 32.125L48.8125 32.8125L48.875 33.0625V34L48.6875 34.6875L48.3125 35.3125L47.625 36.0625L46.9375 36.5L46.1875 36.8125L45.25 36.9375L44.625 36.8125L44 36.5625L43.4375 36.125L42.9375 35.625L42.375 34.5625L42.1875 33.9375V33.3125L42.375 32.4375L42.75 31.6875L43.25 31.0625L43.75 30.6875L44.5 30.3125L44.8125 30.25Z" fill="white"/>
<path d="M26.875 20.375H28L28.625 20.5625L29.3125 20.9375L29.75 21.25V21.375H29.875L30.5 22.1875L30.8125 23L30.875 23.375V24L30.625 24.8125L30.1875 25.5L29.5 26.25L28.6875 26.75L27.875 27H27.375L27.25 27.0625H26.875L26.1875 26.8125L25.6875 26.5625L25.0625 26L24.6875 25.5L24.25 24.5625L24.125 24.125V23.1875L24.3125 22.5625L24.6875 21.875L25.4375 21.0625L26 20.6875L26.875 20.375Z" fill="white"/>
<path d="M72.875 20.375H74L74.9375 20.6875L75.5 21.0625L76 21.5L76.4375 22.125L76.75 22.8125L76.8125 23.125V24.0625L76.625 24.8125L76.1875 25.5625L75.6875 26.125L74.8125 26.6875L74.375 26.875L73.3125 27H72.875L72.125 26.75L71.5 26.375L70.875 25.75L70.375 24.875L70.0625 24.125V23.375L70.1875 22.875L70.625 22L71.25 21.1875L72.125 20.625L72.875 20.375Z" fill="white"/>
<path d="M54.875 30.25H55.5625L56.375 30.375L57.125 30.6875L57.5 30.9375L57.875 31.25L58.3125 31.875L58.5625 32.375L58.6875 32.75L58.75 33.5L58.625 34.375L58.3125 35.125L57.875 35.6875L57.75 35.875H57.625V36L56.75 36.5625L56.125 36.8125L55.8125 36.875H54.875L53.9375 36.5625L53.25 36.0625L52.75 35.5L52.25 34.625L52.0625 33.9375V33L52.3125 32.3125L52.75 31.5625L53.25 30.9375L53.875 30.5625L54.5 30.3125L54.875 30.25Z" fill="white"/>
<path d="M64.5 27H65.8125L66.375 27.125L67.125 27.5L67.75 28.0625L68.25 28.875L68.5 29.5L68.625 30.5L68.5 31.1875L68.25 31.8125L67.6875 32.5625L67.375 32.8125L66.6875 33.1875L66 33.5L65.4375 33.625H64.8125L64 33.375L63.3125 33L63 32.75L62.625 32.25L62.125 31.25L61.9375 30.5V29.875L62.125 29.125L62.625 28.25L63.1875 27.625L63.75 27.25L64.1875 27.0625L64.5 27Z" fill="white"/>
<path d="M50.125 45.125H50.8125L51.4375 45.375L51.8125 45.6875L51.9375 46L52.125 47.3125V49.5625L52 49.8125L51.4375 49.9375H49.1875L48.9375 49.75L48.8125 49.125V46.6875L48.875 46.0625L49.25 45.5L49.875 45.1875L50.125 45.125Z" fill="white"/>
</svg>
