<svg width="100" height="100" viewBox="0 0 100 100" fill="none" xmlns="http://www.w3.org/2000/svg">
<path d="M39.5996 63.5254H74.5117V77.002L74.4629 77.0996V86.9141H39.5996V63.5254Z" fill="white"/>
<path d="M19.3848 63.5254H33.5449V67.5781L33.4961 73.3887L33.5449 75.6348V76.8066L19.4336 76.8555L19.3848 76.8066V63.5254Z" fill="white"/>
<path d="M33.4473 81.7383L33.5449 81.7871V95.0195L33.4961 95.0684H19.3848V81.7871L33.4473 81.7383Z" fill="white"/>
<path d="M80.5664 63.5254H94.6777L94.7266 63.5742V76.8066L80.6152 76.8555L80.5664 76.8066V63.5254Z" fill="white"/>
<path d="M93.5059 81.7383H94.6777L94.7266 81.7871V95.0195L94.6777 95.0684H80.5664V81.7871L93.5059 81.7383Z" fill="white"/>
<path d="M29.1504 26.9043H30.7129L31.7871 27.0996L32.8125 27.4414L33.5938 27.832L34.3262 28.2715L34.8633 28.7109L35.3516 29.1504L35.8887 29.7363L36.4746 30.6152L36.8652 31.3477L37.207 32.2754L37.4512 33.3984L37.5 33.7891V35.2539L37.3535 36.1328L37.0605 37.1582L36.7188 37.9395L36.2793 38.7207L35.8398 39.3066L35.2539 39.9414L34.668 40.4785L33.7891 41.0645L33.0566 41.4551L32.3242 41.748L31.3965 41.9922L30.7129 42.0898H29.1504L28.2227 41.9434L27.3926 41.6992L26.5625 41.3574L26.0254 41.0645L25.4395 40.6738L24.9512 40.2832L24.4629 39.8438L23.9258 39.2578L23.584 38.7695L23.1445 38.0371L22.7539 37.1582L22.5098 36.377L22.3633 35.6934L22.3145 35.2539V33.7891L22.4609 32.8613L22.7539 31.8848L23.0957 31.1035L23.4863 30.3711L24.0723 29.5898L24.5117 29.1016L24.9023 28.7598L25.4395 28.3203L26.2207 27.832L27.002 27.4414L28.0273 27.0996L28.7598 26.9531L29.1504 26.9043Z" fill="white"/>
<path d="M75.4395 50.8789H76.5137L78.5645 50.9277L81.5918 51.123L83.8867 51.3672L84.8633 51.5137L85.5957 51.7578L86.2305 52.0996L86.7188 52.4902L87.2559 53.0273L87.6465 53.6621L87.8906 54.1992L88.0859 54.9805L88.1348 55.2246V55.6641L87.8906 55.7129H55.9082L53.8574 55.6641L54.0527 55.4688L55.6152 54.7852L57.666 54.0039L59.375 53.418L61.1816 52.8809L62.8906 52.4414L64.8438 52.002L66.9922 51.6113L68.9941 51.3184L71.3867 51.0742L73.7305 50.9277L75.4395 50.8789Z" fill="white"/>
<path d="M77.7832 47.4121H82.1777L84.668 47.5586L85.3516 47.6562L86.084 47.9004L86.7188 48.2422L87.2559 48.6816L87.6465 49.0723L88.1348 49.8047L88.4277 50.5371L88.5742 51.1719V52.3926L88.4766 52.9297L88.2324 52.6855L87.6465 52.002L87.1094 51.5137L86.4258 51.0742L85.791 50.7812L84.9609 50.5371L83.1543 50.293L81.0547 50.0977L78.4668 49.9512L76.6113 49.9023H75.7812L73.877 49.9512L71.3379 50.0977L68.9453 50.3418L66.5527 50.6836L64.4531 51.0742L62.3535 51.5625L60.498 52.0508L58.8867 52.5391L56.7871 53.2715L54.9316 54.0039L53.9551 54.4434H53.6621L53.7598 54.248L54.6875 53.7109L55.957 53.0273L57.8125 52.0996L59.4727 51.3672L61.3281 50.6348L63.4277 49.9023L65.2344 49.3652L67.4805 48.7793L69.5801 48.3398L71.5332 47.998L73.7793 47.7051L76.0254 47.5098L77.7832 47.4121Z" fill="white"/>
<path d="M22.6074 30.3223L22.7539 30.3711L22.3633 31.1523L22.1191 31.7383L21.8262 32.7148L21.7285 33.3008L21.582 33.4473L20.9473 33.8867L20.3613 34.3262L19.6289 34.9121L19.0918 35.3516L18.4082 35.9375L17.7734 36.5234L17.1875 37.1094H17.0898L16.9922 37.3047H16.8945L16.7969 37.5L16.3574 37.9395L15.918 38.4766L15.332 39.209L14.9902 39.7461L14.5508 40.4297L14.1113 41.2598L13.9648 41.1133L13.3789 39.6973L12.6953 38.0859L11.9141 36.2305L11.8164 35.8887V35.498L11.9629 35.1074L12.2559 34.7656L12.793 34.4727L14.8438 33.5938L21.4355 30.8105L22.6074 30.3223Z" fill="white"/>
<path d="M18.0176 50.5859L18.457 50.7324L19.2871 51.0254L20.4102 51.3672L21.6797 51.6602L23.4375 51.9531L25.7812 52.1973L27.3438 52.2949L28.9551 53.3691L30.0781 54.1504L30.9082 54.7363L32.0801 55.6152L32.0312 55.7129H20.2148L20.0684 55.4688L19.5801 54.3457L18.1152 50.8789L18.0176 50.5859Z" fill="white"/>
<path d="M0.878906 19.873L1.17188 19.9219L4.49219 20.9961L8.20312 22.2168L10.6445 22.998L18.5547 25.5859L18.8477 25.7324L18.6035 26.2207L18.457 26.2695L15.332 25.4883L11.2793 24.4629L0.0488281 21.6309V21.4355L0.341797 20.9473L0.732422 20.166L0.878906 19.873Z" fill="white"/>
<path d="M40.7227 5.56641L40.918 5.61523L41.5039 6.15234L42.1875 6.68945L42.2363 6.88477L40.8691 9.22852L40.1367 10.4492L39.4043 11.7188L38.916 12.5488L38.1836 13.7695L37.4512 15.0391L36.8652 16.0156L36.1816 17.1875L35.3516 18.6035L34.8633 19.4336L34.1309 20.6543L33.3984 21.9238L33.0566 22.4609L32.7637 22.998L32.5195 22.9492L32.2266 22.7051L32.2754 22.4609L37.3535 12.3047L38.4766 10.1074L40.3809 6.29883L40.7227 5.56641Z" fill="white"/>
<path d="M27.2461 1.36719H27.5391L28.1738 1.5625L29.0039 1.75781L29.1504 1.85547L28.8574 6.10352L28.2227 15.1855L27.8809 20.0195L27.7832 20.6543L27.2949 20.5566L27.1973 20.5078V12.2559L27.2461 1.36719Z" fill="white"/>
<path d="M24.2676 40.6738L24.5117 40.7715L25.1953 41.3086L25.9277 41.748L26.709 42.1387L27.8809 42.5293L29.0527 42.7246H30.7617L31.3477 42.6758L31.2012 42.8223L29.9316 43.5059L28.7109 44.1895L27.832 44.7266L27.7344 44.8242H26.709L25 44.6777L23.291 44.4336L21.875 44.0918L21.2402 43.8477L21.1914 43.75L21.582 43.2617L22.1191 42.6758L22.5586 42.1875L23.0469 41.748L23.6328 41.2109L24.1699 40.7715L24.2676 40.6738Z" fill="white"/>
<path d="M13.6719 9.08203L13.8672 9.13086L14.209 9.61914L14.8438 10.6934L15.4297 11.6211L16.0645 12.6465L16.6504 13.5742L17.334 14.6973L17.9199 15.625L18.5547 16.6504L19.1406 17.5781L19.9219 18.8477L20.5566 19.873L21.1426 20.8008L21.9238 22.0703L22.6074 23.1445L22.8516 23.5352V23.6816L22.4609 23.877L22.2656 23.7793L20.3613 21.1426L19.9707 20.6055L19.3359 19.7266L18.8477 19.043L18.2129 18.1641L17.7246 17.4805L16.4551 15.7227L15.4785 14.3555L12.3047 9.96094L12.207 9.86328V9.7168L13.5254 9.13086L13.6719 9.08203Z" fill="white"/>
<path d="M51.9531 16.1133H52.0996L52.2949 16.8457L52.4414 17.3828V17.627L51.8555 17.9199L50.0977 18.7012L48.5352 19.4336L47.1191 20.0684L45.3125 20.8984L41.9922 22.4121L38.7695 23.877H38.5742L38.4766 23.4375L39.1602 23.0469L41.7969 21.6309L42.8711 21.0449L51.0742 16.6016L51.9531 16.1133Z" fill="white"/>
<path fill-rule="evenodd" clip-rule="evenodd" d="M41.5527 26.3184H40.6738L39.7461 26.416L38.7695 26.6113L37.7441 26.9043L36.7676 27.2461L35.1074 27.9297V28.0762L35.2539 28.1738L35.6445 28.5156L36.1328 29.0527L36.5723 29.5898L37.0605 30.3223L37.5 31.25L37.8418 32.1777L37.9883 32.5684L38.2324 32.5195L39.2578 32.1289L40.1855 31.8848L41.1133 31.7383L41.0645 33.0566L41.0156 33.3496L40.7715 34.5703L40.332 36.084L39.6484 37.9395L39.0625 39.3066L38.8184 39.6973L37.793 40.2832L31.543 43.75L30.4199 44.3848L29.248 45.0195L28.418 45.5078L28.0762 45.8496L26.6113 45.8008L24.9512 45.6543L23.5352 45.459L22.3145 45.2148L21.1426 44.873L20.3613 44.5312L19.9219 44.2383L19.9707 43.9453L20.4102 43.1641L20.8984 42.5293L21.2402 42.1387L21.9238 41.4551L22.6562 40.7715L23.3887 40.1367L23.6328 39.8926L23.291 39.4531L22.7539 38.6719L22.2168 37.5488L21.9238 36.6699L21.7285 35.6934L21.6309 34.668H21.5332L21.3379 34.8145L20.7031 35.3027L19.873 35.9863L19.3359 36.4258L18.75 36.9629L18.3594 37.3047L17.627 38.0371L17.2852 38.4277L16.748 39.0137L16.2109 39.6973L15.7227 40.3809L15.332 41.0645L14.9414 41.8457L14.5996 42.8711L14.4531 43.7988V44.7754L14.5996 45.6055L14.8926 46.4355L15.332 47.2168L15.8691 47.9004L16.3574 48.3398L16.8457 48.7305L17.5781 49.2188L18.8965 49.8535L20.166 50.293L21.7773 50.6836L23.5352 50.9766L25.3418 51.1719L27.5879 51.3184L27.7344 51.3672L28.2715 51.709L29.6387 52.6367L30.5664 53.2715L32.3242 54.541L32.959 55.0293L33.8867 55.7129H41.0645L41.0156 55.5176L40.3809 54.3945L39.7461 53.2227L38.9648 51.8066L38.5254 51.0254L38.0371 50.0977L37.4023 48.9746L37.1094 48.3887H37.2559L37.5 48.291L38.1836 47.9004L38.623 47.5098L38.9648 47.1191L39.0625 46.9238L41.1133 48.9746L41.4551 49.3652H41.5527V49.4629L43.0176 50.9277L43.3594 51.3184L45.2148 53.1738L45.5566 53.5645L47.3633 55.3711L47.7539 55.7129H87.8906L88.1348 55.6641V55.2246L88.0859 54.9805L87.8906 54.1992L87.6465 53.6621L87.2559 53.0273L86.7188 52.4902L86.2305 52.0996L85.5957 51.7578L84.8633 51.5137L83.8867 51.3672L81.5918 51.123L78.5645 50.9277L76.5137 50.8789H75.4395L73.7305 50.9277L71.3867 51.0742L68.9941 51.3184L66.9922 51.6113L64.8438 52.002L62.8906 52.4414L61.1816 52.8809L59.7168 53.3203L57.959 53.9062L56.1035 54.5898L54.5898 55.2246L53.8574 55.5664L53.5645 55.5176L52.832 55.0293L51.9043 54.3945L50.9277 53.6621L50.1953 53.0273L49.8047 52.6855L49.3652 52.2461L49.0234 51.8555L48.4863 51.2695L47.8027 50.3906L47.3145 49.6582L46.9238 48.9746L46.5332 48.1934L46.1426 47.3145L45.8008 46.3379L45.3613 44.873L45.0195 43.3594L44.5801 40.9668L44.5312 40.3809L45.0195 39.1602L45.5566 37.5977L45.9961 36.084L46.3379 34.5703L46.5332 33.1543V31.4453L46.4355 30.7617L46.2402 29.9805L45.9473 29.1992L45.6055 28.6133L45.2637 28.125L44.6777 27.5391L43.9941 27.0508L43.4082 26.7578L42.5293 26.4648L41.5527 26.3184ZM37.1582 44.1895L36.7676 43.8965L36.4258 44.1406L35.498 44.8242L34.8633 45.3125L34.9121 45.5078L35.498 46.9238L35.8398 47.6074H36.5723L36.8164 47.5586L37.4023 47.3145L37.9395 46.9238L38.2812 46.5332L38.6719 45.752V45.459L38.4277 45.2148L37.9883 44.873L37.1582 44.1895Z" fill="white"/>
<path d="M37.3535 38.1348L37.5 38.2812L37.793 38.9648V39.1602L36.7188 39.7461L36.3281 39.9902L36.084 40.0391L36.377 39.6484L36.8652 38.9648L37.3535 38.1348Z" fill="white"/>
<path d="M33.4473 73.3887H33.4961V74.4629L33.252 74.2676L32.959 73.8281L33.2031 73.5352L33.4473 73.3887Z" fill="white"/>
<path fill-rule="evenodd" clip-rule="evenodd" d="M100 57.1777H14.1113V60.498H16.1621V98.6328H36.7676V91.0645L36.8164 91.0156H77.2461L77.3438 91.1133L77.2949 98.6328H97.9492V60.498L97.998 60.4492L100 60.498V57.1777ZM34.7168 62.3535H18.2129V78.0273H34.7168V76.7706V76.2207V76.1719V76.123L34.7656 62.5L34.7168 62.3535ZM19.3848 76.8066V63.5254H33.5449V67.5781L33.4961 73.3398L33.5449 75.0488V76.8066L19.4336 76.8555L19.3848 76.8066ZM18.2129 80.5664H34.668L34.7168 80.6152V96.2402H18.2129V80.5664ZM33.4473 81.7383L19.3848 81.7871V95.0684H33.4961L33.5449 95.0195V81.7871L33.4473 81.7383ZM39 63H75V88H39V63ZM38 62H39H75H76V63V88V89H75H39H38V88V63V62ZM79 62H96V78H79V62ZM95.9499 80H79.0501L79 80.053V96.947L79.0501 97H96V80.053L95.9499 80ZM80.2537 81.324L93.5428 81.271H94.7463L94.7965 81.324V95.5171L94.7463 95.729H80.2537V81.324Z" fill="white"/>
</svg>
