<svg width="100" height="100" viewBox="0 0 100 100" fill="none" xmlns="http://www.w3.org/2000/svg">
<path d="M22.8125 49.875H23.5L23.8125 50.125L24.4375 51.4375L25.5625 54L26.4375 56L27.375 58.125L28.1875 59.9375L28.875 61.5L29.4375 62.8125L30.1875 64.5L31 66.375L31.625 67.8125L32.375 69.5625L33.1875 71.375L33.875 72.875L34.8125 75.125L35.375 76.75L35.8125 77.1875L36.0625 77.125L36.25 76.75L37 73.375L38.25 68.3125L38.875 65.9375L39.3125 64.4375L39.8125 63L39.3125 62.3125L33.9375 56.9375L33.4375 56.5L32.9375 55.9375L33.0625 55.625L33.4375 55.1875L34.875 54.4375L35.8125 53.8125L37 53L39.0625 51.625L40.125 50.875L40.6875 50.4375L41.1875 50.125L41.6875 50.1875L42.4375 50.6875L43.5 51.4375L45.625 52.8125L46.8125 53.625L48.3125 54.625L49.375 55.25L49.9375 55.75L49.875 56.0625L49.4375 56.5625L48.875 57L48.5 57.3125L48.0625 57.8125L44.4375 61.4375H44.3125L44.1875 61.6875L43.3125 62.5625L43.25 62.6875V63.125L43.8125 65.375L44.3125 67.5L45 70.25L45.8125 73.625L46.375 76.4375L46.625 77.125L46.8125 77.4375H47L47.4375 76.6875L48.0625 75.1875L48.625 73.875L49.25 72.375L50.25 70.125L51.0625 68.3125L51.625 67L51.9375 66.3125L52.9375 64L54 61.5625L55.375 58.4375L55.9375 57.1875L56.25 56.375L57.0625 54.5625L57.625 53.3125L58.4375 51.4375L59 50.1875L59.25 49.9375H60.5L62.5 50.0625L64.75 50.375L66.25 50.6875L67.25 51L68.5 51.5L69.5 52L70.5 52.5625L71.25 53.0625L71.9375 53.5625L72.8125 54.25L73.8125 55.1875L74.5625 56L75.375 57.0625L76 57.9375L76.8125 59.25L77.875 61.3125V61.4375L77.25 61.5625H73.125V72.9375L72.875 73.0625L68.1875 73.125L61.5625 73.1875V78.6875L61.4375 78.75L49.9375 78.8125L50 90.125L49.6875 90.3125H12L10.75 90.1875L9.8125 89.875L8.75 89.375L7.625 88.625L6.9375 88L6.5 87.625L5.9375 86.9375L5.4375 86.3125L5 85.625L4.5 84.4375L4.1875 83.4375L4 82.125L3.9375 79.1875V75.5625L4 66.9375L4.125 65.375L4.4375 63.5625L4.8125 62.1875L5.3125 60.75L6.0625 59.1875L6.75 58.0625L7.5 57L8.25 56.0625L8.8125 55.375L9.75 54.4375L10.625 53.75L11.625 53L12.6875 52.3125L13.6875 51.75L15.25 51.125L16.5625 50.6875L18 50.375L19.9375 50.0625L21.5 49.9375L22.8125 49.875Z" fill="#010101"/>
<path d="M40.1875 4.0625H42.5625L44.4375 4.25L45.9375 4.5L47.3125 4.875L48.9375 5.4375L50.1875 6L51.8125 6.875L53 7.6875L54 8.4375L54.625 8.9375L55.25 9.5L55.75 9.9375L56.1875 10.4375L56.625 10.875L57.3125 11.75L57.9375 12.625L58.75 13.875L59.4375 15.125L60.125 16.6875L60.75 18.375L61.3125 20.625L61.5 21.6875L61.625 23.25V25.3125L61.4375 27.125L61 29.0625L60.5 30.6875L59.8125 32.4375L58.9375 34.1875L58.1875 35.375L57.4375 36.4375L56.9375 37.0625L56.1875 37.9375L55.3125 38.8125L54.8125 39.25L54.125 39.875L53 40.6875L51.875 41.375L50.875 41.9375L49.3125 42.6875L47.1875 43.4375L45.625 43.8125L43.75 44.125L41.8125 44.25L39.5 44.1875L38.25 44.0625L36.75 43.75L35.125 43.3125L33.625 42.75L32.375 42.1875L31.1875 41.5625L29.9375 40.75L29.0625 40.0625L28.1875 39.3125L27.375 38.5625L26.5625 37.75L26.125 37.25L25.3125 36.25L24.625 35.25L24.0625 34.375L23.125 32.5625L22.375 30.625L22 29.5L21.5 27.25L21.25 25.6875L21.1875 24.9375V23.5L21.375 21.75L21.875 19.25L22.1875 18.1875L22.625 17L23.1875 15.625L23.75 14.5625L24.5 13.25L25.1875 12.3125L25.6875 11.625L26.1875 11L26.75 10.375L27.1875 9.875L27.8125 9.25L28.6875 8.5625L29.6875 7.8125L30.875 7L32.1875 6.25L33.1875 5.75L34.25 5.3125L35.4375 4.875L36.9375 4.5L38.875 4.1875L40.1875 4.0625Z" fill="#010101"/>
<path d="M66.5625 4.25H87L89.5 4.3125L90.25 4.5L90.625 4.6875L91 5.125L91.125 5.5V6.5625L90.9375 7.1875L90.5625 7.625L89.5625 7.9375L88.8125 8H84.75L85.375 9.125L85.75 9.875L86.125 11.1875L86.375 12.125L86.5 12.3125L86.75 12.375L89.4375 12.4375L90.4375 12.8125L90.875 13.1875L91.125 13.75L91.1875 14V14.8125L91 15.375L90.625 15.8125L89.5 16.25L89.1875 16.3125H87.6875L86.375 16.25L86.0625 16.875L85.8125 17.4375L85.125 18.5625L84.5 19.5L83.8125 20.25L83.1875 20.875L82.375 21.375L81.25 21.875L80.5625 22.125V22.3125L81.5 23L82.125 23.5625L82.9375 24.375L83.5625 25.25L84.25 26.5625L84.875 28.4375L85.75 31.9375L86.375 34.5625L87.125 37.125L87.625 38.3125L88.25 39.625L88.375 40.3125L88.125 40.9375L87.625 41.5L87 41.9375L86.1875 42.4375H85.625L84.9375 42.0625L84.3125 41.5625L83.875 41.125L83.375 40.4375L82.875 39.4375L82.0625 37.1875L81.5 35.1875L80.6875 31.875L80.25 30.0625L79.75 28.3125L79.25 27.1875L78.6875 26.25L78.125 25.625L77.4375 25.0625L76.4375 24.5625L75.6875 24.375L74.4375 24.25L67.875 24.1875L67.25 24.0625L66.75 23.75L66.3125 23.125L66.0625 22.5625V21.875L66.3125 21.375L66.75 20.875L67.0625 20.625L67.25 20.4375L69.25 20.375H74L75.25 20.3125L76.3125 20.125L77.5625 19.75L78.125 19.5L79.0625 19L79.875 18.375L80.5625 17.8125L80.625 17.6875H80.75L80.875 17.4375L81.25 16.75L81.3125 16.375L81.125 16.3125H66.1875L65.5 16.25L64.9375 15.875L64.4375 14.9375L64.3125 14.5625V14L64.6875 13.4375L65.1875 12.8125L65.6875 12.5L65.875 12.4375H81.625L81.0625 11.375L80.4375 10.5L79.875 9.875L79.375 9.375L78.4375 8.8125L77.625 8.5L76.4375 8.25L75.125 8.125L72.9375 8.0625L66.0625 8L65.375 7.875L65 7.5625L64.4375 6.6875L64.3125 6.25V5.8125L65 4.75L65.4375 4.375L65.625 4.3125L66.5625 4.25Z" fill="#010101"/>
<path d="M90.375 50H95.8125L95.9375 50.375L95.875 95.6875L95.6875 95.75L93 95.8125H91L90.375 95.75L90.3125 95.6875L90.25 94.9375V91.0625L90.3125 50.125L90.375 50Z" fill="#010101"/>
<path d="M78.9375 67.375H84.5L84.5625 67.4375L84.625 95.5625L84.4375 95.75L83.0625 95.8125H78.875L78.8125 95.6875L78.75 93.6875V71.625L78.8125 67.5625L78.9375 67.375Z" fill="#010101"/>
<path d="M72.4375 78.8125L73.0625 78.875L73.125 79.1875V95.6875L72.75 95.8125H67.5L67.3125 95.6875V78.9375L67.375 78.875L72.4375 78.8125Z" fill="#010101"/>
<path d="M55.9375 84.625H60.0625L61.5 84.6875L61.5625 84.75V95.75L61.5 95.8125H55.9375L55.8125 95.625L55.75 93.4375V91.3125L55.8125 84.6875L55.9375 84.625Z" fill="#010101"/>
<path d="M13.3125 9.125H13.4375L13.3125 9.375L11.875 10.8125L11.8125 10.9375H11.6875L11.5625 11.1875L10.1875 12.5625L10.0625 12.75H9.9375L9.8125 13L8.625 14.1875V14L9.75 12.875L10.1875 12.375L11.0625 11.5L11.5 11L13.25 9.25L13.3125 9.125Z" fill="#FDFDFD"/>
<path d="M17.5625 19.0625V19.25L16.75 20.0625V19.875L17.5625 19.0625Z" fill="#FDFDFD"/>
<path d="M13.4375 16.125V16.3125L12.625 17.125V16.9375L13.4375 16.125Z" fill="#FDFDFD"/>
<path d="M16.5625 20.125V20.3125L16.0625 20.8125V20.625L16.5625 20.125Z" fill="#FDFDFD"/>
<path d="M18.3125 18.25V18.4375L17.875 18.875V18.6875L18.3125 18.25Z" fill="#FDFDFD"/>
<path d="M11.375 18.25V18.4375L11.0625 18.6875L11.1875 18.4375L11.375 18.25Z" fill="#FDFDFD"/>
<path d="M7.125 8.5V8.6875L6.9375 8.8125L7.0625 8.5625L7.125 8.5Z" fill="#FDFDFD"/>
<path d="M12.1875 17.375L12.3125 17.4375L12.0625 17.625L12.1875 17.375Z" fill="#FDFDFD"/>
<path d="M12.4375 17.125L12.5625 17.1875L12.3125 17.375L12.4375 17.125Z" fill="#FDFDFD"/>
<path d="M13.6875 8.75L13.8125 8.8125L13.5625 9L13.6875 8.75Z" fill="#FDFDFD"/>
<path d="M13.625 15.9375V16.125L13.5 16.0625L13.625 15.9375Z" fill="#FDFDFD"/>
<path d="M10.9375 18.6875L11.0625 18.75L10.9375 18.8125V18.6875Z" fill="#FDFDFD"/>
<path d="M11.8125 17.75L11.9375 17.8125L11.8125 17.875V17.75Z" fill="#FDFDFD"/>
<path d="M13.5 9L13.5625 9.125L13.4375 9.0625L13.5 9Z" fill="#FDFDFD"/>
<path d="M13.8125 8.625L13.9375 8.6875L13.8125 8.75V8.625Z" fill="#FDFDFD"/>
</svg>
