<svg width="100" height="100" viewBox="0 0 100 100" fill="none" xmlns="http://www.w3.org/2000/svg">
<path d="M39.1602 0H42.4805V0.0488281L43.6035 0.244141L45.166 0.634766L46.3867 1.12305L47.2656 1.51367L48.0469 2.00195L48.6328 2.39258L49.0723 2.73438L49.5605 3.17383L49.9023 3.4668V3.56445L50.0977 3.66211L50.5859 4.19922L51.0742 4.88281L51.4648 5.56641L51.7578 6.15234L52.0508 6.98242L52.2461 7.8125L52.3438 8.74023V9.7168L53.4668 10.4004L54.2969 10.9863L54.9316 11.4746L56.2988 12.6465L57.0312 13.2812L57.4219 13.6719L57.7637 14.0625L58.252 14.5996L58.5938 14.9902L59.1797 15.6738L59.8633 16.6016L60.5957 17.7246L61.0352 18.457L61.5234 19.3359L62.1582 20.7031L62.6953 22.0703L63.0859 23.2422L63.4277 24.5605L63.7207 25.9766L63.916 27.3926L64.0137 28.4668L64.0625 30.4688V32.8125L64.0137 33.5449L63.8184 34.0332L63.4277 34.4727L62.8418 34.7168H62.2559L61.8164 34.5703L61.377 34.1797L61.1328 33.7402L61.0352 33.1543L60.9863 29.0527L60.9375 28.0762L60.6934 26.2695L60.4492 25.1465L60.0098 23.584L59.4238 22.0215L58.8379 20.752L58.252 19.6777L57.5195 18.5059L56.8359 17.5781L56.3965 17.041L55.8594 16.4062L55.0781 15.5762L54.6875 15.1855L54.2969 14.8438L53.7598 14.3555L52.7832 13.623L51.9531 13.0371L50.6836 12.2559L49.9512 11.8652L48.584 11.2305L46.8262 10.5957L45.2148 10.1562L43.457 9.86328L42.6758 9.76562L41.748 9.7168H39.6484L38.3789 9.81445L36.6211 10.1074L35.2539 10.4492L34.4727 10.6934L33.0078 11.2305L31.3477 12.0117L30.5664 12.4512L29.3945 13.1836L28.5645 13.8184L27.9785 14.2578L27.3438 14.8438L26.9531 15.1855L26.3184 15.7715L25.4395 16.748L24.9023 17.3828L24.4141 18.0664L24.0234 18.6035L23.4375 19.5312L22.9492 20.4102L22.3633 21.582L21.8262 22.9004L21.3867 24.2188L20.9961 25.7812L20.7031 27.5879L20.6055 28.9551L20.5566 30.4199L20.5078 33.7891L21.3379 33.5449L23.1445 33.3008L24.0234 33.0078L24.8047 32.6172L25.3418 32.2754L26.123 31.6895L26.8066 31.1035L27.3926 30.5664L27.7344 30.1758L28.3203 29.5898L28.7598 29.0527L29.4434 28.2227L29.9805 27.4902L30.3711 26.9531L30.8105 26.416L31.25 26.0742L31.9336 25.7324L32.2266 25.6348L33.1055 25.5371L33.6426 25.5859L34.2773 25.7812L37.4512 27.0508L39.5508 27.7344L41.0156 28.1738L43.3594 28.8086L45.8008 29.3945L48.9258 30.127L51.0742 30.7129L52.0508 31.0059L54.2969 31.8359L55.4199 32.373L56.25 32.8613L56.8848 33.3008L57.5195 33.7891L58.3008 34.5215L58.7402 35.0586L59.2285 35.7422L59.668 36.5234L60.1562 37.7441L60.4492 38.8672L60.6445 40.1855L60.6934 40.8691V42.5293L60.5957 43.6523L60.4492 44.8242L60.1562 46.2402L59.8145 47.5098L59.375 48.7793L58.8867 49.9512L58.2031 51.3184L57.4219 52.5879L56.8359 53.418L56.25 54.1992L55.7617 54.7363L55.4199 55.127L54.9805 55.6152L54.3457 56.25L53.9551 56.5918L53.2715 57.1777L52.4414 57.8125L51.709 58.3008L51.0254 58.7402L49.8047 59.4238L48.1934 60.1562L46.4355 60.7422L45.0684 61.084L43.5547 61.3281L42.8223 61.4258L41.2109 61.5234H40.3809L38.7695 61.4258L37.1094 61.1816L35.5957 60.8398L33.9844 60.3516L33.9355 62.1094L33.8379 63.0371L33.6914 63.7695L33.3008 64.7461L32.9102 65.4785L32.5195 66.0156L31.9824 66.6016L31.4941 67.041L31.0059 67.3828L30.1758 67.8711L29.1504 68.3594L29.248 68.6035L29.9316 69.6777L30.5664 70.5566L31.1035 71.2402L31.6895 71.9238L32.1289 72.4609L32.7637 73.1934L33.2031 73.6816L33.7891 74.2676L34.1309 74.6582L35.0586 75.5859L35.4492 76.123L35.5957 76.6113V76.9531L35.4492 77.3926L35.1562 77.832L34.7168 78.125L34.2285 78.2715H33.8867L33.3008 78.0273L32.7637 77.5879L32.0801 76.9043L31.7383 76.5137L31.3965 76.1719L31.0547 75.7812L30.6152 75.3418L30.2734 74.9512L29.5898 74.1211L29.0039 73.4375L28.6133 72.9492L27.9297 72.0703L27.2949 71.1426L26.709 70.2148L26.4648 69.8242L26.1719 69.873L15.7227 75.0977L14.9902 75.6348L14.5508 76.123L14.3066 76.5137L14.0137 77.2461L13.916 77.7344L13.8672 78.418V85.3027H20.8984V83.252L21.0938 82.7148L21.5332 82.2266L21.9727 82.0312L22.5098 81.9824L23.0469 82.1289L23.4375 82.4219L23.7305 82.8125L23.877 83.3984V98.4375L23.7793 99.0234L23.5352 99.4629L23.1445 99.8047L22.7539 100H22.0215L21.4844 99.707L21.0938 99.2676L20.9473 98.9258L20.8984 98.6816L20.8496 88.3301H15.9668L15.5273 88.2812V97.9492L15.4785 98.8281L15.2832 99.2676L14.9902 99.6582L14.5996 99.9023L14.4043 100H13.6719L13.1836 99.7559L12.9395 99.5117L12.6465 99.1211L12.5488 98.8281L12.5 98.3398V87.9883L12.2559 87.7441L11.7676 87.3535L11.2793 86.7188L11.0352 86.1816L10.8887 85.5957L10.8398 85.2051V77.9297L10.9375 77.0508L11.1328 76.2207L11.5234 75.293L11.8164 74.7559L12.207 74.1699H12.3047L12.4023 73.9746L12.9395 73.3887L13.6719 72.8027L14.6973 72.2168L29.0527 65.0391L29.834 64.502L30.3711 63.8184L30.7129 63.0859L30.8105 62.6465L30.8594 62.207V58.8867L29.6875 58.1543L28.7598 57.4707L28.0762 56.9336L27.3926 56.2988L26.6113 55.6152L26.2695 55.2246L25.3906 54.248L24.6582 53.2715L24.0723 52.4414L23.3887 51.2695L22.998 50.5859L22.3633 49.1699L22.0215 48.291L21.5332 46.7285L21.1426 44.873L20.8984 42.9199L20.166 42.5781L19.5312 42.1875L18.9453 41.6992V41.6016H18.8477L18.3594 40.9668L17.9199 40.1855L17.6758 39.4531L17.5781 38.916L17.5293 38.3789V29.541L17.5781 28.3203L17.7734 26.5137L18.0176 25.1465L18.4082 23.584L18.7988 22.3145L19.1895 21.2891L19.6777 20.166L20.1172 19.2383L20.752 18.1152L21.2402 17.334L21.7285 16.6016L22.168 16.0156L22.6562 15.3809L23.1934 14.7949L23.5352 14.4043L24.0723 13.8184L24.4141 13.4277L24.8047 13.0371L25.3418 12.5977L25.9277 12.0605L26.4648 11.6211L27.1484 11.084L27.832 10.5957L28.9062 9.91211L29.248 9.7168V8.64258L29.3457 7.8125L29.541 6.98242L29.7852 6.25L30.1758 5.46875L30.7129 4.58984L31.1035 4.10156L31.6406 3.51562L32.1289 3.07617L32.5195 2.68555L33.8379 1.80664L34.5215 1.41602L36.084 0.732422L36.9629 0.488281L38.4277 0.146484L39.1602 0.0488281V0ZM39.8926 2.97852L38.6719 3.125L37.4512 3.41797L36.4746 3.75977L35.6934 4.15039L34.9121 4.58984L34.1309 5.22461L33.8379 5.46875L33.4961 5.85938L33.1055 6.34766L32.666 7.12891L32.3242 8.1543L32.373 8.25195L34.2285 7.61719L36.2305 7.12891L38.2324 6.83594L39.4043 6.73828L40.9668 6.68945L42.8711 6.78711L44.7754 7.03125L46.1426 7.32422L47.3145 7.61719L49.0234 8.20312H49.2188L49.1699 7.8125L48.877 7.03125L48.4375 6.25L47.8516 5.56641L47.5098 5.22461L46.5332 4.49219L45.752 4.05273L44.9707 3.71094L43.6523 3.27148L42.6758 3.07617L41.6016 2.97852H39.8926ZM32.9102 28.5156L32.4219 29.1504L31.6895 30.127L31.2012 30.7617L30.6641 31.3965L30.1758 31.9336L29.834 32.3242L29.1992 32.959L29.1016 33.0078V33.1055L28.9062 33.2031L28.4668 33.6426L27.6855 34.2285L27.1973 34.6191L26.1719 35.2539L25.3906 35.6445L24.6582 35.9375L23.9258 36.1816L23.1445 36.3281L21.9727 36.4746L21.5332 36.6211L21.1426 36.9141L20.8008 37.3047L20.6055 37.8418L20.5566 38.0371V38.5254L20.752 39.1602L21.0449 39.5508L21.3867 39.8438L21.8262 40.0391L22.9004 40.2832L23.3398 40.5273L23.6328 40.918L23.7793 41.2598L23.877 42.0898L23.9746 43.5059L24.2676 45.3125L24.6582 46.7773L25.0488 47.8516L25.5859 49.0723L26.2695 50.3418L26.8555 51.2207L27.4414 52.0508L27.8809 52.5391L28.3203 53.0762L29.2969 54.0527L29.6875 54.3945L30.3223 54.9316L31.2012 55.5664L31.9336 56.0547L33.3496 56.8359L34.9609 57.5195L36.377 57.959L37.4512 58.2031L38.6719 58.3984L40.4785 58.5449L41.9922 58.4961L43.0176 58.3984L44.5312 58.1543L45.7031 57.8613L47.2168 57.3242L48.584 56.6895L49.4629 56.2012L50.1465 55.7617L50.9766 55.1758L51.8066 54.4922L52.1973 54.1504L52.6367 53.7109L52.832 53.5645V53.4668L53.0273 53.3691L53.3691 52.9785L53.9551 52.2949L54.6875 51.3184L55.2734 50.3906L55.6641 49.7559L56.2012 48.6328L56.7383 47.3145L57.1777 45.8984L57.4707 44.4824L57.6172 43.5059L57.7148 42.041V41.1621L57.6172 40.0391L57.4219 39.0625L57.1289 38.1836L56.7383 37.4023L56.3477 36.8652L55.9082 36.377L55.5176 35.9863L54.6875 35.4004L53.2715 34.668L52.5879 34.375L50.9277 33.7891L48.4863 33.1055L42.627 31.6895L39.6973 30.9082L37.6953 30.2734L36.1328 29.7363L33.1055 28.5156H32.9102Z" fill="white"/>
<path d="M72.5586 48.4863L74.2676 48.584L75.6836 48.7793L76.9531 49.0723L77.9297 49.3652L78.9551 49.7559L79.834 50.1465L80.9082 50.7324L81.7871 51.2695L82.7148 51.9531L83.3984 52.4902V52.5879L83.5938 52.6855L84.4238 53.4668L85.1562 54.248L85.6934 54.9316L86.377 55.8594L86.9629 56.8359L87.4023 57.6172L87.9883 58.9355L88.5742 60.6934L88.8672 61.9629L89.0625 63.3789L89.1113 64.0137V66.1133L89.0137 67.2363L88.8184 68.4082L88.4766 69.7754L87.9883 71.1914L87.4512 72.4121L86.9141 73.3887L86.2793 74.4141L85.9863 74.8047L85.498 75.4395L84.9121 76.123L84.1797 76.9043L75.6836 85.4004L75.7324 85.5957L76.4648 87.0117L76.9531 87.8906L77.3926 88.7207L77.9785 89.7949L78.5156 90.7715L78.8086 91.3574L79.3945 92.4316L79.8828 93.3105L80.1758 93.8965L80.7617 94.9707L81.25 95.8496L81.543 96.4355L82.1289 97.5098L82.4219 98.1934V98.877L82.1289 99.4629L81.7383 99.8047L81.25 100H80.5176L79.9805 99.6582L79.6387 99.2188L79.1992 98.4375L78.4668 97.0703L77.7832 95.8008L77.1973 94.7266L76.416 93.2617L75.8301 92.1875L75.0488 90.7227L74.4629 89.6484L73.6816 88.1836L73.0957 87.1094L72.2656 85.5469L71.6797 84.4727L70.9473 83.1055L70.3125 81.9336L69.7266 81.0059L69.0918 80.2734L68.6035 79.834L67.8223 79.2969L66.9922 78.8574L65.9668 78.5156L65.2344 78.3691L64.7461 78.3203H60.7422L59.9609 78.418L59.1309 78.6621L58.3008 79.0527L57.6172 79.541L56.9824 80.127L56.4453 80.8594L56.1035 81.543L55.8594 82.2754L55.7617 82.8125V84.1797L56.0059 85.2051L56.4941 86.2305L56.9824 86.8652L57.5195 87.4023L58.0566 87.793L58.7402 88.1836L59.6191 88.4766L60.2051 88.5742L60.791 88.623L63.4277 88.6719L64.1113 88.7695L64.6973 89.0137L65.2344 89.3555L65.4297 89.502V89.5996H65.5273L66.0645 90.2832L66.5527 91.1133L70.5078 97.7051L70.7031 98.1934V98.9258L70.4102 99.4629L70.0195 99.8047L69.6289 100H68.7012V99.9023L68.3105 99.707L67.8711 99.1699L66.9434 97.6074L66.5039 96.875L65.6738 95.5078L65.4297 95.6055L64.8438 96.1426L64.0137 96.7773L63.1836 97.3633L62.1094 97.998L61.3281 98.3887L60.3516 98.8281L59.2773 99.2188L57.8125 99.6094L56.543 99.8535L55.7617 100H52.2461L52.1484 99.9023L50.5371 99.6094L49.0723 99.2188L47.7539 98.7305L46.582 98.1934L45.4102 97.5098L44.6777 97.0215L44.0918 96.582L43.6035 96.1914L43.1152 95.752L42.7246 95.4102L41.9922 94.6777L41.6504 94.2871L41.1621 93.7012L40.4785 92.7734L39.8438 91.748L39.4531 91.0645L38.7695 89.5508L38.2324 87.9395L37.9395 86.7188L37.6953 85.0098L37.6465 84.375V82.6172L37.7441 81.4453L37.9395 80.2246L38.3301 78.6621L38.8672 77.1484L39.3066 76.1719L39.8926 75.0977L40.4785 74.1699L41.3574 72.998L41.7969 72.5098L41.8457 72.4121H41.9434L42.041 72.2168L42.7246 71.4844L61.1328 53.0762L61.6699 52.6367L62.0117 52.2949L62.9883 51.5625L63.8672 50.9766L65.0391 50.293L66.4551 49.6582L68.2129 49.0723L69.5312 48.7793L70.8496 48.584L72.5586 48.4863ZM71.582 51.5137L70.6543 51.6113L69.5801 51.8066L68.3594 52.1484L67.2852 52.5391L66.1621 53.0762L65.0879 53.7109L64.4531 54.1992L64.0137 54.541L63.0371 55.4199L51.1719 67.2852L51.0254 67.3828L51.0742 67.5293L51.4648 67.8711L52.1973 68.5547L53.7598 70.0195L54.0039 70.2637H54.1016V70.3613L54.4922 70.7031L55.0781 71.2402L55.6152 71.6797L56.3477 72.3145L56.8848 72.7539L57.5195 73.291L58.1543 73.7793L59.0332 74.4629L59.668 74.9512L60.1562 75.3418L61.377 75.293H64.0137L65.4785 75.3906L66.6016 75.5859L67.9199 76.0254L69.1406 76.6113L69.6777 76.9531L70.3613 77.4414L70.8496 77.8809L71.4355 78.418L71.9727 79.0527L72.4121 79.6875L72.9004 80.4688L73.5352 81.6406L74.0234 82.5195L74.0723 82.666L74.2676 82.6172L74.8047 82.0801V81.9824H74.9023V81.8848H75V81.7871H75.0977V81.6895H75.1953V81.5918L75.3906 81.4941V81.3965L75.5859 81.2988L75.7812 81.1035V81.0059L75.9766 80.9082V80.8105L76.1719 80.7129V80.6152H76.2695V80.5176H76.3672V80.4199H76.4648V80.3223H76.5625V80.2246H76.6602V80.127H76.7578V80.0293H76.8555V79.9316H76.9531V79.834H77.0508V79.7363H77.1484V79.6387H77.2461V79.541H77.3438V79.4434H77.4414V79.3457H77.5391V79.248H77.6367V79.1504H77.7344V79.0527H77.832V78.9551H77.9297V78.8574H78.0273V78.7598H78.125V78.6621H78.2227V78.5645H78.3203V78.4668H78.418V78.3691H78.5156V78.2715H78.6133V78.1738H78.7109V78.0762H78.8086V77.9785H78.9062V77.8809H79.0039V77.7832H79.1016V77.6855H79.1992V77.5879H79.2969V77.4902H79.3945V77.3926H79.4922V77.2949H79.5898V77.1973H79.6875V77.0996H79.7852V77.002H79.8828V76.9043H79.9805V76.8066H80.0781V76.709H80.1758V76.6113H80.2734V76.5137H80.3711V76.416H80.4688V76.3184H80.5664V76.2207H80.6641V76.123H80.7617V76.0254H80.8594V75.9277H80.957V75.8301H81.0547V75.7324H81.1523V75.6348H81.25V75.5371H81.3477V75.4395H81.4453V75.3418H81.543V75.2441H81.6406V75.1465H81.7383V75.0488H81.8359V74.9512H81.9336V74.8535H82.0312V74.7559H82.1289V74.6582H82.2266L82.5684 74.2676L83.1055 73.6816L83.5938 73.0469L84.082 72.3145L84.6191 71.3867L85.1562 70.2637L85.498 69.3359L85.7422 68.457L85.9863 67.334L86.1328 66.2109V63.9648L85.9375 62.5L85.6445 61.2793L85.2539 60.1074L84.8633 59.2285L84.2773 58.1055L83.7402 57.2754L83.3008 56.6895L82.7637 56.0547L82.0801 55.3223L81.4453 54.7363L80.7129 54.1504L80.0781 53.7109L79.248 53.2227L78.3203 52.7344L77.3926 52.3438L76.1719 51.9531L75.1465 51.709L74.1699 51.5625L73.584 51.5137H71.582ZM48.8281 69.5801L48.3887 70.0195V70.1172L48.1934 70.2148V70.3125L47.998 70.4102V70.5078L47.8027 70.6055V70.7031L47.6074 70.8008V70.8984H47.5098V70.9961H47.4121V71.0938H47.3145L46.9727 71.4844L44.1895 74.2676L43.8477 74.6582L43.2617 75.3906L42.7246 76.1719L42.0898 77.2949L41.6504 78.2227L41.2109 79.4434L40.8203 81.0059L40.625 82.666V84.3262L40.8203 85.8887L41.1133 87.1582L41.5527 88.4766L41.9922 89.4531L42.4805 90.3809L43.1641 91.4062L43.6523 92.041L44.0918 92.5293L44.4336 92.9199L45.0195 93.5059L46.0938 94.3848L46.875 94.9219L47.9004 95.5078L49.0234 96.0449L50.4395 96.5332L51.5137 96.7773L52.832 96.9727L53.4668 97.0215H54.9316L55.957 96.9238L57.0801 96.7285L58.3496 96.3867L59.5215 95.9473L60.7422 95.3613L61.7188 94.7754L62.6465 94.0918L63.2324 93.5547L63.623 93.2129L63.7695 93.1152V93.0176L63.9648 92.9199L64.0137 92.6758L63.5742 91.8945L63.3301 91.6504L60.6445 91.6016L59.2773 91.4551L58.4473 91.2109L57.4707 90.8691L56.3477 90.2344L55.9082 89.8926L55.2246 89.3066L54.7363 88.8184L54.0527 87.8906L53.6621 87.207L53.2227 86.2305L52.9297 85.1562L52.7832 84.4238V82.4707L52.9785 81.4453L53.2715 80.5664L53.7109 79.6387L54.248 78.8086L54.5898 78.3691V78.2715H54.6875L55.0293 77.8809L55.5176 77.3926L56.1523 76.9043L56.7383 76.5137L56.6895 76.3672L56.25 76.0254L55.6152 75.4883L55.127 75.0977L54.2969 74.4141L53.7598 73.9746L53.125 73.3887L52.5879 72.9492L51.8066 72.2168L51.1719 71.6309L50.7812 71.2402L50.3906 70.8984L50 70.5078L49.6094 70.166L49.2676 69.8242L48.9746 69.5801H48.8281Z" fill="white"/>
<path d="M72.0703 55.2246H73.1445L74.4629 55.3711L75.7324 55.7129L76.5137 56.0059L77.7344 56.6406L78.2715 56.9824L78.9062 57.4707L79.6387 58.1543L80.2734 58.8379L80.8594 59.668L81.4941 60.8398L81.8359 61.6211L82.2266 62.9883L82.3242 63.4766L82.4219 64.4531V65.625L82.2754 66.9434L81.9336 68.1641L81.7383 68.75L81.3477 69.5312L80.8594 70.459L80.3711 71.1426L79.7852 71.8262L79.248 72.3633L78.7109 72.8027L78.0273 73.291L76.7578 73.9746L76.2207 74.2188L74.9512 74.6094L74.4141 74.7559L72.9492 74.9023H72.2168L70.752 74.7559L69.2383 74.3164L68.5059 74.0234L67.5781 73.5352L66.7969 73.0469L66.2598 72.6074L65.7715 72.168L65.1367 71.5332L64.502 70.7031L64.1113 70.0684L63.5742 69.043L63.2324 68.1152L62.9395 67.0898L62.793 66.0156L62.7441 65.5273V64.5996L62.8906 63.2812L63.2324 62.0117L63.4766 61.2793L64.2578 59.7656L64.7461 59.082L65.0879 58.6426L65.332 58.3496H65.4297L65.5273 58.1543L65.918 57.7637L66.3086 57.4219L67.1875 56.7871L68.5547 56.0547L69.1406 55.8105L70.5078 55.4199L70.9961 55.3223L72.0703 55.2246ZM71.9727 58.2031L71.0449 58.3496L70.0684 58.6426L69.2871 59.0332L68.8477 59.2773L68.2129 59.7656L67.5781 60.3516L67.041 60.9863L66.6504 61.6211L66.2598 62.4023L65.918 63.4277L65.7715 64.2578L65.7227 64.7949L65.7715 65.918L65.918 66.6992L66.3086 67.8711L66.7969 68.7988L67.4316 69.5801L67.9688 70.166L68.7988 70.8008L69.3848 71.1426L70.1172 71.4844L71.2891 71.8262L72.2168 71.9238H72.9004L74.0723 71.7773L75.1953 71.4355L76.3184 70.8496L77.2949 70.0684L77.5879 69.8242L78.0762 69.1895L78.418 68.75L78.9062 67.8223L79.248 66.7969L79.3945 66.0156L79.4434 65.5273V64.5508L79.2969 63.5254L79.0039 62.5488L78.6133 61.7188L78.2227 61.084L77.5391 60.2539L77.002 59.7656L76.2695 59.2285L75.2441 58.6914L74.5117 58.4473L73.9746 58.3008L73.1445 58.2031H71.9727Z" fill="white"/>
<path d="M35.5957 46.8262L36.1328 46.875L36.9141 47.2656L37.5977 47.7051L38.4766 48.0957L39.4531 48.3398L40.2344 48.4375H41.3574L42.2852 48.291L43.2129 48.0469L43.9941 47.7051L44.8242 47.168L45.2637 46.9238L45.8984 46.8262L46.4844 46.9727L46.9727 47.3633L47.2168 47.8027L47.3145 48.4375L47.2168 48.8281L47.0703 49.1211L46.6797 49.5605L45.9473 50.0488L45.2637 50.4395L44.1406 50.9277L43.0176 51.2207L42.2852 51.3672L41.3574 51.4648H40.1367L38.916 51.3184L37.7441 51.0254L36.9629 50.7324L35.9375 50.2441L35.0098 49.6094L34.668 49.3164L34.375 48.8281L34.2773 48.4863L34.3262 47.9492L34.6191 47.3633L35.0098 47.0215L35.4004 46.875L35.5957 46.8262Z" fill="white"/>
<path d="M32.1289 36.8164H32.7148L33.1543 36.9629L33.6426 37.4023L33.8379 37.793L33.9355 38.1836V40.0391L33.7891 40.5762L33.4961 40.9668L33.1543 41.2598L32.7148 41.4062H32.1289L31.7383 41.2598L31.4453 41.0645L31.1523 40.7227L30.957 40.2344L30.9082 39.9414V38.3301L31.0547 37.6465L31.3965 37.207L31.7871 36.9141L32.1289 36.8164Z" fill="white"/>
<path d="M48.8281 36.8164H49.4141L49.8047 36.9629L50.0977 37.1582L50.3906 37.5L50.5859 38.0371L50.6348 38.3789V39.7949L50.5371 40.4297L50.2441 40.918L49.9023 41.2109L49.4141 41.4062H48.8281L48.291 41.2109L47.9004 40.8203L47.7051 40.4297L47.6074 39.9902V38.2324L47.7539 37.6465L47.998 37.2559L48.4863 36.9141L48.8281 36.8164Z" fill="white"/>
<path d="M74.8047 65.918L75.3418 65.9668L75.8301 66.2109L76.0742 66.4551L76.3184 66.7969L76.416 67.1387V67.7246L76.2207 68.2129L75.9277 68.5547L75.4883 68.7988L75.1465 68.8965H74.707L74.1699 68.7012L73.877 68.457L73.584 68.0176L73.4863 67.7246V67.0898L73.6816 66.6016L73.9258 66.3086L74.2676 66.0645L74.8047 65.918Z" fill="white"/>
<path d="M70.166 61.1816L70.7031 61.2793L71.0938 61.4746L71.4844 61.9141L71.6797 62.3535V63.0371L71.4355 63.5254L71.1426 63.8672L70.6543 64.1113L70.166 64.209L69.6289 64.0625L69.1895 63.7695L68.8965 63.3789L68.75 62.9883V62.4023L68.9453 61.8652L69.1406 61.6211L69.5801 61.3281L70.166 61.1816Z" fill="white"/>
</svg>
