<svg width="512" height="512" viewBox="0 0 512 512" fill="none" xmlns="http://www.w3.org/2000/svg">
<path d="M254.25 0H261.75L268 1L273.75 2.5L277.5 4L282.75 6.75L286 9L289.25 11.75L292 14L295 17.5L297.5 20.75L300 24.75L302.25 29.5L304 34.75L305 39.25L305.5 43.5L305.75 56.75L308.25 57.25L316.5 60L325.5 63.75L331.25 66.25L339 70.25L344.75 73.5L348.5 75.75L352.75 78.75L358 82.25L361.25 84.75L364.5 87.5L367 89.5L370.25 92.25L373 94.5L382.25 103.75L384 105.75L387.25 109.5L390 113L393 116.5L396 120.75L402 129.75L404.25 133.5L407.75 140L410.75 145.5L414 153L417.5 161.5L420.25 169.75L422.5 178L424.75 188.5L426 196.75L426.75 203.75L427 207.5V412.25L426 416.25L424.25 420.25L422 423.25L420.25 425.25L416.5 428L410.75 431L404.5 433.75L396.25 437L386 440.5L375 443.75L362.75 446.75L352 449L342.5 450.75L329.25 452.75L316.75 454.25L307.25 455.25L305.75 455.5L305.5 469L304.5 475.5L302.75 481.5L300.75 486L298.5 490L296.5 492.75L293.75 496L291.5 498.5L288.75 501L286.25 503L283 505.25L280.5 506.75L275.5 509L269 511L263.75 512H252.5L243.5 509.75L239 508L233.75 505.25L229.75 502.25L224.5 497.75L222.25 495L219.75 492L217.5 488.5L215.5 484.5L213.5 479.75L212 473.75L211.5 470.75L211.25 467.75V454.5L201.5 453.5L187 451.25L179.5 450L167.25 447.5L157.25 445.25L140.75 441L120.5 434.75L105.25 429.25L100.5 427.25L98 425.5L96.25 424L94.5 422L92.5 419.5L90.5 415.25L89.5 411.25L89.25 407.5V211L90 201L91.25 191.75L93 182.75L94.75 175.5L96.5 169.25L99.5 160.5L103.25 151.5L106.25 144.75L110.25 137.25L111.75 134.75L113.25 131.75L115.25 128.75L120.5 121L122.5 118L125.25 114.75L127 112.5L129.75 109.25L131.75 106.75L134 104.25L145.25 93L148 90.75L151.25 88L154.75 85.25L157.5 83L163.5 79L167 76.5L171.5 73.75L178.25 70L184.75 66.5L197.5 61L201.25 59.5L209 57L210.75 56.5L211 54.25L211.25 44L211.75 39.75L213 34L215 28.5L217 24.5L219.5 20.5L222.25 17.25L224.5 14.5L226.75 12.25L230.25 9.5L233.25 7.25L237.25 5L241 3.25L247.5 1.25L254.25 0ZM255.75 24L251 25L247 26.75L244.5 28.25L242 30.25L240.25 31.75L237.75 35L235.75 38.5L234.5 41.75L233.5 46.75L233.25 51.5H235.5L245 50.5L256 50L257.5 49.75H259.75L261.25 50L268 50.25L277 51L281.5 51.5H283.25V46L282.25 41.5L281 38.25L278.75 34.25L275.75 31L273.5 29L270 26.75L265.75 25L262.5 24.25L259.25 24H255.75ZM251.75 76.75L243.25 77.5L233.5 78.75L223 81L217.5 82.5L206.75 86L200.25 88.75L191.5 92.75L185.25 96.25L179.75 99.5L175.75 102.25L171.5 105.25L167.5 108.25L163.75 111.5L160.25 114.5L157.75 116.75L156.75 117.5V118H156.25L154.5 120L150.75 123.75V124.25H150.25L148.5 126.25L146.5 128.5L144.75 130.75L142 134.25L138.75 138.5L134.5 145L131.5 149.75L128 156.25L124.5 163.25L120.25 174L118.5 179.25L115.5 190L113.75 199.25L112.75 205.25L112 212.75L111.75 216.75V408L131.25 414.75L143.5 418.5L150.5 420.5L166.75 424.5L182.75 427.75L193 429.5L206.75 431.5L221 433L234 434L243 434.5L257.25 434.75H266L278.75 434.5L294.25 433.75L305 433L317.75 431.75L329.75 430.25L340.75 428.5L352.75 426.25L364.5 423.5L375.25 420.5L386 417L394.5 413.75L403.5 409.75L405 409V214.75L404 205.25L402.75 196.5L400 184.5L396.5 173.75L394.5 168.25L389.75 157.75L386.5 151.75L383 145.75L380 141.25L376.5 136.25L374.25 133.25L372 130.5L369.75 128L367.5 125.25L364.5 122L359.25 116.75L357.25 115L355.5 113.25L352 110.5L349 108L345.5 105.25L340.75 102L335.75 98.75L330.5 95.5L323.5 92L319.25 89.75L310.5 86.25L306 84.5L293.75 81L286.75 79.5L276.5 77.75L269.25 77L265.25 76.75H251.75ZM233.5 460.75V465.25L234.25 469.5L235.5 473.25L237.5 477L239.5 479.5L241.5 481.75L245.25 484.5L249.25 486.5L252 487.5L254.5 488L257 488.25H260.75L265.5 487.25L269.5 485.75L272.75 483.75L275.5 481.5L277.25 479.75L279.75 476.5L281.75 472.5L283 468L283.5 462.5V461L283.25 460.75H233.5Z" fill="#EC943C"/>
</svg>
