<svg width="90" height="90" viewBox="0 0 90 90" fill="none" xmlns="http://www.w3.org/2000/svg">
<g clip-path="url(#clip0_1_880)">
<circle cx="45" cy="45" r="43" stroke="white" stroke-width="4"/>
<g clip-path="url(#clip1_1_880)">
<path d="M29.4282 61.7225L28.7417 60.5334L28.7629 60.4997L28.5633 59.9079L28.4843 59.525L28.4113 59.1173L28.3706 58.5194L28.3703 58.0268L28.3757 57.0167L28.3788 56.565L28.3786 56.0724L28.3823 55.7274L28.3901 54.1588L28.3963 53.2554L28.396 52.7628L28.4017 52.2453L28.4015 51.7527L28.4093 50.1841L28.4147 49.174L28.4225 47.6055L28.4282 47.088L28.4253 46.6612L28.431 46.1437L28.4308 45.651L28.4364 45.1336L28.4362 44.6409L28.4416 43.6308L28.4471 42.6207L28.4548 41.0522L28.4603 40.042L28.474 37.0775L28.4801 36.1741L28.4799 35.6814L28.4856 35.1639L28.4879 34.6055L28.4877 34.1129L28.4934 33.5954L28.4924 32.9961L28.4988 32.5853L28.5119 32.2564L28.5342 31.9435L28.5692 31.6877L28.6253 31.3982L28.6755 31.1335L28.7323 30.9507L28.8612 30.5763L28.9697 30.3423L29.1205 30.041L29.3593 29.646L29.6471 29.2656L29.9475 28.9422L30.3638 28.5733L30.7867 28.2863L30.9998 28.1633L31.4903 27.9229L32.088 27.7278L32.6375 27.6248L32.9857 27.5952L33.3035 27.5831L33.6153 27.5959L33.9365 27.6247L34.1874 27.6727L34.5119 27.7424L34.8794 27.8516L35.0602 27.9187L35.3575 28.0469L35.7317 28.238L36.1827 28.4918L36.7012 28.7923L37.0939 29.0155L37.5204 29.2621L38.0052 29.5392L38.5238 29.8397L38.9165 30.0629L39.4013 30.3401L39.7695 30.556L40.1622 30.7792L40.5887 31.0257L40.9815 31.2489L41.8345 31.742L42.2272 31.9652L42.6537 32.2117L43.0464 32.4349L43.3226 32.5968L43.7153 32.82L44.2339 33.1205L44.6266 33.3437L45.4796 33.8368L45.8723 34.06L46.2988 34.3065L46.6916 34.5297L46.9677 34.6916L47.3604 34.9148L47.879 35.2153L48.2717 35.4385L49.1247 35.9316L49.5175 36.1548L49.944 36.4013L50.3367 36.6245L50.6129 36.7864L51.0056 37.0096L51.9506 37.5567L52.2791 37.7741L52.4699 37.9639L52.5501 38.0676L52.6985 38.3247L52.792 38.5921L52.8339 38.9107L52.8294 39.149L52.758 39.4473L52.6707 39.6476L52.5073 39.892L52.3161 40.0881L52.0116 40.2639L51.7555 40.3475L51.4469 40.3756L51.2298 40.351L50.9695 40.287L50.6629 40.1427L50.2947 39.9268L49.902 39.7036L49.3834 39.4031L48.8986 39.1259L48.4721 38.8794L48.0794 38.6562L47.5946 38.379L47.0761 38.0785L46.5913 37.8013L45.7383 37.3083L45.4959 37.1697L44.1919 36.4228L43.6733 36.1223L43.2806 35.8991L42.762 35.5986L42.3693 35.3754L41.9428 35.1289L41.458 34.8517L41.0315 34.6052L40.5468 34.328L40.1203 34.0815L39.6355 33.8043L39.1169 33.5038L38.7242 33.2806L38.2977 33.0341L37.905 32.8109L37.6288 32.6489L37.2361 32.4257L36.8096 32.1792L36.3248 31.902L35.8062 31.6015L35.3215 31.3244L34.8029 31.0239L34.4194 30.8167L34.1221 30.6885L33.8923 30.6069L33.6017 30.5604L33.409 30.5431L33.0303 30.5904L32.835 30.6388L32.3962 30.8279L31.9766 31.1559L31.7523 31.4354L31.6041 31.6709L31.4659 32.0292L31.4157 32.2938L31.3841 32.5906L31.3784 33.1081L31.3787 33.6007L31.3725 34.5041L31.3721 34.8901L31.3588 37.4687L31.3487 39.5957L31.3432 40.6058L31.3277 43.7428L31.3175 45.8698L31.3097 47.4383L31.3043 48.4484L31.2941 50.5754L31.2863 52.1439L31.2774 53.9917L31.2618 57.1287L31.2563 58.1388L31.2599 58.6724L31.2866 58.9998L31.3589 59.3009L31.4491 59.5273L31.7088 59.9773L31.9553 60.2635L32.152 60.4284L32.4222 60.6152L32.6705 60.7289L32.9493 60.8251L33.2003 60.873L33.4327 60.8888L33.7107 60.8783L34.0007 60.818L34.3025 60.708L57.1981 47.4892L57.4747 47.2653L57.6355 47.0867L57.787 46.8921L57.9378 46.5908L58.0218 46.3495L58.0727 46.1916L58.1102 45.8699L58.1114 45.5907L58.0788 45.2882L57.9972 44.971L57.9163 44.7606L57.7215 44.4232L57.4936 44.1691L57.1863 43.918L56.7565 43.6306L56.575 43.4568L56.5041 43.3692L56.3093 43.0318L56.2158 42.7644L56.1798 42.4209L56.2115 42.1241L56.2861 41.8667L56.4098 41.6239L56.5613 41.4293L56.6798 41.3181L56.8684 41.1878L57.161 41.0617L57.4205 41.019L57.6833 41.0172L57.9098 41.0579L58.0813 41.1088L58.3727 41.262L58.9038 41.6195L59.4265 42.0676L59.7928 42.456L60.0392 42.7423L60.633 43.7707L60.6211 43.8204L60.7676 44.25L60.893 44.7132L60.9727 45.2028L60.9993 45.5303L61.0141 45.9074L60.9951 46.2612L60.9456 46.6325L60.9014 46.8723L60.7765 47.3943L60.6655 47.6941L60.5603 47.9691L60.3613 48.3625L60.2071 48.6229L59.9709 48.9521L59.6434 49.334L59.288 49.6678L58.981 49.9093L58.8076 50.0309L57.873 50.5919L35.775 63.3287L35.3911 63.5075L34.7781 63.7114L34.1188 63.835L33.4435 63.8607L33.0979 63.8245L32.792 63.7869L32.5562 63.7302L32.3695 63.688L32.1338 63.6313L31.9285 63.557L31.4504 63.3617L30.849 63.0232L30.4344 62.727L30.1516 62.4832L29.8224 62.1591L29.5236 61.8174L29.4282 61.7225Z" fill="white"/>
</g>
</g>
<defs>
<clipPath id="clip0_1_880">
<rect width="90" height="90" fill="white"/>
</clipPath>
<clipPath id="clip1_1_880">
<rect width="38" height="36" fill="white" transform="translate(33 67.909) rotate(-120)"/>
</clipPath>
</defs>
</svg>
