<svg width="83" height="83" viewBox="0 0 83 83" fill="none" xmlns="http://www.w3.org/2000/svg">
<rect width="83" height="83" rx="41.5" fill="white"/>
<path d="M41.5 70.4227H42.0294C42.261 70.4227 42.3823 70.4227 42.6029 70.3896C42.7463 70.3896 42.9558 70.3565 43.1102 70.3565C43.2757 70.3345 43.4632 70.3344 43.6506 70.3124C43.8381 70.3124 44.0256 70.2793 44.158 70.2572C44.3785 70.2572 44.544 70.2131 44.7094 70.169C44.8748 70.169 45.0513 70.1028 45.2277 70.0918C45.3711 70.0698 45.5696 70.0256 45.702 69.9705C45.8895 69.9595 46.099 69.9595 46.2203 69.8823C46.4078 69.8602 46.5622 69.772 46.7277 69.772C46.9041 69.7058 47.0695 69.6727 47.246 69.6176C47.4225 69.5955 47.621 69.5183 47.7202 69.4742C47.9298 69.408 48.0952 69.3419 48.2386 69.3198C48.3709 69.2757 48.5143 69.1654 48.7128 69.1544C48.8783 69.0992 49.0657 69.011 49.176 68.9669C49.3856 68.9007 49.5289 68.8125 49.6833 68.7353C49.8598 68.6581 50.0142 68.614 50.1576 68.5809C50.334 68.4927 50.4664 68.3824 50.6208 68.3272C50.7752 68.3052 50.8965 68.1618 51.095 68.0846C51.2494 68.0405 51.3597 67.9633 51.5141 67.8309C51.7016 67.8089 51.856 67.7427 51.9663 67.5993C52.1097 67.5442 52.2861 67.4339 52.3854 67.3236C52.5729 67.2574 52.7162 67.2243 52.8155 67.092C53.003 66.9707 53.1905 66.9156 53.3008 66.8053C53.4552 66.695 53.5103 66.6178 53.7199 66.4854C53.8191 66.4303 53.9956 66.2869 54.0838 66.2318C54.2492 66.0994 54.3705 66.0002 54.4588 65.9119C54.6683 65.7796 54.7896 65.7134 54.9109 65.5811C55.0102 65.4928 55.1536 65.3605 55.2859 65.2612C55.4734 65.151 55.5506 65.0517 55.6719 64.9193C55.7933 64.8311 55.8815 64.6988 56.069 64.5664C56.1682 64.4562 56.3226 64.3017 56.3778 64.2025C56.5211 64.1473 56.6535 64.004 56.7748 63.8275C56.9072 63.7283 57.0064 63.618 57.1277 63.4856C57.2049 63.3643 57.3262 63.243 57.4806 63.0886C57.5468 62.9562 57.6792 62.846 57.7453 62.7026C57.8887 62.6364 57.999 62.4599 58.0762 62.3166C58.1754 62.1842 58.3078 62.0629 58.4181 61.9306C58.5063 61.7541 58.6387 61.6438 58.7269 61.5446C58.7931 61.3681 58.9033 61.2468 58.9805 61.0924C59.0908 60.96 59.2011 60.7946 59.2563 60.6402C59.3886 60.5299 59.4327 60.3866 59.5651 60.2211C59.5982 60.1108 59.7195 59.9344 59.8077 59.791C59.918 59.6476 60.0062 59.4712 60.0724 59.3609C60.1496 59.1403 60.2047 59.0521 60.2709 58.8866C60.3371 58.7433 60.4584 58.5778 60.5025 58.3793C60.5907 58.2911 60.701 58.1257 60.7672 57.9602C60.8003 57.8058 60.8554 57.6735 60.9547 57.475C61.0209 57.3095 61.0981 57.1882 61.1311 57.0338C61.1863 56.8463 61.2635 56.6699 61.3517 56.5375C61.4179 56.35 61.462 56.2067 61.5172 56.0633C61.5613 55.8537 61.6274 55.6993 61.6936 55.5449C61.7157 55.3575 61.7929 55.181 61.8149 54.9935C61.848 54.8391 61.8811 54.7288 61.9693 54.4972C62.0134 54.3538 62.0134 54.2105 62.0686 54.012C62.1568 53.8465 62.1568 53.659 62.212 53.5267C62.212 53.3171 62.234 53.1848 62.2781 52.9973C62.3443 52.8209 62.3553 52.6334 62.3553 52.479C62.4105 52.2804 62.4105 52.115 62.4325 51.9496C62.4436 51.8062 62.4656 51.6408 62.5208 51.4312C62.5208 51.2327 62.5208 51.0673 62.5318 50.9019C62.5428 50.6923 62.598 50.5048 62.598 50.3614V49.8321V49.2476V48.8836V48.5307V48.1006C62.598 48.0123 62.5539 47.891 62.5539 47.7697C62.5539 47.6484 62.5428 47.516 62.5318 47.3727V47.0087C62.4877 46.8984 62.4767 46.7551 62.4546 46.6448C62.4436 46.4793 62.4215 46.3691 62.4215 46.2698C62.4215 46.1375 62.4215 46.0161 62.3664 45.9169C62.3664 45.7845 62.3664 45.6412 62.3553 45.5529C62.2892 45.3765 62.245 45.2993 62.245 45.1559C62.223 45.0346 62.223 44.9353 62.212 44.7589C62.1678 44.6375 62.1678 44.5604 62.1017 44.417C62.0796 44.3177 62.0576 44.1854 62.0134 44.042C62.0134 43.9207 61.9914 43.7994 61.9032 43.7001C61.8811 43.5788 61.859 43.4685 61.848 43.3362C61.8149 43.2369 61.7818 43.1046 61.7046 42.9832C61.7046 42.9171 61.6826 42.7627 61.6385 42.6634C61.5943 42.5531 61.5613 42.4097 61.5172 42.2774C61.5172 42.2112 61.473 42.0568 61.462 41.9576C61.3738 41.8142 61.3517 41.6598 61.2966 41.5936C61.2635 41.4944 61.1863 41.3731 61.1422 41.2407C61.1311 41.1304 61.0981 40.9981 61.0098 40.9209C60.9657 40.8326 60.9437 40.6562 60.8885 40.601C60.8554 40.4908 60.7782 40.4025 60.7672 40.204C60.7672 40.1268 60.6459 40.0165 60.6238 39.9283C60.5907 39.807 60.5025 39.6967 60.4804 39.5643C60.4032 39.4761 60.3481 39.3879 60.2709 39.2555C60.2378 39.1342 60.1827 39.057 60.1496 38.9578C60.0944 38.8144 60.0062 38.682 59.9952 38.6269C59.918 38.5276 59.8187 38.4063 59.7967 38.3181C59.7415 38.1968 59.6754 38.0644 59.5871 37.9431C59.554 37.8769 59.4989 37.7887 59.4107 37.6453C59.3886 37.5792 59.2894 37.4909 59.2342 37.3586C59.2232 37.2704 59.1019 37.1491 59.0578 37.0498C58.9585 36.9616 58.9254 36.8733 58.8482 36.7961C58.771 36.6638 58.7048 36.5535 58.6828 36.4542C58.6276 36.355 58.4953 36.2557 58.4622 36.1344C58.4071 36.0903 58.2968 35.969 58.2747 35.8808C58.1534 35.7925 58.1313 35.6712 58.021 35.5719C57.988 35.5058 57.8777 35.3955 57.8225 35.2962C57.7233 35.2411 57.6902 35.1418 57.5909 35.0205C57.5248 34.9213 57.4586 34.822 57.3483 34.7448C57.3152 34.6455 57.227 34.5794 57.1498 34.4801C57.0616 34.3919 57.0064 34.2485 56.9182 34.2044C56.863 34.1162 56.7527 34.0059 56.6645 33.9287C56.6094 33.8625 56.4991 33.7963 56.455 33.7081C56.3447 33.5758 56.3006 33.4986 56.1682 33.4213C56.1241 33.3441 56.0028 33.278 55.9146 33.1567C55.8594 33.0795 55.7822 32.9802 55.694 32.9361C55.6168 32.8699 55.5065 32.7817 55.4844 32.6824C55.33 32.5942 55.2749 32.528 55.1867 32.4288C55.1205 32.3847 54.9771 32.2744 54.8999 32.2082C54.8338 32.0979 54.7345 32.0538 54.6573 31.9986C54.536 31.8884 54.4477 31.8442 54.3595 31.767C54.2823 31.6457 54.2051 31.6237 54.0728 31.5024C54.0287 31.4803 53.9184 31.4252 53.7971 31.3369C53.6978 31.2487 53.6647 31.1825 53.4993 31.1384C53.4441 31.0612 53.3339 30.973 53.2897 30.9289C53.1794 30.8517 53.0692 30.7524 52.9258 30.7083C52.8817 30.6642 52.7162 30.5759 52.6942 30.5318C52.5508 30.4657 52.4957 30.3995 52.3633 30.3443C52.2751 30.2671 52.1648 30.1899 52.0545 30.1348C51.9553 30.1017 51.867 30.0355 51.8119 29.9694H51.7347C51.6906 29.9363 51.6685 29.9363 51.6354 29.8922L51.5803 29.8811C51.5362 29.8591 51.4921 29.826 51.4921 29.7598C51.4369 29.7598 51.4369 29.7488 51.3597 29.6936C51.3377 29.6936 51.3377 29.6936 51.3046 29.6936C51.2935 29.6716 51.2715 29.6495 51.2494 29.5834C51.1943 29.5834 51.1722 29.5834 51.1391 29.5613C51.095 29.5282 51.095 29.4841 51.073 29.4731C51.0178 29.451 50.9847 29.451 50.9406 29.4069C50.8855 29.4069 50.8193 29.3628 50.7972 29.3518C50.7972 29.3518 50.7531 29.3297 50.698 29.3297C50.6649 29.2966 50.6428 29.2084 50.5987 29.2084C50.5546 29.1532 50.5215 29.1422 50.4995 29.1202C50.4774 29.1202 50.4223 29.0981 50.4002 29.054C50.3451 28.9988 50.334 28.9988 50.2568 28.9878C50.2127 28.9657 50.1907 28.9327 50.1907 28.9327C50.1024 28.8996 50.1024 28.8665 50.0032 28.8444C49.9921 28.8444 49.9591 28.7783 49.937 28.7783C49.9039 28.7231 49.8488 28.7121 49.7936 28.6569C49.7605 28.6569 49.7275 28.6459 49.6613 28.6239C49.6061 28.6239 49.6061 28.5908 49.562 28.5246C49.4959 28.5246 49.4628 28.5136 49.4076 28.5136C49.3745 28.4695 49.3635 28.4364 49.2643 28.4364C49.2091 28.4033 49.1981 28.4033 49.154 28.3592C49.1209 28.3261 49.0878 28.3261 49.0437 28.3261C48.9885 28.3261 48.9224 28.304 48.9113 28.2709C48.8672 28.2489 48.8452 28.2489 48.779 28.1937C48.7128 28.1937 48.6908 28.1607 48.6246 28.1607C48.5915 28.1496 48.5143 28.1496 48.5143 28.1496C48.4592 28.1496 48.415 28.1055 48.415 28.1055C48.3378 28.1055 48.2827 28.0945 48.2496 28.0945C48.2165 28.0724 48.1834 28.0724 48.1283 28.0724H48.029H47.9518H47.7754H47.7313C47.6541 28.0945 47.643 28.0945 47.5769 28.0945C47.5327 28.1055 47.5217 28.1055 47.4776 28.1607C47.4335 28.1607 47.3783 28.1607 47.3563 28.1717C47.3453 28.1717 47.2681 28.2048 47.2681 28.2268C47.2129 28.2489 47.1909 28.2709 47.1026 28.304C47.0916 28.3261 47.0475 28.3261 47.0144 28.3261C46.9923 28.3592 46.9151 28.4033 46.882 28.4364C46.882 28.4364 46.849 28.5136 46.8159 28.5246C46.7387 28.5246 46.7276 28.5908 46.7166 28.6239C46.6835 28.6569 46.6615 28.7231 46.6615 28.7231C46.5732 28.7893 46.5732 28.8555 46.5402 28.8665C46.485 28.8996 46.463 28.9657 46.4078 28.9988L46.3196 29.1422C46.3086 29.2084 46.2865 29.3076 46.2755 29.3407C46.2424 29.3628 46.2203 29.4179 46.2203 29.4841C46.1652 29.5723 46.1211 29.6054 46.1211 29.6826C46.11 29.7157 46.088 29.7819 46.088 29.9032C46.088 29.9914 46.0328 30.0135 45.9998 30.1127C45.9998 30.1458 45.9998 30.2782 45.9887 30.3554C45.9446 30.4105 45.9226 30.4767 45.9226 30.587C45.8784 30.6752 45.8564 30.7524 45.8564 30.8627V31.1384C45.8123 31.2156 45.8123 31.3369 45.8123 31.4252C45.7792 31.4913 45.7792 31.6568 45.7792 31.734C45.7571 31.8773 45.7571 31.9656 45.7571 32.0648C45.7461 32.1861 45.7461 32.2964 45.7461 32.4288V32.7927V32.9912V33.3V33.5978V33.9066V34.2264V34.6014V34.9433V35.3293V35.8036V36.2226V36.6748V37.0939V37.5902V38.0755V38.6269V39.1122V39.6967V40.215V40.7996V41.3951V41.9686V42.5642C45.7461 42.7737 45.713 42.9722 45.713 43.1818V43.8214V44.3839V45.0566V45.6853V46.3139V46.9315V47.6043V48.255V48.9057V49.5233V50.174V50.8026V51.4533V52.0488V52.6444V53.2951V53.9127V54.5082V55.1148V55.7324V56.3059V56.8684V57.4309V57.9823V58.5006V59.03V59.5043V60.0005V60.4858V60.96V61.3902V61.7762V62.1953V62.5923V62.9562V63.265C45.6799 63.3864 45.6799 63.5077 45.6799 63.6069V63.8496V64.1694V64.3348V64.5995V64.6436V64.6988V64.787C45.6468 64.787 45.6468 64.8091 45.6468 64.8532L45.6248 64.8752V64.9414C45.6248 64.9966 45.6137 65.0076 45.6137 65.0076L45.5586 65.0738V65.1289C45.5586 65.1289 45.5145 65.173 45.4594 65.2282L45.4483 65.2392C45.4483 65.2833 45.4152 65.2833 45.4152 65.2833C45.4152 65.3164 45.3491 65.3164 45.3491 65.3826C45.2939 65.3826 45.2829 65.4377 45.2829 65.4377C45.2498 65.4377 45.2498 65.4928 45.2167 65.5149C45.2057 65.559 45.1395 65.57 45.1395 65.57C45.1064 65.57 45.1064 65.57 45.0733 65.6031C45.0733 65.6031 45.0733 65.6472 45.0403 65.6583C44.9851 65.6583 44.952 65.7355 44.952 65.7355H44.8969C44.8528 65.7796 44.7756 65.7796 44.7756 65.7796C44.7756 65.7796 44.7535 65.8017 44.7204 65.8127C44.6873 65.9009 44.6763 65.9009 44.6101 65.9009C44.6101 65.9009 44.577 65.934 44.566 65.934C44.566 65.934 44.5109 65.934 44.4447 65.9891C44.4447 65.9891 44.4447 66.0222 44.4116 66.0333H44.3454C44.2572 66.0884 44.2572 66.1105 44.191 66.1105L44.158 66.1325C44.0697 66.1766 44.0697 66.1766 44.0366 66.1766C44.0366 66.1766 44.0036 66.2428 43.9815 66.2428C43.9484 66.2538 43.8822 66.2649 43.8602 66.2649C43.8492 66.2869 43.8271 66.2869 43.794 66.2869L43.7058 66.2979C43.6948 66.32 43.6617 66.32 43.6065 66.32C43.5845 66.331 43.5514 66.331 43.5183 66.3531C43.5183 66.3531 43.4852 66.3531 43.408 66.3751C43.3418 66.3751 43.3418 66.4523 43.2977 66.4523L43.2315 66.4634C43.2315 66.4634 43.1874 66.4965 43.1323 66.5075H43.0992C43.0992 66.5075 43.0661 66.5075 43.033 66.5626H42.9669H42.8235L42.7573 66.5957C42.7242 66.5957 42.7132 66.5957 42.6911 66.6398C42.6581 66.6398 42.6029 66.6509 42.6029 66.6509H42.5367L42.4375 66.706H42.3603H42.261H42.1397C42.1397 66.706 42.1066 66.717 42.0846 66.717C42.0294 66.717 42.0294 66.717 42.0074 66.7832H41.9191H41.875H41.7868C41.7868 66.7832 41.7647 66.7832 41.7206 66.8053H41.6765H41.5883H41.5552H41.5H41.467H41.4228H41.3456H41.2795H41.2243C41.1692 66.8053 41.1471 66.8053 41.103 66.7832H41.0589H40.9817H40.8935C40.8935 66.7832 40.8824 66.7832 40.8493 66.717H40.7832C40.7501 66.706 40.7501 66.706 40.706 66.706H40.5957H40.5075C40.5075 66.706 40.4303 66.706 40.3861 66.6509H40.3089H40.2759C40.2097 66.6398 40.1656 66.5957 40.1656 66.5957C40.1435 66.5957 40.1104 66.5957 40.0994 66.5626H39.967H39.9229C39.8016 66.5626 39.8016 66.5075 39.7685 66.5075H39.6913C39.6141 66.5075 39.6141 66.4965 39.6031 66.4634H39.5149C39.4597 66.4523 39.4377 66.4523 39.4266 66.3751C39.3936 66.3751 39.3936 66.3531 39.3164 66.3531C39.3164 66.3531 39.3053 66.331 39.2281 66.331C39.2171 66.32 39.173 66.32 39.1289 66.32C39.0848 66.2979 39.0517 66.2979 39.0406 66.2869H38.9304C38.9193 66.2649 38.9193 66.2649 38.8642 66.2538C38.8531 66.2428 38.787 66.2428 38.7759 66.1766H38.7098C38.6877 66.1325 38.6215 66.1325 38.6215 66.1105C38.5443 66.1105 38.5443 66.1105 38.5002 66.0884C38.4782 66.0333 38.423 66.0333 38.423 66.0333C38.423 66.0333 38.412 66.0332 38.3458 65.9891C38.3017 65.9891 38.3017 65.934 38.2576 65.934H38.1694C38.1363 65.9009 38.1363 65.9009 38.0922 65.9009C38.0922 65.8127 38.037 65.8016 38.037 65.8016C38.0039 65.7796 37.9819 65.7796 37.9819 65.7796C37.9488 65.7465 37.9157 65.7465 37.9157 65.7465C37.8606 65.7355 37.8606 65.7355 37.8385 65.6693C37.8385 65.6693 37.7944 65.6693 37.7503 65.6583C37.7282 65.6252 37.7062 65.6142 37.6951 65.5921H37.6179C37.5628 65.5811 37.5628 65.537 37.5628 65.4598H37.4966C37.4746 65.4046 37.4525 65.4046 37.4525 65.4046C37.3863 65.4046 37.3863 65.3826 37.3643 65.3384L37.3422 65.3054C37.3422 65.3054 37.3091 65.2612 37.276 65.2612C37.276 65.2612 37.2099 65.2502 37.2099 65.1951L37.1768 65.151V65.0958C37.1658 65.0296 37.1437 65.0296 37.1437 65.0296V64.9855C37.1437 64.9855 37.1216 64.9635 37.1216 64.8752H37.0665C37.0224 64.8311 37.0224 64.8091 37.0224 64.8091C37.0114 64.7429 37.0114 64.7429 37.0114 64.7429V64.6657V64.6216V64.3569V64.1915V63.9268V63.5849V63.2871V62.9452V62.6364V62.2504V61.8644V61.4563V60.9711V60.541V60.0447V59.6256V59.0631V58.5117V58.0154V57.4309V56.8463V56.3059V55.7324V55.1369V54.5413V53.8796V53.2841V52.6775V52.0158V51.4423V50.7585V50.1409V49.5012V48.8615V48.2108V47.5602V46.9315V46.2808V45.6522V45.0236V44.3508V43.7883V43.1487V42.52V41.9245V41.3289V40.7334V40.1599V39.6415V39.0129V38.5166V38.0203V37.5571V37.0277V36.5645V36.1124V35.6933V35.2631V34.8661V34.5242V34.1713V33.8404V33.5096V33.2559V32.9471V32.7486V32.3736C37.0114 32.2523 37.0114 32.131 37.0114 31.9876V31.6788C37.0114 31.5575 37.0003 31.4582 37.0003 31.3369C37.0003 31.2377 37.0003 31.1163 36.9562 31.0281V30.6973C36.9011 30.6201 36.9011 30.5318 36.8459 30.4326C36.8239 30.3664 36.8239 30.2782 36.8239 30.201C36.7908 30.1017 36.7908 30.0686 36.7798 29.9583C36.7687 29.9142 36.7687 29.826 36.7136 29.7267C36.6695 29.6606 36.6695 29.5613 36.6474 29.5282C36.6143 29.44 36.6143 29.3738 36.6143 29.3187C36.5812 29.2966 36.5702 29.2084 36.5702 29.1202C36.482 29.076 36.4709 29.0209 36.4489 28.9658C36.4489 28.9327 36.4379 28.8775 36.3937 28.8334C36.3717 28.8113 36.3386 28.7562 36.3055 28.69C36.2945 28.6349 36.2945 28.5908 36.1952 28.5577C36.1842 28.4915 36.1401 28.4805 36.107 28.4474C36.0849 28.4143 36.0408 28.3812 36.0077 28.3261C35.9967 28.293 35.9526 28.293 35.9416 28.2709C35.8533 28.2268 35.8203 28.1607 35.8203 28.1386C35.7761 28.1276 35.7431 28.1276 35.6989 28.0835C35.6438 28.0724 35.6438 28.0393 35.6217 28.0393C35.5335 28.0283 35.5114 28.0283 35.4673 28.0283C35.4673 28.0283 35.4122 27.9511 35.3681 27.9511C35.3681 27.9511 35.3019 27.9291 35.2468 27.9291C35.2357 27.9291 35.1806 27.9291 35.1365 27.8408H35.0482H34.949H34.7836C34.7505 27.8408 34.6953 27.8408 34.6512 27.9291H34.6071C34.563 27.9291 34.563 27.9511 34.4527 27.9511C34.4527 27.9511 34.4306 27.9511 34.3314 28.0283H34.2211C34.2211 28.0283 34.1549 28.0393 34.0887 28.0393C34.0557 28.0614 34.0557 28.0835 33.9674 28.1276C33.9233 28.1276 33.8682 28.1276 33.8461 28.1386C33.813 28.1717 33.7799 28.1937 33.7358 28.2268C33.6917 28.2489 33.6807 28.2709 33.6145 28.304C33.5483 28.304 33.5153 28.304 33.4601 28.3371C33.405 28.3923 33.3719 28.4143 33.3278 28.4143C33.3057 28.4474 33.2616 28.4915 33.1954 28.5025C33.1513 28.5025 33.1292 28.5025 33.1072 28.5687C33.019 28.6018 33.019 28.6239 32.9638 28.6349C32.9638 28.6349 32.8866 28.69 32.8425 28.7011C32.8425 28.7562 32.8204 28.8224 32.6881 28.8224C32.633 28.8224 32.633 28.8775 32.5999 28.8775C32.5558 28.9106 32.5227 28.9437 32.4675 28.9658C32.4675 28.9658 32.3903 28.9768 32.3793 29.0319C32.3462 29.065 32.3021 29.0981 32.269 29.1202C32.2359 29.1422 32.1808 29.1863 32.1367 29.1863C32.1256 29.2194 32.0925 29.3076 32.0264 29.3076C32.0153 29.3297 31.9381 29.3297 31.9051 29.3407C31.872 29.3848 31.8609 29.3848 31.8058 29.4179C31.7617 29.4179 31.7617 29.44 31.7617 29.5062C31.6955 29.5392 31.6735 29.5392 31.6293 29.5613C31.6293 29.5613 31.5742 29.6164 31.5521 29.6385C31.5191 29.6385 31.4749 29.6606 31.4749 29.6606C31.4749 29.6606 31.3977 29.7267 31.3426 29.7378C31.3426 29.7378 31.3095 29.7378 31.3095 29.837C31.2654 29.8591 31.2213 29.8591 31.2213 29.8591C31.1772 29.8701 31.1551 29.9142 31.111 29.9142L31.1 29.9473C30.9897 29.9694 30.8794 30.0686 30.7801 30.0686C30.7029 30.1569 30.5926 30.2341 30.4713 30.3113C30.4162 30.3554 30.3059 30.4326 30.1736 30.4326C30.0743 30.5318 30.0081 30.6201 29.9309 30.6642C29.7875 30.6973 29.7324 30.8186 29.6001 30.8847C29.5229 30.9289 29.4126 30.984 29.3023 31.0943C29.2471 31.1384 29.1258 31.2046 29.0597 31.2928C28.9494 31.3369 28.8391 31.3921 28.7398 31.4362C28.6406 31.5796 28.5634 31.6016 28.5192 31.6788C28.3648 31.7891 28.2546 31.8442 28.1994 31.9104C28.1332 32.0097 28.023 32.0648 27.8906 32.153C27.8465 32.2302 27.7252 32.3074 27.67 32.3736C27.5377 32.4949 27.4936 32.5391 27.3833 32.6493C27.3171 32.6935 27.2399 32.7596 27.1627 32.903C27.0635 32.9471 26.9863 33.0464 26.9201 33.1236C26.8098 33.2559 26.7105 33.278 26.6664 33.3883C26.5782 33.4655 26.4789 33.5427 26.4238 33.653C26.3245 33.7191 26.2473 33.8294 26.1591 33.8956C26.126 33.9728 25.9496 34.0831 25.9165 34.1713C25.8393 34.2154 25.718 34.3478 25.6738 34.447C25.6187 34.5352 25.5525 34.5794 25.4312 34.6566C25.3871 34.7999 25.2878 34.8771 25.1996 34.9874C25.1445 35.0536 25.0893 35.1639 25.0342 35.2631C24.968 35.3734 24.8908 35.4065 24.7915 35.5389C24.7364 35.6271 24.6151 35.7484 24.582 35.8477C24.5269 35.9359 24.4497 36.0241 24.3614 36.1013C24.3614 36.2226 24.2291 36.3219 24.218 36.4212C24.0967 36.5204 24.0747 36.6197 23.9864 36.7079C23.9092 36.8292 23.8651 36.8844 23.7879 36.9836C23.7548 37.1049 23.6666 37.1711 23.6115 37.3145C23.5784 37.4468 23.5012 37.5351 23.413 37.5792C23.3799 37.7225 23.3357 37.8439 23.2365 37.899C23.1813 38.0203 23.1041 38.1527 23.0711 38.274C23.0049 38.3402 22.9277 38.4504 22.8836 38.5828C22.8395 38.6379 22.7733 38.7703 22.7071 38.9136C22.674 38.9908 22.6079 39.068 22.5637 39.2004C22.5086 39.3107 22.4645 39.432 22.3873 39.5202C22.3542 39.6526 22.3101 39.7629 22.2439 39.8621C22.2108 39.9834 22.1888 40.0717 22.1116 40.1599C22.0564 40.3033 22.0123 40.4466 21.9792 40.5018C21.9351 40.6121 21.8579 40.7444 21.7917 40.8768C21.7807 40.965 21.7476 41.0753 21.6704 41.1966C21.6484 41.34 21.6153 41.4503 21.5381 41.5275C21.505 41.6157 21.4829 41.7591 21.4498 41.9135C21.3947 41.9796 21.3616 42.123 21.3285 42.2223C21.3065 42.3436 21.2624 42.4759 21.2624 42.5421C21.1962 42.6965 21.141 42.8068 21.119 42.906C21.108 43.0604 21.0638 43.1928 20.9977 43.292C20.9977 43.3913 20.9315 43.5457 20.9315 43.6229C20.8874 43.7553 20.8322 43.8766 20.8322 43.9758C20.8102 44.1082 20.755 44.2736 20.755 44.3287C20.6999 44.5273 20.6889 44.5934 20.6778 44.7258C20.6337 44.8692 20.6117 45.0015 20.6117 45.1118C20.5675 45.2221 20.5345 45.3544 20.5124 45.4647C20.5124 45.597 20.4793 45.7073 20.4793 45.8176C20.4131 45.9279 20.4131 46.0492 20.4131 46.2367C20.3801 46.3249 20.3801 46.4463 20.3801 46.5896C20.3801 46.6889 20.3249 46.8323 20.3249 46.9646C20.2918 47.0418 20.2367 47.2072 20.2367 47.3286V47.6925V48.0454V48.4866C20.2036 48.5748 20.2036 48.663 20.2036 48.8395C20.1926 48.9387 20.1926 49.0821 20.1926 49.1924C20.1926 49.3909 20.1926 49.5674 20.2036 49.7438C20.2367 49.8872 20.2367 50.1078 20.2367 50.3063V50.8467C20.2367 50.9901 20.2367 51.1886 20.3249 51.354C20.3801 51.5636 20.3801 51.6959 20.3801 51.8283C20.3801 52.0268 20.4131 52.2253 20.4462 52.3797C20.4683 52.5672 20.5014 52.7437 20.5234 52.9201C20.6006 53.1076 20.6006 53.2289 20.6558 53.4385C20.6668 53.5818 20.6889 53.7473 20.744 53.9237C20.7881 54.1664 20.8212 54.2766 20.8763 54.4421C20.9205 54.5965 20.9756 54.7729 21.0087 54.9384C21.0859 55.1369 21.119 55.2803 21.1741 55.4788C21.2403 55.6442 21.2734 55.7986 21.3396 56.0082C21.3837 56.1184 21.4278 56.2618 21.4829 56.4824C21.5932 56.6147 21.5932 56.7912 21.6484 56.9015C21.7586 57.1221 21.7917 57.2103 21.8689 57.3867C21.9461 57.5632 21.9902 57.7176 22.0785 57.861C22.1777 58.0705 22.2108 58.2139 22.288 58.3242C22.3652 58.4896 22.4645 58.633 22.5417 58.8315C22.5748 58.9859 22.674 59.0852 22.7512 59.2616C22.8395 59.416 22.8946 59.5925 23.038 59.7359C23.1152 59.8572 23.1703 59.9785 23.3027 60.1439C23.3468 60.2983 23.4571 60.4307 23.5674 60.5851C23.6335 60.7395 23.7107 60.8939 23.821 61.0372C23.9092 61.1586 24.0306 61.3019 24.1298 61.4343C24.185 61.5887 24.3173 61.699 24.4055 61.8754C24.4827 62.0078 24.582 62.1291 24.7033 62.2614C24.8357 62.4048 24.9459 62.5702 25.0562 62.6254C25.1114 62.7908 25.2217 62.9011 25.354 63.0334C25.4533 63.1548 25.5966 63.3092 25.6738 63.4305C25.8172 63.5297 25.9275 63.6731 26.0488 63.7724C26.2142 63.9488 26.2914 63.9929 26.3907 64.1473C26.512 64.2576 26.6333 64.39 26.7657 64.5113C26.876 64.6436 27.0304 64.7319 27.1186 64.8642C27.284 64.9966 27.3612 65.0627 27.5046 65.2061C27.659 65.3054 27.7913 65.3605 27.8575 65.4928C28.023 65.6472 28.1663 65.6914 28.3097 65.8237C28.4862 65.945 28.5744 66.0443 28.7067 66.1656C28.8611 66.2318 29.0266 66.3641 29.1699 66.4303C29.2582 66.5185 29.4015 66.6288 29.567 66.7391C29.6883 66.8604 29.8206 66.9156 29.975 66.9928C30.1184 67.1692 30.2728 67.2023 30.4272 67.2685C30.5485 67.3677 30.714 67.489 30.8684 67.5332C30.9786 67.6876 31.133 67.7096 31.2875 67.7758C31.4529 67.9081 31.6073 67.9853 31.7065 68.0294C31.872 68.1066 32.0595 68.2059 32.2028 68.25C32.3242 68.3272 32.5227 68.4044 32.655 68.4816C32.8204 68.5588 32.9528 68.6029 33.1072 68.6801C33.2947 68.7573 33.4711 68.8345 33.6145 68.9117C33.7799 68.9559 33.9785 69.022 34.1439 69.0661C34.2542 69.1103 34.4417 69.2206 34.585 69.2647C34.7836 69.2977 34.949 69.3529 35.1254 69.4191C35.2578 69.4632 35.4673 69.5404 35.6328 69.5624C35.7761 69.6176 35.9526 69.6617 36.107 69.7058C36.2945 69.7168 36.4599 69.8161 36.6143 69.8382C36.7908 69.9043 36.9893 69.9043 37.1437 69.9264C37.3312 69.9815 37.4856 70.0256 37.6731 70.0477C37.8495 70.0587 38.015 70.1249 38.1583 70.1249C38.412 70.169 38.5333 70.2131 38.6987 70.2131C38.9083 70.2242 39.0627 70.2683 39.2833 70.2683C39.4156 70.2903 39.5921 70.2903 39.7796 70.3124C39.967 70.3124 40.1766 70.3455 40.331 70.3455C40.4633 70.3786 40.7391 70.3786 40.8935 70.3786L41.5 70.4227Z" fill="#F58220"/>
<path d="M41.5551 22.6133H41.6764H41.7536H41.8749H42.0073H42.1065H42.2499C42.294 22.6133 42.3492 22.5582 42.3492 22.5582H42.4705C42.4705 22.5582 42.5587 22.5472 42.5918 22.5141C42.6469 22.5141 42.68 22.481 42.68 22.481C42.7021 22.4369 42.7462 22.4369 42.8124 22.4369H42.9337C42.9778 22.4369 42.9888 22.3707 43.044 22.3486C43.0771 22.3486 43.0991 22.3486 43.1212 22.3376C43.1984 22.3045 43.2204 22.3045 43.2425 22.2604H43.3638C43.3969 22.2604 43.4079 22.2384 43.441 22.1942C43.5403 22.1942 43.5513 22.1942 43.5513 22.1942C43.6175 22.106 43.6506 22.106 43.7167 22.106C43.7498 22.0509 43.7608 22.0509 43.7608 22.0178C43.816 22.0178 43.8491 22.0178 43.8822 21.9626C43.9042 21.9626 43.9373 21.9626 43.9373 21.9185C44.0035 21.9185 44.0586 21.8965 44.0697 21.8744L44.1248 21.8082C44.213 21.7531 44.213 21.7531 44.2461 21.7531C44.2902 21.698 44.3123 21.6869 44.3123 21.6869C44.3895 21.6428 44.4336 21.6428 44.4336 21.5987C44.4667 21.5987 44.4998 21.5105 44.4998 21.5105C44.5659 21.4994 44.588 21.4774 44.6211 21.4553C44.6431 21.4222 44.6652 21.3781 44.7203 21.3781C44.7314 21.3119 44.7424 21.3119 44.7755 21.2899C44.8086 21.2568 44.8086 21.2347 44.8306 21.2127C44.9078 21.1906 44.9519 21.1245 44.9519 21.1245C44.974 21.0914 44.974 21.0583 45.0402 21.0583C45.0953 21.0362 45.1284 20.9701 45.1284 20.9149C45.1615 20.9039 45.1615 20.8598 45.1615 20.8598C45.1946 20.8598 45.2497 20.8157 45.3049 20.7605C45.3049 20.7164 45.338 20.7164 45.338 20.7164C45.371 20.6502 45.4152 20.6502 45.4152 20.5841C45.4152 20.5841 45.4152 20.5289 45.4813 20.5068C45.4813 20.4627 45.5144 20.4186 45.5254 20.3966L45.5806 20.2863C45.6247 20.2863 45.6247 20.2863 45.6247 20.198C45.6798 20.176 45.6909 20.1429 45.6909 20.1429C45.6909 20.0878 45.7129 20.0657 45.746 19.9775C45.746 19.9775 45.7791 19.9334 45.8122 19.9113C45.8232 19.8892 45.8453 19.801 45.8784 19.7569L45.9225 19.6687C45.9225 19.6246 45.9445 19.6246 45.9887 19.5584C45.9887 19.5584 45.9887 19.4481 46.0107 19.426C46.0107 19.415 46.0548 19.3819 46.0659 19.3268C46.0659 19.3047 46.0659 19.2606 46.0989 19.2385C46.0989 19.1944 46.0989 19.1503 46.1541 19.1503V18.9739C46.1541 18.9739 46.1761 18.8967 46.1761 18.8746C46.1761 18.8195 46.1872 18.8195 46.1872 18.7533V18.6651C46.2203 18.632 46.2203 18.5658 46.2203 18.5107C46.2313 18.4886 46.2313 18.4335 46.2754 18.3893V18.2901V18.1467V18.0364V17.9702V17.7938V17.6725V17.5291V17.4409V17.3747V17.1762C46.2313 17.1762 46.2313 17.11 46.2203 17.0659C46.2203 16.9777 46.2203 16.9777 46.1872 16.9666V16.8453C46.1872 16.7681 46.1761 16.7681 46.1761 16.7019C46.1761 16.6358 46.1541 16.6027 46.1541 16.6027V16.4483C46.0989 16.4042 46.0989 16.3931 46.0989 16.3931C46.0659 16.349 46.0659 16.2718 46.0659 16.2387C46.0548 16.1946 46.0107 16.1615 46.0107 16.1615C45.9887 16.0954 45.9887 16.0623 45.9887 16.0623C45.9445 15.9851 45.9225 15.9299 45.9225 15.9299C45.9225 15.8748 45.8784 15.8527 45.8784 15.7976C45.8453 15.7645 45.8342 15.7645 45.8122 15.6652C45.7791 15.6652 45.746 15.6211 45.746 15.6211C45.7129 15.588 45.6909 15.4998 45.6909 15.4998C45.6909 15.4998 45.6798 15.4226 45.6247 15.3675C45.6247 15.3234 45.6247 15.3013 45.5806 15.3013C45.5806 15.2351 45.5254 15.2351 45.5254 15.2131C45.5144 15.1579 45.4813 15.1359 45.4813 15.0918C45.4152 15.0807 45.4152 15.0366 45.4152 14.9925L45.349 14.9153C45.338 14.8932 45.3159 14.8932 45.3159 14.816C45.2718 14.816 45.2056 14.7609 45.1725 14.7388C45.1725 14.7388 45.1725 14.6616 45.1394 14.6396C45.1394 14.5955 45.1064 14.5624 45.0512 14.5624C44.9961 14.5183 44.9961 14.4962 44.963 14.4741C44.963 14.4741 44.9189 14.419 44.8417 14.3528C44.8417 14.3528 44.8196 14.3528 44.7865 14.2867C44.7534 14.2756 44.7424 14.2756 44.7314 14.1984C44.6762 14.1984 44.6431 14.1984 44.6321 14.1653C44.599 14.1102 44.577 14.1102 44.5108 14.0881C44.5108 14.0661 44.4777 14.0551 44.4446 14.0109C44.4446 14.0109 44.4115 13.9558 44.3233 13.9558C44.3233 13.9558 44.3013 13.9007 44.2571 13.8676C44.2241 13.8455 44.2241 13.8455 44.1358 13.8014C44.1358 13.8014 44.1027 13.7904 44.0807 13.7462C44.0807 13.7462 44.0145 13.7462 43.9483 13.6911C43.9483 13.6911 43.9153 13.6911 43.8932 13.647C43.8601 13.647 43.827 13.6139 43.7719 13.6139C43.7719 13.5146 43.7608 13.5146 43.7278 13.5146C43.6506 13.4926 43.6175 13.4926 43.5844 13.4926C43.5844 13.4926 43.5513 13.4485 43.441 13.4485C43.4079 13.4485 43.3969 13.4154 43.3638 13.3933C43.3087 13.3713 43.2976 13.3492 43.2425 13.3382C43.2425 13.3382 43.1874 13.3382 43.1212 13.2941C43.0991 13.272 43.0771 13.272 43.044 13.272C42.9888 13.272 42.9778 13.272 42.9337 13.2279L42.8124 13.1948C42.7462 13.1728 42.7131 13.1397 42.7131 13.1397C42.7131 13.1397 42.6469 13.0735 42.6028 13.0735H42.5146H42.3712H42.272C42.2279 13.0735 42.1617 13.0735 42.1286 13.0404H42.0404H41.897C41.886 13.0184 41.8088 13.0073 41.7757 13.0073H41.6985H41.5772H41.4448H41.3014C41.2573 13.0073 41.2353 13.0294 41.1691 13.0404H41.0037H40.9044C40.9044 13.0404 40.8603 13.0735 40.7941 13.0735H40.6728H40.5294H40.4081C40.3861 13.0735 40.3309 13.1397 40.2978 13.1397C40.2978 13.1397 40.2537 13.1728 40.1875 13.1948H40.1324C40.0662 13.272 39.989 13.272 39.989 13.272C39.9449 13.272 39.9118 13.272 39.8346 13.2941C39.8346 13.3382 39.7905 13.3382 39.7464 13.3382C39.6913 13.3492 39.6471 13.3713 39.6361 13.3933C39.603 13.4154 39.5479 13.4154 39.4927 13.4485C39.4927 13.4485 39.4597 13.4705 39.4266 13.4926C39.4266 13.4926 39.4045 13.4926 39.3383 13.5146C39.3383 13.5146 39.2501 13.5146 39.2501 13.6139C39.206 13.6139 39.1619 13.647 39.1178 13.647C39.0847 13.6911 39.0295 13.6911 39.0295 13.6911C38.9634 13.7462 38.9523 13.7462 38.9523 13.7462C38.8972 13.7904 38.8751 13.7904 38.82 13.8014C38.809 13.8345 38.7538 13.8345 38.7318 13.8676C38.7318 13.9007 38.6656 13.9448 38.6656 13.9448C38.5884 13.9558 38.5884 14.0109 38.5443 14.0109C38.5222 14.0551 38.4671 14.0661 38.4671 14.0881C38.4671 14.0881 38.3899 14.1102 38.3899 14.1653C38.3457 14.1984 38.3016 14.1984 38.2575 14.1984C38.2134 14.2756 38.2134 14.2756 38.1913 14.2867C38.1913 14.3528 38.1362 14.3528 38.1362 14.3528C38.0811 14.419 38.0811 14.4631 38.048 14.4631C38.0259 14.4962 37.9928 14.5183 37.9597 14.5624C37.9597 14.5624 37.9046 14.5955 37.9046 14.6285C37.9046 14.6727 37.8825 14.7388 37.8384 14.7388C37.7943 14.7609 37.7723 14.816 37.7502 14.816C37.7392 14.8932 37.7061 14.8932 37.662 14.9153L37.6068 14.9815C37.5737 15.0476 37.5407 15.0918 37.5407 15.0918C37.4965 15.1248 37.4855 15.169 37.4855 15.169C37.4414 15.2462 37.4193 15.2462 37.4193 15.2462C37.3973 15.3123 37.3973 15.3234 37.3752 15.3785C37.3421 15.4336 37.276 15.4888 37.276 15.4888L37.2429 15.5991C37.2429 15.5991 37.2319 15.6652 37.2098 15.6763C37.2098 15.7645 37.2098 15.7866 37.1877 15.8086C37.1877 15.8748 37.0995 15.8858 37.0774 15.9299V15.9961C37.0664 16.0512 37.0664 16.1064 37.0223 16.1174C37.0223 16.1726 37.0223 16.2057 36.9782 16.2498C36.9561 16.2829 36.912 16.349 36.89 16.349V16.4593C36.89 16.5145 36.8569 16.5696 36.8569 16.5696C36.8569 16.6137 36.8569 16.6358 36.8569 16.6909C36.8458 16.7019 36.8458 16.7681 36.8458 16.8233C36.8458 16.8233 36.7907 16.9005 36.7907 16.9666C36.7907 16.9666 36.7466 16.9887 36.7466 17.0328V17.1762V17.3416V17.4188C36.7466 17.485 36.7135 17.496 36.7135 17.5401V17.6835V17.8048V17.9702V18.0474C36.7135 18.0805 36.7135 18.0916 36.7466 18.1577V18.268V18.4004V18.5327C36.7466 18.5327 36.7907 18.6209 36.7907 18.654C36.7907 18.6871 36.8458 18.6871 36.8458 18.7753V18.8967C36.8569 18.9187 36.8569 18.9849 36.8569 18.9849C36.8569 19.04 36.8569 19.0952 36.89 19.1724V19.2165C36.912 19.2827 36.9561 19.3157 36.9561 19.3488C37.0113 19.404 37.0113 19.4371 37.0113 19.4481L37.0554 19.5804C37.0664 19.6466 37.0664 19.6466 37.0664 19.6907C37.0664 19.6907 37.1216 19.7459 37.1767 19.779C37.1988 19.812 37.1988 19.8672 37.1988 19.9334C37.1988 19.9554 37.2318 19.9885 37.2318 19.9885C37.2318 20.0878 37.2319 20.1208 37.2649 20.1429C37.2649 20.1429 37.3311 20.198 37.3642 20.2311C37.3973 20.2422 37.3973 20.3194 37.3973 20.3194L37.4414 20.4407C37.4855 20.4407 37.5076 20.4958 37.5186 20.551C37.5407 20.551 37.5737 20.573 37.5958 20.6282C37.6068 20.6943 37.6068 20.6943 37.662 20.7385C37.7171 20.7605 37.7171 20.7605 37.7502 20.8046C37.7723 20.8598 37.7943 20.8708 37.8274 20.9039C37.8274 20.9039 37.8825 20.948 37.9046 20.959C37.9046 21.0142 37.9597 21.0693 37.9597 21.0693C37.9928 21.0914 38.0149 21.1355 38.0259 21.1575C38.0811 21.1575 38.0811 21.2237 38.1362 21.2458C38.1362 21.2789 38.1803 21.2899 38.1803 21.2899C38.2244 21.345 38.2244 21.345 38.2686 21.4112C38.3127 21.4112 38.3568 21.4553 38.3568 21.4884C38.4009 21.5215 38.4781 21.5435 38.4781 21.5435C38.4781 21.5435 38.4891 21.6428 38.5332 21.6428C38.5994 21.6869 38.5994 21.6869 38.6766 21.731L38.7428 21.7641C38.7648 21.7972 38.7648 21.7972 38.831 21.8524C38.842 21.8634 38.9082 21.9185 38.9082 21.9185C38.9854 21.9406 38.9854 21.9626 38.9854 21.9626C39.0516 22.0068 39.0957 22.0068 39.1067 22.0068C39.1398 22.0619 39.1839 22.0619 39.2722 22.0619C39.2722 22.095 39.3604 22.095 39.3604 22.1501C39.3604 22.1501 39.4266 22.1501 39.4486 22.2273C39.4817 22.2273 39.4927 22.2384 39.5148 22.2384C39.5699 22.2384 39.592 22.3045 39.6582 22.3045H39.7685C39.8015 22.3486 39.8126 22.3486 39.8567 22.3817C39.9118 22.3928 39.978 22.3928 40.0111 22.3928C40.0111 22.4148 40.0883 22.4148 40.1434 22.481H40.2096C40.2537 22.481 40.3199 22.481 40.3199 22.5251C40.353 22.5251 40.4081 22.5582 40.4302 22.5582C40.4743 22.5913 40.5294 22.6023 40.5294 22.6023H40.6949C40.7831 22.6023 40.7831 22.6574 40.8162 22.6574H40.9154H41.0257H41.1691H41.3014H41.4448L41.5551 22.6133Z" fill="#F58220"/>
<path d="M51.9001 14.055C51.9332 13.9999 51.9663 13.9448 51.9883 13.8896C51.9994 13.8234 52.0435 13.7904 52.0655 13.7352C52.0655 13.7352 52.1317 13.6801 52.1758 13.636C52.2089 13.5808 52.231 13.4926 52.264 13.4816C52.3192 13.4595 52.3523 13.4044 52.3523 13.4044C52.4074 13.3272 52.4074 13.283 52.5177 13.261C52.5398 13.2169 52.5398 13.1948 52.5949 13.1397C52.5949 13.0735 52.65 13.0735 52.7052 13.0735C52.7383 13.0404 52.7493 12.9742 52.7493 12.9742C52.7493 12.9742 52.8375 12.9191 52.8817 12.9081C52.9258 12.8529 52.9589 12.8309 52.9699 12.7978C53.025 12.7757 53.0581 12.7757 53.0581 12.7316C53.1133 12.6985 53.2235 12.6985 53.2235 12.6985C53.2235 12.6765 53.2677 12.6434 53.3338 12.6434C53.3338 12.6434 53.3559 12.6213 53.3779 12.6213C53.4221 12.6213 53.4882 12.5772 53.4882 12.5772C53.5434 12.5772 53.5434 12.5662 53.6095 12.5662C53.6095 12.5331 53.7198 12.5331 53.7529 12.5331C53.7529 12.5331 53.7529 12.5221 53.8301 12.5221H53.9514C54.0066 12.5221 54.0397 12.5331 54.1058 12.5331C54.1058 12.5331 54.1279 12.5662 54.1941 12.5662C54.2271 12.5772 54.2602 12.5772 54.2933 12.5772C54.3264 12.6213 54.3926 12.6213 54.3926 12.6213C54.4808 12.6213 54.5029 12.6434 54.5029 12.6434C54.5801 12.6765 54.6573 12.6985 54.6573 12.6985C54.7124 12.6985 54.7896 12.7316 54.7896 12.7757C54.8337 12.7757 54.8778 12.7978 54.9109 12.8309C54.955 12.8529 55.0322 12.8639 55.0433 12.9081C55.0653 12.9191 55.1315 12.9742 55.1977 12.9742C55.1977 12.9742 55.2528 13.0404 55.3411 13.0735C55.3411 13.0735 55.3962 13.0735 55.4955 13.1397C55.5396 13.1728 55.5506 13.2279 55.5727 13.261C55.6388 13.261 55.6829 13.3272 55.7601 13.3382C55.8043 13.3823 55.8484 13.4374 55.8925 13.4705C55.9366 13.4926 55.9476 13.5146 56.0469 13.5918C56.091 13.6139 56.1462 13.6911 56.2123 13.6911C56.2564 13.7462 56.3336 13.7904 56.3888 13.8014C56.4108 13.8345 56.4439 13.9006 56.5432 13.9668C56.5763 14.022 56.6094 14.0661 56.6976 14.0992C56.7196 14.1212 56.7638 14.2095 56.863 14.2425C56.9071 14.2867 56.9623 14.3749 57.0284 14.3749C57.0836 14.4852 57.1387 14.5183 57.2049 14.5844C57.2601 14.6175 57.3152 14.6947 57.3924 14.7609C57.4144 14.7829 57.4475 14.8491 57.5468 14.9043C57.613 14.9925 57.6791 15.0145 57.7784 15.1028C57.8115 15.1579 57.8666 15.18 57.9659 15.2572C57.9879 15.3233 58.0872 15.3895 58.1313 15.4447C58.2195 15.5219 58.2416 15.6101 58.3519 15.6763C58.3739 15.6873 58.4842 15.8086 58.5394 15.8858C58.5725 15.952 58.7048 16.0182 58.76 16.1174C58.793 16.1836 58.8813 16.2277 58.9585 16.3049C59.0357 16.3711 59.1129 16.4372 59.179 16.5365C59.3004 16.6027 59.3114 16.6689 59.4217 16.7461C59.4879 16.8563 59.5651 16.9335 59.6643 17.0218C59.6974 17.0659 59.8187 17.1541 59.8739 17.2203C59.9841 17.3195 60.0834 17.4188 60.1385 17.496C60.2157 17.5732 60.304 17.7056 60.3922 17.7166C60.4253 17.8379 60.5466 17.9261 60.6459 18.0144C60.701 18.0916 60.8223 18.1357 60.8554 18.268C60.9436 18.3562 61.065 18.4445 61.1532 18.4996C61.2083 18.5879 61.3186 18.7312 61.4289 18.8084C61.5282 18.8636 61.6164 18.9408 61.6936 19.0731C61.7598 19.2055 61.9031 19.2496 61.9252 19.3488C62.0575 19.4481 62.2009 19.5032 62.2781 19.6797C62.3994 19.7238 62.4656 19.8562 62.5649 19.9885C62.6421 20.0326 62.7744 20.198 62.8737 20.2642C62.9178 20.3524 63.0722 20.4738 63.1494 20.584C63.2928 20.7054 63.3258 20.7715 63.4472 20.9149C63.5795 20.9701 63.6236 21.1134 63.7229 21.1796C63.789 21.345 63.9214 21.4333 63.9765 21.5325C64.1089 21.6538 64.1751 21.7421 64.2633 21.8082C64.3515 21.9626 64.4287 22.0619 64.4949 22.1501C64.6052 22.2384 64.6713 22.3486 64.7706 22.481C64.8147 22.6023 64.9471 22.6905 65.0022 22.7677C65.1125 22.9332 65.1787 23.0104 65.2228 23.1207C65.3441 23.242 65.3992 23.3412 65.4875 23.3964C65.5757 23.5508 65.686 23.639 65.7301 23.7383C65.8294 23.8596 65.8404 23.9368 65.9617 24.0801C66.0058 24.1794 66.1271 24.2787 66.2043 24.4331C66.2705 24.5103 66.2815 24.6316 66.4029 24.7198C66.4801 24.8301 66.5131 24.8963 66.6124 25.0286C66.6345 25.183 66.7447 25.2823 66.7999 25.3264C66.8991 25.4367 66.8991 25.5911 66.9763 25.6793C67.0646 25.7896 67.1087 25.9109 67.1749 25.9991C67.241 26.1205 67.3293 26.2197 67.3844 26.3079C67.4175 26.4403 67.5168 26.5396 67.5609 26.6388C67.616 26.7822 67.6712 26.8484 67.7373 27.0138C67.7925 27.0579 67.8807 27.2123 67.8807 27.3336C67.9579 27.4218 68.0351 27.5211 68.1123 27.6093C68.1344 27.7527 68.1674 27.852 68.2446 27.9733C68.3108 28.0725 68.3439 28.1828 68.4211 28.3152C68.4211 28.4144 68.4983 28.5247 68.5535 28.635C68.6086 28.7343 68.6527 28.8556 68.7079 28.9769C68.7189 29.0651 68.7961 29.1754 68.8402 29.3519C68.8733 29.4291 68.9284 29.4952 68.9284 29.6166C69.0497 29.7268 69.1049 29.9143 69.1159 30.0026C69.138 30.1239 69.1931 30.2011 69.2483 30.3003C69.2483 30.4327 69.3144 30.565 69.3365 30.6863C69.3806 30.7746 69.4578 30.8849 69.4909 30.9951C69.4909 31.1165 69.5129 31.2157 69.5791 31.3591C69.6343 31.4473 69.6563 31.5245 69.6674 31.6789C69.6894 31.8002 69.7887 31.8995 69.8328 32.0318C69.8438 32.1201 69.8438 32.2524 69.8659 32.3848C69.8659 32.473 69.9762 32.6164 69.9872 32.7267C69.9982 32.8149 70.0203 32.9803 70.1085 33.0244C70.1085 33.2009 70.1416 33.3332 70.1526 33.3884C70.1636 33.5318 70.1636 33.62 70.2739 33.7523C70.2739 33.8957 70.2739 33.9729 70.307 34.1273C70.3291 34.2266 70.3952 34.3038 70.4394 34.4471C70.4394 34.5685 70.4394 34.6567 70.4835 34.7339C70.4835 34.8773 70.5166 34.9986 70.5166 35.1199C70.5386 35.2191 70.5386 35.3405 70.5827 35.4507C70.5827 35.6162 70.5827 35.6824 70.6489 35.8368V36.1456C70.7371 36.2779 70.7371 36.3661 70.7592 36.4764C70.7813 36.5977 70.7812 36.708 70.7812 36.8404C70.7812 36.9286 70.8033 37.0499 70.8033 37.1602C70.8254 37.2595 70.8254 37.4028 70.8254 37.5352C70.8474 37.6234 70.8474 37.7006 70.8474 37.833C70.8915 37.9543 70.9026 38.0646 70.9026 38.219V38.5388C70.9356 38.6711 70.9798 38.7263 70.9798 38.8476C70.9798 38.991 70.9798 39.1013 70.9908 39.1674V39.5424C70.9908 39.6637 70.9908 39.774 71.0128 39.8733V40.2152V40.5681C71.0128 40.8217 71.0129 41.0423 70.9908 41.307C70.9908 41.5607 70.9908 41.8474 70.9798 42.1011C70.9798 42.3658 70.9026 42.5863 70.9026 42.829C70.8915 43.0936 70.8474 43.3694 70.8254 43.5899C70.8033 43.8546 70.7812 44.0973 70.7812 44.362C70.7592 44.6156 70.7261 44.8913 70.6599 45.0788C70.5938 45.3435 70.5938 45.5972 70.5496 45.8288C70.5276 46.0824 70.4724 46.3361 70.4504 46.5456C70.3511 46.8103 70.296 47.053 70.296 47.2956C70.1967 47.5713 70.1637 47.7588 70.0864 48.0125C70.0203 48.2771 69.9982 48.4977 69.8769 48.7734C69.8548 48.983 69.7115 49.2036 69.6894 49.4572C69.6012 49.6668 69.535 49.9204 69.4799 50.141C69.4027 50.3505 69.3034 50.5711 69.2262 50.8248C69.149 51.0564 69.0828 51.299 68.9615 51.5196C68.9064 51.7291 68.8292 51.9387 68.7409 52.1372C68.6527 52.3909 68.5204 52.6225 68.4542 52.843C68.3549 53.0415 68.2336 53.2511 68.1674 53.5047C67.991 53.6592 67.9138 53.9018 67.8256 54.1334C67.7153 54.376 67.594 54.5525 67.4616 54.7841C67.3954 54.9716 67.2521 55.2032 67.1308 55.3907C67.0094 55.6112 66.9322 55.8208 66.7999 56.0083C66.6455 56.2288 66.5352 56.4274 66.4359 56.6369C66.2926 56.8795 66.1492 57.0229 66.0168 57.2545C65.8735 57.442 65.7522 57.6626 65.5978 57.8501C65.4764 58.0376 65.3441 58.2361 65.2007 58.4125C65.0243 58.6 64.914 58.8206 64.7927 58.986C64.6383 59.1845 64.4508 59.3941 64.3184 59.5485C64.1861 59.747 64.0427 59.9235 63.9104 60.0999C63.7449 60.2764 63.6016 60.497 63.4692 60.6293C63.2817 60.7947 63.1273 61.0153 62.9398 61.1697C62.7965 61.3572 62.609 61.5226 62.4766 61.7211C62.2891 61.8204 62.1127 62.041 61.9362 62.2174C61.7708 62.3718 61.6164 62.5262 61.4399 62.7027C61.2524 62.824 61.076 63.0005 60.9216 63.1549C60.7561 63.3093 60.5466 63.4416 60.3922 63.6071C60.2157 63.7945 60.0613 63.8938 59.8297 64.0703C59.6643 64.2357 59.4658 64.357 59.3004 64.5114C59.0908 64.6438 58.8813 64.7651 58.7048 64.8974C58.5394 65.0518 58.2637 65.1842 58.0982 65.3606C57.9549 65.4819 57.7674 65.6143 57.5468 65.7797C57.3262 65.8459 57.1498 65.9782 56.9733 66.1547C56.7307 66.287 56.5542 66.3642 56.3447 66.5186C56.1461 66.6179 55.9256 66.7723 55.705 66.8716C55.5616 66.9929 55.2859 67.1032 55.0653 67.1804C54.8668 67.3237 54.6904 67.4009 54.4477 67.5002C54.2382 67.6215 54.0397 67.7097 53.797 67.809C53.5875 67.8972 53.3779 68.0296 53.1574 68.1068C52.8927 68.184 52.6942 68.2832 52.4515 68.3935C52.253 68.4597 52.0104 68.5589 51.8229 68.6472C51.5803 68.7244 51.3597 68.7906 51.106 68.8678C50.8855 68.967 50.6428 69.0222 50.4443 69.1324C50.1906 69.1986 49.9921 69.2868 49.7274 69.331C49.5289 69.3971 49.2532 69.4633 49.0216 69.5295C48.79 69.5956 48.5694 69.6618 48.3488 69.728C48.1283 69.7611 47.8305 69.8272 47.621 69.8272C47.4004 69.9375 47.1357 69.9375 46.9041 70.0147C46.6284 70.0809 46.3857 70.0809 46.1541 70.1581C45.9225 70.1691 45.6248 70.2353 45.4262 70.2353C45.1836 70.2794 44.941 70.3235 44.6653 70.3235C44.4667 70.3787 44.1579 70.3787 43.9374 70.4007C43.6947 70.4228 43.43 70.4228 43.1874 70.4228C42.9779 70.4559 42.6911 70.5 42.4264 70.5H41.6324H40.9045C40.5736 70.5 40.342 70.4559 40.0442 70.4228C39.8016 70.4228 39.5149 70.4007 39.3053 70.4007C39.0075 70.3787 38.787 70.3787 38.5223 70.3235C38.2465 70.3235 38.0149 70.2684 37.7613 70.2353C37.4635 70.2353 37.265 70.1581 36.9452 70.1581C36.7356 70.0919 36.493 70.0258 36.2393 70.0147C35.9526 69.9486 35.732 69.9265 35.5114 69.8272C35.2578 69.7611 34.982 69.75 34.7174 69.6728C34.4858 69.6508 34.2762 69.5736 33.9674 69.4633C33.7468 69.4082 33.5263 69.3751 33.2395 69.331C33.03 69.2096 32.7432 69.1435 32.5337 69.0552C32.3021 69.0111 32.0815 68.9339 31.8389 68.8236C31.6183 68.7685 31.3867 68.6692 31.1441 68.592C30.9345 68.4817 30.6698 68.3825 30.4934 68.3494C30.2397 68.2171 30.0302 68.0957 29.8096 68.0075C29.5449 67.8752 29.3574 67.8531 29.1368 67.6987C28.8721 67.6325 28.6405 67.5112 28.442 67.445C28.2214 67.3127 27.9788 67.1583 27.7803 67.0811C27.5708 66.9708 27.3833 66.8495 27.1848 66.7392C26.9421 66.5848 26.7436 66.4855 26.512 66.3532C26.3355 66.276 26.1039 66.1326 25.8944 66.0113C25.7069 65.8349 25.5084 65.7577 25.2768 65.6032C25.1114 65.4709 24.9018 65.3496 24.6923 65.2503C24.5158 65.0959 24.2952 64.9746 24.1408 64.8202C23.9313 64.6768 23.7438 64.5114 23.5673 64.346C23.4129 64.2247 23.1813 64.0703 22.9828 63.9379C22.7953 63.7945 22.6519 63.6401 22.4534 63.4637C22.299 63.3093 22.1005 63.1549 21.913 63.0115C21.7476 62.824 21.5711 62.7027 21.4057 62.5262C21.2292 62.3718 21.0638 62.2174 20.8543 62.041C20.7109 61.8204 20.5234 61.7211 20.3469 61.5226C20.2146 61.3572 20.0381 61.1697 19.9058 61.0153C19.7293 60.7947 19.5308 60.6403 19.4536 60.4859C19.2772 60.2654 19.1228 60.0889 18.9573 59.9124C18.814 59.736 18.6265 59.5375 18.4941 59.3831C18.3618 59.1845 18.1963 58.975 18.0971 58.8096C17.9427 58.589 17.7993 58.4456 17.6339 58.2471C17.5346 58.0265 17.3802 57.839 17.2589 57.6626C17.1155 57.442 16.9722 57.2545 16.8508 57.0339C16.7295 56.8906 16.5862 56.6479 16.4759 56.4384C16.3546 56.2399 16.2332 56.0193 16.1119 55.8318C15.9575 55.6223 15.8913 55.4017 15.748 55.2142C15.6377 55.0047 15.5164 54.7951 15.384 54.5525C15.2958 54.376 15.1965 54.1334 15.0642 53.9018C14.998 53.6922 14.9208 53.5048 14.7554 53.2621C14.6892 53.0526 14.5789 52.8651 14.4797 52.6445C14.4025 52.435 14.2922 52.2144 14.215 51.9497C14.1598 51.7402 14.0496 51.5306 13.9503 51.299C13.8179 51.1115 13.7738 50.8468 13.7187 50.6593C13.6415 50.4167 13.5422 50.1851 13.4871 49.9645C13.4319 49.7109 13.3437 49.4903 13.2445 49.2918C13.1783 49.0161 13.1231 48.7734 13.057 48.597C12.9577 48.3213 12.9026 48.1007 12.8695 47.847C12.7812 47.6154 12.7813 47.4169 12.7371 47.1191C12.6489 46.9316 12.5938 46.7 12.5386 46.4243C12.5276 46.1927 12.4724 45.9721 12.4283 45.7185C12.4283 45.4758 12.318 45.2442 12.318 45.0016C12.2739 44.77 12.2519 44.4722 12.2298 44.2517C12.1857 43.9759 12.1526 43.7885 12.1526 43.5238C12.1195 43.2811 12.1195 43.0054 12.0975 42.7738C12.0864 42.5312 12.0423 42.2665 12.0423 42.0349C11.9872 41.7702 11.9872 41.5386 11.9872 41.2739V40.524V40.149V39.763V39.377C11.9872 39.2336 11.9872 39.0902 12.0423 38.991C12.0423 38.8476 12.0423 38.7042 12.0864 38.5829C12.0864 38.4616 12.0864 38.3513 12.0975 38.241C12.0975 38.0646 12.1306 37.9543 12.1306 37.833C12.1306 37.6675 12.1306 37.5903 12.1636 37.4359V37.0499C12.1967 36.9617 12.2408 36.8404 12.2519 36.697C12.2629 36.5647 12.2629 36.4544 12.2739 36.322C12.2739 36.1786 12.3291 36.0904 12.3291 35.925C12.3291 35.8368 12.3291 35.7044 12.3732 35.6052C12.4504 35.4397 12.4504 35.3294 12.4504 35.2191C12.4945 35.0647 12.5055 34.9655 12.5055 34.8552C12.5607 34.7339 12.5717 34.6236 12.5717 34.4802C12.6379 34.392 12.6379 34.2486 12.6379 34.1604C12.682 33.9839 12.7702 33.9067 12.7702 33.7413C12.7813 33.6751 12.8143 33.5318 12.8143 33.4104C12.8474 33.3222 12.8585 33.1899 12.9026 33.0134C12.9246 32.9141 12.9687 32.8149 12.9798 32.7156C13.0239 32.5612 13.079 32.4399 13.1011 32.3076C13.1452 32.2193 13.1673 32.076 13.2003 31.9767C13.2114 31.8664 13.2665 31.723 13.3327 31.6458C13.3658 31.5025 13.3658 31.3922 13.454 31.2598C13.4871 31.1496 13.5091 31.0393 13.5422 30.951C13.5753 30.8407 13.6305 30.6863 13.6635 30.5981C13.6856 30.4989 13.7407 30.3665 13.7959 30.2562C13.8069 30.1239 13.8069 30.0136 13.9172 29.9143C13.9724 29.782 13.9724 29.6938 14.0385 29.5835C14.1047 29.4732 14.1598 29.3739 14.1819 29.2306C14.1929 29.1423 14.2701 29.021 14.3253 28.9218C14.3473 28.8115 14.3804 28.6791 14.4356 28.5468C14.5128 28.4585 14.5569 28.3483 14.601 28.249C14.6892 28.1387 14.7113 28.0836 14.7664 27.8851C14.7774 27.8189 14.8988 27.7086 14.9539 27.6093C14.9649 27.499 15.0311 27.3557 15.0642 27.3005C15.0863 27.2123 15.1855 27.0579 15.2186 27.0138C15.2517 26.8594 15.3509 26.7822 15.4061 26.6609C15.4723 26.5726 15.5384 26.4623 15.5605 26.3521C15.6487 26.2528 15.7149 26.1535 15.77 25.9991C15.8472 25.944 15.8913 25.8558 15.9355 25.7675C15.9906 25.6242 16.0678 25.5359 16.134 25.3926C16.145 25.3264 16.2553 25.2712 16.3215 25.1499C16.4097 25.0286 16.4428 24.8963 16.509 24.786C16.5972 24.7198 16.6303 24.6316 16.7185 24.5213C16.8178 24.4441 16.8178 24.3118 16.9391 24.2125C16.9611 24.1243 17.0604 24.025 17.1155 23.9147C17.2038 23.8706 17.2589 23.7383 17.3251 23.639C17.4023 23.5067 17.4795 23.4074 17.5677 23.3633C17.6008 23.253 17.678 23.1427 17.7883 23.0545C17.8545 22.9662 17.9206 22.878 17.9758 22.7457C18.0861 22.6795 18.1191 22.5802 18.2074 22.4479C18.2846 22.3376 18.3728 22.2604 18.428 22.1722C18.5052 22.084 18.5713 21.9847 18.6926 21.8854C18.7698 21.7751 18.847 21.72 18.9573 21.5877C19.0014 21.5325 19.0345 21.3891 19.1558 21.3119C19.2551 21.2017 19.3323 21.1245 19.4647 20.9921C19.5088 20.937 19.5419 20.8377 19.6521 20.7715C19.7404 20.6612 19.8396 20.5289 19.9168 20.4738C19.994 20.3635 20.0933 20.2863 20.1815 20.2091C20.2697 20.1319 20.358 19.9995 20.4462 19.9223C20.5344 19.79 20.6337 19.6907 20.7219 19.6245C20.8102 19.5143 20.8653 19.4481 20.9976 19.3599C21.0748 19.2606 21.1631 19.2165 21.2403 19.0841C21.3616 19.029 21.4388 18.8746 21.505 18.8195C21.6042 18.7312 21.6483 18.6981 21.7586 18.5878C21.8138 18.4665 21.902 18.4224 22.0123 18.3562C22.0895 18.2901 22.1667 18.1467 22.2549 18.1026C22.3211 18.0254 22.4203 17.9482 22.4755 17.86C22.5858 17.7828 22.663 17.7166 22.7181 17.5953C22.7843 17.5401 22.8836 17.4629 22.9497 17.3967C22.9938 17.3416 23.1041 17.2423 23.1813 17.1651C23.2585 17.0438 23.3137 17.0218 23.3578 16.9556C23.446 16.8233 23.5232 16.7681 23.6004 16.6909C23.6886 16.6247 23.7769 16.5586 23.7989 16.4703C23.8651 16.4042 23.9754 16.338 24.0195 16.2608C24.0967 16.2277 24.1739 16.1505 24.2291 16.0512C24.3173 15.9851 24.3724 15.941 24.4717 15.8527C24.4717 15.8527 24.5599 15.7094 24.6371 15.6652C24.6923 15.5439 24.7253 15.5219 24.8467 15.4667C24.8908 15.3564 24.99 15.3233 25.0452 15.2792C25.1003 15.202 25.1665 15.1359 25.2106 15.0807C25.2658 15.0145 25.3209 14.9484 25.376 14.9263C25.4422 14.8491 25.5084 14.7829 25.5525 14.7057C25.6848 14.6285 25.729 14.6065 25.751 14.5624C25.8062 14.5072 25.8503 14.4631 25.9385 14.3969C26.0047 14.3308 26.0378 14.3197 26.0819 14.2425C26.1481 14.2095 26.2583 14.1322 26.2694 14.0992C26.3797 14.044 26.3797 13.9889 26.4569 13.9337C26.4899 13.8676 26.5561 13.8676 26.6113 13.8234C26.6443 13.7793 26.7436 13.7242 26.7987 13.7242C26.8098 13.6801 26.8318 13.6249 26.9421 13.5367C26.9973 13.5146 27.0524 13.4926 27.1296 13.4374C27.1627 13.4044 27.2068 13.3602 27.295 13.3161C27.3061 13.283 27.3612 13.283 27.3943 13.2169C27.4715 13.1617 27.5156 13.0955 27.5487 13.0955C27.5487 13.0955 27.67 13.0625 27.6921 12.9963C27.7362 12.9963 27.7803 12.9963 27.8465 12.9411C27.8796 12.9301 27.9347 12.886 28.0009 12.8529C28.045 12.8309 28.045 12.7978 28.1442 12.7647C28.1663 12.7647 28.2104 12.7316 28.2766 12.7316C28.3097 12.7095 28.3428 12.6765 28.3979 12.6544C28.3979 12.6544 28.4861 12.6544 28.5082 12.6103C28.5633 12.6103 28.6626 12.5993 28.6736 12.5662C28.7067 12.5551 28.7508 12.5551 28.7508 12.5551C28.8501 12.5331 28.8501 12.5331 28.8942 12.5331C28.9273 12.5331 28.9824 12.5221 29.0376 12.5H29.1479H29.2581H29.3795C29.4125 12.5221 29.4346 12.5331 29.5008 12.5331C29.5449 12.5331 29.5449 12.5331 29.6 12.5551C29.6552 12.5551 29.6883 12.5551 29.7324 12.5662C29.7324 12.5993 29.7765 12.6103 29.8537 12.6544C29.8537 12.6544 29.8868 12.6544 29.9309 12.6765C29.964 12.6765 30.0522 12.7095 30.0743 12.7316C30.0743 12.7647 30.0853 12.7647 30.1404 12.8088C30.1404 12.8309 30.2066 12.8639 30.2066 12.886C30.2507 12.9411 30.2838 12.9411 30.339 13.0073C30.339 13.0073 30.4272 13.0735 30.4272 13.1066C30.4272 13.1066 30.5264 13.1066 30.5264 13.2058C30.5816 13.261 30.5816 13.2941 30.6367 13.3272C30.6478 13.3713 30.6919 13.4264 30.6919 13.4816C30.7691 13.5257 30.7801 13.5477 30.8353 13.6249C30.8463 13.6801 30.8683 13.7242 30.8683 13.7793C30.9455 13.8234 30.9455 13.8345 31.0007 13.9006C31.0338 13.9778 31.0558 14.044 31.0779 14.0992C31.1441 14.2425 31.1992 14.408 31.2654 14.5183C31.3536 14.6506 31.3977 14.794 31.4308 14.9373C31.5411 15.0476 31.5962 15.2131 31.6293 15.3233C31.7065 15.4557 31.7506 15.5439 31.7837 15.7094C31.8499 15.8417 31.883 15.974 31.883 16.0954C31.9492 16.2387 31.9822 16.3821 32.0153 16.4593C32.0925 16.6137 32.1036 16.6909 32.1697 16.8233C32.1697 16.9666 32.2028 17.0769 32.2138 17.2313C32.28 17.3306 32.28 17.4519 32.3131 17.5401C32.3462 17.7166 32.3462 17.7717 32.3793 17.9041C32.3903 18.0144 32.3903 18.0916 32.4234 18.2018C32.4234 18.3121 32.4454 18.4555 32.4565 18.5217V18.8415V19.1283V19.4481C32.4454 19.5032 32.4234 19.6797 32.4234 19.7238C32.3903 19.8341 32.3903 19.9664 32.3793 20.0216C32.3462 20.1429 32.3462 20.2311 32.3131 20.3414C32.3131 20.3855 32.28 20.4848 32.258 20.562C32.2138 20.7054 32.2028 20.7715 32.1697 20.8708C32.1697 20.9149 32.1036 20.97 32.0925 21.1134C32.0925 21.1796 32.0153 21.2678 31.9822 21.345C31.9492 21.4333 31.883 21.5435 31.883 21.5435C31.8389 21.709 31.8389 21.7641 31.7837 21.8193C31.7506 21.9516 31.7065 22.0178 31.6514 22.0729C31.5962 22.1612 31.5521 22.2494 31.5301 22.3156C31.4198 22.3928 31.4198 22.492 31.3977 22.5692C31.3095 22.6685 31.2654 22.7126 31.1992 22.7457C31.1551 22.878 31.0999 22.9552 31.0779 22.9773C31.0338 23.0876 30.9455 23.1317 30.8683 23.253C30.8463 23.2971 30.7911 23.3633 30.736 23.4074C30.6588 23.5067 30.6037 23.5728 30.5375 23.65C30.5154 23.7162 30.4162 23.7493 30.339 23.8706C30.2728 23.9147 30.1846 24.0029 30.1735 24.0691C30.1074 24.0912 30.0412 24.2015 29.953 24.2897C29.8537 24.3118 29.8206 24.3779 29.7434 24.4662C29.6993 24.5544 29.6221 24.5875 29.5339 24.6978C29.4567 24.7308 29.4015 24.786 29.3354 24.8632C29.2582 24.9073 29.1589 25.0396 29.1037 25.0617C29.0376 25.161 28.9383 25.194 28.8721 25.2823C28.7949 25.3374 28.7067 25.3815 28.6516 25.4477C28.6185 25.547 28.4972 25.5911 28.4089 25.6903C28.3428 25.7345 28.2656 25.8006 28.1553 25.8778C28.0891 25.933 27.9898 26.0102 27.9457 26.0984C27.8134 26.1425 27.7913 26.2197 27.681 26.2749C27.6149 26.3079 27.5377 26.4293 27.4605 26.4844C27.4053 26.5506 27.2619 26.6498 27.2509 26.6829C27.1627 26.7601 27.0855 26.8373 27.0083 26.8704C26.909 26.9807 26.8098 27.0358 26.7657 27.0689C26.6774 27.1902 26.5782 27.2785 26.523 27.3116C26.4238 27.3777 26.3466 27.4439 26.2583 27.5321C26.2253 27.5983 26.1039 27.6314 26.0157 27.7307C25.9385 27.7968 25.8172 27.874 25.7731 27.9071C25.7179 28.0174 25.6518 28.1167 25.5304 28.2049C25.4753 28.238 25.3871 28.3703 25.2988 28.3924C25.2216 28.4696 25.1886 28.5578 25.1003 28.6571C25.0452 28.6901 24.9239 28.8225 24.8356 28.8776C24.7364 28.9659 24.7143 29.032 24.6261 29.1534C24.5489 29.1975 24.4607 29.3408 24.4165 29.385C24.3283 29.4401 24.2732 29.5173 24.196 29.6276C24.1408 29.7048 24.0526 29.793 23.9644 29.9254C23.9203 30.0136 23.8541 30.0687 23.7659 30.1349C23.6997 30.2231 23.6335 30.3003 23.5894 30.4217C23.4791 30.5099 23.435 30.6091 23.3468 30.6974C23.3026 30.7746 23.2475 30.8849 23.1703 30.9621C23.1262 31.0393 23.0269 31.1165 22.9828 31.2268C22.9387 31.304 22.8725 31.4032 22.8064 31.4694C22.7733 31.5245 22.7071 31.6679 22.663 31.7451C22.6078 31.8113 22.5637 31.9105 22.4865 31.9988C22.4093 32.0649 22.3652 32.1532 22.3101 32.2524C22.3101 32.3186 22.2439 32.4289 22.1777 32.4951C22.1005 32.5723 22.0674 32.6605 22.0343 32.7708C21.913 32.8259 21.891 32.9141 21.8799 32.9913C21.7917 33.0575 21.7476 33.2009 21.7035 33.256C21.6152 33.3332 21.5932 33.4215 21.538 33.4987C21.4829 33.5759 21.4498 33.6972 21.3947 33.7523C21.3726 33.8406 21.3395 33.9398 21.2734 33.9729C21.2182 34.0501 21.1851 34.1604 21.1079 34.2486C21.0748 34.3038 21.0197 34.392 20.9756 34.4802C20.9204 34.6015 20.9204 34.6567 20.8432 34.7339C20.7881 34.8001 20.7771 34.8773 20.7219 34.9655C20.6999 35.0647 20.6558 35.1309 20.6006 35.2191C20.5675 35.3074 20.5124 35.3625 20.4683 35.4397C20.4683 35.55 20.38 35.6162 20.3249 35.7044C20.3249 35.7706 20.2918 35.8698 20.2367 35.925C20.2256 36.0132 20.2036 36.1014 20.1484 36.1786C20.0933 36.2669 20.0602 36.322 20.0161 36.3992C20.0161 36.4985 19.9609 36.5646 19.9058 36.6308C19.9058 36.697 19.8837 36.8293 19.8617 36.8845C19.8065 36.9617 19.8065 37.0499 19.7404 37.094C19.6742 37.1933 19.6742 37.2595 19.608 37.3367C19.597 37.4028 19.597 37.5352 19.4977 37.5903C19.4977 37.6234 19.4757 37.7668 19.4647 37.833C19.4205 37.866 19.4205 37.9543 19.3544 38.0204C19.3544 38.1087 19.3103 38.219 19.2992 38.2962C19.2661 38.3623 19.2441 38.4506 19.222 38.5388C19.1889 38.5829 19.1889 38.6711 19.1228 38.7263C19.1228 38.8145 19.1007 38.9248 19.1007 39.002C19.0014 39.0792 19.0014 39.1123 18.9684 39.1785C18.9684 39.2887 18.9684 39.3329 18.9353 39.4321C18.9242 39.5203 18.9242 39.5865 18.836 39.6747C18.814 39.7519 18.814 39.8181 18.7919 39.8733C18.7919 39.9615 18.7698 40.0608 18.7698 40.1159C18.7478 40.2262 18.7037 40.2482 18.7037 40.3806C18.6926 40.4468 18.6706 40.535 18.6154 40.5791C18.6154 40.6453 18.6154 40.7004 18.5934 40.8217C18.5493 40.8879 18.5493 40.9651 18.5272 41.0533C18.5272 41.1195 18.4941 41.1747 18.4831 41.2849C18.4831 41.2849 18.4831 41.4283 18.4169 41.5386C18.4169 41.5607 18.4169 41.6379 18.3949 41.704C18.3949 41.8253 18.3949 41.8584 18.3618 41.9577C18.3618 42.0349 18.3618 42.09 18.3508 42.2114C18.3508 42.2775 18.3397 42.3658 18.3397 42.4319C18.3397 42.4871 18.3397 42.5974 18.2735 42.6304C18.2735 42.7297 18.2735 42.8069 18.2294 42.8951C18.2294 42.9723 18.2184 43.0385 18.2184 43.1598C18.2184 43.215 18.1964 43.2922 18.1964 43.3694C18.1964 43.4135 18.1522 43.4907 18.1522 43.5789C18.1522 43.6782 18.1522 43.7223 18.1522 43.8546V44.0532C18.1522 44.0973 18.1081 44.1855 18.1081 44.3068V44.4722C18.1081 44.6156 18.0971 44.6818 18.0971 44.781V45.0126V45.2222V45.4428V45.6854V45.906V46.5346V47.1081C18.1081 47.3397 18.1081 47.5051 18.1412 47.7037C18.1412 47.9463 18.1412 48.1117 18.1853 48.3102C18.1853 48.5308 18.2074 48.7624 18.2625 48.9278C18.2625 49.0933 18.3287 49.2918 18.3287 49.5013C18.3507 49.6888 18.3507 49.8984 18.3838 50.1189C18.4059 50.2844 18.4721 50.4719 18.4941 50.6704C18.5272 50.8799 18.6044 51.0453 18.6265 51.288C18.6816 51.4865 18.7147 51.696 18.7809 51.8504C18.8029 51.9938 18.836 52.2475 18.9463 52.4239C18.9904 52.6114 18.9904 52.7879 19.0235 52.9754C19.1448 53.1629 19.211 53.3393 19.2441 53.5158C19.2882 53.6922 19.3433 53.8908 19.4536 54.1003C19.4977 54.2768 19.5308 54.4753 19.6301 54.6407C19.6742 54.8061 19.7183 55.0157 19.8286 55.2142C19.9058 55.3686 19.9279 55.5781 20.0381 55.7656C20.0933 55.92 20.1705 56.1296 20.2587 56.273C20.3469 56.4494 20.4021 56.6369 20.4903 56.8244C20.5786 57.0229 20.6668 57.1442 20.7771 57.3317C20.8543 57.5192 20.9315 57.6846 21.0307 57.8721C21.0969 58.0265 21.2403 58.225 21.3616 58.3905C21.4167 58.5449 21.505 58.7434 21.6153 58.8978C21.7255 59.0301 21.8027 59.2066 21.902 59.3831C22.0454 59.5375 22.1115 59.7139 22.2549 59.8573C22.3211 60.0227 22.4203 60.1882 22.5747 60.3536C22.674 60.53 22.7733 60.6403 22.8836 60.7947C22.9938 61.0153 23.1041 61.1697 23.2475 61.28C23.3357 61.4454 23.4791 61.6109 23.5894 61.7542C23.6997 61.8645 23.821 62.063 23.9533 62.2174C24.0747 62.3498 24.1849 62.5152 24.3063 62.6476C24.4496 62.7468 24.5599 62.9122 24.6702 63.0446C24.8246 63.188 24.957 63.3203 25.0893 63.4747C25.2106 63.6071 25.343 63.7835 25.4753 63.8938C25.6518 64.0372 25.751 64.1254 25.9054 64.2688C26.0488 64.3791 26.2142 64.5776 26.3355 64.6879C26.4679 64.7651 26.6002 64.8974 26.7546 65.0518C26.9201 65.1842 27.0745 65.3275 27.2399 65.4268C27.3392 65.5371 27.4936 65.6474 27.6369 65.7797C27.8244 65.8569 27.9898 65.9782 28.1112 66.1547C28.2876 66.2209 28.4531 66.3422 28.6185 66.4194C28.7949 66.5517 28.9273 66.6399 29.0927 66.7613C29.2912 66.8716 29.4015 66.9929 29.6111 67.0921C29.7434 67.1804 29.9309 67.2906 30.0963 67.3458C30.2397 67.4892 30.3941 67.6105 30.6147 67.6546C30.7581 67.809 30.9345 67.8752 31.0889 67.8972C31.2543 68.0296 31.4198 68.1068 31.6183 68.195C31.7948 68.2943 31.9492 68.3715 32.1587 68.4597C32.3352 68.5259 32.5337 68.6582 32.6881 68.6913C32.8976 68.7905 33.0851 68.8457 33.2395 68.956C33.438 69.0222 33.6035 69.0773 33.813 69.1435C33.9784 69.1876 34.1439 69.2317 34.3975 69.342C34.585 69.4082 34.7174 69.4192 34.949 69.4743C35.1585 69.5405 35.346 69.6067 35.5335 69.6839C35.743 69.739 35.9195 69.7721 36.1401 69.8383C36.3276 69.8383 36.5261 69.9486 36.7136 69.9486C36.9121 70.0147 37.1326 70.0258 37.3091 70.0809C37.4856 70.125 37.6731 70.1471 37.9488 70.1691C38.1142 70.2353 38.2796 70.2463 38.5333 70.2794C38.7428 70.3346 38.9524 70.3346 39.1399 70.3787C39.3274 70.3787 39.5369 70.4007 39.7134 70.4007C40.0111 70.4228 40.1986 70.4228 40.3971 70.4559C40.5957 70.5 40.8604 70.5 41.0478 70.5H41.6544H42.3272C42.5036 70.5 42.7132 70.5 42.8786 70.4559C43.0992 70.4228 43.2977 70.4228 43.4631 70.4007C43.7058 70.4007 43.9043 70.3787 44.1138 70.3787C44.3013 70.3235 44.4888 70.3235 44.6873 70.2794C44.8527 70.2463 45.0733 70.2353 45.2939 70.1691C45.4483 70.1581 45.6578 70.1581 45.8564 70.0809C46.0659 70.0258 46.2093 70.0147 46.3968 69.9486C46.6284 69.9486 46.8048 69.9155 46.9813 69.8383C47.1577 69.7721 47.4114 69.7611 47.5879 69.6839C47.7643 69.6618 47.9408 69.5846 48.1503 69.5405C48.3378 69.4743 48.5143 69.4082 48.7128 69.342C48.9003 69.2979 49.0437 69.2207 49.2422 69.1545C49.4407 69.0663 49.573 69.0222 49.7826 68.956C49.959 68.8678 50.1134 68.7905 50.3009 68.7244C50.4994 68.6472 50.6318 68.5589 50.8083 68.4928C50.9847 68.3935 51.2053 68.3715 51.3487 68.2391C51.4589 68.1619 51.6795 68.1178 51.8891 67.9855C52.0214 67.8972 52.1868 67.809 52.3633 67.7097C52.4626 67.6546 52.6611 67.5333 52.8155 67.4671C53.025 67.3458 53.1684 67.2906 53.389 67.1693C53.5434 67.048 53.6647 66.9818 53.8081 66.8716C54.0176 66.7723 54.172 66.6179 54.3044 66.5517C54.4588 66.3973 54.6462 66.3422 54.8117 66.2319C54.922 66.0885 55.0764 65.9893 55.2308 65.8349C55.3741 65.7907 55.5727 65.6363 55.694 65.504C55.8373 65.4268 55.9587 65.3055 56.1131 65.1621C56.2785 65.0628 56.4329 64.9195 56.5873 64.7871C56.7196 64.6548 56.852 64.5335 56.9843 64.3791C57.1057 64.2577 57.249 64.1364 57.4034 64.0372C57.5578 63.8828 57.6571 63.7063 57.7894 63.6071C57.9218 63.4637 58.0762 63.3424 58.1534 63.188C58.2857 63.0446 58.4622 62.8902 58.5835 62.7578C58.7158 62.6255 58.8041 62.5042 58.9474 62.3498C59.0577 62.2064 59.2011 62.0741 59.3335 61.8645C59.4658 61.7653 59.554 61.5998 59.6753 61.4675C59.7967 61.291 59.9069 61.1587 60.0724 61.0153C60.1716 60.8388 60.2488 60.6624 60.3481 60.5742C60.4804 60.3315 60.5797 60.2212 60.701 60.0448C60.8444 59.9014 60.8775 59.7139 61.0208 59.5485C61.087 59.4161 61.2083 59.2287 61.3407 59.0632C61.4289 58.9309 61.5392 58.6883 61.5943 58.5008C61.7157 58.4015 61.7929 58.2361 61.8921 58.0265C61.9583 57.8831 62.0906 57.6957 62.1458 57.5082C62.2781 57.3538 62.3112 57.1663 62.4325 56.9678C62.4877 56.8134 62.5979 56.6479 62.6751 56.4604C62.7413 56.273 62.8737 56.1737 62.9178 55.9531C62.9619 55.7546 63.0612 55.5451 63.1163 55.3686C63.2045 55.1921 63.2486 55.0157 63.3479 54.8503C63.4251 54.6628 63.4913 54.4532 63.4913 54.3209C63.6236 54.0782 63.6236 53.9128 63.7118 53.7033C63.778 53.5489 63.8332 53.3283 63.8993 53.1629C63.9655 52.9974 63.9876 52.7989 64.0758 52.6114C64.0868 52.4019 64.164 52.1923 64.2192 51.9938C64.2633 51.7843 64.3074 51.6299 64.3515 51.4865C64.4067 51.2439 64.4618 51.0784 64.4839 50.8799C64.4839 50.6814 64.528 50.4829 64.55 50.2844C64.5941 50.1189 64.6603 49.9094 64.6603 49.6888C64.6713 49.5234 64.6824 49.358 64.7155 49.0933C64.7596 48.9168 64.7596 48.7514 64.8257 48.4977C64.8257 48.3213 64.8257 48.0786 64.8478 47.9132C64.8478 47.6816 64.8478 47.5051 64.8478 47.2846C64.8588 47.075 64.8588 46.8544 64.8588 46.6559C64.8809 46.4464 64.8809 46.2699 64.8809 46.0493V45.7736C64.8809 45.6854 64.8809 45.6192 64.8588 45.4648V45.2442C64.8588 45.1229 64.8588 45.0237 64.8478 44.9134V44.6266V44.3509C64.8478 44.2737 64.8147 44.1634 64.8147 44.0752V43.8215C64.8147 43.7443 64.8147 43.623 64.7485 43.5348V43.2591C64.7155 43.1378 64.7044 43.1047 64.7044 42.9723C64.6713 42.9062 64.6713 42.8069 64.6603 42.6966C64.6493 42.5863 64.6493 42.5312 64.6493 42.4209C64.6493 42.3547 64.6052 42.2113 64.6052 42.1452C64.5721 42.1011 64.5721 41.9577 64.528 41.9246C64.528 41.7923 64.5059 41.7151 64.4618 41.6379V41.3511C64.4618 41.2519 64.4287 41.1857 64.3736 41.0864C64.3736 41.0092 64.3184 40.921 64.3184 40.8438C64.3184 40.7335 64.2853 40.6673 64.2853 40.6232C64.2853 40.4798 64.2302 40.4026 64.2081 40.3144C64.1861 40.2482 64.1309 40.16 64.1309 40.0608C64.1309 39.9725 64.0979 39.8733 64.0537 39.8291C64.0427 39.6968 64.0427 39.6417 63.9986 39.5645C63.9986 39.4873 63.9655 39.377 63.9435 39.2667C63.9435 39.1895 63.9104 39.1343 63.8773 39.0902C63.8111 38.9469 63.8111 38.8917 63.789 38.8035C63.756 38.7152 63.7449 38.638 63.6898 38.5608C63.6898 38.4616 63.6346 38.3954 63.6016 38.3403C63.6016 38.2079 63.6016 38.1197 63.5574 38.0535C63.5244 37.9653 63.4692 37.9102 63.4692 37.7999C63.4692 37.7337 63.403 37.6896 63.3479 37.5903C63.3258 37.5131 63.3258 37.4139 63.3148 37.3697C63.2156 37.2705 63.2156 37.1712 63.1714 37.1161C63.1714 37.0279 63.1604 36.9507 63.0832 36.8955C63.0832 36.8073 63.017 36.7411 62.9398 36.6088C62.9398 36.5757 62.9398 36.4654 62.8957 36.4102C62.8516 36.3551 62.8516 36.2889 62.8516 36.2007C62.7965 36.1235 62.7193 36.0242 62.6531 35.9801C62.6531 35.8698 62.609 35.8147 62.5759 35.7154C62.5318 35.6603 62.4987 35.5721 62.4656 35.5059C62.4656 35.4397 62.4105 35.3405 62.4105 35.3074C62.3333 35.175 62.2891 35.1419 62.2671 35.0427C62.2561 34.9765 62.2119 34.8993 62.1237 34.8442C62.1127 34.767 62.0686 34.7229 62.0686 34.6346C62.0245 34.5464 61.9362 34.4692 61.9142 34.381C61.9031 34.3589 61.837 34.2707 61.8039 34.1604C61.7708 34.0942 61.7487 34.0391 61.7046 34.006C61.6605 33.9178 61.6274 33.8626 61.5833 33.7964C61.5392 33.6641 61.5282 33.6531 61.484 33.5318C61.4399 33.4987 61.3517 33.4435 61.3186 33.3112C61.3186 33.3112 61.2414 33.1788 61.1863 33.1237C61.1642 33.0796 61.1532 32.9803 61.065 32.9252C61.0208 32.87 60.9988 32.7818 60.9436 32.7267C60.9106 32.6715 60.8334 32.5833 60.8334 32.5392C60.8223 32.473 60.7561 32.3737 60.701 32.3076C60.6459 32.2414 60.5797 32.1973 60.5356 32.1532C60.5356 32.0429 60.4584 32.0208 60.4032 31.9436C60.3922 31.8554 60.3371 31.8002 60.304 31.7451C60.2488 31.6458 60.2488 31.5907 60.2047 31.5797C60.1385 31.4914 60.0834 31.4253 60.0613 31.3701C59.9841 31.304 59.8849 31.2378 59.8849 31.1826C59.8187 31.1275 59.8077 31.0834 59.7415 31.0172C59.6864 30.9179 59.6533 30.8628 59.6202 30.8297C59.532 30.7415 59.4658 30.6422 59.3665 30.5099C59.3114 30.4327 59.1791 30.3003 59.1349 30.2011C59.0357 30.1459 58.9585 30.0577 58.8482 29.9254C58.782 29.8371 58.7048 29.7599 58.6607 29.6496C58.5725 29.5835 58.4953 29.5063 58.374 29.385C58.2747 29.2967 58.2196 29.1754 58.1423 29.1423C58.0872 29.0431 57.9769 28.9659 57.9107 28.8335C57.8115 28.8004 57.7784 28.6901 57.6461 28.6129C57.5909 28.5027 57.4586 28.4585 57.3924 28.3483C57.3152 28.2821 57.238 28.238 57.1498 28.1387C57.0836 28.0174 57.0064 27.9402 56.9182 27.874C56.852 27.7748 56.7417 27.7527 56.7086 27.6424C56.5983 27.5763 56.5101 27.5101 56.4219 27.4329C56.3447 27.3667 56.2564 27.2674 56.2123 27.1792C56.0579 27.1682 55.9587 27.0579 55.9145 27.0138C55.8263 26.9366 55.7712 26.8484 55.6829 26.8042C55.5947 26.694 55.5727 26.6388 55.4183 26.5837C55.3631 26.4623 55.2749 26.4293 55.2197 26.3741C55.0874 26.2969 55.0543 26.2197 54.9771 26.1646C54.8999 26.0763 54.8117 26.0322 54.7345 25.955C54.6793 25.8447 54.5249 25.8006 54.5029 25.7565C54.4146 25.6683 54.3485 25.6131 54.2823 25.547C54.183 25.4808 54.15 25.4477 54.0617 25.3595C53.9845 25.2712 53.8742 25.194 53.786 25.1499C53.7529 25.0727 53.6426 25.0066 53.5765 24.9404C53.5323 24.8963 53.4551 24.797 53.389 24.7529C53.3669 24.6867 53.2566 24.6316 53.2566 24.5434C53.0912 24.4662 53.0581 24.4551 53.003 24.3559C52.9589 24.2897 52.8706 24.2235 52.7934 24.1904C52.7714 24.0801 52.6501 24.036 52.628 23.9588C52.5728 23.9037 52.4405 23.8155 52.3854 23.7713C52.3854 23.6611 52.2971 23.6611 52.242 23.5177C52.1979 23.4736 52.1207 23.4184 52.0655 23.3412C52.0104 23.2971 51.9994 23.2089 51.9332 23.1427C51.9001 23.0434 51.867 23.0435 51.8119 22.9111C51.7126 22.8339 51.7126 22.8339 51.6575 22.7346C51.5692 22.6685 51.5141 22.5802 51.492 22.481C51.4148 22.4148 51.3817 22.3266 51.3707 22.2714C51.3266 22.1832 51.2715 22.1391 51.2494 22.095C51.2163 21.9847 51.1722 21.9185 51.1501 21.8744C51.095 21.7421 51.0729 21.6759 51.0288 21.5987C51.0178 21.5105 50.9627 21.4333 50.8965 21.345C50.8744 21.2789 50.8744 21.1906 50.8744 21.0803C50.8303 21.0362 50.7752 20.937 50.7641 20.8708C50.7421 20.8046 50.72 20.6833 50.72 20.6282C50.6759 20.5179 50.6759 20.4407 50.6759 20.3635C50.6318 20.2863 50.6318 20.187 50.5987 20.1319V19.812C50.5987 19.6797 50.5877 19.6135 50.5877 19.5253V19.029V18.6871C50.5877 18.654 50.5987 18.5217 50.5987 18.4114C50.5987 18.3121 50.5987 18.2239 50.6318 18.0916C50.6318 17.9813 50.6759 17.882 50.6759 17.7938C50.6759 17.6725 50.6759 17.5291 50.72 17.4739C50.7421 17.3747 50.7752 17.2313 50.8303 17.099C50.8303 16.9777 50.8744 16.8894 50.8744 16.7681C50.8965 16.6358 50.9627 16.5586 51.0178 16.4042C51.0619 16.2718 51.095 16.1615 51.1501 16.0402C51.1722 15.9189 51.2163 15.7755 51.2494 15.6542C51.3045 15.4888 51.3487 15.3564 51.3817 15.2682C51.4148 15.1579 51.492 14.9925 51.5361 14.8822C51.6133 14.7388 51.6575 14.5955 51.7126 14.4741C51.7788 14.3528 51.856 14.1874 51.9001 14.055Z" fill="#F58220"/>
</svg>
