<svg width="100" height="100" viewBox="0 0 100 100" fill="none" xmlns="http://www.w3.org/2000/svg">
<path d="M18.0664 17.4316H64.0137L65.4297 17.5293L66.4062 17.7246L67.5293 18.1152L68.7012 18.75L69.4824 19.3848L69.9707 19.8242L70.3125 20.166L70.9473 20.9961L71.3867 21.7773L71.7285 22.5098L72.0215 23.3887L72.168 24.0723L72.2656 25.0488L72.3145 26.9531L72.2656 92.4316L72.1191 93.7012L71.8262 94.7266L71.5332 95.459L71.0449 96.3379L70.6543 96.875L70.2148 97.4121L69.8242 97.8516L69.1406 98.3887L68.6035 98.7793L67.8223 99.2188L66.8457 99.6094L66.0156 99.8535L65.2832 100H16.5039V99.9023L15.3809 99.6094L14.5996 99.3164L13.5254 98.7305L13.0371 98.3398L12.5 97.9004L11.9629 97.3633L11.5234 96.8262L11.084 96.1914L10.5469 95.166L10.2051 94.1406L10.0586 93.5059L9.91211 91.9922V25.3906L10.0586 23.9258L10.2539 23.1934L10.5469 22.3145L10.9375 21.5332L11.2305 21.0449L11.6699 20.459L12.2559 19.7754L12.793 19.2871L13.4277 18.7988L14.4531 18.2129L15.1367 17.9199L16.1621 17.627L17.2852 17.4805L18.0664 17.4316ZM25.1465 22.998L17.627 23.0469L16.8457 23.2422L16.1621 23.7305L15.8203 24.2188L15.625 24.6582L15.5273 25.1465L15.4785 26.123V91.9434L15.5762 92.627L15.7715 93.1641L16.1133 93.6523L16.5039 93.9941L17.0898 94.2871L17.5293 94.3848L18.0176 94.4336H64.1602L64.8438 94.3359L65.332 94.1895L65.918 93.7988L66.2598 93.4082L66.5527 92.8223L66.6504 92.334V25.1465L66.5039 24.5117L66.2109 23.9746L65.918 23.6328L65.2832 23.2422L64.5508 23.0469L58.3984 22.998H25.1465Z" fill="#E4A438"/>
<path d="M34.2773 0L34.4238 0.0488281L34.5703 0H83.3984L83.4473 0.0976562L84.668 0.439453L85.2539 0.683594L86.1816 1.17188L86.7188 1.5625L87.2559 2.00195L87.7441 2.44141L88.1836 2.97852L88.623 3.56445L89.1113 4.44336L89.4531 5.22461L89.6973 6.05469L89.8438 6.93359L89.8926 7.4707L89.9414 8.64258V68.5547L89.8926 75L89.7949 75.9277L89.5508 76.9531L89.2578 77.7832L88.5254 79.1016L88.0859 79.6387L87.7441 80.0781H87.6465L87.5488 80.2734L87.0117 80.7129L86.5234 81.1035L85.498 81.6895L84.8633 81.9824L83.7402 82.3242L82.8125 82.4707L82.373 82.5195H81.5918L81.0059 82.373L80.4199 82.0801L79.834 81.543L79.4922 81.0059L79.248 80.4199L79.1992 80.1758V79.3457L79.3457 78.7598L79.6387 78.1738L80.1758 77.5879L80.6641 77.2461L81.2988 77.002L82.5195 76.8066L83.0078 76.6602L83.6914 76.1719L84.082 75.5371L84.2285 75L84.2773 74.6582V7.8125L84.1309 7.08008L83.8867 6.5918L83.4473 6.10352L82.8613 5.76172L82.1777 5.61523L78.2715 5.56641H40.4785L35.2539 5.61523L34.6191 5.76172L34.0332 6.10352L33.6426 6.54297L33.3984 6.93359L33.252 7.51953L33.0566 8.64258L32.8125 9.22852L32.4707 9.76562H32.373L32.2754 9.96094L31.7383 10.3516L31.0547 10.5957L30.6641 10.6934H30.0781L29.5898 10.5957L29.0039 10.3516L28.5156 10.0098L28.1738 9.66797L27.832 9.13086L27.6367 8.64258L27.5879 8.39844V7.27539L27.7344 6.20117L28.0762 5.07812L28.6133 3.95508L29.0527 3.27148L29.5898 2.63672L29.9316 2.24609L30.4688 1.75781L31.25 1.17188L32.373 0.585938L33.3984 0.244141L33.8867 0.0976562H34.1309L34.2773 0Z" fill="#E4A438"/>
</svg>
