<svg width="69" height="69" viewBox="0 0 69 69" fill="none" xmlns="http://www.w3.org/2000/svg">
<g clip-path="url(#clip0_1_889)">
<path d="M34.1974 6.31762H34.8026L34.5 7.01687L34.1968 6.74734L34.8026 6.31762H35.5592L35.8477 6.34304L37.0605 6.54519L37.8691 6.74734L38.7788 7.05056L39.7896 7.48855L40.5981 7.92654L40.9688 8.16238L41.5078 8.53298L41.9458 8.8699L42.3838 9.2405L42.8218 9.6448L43.3271 10.1502L43.6304 10.5208L43.9673 10.9251L44.439 11.5989L44.7422 12.1043L45.0454 12.6433L45.416 13.4182L45.7529 14.2942L46.0225 15.2039L46.1909 16.0125L46.3257 16.9558V17.1243H49.4927L49.5264 17.158L49.5601 23.4246L49.5264 23.492H46.3257V28.95L56.8374 28.9837L57.0732 29.0174L57.1069 35.284L57.0732 35.3513H53.8726V37.6087H68.8652L69 37.7434V43.9763H66.8101V55.9368H68.8989L69 56.0716V62.3045H0V56.0042L0.0673828 55.9368H2.18994V43.9763H0.0336914L0 43.8416V37.676L0.202148 37.6087H15.1274V35.3513H11.9268L11.8931 35.3176V29.0174L12.0952 28.9837H22.6743V23.492H19.4736L19.4399 23.4583V17.158L19.5073 17.1243H22.7754L22.9438 15.9451L23.146 15.0354L23.4155 14.1931L23.6851 13.4856L23.9883 12.8118L24.3252 12.1717L24.7295 11.5315L25.1338 10.9588L25.5718 10.4197L25.9424 9.98171H26.0098L26.0771 9.84695L26.5825 9.34158L26.8521 9.10574L27.3911 8.66775L28.0649 8.19607L28.7725 7.75808L29.48 7.38747L30.356 7.01687L31.2656 6.71365L32.1416 6.5115L32.9165 6.37673L33.4556 6.34304L34.1974 6.31762ZM34.727 6.5115L34.9539 6.31762H34.8026H35.1053H35.4079L35.2566 6.92289L34.727 6.5115ZM34.1968 8.39822L33.3545 8.4656L32.6807 8.56667L31.8384 8.76882L31.0298 9.03835L30.3223 9.34158L29.5811 9.74587L28.9746 10.1502L28.5029 10.4871L28.166 10.7903L27.8965 11.0261L27.2227 11.7L26.9194 12.0706L26.5488 12.5759L26.2119 13.0813L25.875 13.6878L25.5718 14.3279L25.3359 14.9343L25.1001 15.7429L24.9316 16.5515L24.8643 16.9221V17.1243H44.2705L44.1694 16.4168L43.9673 15.5071L43.6304 14.4964L43.2261 13.6204L42.8892 13.0139L42.5186 12.4749L42.1816 12.0369L41.8784 11.6663L41.3394 11.0935H41.272V11.0261L40.9014 10.7229L40.4971 10.386L39.9243 9.98171L39.4189 9.67849L38.644 9.27419L37.8018 8.93728L37.0269 8.70144L36.0498 8.49929L34.8369 8.39822H34.1968ZM21.5288 19.1795L21.4951 19.2468V21.3357L21.5288 21.4368L47.3701 21.4705L47.4712 21.4368V19.1795H21.5288ZM24.7632 23.492L24.7295 24.5027V28.8489L24.7632 28.9837L26.751 29.0174L26.9868 28.9837V23.492H24.7632ZM29.0757 23.492L29.042 24.2669V28.8489L29.0757 28.9837L31.0635 29.0174L31.2993 28.9837V23.492H29.0757ZM33.3882 23.492L33.3545 24.2669V28.8489L33.3882 28.9837L35.376 29.0174L35.6118 28.9837V23.492H33.3882ZM37.7007 23.492L37.667 24.2669V28.8489L37.7007 28.9837L39.6885 29.0174L39.9243 28.9837V23.492H37.7007ZM42.0132 23.492L41.9795 24.2669V28.8489L42.0132 28.9837L44.001 29.0174L44.2368 28.9837V23.492H42.0132ZM13.9819 31.0388L13.9482 31.2073V33.2962L54.917 33.3299L55.0181 33.2962V31.0388H13.9819ZM17.2163 35.3513L17.1826 35.7893V55.9368L26.1776 55.9705H27.0855L48.1184 55.9566L43.0576 55.9368V55.9599V55.802V55.9368L51.6826 55.9705L51.7837 55.9368V35.3513H17.2163ZM2.08887 39.6638V41.9212L15.0264 41.9549L15.1274 41.9212V39.6638H2.08887ZM53.8726 39.6638L53.8389 39.8323V41.9212L53.9736 41.9549L66.8774 41.9212V39.6638H53.8726ZM4.27881 43.9763L4.24512 44.3806V55.9368L6.16553 55.9705H6.40137L6.50244 55.9368V43.9763H4.27881ZM8.59131 43.9763L8.55762 44.5491V55.9368L13.9482 55.9705H15.0264L15.1274 55.9368V43.9763H12.9038L12.8701 44.2796V55.9637L10.8149 57.765V43.9763H8.59131ZM53.8726 43.9763L53.8389 44.0437V55.802L53.8726 55.9368L55.7593 55.9705H55.9951L56.0962 55.9368V43.9763H53.8726ZM58.1851 43.9763L58.1514 44.5491V55.8357L58.1851 55.9368L60.0718 55.9705H60.3076L60.4087 55.9368V43.9763H58.1851ZM62.4976 43.9763L62.4639 44.4143V55.8357L62.4976 55.9368L64.4854 55.9705L64.7212 55.9368V43.9763H62.4976ZM28.4474 55.9448L27.9976 55.9368L29.8843 55.9705H30.1201L28.4474 55.9448ZM38.7316 55.9628L40.6655 55.9705H40.9014L38.7316 55.9628ZM2.12256 57.992L2.08887 58.1604V60.2493H66.8774V57.992H2.12256Z" fill="black"/>
<path d="M34.844 49.4405V48.8021C34.844 48.3174 34.9464 47.8721 35.1513 47.4663C35.3602 47.0564 35.6616 46.7294 36.0557 46.4851C36.4537 46.2368 36.9384 46.1127 37.5097 46.1127C38.089 46.1127 38.5757 46.2348 38.9697 46.4792C39.3677 46.7235 39.6672 47.0505 39.8681 47.4603C40.073 47.8662 40.1755 48.3135 40.1755 48.8021V49.4405C40.1755 49.9251 40.073 50.3724 39.8681 50.7822C39.6632 51.1881 39.3618 51.5132 38.9638 51.7575C38.5658 52.0057 38.0811 52.1299 37.5097 52.1299C36.9305 52.1299 36.4438 52.0057 36.0498 51.7575C35.6557 51.5132 35.3562 51.1881 35.1513 50.7822C34.9464 50.3724 34.844 49.9251 34.844 49.4405ZM36.564 48.8021V49.4405C36.564 49.7202 36.631 49.9842 36.765 50.2325C36.9029 50.4808 37.1512 50.6049 37.5097 50.6049C37.8683 50.6049 38.1126 50.4827 38.2427 50.2384C38.3767 49.9941 38.4436 49.7281 38.4436 49.4405V48.8021C38.4436 48.5144 38.3806 48.2465 38.2545 47.9982C38.1284 47.75 37.8801 47.6258 37.5097 47.6258C37.1551 47.6258 36.9088 47.75 36.7709 47.9982C36.633 48.2465 36.564 48.5144 36.564 48.8021ZM28.6318 42.513V41.8747C28.6318 41.386 28.7362 40.9388 28.945 40.5329C29.1539 40.1231 29.4553 39.796 29.8494 39.5517C30.2474 39.3074 30.7281 39.1853 31.2916 39.1853C31.8748 39.1853 32.3634 39.3074 32.7575 39.5517C33.1515 39.796 33.451 40.1231 33.6559 40.5329C33.8608 40.9388 33.9633 41.386 33.9633 41.8747V42.513C33.9633 43.0017 33.8589 43.4489 33.65 43.8548C33.4451 44.2606 33.1436 44.5857 32.7457 44.8301C32.3516 45.0704 31.8669 45.1906 31.2916 45.1906C30.7163 45.1906 30.2296 45.0685 29.8316 44.8241C29.4376 44.5759 29.1381 44.2508 28.9332 43.8489C28.7322 43.443 28.6318 42.9977 28.6318 42.513ZM30.3636 41.8747V42.513C30.3636 42.8007 30.4306 43.0667 30.5646 43.311C30.7025 43.5553 30.9448 43.6775 31.2916 43.6775C31.6541 43.6775 31.9004 43.5553 32.0305 43.311C32.1644 43.0667 32.2314 42.8007 32.2314 42.513V41.8747C32.2314 41.587 32.1684 41.3191 32.0423 41.0708C31.9162 40.8225 31.666 40.6984 31.2916 40.6984C30.9409 40.6984 30.6986 40.8245 30.5646 41.0767C30.4306 41.3289 30.3636 41.5949 30.3636 41.8747ZM29.412 51.7102L37.7343 39.6049H39.283L30.9606 51.7102H29.412Z" fill="black"/>
</g>
<defs>
<clipPath id="clip0_1_889">
<rect width="69" height="69" fill="white"/>
</clipPath>
</defs>
</svg>
