<svg width="100" height="100" viewBox="0 0 100 100" fill="none" xmlns="http://www.w3.org/2000/svg">
<path d="M49.875 9.9375L50.9375 10.0625L51.75 10.3125L52.6875 10.8125L53.5625 11.5L54.1875 12.0625L55 12.875L55.4375 13.375L56 14L56.6875 14.8125L57.25 15.4375L57.5 15.75L58 16.1875L58.5625 16.625L59.0625 16.8125L59.8125 16.75L61.25 16.375L64.3125 15.375L66.4375 14.8125L67.25 14.6875H68.375L69.1875 14.875L70.1875 15.375L70.8125 15.875L71.3125 16.5L71.8125 17.375L72.3125 18.5625L72.75 20.1875L73.375 23.1875L73.6875 24.4375L74 25.375L74.25 25.75L75.0625 26.125L76.9375 26.5625L79.625 27.125L81.25 27.5625L82.3125 27.9375L83 28.3125L83.75 28.875L84.375 29.5625L84.875 30.4375L85.125 31.125L85.25 31.75V32.625L85.0625 33.8125L84.625 35.5625L83.75 38.1875L83.1875 39.9375L83.125 40.9375L83.4375 41.5625L84.1875 42.4375L84.875 43.0625L85.5625 43.625L86.25 44.25L86.9375 44.8125L88.3125 46.1875L89 47.0625L89.625 48.125L89.9375 49.0625L90 49.4375V50.75L89.875 51.3125L89.375 52.25L88.875 52.9375L88.4375 53.5625L87.875 54.1875L87.0625 55L86.5625 55.4375L85.9375 56L85.0625 56.6875L84.1875 57.5L83.875 57.8125L83.375 58.375L83.1875 58.875V59.875L83.5625 61.375L84.6875 64.8125L85.1875 66.6875L85.25 67.1875V68.0625L85.125 68.8125L84.8125 69.625L84.25 70.5L83.5625 71.25L82.875 71.6875L82.125 72L80.5625 72.5L78.25 73L76 73.5L74.5625 73.9375L74.1875 74.1875L74 74.5L73.4375 76.625L72.875 79.375L72.5 80.875L71.875 82.4375L71.3125 83.375L70.5625 84.1875L69.875 84.6875L69.25 84.9375L68.5 85.125H66.9375L65.5625 84.875L63.9375 84.4375L61.75 83.75L60.3125 83.3125L59.25 83.0625H58.8125L58.3125 83.4375L57.375 84.3125L56.5625 85.1875L55.875 86.0625L55 87L54.3125 87.75L53.5625 88.5L52.875 89L51.9375 89.5L51.4375 89.6875L50.25 89.875H49.6875L48.625 89.75L47.6875 89.375L46.625 88.625L45.6875 87.75L45.125 87.1875L44.6875 86.6875L43.9375 85.8125L43.125 84.875L42.25 83.9375L41.5625 83.3125L41.125 83.0625H40.4375L39.375 83.3125L34.9375 84.6875L33.1875 85.0625L31.875 85.1875L30.8125 85L29.875 84.625L29.25 84.125L28.8125 83.6875L28.1875 82.75L27.8125 81.875L27.4375 80.6875L27.0625 79.25L26.4375 76.25L26 74.75L25.6875 74.125L25.5 73.9375L24.25 73.5625L21.125 72.9375L19.4375 72.5625L18 72.125L16.9375 71.625L16.375 71.1875L16.0625 70.9375L15.4375 70.125L14.9375 69.125L14.75 68.375V67L15.125 65.25L15.75 63.1875L16.3125 61.375L16.75 59.8125L16.8125 59.5V58.9375L16.375 58.1875L15.5 57.25L14.6875 56.5L13.75 55.6875L12.5 54.5625L11.875 53.9375L11.3125 53.25L10.75 52.4375L10.25 51.4375L10 50.625V49.375L10.1875 48.5L10.5 47.75L10.9375 47.0625L11.4375 46.4375L12.125 45.6875L13.0625 44.75L13.5625 44.3125L15.3125 42.8125L16.25 41.9375L16.6875 41.375L16.8125 41V40.5L16.4375 38.9375L15.6875 36.625L15.1875 35.125L14.8125 33.625L14.6875 32.8125V31.9375L14.8125 31.125L15.1875 30.125L15.5625 29.5L16.125 28.875L16.9375 28.3125L17.9375 27.8125L18.75 27.5L21.4375 26.875L24.4375 26.25L25.1875 26L25.6875 25.75L26 25.125L26.4375 23.5625L26.9375 21.25L27.3125 19.5L27.625 18.375L28.125 17.25L28.5625 16.5L29.125 15.8125L29.875 15.25L30.6875 14.875L31.5 14.6875H32.75L34.25 15L35.875 15.4375L37.6875 16L39 16.4375L40.3125 16.8125L41 16.875L41.6875 16.4375L42.4375 15.6875H42.5625L42.6875 15.4375L43.1875 14.9375L44.3125 13.5625L44.875 12.9375L45.75 11.9375L46.4375 11.375L47.1875 10.8125L48.125 10.3125L48.875 10.0625L49.875 9.9375ZM49.8125 13.25L48.9375 13.8125L48.1875 14.5L47.5625 15.125L47 15.8125L46.25 16.6875L44.4375 18.625L43.5625 19.3125L42.5 19.8125L41.625 20.0625L41.1875 20.125H40.0625L38.875 19.9375L37 19.4375L33.9375 18.5L32 18L31.6875 18.0625L31.375 18.4375L30.875 19.625L30.4375 21.4375L29.75 24.6875L29.3125 26L28.6875 27.3125L28.25 27.9375L27.875 28.375L27.4375 28.6875L26.25 29.1875L25.3125 29.5L22.4375 30.1875L19.3125 30.875L18.5625 31.125L18.1875 31.375L18.125 31.4375V32.625L18.375 33.8125L19.4375 37.125L19.875 38.6875L20.125 39.875L20.1875 40.4375L20.125 41.8125L19.75 42.8125L18.9375 44L18.3125 44.75L18.1875 44.8125V44.9375L17.9375 45.0625L17.0625 45.9375L16.5625 46.375L15.8125 47L15.125 47.5625L13.8125 48.875L13.3125 49.5625L13.1875 49.9375L13.5625 50.625L14.375 51.625L15 52.25L15.6875 52.8125L16.5625 53.625L17.0625 54.0625L17.875 54.8125L18.5625 55.5L19.25 56.375L19.75 57.3125L20.125 58.4375L20.1875 58.6875V59.6875L20 60.9375L19.5625 62.6875L18.5 65.9375L18.125 67.1875L18.0625 67.5625V68.1875L18.3125 68.5L19.1875 68.9375L20.5 69.3125L24.0625 70.0625L25.4375 70.4375L26.625 70.875L27.625 71.4375L27.875 71.6875H28L28.125 71.9375L28.5 72.375L28.9375 73.125L29.4375 74.375L29.875 76.0625L30.75 80.0625L31.125 81.1875L31.5 81.75L31.8125 81.9375L32.625 81.8125L34.5625 81.25L37.0625 80.4375L38.9375 79.9375L40.0625 79.75H41.4375L42.5 80.0625L43.5 80.625L44.1875 81.1875L44.9375 81.875L45.375 82.3125L45.8125 82.8125L46.6875 83.75L47.25 84.4375L47.6875 84.875L48.125 85.375L48.625 85.8125L49.5 86.5L49.8125 86.6875L50.25 86.625L50.875 86.1875L51.5 85.625L52 85.1875L52.5625 84.5625L54.0625 82.8125L54.75 82L54.875 81.9375V81.8125L55.125 81.6875L55.8125 81.0625L56.6875 80.4375L57.6875 79.9375L58.4375 79.75L58.8125 79.6875L60 79.75L61.6875 80.125L63.4375 80.625L66.9375 81.75L67.375 81.875L67.9375 81.9375L68.3125 81.75L68.5625 81.4375L69 80.4375L69.375 78.875L70.125 75.4375L70.5 74.1875L70.9375 73.0625L71.5 72.1875L72.125 71.5625L72.6875 71.1875L73.5625 70.75L75.0625 70.25L76.9375 69.8125L79.4375 69.3125L80.875 68.875L81.4375 68.5625L81.75 68.25L81.875 67.9375L81.8125 67.4375L81.375 65.75L80.3125 62.5L79.9375 61.125L79.6875 59.75V58.875L79.875 58L80.25 57.0625L80.9375 56L81.625 55.1875L82.75 54.0625L83.4375 53.5L84.1875 52.8125L84.6875 52.375L85.4375 51.6875L86 51.125L86.625 50.25L86.6875 49.875L86.125 48.9375L85.4375 48.1875L84.6875 47.4375L84.1875 47L83.3125 46.25L82.5 45.5L82 45.0625L81.5 44.5625L80.8125 43.6875L80.25 42.8125L79.9375 42.0625L79.75 41.1875V40.0625L80.0625 38.5L80.5625 36.6875L81.375 34.3125L81.75 33L81.875 32.3125V31.875L81.625 31.5L81.125 31.125L80.0625 30.75L77.875 30.25L75.5625 29.8125L73.9375 29.3125L72.75 28.8125L72.1875 28.375L71.625 27.875L71.1875 27.1875L70.8125 26.4375L70.25 24.75L69.5625 21.8125L69 19.5L68.6875 18.5625L68.3125 18L68 17.9375L66.875 18.1875L62.4375 19.5625L60.5625 20L59.25 20.1875L58.4375 20.125L57.4375 19.875L56.5 19.375L55.8125 18.8125L55.1875 18.25L54.5625 17.625L54.125 17.125L53.5625 16.5L53.125 16L52.5625 15.375L52.125 14.875L51.1875 13.9375L50.3125 13.3125L50.1875 13.25H49.8125Z" fill="#F09740"/>
<path d="M49.4375 25.3125H50.8125L53.0625 25.4375L54.8125 25.6875L56.8125 26.1875L59.0625 26.9375L61.125 27.875L62.625 28.75L63.5 29.3125L64.625 30.125L65.75 31L66.6875 31.8125L67.3125 32.375L68.375 33.4375L68.9375 34.125L69.6875 35.0625L70.375 36.0625L71.0625 37.125L71.6875 38.25L72.5 39.875L73 41.1875L73.5625 42.75L73.9375 44.1875L74.375 46.3125L74.5625 47.625L74.625 48.5V51.375L74.5 52.75L74.25 54.3125L73.8125 56.4375L73.3125 58.0625L72.6875 59.6875L72.125 60.9375L71.3125 62.375L70.6875 63.4375L69.9375 64.4375L69.5 65L68.8125 65.875L68.125 66.625L67.6875 67.125L66.75 68.0625L66.25 68.5L65.625 69.0625L64.9375 69.5625L64.125 70.1875L63.1875 70.8125L61.875 71.5625L60.6875 72.1875L59.1875 72.8125L57.5 73.4375L55.875 73.875L53.625 74.3125L51.75 74.5625L50.9375 74.625H48.3125L46.9375 74.5L45.75 74.3125L43.75 73.875L41.9375 73.3125L40.1875 72.625L38.625 71.875L37.6875 71.375L36.25 70.5L35.5625 70L34.75 69.375L33.9375 68.6875L33.3125 68.125L32.75 67.625L32.3125 67.125L31.6875 66.5L31.125 65.8125L30.4375 65L29.625 63.875L28.9375 62.8125L28.3125 61.75L27.75 60.6875L26.9375 58.8125L26.1875 56.625L25.6875 54.5625L25.4375 53L25.25 50.875V48.75L25.4375 46.8125L25.75 45.0625L26.125 43.4375L26.8125 41.375L27.375 40.0625L28.125 38.5L28.75 37.375L29.1875 36.6875L29.6875 35.9375L30.6875 34.625L31.375 33.75L32.125 32.9375L32.5625 32.4375L33.25 31.75L33.75 31.3125L34.75 30.5L35.9375 29.625L37 28.9375L38.3125 28.1875L39.625 27.5L41.1875 26.8125L42.6875 26.3125L44.3125 25.875L46.5625 25.5L48 25.375L49.4375 25.3125ZM48.75 28.4375L46.75 28.625L45.3125 28.875L43.875 29.25L41.875 29.9375L40.6875 30.4375L39.3125 31.1875L38.5 31.6875L37.75 32.1875L36.6875 33L36 33.5625L35.1875 34.25L34.25 35.1875L33.6875 35.875L33 36.6875L32.125 37.9375L31.625 38.75L30.75 40.3125L30.1875 41.5L29.625 42.9375L29.25 44.0625L28.875 45.5L28.5625 47.5L28.4375 48.625V51.25L28.6875 53.5L29 55.125L29.5 56.75L30 58.125L30.5625 59.375L31.3125 60.8125L32 61.875L32.625 62.75L33.4375 63.75L34.1875 64.5625L34.625 65.0625L35.25 65.6875L35.75 66.125L36.5625 66.8125L37.75 67.6875L38.9375 68.4375L40.0625 69.0625L41.75 69.875L42.6875 70.25L44.0625 70.6875L45.5625 71.0625L47.0625 71.3125L48.3125 71.4375L50.5625 71.5L52.0625 71.4375L53.8125 71.1875L55.6875 70.75L57.1875 70.25L58.875 69.5625L60.6875 68.625L62.25 67.625L63.375 66.75L64.0625 66.1875L64.75 65.5625L65.25 65.125L66.1875 64.125L66.75 63.4375L67.375 62.625L68.0625 61.625L68.75 60.5L69.25 59.5625L69.8125 58.3125L70.375 56.8125L70.75 55.625L71.125 53.8125L71.375 52.0625L71.4375 51.375V48.375L71.3125 47.0625L71.0625 45.5625L70.6875 44L70.375 43.0625L69.875 41.75L69.1875 40.25L68.625 39.1875L67.875 37.9375L67.0625 36.75L66.5625 36.1875L66.125 35.6875L65.5625 35.0625L64.5 34L63.8125 33.4375L63 32.75L62 32.0625L61.125 31.5L59.75 30.75L58.4375 30.125L56.625 29.4375L55.0625 29L53.4375 28.6875L51.9375 28.5L50.875 28.4375H48.75Z" fill="#F09740"/>
<path d="M59.5625 38L59.9375 38.0625L60.3125 38.3125L61.375 39.375L61.5 39.4375V39.5625L61.75 39.6875L62 40V40.3125L61 41.25L51.1875 51.0625H51.0625L50.9375 51.3125L41.625 60.625L41.3125 61L41 61.25L40.625 61.6875L40.25 61.9375L39.9375 61.875L39.5625 61.625L39 60.9375L38.25 60.25L38 59.9375L38.0625 59.5L38.4375 59.0625L39 58.625L42.3125 55.3125L42.625 54.9375L43.125 54.5L43.6875 53.875L44 53.625L44.4375 53.125L55.9375 41.625H56.0625L56.1875 41.375L56.8125 40.75L57.25 40.375L57.5625 40L58.0625 39.5625L58.9375 38.625L59.375 38.125L59.5625 38Z" fill="#F09740"/>
<path d="M56.625 51.9375H57.625L58.875 52.1875L59.875 52.6875L60.75 53.4375L61.3125 54.0625L61.8125 54.9375L62.125 55.75L62.3125 56.6875V57.75L62.0625 58.75L61.5625 59.75L61.0625 60.375L60.5 61L59.9375 61.4375L59.375 61.75L58.5 62.0625L57.75 62.1875H56.375L55.375 62L54.625 61.6875L53.9375 61.25L53.125 60.4375L52.625 59.625L52.1875 58.6875L52 58L51.9375 57.5V56.5625L52.125 55.6875L52.5 54.8125L53.0625 53.9375L53.625 53.3125L54.125 52.875L54.875 52.4375L55.875 52.0625L56.625 51.9375ZM56.875 55.0625L56.1875 55.3125L55.6875 55.75L55.25 56.3125L55.0625 57L55.125 57.625L55.5625 58.375L56.0625 58.875L56.75 59.125H57.3125L58 58.875L58.6875 58.375L59 57.875L59.0625 57.5625V56.9375L58.8125 56.1875L58.5 55.6875L58 55.3125L57.5625 55.125L56.875 55.0625Z" fill="#F09740"/>
<path d="M42.1875 37.6875H43.5625L44.625 37.9375L45.625 38.4375L46.125 38.8125L46.75 39.4375L47.3125 40.3125L47.75 41.3125L47.9375 42.25V43.6875L47.6875 44.5625L47.1875 45.5L46.6875 46.1875L46.375 46.5625L45.4375 47.25L44.5 47.6875L43.5 47.875H42L41 47.6875L40 47.1875L39.5 46.8125L39.0625 46.4375L38.5 45.6875L38 44.75L37.75 43.9375L37.6875 43.5625V42.0625L37.9375 41.0625L38.4375 40.0625L38.875 39.5L39.375 38.9375L40.0625 38.4375L41.0625 37.9375L42.1875 37.6875ZM42.25 40.8125L41.6875 41.0625L41.375 41.375L41 41.875L40.8125 42.375V43.0625L41 43.75L41.5625 44.375L42.125 44.75L42.5625 44.875L43.1875 44.8125L43.8125 44.5L44.375 44L44.6875 43.4375L44.75 43.1875V42.4375L44.5 41.8125L44.125 41.3125L43.625 40.9375L43.1875 40.8125H42.25Z" fill="#F09740"/>
</svg>
