<svg width="64" height="64" viewBox="0 0 64 64" fill="none" xmlns="http://www.w3.org/2000/svg">
<g clip-path="url(#clip0_1_222)">
<path d="M19.1447 -0.0333958C19.2588 -0.0339622 19.3729 -0.0345286 19.4904 -0.0351122C19.8721 -0.0366926 20.2538 -0.0364901 20.6355 -0.0362836C20.9095 -0.0370317 21.1834 -0.0378824 21.4573 -0.038828C22.2012 -0.0410365 22.945 -0.0416224 23.6888 -0.0417819C24.1537 -0.0419596 24.6186 -0.0424934 25.0835 -0.0431562C26.6222 -0.0453498 28.1609 -0.0465112 29.6995 -0.0463236C29.8239 -0.0463086 29.8239 -0.0463086 29.9507 -0.0462933C30.0752 -0.046278 30.0752 -0.046278 30.2022 -0.0462624C31.5463 -0.0461608 32.8905 -0.048552 34.2346 -0.0520779C35.6164 -0.0556738 36.9981 -0.0573495 38.3799 -0.0571795C39.155 -0.0571158 39.9301 -0.0578253 40.7052 -0.060474C41.4345 -0.0628981 42.1637 -0.0629114 42.893 -0.0610948C43.1602 -0.0608338 43.4273 -0.0614213 43.6945 -0.0629349C44.0602 -0.0648725 44.4259 -0.063699 44.7916 -0.0617772C44.9488 -0.063706 44.9488 -0.063706 45.1092 -0.0656738C46.5116 -0.0494799 47.763 0.647373 48.7733 1.58597C50.1111 2.97626 50.2644 4.74049 50.2756 6.57111C50.2768 6.69807 50.278 6.82503 50.2793 6.95584C50.2832 7.37177 50.2864 7.78771 50.2895 8.20365C50.292 8.4935 50.2947 8.78336 50.2973 9.07321C50.3042 9.83333 50.3104 10.5935 50.3164 11.3536C50.3227 12.1304 50.3297 12.9071 50.3366 13.6839C50.35 15.2059 50.3627 16.728 50.3749 18.25C50.4574 18.2088 50.5399 18.1675 50.6249 18.125C51.5616 18.0209 52.2983 18.2791 53.1562 18.6194C54.2111 19.0086 55.0357 18.8147 56.0624 18.4297C56.7786 18.1767 57.3645 18.0128 58.1249 18.125C58.5039 18.3998 58.602 18.5562 58.7499 19C58.7757 19.5381 58.7731 20.0766 58.7731 20.6152C58.7733 20.8789 58.7756 21.1424 58.778 21.406C58.7835 22.6603 58.73 23.7855 58.1405 24.9141C58.079 25.0348 58.0174 25.1555 57.954 25.2798C57.2514 26.4682 56.1516 27.201 54.8573 27.6302C54.3564 27.7546 53.8988 27.7821 53.3871 27.7744C53.2968 27.7741 53.2065 27.7737 53.1134 27.7734C52.8282 27.772 52.543 27.7689 52.2577 27.7657C52.063 27.7644 51.8682 27.7633 51.6735 27.7622C51.1989 27.7595 50.7244 27.7552 50.2499 27.75C50.2502 27.9876 50.2502 27.9876 50.2506 28.23C50.256 31.9937 50.2601 35.7574 50.2627 39.5211C50.263 39.9848 50.2633 40.4485 50.2636 40.9123C50.2637 41.0507 50.2637 41.0507 50.2638 41.192C50.2649 42.6848 50.2669 44.1775 50.2692 45.6703C50.2715 47.2031 50.2729 48.736 50.2734 50.2689C50.2738 51.214 50.2748 52.159 50.2769 53.1041C50.2784 53.8301 50.2785 54.556 50.2782 55.2819C50.2782 55.5788 50.2787 55.8757 50.2797 56.1726C50.2938 60.7525 50.2938 60.7525 48.5468 62.6328C48.0133 63.1534 47.4375 63.472 46.7499 63.75C46.6433 63.7932 46.5368 63.8363 46.427 63.8808C45.8918 64.0302 45.4079 64.0355 44.8551 64.0335C44.741 64.034 44.6269 64.0346 44.5094 64.0352C44.1277 64.0368 43.746 64.0366 43.3643 64.0363C43.0903 64.0371 42.8164 64.0379 42.5425 64.0389C41.7986 64.0411 41.0548 64.0417 40.311 64.0418C39.8461 64.042 39.3812 64.0426 38.9163 64.0432C37.3776 64.0454 35.8389 64.0466 34.3003 64.0464C34.2174 64.0464 34.1345 64.0464 34.0491 64.0464C33.9661 64.0464 33.8831 64.0463 33.7976 64.0463C32.4535 64.0462 31.1093 64.0486 29.7652 64.0521C28.3834 64.0557 27.0017 64.0574 25.6199 64.0572C24.8448 64.0572 24.0697 64.0579 23.2946 64.0605C22.5653 64.063 21.8361 64.063 21.1068 64.0612C20.8396 64.0609 20.5725 64.0615 20.3053 64.063C19.9396 64.0649 19.5739 64.0638 19.2082 64.0618C19.1034 64.0631 18.9986 64.0644 18.8906 64.0657C17.4882 64.0495 16.2368 63.3527 15.2265 62.4141C13.673 60.7996 13.7311 58.6841 13.7332 56.5938C13.733 56.3732 13.7327 56.1526 13.7323 55.932C13.7316 55.3275 13.7316 54.7229 13.7317 54.1184C13.7318 53.4658 13.7311 52.8131 13.7305 52.1605C13.7294 50.8826 13.7291 49.6046 13.729 48.3266C13.729 47.2877 13.7287 46.2489 13.7283 45.21C13.7272 42.2637 13.7266 39.3173 13.7267 36.371C13.7267 36.2122 13.7267 36.0535 13.7267 35.8899C13.7267 35.6514 13.7267 35.6514 13.7268 35.4082C13.7268 32.8315 13.7256 30.2549 13.7238 27.6783C13.7221 25.0317 13.7212 22.3852 13.7213 19.7387C13.7213 18.2532 13.721 16.7677 13.7196 15.2822C13.7185 14.0176 13.7182 12.7529 13.7191 11.4882C13.7195 10.8433 13.7195 10.1983 13.7184 9.55328C13.7174 8.96227 13.7176 8.37126 13.7187 7.78025C13.7189 7.56702 13.7187 7.35378 13.718 7.14055C13.7112 4.93341 13.8896 3.04989 15.453 1.36722C15.9865 0.846693 16.5623 0.52808 17.2499 0.250032C17.3565 0.206874 17.463 0.163715 17.5728 0.119248C18.108 -0.030138 18.5919 -0.0354163 19.1447 -0.0333958ZM16.4999 3.62503C15.8574 4.82443 15.9999 6.01644 15.9999 7.37503C26.5599 7.37503 37.1199 7.37503 47.9999 7.37503C48.1099 5.22478 48.1099 5.22478 47.2499 3.37503C46.3754 2.50785 45.7458 2.21203 44.522 2.2166C44.4109 2.21604 44.2997 2.21547 44.1853 2.21489C43.813 2.21331 43.4407 2.21351 43.0684 2.21372C42.8014 2.21297 42.5345 2.21212 42.2675 2.21117C41.5423 2.20896 40.8171 2.20838 40.0919 2.20822C39.4865 2.20798 38.881 2.20706 38.2756 2.20618C36.8472 2.20414 35.4187 2.20353 33.9902 2.20371C32.5168 2.20386 31.0434 2.20122 29.57 2.19727C28.3049 2.194 27.0398 2.19266 25.7747 2.19282C25.0192 2.19288 24.2637 2.19217 23.5081 2.18953C22.7974 2.18711 22.0867 2.18709 21.376 2.18891C21.1154 2.18917 20.8548 2.18858 20.5942 2.18707C20.2379 2.18513 19.8817 2.1863 19.5255 2.18822C19.4228 2.18694 19.3201 2.18565 19.2143 2.18433C18.0606 2.19807 17.2091 2.73153 16.4999 3.62503ZM15.9999 9.62503C15.9999 24.3925 15.9999 39.16 15.9999 54.375C26.5599 54.375 37.1199 54.375 47.9999 54.375C47.9999 45.5888 47.9999 36.8025 47.9999 27.75C45.8962 27.75 43.7924 27.75 41.6249 27.75C41.6249 30.555 41.6249 33.36 41.6249 36.25C42.1199 36.3738 42.6149 36.4975 43.1249 36.625C43.8959 36.982 44.2706 37.626 44.6249 38.375C44.8697 39.3439 44.8041 40.2244 44.3749 41.125C43.8902 41.8921 43.2296 42.3535 42.3482 42.5671C41.9513 42.6331 41.5764 42.6416 41.1739 42.6426C41.0519 42.6431 41.0519 42.6431 40.9274 42.6437C40.6559 42.6448 40.3844 42.645 40.1128 42.6452C39.9177 42.6458 39.7226 42.6464 39.5275 42.6471C38.9981 42.6487 38.4686 42.6495 37.9391 42.6501C37.608 42.6504 37.2768 42.6509 36.9456 42.6515C35.9085 42.6532 34.8713 42.6544 33.8341 42.6549C32.6388 42.6555 31.4436 42.6576 30.2483 42.6613C29.3231 42.664 28.3979 42.6652 27.4728 42.6654C26.9208 42.6655 26.3688 42.6663 25.8169 42.6685C25.2972 42.6706 24.7776 42.6708 24.2579 42.6697C24.0679 42.6696 23.878 42.6702 23.688 42.6714C22.3661 42.6795 21.0712 42.6761 20.0585 41.7183C19.4648 41.0125 19.2089 40.1923 19.2226 39.2769C19.3078 38.4134 19.6607 37.5128 20.3354 36.9492C20.8021 36.6262 21.2255 36.459 21.7841 36.3575C21.8952 36.3368 22.0062 36.3161 22.1207 36.2948C22.2046 36.28 22.2885 36.2653 22.3749 36.25C22.3751 36.1528 22.3753 36.0557 22.3755 35.9555C22.3801 33.586 22.3875 31.2165 22.3979 28.847C22.4029 27.7011 22.4069 26.5552 22.4088 25.4093C22.4104 24.41 22.4138 23.4107 22.4192 22.4114C22.422 21.8828 22.424 21.3542 22.4239 20.8255C22.4238 20.3268 22.4261 19.8283 22.43 19.3296C22.4311 19.1476 22.4313 18.9656 22.4306 18.7836C22.4247 17.0119 22.7811 15.5785 23.9999 14.25C24.355 13.9556 24.7207 13.721 25.1249 13.5C25.2487 13.4278 25.3724 13.3557 25.4999 13.2813C26.5844 12.8294 27.6646 12.8371 28.821 12.8367C29.0031 12.8358 29.1851 12.8347 29.3672 12.8336C29.859 12.8309 30.3507 12.8297 30.8425 12.8291C31.1506 12.8286 31.4588 12.8279 31.7669 12.827C32.8444 12.8239 33.922 12.8223 34.9995 12.8218C35.9998 12.8214 37 12.8177 38.0002 12.8124C38.8623 12.8081 39.7245 12.8061 40.5866 12.8061C41.1001 12.806 41.6134 12.8049 42.1268 12.8013C42.6104 12.798 43.0939 12.7978 43.5775 12.7998C43.7536 12.8 43.9296 12.7992 44.1056 12.7972C45.5761 12.7814 46.691 13.0956 47.9999 13.75C47.9999 12.3888 47.9999 11.0275 47.9999 9.62503C37.4399 9.62503 26.8799 9.62503 15.9999 9.62503ZM25.3749 16C24.778 16.8208 24.6057 17.4195 24.6099 18.4333C24.6098 18.5277 24.6097 18.622 24.6095 18.7192C24.6093 19.0355 24.61 19.3518 24.6107 19.6681C24.6107 19.8948 24.6107 20.1215 24.6107 20.3481C24.6106 20.9638 24.6114 21.5794 24.6122 22.1951C24.613 22.8384 24.6131 23.4817 24.6132 24.125C24.6136 25.3433 24.6146 26.5616 24.6159 27.7798C24.6176 29.426 24.6182 31.0722 24.619 32.7184C24.6201 35.3123 24.6226 37.9062 24.6249 40.5C29.4924 40.5 34.3599 40.5 39.3749 40.5C39.3841 38.0584 39.3841 38.0584 39.3935 35.5674C39.3979 34.5363 39.4024 33.5052 39.4071 32.4742C39.4147 30.8375 39.422 29.2008 39.4276 27.5642C39.4318 26.3722 39.4367 25.1802 39.4427 23.9881C39.4459 23.3572 39.4486 22.7263 39.4503 22.0954C39.4519 21.5009 39.4547 20.9065 39.4583 20.312C39.4595 20.0945 39.4602 19.8769 39.4604 19.6593C39.4642 16.9927 39.4642 16.9927 40.0077 15.8828C40.1503 15.5864 40.2704 15.3135 40.3749 15C38.6668 14.9884 36.9586 14.9796 35.2504 14.9741C34.4572 14.9715 33.664 14.968 32.8708 14.9623C32.1049 14.9569 31.339 14.9539 30.573 14.9526C30.2813 14.9517 29.9895 14.9499 29.6977 14.9472C29.2881 14.9435 28.8786 14.943 28.4689 14.9433C28.2891 14.9406 28.2891 14.9406 28.1057 14.9378C27.0624 14.9442 26.1266 15.2483 25.3749 16ZM42.2113 16.2744C41.5717 17.3351 41.5737 18.4582 41.5883 19.6651C41.589 19.8342 41.5895 20.0034 41.5899 20.1726C41.5913 20.6136 41.595 21.0545 41.5992 21.4955C41.603 21.9472 41.6047 22.3989 41.6066 22.8506C41.6104 23.7338 41.6177 24.6168 41.6249 25.5C44.0174 25.5 46.4099 25.5 48.8749 25.5C48.6687 25.005 48.4624 24.51 48.2499 24C48.1536 23.6149 48.1082 23.3521 48.1032 22.9677C48.1015 22.8638 48.0998 22.7598 48.0981 22.6527C48.0968 22.5413 48.0955 22.4298 48.0941 22.315C48.09 22.0768 48.0859 21.8386 48.0817 21.6004C48.0758 21.2265 48.0702 20.8527 48.0653 20.4789C48.0603 20.1169 48.0539 19.755 48.0473 19.3931C48.0462 19.2829 48.0452 19.1727 48.0441 19.0592C48.0218 17.9249 47.87 16.8915 47.1249 16C46.3652 15.2936 45.6006 14.929 44.5531 14.9624C43.5422 15.0878 42.884 15.5302 42.2113 16.2744ZM50.2499 20.875C50.2397 21.2319 50.2323 21.5884 50.2265 21.9453C50.2233 22.0453 50.2202 22.1453 50.2169 22.2483C50.2041 23.2983 50.5319 24.0024 51.2489 24.7749C51.962 25.4145 52.728 25.5787 53.6693 25.5406C54.4379 25.4463 55.0729 25.177 55.6249 24.625C56.3115 23.7109 56.5424 22.8271 56.5155 21.6953C56.5144 21.6039 56.5133 21.5125 56.5121 21.4182C56.5092 21.1955 56.5047 20.9728 56.4999 20.75C56.3942 20.7861 56.2885 20.8222 56.1796 20.8594C56.0378 20.9058 55.896 20.9522 55.7499 21C55.6107 21.0464 55.4715 21.0928 55.328 21.1407C54.3452 21.3779 53.6494 21.2185 52.7265 20.875C51.7436 20.5147 51.2146 20.3366 50.2499 20.875ZM21.7343 38.711C21.4689 39.0382 21.3851 39.2048 21.3749 39.625C21.5012 39.971 21.5012 39.971 21.7499 40.25C22.0593 40.3738 22.0593 40.3738 22.3749 40.5C22.3749 39.84 22.3749 39.18 22.3749 38.5C21.9923 38.4612 21.9923 38.4612 21.7343 38.711ZM41.6249 38.5C41.6249 39.16 41.6249 39.82 41.6249 40.5C42.2368 40.3141 42.2368 40.3141 42.4843 39.961C42.6521 39.5599 42.6551 39.4036 42.4999 39C42.2785 38.7056 42.2785 38.7056 41.9999 38.5C41.8762 38.5 41.7524 38.5 41.6249 38.5ZM15.9999 56.625C15.8899 58.7753 15.8899 58.7753 16.7499 60.625C17.6244 61.4922 18.254 61.788 19.4778 61.7835C19.589 61.784 19.7001 61.7846 19.8145 61.7852C20.1868 61.7868 20.5591 61.7866 20.9315 61.7863C21.1984 61.7871 21.4653 61.7879 21.7323 61.7889C22.4575 61.7911 23.1827 61.7917 23.9079 61.7918C24.5133 61.7921 25.1188 61.793 25.7242 61.7939C27.1526 61.7959 28.5811 61.7965 30.0096 61.7964C31.483 61.7962 32.9564 61.7988 34.4298 61.8028C35.6949 61.8061 36.96 61.8074 38.2251 61.8072C38.9806 61.8072 39.7361 61.8079 40.4917 61.8105C41.2024 61.813 41.9131 61.813 42.6238 61.8112C42.8844 61.8109 43.145 61.8115 43.4056 61.813C43.7619 61.8149 44.1181 61.8138 44.4743 61.8118C44.577 61.8131 44.6797 61.8144 44.7855 61.8157C45.6945 61.8049 46.4582 61.4917 47.1015 60.836C48.2088 59.653 47.9999 58.1734 47.9999 56.625C37.4399 56.625 26.8799 56.625 15.9999 56.625Z" fill="black"/>
<path d="M26.625 35.125C28.3987 35.125 30.1725 35.125 32 35.125C32 35.8675 32 36.61 32 37.375C30.2263 37.375 28.4525 37.375 26.625 37.375C26.625 36.6325 26.625 35.89 26.625 35.125Z" fill="black"/>
<path d="M26.625 30.875C28.3987 30.875 30.1725 30.875 32 30.875C32 31.6175 32 32.36 32 33.125C30.2263 33.125 28.4525 33.125 26.625 33.125C26.625 32.3825 26.625 31.64 26.625 30.875Z" fill="black"/>
<path d="M26.625 26.625C28.3987 26.625 30.1725 26.625 32 26.625C32 27.3675 32 28.11 32 28.875C30.2263 28.875 28.4525 28.875 26.625 28.875C26.625 28.1325 26.625 27.39 26.625 26.625Z" fill="black"/>
<path d="M26.625 22.375C28.3987 22.375 30.1725 22.375 32 22.375C32 23.1175 32 23.86 32 24.625C30.2263 24.625 28.4525 24.625 26.625 24.625C26.625 23.8825 26.625 23.14 26.625 22.375Z" fill="black"/>
<path d="M26.625 18.125C28.3987 18.125 30.1725 18.125 32 18.125C32 18.8675 32 19.61 32 20.375C30.2263 20.375 28.4525 20.375 26.625 20.375C26.625 19.6325 26.625 18.89 26.625 18.125Z" fill="black"/>
<path d="M37.25 49C37.9925 49 38.735 49 39.5 49C39.5 49.7425 39.5 50.485 39.5 51.25C38.7575 51.25 38.015 51.25 37.25 51.25C37.25 50.5075 37.25 49.765 37.25 49Z" fill="black"/>
<path d="M33 49C33.7425 49 34.485 49 35.25 49C35.25 49.7425 35.25 50.485 35.25 51.25C34.5075 51.25 33.765 51.25 33 51.25C33 50.5075 33 49.765 33 49Z" fill="black"/>
<path d="M28.75 49C29.4925 49 30.235 49 31 49C31 49.7425 31 50.485 31 51.25C30.2575 51.25 29.515 51.25 28.75 51.25C28.75 50.5075 28.75 49.765 28.75 49Z" fill="black"/>
<path d="M24.5 49C25.2425 49 25.985 49 26.75 49C26.75 49.7425 26.75 50.485 26.75 51.25C26.0075 51.25 25.265 51.25 24.5 51.25C24.5 50.5075 24.5 49.765 24.5 49Z" fill="black"/>
<path d="M37.25 44.75C37.9925 44.75 38.735 44.75 39.5 44.75C39.5 45.4925 39.5 46.235 39.5 47C38.7575 47 38.015 47 37.25 47C37.25 46.2575 37.25 45.515 37.25 44.75Z" fill="black"/>
<path d="M33 44.75C33.7425 44.75 34.485 44.75 35.25 44.75C35.25 45.4925 35.25 46.235 35.25 47C34.5075 47 33.765 47 33 47C33 46.2575 33 45.515 33 44.75Z" fill="black"/>
<path d="M28.75 44.75C29.4925 44.75 30.235 44.75 31 44.75C31 45.4925 31 46.235 31 47C30.2575 47 29.515 47 28.75 47C28.75 46.2575 28.75 45.515 28.75 44.75Z" fill="black"/>
<path d="M24.5 44.75C25.2425 44.75 25.985 44.75 26.75 44.75C26.75 45.4925 26.75 46.235 26.75 47C26.0075 47 25.265 47 24.5 47C24.5 46.2575 24.5 45.515 24.5 44.75Z" fill="black"/>
<path d="M35.125 35.125C35.8675 35.125 36.61 35.125 37.375 35.125C37.375 35.8675 37.375 36.61 37.375 37.375C36.6325 37.375 35.89 37.375 35.125 37.375C35.125 36.6325 35.125 35.89 35.125 35.125Z" fill="black"/>
<path d="M35.125 30.875C35.8675 30.875 36.61 30.875 37.375 30.875C37.375 31.6175 37.375 32.36 37.375 33.125C36.6325 33.125 35.89 33.125 35.125 33.125C35.125 32.3825 35.125 31.64 35.125 30.875Z" fill="black"/>
<path d="M35.125 26.625C35.8675 26.625 36.61 26.625 37.375 26.625C37.375 27.3675 37.375 28.11 37.375 28.875C36.6325 28.875 35.89 28.875 35.125 28.875C35.125 28.1325 35.125 27.39 35.125 26.625Z" fill="black"/>
<path d="M35.125 22.375C35.8675 22.375 36.61 22.375 37.375 22.375C37.375 23.1175 37.375 23.86 37.375 24.625C36.6325 24.625 35.89 24.625 35.125 24.625C35.125 23.8825 35.125 23.14 35.125 22.375Z" fill="black"/>
<path d="M35.125 18.125C35.8675 18.125 36.61 18.125 37.375 18.125C37.375 18.8675 37.375 19.61 37.375 20.375C36.6325 20.375 35.89 20.375 35.125 20.375C35.125 19.6325 35.125 18.89 35.125 18.125Z" fill="black"/>
</g>
<defs>
<clipPath id="clip0_1_222">
<rect width="64" height="64" fill="white"/>
</clipPath>
</defs>
</svg>
