<svg width="100" height="100" viewBox="0 0 100 100" fill="none" xmlns="http://www.w3.org/2000/svg">
<path d="M36.33 27.64V14.23H22.66V41.1C25.64 35.27 30.45 30.54 36.33 27.64Z" fill="#1C3184"/>
<path d="M36.33 31.5199C28.15 36.2499 22.66 45.0199 22.66 55.1099V80.2799V85.7699H36.33V82.1899V78.7399V55.1099C36.33 48.1699 41.53 42.4199 48.3 41.6099V27.9399C43.95 28.1499 39.87 29.4299 36.33 31.5199Z" fill="#DF2111"/>
<path d="M51.7 27.9V41.57C58.43 42.42 63.67 48.13 63.67 55.07C63.67 62.61 57.54 68.7 50 68.7C45.91 68.7 42.29 66.87 39.78 64.02V80.37C42.93 81.65 46.38 82.37 50 82.37C65.12 82.37 77.34 70.15 77.34 55.12C77.34 40.63 66.01 28.79 51.7 27.9Z" fill="#1C3184"/>
</svg>
