<svg width="1280" height="1280" viewBox="0 0 1280 1280" fill="none" xmlns="http://www.w3.org/2000/svg">
<g clip-path="url(#clip0_1_898)">
<rect width="1280" height="1280" fill="#C4C4C4"/>
<path d="M0.575012 -4L6.32524 -2.84996L14.3756 6.3504L21.2758 16.7008L24.726 19.0009H32.7763L39.6765 13.2507L46.5768 1.75022L53.4771 -4H60.3773L67.2776 0.60018L77.628 16.7008L82.2282 19.0009H89.1285L93.7287 16.7008L104.079 0.60018L110.979 -4H117.88L124.78 1.75022L132.83 14.4007L138.58 19.0009H146.631L152.381 13.2507L162.731 -1.69991L167.332 -4H174.232L182.282 2.90027L190.332 15.5508L194.933 19.0009H202.983L208.733 14.4007L216.783 1.75022L223.684 -4H230.584L237.484 0.60018L247.835 16.7008L252.435 19.0009H259.335L266.235 13.2507L274.286 0.60018L281.186 -4L290.386 -2.84996L297.287 5.20036L304.187 15.5508L308.787 19.0009H316.837L322.588 13.2507L331.788 -0.549865L337.538 -4H344.438L352.489 2.90027L360.539 15.5508L365.139 19.0009H373.19L378.94 14.4007L386.99 1.75022L393.89 -4H400.791L406.541 -0.549865L418.041 16.7008L421.491 19.0009H429.542L436.442 13.2507L444.492 0.60018L447.942 -2.84996L457.143 -4L464.043 0.60018L473.243 14.4007L478.994 19.0009H485.894L491.644 15.5508L501.995 -0.549865L507.745 -4H514.645L522.695 2.90027L530.746 15.5508L535.346 19.0009H543.396L549.146 14.4007L557.197 1.75022L564.097 -4H570.997L576.747 -0.549865L588.248 16.7008L591.698 19.0009H599.748L606.649 13.2507L613.549 1.75022L620.449 -4H627.349L634.25 0.60018L642.3 13.2507L646.9 17.8509L649.2 19.0009H656.101L660.701 16.7008L671.051 0.60018L677.951 -4H684.852L692.902 2.90027L699.802 14.4007L705.553 19.0009H713.603L719.353 13.2507L728.553 -0.549865L734.304 -4H741.204L749.254 2.90027L757.305 15.5508L761.905 19.0009H769.955L775.705 14.4007L783.756 1.75022L790.656 -4H797.556L804.456 0.60018L814.807 16.7008L819.407 19.0009H826.307L830.907 16.7008L841.258 0.60018L848.158 -4L857.358 -2.84996L864.259 5.20036L871.159 15.5508L875.759 19.0009H883.81L889.56 13.2507L899.91 -1.69991L904.51 -4H911.411L919.461 2.90027L927.511 15.5508L932.111 19.0009H940.162L945.912 14.4007L953.962 1.75022L960.863 -4H967.763L974.663 0.60018L985.013 16.7008L989.614 19.0009H996.514L1003.41 13.2507L1011.46 0.60018L1018.36 -4L1027.57 -2.84996L1034.47 5.20036L1041.37 15.5508L1045.97 19.0009H1054.02L1059.77 13.2507L1068.97 -0.549865L1074.72 -4H1081.62L1089.67 2.90027L1097.72 15.5508L1102.32 19.0009H1110.37L1116.12 14.4007L1124.17 1.75022L1131.07 -4H1137.97L1144.87 0.60018L1155.22 16.7008L1159.82 19.0009H1166.72L1173.62 13.2507L1181.67 0.60018L1188.57 -4L1197.77 -2.84996L1204.67 5.20036L1211.57 15.5508L1216.17 19.0009H1224.22L1229.97 13.2507L1240.32 -1.69991L1244.92 -4H1248.37V1236.9L1241.47 1234.6L1234.57 1226.55L1227.67 1216.2L1224.22 1213.9H1215.02L1209.27 1219.65L1201.22 1232.3L1194.32 1236.9L1186.27 1235.75L1180.52 1230L1170.17 1215.05L1167.87 1213.9H1158.67L1152.92 1218.5L1146.02 1230L1140.27 1235.75L1132.22 1236.9L1125.32 1232.3L1116.12 1218.5L1111.52 1213.9H1102.32L1095.42 1219.65L1088.52 1231.15L1083.92 1235.75L1075.87 1236.9L1070.12 1233.45L1062.07 1223.1L1057.47 1216.2L1054.02 1213.9H1044.82L1039.07 1219.65L1031.02 1232.3L1024.11 1236.9L1016.06 1235.75L1010.31 1230L1001.11 1216.2L997.664 1213.9H988.464L982.713 1219.65L973.513 1233.45L966.613 1236.9L959.712 1235.75L953.962 1231.15L945.912 1218.5L941.312 1213.9H932.111L925.211 1219.65L918.311 1231.15L913.711 1235.75L905.66 1236.9L899.91 1233.45L886.11 1215.05L883.81 1213.9H874.609L868.859 1219.65L860.809 1232.3L853.908 1236.9L845.858 1235.75L840.108 1230L830.907 1216.2L827.457 1213.9H818.257L812.507 1219.65L803.306 1233.45L796.406 1236.9L789.506 1235.75L783.756 1231.15L775.705 1218.5L771.105 1213.9H761.905L756.155 1218.5L748.104 1231.15L743.504 1235.75L735.454 1236.9L729.703 1233.45L715.903 1215.05L713.603 1213.9H704.403L696.352 1223.1L689.452 1233.45L683.702 1236.9L675.651 1235.75L669.901 1230L660.701 1216.2L657.251 1213.9H648.05L642.3 1219.65L633.1 1233.45L626.199 1236.9L619.299 1235.75L613.549 1231.15L605.499 1218.5L604.349 1215.05L600.898 1213.9H591.698L585.948 1218.5L577.898 1231.15L573.297 1235.75L565.247 1236.9L559.497 1233.45L545.696 1215.05L543.396 1213.9H534.196L527.296 1221.95L519.245 1233.45L513.495 1236.9L505.445 1235.75L499.695 1230L490.494 1216.2L487.044 1213.9H477.844L472.093 1219.65L462.893 1233.45L457.143 1236.9L449.093 1235.75L443.342 1231.15L434.142 1216.2L430.692 1213.9H421.491L415.741 1218.5L407.691 1231.15L403.091 1235.75L395.04 1236.9L389.29 1233.45L384.69 1227.7L377.79 1217.35L373.19 1213.9H363.989L357.089 1221.95L349.039 1233.45L343.288 1236.9L335.238 1235.75L329.488 1230L321.438 1217.35L316.837 1213.9H307.637L301.887 1219.65L292.686 1233.45L286.936 1236.9L278.886 1235.75L273.136 1230L262.785 1215.05L260.485 1213.9H251.285L245.535 1218.5L238.634 1230L232.884 1235.75L224.834 1236.9L217.934 1232.3L208.733 1218.5L204.133 1213.9H194.933L188.032 1219.65L181.132 1231.15L176.532 1235.75L168.482 1236.9L162.731 1233.45L148.931 1215.05L146.631 1213.9H137.43L131.68 1219.65L123.63 1232.3L116.73 1236.9L108.679 1235.75L102.929 1230L93.7287 1216.2L90.2785 1213.9H81.0782L75.3279 1219.65L66.1276 1233.45L59.2273 1236.9L52.327 1235.75L46.5768 1231.15L38.5265 1218.5L33.9263 1213.9H23.5759L16.6756 1221.95L9.77537 1232.3L2.8751 1236.9H0.575012V-4Z" fill="#EFEFEF"/>
<path d="M1035.62 615.274H1044.82L1057.47 618.724L1067.82 625.624L1074.72 633.675L1079.32 647.475V665.876L1074.72 681.977L1064.37 709.578L1051.72 740.629L1045.97 755.58L1044.82 756.73H1004.56L1005.71 747.529L1020.66 692.327L1014.91 687.727L1008.01 681.977L1002.26 672.776L999.964 664.726V645.175L1004.56 633.675L1013.76 623.324L1025.27 617.574L1035.62 615.274Z" fill="#EED8C2"/>
<path d="M1133.37 615.274H1142.57L1155.22 618.724L1165.57 625.624L1171.32 632.525L1175.92 642.875L1177.07 647.475V665.876L1171.32 685.427L1155.22 726.828L1142.57 756.73H1101.17L1118.42 691.177L1108.07 684.277L1101.17 675.076L1097.72 664.726V645.175L1102.32 633.675L1111.52 623.324L1123.02 617.574L1133.37 615.274Z" fill="#EED8C2"/>
<path d="M101.779 511.77H143.181L138.58 530.171L125.93 577.323L137.43 585.373L144.331 595.723L146.631 604.924V622.174L140.881 635.975L135.13 642.875L123.63 649.775L116.73 652.075H97.1788L83.3783 646.325L76.478 640.575L69.5777 629.075L67.2776 622.174V601.473L73.0279 581.923L89.1285 542.821L101.779 511.77Z" fill="#EED8C2"/>
<path d="M199.533 511.77H240.934L236.334 530.171L223.684 577.323L235.184 585.373L242.084 596.873L244.385 604.924V621.024L239.784 633.675L232.884 642.875L221.384 649.775L214.483 652.075H194.933L181.132 646.325L174.232 640.575L167.332 629.075L165.031 622.174V601.473L170.782 581.923L186.882 542.821L199.533 511.77Z" fill="#EED8C2"/>
</g>
<defs>
<clipPath id="clip0_1_898">
<rect width="1280" height="1280" fill="white"/>
</clipPath>
</defs>
</svg>
