<svg width="32" height="32" viewBox="0 0 32 32" fill="none" xmlns="http://www.w3.org/2000/svg">
<g clip-path="url(#clip0_1_908)">
<path d="M20.756 22.5947C21.1156 21.9935 21.59 21.469 22.1523 21.0512C22.7146 20.6333 23.3536 20.3303 24.033 20.1595C24.7123 19.9886 25.4187 19.9532 26.1117 20.0554C26.8047 20.1575 27.4708 20.3951 28.072 20.7547C28.6732 21.1142 29.1977 21.5887 29.6155 22.1509C30.0334 22.7132 30.3364 23.3522 30.5072 24.0316C30.6781 24.7109 30.7135 25.4173 30.6113 26.1103C30.5092 26.8033 30.2716 27.4695 29.912 28.0707C29.1859 29.2848 28.0071 30.1608 26.6351 30.5059C25.2631 30.8509 23.8102 30.6368 22.596 29.9107C21.3819 29.1845 20.5059 28.0058 20.1608 26.6337C19.8158 25.2617 20.0299 23.8088 20.756 22.5947ZM20.756 22.5947C18.0948 20.7525 15.1695 19.3247 12.08 18.36L11.5334 18.188M20.756 9.40666C20.3965 8.80547 20.1588 8.13935 20.0567 7.44632C19.9546 6.7533 19.99 6.04694 20.1608 5.36759C20.3317 4.68823 20.6347 4.04919 21.0525 3.48693C21.4704 2.92467 21.9948 2.45022 22.596 2.09066C23.1972 1.7311 23.8633 1.49348 24.5564 1.39136C25.2494 1.28923 25.9558 1.32461 26.6351 1.49547C27.3145 1.66633 27.9535 1.96933 28.5158 2.38716C29.078 2.80499 29.5525 3.32947 29.912 3.93066C30.6382 5.14482 30.8523 6.59772 30.5072 7.96974C30.1622 9.34176 29.2862 10.5205 28.072 11.2467C26.8579 11.9728 25.405 12.1869 24.033 11.8419C22.6609 11.4968 21.4822 10.6208 20.756 9.40666ZM20.756 9.40666C18.0947 11.2484 15.1695 12.6757 12.08 13.64L11.5334 13.812M11.5334 13.812C11.8334 14.4787 12 15.2187 12 15.9987C12 16.7787 11.8334 17.5187 11.5334 18.1853C11.033 19.2983 10.1662 20.2061 9.07744 20.7572C7.98868 21.3083 6.74387 21.4693 5.55072 21.2135C4.35756 20.9576 3.28823 20.3004 2.52113 19.3513C1.75403 18.4023 1.33557 17.2189 1.33557 15.9987C1.33557 14.7784 1.75403 13.595 2.52113 12.646C3.28823 11.697 4.35756 11.0397 5.55072 10.7839C6.74387 10.528 7.98868 10.6891 9.07744 11.2402C10.1662 11.7912 11.033 12.699 11.5334 13.812Z" stroke="#1C1C1C"/>
</g>
<defs>
<clipPath id="clip0_1_908">
<rect width="32" height="32" fill="white"/>
</clipPath>
</defs>
</svg>
