<svg width="57" height="57" viewBox="0 0 57 57" fill="none" xmlns="http://www.w3.org/2000/svg">
<g clip-path="url(#clip0_1_904)">
<rect x="1" y="1" width="55" height="55" rx="14" fill="white" stroke="#CFCFCF" stroke-width="2"/>
<path fill-rule="evenodd" clip-rule="evenodd" d="M36.1876 11.8438C35.3753 11.8435 34.5728 12.0215 33.8368 12.3651C33.1007 12.7088 32.4491 13.2098 31.9278 13.8327C31.4065 14.4557 31.0282 15.1854 30.8197 15.9705C30.6112 16.7556 30.5774 17.5769 30.7209 18.3764L22.6405 24.0344L22.5243 24.125C21.7045 23.4841 20.7212 23.0866 19.6864 22.9776C18.6516 22.8686 17.607 23.0526 16.6717 23.5086C15.7365 23.9647 14.9482 24.6743 14.3967 25.5567C13.8453 26.439 13.5529 27.4586 13.5529 28.4991C13.5529 29.5397 13.8453 30.5592 14.3967 31.4416C14.9482 32.324 15.7365 33.0336 16.6717 33.4896C17.607 33.9457 18.6516 34.1297 19.6864 34.0207C20.7212 33.9117 21.7045 33.5142 22.5243 32.8733L22.6405 32.9656L30.7209 38.6236C30.664 38.9425 30.6355 39.2693 30.6355 39.6042C30.6357 40.9204 31.1035 42.1938 31.9555 43.197C32.8075 44.2003 33.9882 44.8683 35.287 45.0818C36.5858 45.2953 37.9182 45.0404 39.0466 44.3626C40.1749 43.6849 41.0257 42.6283 41.4472 41.3813C41.8688 40.1344 41.8336 38.7783 41.348 37.5549C40.8624 36.3315 39.958 35.3205 38.796 34.7021C37.6341 34.0837 36.2903 33.8982 35.0043 34.1787C33.7183 34.4592 32.5738 35.1875 31.7749 36.2336L24.1233 30.8746C24.465 30.1537 24.6563 29.349 24.6563 28.4983C24.6563 27.6475 24.465 26.8412 24.1233 26.122L31.7766 20.7647C32.3497 21.5154 33.1049 22.1076 33.9706 22.4851C34.8364 22.8626 35.7841 23.013 36.7243 22.9221C37.6644 22.8312 38.5657 22.502 39.3431 21.9656C40.1205 21.4292 40.7482 20.7033 41.1668 19.8567C41.5854 19.01 41.7812 18.0706 41.7355 17.1272C41.6898 16.1838 41.4041 15.2677 40.9056 14.4654C40.4071 13.6632 39.7122 13.0014 38.8866 12.5427C38.061 12.0839 37.1321 11.8434 36.1876 11.8438ZM33.198 17.3958C33.198 16.6029 33.513 15.8425 34.0736 15.2819C34.6343 14.7212 35.3947 14.4063 36.1876 14.4063C36.9804 14.4063 37.7409 14.7212 38.3015 15.2819C38.8622 15.8425 39.1771 16.6029 39.1771 17.3958C39.1771 18.1887 38.8622 18.9491 38.3015 19.5098C37.7409 20.0704 36.9804 20.3854 36.1876 20.3854C35.3947 20.3854 34.6343 20.0704 34.0736 19.5098C33.513 18.9491 33.198 18.1887 33.198 17.3958ZM19.1042 25.5104C18.3113 25.5104 17.5509 25.8254 16.9903 26.386C16.4296 26.9467 16.1146 27.7071 16.1146 28.5C16.1146 29.2929 16.4296 30.0533 16.9903 30.614C17.5509 31.1746 18.3113 31.4896 19.1042 31.4896C19.8971 31.4896 20.6575 31.1746 21.2182 30.614C21.7788 30.0533 22.0938 29.2929 22.0938 28.5C22.0938 27.7071 21.7788 26.9467 21.2182 26.386C20.6575 25.8254 19.8971 25.5104 19.1042 25.5104ZM36.1876 36.6146C35.3947 36.6146 34.6343 36.9296 34.0736 37.4902C33.513 38.0509 33.198 38.8113 33.198 39.6042C33.198 40.3971 33.513 41.1575 34.0736 41.7181C34.6343 42.2788 35.3947 42.5937 36.1876 42.5937C36.9804 42.5937 37.7409 42.2788 38.3015 41.7181C38.8622 41.1575 39.1771 40.3971 39.1771 39.6042C39.1771 38.8113 38.8622 38.0509 38.3015 37.4902C37.7409 36.9296 36.9804 36.6146 36.1876 36.6146Z" fill="#FCAA23"/>
</g>
<defs>
<clipPath id="clip0_1_904">
<rect width="57" height="57" fill="white"/>
</clipPath>
</defs>
</svg>
