<svg width="50" height="50" viewBox="0 0 50 50" fill="none" xmlns="http://www.w3.org/2000/svg">
<g clip-path="url(#clip0_1_252)">
<path d="M2.18291 17.5L23.7966 7.05046L47.6157 17.5H2.18291Z" fill="#1E1E1E" stroke="black"/>
<rect y="18" width="50" height="27" fill="#1E1E1E"/>
<rect x="7" y="6" width="34" height="23" fill="white" stroke="black" stroke-width="2"/>
<path d="M24.8963 29.9182L49.0002 19.5204V44H1.00024V19.5451L24.0907 29.9123L24.4922 30.0925L24.8963 29.9182Z" fill="white" stroke="black" stroke-width="2"/>
<path d="M2.74318 43L23.8168 25.281L47.0407 43H2.74318Z" fill="white" stroke="black" stroke-width="2"/>
<path d="M16.6037 12.6719C16.5639 12.2997 16.3963 12.0099 16.1009 11.8026C15.8082 11.5952 15.4276 11.4915 14.9588 11.4915C14.6293 11.4915 14.3466 11.5412 14.1108 11.6406C13.875 11.7401 13.6946 11.875 13.5696 12.0455C13.4446 12.2159 13.3807 12.4105 13.3778 12.6293C13.3778 12.8111 13.419 12.9687 13.5014 13.1023C13.5866 13.2358 13.7017 13.3494 13.8466 13.4432C13.9915 13.5341 14.152 13.6108 14.3281 13.6733C14.5043 13.7358 14.6818 13.7884 14.8608 13.831L15.679 14.0355C16.0085 14.1122 16.3253 14.2159 16.6293 14.3466C16.9361 14.4773 17.2102 14.642 17.4517 14.8409C17.696 15.0398 17.8892 15.2798 18.0312 15.5611C18.1733 15.8423 18.2443 16.1719 18.2443 16.5497C18.2443 17.0611 18.1136 17.5114 17.8523 17.9006C17.5909 18.2869 17.2131 18.5895 16.7188 18.8082C16.2273 19.0241 15.6321 19.1321 14.9332 19.1321C14.2543 19.1321 13.6648 19.027 13.1648 18.8168C12.6676 18.6065 12.2784 18.2997 11.9972 17.8963C11.7188 17.4929 11.5682 17.0014 11.5455 16.4219H13.1009C13.1236 16.7259 13.2173 16.9787 13.3821 17.1804C13.5469 17.3821 13.7614 17.5327 14.0256 17.6321C14.2926 17.7315 14.5909 17.7812 14.9205 17.7812C15.2642 17.7812 15.5653 17.7301 15.8239 17.6278C16.0852 17.5227 16.2898 17.3778 16.4375 17.1932C16.5852 17.0057 16.6605 16.7869 16.6634 16.5369C16.6605 16.3097 16.5938 16.1222 16.4631 15.9744C16.3324 15.8239 16.1491 15.6989 15.9134 15.5994C15.6804 15.4972 15.4077 15.4062 15.0952 15.3267L14.1023 15.071C13.3835 14.8864 12.8153 14.6065 12.3977 14.2315C11.983 13.8537 11.7756 13.3523 11.7756 12.7273C11.7756 12.2131 11.9148 11.7628 12.1932 11.3764C12.4744 10.9901 12.8565 10.6903 13.3395 10.4773C13.8224 10.2614 14.3693 10.1534 14.9801 10.1534C15.5994 10.1534 16.142 10.2614 16.608 10.4773C17.0767 10.6903 17.4446 10.9872 17.7116 11.3679C17.9787 11.7457 18.1165 12.1804 18.125 12.6719H16.6037ZM19.6538 10.2727H21.5884L24.1793 16.5966H24.2816L26.8725 10.2727H28.8072V19H27.2901V13.0043H27.2092L24.7972 18.9744H23.6637L21.2518 12.9915H21.1708V19H19.6538V10.2727ZM35.2717 12.6719C35.2319 12.2997 35.0643 12.0099 34.7688 11.8026C34.4762 11.5952 34.0955 11.4915 33.6268 11.4915C33.2972 11.4915 33.0146 11.5412 32.7788 11.6406C32.543 11.7401 32.3626 11.875 32.2376 12.0455C32.1126 12.2159 32.0487 12.4105 32.0458 12.6293C32.0458 12.8111 32.087 12.9687 32.1694 13.1023C32.2546 13.2358 32.3697 13.3494 32.5146 13.4432C32.6594 13.5341 32.82 13.6108 32.9961 13.6733C33.1722 13.7358 33.3498 13.7884 33.5288 13.831L34.3469 14.0355C34.6765 14.1122 34.9933 14.2159 35.2972 14.3466C35.604 14.4773 35.8782 14.642 36.1197 14.8409C36.364 15.0398 36.5572 15.2798 36.6992 15.5611C36.8413 15.8423 36.9123 16.1719 36.9123 16.5497C36.9123 17.0611 36.7816 17.5114 36.5202 17.9006C36.2589 18.2869 35.881 18.5895 35.3867 18.8082C34.8952 19.0241 34.3001 19.1321 33.6012 19.1321C32.9222 19.1321 32.3327 19.027 31.8327 18.8168C31.3356 18.6065 30.9464 18.2997 30.6651 17.8963C30.3867 17.4929 30.2362 17.0014 30.2134 16.4219H31.7688C31.7915 16.7259 31.8853 16.9787 32.0501 17.1804C32.2148 17.3821 32.4293 17.5327 32.6935 17.6321C32.9606 17.7315 33.2589 17.7812 33.5884 17.7812C33.9322 17.7812 34.2333 17.7301 34.4918 17.6278C34.7532 17.5227 34.9577 17.3778 35.1055 17.1932C35.2532 17.0057 35.3285 16.7869 35.3313 16.5369C35.3285 16.3097 35.2617 16.1222 35.131 15.9744C35.0004 15.8239 34.8171 15.6989 34.5813 15.5994C34.3484 15.4972 34.0756 15.4062 33.7631 15.3267L32.7702 15.071C32.0515 14.8864 31.4833 14.6065 31.0657 14.2315C30.6509 13.8537 30.4435 13.3523 30.4435 12.7273C30.4435 12.2131 30.5827 11.7628 30.8612 11.3764C31.1424 10.9901 31.5245 10.6903 32.0075 10.4773C32.4904 10.2614 33.0373 10.1534 33.6481 10.1534C34.2674 10.1534 34.81 10.2614 35.2759 10.4773C35.7447 10.6903 36.1126 10.9872 36.3796 11.3679C36.6467 11.7457 36.7844 12.1804 36.793 12.6719H35.2717Z" fill="black"/>
</g>
<defs>
<clipPath id="clip0_1_252">
<rect width="50" height="50" fill="white"/>
</clipPath>
</defs>
</svg>
