<svg width="200" height="200" viewBox="0 0 200 200" fill="none" xmlns="http://www.w3.org/2000/svg">
<g clip-path="url(#clip0_1_923)">
<rect x="-1" y="101.461" width="127.228" height="25.1706" rx="12.5853" transform="rotate(-32.5543 -1 101.461)" fill="white" fill-opacity="0.3"/>
<rect x="9" y="144.462" width="188.558" height="25.1706" rx="12.5853" transform="rotate(-32.5543 9 144.462)" fill="white" fill-opacity="0.3"/>
<rect x="79.3433" y="146.387" width="126.217" height="25.1706" rx="12.5853" transform="rotate(-32.5543 79.3433 146.387)" fill="white" fill-opacity="0.3"/>
<path d="M100.25 40.75L101.75 41L104.5 42.5L110.75 46.75L111.25 47.5L111 48.75L110.25 49.75L108.75 49.5L105.25 47.5L101.75 45.25L100.5 44.75L97.5 46.5L91.75 50.25L79.25 58.25L75 61L69.5 64.5L61 70L55.5 73.5L50.5 76.75L47.5 78.75L45.75 79.75H54.25L58.25 77.25L71.75 68.5L77.25 65L85.75 59.5L91.25 56L95.5 53.25L99.25 51L101.25 50.75L104.25 52.25L110.5 56.25L117.25 60.75L121.75 63.5L127.5 67.25L131.5 69.75L136.5 73L146.75 79.5L147.25 79.75H155.75L151.5 77.25L145.75 73.5L141 70.5L134.25 66L125 60L120.25 57L117 54.75L116.75 53.75L117.75 52L119.25 52.25L123 54.5L127.25 57.25L133.5 61.25L138.25 64.25L143.25 67.5L148 70.5L153 73.75L159 77.75L160.25 79.25V81.25L159.25 82.75L158 83.5L148.5 83.75V95.75L147.5 96.75L146.75 97L146.25 101.5L145 102.75L143.25 103L143.5 118.25V136.75L145.5 137.75L146.25 139L146.5 140.75V142.25L148.25 144.25L148.5 144.75V149H155.5L156.75 149.75L157.75 151L158 152.25V156.5L157.25 158L156.25 159L155.5 159.25H45.75L44.5 158.5L43.75 157.75L43.5 157V151L44.5 149.75L45.75 149L47.25 148.75H52.5L52.75 144.75L54.5 142.75L55 139L56.5 137.25L57.75 136.5L58 133.75L58.5 133L60.25 132.75L61 133L61.5 134L61.75 139.5L58.75 141.5L58.5 142.75H70.25V140.75L67.75 140L67.25 139V101.5L67.75 100L68.25 99.75H70.25L70.5 97.25L58.5 97.5V99.25L60.75 99.75L61.25 100.25L61.5 102V124.5L60.75 125.25H58.5L58 124.75V103L56.5 102.75L55.25 101.5L55 101L54.75 97.25L53 96.25L52.75 95.5L52.5 83.75H45.25L43 83.5L41.75 82.5L41 81.25V79.5L42 78L45.5 75.5L49.5 73L53.25 70.5L58.75 67L63.75 63.75L67.25 61.5L72.75 58L77.75 54.75L81.25 52.5L86.75 49L91.75 45.75L96.5 42.75L99.5 41L100.25 40.75ZM100.5 54.5L98.5 55.5L94.25 58.25L88.75 61.75L83.75 65L78.25 68.5L69.75 74L65.75 76.5L62 79L60.75 79.75V80L72.75 80.25H126.75L140.5 80L139.75 79.25L135 76.25L131.25 73.75L127 71L115.5 63.5L110 60L105 57L101.25 54.5H100.5ZM56.25 83.5V87.75H145.25V83.75L140.25 83.5H56.25ZM56.25 91L56 91.5L56.25 93.75L58 94H72.5L72.75 93.75V91.25L72 91H56.25ZM76 91L75.75 95.5L74.5 96.75L73.75 97.25L73.5 101.25L72.25 102.5L70.75 103V136.75L73 138L73.5 139L73.75 142.25L75.5 144.25L75.75 145L76 149H125L125.25 148.75V145.75L126.25 143.75L127.5 142.25L127.75 139.25L128.25 137.75L130.5 137L130.75 114V103L128.5 102.25L128 101.25L127.75 99V97.25H126.5L125.5 94.75L125.25 91.25L114.25 91H76ZM130.75 91L128.75 91.25V93.75L132.75 94H145L145.25 93.75V91.25L145 91H130.75ZM131 97.25V99.5L131.25 99.75L133.75 100V139.75L131.25 140.5V142.75L131.5 143H142.75L143 142.75V140.5L142.75 140.25L140.25 139.75L140 137.75V108.5L140.25 100L142.75 99.75L143 99.5V97.25H131ZM56 146.25V148.5L56.25 149H72.5L72.75 147.75L72.5 146.25H56ZM128.75 146.25V148.75L129 149H145L145.25 148.75L145 146.25H128.75ZM47 152.25L46.75 152.5V156H153.75L154.75 155.75V152.25H116L115.25 152.5L114.5 152.25H47Z" fill="#FEFEFE"/>
<path d="M98 100H104.5L107.75 100.75L111.75 102.75L114 104.25L116.25 106.25L118.5 109.25L120.5 113.25L121.5 117.25L121.75 118.75V122.75L120.75 126.75L119.5 130L117.75 132.75L115.5 135.25L113.5 137L110.25 139L106.75 140.25L102.75 141H99.75L95.5 140.25L92.25 139L89.25 137.25L86.25 134.5L84.25 132.25L82 128L81 125L80.5 120.75L80.75 117L81.75 113.25L83.75 109.25L85.75 106.75L88.5 104L91.75 102L94.75 100.75L98 100Z" fill="#FEFEFE"/>
<path d="M98.5 103.5L99.5 104.5L101.75 108.75L102.25 109.25L102.75 108L103.75 104H104.75L105.5 105L107.5 109L110.5 114.75L112.5 118.25L112.75 119.5L110 121.75L105.75 125.75L103.25 128L101.5 129.75L99.5 131.5L97.5 133.5H97L96.75 134.25L95 135L95.5 132.75L96.75 129.25L95.5 130L93 132.25L89.5 135L90 132.75L91.75 126.75L94.5 117L98.25 103.75L98.5 103.5Z" fill="#FF852E"/>
<path d="M104 103.75L105 104.25L107.5 109L110.5 114.75L112.5 118.25L112.75 119.5L110 121.75L105.75 125.75L103.25 128L101.5 129.75L99.5 131.5L97.5 133.5L97.25 133.757L96.75 134.25L95 135L95.5 132.75L96.75 129.25L97.25 128.25L99.25 126.5L100.75 125H101.25L101.5 124.25L103.5 122.5L106.75 119.25L106.5 117.75L105.25 115.75L102.75 111L102 109.5L102.75 108L103.75 104L104 103.75Z" fill="#29E775"/>
<path d="M133 38L133.75 38.25L134.5 41.5L135.25 42.75L139.75 44.25V44.75L135.5 46H135L134.25 48.25L133.75 51.25L133 50.5L132 48L131.5 46.25L126.75 44.75V44.25L131.25 42.75L131.75 42.25L132.75 38.75L133 38Z" fill="#FFD800"/>
<path d="M165.5 117H168.25L169.75 118.25L170.25 119.25V121L169.25 122.5L167.75 123.5L165.5 123.25L164 122L163.5 120.75L163.75 119L164.75 117.5L165.5 117Z" fill="#9FFE81"/>
<path d="M10.25 124H10.75L12 127.5L14 128.5L16 129.25V129.75L12.25 130.75L10.75 134.75H10.25L9.25 131.25L8.25 130.5L5.25 129.75V129.25L8.25 128.25L9.5 127L10.25 124Z" fill="#FFD800"/>
<path d="M37.75 55.75H39.5L40.75 56.75L41 57.25V58.75L39.75 60L38 60.25L36.5 59L36.25 57.25L37.25 56L37.75 55.75Z" fill="#9FFE80"/>
<path d="M111 79L111.5 79.25H110.75L111 79Z" fill="#FEFEFE"/>
</g>
<defs>
<clipPath id="clip0_1_923">
<rect width="200" height="200" fill="white"/>
</clipPath>
</defs>
</svg>
