<svg width="59" height="51" viewBox="0 0 59 51" fill="none" xmlns="http://www.w3.org/2000/svg">
<g clip-path="url(#clip0_1_938)">
<path d="M28.8029 26.9042L28.4316 28.2744H21.4916L21.8682 26.9042H28.8029ZM25.3146 35L21.6537 30.5965L21.6485 29.4354H23.458C23.8904 29.4354 24.2512 29.364 24.5406 29.221C24.8335 29.0746 25.0549 28.8706 25.2048 28.6091C25.3582 28.3441 25.4349 28.0338 25.4349 27.6782C25.4349 27.1448 25.278 26.7159 24.9642 26.3917C24.6504 26.0674 24.1484 25.9053 23.458 25.9053H21.4916L21.8995 24.2893H23.458C24.3366 24.2893 25.0636 24.4252 25.6389 24.6972C26.2177 24.9657 26.65 25.3457 26.9359 25.8373C27.2253 26.3289 27.37 26.9042 27.37 27.5631C27.37 28.1454 27.2636 28.6649 27.0509 29.1216C26.8383 29.5784 26.5036 29.9532 26.0468 30.2461C25.5901 30.5389 24.9921 30.7342 24.253 30.8318L24.1902 30.8527L27.4955 34.9059V35H25.3146ZM28.8134 24.2893L28.4316 25.6804L22.8043 25.6595L23.1861 24.2893H28.8134Z" fill="#EF9439"/>
<path d="M32.5076 20H38.4924L38.6616 20.1017L38.7885 20.2373L38.9366 20.5085L39 20.7797V21.2203L38.8731 21.6271L38.7039 21.8644L38.5559 21.9661L38.429 22H32.571L32.3807 21.9322L32.2115 21.7288L32.0846 21.4915L32.0211 21.2203L32 20.9492L32.0634 20.5763L32.148 20.339H32.1903L32.2115 20.2373L32.3807 20.0678L32.5076 20Z" fill="#EF9439"/>
<path d="M24.2985 21H25.6418L26.6269 21.1194L27.403 21.2985L28.209 21.5672L28.9552 21.8955L29.5224 22.194L30.0896 22.5522L30.7164 23.0299L31.0746 23.3582L31.3134 23.5672L31.6119 23.8657L31.8209 24.1045L32.209 24.5821L32.597 25.1493L32.9254 25.7164L33.1642 26.194L33.403 26.7313L33.6716 27.5373L33.8507 28.2836L33.9701 29.1194L34 29.597V30.3134L33.9403 31.0896L33.8209 31.8358L33.6119 32.6418L33.3433 33.3881L33.0149 34.1045L32.6866 34.7015L32.4478 35.0597L32.0299 35.6269L31.6716 36.0448L31.0448 36.6716L30.806 36.8806L30.3582 37.2388L29.8209 37.597L29.2537 37.9254L28.597 38.2537L27.8806 38.5224L27.2836 38.7015L26.5672 38.8507L25.6418 38.9701L25.1343 39H24.806L24.0299 38.9403L23.2239 38.8209L22.3881 38.6119L21.5522 38.3134L20.806 37.9552L20.2687 37.6567L19.8209 37.3582L19.3134 36.9701L19.0149 36.7015L18.7761 36.4925L18.3582 36.0746L18.1493 35.8358L17.791 35.3881L17.4328 34.8806L17.0448 34.2239L16.6866 33.4776L16.3881 32.6716L16.1493 31.7164L16.0299 30.9104L16 30.5224V29.4776L16.0597 28.8209L16.209 27.9851L16.3881 27.3284L16.6269 26.6418L16.8955 26.0448L17.194 25.4776L17.6119 24.8209L17.9104 24.4328L18.1493 24.1343L18.6269 23.6269L18.9552 23.2985L19.194 23.0896L19.6119 22.7612L20.1194 22.403L20.8358 21.9851L21.4627 21.6866L22 21.4776L22.7164 21.2687L23.3731 21.1194L24.2985 21ZM24.3284 22.6716L23.5224 22.791L22.806 22.9701L22.0896 23.2388L21.5821 23.4776L20.8955 23.8955L20.3284 24.3134L19.8209 24.791L19.5522 25.0597L19.2836 25.3881L18.8955 25.8955L18.4776 26.6119L18.1791 27.2687L17.9701 27.8657L17.791 28.5522L17.7015 29.1493L17.6716 29.4776V30.5821L17.791 31.4478L17.9701 32.1343L18.1791 32.7313L18.5075 33.4478L18.8657 34.0448L19.2836 34.6119L19.5522 34.9104L19.7612 35.1493L19.9701 35.3582L20.209 35.5672L20.6567 35.9254L21.1642 36.2537L21.6418 36.5224L22.209 36.791L22.8955 37.0299L23.4627 37.1791L24.2687 37.2985L24.7164 37.3284H25.2239L25.7612 37.2985L26.6269 37.1493L27.3731 36.9403L27.9701 36.7015L28.4478 36.4627L28.9254 36.194L29.4328 35.8358L29.7313 35.597L30.0896 35.2687L30.5672 34.791L30.9552 34.2836L31.1642 33.9851L31.4328 33.5373L31.8209 32.7313L32.0896 31.8955L32.2388 31.209L32.2985 30.791L32.3284 30.403V29.6269L32.2687 29L32.1493 28.3134L31.9403 27.597L31.7313 27.0597L31.4328 26.4328L31.1045 25.8955L30.6866 25.3284L30.2687 24.8806L29.8507 24.4627L29.4328 24.1343L29.0149 23.8358L28.4179 23.4776L27.7015 23.1493L26.9851 22.9104L26.3284 22.7612L25.7015 22.6716H24.3284Z" fill="#EF9439"/>
<path d="M9.14255 21H15.4383L15.6255 21.084L15.766 21.196L15.9064 21.3921L16 21.6442V22.0082L15.9064 22.2603L15.7426 22.4843L15.5085 22.6244L15.3447 22.6524L9.54043 22.6804L9.4 22.8764L9.23617 23.0445L8.3 24.1647H8.25319V24.2208L8.06596 24.4168L7.38723 25.229H7.34043L7.29362 25.341H7.24681V25.397H7.2V25.453L7.01277 25.6491L6.52128 26.2372H6.47447V26.2932H6.42766V32.5947L6.70851 32.9588L7.03617 33.3789L7.24681 33.659L7.57447 34.0791L7.7383 34.3031L8.3 35.0313L8.51064 35.3114L8.79149 35.6755V35.7315H8.8383L9.00213 35.9555L9.25957 36.2916L15.3681 36.3196L15.5553 36.3756L15.766 36.5157L15.9064 36.7117L16 36.9918V37.3278L15.9298 37.5519L15.7191 37.832L15.5319 37.944L15.4383 37.972L14.8532 38H9.11915L8.72128 37.944L8.46383 37.7479L8.20638 37.4399L8.04255 37.2158L7.80851 36.9077L7.64468 36.6837L7.29362 36.2356L7.08298 35.9555L6.82553 35.6194L6.6617 35.3954L6.33404 34.9753L5.81915 34.3031L5.65532 34.0791L5.32766 33.659L5.07021 33.2669L5 32.9308V26.0132L5.07021 25.6771L5.23404 25.369L5.93617 24.5288H5.98298V24.4728H6.02979V24.4168L6.21702 24.2208L6.73191 23.6046L6.91915 23.4086L7.66809 22.5124H7.71489L7.7617 22.4003H7.80851V22.3443H7.85532V22.2883L8.04255 22.0923L8.74468 21.2521L9.00213 21.056L9.14255 21Z" fill="#EF9439"/>
<mask id="path-5-inside-1_1_938" fill="white">
<path d="M0 18C0 16.8954 0.89543 16 2 16H45C46.1046 16 47 16.8954 47 18V41C47 42.1046 46.1046 43 45 43H2C0.89543 43 0 42.1046 0 41V18Z"/>
</mask>
<path d="M-2 18C-2 15.7909 -0.209139 14 2 14H43C45.2091 14 47 15.7909 47 18C47 18 46.1046 18 45 18H2H-2ZM47 43H0H47ZM2 43C-0.209139 43 -2 41.2091 -2 39V18C-2 15.7909 -0.209139 14 2 14V18V41C2 42.1046 2 43 2 43ZM47 16V43V16Z" fill="#EF9439" mask="url(#path-5-inside-1_1_938)"/>
<mask id="path-7-inside-2_1_938" fill="white">
<path d="M6.1059 7.93185C6.39178 6.86492 7.48845 6.23175 8.55539 6.51764L44.8473 16.242C45.9142 16.5279 46.5474 17.6246 46.2615 18.6915L44.2306 26.2709C43.9447 27.3378 42.848 27.971 41.7811 27.6851L5.48921 17.9607C4.42228 17.6749 3.78912 16.5782 4.075 15.5113L6.1059 7.93185Z"/>
</mask>
<path d="M4.17405 7.41421C4.74581 5.28035 6.93916 4.01402 9.07302 4.58579L43.433 13.7925C45.5669 14.3643 46.8332 16.5576 46.2615 18.6915C46.2615 18.6915 45.3965 18.4597 44.3296 18.1739L8.03775 8.44949L4.17405 7.41421ZM43.7129 28.2028L3.55736 17.4431L43.7129 28.2028ZM5.48922 17.9607C3.35535 17.389 2.08902 15.1956 2.66079 13.0618L4.17405 7.41421C4.74581 5.28035 6.93916 4.01402 9.07302 4.58579L8.03775 8.44949L6.00685 16.0289C5.72097 17.0958 5.48922 17.9607 5.48922 17.9607ZM46.7791 16.7597L43.7129 28.2028L46.7791 16.7597Z" fill="#EF9439" mask="url(#path-7-inside-2_1_938)"/>
<mask id="path-9-inside-3_1_938" fill="white">
<path d="M14.5789 1.77905C15.0836 0.796507 16.2892 0.409112 17.2717 0.913777L45.8901 15.6131C46.8726 16.1177 47.26 17.3234 46.7553 18.3059L44.0902 23.4946C43.5856 24.4772 42.38 24.8646 41.3974 24.3599L12.7791 9.66059C11.7965 9.15592 11.4091 7.9503 11.9138 6.96776L14.5789 1.77905Z"/>
</mask>
<path d="M12.7999 0.865272C13.8092 -1.09981 16.2204 -1.8746 18.1855 -0.865272L45.0248 12.9203C46.9899 13.9296 47.7647 16.3408 46.7553 18.3059C46.7553 18.3059 45.9588 17.8968 44.9763 17.3921L16.3579 2.69282L12.7999 0.865272ZM43.1765 25.2737L11 8.74681L43.1765 25.2737ZM12.7791 9.66058C10.814 8.65125 10.0392 6.24002 11.0485 4.27493L12.7999 0.865272C13.8092 -1.09981 16.2204 -1.8746 18.1855 -0.865272L16.3579 2.69282L13.6929 7.88154C13.1882 8.86408 12.7791 9.66058 12.7791 9.66058ZM47.6691 16.5269L43.1765 25.2737L47.6691 16.5269Z" fill="#EF9439" mask="url(#path-9-inside-3_1_938)"/>
<line x1="46" y1="17" x2="46" y2="27" stroke="#EF9439" stroke-width="2"/>
<line x1="2" y1="42" x2="40" y2="42" stroke="#EF9439" stroke-width="2"/>
<g clip-path="url(#clip1_1_938)">
<path d="M54.3264 27.219C52.7541 26.433 50.6849 26 48.4999 26C46.3148 26 44.2455 26.433 42.6732 27.2191C40.8907 28.1104 39.9089 29.3725 39.9089 30.7728V34.5909V38.409V42.2272C39.9089 43.6275 40.8907 44.8896 42.6732 45.7809C44.2455 46.567 46.3147 46.9999 48.4999 46.9999C50.6849 46.9999 52.7541 46.567 54.3264 45.7809C56.109 44.8895 57.0908 43.6275 57.0908 42.2272V38.409V34.5909V30.7728C57.0909 29.3725 56.1091 28.1104 54.3264 27.219ZM55.1816 38.4091C55.1816 39.7607 52.3241 41.2726 48.4999 41.2726C44.6758 41.2726 41.8183 39.7607 41.8183 38.4091V37.6475C42.0787 37.8235 42.3636 37.9898 42.6733 38.1447C44.2456 38.9308 46.3148 39.3637 48.4999 39.3637C50.6849 39.3637 52.7541 38.9307 54.3264 38.1447C54.6362 37.9898 54.9211 37.8235 55.1816 37.6475V38.4091ZM55.1816 34.5909C55.1816 35.9426 52.3241 37.4543 48.4999 37.4543C44.6758 37.4543 41.8183 35.9426 41.8183 34.5909V33.8294C42.0787 34.0054 42.3636 34.1717 42.6733 34.3264C44.2456 35.1126 46.3148 35.5456 48.4999 35.5456C50.6849 35.5456 52.7541 35.1126 54.3265 34.3264C54.6362 34.1715 54.9212 34.0053 55.1816 33.8292V34.5909ZM48.4999 27.9093C52.324 27.9093 55.1815 29.4211 55.1815 30.7728C55.1815 32.1245 52.324 33.6363 48.4999 33.6363C44.6757 33.6363 41.8183 32.1245 41.8183 30.7728C41.8183 29.4211 44.6757 27.9093 48.4999 27.9093ZM48.4999 45.0907C44.6757 45.0907 41.8183 43.5789 41.8183 42.2272V41.4657C42.0786 41.6417 42.3635 41.8079 42.6732 41.9628C44.2455 42.749 46.3148 43.1819 48.4999 43.1819C50.6849 43.1819 52.7541 42.7489 54.3264 41.9628C54.6361 41.8079 54.9211 41.6416 55.1815 41.4656V42.2272C55.1816 43.5789 52.3241 45.0907 48.4999 45.0907Z" fill="#EF9439"/>
</g>
<path d="M54.4174 33C52.8451 32.2139 50.776 34.7726 48.591 34.7726C46.4059 34.7726 43.5723 31.7137 42 32.4998C40.2174 33.3911 40 33.373 40 34.7733V38.5915V42.4095V46.2277C40 47.628 40.9817 48.8901 42.7643 49.7814C44.3366 50.5675 46.4058 51.0004 48.5909 51.0004C50.7759 51.0004 52.8451 50.5675 54.4174 49.7814C56.2001 48.8901 57.1819 47.628 57.1819 46.2277V42.4095V38.5915V34.7733C57.182 33.373 56.2001 33.8913 54.4174 33ZM55.2726 42.4096C55.2726 43.7612 52.4152 45.2731 48.591 45.2731C44.7669 45.2731 41.9094 43.7612 41.9094 42.4096V41.6481C42.1698 41.824 42.4546 41.9903 42.7643 42.1452C44.3366 42.9313 46.4059 43.3642 48.591 43.3642C50.776 43.3642 52.8452 42.9313 54.4175 42.1452C54.7272 41.9903 55.0122 41.824 55.2726 41.648V42.4096ZM55.2726 38.5915C55.2726 39.9431 52.4152 41.4548 48.591 41.4548C44.7669 41.4548 41.9094 39.9431 41.9094 38.5915V37.8299C42.1698 38.0059 42.4546 38.1722 42.7643 38.3269C44.3366 39.1131 46.4059 39.5461 48.591 39.5461C50.776 39.5461 52.8452 39.1131 54.4176 38.3269C54.7273 38.172 55.0122 38.0058 55.2726 37.8298V38.5915ZM48 34.4998C51.8242 34.4998 55.2726 33.4216 55.2726 34.7733C55.2726 36.125 52.4151 37.6368 48.5909 37.6368C44.7668 37.6368 41.9093 36.125 41.9093 34.7733C41.9093 33.4216 44.1758 34.4998 48 34.4998ZM48.5909 49.0912C44.7668 49.0912 41.9093 47.5794 41.9093 46.2277V45.4662C42.1697 45.6422 42.4546 45.8084 42.7643 45.9633C44.3366 46.7495 46.4058 47.1824 48.5909 47.1824C50.7759 47.1824 52.8451 46.7494 54.4174 45.9633C54.7272 45.8084 55.0121 45.6421 55.2726 45.4661V46.2277C55.2726 47.5794 52.4152 49.0912 48.5909 49.0912Z" fill="#EF9439"/>
</g>
<defs>
<clipPath id="clip0_1_938">
<rect width="59" height="51.0004" fill="white"/>
</clipPath>
<clipPath id="clip1_1_938">
<rect width="21" height="21" fill="white" transform="translate(38 26)"/>
</clipPath>
</defs>
</svg>
