<svg width="80" height="80" viewBox="0 0 80 80" fill="none" xmlns="http://www.w3.org/2000/svg">
<path d="M67.3873 0H12.6126C11.7325 0 11.019 0.713438 11.019 1.59359V78.4064C11.019 79.2866 11.7325 80 12.6126 80H54.2629C54.6856 80 55.0909 79.832 55.3898 79.5333L68.5144 66.4086C68.8131 66.1098 68.9811 65.7045 68.9811 65.2817V1.59359C68.9811 0.713438 68.2675 0 67.3873 0ZM55.8536 74.562L55.8467 66.8655L63.5431 66.8725L55.8536 74.562ZM65.7939 63.6873L54.2529 63.6769C54.2525 63.6769 54.252 63.6769 54.2515 63.6769C53.8289 63.6769 53.4236 63.8448 53.1247 64.1436C52.8254 64.4428 52.6575 64.8487 52.6579 65.272L52.6683 76.8128H14.2062V3.18719H65.7939V63.6873Z" fill="#1B1B1B"/>
<path d="M30.3494 13.4056C29.7271 12.7832 28.718 12.7832 28.0957 13.4057L23.4059 18.0956L22.2413 16.9309C21.619 16.3086 20.6099 16.3086 19.9876 16.9309C19.3652 17.5532 19.3651 18.5623 19.9876 19.1846L22.2788 21.4761C22.5776 21.7748 22.983 21.9428 23.4057 21.9428C23.8283 21.9428 24.2337 21.7748 24.5326 21.4761L30.3493 15.6593C30.9716 15.0371 30.9716 14.0279 30.3494 13.4056Z" fill="#1B1B1B"/>
<path d="M58.8855 16.5819H58.3267C57.4466 16.5819 56.7332 17.2953 56.7332 18.1755C56.7332 19.0557 57.4466 19.7691 58.3267 19.7691H58.8855C59.7657 19.7691 60.4791 19.0557 60.4791 18.1755C60.4791 17.2953 59.7657 16.5819 58.8855 16.5819Z" fill="#1B1B1B"/>
<path d="M53.2271 16.5819H35.3836C34.5035 16.5819 33.79 17.2953 33.79 18.1755C33.79 19.0557 34.5035 19.7691 35.3836 19.7691H53.2271C54.1072 19.7691 54.8207 19.0557 54.8207 18.1755C54.8207 17.2953 54.1072 16.5819 53.2271 16.5819Z" fill="#1B1B1B"/>
<path d="M30.3494 28.8331C29.7271 28.2107 28.718 28.2107 28.0957 28.8332L23.4059 33.5231L22.2413 32.3584C21.619 31.736 20.6099 31.736 19.9876 32.3584C19.3652 32.9807 19.3651 33.9898 19.9876 34.6121L22.2788 36.9035C22.5776 37.2023 22.983 37.3703 23.4057 37.3703C23.8283 37.3703 24.2337 37.2023 24.5326 36.9035L30.3493 31.0868C30.9716 30.4646 30.9716 29.4556 30.3494 28.8331Z" fill="#1B1B1B"/>
<path d="M58.8857 32.0093H35.3836C34.5035 32.0093 33.79 32.7227 33.79 33.6029C33.79 34.483 34.5035 35.1965 35.3836 35.1965H58.8857C59.7658 35.1965 60.4793 34.483 60.4793 33.6029C60.4793 32.7227 59.7658 32.0093 58.8857 32.0093Z" fill="#1B1B1B"/>
<path d="M30.3494 44.2116C29.7271 43.5893 28.718 43.5893 28.0957 44.2118L23.4059 48.9016L22.2413 47.7369C21.619 47.1144 20.6099 47.1146 19.9876 47.7369C19.3652 48.3593 19.3651 49.3683 19.9876 49.9907L22.2788 52.2821C22.5776 52.5808 22.983 52.7488 23.4057 52.7488C23.8283 52.7488 24.2337 52.5808 24.5326 52.2821L30.3493 46.4654C30.9716 45.8432 30.9716 44.8341 30.3494 44.2116Z" fill="#1B1B1B"/>
<path d="M58.8855 47.3877H35.3836C34.5035 47.3877 33.79 48.1011 33.79 48.9813C33.79 49.8614 34.5035 50.5749 35.3836 50.5749H58.8857C59.7657 50.5749 60.4791 49.8614 60.4791 48.9813C60.4791 48.1013 59.7657 47.3877 58.8855 47.3877Z" fill="#1B1B1B"/>
</svg>
