<svg id="wall-clock" xmlns="http://www.w3.org/2000/svg" width="91.933" height="91.933" viewBox="0 0 91.933 91.933">
  <path id="Path_1535" data-name="Path 1535" d="M210.958,130.708a3.591,3.591,0,0,0-5.025.738q-.981,1.319-2.071,2.552a3.591,3.591,0,1,0,5.381,4.757q1.289-1.459,2.452-3.022A3.591,3.591,0,0,0,210.958,130.708Zm6.006-16.842a3.592,3.592,0,0,0-4.273,2.745q-.35,1.6-.834,3.175a3.591,3.591,0,1,0,6.862,2.12q.575-1.862.99-3.767a3.591,3.591,0,0,0-2.745-4.273Zm-23.291,28.343q-1.435.8-2.934,1.478a3.591,3.591,0,1,0,2.956,6.546q1.776-.8,3.479-1.753a3.591,3.591,0,0,0-3.5-6.271ZM171.024,79.591v27.242L157.855,120a3.591,3.591,0,0,0,5.079,5.079l14.22-14.22a3.591,3.591,0,0,0,1.052-2.539V79.591a3.591,3.591,0,1,0-7.182,0Z" transform="translate(-128.648 -62.354)" fill="#ff9d00"/>
  <path id="Path_1536" data-name="Path 1536" d="M88.342,7.721a3.591,3.591,0,0,0-3.591,3.591v9.972A45.97,45.97,0,1,0,45.967,91.933c.03,0,.06,0,.09,0s.059,0,.09,0c1.294,0,2.6-.055,3.885-.162a3.591,3.591,0,1,0-.6-7.157c-1.085.091-2.191.137-3.286.137-.03,0-.06,0-.09,0s-.059,0-.09,0A38.784,38.784,0,1,1,79.353,26.215H69.478a3.591,3.591,0,0,0,0,7.182H80.442a11.422,11.422,0,0,0,5.975-1.679,3.586,3.586,0,0,0,.322-.207,11.489,11.489,0,0,0,5.194-9.605V11.312A3.591,3.591,0,0,0,88.342,7.721Z" fill="#ff9d00"/>
</svg>
