<svg id="Layer_1" data-name="Layer 1" xmlns="http://www.w3.org/2000/svg" viewBox="0 0 70 70">
    <defs>
        <style>
            .cls-1{fill:#ee9338}
        </style>
    </defs>
    <g id="Layer_2" data-name="Layer 2">
        <g id="Layer_1-2" data-name="Layer 1-2">
            <g id="Accept-Request">
                <path class="cls-1" d="M52.48 18.64c0-4.8-3.89-8.7-8.69-8.71-.78 0-1.57.1-2.32.31H23.91c-2.19 0-3.97 1.78-3.97 3.97v39.35c0 2.19 1.78 3.97 3.97 3.97h18.17c2.19 0 3.97-1.78 3.97-3.97V27.03a8.714 8.714 0 0 0 6.43-8.41ZM21.83 51.49h22.32v2.08c0 1.15-.93 2.08-2.08 2.08H23.91c-1.15 0-2.08-.93-2.08-2.08v-2.08Zm14.13-36.71H21.83v-.57c.02-1.14.95-2.05 2.08-2.05h14.08a8.89 8.89 0 0 0-2.02 2.62h-.01ZM21.83 49.6V16.69H35.3c-.15.64-.23 1.3-.22 1.96a8.7 8.7 0 0 0 8.7 8.7h.37v22.26H21.82Zm21.95-37.72c3.73-.02 6.78 3 6.79 6.73.02 3.73-3 6.78-6.73 6.79-3.73.02-6.78-3-6.79-6.73v-.03c0-3.72 3.01-6.75 6.73-6.76Z"/>
                <path class="cls-1" d="M30.53 52.63h4.92v1.89h-4.92z"/>
            </g>
        </g>
    </g>
</svg>
