<svg width="70" height="70" viewBox="0 0 70 70" fill="none" xmlns="http://www.w3.org/2000/svg">
<rect width="70" height="70" fill="white"/>
<g clip-path="url(#clip0_746_18527)">
<path d="M45.7893 22.7197H25.0293V52.1397H45.7893V22.7197Z" fill="#99C3FF"/>
<path d="M25.1107 22.7202H45.7107C45.7107 22.7202 46.8307 18.8802 42.0007 18.8002H28.7107C28.7107 18.8002 24.4707 18.0802 25.1107 22.7202Z" fill="#F7B42F"/>
<path d="M45.7606 52.2305H25.1506C25.1506 52.2305 24.0006 57.3605 28.8406 57.4405H42.1506C42.7404 57.3581 43.3068 57.1544 43.814 56.8422C44.3212 56.53 44.7581 56.1161 45.0973 55.6266C45.4365 55.137 45.6706 54.5825 45.7847 53.998C45.8989 53.4135 45.8907 52.8117 45.7606 52.2305Z" fill="#F7B42F"/>
<path d="M37.2895 54.1504H33.4395V55.4304H37.2895V54.1504Z" fill="#2E365E"/>
<path d="M46.2707 24.6502V21.4402C46.2707 20.5915 45.9336 19.7776 45.3334 19.1775C44.7333 18.5774 43.9194 18.2402 43.0707 18.2402H27.6707C26.822 18.2402 26.0081 18.5774 25.408 19.1775C24.8078 19.7776 24.4707 20.5915 24.4707 21.4402V54.7902C24.4707 55.6399 24.8075 56.4548 25.4074 57.0565C26.0072 57.6582 26.8211 57.9976 27.6707 58.0002H43.0707C43.9203 57.9976 44.7342 57.6582 45.3341 57.0565C45.9339 56.4548 46.2707 55.6399 46.2707 54.7902V24.6502ZM27.6707 19.5202H43.0707C43.3237 19.5189 43.5744 19.5676 43.8085 19.6635C44.0426 19.7594 44.2555 19.9006 44.4348 20.079C44.6142 20.2575 44.7565 20.4696 44.8536 20.7032C44.9507 20.9368 45.0007 21.1873 45.0007 21.4402V22.0802H25.7507V21.4402C25.7507 20.931 25.953 20.4427 26.3131 20.0826C26.6731 19.7225 27.1615 19.5202 27.6707 19.5202ZM43.0707 56.7202H27.6707C27.1606 56.7176 26.6722 56.5131 26.3124 56.1514C25.9527 55.7898 25.7507 55.3004 25.7507 54.7902V52.8702H45.0007V54.7902C45.0007 55.3021 44.7974 55.793 44.4354 56.155C44.0735 56.5169 43.5826 56.7202 43.0707 56.7202ZM45.0007 29.7802V51.5902H25.7507V23.3702H45.0007V29.7802Z" fill="#2E365E"/>
<path d="M41.1394 36.8301H39.8594V38.1101H41.1394V36.8301Z" fill="black"/>
<path d="M35.3805 44.5199C39.2852 44.5199 42.4505 41.3545 42.4505 37.4499C42.4505 33.5452 39.2852 30.3799 35.3805 30.3799C31.4759 30.3799 28.3105 33.5452 28.3105 37.4499C28.3105 41.3545 31.4759 44.5199 35.3805 44.5199Z" fill="#FFC217"/>
<path d="M35.3809 45.4697C36.9631 45.4697 38.5098 45.0005 39.8254 44.1215C41.141 43.2424 42.1664 41.993 42.7719 40.5312C43.3774 39.0694 43.5358 37.4609 43.2271 35.909C42.9185 34.3572 42.1565 32.9317 41.0377 31.8129C39.9189 30.6941 38.4934 29.9321 36.9416 29.6234C35.3897 29.3148 33.7812 29.4732 32.3194 30.0787C30.8576 30.6842 29.6082 31.7096 28.7291 33.0252C27.8501 34.3408 27.3809 35.8875 27.3809 37.4697C27.3809 39.5915 28.2237 41.6263 29.724 43.1266C31.2243 44.6269 33.2591 45.4697 35.3809 45.4697ZM34.1909 43.9997C32.6584 43.7239 31.2717 42.9184 30.2729 41.7238C29.2742 40.5293 28.727 39.0218 28.727 37.4647C28.727 35.9077 29.2742 34.4002 30.2729 33.2056C31.2717 32.0111 32.6584 31.2055 34.1909 30.9297C34.9757 30.8019 35.776 30.8019 36.5609 30.9297C38.0933 31.2055 39.48 32.0111 40.4788 33.2056C41.4775 34.4002 42.0247 35.9077 42.0247 37.4647C42.0247 39.0218 41.4775 40.5293 40.4788 41.7238C39.48 42.9184 38.0933 43.7239 36.5609 43.9997C35.7748 44.1116 34.9769 44.1116 34.1909 43.9997Z" fill="#FFDB45"/>
<path d="M37.9099 35.1605H36.9099C36.8375 34.7646 36.6731 34.3912 36.4299 34.0705H37.9099C38.0213 34.0705 38.1281 34.0262 38.2069 33.9475C38.2857 33.8687 38.3299 33.7619 38.3299 33.6505C38.3299 33.5391 38.2857 33.4323 38.2069 33.3535C38.1281 33.2747 38.0213 33.2305 37.9099 33.2305H32.8399C32.7285 33.2305 32.6217 33.2747 32.5429 33.3535C32.4642 33.4323 32.4199 33.5391 32.4199 33.6505C32.4199 33.7619 32.4642 33.8687 32.5429 33.9475C32.6217 34.0262 32.7285 34.0705 32.8399 34.0705H34.9999C35.2662 34.1302 35.5101 34.2644 35.7031 34.4573C35.896 34.6503 36.0302 34.8942 36.0899 35.1605H32.8399C32.7285 35.1605 32.6217 35.2047 32.5429 35.2835C32.4642 35.3622 32.4199 35.4691 32.4199 35.5805C32.4199 35.6919 32.4642 35.7987 32.5429 35.8775C32.6217 35.9562 32.7285 36.0005 32.8399 36.0005H36.1099C36.0668 36.297 35.9219 36.5692 35.6999 36.7705C34.8975 37.2689 33.9446 37.4673 33.0099 37.3305C32.9259 37.3202 32.8407 37.3356 32.7656 37.3745C32.6905 37.4135 32.6289 37.4743 32.5889 37.5489C32.5489 37.6235 32.5323 37.7084 32.5415 37.7926C32.5506 37.8767 32.5849 37.9562 32.6399 38.0205L35.9999 41.9305C36.0387 41.9778 36.0876 42.0158 36.1429 42.0417C36.1983 42.0677 36.2588 42.0809 36.3199 42.0805C36.4184 42.0776 36.5133 42.0425 36.5899 41.9805C36.6326 41.9449 36.6671 41.9006 36.6913 41.8506C36.7154 41.8006 36.7286 41.746 36.7299 41.6905C36.7365 41.6362 36.7309 41.5811 36.7136 41.5292C36.6963 41.4774 36.6677 41.43 36.6299 41.3905L33.8699 38.1905C34.7248 38.1919 35.5569 37.9146 36.2399 37.4005C36.4528 37.2289 36.6295 37.0168 36.76 36.7765C36.8904 36.5362 36.972 36.2725 36.9999 36.0005H37.9999C38.1113 36.0005 38.2181 35.9562 38.2969 35.8775C38.3757 35.7987 38.4199 35.6919 38.4199 35.5805C38.4199 35.4691 38.3757 35.3622 38.2969 35.2835C38.2181 35.2047 38.1113 35.1605 37.9999 35.1605H37.9099Z" fill="white"/>
<path d="M22.7901 26.1006H21.6401L20.1001 26.3906C19.7733 26.5073 19.4612 26.6617 19.1701 26.8506C18.5 27.2797 17.9494 27.8716 17.57 28.5711C17.1905 29.2706 16.9945 30.0548 17.0001 30.8506V32.3706C17.0001 33.6233 17.4971 34.8249 18.382 35.7117C19.2669 36.5984 20.4674 37.0979 21.7201 37.1006H22.7901C23.1889 37.0979 23.5704 36.9377 23.8514 36.6548C24.1324 36.3719 24.2901 35.9893 24.2901 35.5906V27.5906C24.2875 27.1945 24.1283 26.8155 23.8473 26.5364C23.5662 26.2572 23.1862 26.1006 22.7901 26.1006ZM22.7901 35.5706H21.7201C20.8661 35.5706 20.0471 35.2313 19.4432 34.6275C18.8394 34.0236 18.5001 33.2046 18.5001 32.3506V30.8306C18.4988 30.4069 18.5811 29.9871 18.7424 29.5953C18.9036 29.2035 19.1406 28.8473 19.4397 28.5472C19.7388 28.2472 20.0942 28.0091 20.4856 27.8466C20.8769 27.6842 21.2964 27.6006 21.7201 27.6006H22.7901V35.6006V35.5706Z" fill="#FFC217"/>
<path d="M51.5706 26.6904C51.2784 26.5035 50.9666 26.3492 50.6406 26.2304L49.0906 25.9404H48.0006C47.6028 25.9404 47.2213 26.0985 46.94 26.3798C46.6587 26.6611 46.5006 27.0426 46.5006 27.4404V35.4404C46.5084 35.834 46.6696 36.2089 46.9498 36.4853C47.23 36.7618 47.607 36.9179 48.0006 36.9204H49.0006C48.6766 37.9215 48.0449 38.7948 47.1957 39.4161C46.3464 40.0373 45.3228 40.3748 44.2706 40.3804C44.0854 40.4018 43.9144 40.4905 43.7903 40.6297C43.6662 40.769 43.5977 40.9489 43.5977 41.1354C43.5977 41.3219 43.6662 41.5019 43.7903 41.6411C43.9144 41.7803 44.0854 41.8691 44.2706 41.8904C45.7711 41.8876 47.2239 41.3634 48.3805 40.4076C49.537 39.4517 50.3254 38.1235 50.6106 36.6504C51.536 36.3271 52.3381 35.7243 52.906 34.9253C53.4739 34.1264 53.7795 33.1707 53.7806 32.1904V30.6604C53.7769 29.866 53.5724 29.0854 53.186 28.3913C52.7996 27.6972 52.2439 27.1121 51.5706 26.6904ZM52.2406 32.1904C52.2393 32.6146 52.1545 33.0344 51.9909 33.4257C51.8274 33.8171 51.5884 34.1725 51.2875 34.4715C50.9866 34.7705 50.6298 35.0073 50.2375 35.1684C49.8451 35.3295 49.4248 35.4117 49.0006 35.4104H48.0006V27.4104H49.0006C49.6204 27.4117 50.2272 27.5885 50.7506 27.9204C51.204 28.2127 51.5769 28.6138 51.8354 29.0871C52.0939 29.5605 52.2298 30.0911 52.2306 30.6304L52.2406 32.1904Z" fill="#FFC217"/>
<path d="M18.6905 27.7602C18.6359 25.5254 19.029 23.3024 19.8464 21.2218C20.6639 19.1412 21.8893 17.2452 23.4506 15.6453C25.0118 14.0455 26.8773 12.7741 28.9373 11.9061C30.9973 11.038 33.2101 10.5908 35.4455 10.5908C37.681 10.5908 39.8938 11.038 41.9538 11.9061C44.0137 12.7741 45.8793 14.0455 47.4405 15.6453C49.0018 17.2452 50.2272 19.1412 51.0447 21.2218C51.8621 23.3024 52.2551 25.5254 52.2005 27.7602M50.4705 27.7602C50.4705 23.7819 48.8902 19.9666 46.0771 17.1536C43.2641 14.3405 39.4488 12.7602 35.4705 12.7602C31.4923 12.7602 27.677 14.3405 24.8639 17.1536C22.0509 19.9666 20.4705 23.7819 20.4705 27.7602" fill="#FFC217"/>
</g>
<defs>
<clipPath id="clip0_746_18527">
<rect width="36.74" height="47" fill="white" transform="translate(17 11)"/>
</clipPath>
</defs>
</svg>
