<svg width="70" height="70" viewBox="0 0 70 70" fill="none" xmlns="http://www.w3.org/2000/svg">
<rect width="70" height="70" fill="white"/>
<path d="M52.9979 28.7742C51.2865 27.2117 49.0201 26.5565 46.7999 27.0101C43.7935 27.6149 41.2958 30.2863 40.7407 33.6129C40.3245 36.2843 41.0183 38.9052 42.7296 40.8205C43.1922 41.3246 43.7472 42.1814 43.7472 43.2399V47.6249C43.7472 48.381 44.3023 48.9858 44.9961 48.9858H51.2865C51.9803 48.9858 52.5354 48.381 52.5354 47.6249V42.9375C52.5354 42.0302 53.0442 41.2742 53.4604 40.8205C54.8943 39.258 55.6806 37.1915 55.6806 35.0242C55.7269 32.6552 54.7093 30.3367 52.9979 28.7742ZM44.5335 38.8548C43.3772 37.5947 42.9147 35.8306 43.1922 34.0665C43.5622 31.8488 45.2273 30.0847 47.2162 29.6815C48.7426 29.379 50.2227 29.8327 51.379 30.8911C52.5354 31.9496 53.1829 33.4617 53.1829 35.125C53.1829 36.5867 52.6741 37.9476 51.7028 39.006C50.639 40.1653 50.0377 41.5766 50.0377 43.0383V46.3649H46.2449V43.2399C46.2912 41.627 45.6899 40.1149 44.5335 38.8548Z" fill="#F19338"/>
<path d="M58.0398 47.1709L51.3331 46.2637H44.9038L38.3358 47.1709C36.6707 47.3725 35.4219 48.935 35.4219 50.7999V55.6386C35.4219 56.3947 35.9769 56.9995 36.6707 56.9995H59.7512C60.445 56.9995 61 56.3947 61 55.6386V50.7999C60.9538 48.9854 59.7049 47.4229 58.0398 47.1709ZM51.1943 48.9854L57.716 49.8927C58.1323 49.9431 58.4561 50.3463 58.4561 50.7999V54.2778H37.8733V50.7999C37.8733 50.3463 38.1971 49.9431 38.6134 49.8927L45.0426 48.9854H51.1943Z" fill="#F19338"/>
<path d="M41.6198 7H16.4579C13.4514 7 11 9.67136 11 12.9476V47.2216C11 50.4978 13.4514 53.1692 16.4579 53.1692H31.1203C31.8141 53.1692 32.3691 52.5643 32.3691 51.8083C32.3691 51.0522 31.8141 50.4474 31.1203 50.4474H16.4579C14.839 50.4474 13.4977 48.9857 13.4977 47.2216V12.9476C13.4977 11.1835 14.839 9.72176 16.4579 9.72176H41.6198C43.2387 9.72176 44.58 11.1835 44.58 12.9476V24.0866C44.58 24.8427 45.1351 25.4475 45.8289 25.4475C46.5227 25.4475 47.0777 24.8427 47.0777 24.0866V12.9476C47.0777 9.67136 44.6263 7 41.6198 7Z" fill="#F19338"/>
<path d="M37.4093 34.3682H20.6193C19.8793 34.3682 19.3242 35.0234 19.3242 35.7795C19.3242 36.5859 19.9255 37.1907 20.6193 37.1907H37.4093C38.1494 37.1907 38.7044 36.5355 38.7044 35.7795C38.7507 34.973 38.1494 34.3682 37.4093 34.3682Z" fill="#F19338"/>
<path d="M33.9866 43.4912H20.6193C19.8793 43.4912 19.3242 44.1464 19.3242 44.9025C19.3242 45.7089 19.9255 46.3138 20.6193 46.3138H33.9866C34.7266 46.3138 35.2817 45.6585 35.2817 44.9025C35.3279 44.1464 34.7266 43.4912 33.9866 43.4912Z" fill="#F19338"/>
<path d="M37.4093 25.1943H20.6193C19.8793 25.1943 19.3242 25.8496 19.3242 26.6056C19.3242 27.3617 19.9255 28.0169 20.6193 28.0169H37.4093C38.1494 28.0169 38.7044 27.3617 38.7044 26.6056C38.7044 25.8496 38.1494 25.1943 37.4093 25.1943Z" fill="#F19338"/>
<path d="M20.6193 18.9446H37.4093C38.1494 18.9446 38.7044 18.2894 38.7044 17.5334C38.7044 16.7269 38.1031 16.1221 37.4093 16.1221H20.6193C19.8793 16.1221 19.3242 16.7773 19.3242 17.5334C19.3242 18.2894 19.9255 18.9446 20.6193 18.9446Z" fill="#F19338"/>
</svg>
