<svg id="facebook" xmlns="http://www.w3.org/2000/svg" width="89" height="89" viewBox="0 0 89 89">
  <path id="Path_342" data-name="Path 342" d="M44.5,89H22.25A22.251,22.251,0,0,1,0,66.751V22.25A22.251,22.251,0,0,1,22.249,0h44.5A22.25,22.25,0,0,1,89,22.25v44.5A22.25,22.25,0,0,1,66.75,89H58.406A6.953,6.953,0,1,0,44.5,89Z" transform="translate(0 0)" fill="#3764b9" fill-rule="evenodd"/>
  <path id="Path_343" data-name="Path 343" d="M41.719,25.031H66.75A12.516,12.516,0,0,0,68.029.064C67.6.04,67.182,0,66.75,0H22.25A22.251,22.251,0,0,0,0,22.249v44.5A41.72,41.72,0,0,1,41.718,25.031" fill="#507dd2" fill-rule="evenodd"/>
  <path id="Path_344" data-name="Path 344" d="M54.25,38.25A22.25,22.25,0,1,0,76.5,60.5V16A22.25,22.25,0,0,1,54.25,38.25" transform="translate(12.5 6.25)" fill="#1e4ba0" fill-rule="evenodd"/>
  <path id="Path_345" data-name="Path 345" d="M62.938,21.125a2.781,2.781,0,0,1-2.781,2.781H51.813a2.781,2.781,0,0,0-2.781,2.781V37.813H59.544a2.781,2.781,0,0,1,2.727,3.326L60.6,49.483a2.781,2.781,0,0,1-2.727,2.236H49.031V85.094H35.125V51.719H26.781A2.781,2.781,0,0,1,24,48.938V40.594a2.781,2.781,0,0,1,2.781-2.781h8.344V26.688A16.688,16.688,0,0,1,51.813,10h8.344a2.781,2.781,0,0,1,2.781,2.781Z" transform="translate(9.375 3.906)" fill="#fff" fill-rule="evenodd"/>
</svg>
