<svg width="26" height="26" viewBox="0 0 26 26" fill="none" xmlns="http://www.w3.org/2000/svg">
<path d="M15.0328 24.9977C13.9053 26.1084 12.0949 26.1084 10.9674 24.9977L9.69528 23.7447C9.15338 23.2108 8.42325 22.9116 7.66257 22.9116H5.98517C4.38542 22.9116 3.08858 21.6148 3.08858 20.015V18.3376C3.08858 17.5769 2.78935 16.8468 2.25553 16.3049L1.00248 15.0328C-0.108249 13.9053 -0.108249 12.0949 1.00248 10.9674L2.25553 9.69528C2.78935 9.15338 3.08858 8.42325 3.08858 7.66257V5.98517C3.08858 4.38542 4.38542 3.08858 5.98517 3.08858H7.66257C8.42325 3.08858 9.15338 2.78935 9.69528 2.25553L10.9674 1.00248C12.0949 -0.108249 13.9053 -0.108249 15.0328 1.00248L16.3049 2.25553C16.8468 2.78935 17.5769 3.08858 18.3376 3.08858H20.015C21.6148 3.08858 22.9116 4.38542 22.9116 5.98517V7.66257C22.9116 8.42325 23.2108 9.15338 23.7447 9.69528L24.9977 10.9674C26.1084 12.0949 26.1084 13.9053 24.9977 15.0328L23.7447 16.3049C23.2108 16.8468 22.9116 17.5769 22.9116 18.3376V20.015C22.9116 21.6148 21.6148 22.9116 20.015 22.9116H18.3376C17.5769 22.9116 16.8468 23.2108 16.3049 23.7447L15.0328 24.9977Z" fill="#EC943C"/>
<path d="M12.924 14.8263C13.1662 14.8263 13.3984 14.7301 13.5696 14.5589C13.7408 14.3876 13.837 14.1554 13.837 13.9132V8.43501C13.837 8.19286 13.7408 7.96062 13.5696 7.78939C13.3984 7.61816 13.1662 7.52197 12.924 7.52197C12.6818 7.52197 12.4496 7.61816 12.2784 7.78939C12.1071 7.96062 12.011 8.19286 12.011 8.43501V13.9132C12.011 14.1554 12.1071 14.3876 12.2784 14.5589C12.4496 14.7301 12.6818 14.8263 12.924 14.8263ZM12.924 18.4785C13.1497 18.4785 13.3704 18.4115 13.5581 18.2861C13.7458 18.1607 13.892 17.9825 13.9784 17.7739C14.0648 17.5654 14.0874 17.3359 14.0434 17.1145C13.9993 16.8931 13.8906 16.6897 13.731 16.5301C13.5714 16.3705 13.368 16.2618 13.1467 16.2178C12.9253 16.1737 12.6958 16.1963 12.4872 16.2827C12.2787 16.3691 12.1004 16.5154 11.975 16.7031C11.8496 16.8908 11.7827 17.1114 11.7827 17.3371C11.7827 17.6398 11.9029 17.9301 12.117 18.1442C12.331 18.3582 12.6213 18.4785 12.924 18.4785Z" fill="white"/>
</svg>
